#define heyedrop_width 32
#define heyedrop_height 12
static unsigned char heyedrop_bits[] = {
   0x00, 0x00, 0x08, 0x00, 0x00, 0x00, 0xf8, 0x3f, 0xe0, 0xff, 0xff, 0x7f,
   0x38, 0x00, 0xf8, 0xff, 0x0f, 0x00, 0xf8, 0xff, 0x00, 0x00, 0xf8, 0xff,
   0x00, 0x00, 0xf8, 0xff, 0x0f, 0x00, 0xf8, 0xff, 0x38, 0x00, 0xf8, 0xff,
   0xe0, 0xff, 0xff, 0x7f, 0x00, 0x00, 0xf8, 0x3f, 0x00, 0x00, 0x08, 0x00};
