/* XPM */
static char *magick[] = {
/* columns rows colors chars-per-pixel */
"60 40 256 2",
"   c Gray0",
".  c Gray3",
"X  c #000010",
"o  c #101010",
"O  c #000021",
"+  c #000029",
"@  c #000039",
"#  c #001839",
"$  c #211818",
"%  c #311000",
"&  c #312100",
"*  c #312918",
"=  c #213139",
"-  c #293139",
";  c #00004a",
":  c #000052",
">  c #00184a",
",  c #18104a",
"<  c #000063",
"1  c #00006b",
"2  c #001063",
"3  c #00215a",
"4  c #002952",
"5  c #10294a",
"6  c #002963",
"7  c #312942",
"8  c #292163",
"9  c #29217b",
"0  c #4a3910",
"q  c #4a3129",
"w  c #5a3929",
"e  c #6b2900",
"r  c #633908",
"t  c #6b3910",
"y  c #4a4a31",
"u  c #734218",
"i  c #6b4229",
"p  c #6b5231",
"a  c #7b5229",
"s  c #7b5a31",
"d  c #4a4a7b",
"f  c #6b5242",
"g  c #6b5a42",
"h  c #63635a",
"j  c #736b42",
"k  c #636b6b",
"l  c #736b63",
"z  c #000094",
"x  c #00009c",
"c  c #0000a5",
"v  c #0000ad",
"b  c #00298c",
"n  c #00299c",
"m  c #003184",
"M  c #00399c",
"N  c #0021b5",
"B  c #212194",
"V  c #0000ce",
"C  c #0000d6",
"Z  c #0018c6",
"A  c #0810de",
"S  c #0000e7",
"D  c #0000f7",
"F  c Blue",
"G  c #0808ff",
"H  c #1810e7",
"J  c #0029c6",
"K  c #0029ff",
"L  c #2929ff",
"P  c #004a8c",
"I  c #004a9c",
"U  c #10529c",
"Y  c #005abd",
"T  c #215294",
"R  c #0052d6",
"E  c #0042e7",
"W  c #0042ff",
"Q  c #004af7",
"!  c #004aff",
"~  c #0052ef",
"^  c #0052ff",
"/  c #006bef",
"(  c #0063ff",
")  c #007bff",
"_  c #317bd6",
"`  c #5a63bd",
"'  c #637384",
"]  c #737b84",
"[  c #4242ff",
"{  c #4a42ff",
"}  c #4a52ff",
"|  c #427bce",
" . c #635af7",
".. c #636bef",
"X. c #0084ff",
"o. c #008cff",
"O. c #1084ff",
"+. c #2984ff",
"@. c #39adff",
"#. c #7b9494",
"$. c #638cb5",
"%. c #5294c6",
"&. c #528ce7",
"*. c #5a9cf7",
"=. c #4aa5ff",
"-. c #52b5ff",
";. c #739cd6",
":. c #7384ef",
">. c #7bb5d6",
",. c #6ba5ef",
"<. c #63adff",
"1. c #6bbdff",
"2. c #7bade7",
"3. c #843910",
"4. c #844208",
"5. c #9c5218",
"6. c #8c5221",
"7. c #8c5229",
"8. c #945a29",
"9. c #9c5229",
"0. c #946339",
"q. c #a56318",
"w. c #a56b39",
"e. c #846352",
"r. c #84735a",
"t. c #947b63",
"y. c #a57b5a",
"u. c #ad7b52",
"i. c #b5734a",
"p. c #b57b4a",
"a. c #d67b18",
"s. c #847bce",
"d. c #9c944a",
"f. c #8c8473",
"g. c #9c846b",
"h. c #9c847b",
"j. c #9c947b",
"k. c #ad8c5a",
"l. c #b58452",
"z. c #ad8463",
"x. c #bd8c63",
"c. c #b59463",
"v. c #bd946b",
"b. c #a5a55a",
"n. c #adad5a",
"m. c #a5a573",
"M. c #bda573",
"N. c #b5b563",
"B. c #ff9431",
"V. c #c68c4a",
"C. c #c68c5a",
"Z. c #c6946b",
"A. c #ce9463",
"S. c #ce9c6b",
"D. c #de9c6b",
"F. c #cead7b",
"G. c #d6a573",
"H. c #dead73",
"J. c #dede52",
"K. c #c6c663",
"L. c #ced67b",
"P. c #dee773",
"I. c #f7f752",
"U. c #eff76b",
"Y. c #ffff73",
"T. c #848484",
"R. c Gray55",
"E. c #9c8c84",
"W. c Gray58",
"Q. c #9c9c94",
"!. c #848cb5",
"~. c #a5a594",
"^. c #a5a5a5",
"/. c Gray68",
"(. c #adb5b5",
"). c Gray71",
"_. c #848cc6",
"`. c #a5a5de",
"'. c #a5bdc6",
"]. c #b5bdc6",
"[. c #a5a5ef",
"{. c #a5bde7",
"}. c #84ceff",
"|. c #94d6ff",
" X c #94efff",
".X c #bdc6c6",
"XX c #bdc6ce",
"oX c #b5c6d6",
"OX c #a5cef7",
"+X c #addeff",
"@X c #b5ceef",
"#X c #c6ad9c",
"$X c #ceb58c",
"%X c #d6b584",
"&X c #d6b58c",
"*X c #d6bd8c",
"=X c #deb58c",
"-X c #d6bdb5",
";X c #efb58c",
":X c #c6ce8c",
">X c #c6c6bd",
",X c #dec6ad",
"<X c #decebd",
"1X c #d6d6bd",
"2X c #ffce8c",
"3X c #f7ce9c",
"4X c #ffde94",
"5X c #efdea5",
"6X c #e7debd",
"7X c #efd6b5",
"8X c #efd6bd",
"9X c NavajoWhite",
"0X c #f7debd",
"qX c #ffd6bd",
"wX c #ffff8c",
"eX c #e7e7ad",
"rX c #e7e7bd",
"tX c #efefbd",
"yX c #ffe7b5",
"uX c #ffffa5",
"iX c #f7f7bd",
"pX c #ffffb5",
"aX c #c6c6c6",
"sX c #c6c6ce",
"dX c #cecece",
"fX c #ceced6",
"gX c #c6d6de",
"hX c #d6cec6",
"jX c #decec6",
"kX c #d6d6ce",
"lX c #dedece",
"zX c #cedeef",
"xX c #d6dee7",
"cX c #cee7e7",
"vX c #d6e7e7",
"bX c #d6efff",
"nX c #e7dec6",
"mX c #efd6c6",
"MX c #ffdec6",
"NX c #efefce",
"BX c #e7efd6",
"VX c #efe7d6",
"CX c #f7efc6",
"ZX c #ffefce",
"AX c #f7e7de",
"SX c #ffffc6",
"DX c #f7f7de",
"FX c #ffffd6",
"GX c #e7e7e7",
"HX c #efefef",
"JX c #eff7ef",
"KX c #e7f7ff",
"LX c #ffffe7",
"PX c #f7ffff",
"IX c #fff7f7",
"UX c Gray100",
/* pixels */
"UXUXUXUXUXUXUXUXUXUXUXUXUXUXUXUXUXUXUXUXUXUXUXUXUXUXUXUXUXUXUXUXUXUXUXUXUXUXUXUXUXUXUXUXUXUXUXUXUXUXUXUXUXUXUXUXUXUXUXR.",
"UXUXUXUXUXUXUXUXUXUXUXUXUXUXUXUXUXUXUXUXUXUXUXUXUXUXUXUXUXUXUXUXUXUXUXUXUXUXUXUXUXUXUXUXUXUXUXUXUXUXUXUXUXUXUXUXUXUX).  ",
"UXUXUXUXUXUXUXUXUXUXUXUXUXUXUXUXUXUXUXUXUXUXUXUXUXUXUXUXUXUXUXUXUXUXUXUXUXUXUXUXUXUXUXUXUXUXUXUXUXUXUXUXUXUXUXUXUXkXo   ",
"UXUXUXaXaXaXaXaXaXaXaXaXaXaXaXaXaXaXaXaXaXaXaXaXaXaXaXaXaXaXaXaXaXaXaXaXaXaXaXaXaXaXaXaXaXaXaXaXaXaXaXaXaXaXaXaXaX      ",
"UXUXUXaXaXaXaXaXaXaXaXaXaXaXaXaXaXaXaXaXaXaXaXaXaXaXaXaXaXaXaXaXaXaXaXaXaXaXaXaXaXaXaXaXaXaXaXaXaXaXaXaXaXaXaXaXaX      ",
"UXUXUXaXaXaXaXaXaXaXaXaXaXaXaXaXaXaXaXaXaXaXaXaXaXaXaXaXaXaXaXaXaXaXaXaXaXaXaXaXaXaXaXaXaXaXaXaXaXaXaXaXaXaXaXaXaX      ",
"UXUXUXaXaXaXaXaXaXaXaXaXaXaXaXaXaXaXaXaXaXaXaXaXaXaXaXaXaXaXaXaXaXaXaXaXaXaXaXaXaXaXaXaXaXaXaXaXaXaXaXaXaXaXaXaXaX      ",
"UXUXUXaXaXaXaXaXaXaXaXaXaXaXaXaXaXaXaXaXaXaXaXaXaXaXaXaXaXaXaXaXaXaXaXaXaXaXaXaXaXaXaXaXaXaXaXaXaXaXaXaXaXaXaXaXaX      ",
"UXUXUXaXaXaXaXaXaXaXaXaXaXaXaXaXaXaXaXaXaXaXaXaXaXaXaXaXaXT.T.T.T.T.T.T.T.T.T.T.T.T.T.T.T.T.T.T.aXaXaXaXaXaXaXaXaX      ",
"UXUXUXaXaXaXaXaXaXaXaXaXaXaXaXaXaXaXaXaXaXaXaXaXaXaXaXf.h.h UXUXUXUXUXUXUXUXUXUXUXUXUXUXUXUXUXT.aXaXaXaXaXaXaXaXaX      ",
"UXUXUXaXaXaXaXaXaXaXaXaXaXaXaXaXaXaXaXaX.XsXaXaXaXf.t 6.q.e.'.UXUXUXUXUXUXUXUXUXUXUXUXUXUXUXIXT.aXaXaXaXaXaXaXaXaX      ",
"UXUXUXaXaXaXaXaXaXaXaXaX          T.T.aXaXaXW.e.t 9.H.G.0.i (.vXUXUXUXUXUXUXUXUXUXUXUXUXUXlX^.T.aXaXaXaXaXaXaXaXaX      ",
"UXUXUXaXaXaXaXaXaXaXaXaX          UXPXk E.u 8.w.A.H.&X$X3XA.e Q.'.xXUXUXUXUXUXUXUXUXUXGXW./.UXT.aXaXaXaXaXaXaXaXaX      ",
"UXUXUXaXaXaXaXaXaXaXaXaX          UXUXp 5.Z.Z.x.F.*XF.F.%X5X3Xp.u g oX>XUXUXUXUXUXHXQ.^.UXUXUXT.aXaXaXaXaXaXaXaXaX      ",
"UXUXUXaXaXaXaXaXaXaXaXaX          UXUXr.D.v.x.x.k.F.=X=XF.0.p.9X;XV.#XzXR.aXUXGX^.R.UXUXUXUXUXT.aXaXaXaXaXaXaXaXaX      ",
"UXUXUXaXaXaXaXaXaXaXaXaX          UXUXr.A.Z.x.v.c.z.u.s 6.w f 3.3.4.g.vXUXkXR./.UXUX/.UXUXUXUXT.aXaXaXaXaXaXaXaXaX      ",
"UXUXUXaXaXaXaXaXaXaXaXaX          UXUXe.A.x.k.C.Z.Z.l.u.p.T.UXkXGX].sXUXUXUXUXUXUXUXHXQ.UXUXUXT.aXaXaXaXaXaXaXaXaX      ",
"UXUXUXaXaXaXaXaXaXaXaXaX          UXUXe.A.S.Z.x.Z.x.x.Z.D.T.UXUXUX].UXUXUXUXUXUXUXUXUXHX^.UXUXT.aXaXaXaXaXaXaXaXaX      ",
"UXUXUXaXaXaXaXaXaXaXaXaX          UXUXt.p.7.6.l.C.C.C.i.6.T.UXGX~.UXUXUXUXUXUXUXUXUXUXUXGX^.UXT.aXaXaXaXaXaXaXaXaX      ",
"UXUXUXaXaXaXaXaXaXaXaXaX          UXUXw s h.g.p p p i e.g.T.UXaXUXUXUXUXUXUXUXUXUXUXUXUXUXUXlXT.aXaXaXaXaXaXaXaXaX      ",
"UXUXUXaXaXaXaXaXaXaXaXaX          UXUXl aXaXaXaXaXaXaXaXaXT.T.T.T.T.T.T.T.T.T.T.T.T.T.T.T.T.T.T.aXaXaXaXaXaXaXaXaX      ",
"UXUXUXaXaXaXaXaXaXsXaXaX          T.T.aXaXaXaXaXaXaXsXsXsXaXaXaXaXaXaXaXaXaXaXaXaXaXaXaXaXaXaXaXaXsXsXaXaXaXaXaXaX      ",
"UXUXUXaXaXaXaXaXaXaXaXaX  . . .   aXaXaXaXaXaXaXaXhXaXaXaXaXaXaXaXaXaXaXaXaXaXaXaXaXaXaXaXaXsXsXsX>XaXaXsXaXaXaXaX      ",
"UXUXUXaXaXaXaXaXaXaXXXXXaXaXaXaXaXaXaXaXaXaXaXaXaXXXXXsXaXaXaXaXaXaXaXaXaXaXaXaXaXaXaXaXaXaXsXaXaXsXsXsXaXaXaXaXaX      ",
"UXUXUXaXaXaXaXaXaXXX7XyXdXaXaXaXaXaXaXaXaXaXaXaXdX7XqXkXsXaXaXaXaXaXaXaXaXaXaXaXaXaXaXaXsXXXiXCXdXiXiXsXaXaXaXaXaX      ",
"UXUXUXaXaXaXaXsXaX9XOX=.AXkXaXaXaXjXmXaXdXaXsXaX.X2.,.fXhXsXaXaXaXsXaXdXaXaXaXaXaX>XXXaXaXtX .`.kX..:.NXsXaXaXaXaX      ",
"UXUXUXaXaXaXaXXXyX<.n ! : 9XlXsX<X.X{.MX.XXX<XkX0X_ ^ $ LXdX.XkXhXdX1XhXXXhXdXaXaXhX6XhX].pXF : K.F v d.HXaXaXaXaX      ",
"UXUXUXaXaXaX.XkXmX) 6 yXl.KXgXyXZX+.Z E.IXqXcXdXSX@X( & IX8XBXsX6XSXlXtXSXfXtXVXrXCX[.rXFXoXeXj SX} c b.HX>XaXaXaX      ",
"UXUXUXaXaXaXaXMXY ) R = bXI M O.-X/ X.< H.@.b Q %.XX) U ~ ^ 2X&.F A C F ` S F L.[.F 7 F ^.>XF S Y.{ c n.HXaXaXaXaX      ",
"UXUXUXaXaXaXaXkX9X) # 3X) 6 >.W % |.J a.|.! e }.X W.o.% .X^ & LXF O P.F + :XF $ LX< j.F : wXL z J.} c b.HXaXaXaXaX      ",
"UXUXUXaXaXaXaXhX0X) > 8X) 3 M.y.G.-.N B.1.^ a FX4X+X^ r KXK 0 LXF * FXF * IXF * JXH - F : wXL z I. .x n.HXaXaXaXaX      ",
"UXUXUXaXaXaXaX1XkXX.b uX( E lX XQ.*.^ #.AX! Y KX| $.X.0 +XF y IXF , DXF , gXF y L D m.F z uXG C U.[ V N.JXaXaXaXaX      ",
"UXUXUXaXaXaXaXlX;.3 2 ] ZXT 2 O g.DXP @ v.1Xm : q %.4 5 _.: : ` < @ !.1 @ s.< ; ~.c @ ' < d B ; 9 B : 8 nXdXaXaXaX      ",
"UXUXUXaXaXsXsXaX6X7XMXaXlXMX,XVXHXhXqX7XxXVX9X,XIXmX7XNXnXyXNX6XiXNXnXpXNXrXiXCXlXpXnXFXeXnXiXSXnXtXpXnXsXhXaXaXaX      ",
"UXUXUXaXaXaXaXaXsXfXsXdXaXsXfXdXaXaXdXfXaXaXfXkXaXsXfXdXdXdXdXdXsXdXdXsXdXsXsXdXsXsXfXaXfXdXsXsXdXdXsXdXaXaXaXaXaX      ",
"UXUXUXaXaXaXaXaXaXaXaXaXaXaXaXaXaXaXaXaXaXaXaXaXaXaXaXaXaXaXaXaXaXaXaXaXaXaXaXaXaXaXaXaXaXaXaXaXaXaXaXaXaXaXaXaXaX      ",
"UXUXUXaXaXaXaXaXaXaXaXaXaXaXaXaXaXaXaXaXaXaXaXaXaXaXaXaXaXaXaXaXaXaXaXaXaXaXaXaXaXaXaXaXaXaXaXaXaXaXaXaXaXaXaXaXaX      ",
"UXUXlX                                                                                                                  ",
"UXkX$                                                                                                                   ",
"R.o                                                                                                                     "
};
