#define x5_width 13
#define x5_height 14
static char x5_bits[] = {
   0x40, 0x01, 0xc0, 0x01, 0x40, 0x01, 0xc0, 0x01, 0x40, 0x01, 0xc0, 0x01,
   0x40, 0x01, 0xc0, 0x01, 0x4c, 0x19, 0xf8, 0x0f, 0x70, 0x07, 0xe0, 0x03,
   0xc0, 0x01, 0x80, 0x00};
