#define uparrow_width 13
#define uparrow_height 14
static char uparrow_bits[] = {
 0x80,0x00,0xc0,0x01,0xe0,0x03,0x70,0x07,0xf8,0x0f,0x4c,0x19,0xc0,0x01,0x40,
 0x01,0xc0,0x01,0x40,0x01,0xc0,0x01,0x40,0x01,0xc0,0x01,0x40,0x01};
