STARTFONT 2.1
COMMENT AUTOMATICALLY GENERATED FILE. DO NOT EDIT!
COMMENT Generated with 'ucs2any.pl courBO12.bdf ../../../fonts/util/map-ISO8859-1 ISO8859-1'
COMMENT from an ISO10646-1 encoded source BDF font.
COMMENT ucs2any.pl by Markus Kuhn <mkuhn@acm.org>, 2000.
FONT -Adobe-Courier-Bold-O-Normal--17-120-100-100-M-100-ISO8859-1
SIZE 12 100 100
FONTBOUNDINGBOX 15 18 -2 -4
COMMENT $Xorg: $
COMMENT ISO10646-1 extension by Markus Kuhn <mkuhn@acm.org>, 2001-03-20
COMMENT 
COMMENT +
COMMENT  Copyright 1984-1989, 1994 Adobe Systems Incorporated.
COMMENT  Copyright 1988, 1994 Digital Equipment Corporation.
COMMENT
COMMENT  Adobe is a trademark of Adobe Systems Incorporated which may be
COMMENT  registered in certain jurisdictions.
COMMENT  Permission to use these trademarks is hereby granted only in
COMMENT  association with the images described in this file.
COMMENT
COMMENT  Permission to use, copy, modify, distribute and sell this software
COMMENT  and its documentation for any purpose and without fee is hereby
COMMENT  granted, provided that the above copyright notices appear in all
COMMENT  copies and that both those copyright notices and this permission
COMMENT  notice appear in supporting documentation, and that the names of
COMMENT  Adobe Systems and Digital Equipment Corporation not be used in
COMMENT  advertising or publicity pertaining to distribution of the software
COMMENT  without specific, written prior permission.  Adobe Systems and
COMMENT  Digital Equipment Corporation make no representations about the
COMMENT  suitability of this software for any purpose.  It is provided "as
COMMENT  is" without express or implied warranty.
COMMENT -
STARTPROPERTIES 26
FOUNDRY "Adobe"
FAMILY_NAME "Courier"
WEIGHT_NAME "Bold"
SLANT "O"
SETWIDTH_NAME "Normal"
ADD_STYLE_NAME ""
PIXEL_SIZE 17
POINT_SIZE 120
RESOLUTION_X 100
RESOLUTION_Y 100
SPACING "M"
AVERAGE_WIDTH 100
CHARSET_REGISTRY "ISO8859"
CHARSET_ENCODING "1"
CAP_HEIGHT 10
X_HEIGHT 7
FONT_ASCENT 12
FONT_DESCENT 3
FACE_NAME "Courier Bold Oblique"
COPYRIGHT "Copyright (c) 1984, 1987 Adobe Systems Incorporated. All Rights Reserved. Copyright (c) 1988, 1991 Digital Equipment Corporation. All Rights Reserved."
NOTICE "No mark"
_DEC_DEVICE_FONTNAMES "PS=Courier-BoldOblique"
DEFAULT_CHAR 0
RELATIVE_SETWIDTH 50
RELATIVE_WEIGHT 70
FULL_NAME "Courier Bold Oblique"
ENDPROPERTIES
CHARS 192
STARTCHAR defaultchar
ENCODING 0
SWIDTH 600 0
DWIDTH 10 0
BBX 11 9 0 0
BITMAP
AAA0
0000
8020
0000
8020
0000
8020
0000
AAA0
ENDCHAR
STARTCHAR space
ENCODING 32
SWIDTH 600 0
DWIDTH 10 0
BBX 1 1 0 0
BITMAP
00
ENDCHAR
STARTCHAR exclam
ENCODING 33
SWIDTH 600 0
DWIDTH 10 0
BBX 6 11 3 0
BITMAP
0C
0C
18
18
30
30
60
60
00
C0
C0
ENDCHAR
STARTCHAR quotedbl
ENCODING 34
SWIDTH 600 0
DWIDTH 10 0
BBX 5 5 5 6
BITMAP
D8
D8
D8
90
90
ENDCHAR
STARTCHAR numbersign
ENCODING 35
SWIDTH 600 0
DWIDTH 10 0
BBX 11 12 0 -1
BITMAP
06C0
06C0
0D80
0D80
7FE0
1B00
1B00
FFC0
3600
3600
6C00
6C00
ENDCHAR
STARTCHAR dollar
ENCODING 36
SWIDTH 600 0
DWIDTH 10 0
BBX 10 13 1 -1
BITMAP
0300
0300
0FC0
1980
3000
3800
1E00
0700
0300
6600
FC00
3000
3000
ENDCHAR
STARTCHAR percent
ENCODING 37
SWIDTH 600 0
DWIDTH 10 0
BBX 9 11 2 0
BITMAP
3C00
E600
CE00
7800
0380
3E00
E000
1E00
7300
6700
3C00
ENDCHAR
STARTCHAR ampersand
ENCODING 38
SWIDTH 600 0
DWIDTH 10 0
BBX 9 9 1 0
BITMAP
0F00
1980
3000
1000
3980
6F00
C600
CE00
7B00
ENDCHAR
STARTCHAR quotesingle
ENCODING 39
SWIDTH 600 0
DWIDTH 10 0
BBX 2 5 6 6
BITMAP
C0
C0
C0
C0
C0
ENDCHAR
STARTCHAR parenleft
ENCODING 40
SWIDTH 600 0
DWIDTH 10 0
BBX 7 13 4 -2
BITMAP
06
0C
18
30
60
60
C0
C0
C0
C0
C0
C0
C0
ENDCHAR
STARTCHAR parenright
ENCODING 41
SWIDTH 600 0
DWIDTH 10 0
BBX 7 13 1 -2
BITMAP
06
06
06
06
06
06
06
0C
0C
18
30
60
C0
ENDCHAR
STARTCHAR asterisk
ENCODING 42
SWIDTH 600 0
DWIDTH 10 0
BBX 9 6 3 5
BITMAP
0C00
0C00
FF80
3C00
3C00
6600
ENDCHAR
STARTCHAR plus
ENCODING 43
SWIDTH 600 0
DWIDTH 10 0
BBX 9 8 2 1
BITMAP
0600
0600
0C00
FF80
FF80
1800
3000
3000
ENDCHAR
STARTCHAR comma
ENCODING 44
SWIDTH 600 0
DWIDTH 10 0
BBX 3 5 2 -3
BITMAP
60
60
40
C0
80
ENDCHAR
STARTCHAR hyphen
ENCODING 45
SWIDTH 600 0
DWIDTH 10 0
BBX 7 2 2 4
BITMAP
FE
FE
ENDCHAR
STARTCHAR period
ENCODING 46
SWIDTH 600 0
DWIDTH 10 0
BBX 2 2 4 0
BITMAP
C0
C0
ENDCHAR
STARTCHAR slash
ENCODING 47
SWIDTH 600 0
DWIDTH 10 0
BBX 13 14 0 -2
BITMAP
0018
0030
0060
00C0
00C0
0180
0300
0600
0C00
1800
1800
3000
6000
C000
ENDCHAR
STARTCHAR zero
ENCODING 48
SWIDTH 600 0
DWIDTH 10 0
BBX 9 11 2 0
BITMAP
0F00
1980
3180
6180
6180
C180
C300
C300
C600
CC00
7800
ENDCHAR
STARTCHAR one
ENCODING 49
SWIDTH 600 0
DWIDTH 10 0
BBX 9 11 1 0
BITMAP
0380
1F00
0300
0600
0600
0C00
0C00
0C00
1800
1800
FF00
ENDCHAR
STARTCHAR two
ENCODING 50
SWIDTH 600 0
DWIDTH 10 0
BBX 10 11 1 0
BITMAP
0F80
18C0
30C0
00C0
0180
0300
0E00
1C00
3000
6300
FF00
ENDCHAR
STARTCHAR three
ENCODING 51
SWIDTH 600 0
DWIDTH 10 0
BBX 10 11 1 0
BITMAP
0F80
18C0
30C0
0380
0E00
0300
0300
0300
C300
C600
7C00
ENDCHAR
STARTCHAR four
ENCODING 52
SWIDTH 600 0
DWIDTH 10 0
BBX 9 11 2 0
BITMAP
0180
0380
0700
0B00
1200
2600
6600
FF00
0C00
0C00
3E00
ENDCHAR
STARTCHAR five
ENCODING 53
SWIDTH 600 0
DWIDTH 10 0
BBX 10 11 2 0
BITMAP
0FC0
1800
1800
1000
3E00
0300
0300
0300
C600
CC00
7800
ENDCHAR
STARTCHAR six
ENCODING 54
SWIDTH 600 0
DWIDTH 10 0
BBX 9 11 3 0
BITMAP
0780
1C00
3000
6000
7C00
C600
C600
C600
C600
CC00
7800
ENDCHAR
STARTCHAR seven
ENCODING 55
SWIDTH 600 0
DWIDTH 10 0
BBX 9 11 3 0
BITMAP
7F80
C300
0600
0600
0C00
0C00
1800
1800
3000
6000
6000
ENDCHAR
STARTCHAR eight
ENCODING 56
SWIDTH 600 0
DWIDTH 10 0
BBX 9 11 2 0
BITMAP
0F00
1980
3180
1B00
1E00
7600
E300
C300
C300
C600
7C00
ENDCHAR
STARTCHAR nine
ENCODING 57
SWIDTH 600 0
DWIDTH 10 0
BBX 9 11 1 0
BITMAP
0F00
1980
3180
3180
3180
1F80
0100
0300
0600
1C00
F000
ENDCHAR
STARTCHAR colon
ENCODING 58
SWIDTH 600 0
DWIDTH 10 0
BBX 4 7 3 0
BITMAP
30
30
00
00
00
C0
C0
ENDCHAR
STARTCHAR semicolon
ENCODING 59
SWIDTH 600 0
DWIDTH 10 0
BBX 5 10 2 -3
BITMAP
18
18
00
00
00
60
60
40
C0
80
ENDCHAR
STARTCHAR less
ENCODING 60
SWIDTH 600 0
DWIDTH 10 0
BBX 12 9 1 0
BITMAP
00F0
03C0
0F00
3C00
F000
3800
1E00
0700
0380
ENDCHAR
STARTCHAR equal
ENCODING 61
SWIDTH 600 0
DWIDTH 10 0
BBX 10 5 1 2
BITMAP
7FC0
7FC0
0000
FF80
FF80
ENDCHAR
STARTCHAR greater
ENCODING 62
SWIDTH 600 0
DWIDTH 10 0
BBX 11 9 0 0
BITMAP
3800
1C00
0F00
0380
01E0
0780
1E00
7800
E000
ENDCHAR
STARTCHAR question
ENCODING 63
SWIDTH 600 0
DWIDTH 10 0
BBX 8 10 3 0
BITMAP
3E
63
63
06
1C
30
60
00
C0
C0
ENDCHAR
STARTCHAR at
ENCODING 64
SWIDTH 600 0
DWIDTH 10 0
BBX 10 12 1 -1
BITMAP
0780
0CC0
18C0
30C0
2780
6D80
5B00
DB00
CF80
C000
6C00
3800
ENDCHAR
STARTCHAR A
ENCODING 65
SWIDTH 600 0
DWIDTH 10 0
BBX 10 10 0 0
BITMAP
0F80
0380
0780
0580
0D80
1980
1F80
3180
6180
F3C0
ENDCHAR
STARTCHAR B
ENCODING 66
SWIDTH 600 0
DWIDTH 10 0
BBX 12 10 0 0
BITMAP
1FC0
0C60
0C30
1860
1FC0
3180
30C0
60C0
6180
FF00
ENDCHAR
STARTCHAR C
ENCODING 67
SWIDTH 600 0
DWIDTH 10 0
BBX 11 10 1 0
BITMAP
07A0
1CE0
30C0
6000
6000
C000
C000
C180
6700
3C00
ENDCHAR
STARTCHAR D
ENCODING 68
SWIDTH 600 0
DWIDTH 10 0
BBX 11 10 0 0
BITMAP
1F80
0CC0
0C60
1860
1860
30C0
30C0
6180
6700
FC00
ENDCHAR
STARTCHAR E
ENCODING 69
SWIDTH 600 0
DWIDTH 10 0
BBX 11 10 0 0
BITMAP
1FE0
0C60
0C60
1900
1F00
3200
3000
6180
6300
FF00
ENDCHAR
STARTCHAR F
ENCODING 70
SWIDTH 600 0
DWIDTH 10 0
BBX 11 10 0 0
BITMAP
1FE0
0C60
0C60
1900
1F00
3200
3000
6000
6000
F800
ENDCHAR
STARTCHAR G
ENCODING 71
SWIDTH 600 0
DWIDTH 10 0
BBX 11 10 1 0
BITMAP
07A0
1CE0
30C0
6000
6000
C7C0
C180
C180
6300
3E00
ENDCHAR
STARTCHAR H
ENCODING 72
SWIDTH 600 0
DWIDTH 10 0
BBX 12 10 0 0
BITMAP
1EF0
0C60
0C60
18C0
1FC0
3180
3180
6300
6300
F780
ENDCHAR
STARTCHAR I
ENCODING 73
SWIDTH 600 0
DWIDTH 10 0
BBX 11 10 1 0
BITMAP
1FE0
0300
0300
0600
0600
0C00
0C00
1800
1800
FF00
ENDCHAR
STARTCHAR J
ENCODING 74
SWIDTH 600 0
DWIDTH 10 0
BBX 12 10 0 0
BITMAP
07F0
00C0
00C0
0180
0180
6300
6300
C600
C600
7C00
ENDCHAR
STARTCHAR K
ENCODING 75
SWIDTH 600 0
DWIDTH 10 0
BBX 12 10 0 0
BITMAP
1EF0
0CC0
0D80
1B00
1E00
3C00
3600
6300
6300
FB80
ENDCHAR
STARTCHAR L
ENCODING 76
SWIDTH 600 0
DWIDTH 10 0
BBX 10 10 0 0
BITMAP
1F80
0600
0600
0C00
0C00
1800
18C0
30C0
3180
FF80
ENDCHAR
STARTCHAR M
ENCODING 77
SWIDTH 600 0
DWIDTH 10 0
BBX 13 10 -1 0
BITMAP
1C38
0C70
0CF0
1DA0
1760
36C0
36C0
6180
6180
F3C0
ENDCHAR
STARTCHAR N
ENCODING 78
SWIDTH 600 0
DWIDTH 10 0
BBX 12 10 0 0
BITMAP
31F0
1860
1860
3CC0
3CC0
2680
6780
6380
C300
F100
ENDCHAR
STARTCHAR O
ENCODING 79
SWIDTH 600 0
DWIDTH 10 0
BBX 10 10 1 0
BITMAP
0F80
18C0
30C0
60C0
60C0
C180
C180
C300
C600
7C00
ENDCHAR
STARTCHAR P
ENCODING 80
SWIDTH 600 0
DWIDTH 10 0
BBX 12 10 0 0
BITMAP
1FC0
0C60
0C30
1860
19C0
3F00
3000
6000
6000
FC00
ENDCHAR
STARTCHAR Q
ENCODING 81
SWIDTH 600 0
DWIDTH 10 0
BBX 10 12 1 -2
BITMAP
0F80
18C0
30C0
60C0
60C0
C180
C180
C300
CE00
7800
6600
FC00
ENDCHAR
STARTCHAR R
ENCODING 82
SWIDTH 600 0
DWIDTH 10 0
BBX 11 10 0 0
BITMAP
1F80
0CC0
0C60
18C0
1980
3F00
3180
6180
6300
FB80
ENDCHAR
STARTCHAR S
ENCODING 83
SWIDTH 600 0
DWIDTH 10 0
BBX 11 10 0 0
BITMAP
0FE0
18C0
30C0
3000
1C00
0700
0180
6180
6300
FE00
ENDCHAR
STARTCHAR T
ENCODING 84
SWIDTH 600 0
DWIDTH 10 0
BBX 11 10 1 0
BITMAP
3FE0
3660
66C0
6CC0
0C00
1800
1800
3000
3000
FC00
ENDCHAR
STARTCHAR U
ENCODING 85
SWIDTH 600 0
DWIDTH 10 0
BBX 12 10 1 0
BITMAP
7DF0
30C0
30C0
6180
6180
C300
C300
C600
CC00
7800
ENDCHAR
STARTCHAR V
ENCODING 86
SWIDTH 600 0
DWIDTH 10 0
BBX 10 10 3 0
BITMAP
F3C0
6180
6300
6600
6C00
6C00
7800
7000
6000
6000
ENDCHAR
STARTCHAR W
ENCODING 87
SWIDTH 600 0
DWIDTH 10 0
BBX 11 10 2 0
BITMAP
79E0
30C0
34C0
6D80
6D00
6D00
7E00
6E00
CC00
CC00
ENDCHAR
STARTCHAR X
ENCODING 88
SWIDTH 600 0
DWIDTH 10 0
BBX 13 10 0 0
BITMAP
1E78
0C30
0660
06C0
0300
0700
1F00
3180
6180
F3C0
ENDCHAR
STARTCHAR Y
ENCODING 89
SWIDTH 600 0
DWIDTH 10 0
BBX 11 10 2 0
BITMAP
79E0
30C0
3180
1B00
1E00
0C00
1800
1800
3000
FC00
ENDCHAR
STARTCHAR Z
ENCODING 90
SWIDTH 600 0
DWIDTH 10 0
BBX 11 10 1 0
BITMAP
1FE0
18C0
1980
0300
0600
0C00
1800
3300
6300
FF00
ENDCHAR
STARTCHAR bracketleft
ENCODING 91
SWIDTH 600 0
DWIDTH 10 0
BBX 9 13 3 -2
BITMAP
0F80
0C00
0C00
1800
1800
1800
3000
3000
3000
6000
6000
C000
F000
ENDCHAR
STARTCHAR backslash
ENCODING 92
SWIDTH 600 0
DWIDTH 10 0
BBX 4 14 4 -2
BITMAP
C0
C0
C0
C0
60
60
60
60
60
30
30
30
30
30
ENDCHAR
STARTCHAR bracketright
ENCODING 93
SWIDTH 600 0
DWIDTH 10 0
BBX 9 13 0 -2
BITMAP
0780
0180
0300
0300
0600
0600
0600
0C00
0C00
0C00
1800
1800
F800
ENDCHAR
STARTCHAR asciicircum
ENCODING 94
SWIDTH 600 0
DWIDTH 10 0
BBX 8 4 3 7
BITMAP
18
3C
66
C3
ENDCHAR
STARTCHAR underscore
ENCODING 95
SWIDTH 600 0
DWIDTH 10 0
BBX 11 2 -2 -3
BITMAP
FFE0
FFE0
ENDCHAR
STARTCHAR grave
ENCODING 96
SWIDTH 600 0
DWIDTH 10 0
BBX 4 3 5 8
BITMAP
C0
60
30
ENDCHAR
STARTCHAR a
ENCODING 97
SWIDTH 600 0
DWIDTH 10 0
BBX 9 7 0 0
BITMAP
0F00
1980
0180
3F00
6300
C600
7F00
ENDCHAR
STARTCHAR b
ENCODING 98
SWIDTH 600 0
DWIDTH 10 0
BBX 10 11 0 0
BITMAP
1E00
0600
0C00
0C00
0F80
18C0
18C0
30C0
3180
3380
EE00
ENDCHAR
STARTCHAR c
ENCODING 99
SWIDTH 600 0
DWIDTH 10 0
BBX 9 7 1 0
BITMAP
1E80
7380
6300
C000
C000
C600
7C00
ENDCHAR
STARTCHAR d
ENCODING 100
SWIDTH 600 0
DWIDTH 10 0
BBX 10 11 1 0
BITMAP
01C0
00C0
00C0
0180
1D80
7300
6300
C300
C600
CE00
7700
ENDCHAR
STARTCHAR e
ENCODING 101
SWIDTH 600 0
DWIDTH 10 0
BBX 8 7 1 0
BITMAP
1E
73
63
FF
C0
C6
7C
ENDCHAR
STARTCHAR f
ENCODING 102
SWIDTH 600 0
DWIDTH 10 0
BBX 12 11 1 0
BITMAP
01E0
0330
0630
0600
3F80
0C00
1800
1800
3000
3000
FE00
ENDCHAR
STARTCHAR g
ENCODING 103
SWIDTH 600 0
DWIDTH 10 0
BBX 10 10 1 -3
BITMAP
1EC0
7380
6300
C300
C600
CE00
7600
0600
0C00
F800
ENDCHAR
STARTCHAR h
ENCODING 104
SWIDTH 600 0
DWIDTH 10 0
BBX 10 11 0 0
BITMAP
0E00
0600
0C00
0C00
1B80
1CC0
18C0
3180
3180
6300
F780
ENDCHAR
STARTCHAR i
ENCODING 105
SWIDTH 600 0
DWIDTH 10 0
BBX 8 10 1 0
BITMAP
03
03
00
1E
06
0C
0C
18
18
FF
ENDCHAR
STARTCHAR j
ENCODING 106
SWIDTH 600 0
DWIDTH 10 0
BBX 9 13 0 -3
BITMAP
0180
0180
0000
1F80
0180
0300
0300
0600
0600
0600
0C00
0C00
F000
ENDCHAR
STARTCHAR k
ENCODING 107
SWIDTH 600 0
DWIDTH 10 0
BBX 10 11 1 0
BITMAP
1C00
0C00
0C00
1800
19C0
1B00
3600
3800
6C00
6600
EF80
ENDCHAR
STARTCHAR l
ENCODING 108
SWIDTH 600 0
DWIDTH 10 0
BBX 8 11 1 0
BITMAP
0F
03
03
06
06
06
0C
0C
18
18
FF
ENDCHAR
STARTCHAR m
ENCODING 109
SWIDTH 600 0
DWIDTH 10 0
BBX 11 7 0 0
BITMAP
3B60
1FE0
1B60
36C0
36C0
6D80
EDC0
ENDCHAR
STARTCHAR n
ENCODING 110
SWIDTH 600 0
DWIDTH 10 0
BBX 10 7 0 0
BITMAP
3B80
1CC0
18C0
3180
3180
6300
F780
ENDCHAR
STARTCHAR o
ENCODING 111
SWIDTH 600 0
DWIDTH 10 0
BBX 8 7 1 0
BITMAP
1E
73
63
C3
C6
CE
78
ENDCHAR
STARTCHAR p
ENCODING 112
SWIDTH 600 0
DWIDTH 10 0
BBX 11 10 -1 -3
BITMAP
1DC0
0E60
0C60
1860
18C0
39C0
3700
6000
6000
F800
ENDCHAR
STARTCHAR q
ENCODING 113
SWIDTH 600 0
DWIDTH 10 0
BBX 10 10 1 -3
BITMAP
1EC0
7380
6300
C300
C600
CE00
7600
0C00
0C00
3E00
ENDCHAR
STARTCHAR r
ENCODING 114
SWIDTH 600 0
DWIDTH 10 0
BBX 11 7 0 0
BITMAP
3DC0
0E60
1800
1800
3000
3000
FE00
ENDCHAR
STARTCHAR s
ENCODING 115
SWIDTH 600 0
DWIDTH 10 0
BBX 9 7 1 0
BITMAP
1F80
3180
6000
3E00
0300
C600
FC00
ENDCHAR
STARTCHAR t
ENCODING 116
SWIDTH 600 0
DWIDTH 10 0
BBX 8 9 2 0
BITMAP
18
18
FF
30
60
60
C0
C6
7C
ENDCHAR
STARTCHAR u
ENCODING 117
SWIDTH 600 0
DWIDTH 10 0
BBX 9 7 1 0
BITMAP
7B80
3180
6300
6300
C600
CE00
7B00
ENDCHAR
STARTCHAR v
ENCODING 118
SWIDTH 600 0
DWIDTH 10 0
BBX 10 7 1 0
BITMAP
F3C0
6180
6300
6600
3C00
3800
3000
ENDCHAR
STARTCHAR w
ENCODING 119
SWIDTH 600 0
DWIDTH 10 0
BBX 10 7 1 0
BITMAP
F3C0
6180
6B00
6A00
7E00
6C00
6C00
ENDCHAR
STARTCHAR x
ENCODING 120
SWIDTH 600 0
DWIDTH 10 0
BBX 10 7 0 0
BITMAP
3BC0
1980
1F00
0C00
3E00
6600
F700
ENDCHAR
STARTCHAR y
ENCODING 121
SWIDTH 600 0
DWIDTH 10 0
BBX 12 10 -1 -3
BITMAP
3CF0
1860
18C0
0D80
0F00
0600
0C00
1800
3000
F800
ENDCHAR
STARTCHAR z
ENCODING 122
SWIDTH 600 0
DWIDTH 10 0
BBX 9 7 1 0
BITMAP
3F80
3300
0600
1C00
3000
6600
FE00
ENDCHAR
STARTCHAR braceleft
ENCODING 123
SWIDTH 600 0
DWIDTH 10 0
BBX 8 13 3 -2
BITMAP
07
0C
0C
0C
18
38
60
30
30
60
60
C0
70
ENDCHAR
STARTCHAR bar
ENCODING 124
SWIDTH 600 0
DWIDTH 10 0
BBX 7 13 2 -2
BITMAP
06
06
0C
0C
18
18
30
30
30
60
60
C0
C0
ENDCHAR
STARTCHAR braceright
ENCODING 125
SWIDTH 600 0
DWIDTH 10 0
BBX 8 13 1 -2
BITMAP
0E
03
06
06
0C
0C
06
1C
18
30
30
30
E0
ENDCHAR
STARTCHAR asciitilde
ENCODING 126
SWIDTH 600 0
DWIDTH 10 0
BBX 8 3 1 3
BITMAP
70
DB
0E
ENDCHAR
STARTCHAR space
ENCODING 160
SWIDTH 600 0
DWIDTH 10 0
BBX 1 1 0 0
BITMAP
00
ENDCHAR
STARTCHAR exclamdown
ENCODING 161
SWIDTH 600 0
DWIDTH 10 0
BBX 6 11 1 -4
BITMAP
0C
0C
00
18
18
30
30
60
60
C0
C0
ENDCHAR
STARTCHAR cent
ENCODING 162
SWIDTH 600 0
DWIDTH 10 0
BBX 8 10 2 0
BITMAP
06
0C
3F
66
C0
C0
CC
78
60
C0
ENDCHAR
STARTCHAR sterling
ENCODING 163
SWIDTH 600 0
DWIDTH 10 0
BBX 11 10 0 0
BITMAP
03C0
0660
0600
0C00
3F00
3F00
0C00
1800
7180
FF00
ENDCHAR
STARTCHAR currency
ENCODING 164
SWIDTH 600 0
DWIDTH 10 0
BBX 11 7 0 1
BITMAP
1860
1FC0
1980
3180
3300
7F00
C300
ENDCHAR
STARTCHAR yen
ENCODING 165
SWIDTH 600 0
DWIDTH 10 0
BBX 11 10 1 0
BITMAP
79E0
30C0
3380
1600
1C00
7E00
1800
7E00
3000
FC00
ENDCHAR
STARTCHAR brokenbar
ENCODING 166
SWIDTH 600 0
DWIDTH 10 0
BBX 7 13 2 -2
BITMAP
06
06
0C
0C
18
18
00
30
30
60
60
C0
C0
ENDCHAR
STARTCHAR section
ENCODING 167
SWIDTH 600 0
DWIDTH 10 0
BBX 11 12 1 -1
BITMAP
07E0
0C60
0C60
3800
6E00
6380
38C0
0EC0
0780
C200
C600
FC00
ENDCHAR
STARTCHAR dieresis
ENCODING 168
SWIDTH 600 0
DWIDTH 10 0
BBX 5 2 5 8
BITMAP
D8
D8
ENDCHAR
STARTCHAR copyright
ENCODING 169
SWIDTH 600 0
DWIDTH 10 0
BBX 11 10 0 0
BITMAP
0F80
38C0
6060
6760
CD60
D860
CEC0
C0C0
6380
3E00
ENDCHAR
STARTCHAR ordfeminine
ENCODING 170
SWIDTH 600 0
DWIDTH 10 0
BBX 7 7 2 3
BITMAP
1C
06
3C
6C
3E
00
FC
ENDCHAR
STARTCHAR guillemotleft
ENCODING 171
SWIDTH 600 0
DWIDTH 10 0
BBX 9 7 1 0
BITMAP
1980
3300
6600
CC00
CC00
6600
6600
ENDCHAR
STARTCHAR logicalnot
ENCODING 172
SWIDTH 600 0
DWIDTH 10 0
BBX 8 5 2 2
BITMAP
FF
FF
03
06
06
ENDCHAR
STARTCHAR hyphen
ENCODING 173
SWIDTH 600 0
DWIDTH 10 0
BBX 7 2 2 4
BITMAP
FE
FE
ENDCHAR
STARTCHAR registered
ENCODING 174
SWIDTH 600 0
DWIDTH 10 0
BBX 11 10 0 0
BITMAP
0F80
38C0
6060
6F60
CD60
DE60
DBC0
C0C0
6380
3E00
ENDCHAR
STARTCHAR macron
ENCODING 175
SWIDTH 600 0
DWIDTH 10 0
BBX 6 1 4 8
BITMAP
FC
ENDCHAR
STARTCHAR degree
ENCODING 176
SWIDTH 600 0
DWIDTH 10 0
BBX 6 5 4 6
BITMAP
38
6C
CC
D8
70
ENDCHAR
STARTCHAR plusminus
ENCODING 177
SWIDTH 600 0
DWIDTH 10 0
BBX 11 10 0 0
BITMAP
0180
0180
0300
1FE0
3FC0
0600
0C00
0C00
7F80
FF00
ENDCHAR
STARTCHAR twosuperior
ENCODING 178
SWIDTH 600 0
DWIDTH 10 0
BBX 7 6 3 5
BITMAP
1C
36
0C
18
60
FC
ENDCHAR
STARTCHAR threesuperior
ENCODING 179
SWIDTH 600 0
DWIDTH 10 0
BBX 6 6 4 5
BITMAP
38
4C
38
10
D8
70
ENDCHAR
STARTCHAR acute
ENCODING 180
SWIDTH 600 0
DWIDTH 10 0
BBX 4 3 6 8
BITMAP
30
60
C0
ENDCHAR
STARTCHAR mu
ENCODING 181
SWIDTH 600 0
DWIDTH 10 0
BBX 10 10 0 -3
BITMAP
3DC0
18C0
3180
3180
6300
6700
7D80
6000
C000
C000
ENDCHAR
STARTCHAR paragraph
ENCODING 182
SWIDTH 600 0
DWIDTH 10 0
BBX 13 12 0 -1
BITMAP
07F8
1F60
1B60
36C0
36C0
1EC0
0D80
0D80
0D80
1B00
1B00
FF80
ENDCHAR
STARTCHAR periodcentered
ENCODING 183
SWIDTH 600 0
DWIDTH 10 0
BBX 2 2 5 4
BITMAP
C0
C0
ENDCHAR
STARTCHAR cedilla
ENCODING 184
SWIDTH 600 0
DWIDTH 10 0
BBX 4 3 2 -3
BITMAP
20
30
F0
ENDCHAR
STARTCHAR onesuperior
ENCODING 185
SWIDTH 600 0
DWIDTH 10 0
BBX 5 6 3 5
BITMAP
18
78
18
30
30
F8
ENDCHAR
STARTCHAR ordmasculine
ENCODING 186
SWIDTH 600 0
DWIDTH 10 0
BBX 7 7 2 3
BITMAP
1C
36
66
6C
38
00
FC
ENDCHAR
STARTCHAR guillemotright
ENCODING 187
SWIDTH 600 0
DWIDTH 10 0
BBX 9 7 0 0
BITMAP
3300
3300
1980
1980
3300
6600
CC00
ENDCHAR
STARTCHAR onequarter
ENCODING 188
SWIDTH 600 0
DWIDTH 10 0
BBX 11 11 0 0
BITMAP
1800
7860
18C0
3180
3300
FE40
0CC0
19C0
3280
67C0
0180
ENDCHAR
STARTCHAR onehalf
ENCODING 189
SWIDTH 600 0
DWIDTH 10 0
BBX 11 11 0 0
BITMAP
1800
7860
18C0
3180
3300
FFC0
0F60
18C0
3380
6600
0FC0
ENDCHAR
STARTCHAR threequarters
ENCODING 190
SWIDTH 600 0
DWIDTH 10 0
BBX 11 11 0 0
BITMAP
3800
4C60
38C0
1180
DB00
7640
0CC0
19C0
3280
67C0
0180
ENDCHAR
STARTCHAR questiondown
ENCODING 191
SWIDTH 600 0
DWIDTH 10 0
BBX 8 11 0 -4
BITMAP
03
03
00
06
06
0C
38
60
C6
C6
7C
ENDCHAR
STARTCHAR Agrave
ENCODING 192
SWIDTH 600 0
DWIDTH 10 0
BBX 10 14 0 0
BITMAP
0600
0300
0180
0000
0F80
0380
0780
0580
0D80
1980
1F80
3180
6180
F3C0
ENDCHAR
STARTCHAR Aacute
ENCODING 193
SWIDTH 600 0
DWIDTH 10 0
BBX 11 14 0 0
BITMAP
0060
00C0
0180
0000
0F80
0380
0780
0580
0D80
1980
1F80
3180
6180
F3C0
ENDCHAR
STARTCHAR Acircumflex
ENCODING 194
SWIDTH 600 0
DWIDTH 10 0
BBX 10 14 0 0
BITMAP
0300
0780
0CC0
0000
0F80
0380
0780
0580
0D80
1980
1F80
3180
6180
F3C0
ENDCHAR
STARTCHAR Atilde
ENCODING 195
SWIDTH 600 0
DWIDTH 10 0
BBX 11 13 0 0
BITMAP
0760
0DC0
0000
0F80
0380
0780
0580
0D80
1980
1F80
3180
6180
F3C0
ENDCHAR
STARTCHAR Adieresis
ENCODING 196
SWIDTH 600 0
DWIDTH 10 0
BBX 10 13 0 0
BITMAP
06C0
06C0
0000
0F80
0380
0780
0580
0D80
1980
1F80
3180
6180
F3C0
ENDCHAR
STARTCHAR Aring
ENCODING 197
SWIDTH 600 0
DWIDTH 10 0
BBX 10 14 0 0
BITMAP
0380
06C0
0380
0000
0F80
0380
0780
0580
0D80
1980
1F80
3180
6180
F3C0
ENDCHAR
STARTCHAR AE
ENCODING 198
SWIDTH 600 0
DWIDTH 10 0
BBX 13 10 -1 0
BITMAP
1FF8
0798
0D18
0960
1BC0
3F40
6600
6660
CCC0
DFC0
ENDCHAR
STARTCHAR Ccedilla
ENCODING 199
SWIDTH 600 0
DWIDTH 10 0
BBX 11 13 1 -3
BITMAP
07A0
1CC0
30C0
6000
6000
C000
C000
C180
6700
3C00
2000
3000
F000
ENDCHAR
STARTCHAR Egrave
ENCODING 200
SWIDTH 600 0
DWIDTH 10 0
BBX 11 14 0 0
BITMAP
0600
0300
0180
0000
1FE0
0C60
0C60
1900
1F00
3200
3000
6180
6300
FF00
ENDCHAR
STARTCHAR Eacute
ENCODING 201
SWIDTH 600 0
DWIDTH 10 0
BBX 11 14 0 0
BITMAP
00C0
0180
0300
0000
1FE0
0C60
0C60
1900
1F00
3200
3000
6180
6300
FF00
ENDCHAR
STARTCHAR Ecircumflex
ENCODING 202
SWIDTH 600 0
DWIDTH 10 0
BBX 11 14 0 0
BITMAP
0180
03C0
0660
0000
1FE0
0C60
0C60
1900
1F00
3200
3000
6180
6300
FF00
ENDCHAR
STARTCHAR Edieresis
ENCODING 203
SWIDTH 600 0
DWIDTH 10 0
BBX 11 13 0 0
BITMAP
06C0
06C0
0000
1FE0
0C60
0C60
1900
1F00
3200
3000
6180
6300
FF00
ENDCHAR
STARTCHAR Igrave
ENCODING 204
SWIDTH 600 0
DWIDTH 10 0
BBX 11 14 1 0
BITMAP
0600
0300
0180
0000
1FE0
0300
0300
0600
0600
0C00
0C00
1800
1800
FF00
ENDCHAR
STARTCHAR Iacute
ENCODING 205
SWIDTH 600 0
DWIDTH 10 0
BBX 11 14 1 0
BITMAP
00C0
0180
0300
0000
1FE0
0300
0300
0600
0600
0C00
0C00
1800
1800
FF00
ENDCHAR
STARTCHAR Icircumflex
ENCODING 206
SWIDTH 600 0
DWIDTH 10 0
BBX 11 14 1 0
BITMAP
0300
0780
0CC0
0000
1FE0
0300
0300
0600
0600
0C00
0C00
1800
1800
FF00
ENDCHAR
STARTCHAR Idieresis
ENCODING 207
SWIDTH 600 0
DWIDTH 10 0
BBX 11 13 1 0
BITMAP
06C0
06C0
0000
1FE0
0300
0300
0600
0600
0C00
0C00
1800
1800
FF00
ENDCHAR
STARTCHAR Eth
ENCODING 208
SWIDTH 600 0
DWIDTH 10 0
BBX 11 10 0 0
BITMAP
1F80
0CC0
0C60
1860
7E60
30C0
30C0
6180
6700
FC00
ENDCHAR
STARTCHAR Ntilde
ENCODING 209
SWIDTH 600 0
DWIDTH 10 0
BBX 12 13 0 0
BITMAP
0760
0DC0
0000
31F0
1860
1860
3CC0
3CC0
2680
6780
6380
C300
F100
ENDCHAR
STARTCHAR Ograve
ENCODING 210
SWIDTH 600 0
DWIDTH 10 0
BBX 10 14 1 0
BITMAP
0600
0300
0180
0000
0F80
18C0
30C0
60C0
60C0
C180
C180
C300
C600
7C00
ENDCHAR
STARTCHAR Oacute
ENCODING 211
SWIDTH 600 0
DWIDTH 10 0
BBX 10 14 1 0
BITMAP
00C0
0180
0300
0000
0F80
18C0
30C0
60C0
60C0
C180
C180
C300
C600
7C00
ENDCHAR
STARTCHAR Ocircumflex
ENCODING 212
SWIDTH 600 0
DWIDTH 10 0
BBX 10 14 1 0
BITMAP
0300
0780
0CC0
0000
0F80
18C0
30C0
60C0
60C0
C180
C180
C300
C600
7C00
ENDCHAR
STARTCHAR Otilde
ENCODING 213
SWIDTH 600 0
DWIDTH 10 0
BBX 10 13 1 0
BITMAP
0EC0
1B80
0000
0F80
18C0
30C0
60C0
60C0
C180
C180
C300
C600
7C00
ENDCHAR
STARTCHAR Odieresis
ENCODING 214
SWIDTH 600 0
DWIDTH 10 0
BBX 10 13 1 0
BITMAP
0D80
0D80
0000
0F80
18C0
30C0
60C0
60C0
C180
C180
C300
C600
7C00
ENDCHAR
STARTCHAR multiply
ENCODING 215
SWIDTH 600 0
DWIDTH 10 0
BBX 10 7 1 1
BITMAP
30C0
1980
1F00
0C00
3E00
6600
C300
ENDCHAR
STARTCHAR Oslash
ENCODING 216
SWIDTH 600 0
DWIDTH 10 0
BBX 12 10 0 0
BITMAP
07D0
0C60
18E0
31E0
3760
6CC0
78C0
7180
7300
DE00
ENDCHAR
STARTCHAR Ugrave
ENCODING 217
SWIDTH 600 0
DWIDTH 10 0
BBX 12 14 1 0
BITMAP
0C00
0600
0300
0000
7DF0
30C0
30C0
6180
6180
C300
C300
C600
CC00
7800
ENDCHAR
STARTCHAR Uacute
ENCODING 218
SWIDTH 600 0
DWIDTH 10 0
BBX 12 14 1 0
BITMAP
0180
0300
0600
0000
7DF0
30C0
30C0
6180
6180
C300
C300
C600
CC00
7800
ENDCHAR
STARTCHAR Ucircumflex
ENCODING 219
SWIDTH 600 0
DWIDTH 10 0
BBX 12 14 1 0
BITMAP
0300
0780
0CC0
0000
7DF0
30C0
30C0
6180
6180
C300
C300
C600
CC00
7800
ENDCHAR
STARTCHAR Udieresis
ENCODING 220
SWIDTH 600 0
DWIDTH 10 0
BBX 12 13 1 0
BITMAP
0D80
0D80
0000
7DF0
30C0
30C0
6180
6180
C300
C300
C600
CC00
7800
ENDCHAR
STARTCHAR Yacute
ENCODING 221
SWIDTH 600 0
DWIDTH 10 0
BBX 11 14 2 0
BITMAP
0180
0300
0600
0000
79E0
30C0
3180
1B00
1E00
0C00
1800
1800
3000
FC00
ENDCHAR
STARTCHAR Thorn
ENCODING 222
SWIDTH 600 0
DWIDTH 10 0
BBX 11 10 0 0
BITMAP
1E00
0C00
0FC0
1860
1860
30C0
3F80
6000
6000
F000
ENDCHAR
STARTCHAR germandbls
ENCODING 223
SWIDTH 600 0
DWIDTH 10 0
BBX 10 11 0 0
BITMAP
0780
0CC0
0CC0
1980
1F00
1980
3180
3180
6180
6B00
EE00
ENDCHAR
STARTCHAR agrave
ENCODING 224
SWIDTH 600 0
DWIDTH 10 0
BBX 9 11 0 0
BITMAP
0C00
0600
0300
0000
0F00
1980
0180
3F00
6300
C600
7B00
ENDCHAR
STARTCHAR aacute
ENCODING 225
SWIDTH 600 0
DWIDTH 10 0
BBX 10 11 0 0
BITMAP
00C0
0180
0300
0000
0F00
1980
0180
3F00
6300
C600
7B00
ENDCHAR
STARTCHAR acircumflex
ENCODING 226
SWIDTH 600 0
DWIDTH 10 0
BBX 10 11 0 0
BITMAP
0300
0780
0CC0
0000
0F00
1980
0180
3F00
6300
C600
7B00
ENDCHAR
STARTCHAR atilde
ENCODING 227
SWIDTH 600 0
DWIDTH 10 0
BBX 10 10 0 0
BITMAP
0EC0
1B80
0000
0F00
1980
0180
3F00
6300
C600
7B00
ENDCHAR
STARTCHAR adieresis
ENCODING 228
SWIDTH 600 0
DWIDTH 10 0
BBX 9 10 0 0
BITMAP
0D80
0D80
0000
0F00
1980
0180
3F00
6300
C600
7B00
ENDCHAR
STARTCHAR aring
ENCODING 229
SWIDTH 600 0
DWIDTH 10 0
BBX 10 11 0 0
BITMAP
0380
06C0
0380
0000
0F00
1980
0180
3F00
6300
C600
7B00
ENDCHAR
STARTCHAR ae
ENCODING 230
SWIDTH 600 0
DWIDTH 10 0
BBX 12 7 -1 0
BITMAP
0EE0
1B30
0660
3FE0
6600
CCC0
7780
ENDCHAR
STARTCHAR ccedilla
ENCODING 231
SWIDTH 600 0
DWIDTH 10 0
BBX 9 10 1 -3
BITMAP
1E80
7380
6300
C000
C000
C600
7C00
6000
3000
F000
ENDCHAR
STARTCHAR egrave
ENCODING 232
SWIDTH 600 0
DWIDTH 10 0
BBX 8 11 1 0
BITMAP
18
0C
06
00
1E
73
63
FF
C0
C6
7C
ENDCHAR
STARTCHAR eacute
ENCODING 233
SWIDTH 600 0
DWIDTH 10 0
BBX 8 11 1 0
BITMAP
03
06
0C
00
1E
73
63
FF
C0
C6
7C
ENDCHAR
STARTCHAR ecircumflex
ENCODING 234
SWIDTH 600 0
DWIDTH 10 0
BBX 8 11 1 0
BITMAP
0C
1E
33
00
1E
73
63
FF
C0
C6
7C
ENDCHAR
STARTCHAR edieresis
ENCODING 235
SWIDTH 600 0
DWIDTH 10 0
BBX 8 10 1 0
BITMAP
1B
1B
00
1E
73
63
FF
C0
C6
7C
ENDCHAR
STARTCHAR igrave
ENCODING 236
SWIDTH 600 0
DWIDTH 10 0
BBX 8 11 1 0
BITMAP
0C
06
03
00
1E
06
0C
0C
18
18
FF
ENDCHAR
STARTCHAR iacute
ENCODING 237
SWIDTH 600 0
DWIDTH 10 0
BBX 9 11 1 0
BITMAP
0180
0300
0600
0000
1E00
0600
0C00
0C00
1800
1800
FF00
ENDCHAR
STARTCHAR icircumflex
ENCODING 238
SWIDTH 600 0
DWIDTH 10 0
BBX 9 11 1 0
BITMAP
0600
0F00
1980
0000
1E00
0600
0C00
0C00
1800
1800
FF00
ENDCHAR
STARTCHAR idieresis
ENCODING 239
SWIDTH 600 0
DWIDTH 10 0
BBX 9 10 1 0
BITMAP
0D80
0D80
0000
1E00
0600
0C00
0C00
1800
1800
FF00
ENDCHAR
STARTCHAR eth
ENCODING 240
SWIDTH 600 0
DWIDTH 10 0
BBX 8 12 1 0
BITMAP
E0
3B
0C
36
06
3F
63
C3
C3
C6
CE
78
ENDCHAR
STARTCHAR ntilde
ENCODING 241
SWIDTH 600 0
DWIDTH 10 0
BBX 11 10 0 0
BITMAP
0760
0DC0
0000
3F80
1CC0
18C0
3180
3180
6300
F780
ENDCHAR
STARTCHAR ograve
ENCODING 242
SWIDTH 600 0
DWIDTH 10 0
BBX 8 11 1 0
BITMAP
18
0C
06
00
1E
73
63
C3
C6
CE
78
ENDCHAR
STARTCHAR oacute
ENCODING 243
SWIDTH 600 0
DWIDTH 10 0
BBX 8 11 1 0
BITMAP
03
06
0C
00
1E
73
63
C3
C6
CE
78
ENDCHAR
STARTCHAR ocircumflex
ENCODING 244
SWIDTH 600 0
DWIDTH 10 0
BBX 8 11 1 0
BITMAP
0C
1E
33
00
1E
73
63
C3
C6
CE
78
ENDCHAR
STARTCHAR otilde
ENCODING 245
SWIDTH 600 0
DWIDTH 10 0
BBX 9 10 1 0
BITMAP
1D80
3700
0000
1E00
7300
6300
C300
C600
CE00
7800
ENDCHAR
STARTCHAR odieresis
ENCODING 246
SWIDTH 600 0
DWIDTH 10 0
BBX 8 10 1 0
BITMAP
1B
1B
00
1E
73
63
C3
C6
CE
78
ENDCHAR
STARTCHAR divide
ENCODING 247
SWIDTH 600 0
DWIDTH 10 0
BBX 8 8 2 1
BITMAP
0C
0C
00
FF
FF
00
30
30
ENDCHAR
STARTCHAR oslash
ENCODING 248
SWIDTH 600 0
DWIDTH 10 0
BBX 8 9 1 -1
BITMAP
01
1E
77
6B
CB
D6
EE
78
80
ENDCHAR
STARTCHAR ugrave
ENCODING 249
SWIDTH 600 0
DWIDTH 10 0
BBX 9 11 1 0
BITMAP
1800
0C00
0600
0000
7B80
3180
6300
6300
C600
CE00
7B00
ENDCHAR
STARTCHAR uacute
ENCODING 250
SWIDTH 600 0
DWIDTH 10 0
BBX 9 11 1 0
BITMAP
0180
0300
0600
0000
7B80
3180
6300
6300
C600
CE00
7B00
ENDCHAR
STARTCHAR ucircumflex
ENCODING 251
SWIDTH 600 0
DWIDTH 10 0
BBX 9 11 1 0
BITMAP
0600
0F00
1980
0000
7B80
3180
6300
6300
C600
CE00
7B00
ENDCHAR
STARTCHAR udieresis
ENCODING 252
SWIDTH 600 0
DWIDTH 10 0
BBX 9 10 1 0
BITMAP
1B00
1B00
0000
7B80
3180
6300
6300
C600
CE00
7B00
ENDCHAR
STARTCHAR yacute
ENCODING 253
SWIDTH 600 0
DWIDTH 10 0
BBX 12 14 -1 -3
BITMAP
00C0
0180
0300
0000
3CF0
1860
18C0
0D80
0F00
0600
0C00
1800
3000
F800
ENDCHAR
STARTCHAR thorn
ENCODING 254
SWIDTH 600 0
DWIDTH 10 0
BBX 11 14 -1 -3
BITMAP
0700
0300
0600
0600
0DC0
0E60
1C60
1860
18C0
39C0
3700
6000
6000
F800
ENDCHAR
STARTCHAR ydieresis
ENCODING 255
SWIDTH 600 0
DWIDTH 10 0
BBX 12 13 -1 -3
BITMAP
06C0
06C0
0000
3CF0
1860
18C0
0D80
0F00
0600
0C00
1800
3000
F800
ENDCHAR
ENDFONT
