STARTFONT 2.1
COMMENT AUTOMATICALLY GENERATED FILE. DO NOT EDIT!
COMMENT Generated with 'ucs2any.pl lubBI12.bdf ../../../fonts/util/map-ISO8859-1 ISO8859-1'
COMMENT from an ISO10646-1 encoded source BDF font.
COMMENT ucs2any.pl by Markus Kuhn <mkuhn@acm.org>, 2000.
COMMENT $Xorg: $
COMMENT ISO10646-1 extension by Markus Kuhn <mkuhn@acm.org>, 2001-03-20
COMMENT  (c) Copyright Bigelow & Holmes 1986, 1985. Lucida is a registered
COMMENT  trademark of Bigelow & Holmes. See LEGAL NOTICE file for terms 
COMMENT  of the license. 
FONT -B&H-LucidaBright-DemiBold-I-Normal--17-120-100-100-P-101-ISO8859-1
SIZE 12 100 100
FONTBOUNDINGBOX 29 21 -11 -4
STARTPROPERTIES 22
COMMENT Begin LogicalFontDescription
FONTNAME_REGISTRY ""
FOUNDRY "B&H"
FAMILY_NAME "LucidaBright"
WEIGHT_NAME "DemiBold"
SLANT "I"
SETWIDTH_NAME "Normal"
ADD_STYLE_NAME ""
PIXEL_SIZE 17
POINT_SIZE 120
RESOLUTION_X 100
RESOLUTION_Y 100
SPACING "P"
AVERAGE_WIDTH 101
CHARSET_REGISTRY "ISO8859"
CHARSET_ENCODING "1"
COMMENT END LogicalFontDescription
FONT_ASCENT 15
FONT_DESCENT 4
DEFAULT_CHAR 0
COPYRIGHT "Copyright Bigelow & Holmes 1986, 1985."
FACE_NAME "Lucida Bright Demibold Italic"
X_HEIGHT 9
CAP_HEIGHT 13
ENDPROPERTIES
CHARS 192
STARTCHAR defaultchar
ENCODING 0
SWIDTH 827 0
DWIDTH 14 0
BBX 15 13 1 0
BITMAP
AAAA
0000
8002
0000
8002
0000
8002
0000
8002
0000
8002
0000
AAAA
ENDCHAR
STARTCHAR space
ENCODING 32
SWIDTH 333 0
DWIDTH 5 0
BBX 1 1 0 0
BITMAP
00
ENDCHAR
STARTCHAR exclam
ENCODING 33
SWIDTH 265 0
DWIDTH 4 0
BBX 5 13 1 0
BITMAP
38
38
38
30
30
30
20
60
60
00
00
E0
E0
ENDCHAR
STARTCHAR quotedbl
ENCODING 34
SWIDTH 451 0
DWIDTH 8 0
BBX 6 5 3 8
BITMAP
CC
CC
CC
4C
48
ENDCHAR
STARTCHAR numbersign
ENCODING 35
SWIDTH 636 0
DWIDTH 11 0
BBX 11 13 1 0
BITMAP
0220
0240
0440
0480
7FE0
0900
1100
1200
FFC0
2400
4400
4800
C800
ENDCHAR
STARTCHAR dollar
ENCODING 36
SWIDTH 636 0
DWIDTH 11 0
BBX 9 15 2 -2
BITMAP
1F80
3580
3580
3400
3400
1800
0C00
0E00
0F00
0B00
D700
D600
FC00
1000
1000
ENDCHAR
STARTCHAR percent
ENCODING 37
SWIDTH 772 0
DWIDTH 13 0
BBX 12 13 2 0
BITMAP
3830
6C60
CCC0
CD80
D900
7200
06E0
0D20
0B20
1320
3360
6360
C1C0
ENDCHAR
STARTCHAR ampersand
ENCODING 38
SWIDTH 773 0
DWIDTH 13 0
BBX 12 13 1 0
BITMAP
0780
0DC0
1CC0
1D80
0D80
0E00
3EF0
6660
C760
C340
E380
6180
3FE0
ENDCHAR
STARTCHAR quotesingle
ENCODING 39
SWIDTH 247 0
DWIDTH 4 0
BBX 3 6 3 7
BITMAP
E0
C0
C0
40
40
40
ENDCHAR
STARTCHAR parenleft
ENCODING 40
SWIDTH 336 0
DWIDTH 6 0
BBX 6 16 1 -3
BITMAP
04
08
18
30
70
60
60
E0
C0
C0
C0
C0
C0
40
60
20
ENDCHAR
STARTCHAR parenright
ENCODING 41
SWIDTH 336 0
DWIDTH 6 0
BBX 6 16 0 -3
BITMAP
10
18
08
0C
0C
0C
0C
0C
0C
1C
18
18
30
20
40
80
ENDCHAR
STARTCHAR asterisk
ENCODING 42
SWIDTH 434 0
DWIDTH 8 0
BBX 7 6 2 7
BITMAP
18
52
EE
38
E8
4C
ENDCHAR
STARTCHAR plus
ENCODING 43
SWIDTH 636 0
DWIDTH 11 0
BBX 10 11 1 0
BITMAP
0600
0400
0400
0400
0400
FFC0
0800
0800
0800
0800
1800
ENDCHAR
STARTCHAR comma
ENCODING 44
SWIDTH 265 0
DWIDTH 4 0
BBX 4 6 0 -3
BITMAP
70
70
70
20
60
C0
ENDCHAR
STARTCHAR hyphen
ENCODING 45
SWIDTH 289 0
DWIDTH 5 0
BBX 4 1 2 5
BITMAP
F0
ENDCHAR
STARTCHAR period
ENCODING 46
SWIDTH 265 0
DWIDTH 4 0
BBX 3 3 1 0
BITMAP
E0
E0
E0
ENDCHAR
STARTCHAR slash
ENCODING 47
SWIDTH 515 0
DWIDTH 9 0
BBX 12 16 0 -3
BITMAP
0030
0020
0040
00C0
0080
0100
0300
0200
0400
0C00
0800
1000
3000
2000
4000
C000
ENDCHAR
STARTCHAR zero
ENCODING 48
SWIDTH 623 0
DWIDTH 11 0
BBX 10 13 2 0
BITMAP
0F00
1980
31C0
71C0
61C0
E1C0
E1C0
E1C0
E180
E380
E300
6600
3C00
ENDCHAR
STARTCHAR one
ENCODING 49
SWIDTH 636 0
DWIDTH 11 0
BBX 7 13 2 0
BITMAP
3E
0E
0E
0C
0C
1C
1C
1C
18
18
18
38
FE
ENDCHAR
STARTCHAR two
ENCODING 50
SWIDTH 636 0
DWIDTH 11 0
BBX 10 13 1 0
BITMAP
1F00
31C0
21C0
01C0
01C0
0380
0600
0C00
1000
2000
6000
FF00
FF00
ENDCHAR
STARTCHAR three
ENCODING 51
SWIDTH 636 0
DWIDTH 11 0
BBX 9 13 2 0
BITMAP
1F00
1380
2180
0180
0180
0600
3E00
0700
0380
0380
C300
C700
FC00
ENDCHAR
STARTCHAR four
ENCODING 52
SWIDTH 636 0
DWIDTH 11 0
BBX 10 13 1 0
BITMAP
01C0
03C0
0780
0D80
1980
3180
6380
C300
FFC0
0300
0300
0700
0F80
ENDCHAR
STARTCHAR five
ENCODING 53
SWIDTH 636 0
DWIDTH 11 0
BBX 10 13 2 0
BITMAP
1FC0
3FC0
2000
2000
2000
3C00
0700
0300
0300
0380
C300
C600
F800
ENDCHAR
STARTCHAR six
ENCODING 54
SWIDTH 636 0
DWIDTH 11 0
BBX 10 13 2 0
BITMAP
07C0
18C0
30C0
7000
6000
EF00
F380
E180
C180
C180
E300
6700
3C00
ENDCHAR
STARTCHAR seven
ENCODING 55
SWIDTH 636 0
DWIDTH 11 0
BBX 9 13 3 0
BITMAP
7F80
7F80
0100
0200
0600
0C00
0800
1800
3000
6000
6000
E000
E000
ENDCHAR
STARTCHAR eight
ENCODING 56
SWIDTH 636 0
DWIDTH 11 0
BBX 10 13 1 0
BITMAP
0F80
19C0
30C0
30C0
3980
1F00
3F00
6780
E180
E180
E180
E300
3C00
ENDCHAR
STARTCHAR nine
ENCODING 57
SWIDTH 636 0
DWIDTH 11 0
BBX 10 13 1 0
BITMAP
0F00
3980
31C0
60C0
60C0
61C0
73C0
3DC0
0180
0380
C300
C600
F800
ENDCHAR
STARTCHAR colon
ENCODING 58
SWIDTH 265 0
DWIDTH 4 0
BBX 4 9 1 0
BITMAP
30
70
00
00
00
00
00
E0
C0
ENDCHAR
STARTCHAR semicolon
ENCODING 59
SWIDTH 265 0
DWIDTH 4 0
BBX 5 12 0 -3
BITMAP
38
38
00
00
00
00
00
70
60
60
60
C0
ENDCHAR
STARTCHAR less
ENCODING 60
SWIDTH 636 0
DWIDTH 11 0
BBX 11 11 1 0
BITMAP
0020
00E0
0380
0E00
3800
E000
3000
1C00
0700
0180
0080
ENDCHAR
STARTCHAR equal
ENCODING 61
SWIDTH 636 0
DWIDTH 11 0
BBX 11 5 1 2
BITMAP
7FE0
0000
0000
0000
FFC0
ENDCHAR
STARTCHAR greater
ENCODING 62
SWIDTH 636 0
DWIDTH 11 0
BBX 11 11 0 0
BITMAP
2000
3000
1C00
0700
0180
00E0
0380
0E00
3800
E000
8000
ENDCHAR
STARTCHAR question
ENCODING 63
SWIDTH 493 0
DWIDTH 8 0
BBX 7 13 3 0
BITMAP
7C
CE
8E
06
0C
08
10
20
60
00
00
E0
C0
ENDCHAR
STARTCHAR at
ENCODING 64
SWIDTH 861 0
DWIDTH 15 0
BBX 13 13 2 0
BITMAP
07C0
1830
2010
4708
48C8
9888
9188
9388
9390
9DE0
4000
6100
1E00
ENDCHAR
STARTCHAR A
ENCODING 65
SWIDTH 765 0
DWIDTH 13 0
BBX 13 13 0 0
BITMAP
00C0
01C0
01C0
02C0
02C0
04E0
08E0
0860
1FE0
1070
2070
4070
F0F8
ENDCHAR
STARTCHAR B
ENCODING 66
SWIDTH 651 0
DWIDTH 11 0
BBX 11 13 1 0
BITMAP
3FC0
1CE0
1CE0
18E0
18C0
1980
1F00
39C0
30C0
30C0
30C0
71C0
FF00
ENDCHAR
STARTCHAR C
ENCODING 67
SWIDTH 740 0
DWIDTH 13 0
BBX 12 13 2 0
BITMAP
07F0
1C30
3830
3030
6000
6000
E000
E000
E000
E000
6000
70C0
1F80
ENDCHAR
STARTCHAR D
ENCODING 68
SWIDTH 822 0
DWIDTH 14 0
BBX 14 13 1 0
BITMAP
3FF0
1C38
1C1C
1C1C
1C1C
181C
181C
381C
3818
3838
3070
70E0
FF80
ENDCHAR
STARTCHAR E
ENCODING 69
SWIDTH 630 0
DWIDTH 11 0
BBX 11 13 1 0
BITMAP
3FE0
1C60
1C00
1C00
1800
1880
3F80
3880
3800
3000
3000
7080
FF80
ENDCHAR
STARTCHAR F
ENCODING 70
SWIDTH 602 0
DWIDTH 10 0
BBX 11 13 1 0
BITMAP
3FE0
1C60
1C00
1800
1800
1880
3F80
3880
3800
3000
3000
7000
F800
ENDCHAR
STARTCHAR G
ENCODING 71
SWIDTH 780 0
DWIDTH 13 0
BBX 12 13 2 0
BITMAP
07F0
1C30
3830
3000
7000
6000
E000
E1F0
E0E0
E0C0
60C0
71C0
1F80
ENDCHAR
STARTCHAR H
ENCODING 72
SWIDTH 827 0
DWIDTH 14 0
BBX 15 13 1 0
BITMAP
3F3E
1C1C
1C18
1C18
1838
1838
1FF0
3830
3830
3070
3070
7070
F9F8
ENDCHAR
STARTCHAR I
ENCODING 73
SWIDTH 372 0
DWIDTH 6 0
BBX 8 13 0 0
BITMAP
3F
0E
0C
1C
1C
1C
18
18
38
38
38
70
FC
ENDCHAR
STARTCHAR J
ENCODING 74
SWIDTH 478 0
DWIDTH 8 0
BBX 10 16 0 -3
BITMAP
07C0
0380
0300
0300
0700
0700
0700
0600
0600
0600
0E00
0E00
0E00
CC00
D800
F000
ENDCHAR
STARTCHAR K
ENCODING 75
SWIDTH 746 0
DWIDTH 13 0
BBX 13 13 1 0
BITMAP
3E38
1C30
1C40
1880
1900
1A00
1F00
3F00
3B80
31C0
31C0
70E0
F9F0
ENDCHAR
STARTCHAR L
ENCODING 76
SWIDTH 611 0
DWIDTH 10 0
BBX 10 13 1 0
BITMAP
3F00
1C00
1C00
1C00
1C00
1800
1800
3800
3800
3800
3040
70C0
FF80
ENDCHAR
STARTCHAR M
ENCODING 77
SWIDTH 926 0
DWIDTH 16 0
BBX 17 13 1 0
BITMAP
3C0780
1C0F00
1E0E00
161600
161600
162E00
174C00
334C00
238C00
230C00
211C00
601C00
F03E00
ENDCHAR
STARTCHAR N
ENCODING 78
SWIDTH 797 0
DWIDTH 14 0
BBX 15 13 0 0
BITMAP
3C1E
1C0C
1E08
1608
1708
1318
1390
3190
21D0
20D0
20F0
6060
F060
ENDCHAR
STARTCHAR O
ENCODING 79
SWIDTH 831 0
DWIDTH 14 0
BBX 13 13 2 0
BITMAP
07C0
0C70
3830
3038
7038
6038
E038
E030
E070
E060
E0C0
7180
3E00
ENDCHAR
STARTCHAR P
ENCODING 80
SWIDTH 628 0
DWIDTH 11 0
BBX 11 13 1 0
BITMAP
3FC0
1CE0
18E0
18E0
18E0
18C0
3980
3F00
3000
3000
3000
7000
F800
ENDCHAR
STARTCHAR Q
ENCODING 81
SWIDTH 835 0
DWIDTH 14 0
BBX 14 16 2 -3
BITMAP
07C0
0C70
3830
3038
7038
6038
E038
E038
E070
E070
E0E0
71C0
3F80
0200
01C0
007C
ENDCHAR
STARTCHAR R
ENCODING 82
SWIDTH 711 0
DWIDTH 12 0
BBX 12 13 0 0
BITMAP
3FE0
0C70
1C70
1C70
1C60
18E0
1F80
3B80
3980
39C0
30C0
70E0
F870
ENDCHAR
STARTCHAR S
ENCODING 83
SWIDTH 587 0
DWIDTH 10 0
BBX 10 13 1 0
BITMAP
0FC0
18C0
30C0
3000
3800
3C00
1E00
0700
0380
0380
C380
C700
FC00
ENDCHAR
STARTCHAR T
ENCODING 84
SWIDTH 716 0
DWIDTH 12 0
BBX 12 13 2 0
BITMAP
FFF0
C630
8630
0E00
0E00
0C00
0C00
0C00
1C00
1C00
1C00
1800
7E00
ENDCHAR
STARTCHAR U
ENCODING 85
SWIDTH 775 0
DWIDTH 13 0
BBX 13 13 3 0
BITMAP
FC78
7020
7020
7020
6040
6040
E040
E040
E040
E080
E080
6100
3E00
ENDCHAR
STARTCHAR V
ENCODING 86
SWIDTH 741 0
DWIDTH 13 0
BBX 13 13 2 0
BITMAP
F838
7010
7020
7060
3040
3880
3880
3900
1B00
1A00
1C00
1C00
1800
ENDCHAR
STARTCHAR W
ENCODING 87
SWIDTH 922 0
DWIDTH 16 0
BBX 16 13 2 0
BITMAP
F087
6182
6184
6384
6388
75C8
75D0
75D0
78E0
78E0
30C0
30C0
2080
ENDCHAR
STARTCHAR X
ENCODING 88
SWIDTH 672 0
DWIDTH 11 0
BBX 13 13 0 0
BITMAP
1E38
1C30
0E20
0E40
0680
0700
0300
0780
0B80
1180
21C0
60C0
E3E0
ENDCHAR
STARTCHAR Y
ENCODING 89
SWIDTH 669 0
DWIDTH 11 0
BBX 12 13 2 0
BITMAP
F870
7060
7040
3880
3900
1A00
1E00
1C00
1C00
1800
1800
3800
7E00
ENDCHAR
STARTCHAR Z
ENCODING 90
SWIDTH 684 0
DWIDTH 12 0
BBX 12 13 1 0
BITMAP
1FF0
10E0
10E0
01C0
0380
0700
0E00
0E00
1C00
3800
7040
70C0
FFC0
ENDCHAR
STARTCHAR bracketleft
ENCODING 91
SWIDTH 336 0
DWIDTH 6 0
BBX 7 16 1 -3
BITMAP
1E
18
18
38
30
30
30
30
70
60
60
60
60
E0
C0
F0
ENDCHAR
STARTCHAR backslash
ENCODING 92
SWIDTH 515 0
DWIDTH 9 0
BBX 5 16 3 -3
BITMAP
80
80
40
40
40
40
20
20
20
20
10
10
10
10
08
08
ENDCHAR
STARTCHAR bracketright
ENCODING 93
SWIDTH 336 0
DWIDTH 6 0
BBX 7 16 0 -3
BITMAP
1E
06
0E
0C
0C
0C
0C
1C
18
18
18
18
38
30
30
F0
ENDCHAR
STARTCHAR asciicircum
ENCODING 94
SWIDTH 636 0
DWIDTH 11 0
BBX 10 11 1 2
BITMAP
0200
0200
0700
0500
0900
0900
1180
3080
2080
40C0
C0C0
ENDCHAR
STARTCHAR underscore
ENCODING 95
SWIDTH 500 0
DWIDTH 8 0
BBX 7 1 1 -2
BITMAP
FE
ENDCHAR
STARTCHAR grave
ENCODING 96
SWIDTH 599 0
DWIDTH 10 0
BBX 3 2 6 11
BITMAP
C0
20
ENDCHAR
STARTCHAR a
ENCODING 97
SWIDTH 634 0
DWIDTH 11 0
BBX 10 9 1 0
BITMAP
0FC0
11C0
3180
6180
E380
E780
EF80
FB80
63C0
ENDCHAR
STARTCHAR b
ENCODING 98
SWIDTH 633 0
DWIDTH 11 0
BBX 10 13 1 0
BITMAP
7800
3800
3800
3000
3380
35C0
79C0
71C0
7180
6180
6300
E200
FC00
ENDCHAR
STARTCHAR c
ENCODING 99
SWIDTH 524 0
DWIDTH 9 0
BBX 9 9 1 0
BITMAP
0F80
3100
6100
6000
E000
E000
E000
E100
7E00
ENDCHAR
STARTCHAR d
ENCODING 100
SWIDTH 634 0
DWIDTH 11 0
BBX 11 13 1 0
BITMAP
01E0
00E0
00C0
00C0
0FC0
11C0
31C0
6180
6380
E380
E780
EB80
73C0
ENDCHAR
STARTCHAR e
ENCODING 101
SWIDTH 548 0
DWIDTH 9 0
BBX 8 9 1 0
BITMAP
0E
33
63
63
E6
FC
E0
E1
7E
ENDCHAR
STARTCHAR f
ENCODING 102
SWIDTH 415 0
DWIDTH 7 0
BBX 9 16 1 -3
BITMAP
0780
0C80
1880
1800
7E00
3800
3000
3000
3000
7000
7000
6000
6000
6000
E000
C000
ENDCHAR
STARTCHAR g
ENCODING 103
SWIDTH 628 0
DWIDTH 11 0
BBX 10 12 1 -3
BITMAP
07C0
19C0
31C0
7180
6380
6380
6780
6B80
7300
8300
C600
FC00
ENDCHAR
STARTCHAR h
ENCODING 104
SWIDTH 656 0
DWIDTH 11 0
BBX 10 13 1 0
BITMAP
7800
3800
3800
3800
3180
37C0
79C0
79C0
7180
6180
6380
E380
E3C0
ENDCHAR
STARTCHAR i
ENCODING 105
SWIDTH 319 0
DWIDTH 5 0
BBX 5 13 2 0
BITMAP
38
38
00
00
F0
70
70
70
60
60
E0
E0
F0
ENDCHAR
STARTCHAR j
ENCODING 106
SWIDTH 381 0
DWIDTH 6 0
BBX 9 17 0 -4
BITMAP
0180
0380
0000
0000
0F00
0700
0700
0700
0600
0600
0600
0E00
0E00
0C00
CC00
D800
F000
ENDCHAR
STARTCHAR k
ENCODING 107
SWIDTH 626 0
DWIDTH 11 0
BBX 9 13 2 0
BITMAP
7800
3800
3000
3000
3380
7380
7700
6E00
7C00
6C00
EE00
E700
C380
ENDCHAR
STARTCHAR l
ENCODING 108
SWIDTH 319 0
DWIDTH 5 0
BBX 5 13 1 0
BITMAP
78
38
38
30
30
70
70
70
60
60
E0
E0
F0
ENDCHAR
STARTCHAR m
ENCODING 109
SWIDTH 969 0
DWIDTH 16 0
BBX 15 9 2 0
BITMAP
F39C
77BE
79AE
71CE
73CC
638C
630C
E31C
C31E
ENDCHAR
STARTCHAR n
ENCODING 110
SWIDTH 656 0
DWIDTH 11 0
BBX 10 9 1 0
BITMAP
F380
35C0
79C0
79C0
7180
6180
6380
E380
E3C0
ENDCHAR
STARTCHAR o
ENCODING 111
SWIDTH 599 0
DWIDTH 10 0
BBX 9 9 1 0
BITMAP
0F00
3180
7180
6180
E180
E380
E300
E600
7C00
ENDCHAR
STARTCHAR p
ENCODING 112
SWIDTH 639 0
DWIDTH 11 0
BBX 11 12 1 -3
BITMAP
79C0
3AE0
3CE0
38E0
38E0
70C0
7180
7100
7E00
6000
E000
E000
ENDCHAR
STARTCHAR q
ENCODING 113
SWIDTH 630 0
DWIDTH 11 0
BBX 10 12 1 -3
BITMAP
0FC0
11C0
3180
6180
E380
E380
E780
EB00
7300
0300
0700
0700
ENDCHAR
STARTCHAR r
ENCODING 114
SWIDTH 496 0
DWIDTH 8 0
BBX 9 9 1 0
BITMAP
F180
3700
7C00
7800
7000
6000
6000
E000
E000
ENDCHAR
STARTCHAR s
ENCODING 115
SWIDTH 479 0
DWIDTH 8 0
BBX 8 9 1 0
BITMAP
1F
31
33
38
1C
0E
86
CE
FC
ENDCHAR
STARTCHAR t
ENCODING 116
SWIDTH 375 0
DWIDTH 6 0
BBX 6 12 2 0
BITMAP
30
30
30
FC
70
60
60
60
E0
E0
E0
70
ENDCHAR
STARTCHAR u
ENCODING 117
SWIDTH 655 0
DWIDTH 11 0
BBX 10 9 2 0
BITMAP
F3C0
71C0
7180
6180
6380
E780
E780
FB00
E3C0
ENDCHAR
STARTCHAR v
ENCODING 118
SWIDTH 584 0
DWIDTH 10 0
BBX 10 9 1 0
BITMAP
F1C0
70C0
7080
3180
3B00
3A00
3C00
1800
1000
ENDCHAR
STARTCHAR w
ENCODING 119
SWIDTH 822 0
DWIDTH 14 0
BBX 14 9 1 0
BITMAP
E11C
710C
3388
3390
35B0
3DA0
39C0
31C0
3080
ENDCHAR
STARTCHAR x
ENCODING 120
SWIDTH 534 0
DWIDTH 9 0
BBX 9 9 1 0
BITMAP
7180
3980
1900
1E00
0C00
3E00
6600
C700
C780
ENDCHAR
STARTCHAR y
ENCODING 121
SWIDTH 586 0
DWIDTH 10 0
BBX 12 12 0 -3
BITMAP
3870
1C30
1C20
0C60
0CC0
0F80
0F00
0600
0400
0800
1000
F000
ENDCHAR
STARTCHAR z
ENCODING 122
SWIDTH 567 0
DWIDTH 10 0
BBX 10 9 1 0
BITMAP
3FC0
2180
2300
0600
0C00
1800
3880
7180
FF80
ENDCHAR
STARTCHAR braceleft
ENCODING 123
SWIDTH 361 0
DWIDTH 6 0
BBX 6 16 2 -3
BITMAP
1C
38
38
30
30
30
30
20
C0
60
60
60
E0
C0
C0
60
ENDCHAR
STARTCHAR bar
ENCODING 124
SWIDTH 253 0
DWIDTH 4 0
BBX 4 16 1 -3
BITMAP
10
30
30
20
20
20
20
60
60
40
40
40
40
C0
C0
80
ENDCHAR
STARTCHAR braceright
ENCODING 125
SWIDTH 361 0
DWIDTH 6 0
BBX 6 16 1 -3
BITMAP
18
0C
0C
1C
18
18
18
0C
10
30
30
30
30
70
70
E0
ENDCHAR
STARTCHAR asciitilde
ENCODING 126
SWIDTH 636 0
DWIDTH 11 0
BBX 10 4 1 3
BITMAP
7040
9840
8440
8380
ENDCHAR
STARTCHAR space
ENCODING 160
SWIDTH 333 0
DWIDTH 5 0
BBX 1 1 0 0
BITMAP
00
ENDCHAR
STARTCHAR exclamdown
ENCODING 161
SWIDTH 265 0
DWIDTH 4 0
BBX 5 12 0 -3
BITMAP
38
38
00
30
30
30
60
60
60
E0
E0
E0
ENDCHAR
STARTCHAR cent
ENCODING 162
SWIDTH 636 0
DWIDTH 11 0
BBX 9 13 2 0
BITMAP
0600
0400
1F80
3580
7500
6400
E400
E800
E800
E900
7E00
1000
1000
ENDCHAR
STARTCHAR sterling
ENCODING 163
SWIDTH 636 0
DWIDTH 11 0
BBX 10 13 2 0
BITMAP
07C0
0EC0
0CC0
1C00
1C00
1800
7E00
1800
3800
3000
2000
FF00
FF00
ENDCHAR
STARTCHAR currency
ENCODING 164
SWIDTH 636 0
DWIDTH 11 0
BBX 12 13 1 0
BITMAP
2010
1010
1F20
08C0
10C0
1040
3040
10C0
1080
1900
2F80
4040
8040
ENDCHAR
STARTCHAR yen
ENCODING 165
SWIDTH 636 0
DWIDTH 11 0
BBX 12 13 2 0
BITMAP
F870
7060
3040
3880
3900
1A00
1E00
7F00
1C00
7F00
1800
3800
7C00
ENDCHAR
STARTCHAR brokenbar
ENCODING 166
SWIDTH 253 0
DWIDTH 4 0
BBX 4 16 1 -3
BITMAP
10
30
30
20
20
20
60
00
00
60
40
40
40
C0
C0
80
ENDCHAR
STARTCHAR section
ENCODING 167
SWIDTH 636 0
DWIDTH 11 0
BBX 10 16 1 -3
BITMAP
0FC0
18C0
30C0
3000
3C00
1F00
2780
6180
7180
7900
1E00
0F00
0300
C300
C700
FC00
ENDCHAR
STARTCHAR dieresis
ENCODING 168
SWIDTH 599 0
DWIDTH 10 0
BBX 5 1 5 12
BITMAP
D8
ENDCHAR
STARTCHAR copyright
ENCODING 169
SWIDTH 853 0
DWIDTH 14 0
BBX 13 13 2 0
BITMAP
0F80
3060
6030
47D0
8C48
9808
9008
9008
9808
4F90
6030
3060
0F80
ENDCHAR
STARTCHAR ordfeminine
ENCODING 170
SWIDTH 468 0
DWIDTH 8 0
BBX 7 8 2 5
BITMAP
1E
66
66
CE
CE
DC
EC
CE
ENDCHAR
STARTCHAR guillemotleft
ENCODING 171
SWIDTH 527 0
DWIDTH 9 0
BBX 9 9 1 0
BITMAP
0880
1980
3300
6600
CC00
6E00
6600
3200
2300
ENDCHAR
STARTCHAR logicalnot
ENCODING 172
SWIDTH 636 0
DWIDTH 11 0
BBX 10 5 2 2
BITMAP
FFC0
00C0
00C0
0080
0080
ENDCHAR
STARTCHAR hyphen
ENCODING 173
SWIDTH 289 0
DWIDTH 5 0
BBX 4 1 2 5
BITMAP
F0
ENDCHAR
STARTCHAR registered
ENCODING 174
SWIDTH 636 0
DWIDTH 11 0
BBX 8 9 3 4
BITMAP
3C
42
BD
95
BD
A9
AD
42
3C
ENDCHAR
STARTCHAR macron
ENCODING 175
SWIDTH 599 0
DWIDTH 10 0
BBX 5 1 5 12
BITMAP
F8
ENDCHAR
STARTCHAR degree
ENCODING 176
SWIDTH 259 0
DWIDTH 4 0
BBX 3 4 4 9
BITMAP
C0
A0
A0
C0
ENDCHAR
STARTCHAR plusminus
ENCODING 177
SWIDTH 636 0
DWIDTH 11 0
BBX 11 11 0 0
BITMAP
0200
0200
0200
0200
7FE0
0400
0400
0400
0400
0000
FFC0
ENDCHAR
STARTCHAR twosuperior
ENCODING 178
SWIDTH 381 0
DWIDTH 6 0
BBX 6 8 -10 5
BITMAP
38
44
04
0C
10
60
40
F8
ENDCHAR
STARTCHAR threesuperior
ENCODING 179
SWIDTH 381 0
DWIDTH 6 0
BBX 5 8 -10 5
BITMAP
38
48
08
70
18
08
98
F0
ENDCHAR
STARTCHAR acute
ENCODING 180
SWIDTH 599 0
DWIDTH 10 0
BBX 5 2 6 11
BITMAP
38
C0
ENDCHAR
STARTCHAR mu
ENCODING 181
SWIDTH 687 0
DWIDTH 12 0
BBX 10 12 1 -3
BITMAP
7BC0
31C0
31C0
3180
7180
7380
6780
6780
7BC0
E000
E000
C000
ENDCHAR
STARTCHAR paragraph
ENCODING 182
SWIDTH 636 0
DWIDTH 11 0
BBX 7 16 3 -3
BITMAP
7E
F2
F2
F2
F2
74
34
24
24
24
24
24
28
48
48
48
ENDCHAR
STARTCHAR periodcentered
ENCODING 183
SWIDTH 636 0
DWIDTH 11 0
BBX 2 2 5 4
BITMAP
C0
C0
ENDCHAR
STARTCHAR cedilla
ENCODING 184
SWIDTH 599 0
DWIDTH 10 0
BBX 3 3 3 -3
BITMAP
60
20
E0
ENDCHAR
STARTCHAR onesuperior
ENCODING 185
SWIDTH 381 0
DWIDTH 6 0
BBX 4 8 -11 5
BITMAP
70
30
30
20
20
20
60
F0
ENDCHAR
STARTCHAR ordmasculine
ENCODING 186
SWIDTH 468 0
DWIDTH 8 0
BBX 8 8 2 5
BITMAP
1E
26
67
C6
C6
C6
CC
78
ENDCHAR
STARTCHAR guillemotright
ENCODING 187
SWIDTH 527 0
DWIDTH 9 0
BBX 9 9 1 0
BITMAP
6200
2600
3300
3B00
1B80
3300
6600
CC00
8800
ENDCHAR
STARTCHAR onequarter
ENCODING 188
SWIDTH 818 0
DWIDTH 14 0
BBX 14 13 3 0
BITMAP
700C
3010
3030
2060
20C0
2198
6338
F650
0C90
19F8
3030
2030
C070
ENDCHAR
STARTCHAR onehalf
ENCODING 189
SWIDTH 818 0
DWIDTH 14 0
BBX 14 13 3 0
BITMAP
700C
3010
3030
2060
20C0
21F0
6388
F608
0C18
1820
30C0
2080
C1F0
ENDCHAR
STARTCHAR threequarters
ENCODING 190
SWIDTH 818 0
DWIDTH 14 0
BBX 14 13 3 0
BITMAP
380C
4810
0830
7060
18C0
0998
9B38
F650
0C90
19F8
3030
2030
C070
ENDCHAR
STARTCHAR questiondown
ENCODING 191
SWIDTH 493 0
DWIDTH 8 0
BBX 7 12 1 -3
BITMAP
06
0E
00
0C
0C
18
10
60
E0
C2
E6
7C
ENDCHAR
STARTCHAR Agrave
ENCODING 192
SWIDTH 765 0
DWIDTH 13 0
BBX 13 16 0 0
BITMAP
0180
0040
0000
00C0
01C0
01C0
02C0
02C0
04E0
08E0
0860
1FE0
1070
2070
4070
F0F8
ENDCHAR
STARTCHAR Aacute
ENCODING 193
SWIDTH 765 0
DWIDTH 13 0
BBX 13 16 0 0
BITMAP
0070
0180
0000
00C0
01C0
01C0
02C0
02C0
04E0
08E0
0860
1FE0
1070
2070
4070
F0F8
ENDCHAR
STARTCHAR Acircumflex
ENCODING 194
SWIDTH 765 0
DWIDTH 13 0
BBX 13 16 0 0
BITMAP
00E0
0330
0000
00C0
01C0
01C0
02C0
02C0
04E0
08E0
0860
1FE0
1070
2070
4070
F0F8
ENDCHAR
STARTCHAR Atilde
ENCODING 195
SWIDTH 765 0
DWIDTH 13 0
BBX 13 16 0 0
BITMAP
01D0
02E0
0000
00C0
01C0
01C0
02C0
02C0
04E0
08E0
0860
1FE0
1070
2070
4070
F0F8
ENDCHAR
STARTCHAR Adieresis
ENCODING 196
SWIDTH 765 0
DWIDTH 13 0
BBX 13 15 0 0
BITMAP
01B0
0000
00C0
01C0
01C0
02C0
02C0
04E0
08E0
0860
1FE0
1070
2070
4070
F0F8
ENDCHAR
STARTCHAR Aring
ENCODING 197
SWIDTH 765 0
DWIDTH 13 0
BBX 13 17 0 0
BITMAP
00E0
00A0
00E0
0000
00C0
01C0
01C0
02C0
02C0
04E0
08E0
0860
1FE0
1070
2070
4070
F0F8
ENDCHAR
STARTCHAR AE
ENCODING 198
SWIDTH 958 0
DWIDTH 16 0
BBX 18 13 0 0
BITMAP
003FC0
0078C0
00B000
013000
017100
027F00
046100
086000
0FE000
10E000
20E000
60E100
E3FF00
ENDCHAR
STARTCHAR Ccedilla
ENCODING 199
SWIDTH 740 0
DWIDTH 13 0
BBX 12 16 2 -3
BITMAP
07F0
1C30
3830
3030
6000
6000
E000
E000
E000
E000
6000
70C0
1F80
1000
0800
3800
ENDCHAR
STARTCHAR Egrave
ENCODING 200
SWIDTH 630 0
DWIDTH 11 0
BBX 11 16 1 0
BITMAP
0600
0100
0000
3FE0
1C60
1C00
1C00
1800
1880
3F80
3880
3800
3000
3000
7080
FF80
ENDCHAR
STARTCHAR Eacute
ENCODING 201
SWIDTH 630 0
DWIDTH 11 0
BBX 11 16 1 0
BITMAP
01C0
0600
0000
3FE0
1C60
1C00
1C00
1800
1880
3F80
3880
3800
3000
3000
7080
FF80
ENDCHAR
STARTCHAR Ecircumflex
ENCODING 202
SWIDTH 630 0
DWIDTH 11 0
BBX 11 16 1 0
BITMAP
0380
0CC0
0000
3FE0
1C60
1C00
1C00
1800
1880
3F80
3880
3800
3000
3000
7080
FF80
ENDCHAR
STARTCHAR Edieresis
ENCODING 203
SWIDTH 630 0
DWIDTH 11 0
BBX 11 15 1 0
BITMAP
06C0
0000
3FE0
1C60
1C00
1C00
1800
1880
3F80
3880
3800
3000
3000
7080
FF80
ENDCHAR
STARTCHAR Igrave
ENCODING 204
SWIDTH 372 0
DWIDTH 6 0
BBX 8 16 0 0
BITMAP
0C
02
00
3F
0E
0C
1C
1C
1C
18
18
38
38
38
70
FC
ENDCHAR
STARTCHAR Iacute
ENCODING 205
SWIDTH 372 0
DWIDTH 6 0
BBX 9 16 0 0
BITMAP
0380
0C00
0000
3F00
0E00
0C00
1C00
1C00
1C00
1800
1800
3800
3800
3800
7000
FC00
ENDCHAR
STARTCHAR Icircumflex
ENCODING 206
SWIDTH 372 0
DWIDTH 6 0
BBX 8 16 0 0
BITMAP
0E
33
00
3F
0E
0C
1C
1C
1C
18
18
38
38
38
70
FC
ENDCHAR
STARTCHAR Idieresis
ENCODING 207
SWIDTH 372 0
DWIDTH 6 0
BBX 8 15 0 0
BITMAP
1B
00
3F
0E
0C
1C
1C
1C
18
18
38
38
38
70
FC
ENDCHAR
STARTCHAR Eth
ENCODING 208
SWIDTH 822 0
DWIDTH 14 0
BBX 14 13 1 0
BITMAP
3FF0
1C38
1C1C
1C1C
1C1C
181C
7F1C
381C
3818
3838
3070
70E0
FF80
ENDCHAR
STARTCHAR Ntilde
ENCODING 209
SWIDTH 797 0
DWIDTH 14 0
BBX 15 16 0 0
BITMAP
01D0
02E0
0000
3C1E
1C0C
1E08
1608
1708
1318
1390
3190
21D0
20D0
20F0
6060
F060
ENDCHAR
STARTCHAR Ograve
ENCODING 210
SWIDTH 831 0
DWIDTH 14 0
BBX 13 16 2 0
BITMAP
0300
0080
0000
07C0
0C70
3830
3038
7038
6038
E038
E030
E070
E060
E0C0
7180
3E00
ENDCHAR
STARTCHAR Oacute
ENCODING 211
SWIDTH 831 0
DWIDTH 14 0
BBX 13 16 2 0
BITMAP
00E0
0300
0000
07C0
0C70
3830
3038
7038
6038
E038
E030
E070
E060
E0C0
7180
3E00
ENDCHAR
STARTCHAR Ocircumflex
ENCODING 212
SWIDTH 831 0
DWIDTH 14 0
BBX 13 16 2 0
BITMAP
01C0
0660
0000
07C0
0C70
3830
3038
7038
6038
E038
E030
E070
E060
E0C0
7180
3E00
ENDCHAR
STARTCHAR Otilde
ENCODING 213
SWIDTH 831 0
DWIDTH 14 0
BBX 13 16 2 0
BITMAP
03A0
05C0
0000
07C0
0C70
3830
3038
7038
6038
E038
E030
E070
E060
E0C0
7180
3E00
ENDCHAR
STARTCHAR Odieresis
ENCODING 214
SWIDTH 831 0
DWIDTH 14 0
BBX 13 15 2 0
BITMAP
06C0
0000
07C0
0C70
3830
3038
7038
6038
E038
E030
E070
E060
E0C0
7180
3E00
ENDCHAR
STARTCHAR multiply
ENCODING 215
SWIDTH 636 0
DWIDTH 11 0
BBX 11 11 1 0
BITMAP
2020
3040
1080
1900
0E00
0400
0E00
1300
2100
4180
8080
ENDCHAR
STARTCHAR Oslash
ENCODING 216
SWIDTH 831 0
DWIDTH 14 0
BBX 15 13 1 0
BITMAP
03F6
063C
1C1C
183C
305C
309C
711C
7218
7418
7830
7070
38C0
CF80
ENDCHAR
STARTCHAR Ugrave
ENCODING 217
SWIDTH 775 0
DWIDTH 13 0
BBX 13 16 3 0
BITMAP
0600
0100
0000
FC78
7020
7020
7020
6040
6040
E040
E040
E040
E080
E080
6100
3E00
ENDCHAR
STARTCHAR Uacute
ENCODING 218
SWIDTH 775 0
DWIDTH 13 0
BBX 13 16 3 0
BITMAP
01C0
0600
0000
FC78
7020
7020
7020
6040
6040
E040
E040
E040
E080
E080
6100
3E00
ENDCHAR
STARTCHAR Ucircumflex
ENCODING 219
SWIDTH 775 0
DWIDTH 13 0
BBX 13 16 3 0
BITMAP
0380
0CC0
0000
FC78
7020
7020
7020
6040
6040
E040
E040
E040
E080
E080
6100
3E00
ENDCHAR
STARTCHAR Udieresis
ENCODING 220
SWIDTH 775 0
DWIDTH 13 0
BBX 13 15 3 0
BITMAP
0D80
0000
FC78
7020
7020
7020
6040
6040
E040
E040
E040
E080
E080
6100
3E00
ENDCHAR
STARTCHAR Yacute
ENCODING 221
SWIDTH 669 0
DWIDTH 11 0
BBX 12 16 2 0
BITMAP
01C0
0600
0000
F870
7060
7040
3880
3900
1A00
1E00
1C00
1C00
1800
1800
3800
7E00
ENDCHAR
STARTCHAR Thorn
ENCODING 222
SWIDTH 628 0
DWIDTH 11 0
BBX 11 13 1 0
BITMAP
3F00
1C00
1C00
1FC0
18E0
18E0
18E0
38C0
39C0
3F00
3000
7000
F800
ENDCHAR
STARTCHAR germandbls
ENCODING 223
SWIDTH 656 0
DWIDTH 11 0
BBX 10 16 1 -3
BITMAP
0780
1DC0
19C0
1980
3900
3A00
3700
3380
31C0
71C0
60C0
64C0
6F80
6000
E000
C000
ENDCHAR
STARTCHAR agrave
ENCODING 224
SWIDTH 634 0
DWIDTH 11 0
BBX 10 12 1 0
BITMAP
0600
0100
0000
0FC0
11C0
3180
6180
E380
E780
EF80
FB80
63C0
ENDCHAR
STARTCHAR aacute
ENCODING 225
SWIDTH 634 0
DWIDTH 11 0
BBX 10 12 1 0
BITMAP
01C0
0600
0000
0FC0
11C0
3180
6180
E380
E780
EF80
FB80
63C0
ENDCHAR
STARTCHAR acircumflex
ENCODING 226
SWIDTH 634 0
DWIDTH 11 0
BBX 10 12 1 0
BITMAP
0380
0CC0
0000
0FC0
11C0
3180
6180
E380
E780
EF80
FB80
63C0
ENDCHAR
STARTCHAR atilde
ENCODING 227
SWIDTH 634 0
DWIDTH 11 0
BBX 10 12 1 0
BITMAP
0740
0B80
0000
0FC0
11C0
3180
6180
E380
E780
EF80
FB80
63C0
ENDCHAR
STARTCHAR adieresis
ENCODING 228
SWIDTH 634 0
DWIDTH 11 0
BBX 10 11 1 0
BITMAP
0D80
0000
0FC0
11C0
3180
6180
E380
E780
EF80
FB80
63C0
ENDCHAR
STARTCHAR aring
ENCODING 229
SWIDTH 634 0
DWIDTH 11 0
BBX 10 13 1 0
BITMAP
0380
0280
0380
0000
0FC0
11C0
3180
6180
E380
E780
EF80
FB80
63C0
ENDCHAR
STARTCHAR ae
ENCODING 230
SWIDTH 905 0
DWIDTH 15 0
BBX 14 9 1 0
BITMAP
0FB8
11CC
318C
618C
6398
E7E0
E700
EB8C
71F8
ENDCHAR
STARTCHAR ccedilla
ENCODING 231
SWIDTH 524 0
DWIDTH 9 0
BBX 9 12 1 -3
BITMAP
0F80
3100
6100
6000
E000
E000
E000
E100
7E00
2000
1000
7000
ENDCHAR
STARTCHAR egrave
ENCODING 232
SWIDTH 548 0
DWIDTH 9 0
BBX 8 12 1 0
BITMAP
0C
02
00
0E
33
63
63
E6
FC
E0
E1
7E
ENDCHAR
STARTCHAR eacute
ENCODING 233
SWIDTH 548 0
DWIDTH 9 0
BBX 9 12 1 0
BITMAP
0380
0C00
0000
0E00
3300
6300
6300
E600
FC00
E000
E100
7E00
ENDCHAR
STARTCHAR ecircumflex
ENCODING 234
SWIDTH 548 0
DWIDTH 9 0
BBX 9 12 1 0
BITMAP
0700
1980
0000
0E00
3300
6300
6300
E600
FC00
E000
E100
7E00
ENDCHAR
STARTCHAR edieresis
ENCODING 235
SWIDTH 548 0
DWIDTH 9 0
BBX 8 11 1 0
BITMAP
1B
00
0E
33
63
63
E6
FC
E0
E1
7E
ENDCHAR
STARTCHAR igrave
ENCODING 236
SWIDTH 319 0
DWIDTH 5 0
BBX 5 12 2 0
BITMAP
30
08
00
F0
70
70
60
60
60
E0
E0
F0
ENDCHAR
STARTCHAR iacute
ENCODING 237
SWIDTH 319 0
DWIDTH 5 0
BBX 7 12 2 0
BITMAP
0E
30
00
F0
70
70
60
60
60
E0
E0
F0
ENDCHAR
STARTCHAR icircumflex
ENCODING 238
SWIDTH 319 0
DWIDTH 5 0
BBX 6 12 2 0
BITMAP
38
CC
00
F0
70
70
60
60
60
E0
E0
F0
ENDCHAR
STARTCHAR idieresis
ENCODING 239
SWIDTH 319 0
DWIDTH 5 0
BBX 6 11 2 0
BITMAP
6C
00
F0
70
70
60
60
60
E0
E0
F0
ENDCHAR
STARTCHAR eth
ENCODING 240
SWIDTH 617 0
DWIDTH 10 0
BBX 9 13 1 0
BITMAP
3F00
0E00
0B00
1380
0F80
3380
6180
6180
E180
E180
E300
E600
7C00
ENDCHAR
STARTCHAR ntilde
ENCODING 241
SWIDTH 656 0
DWIDTH 11 0
BBX 10 12 1 0
BITMAP
0740
0B80
0000
F380
35C0
79C0
79C0
7180
6180
6380
E380
E3C0
ENDCHAR
STARTCHAR ograve
ENCODING 242
SWIDTH 599 0
DWIDTH 10 0
BBX 9 12 1 0
BITMAP
0600
0100
0000
0F00
3180
7180
6180
E180
E380
E300
E600
7C00
ENDCHAR
STARTCHAR oacute
ENCODING 243
SWIDTH 599 0
DWIDTH 10 0
BBX 10 12 1 0
BITMAP
01C0
0600
0000
0F00
3180
7180
6180
E180
E380
E300
E600
7C00
ENDCHAR
STARTCHAR ocircumflex
ENCODING 244
SWIDTH 599 0
DWIDTH 10 0
BBX 9 12 1 0
BITMAP
0700
1980
0000
0F00
3180
7180
6180
E180
E380
E300
E600
7C00
ENDCHAR
STARTCHAR otilde
ENCODING 245
SWIDTH 599 0
DWIDTH 10 0
BBX 9 12 1 0
BITMAP
0E80
1700
0000
0F00
3180
7180
6180
E180
E380
E300
E600
7C00
ENDCHAR
STARTCHAR odieresis
ENCODING 246
SWIDTH 599 0
DWIDTH 10 0
BBX 9 11 1 0
BITMAP
0D80
0000
0F00
3180
7180
6180
E180
E380
E300
E600
7C00
ENDCHAR
STARTCHAR divide
ENCODING 247
SWIDTH 636 0
DWIDTH 11 0
BBX 10 9 1 0
BITMAP
0600
0400
0000
0000
FFC0
0000
0000
1800
1800
ENDCHAR
STARTCHAR oslash
ENCODING 248
SWIDTH 599 0
DWIDTH 10 0
BBX 11 9 1 0
BITMAP
07E0
19C0
31C0
72C0
64C0
6980
7180
7300
FC00
ENDCHAR
STARTCHAR ugrave
ENCODING 249
SWIDTH 655 0
DWIDTH 11 0
BBX 10 12 2 0
BITMAP
0600
0100
0000
F3C0
71C0
7180
6180
6380
E780
E780
FB00
E3C0
ENDCHAR
STARTCHAR uacute
ENCODING 250
SWIDTH 655 0
DWIDTH 11 0
BBX 10 12 2 0
BITMAP
01C0
0600
0000
F3C0
71C0
7180
6180
6380
E780
E780
FB00
E3C0
ENDCHAR
STARTCHAR ucircumflex
ENCODING 251
SWIDTH 655 0
DWIDTH 11 0
BBX 10 12 2 0
BITMAP
0700
1980
0000
F3C0
71C0
7180
6180
6380
E780
E780
FB00
E3C0
ENDCHAR
STARTCHAR udieresis
ENCODING 252
SWIDTH 655 0
DWIDTH 11 0
BBX 10 11 2 0
BITMAP
0D80
0000
F3C0
71C0
7180
6180
6380
E780
E780
FB00
E3C0
ENDCHAR
STARTCHAR yacute
ENCODING 253
SWIDTH 586 0
DWIDTH 10 0
BBX 12 15 0 -3
BITMAP
00E0
0300
0000
3870
1C30
1C20
0C60
0CC0
0F80
0F00
0600
0400
0800
1000
F000
ENDCHAR
STARTCHAR thorn
ENCODING 254
SWIDTH 639 0
DWIDTH 11 0
BBX 11 16 1 -3
BITMAP
7C00
3800
1800
1800
39C0
3AE0
3CE0
38E0
38E0
70C0
7180
7100
7E00
6000
E000
E000
ENDCHAR
STARTCHAR ydieresis
ENCODING 255
SWIDTH 586 0
DWIDTH 10 0
BBX 12 14 0 -3
BITMAP
0360
0000
3870
1C30
1C20
0C60
0CC0
0F80
0F00
0600
0400
0800
1000
F000
ENDCHAR
ENDFONT
