STARTFONT 2.1
COMMENT AUTOMATICALLY GENERATED FILE. DO NOT EDIT!
COMMENT Generated with 'ucs2any.pl lubBI18.bdf ../../../fonts/util/map-ISO8859-1 ISO8859-1'
COMMENT from an ISO10646-1 encoded source BDF font.
COMMENT ucs2any.pl by Markus Kuhn <mkuhn@acm.org>, 2000.
COMMENT $Xorg: $
COMMENT ISO10646-1 extension by Markus Kuhn <mkuhn@acm.org>, 2001-03-20
COMMENT  (c) Copyright Bigelow & Holmes 1986, 1985. Lucida is a registered
COMMENT  trademark of Bigelow & Holmes. See LEGAL NOTICE file for terms 
COMMENT  of the license. 
FONT -B&H-LucidaBright-DemiBold-I-Normal--25-180-100-100-P-149-ISO8859-1
SIZE 18 100 100
FONTBOUNDINGBOX 41 28 -15 -5
STARTPROPERTIES 22
COMMENT Begin LogicalFontDescription
FONTNAME_REGISTRY ""
FOUNDRY "B&H"
FAMILY_NAME "LucidaBright"
WEIGHT_NAME "DemiBold"
SLANT "I"
SETWIDTH_NAME "Normal"
ADD_STYLE_NAME ""
PIXEL_SIZE 25
POINT_SIZE 180
RESOLUTION_X 100
RESOLUTION_Y 100
SPACING "P"
AVERAGE_WIDTH 149
CHARSET_REGISTRY "ISO8859"
CHARSET_ENCODING "1"
COMMENT END LogicalFontDescription
FONT_ASCENT 23
FONT_DESCENT 6
DEFAULT_CHAR 0
COPYRIGHT "Copyright Bigelow & Holmes 1986, 1985."
FACE_NAME "Lucida Bright Demibold Italic"
X_HEIGHT 13
CAP_HEIGHT 18
ENDPROPERTIES
CHARS 192
STARTCHAR defaultchar
ENCODING 0
SWIDTH 827 0
DWIDTH 21 0
BBX 23 17 1 0
BITMAP
AAAAAA
000000
800002
000000
800002
000000
800002
000000
800002
000000
800002
000000
800002
000000
800002
000000
AAAAAA
ENDCHAR
STARTCHAR space
ENCODING 32
SWIDTH 333 0
DWIDTH 8 0
BBX 1 1 0 0
BITMAP
00
ENDCHAR
STARTCHAR exclam
ENCODING 33
SWIDTH 265 0
DWIDTH 6 0
BBX 7 18 1 0
BITMAP
1E
1E
1C
1C
1C
1C
18
38
38
38
30
30
30
00
00
F0
F0
F0
ENDCHAR
STARTCHAR quotedbl
ENCODING 34
SWIDTH 451 0
DWIDTH 11 0
BBX 9 7 4 11
BITMAP
F780
E380
E380
6300
6300
6300
4100
ENDCHAR
STARTCHAR numbersign
ENCODING 35
SWIDTH 636 0
DWIDTH 16 0
BBX 16 18 2 0
BITMAP
0063
00C2
00C6
0084
018C
0108
7FFF
0210
0630
0420
0C60
0860
FFFE
1080
3180
6100
6300
C600
ENDCHAR
STARTCHAR dollar
ENCODING 36
SWIDTH 636 0
DWIDTH 16 0
BBX 14 23 3 -3
BITMAP
0040
0040
07FC
0E9C
1C8C
1C88
1C80
1D80
1F00
0F00
07C0
03E0
03F0
02F0
0270
0270
4670
C4E0
E5C0
FF80
0400
0C00
0C00
ENDCHAR
STARTCHAR percent
ENCODING 37
SWIDTH 772 0
DWIDTH 19 0
BBX 20 18 1 0
BITMAP
0F0070
3980E0
71C1C0
71C380
61C700
E18E00
639C00
673800
3E7000
00E3C0
01CE60
038C70
071C70
0E1C70
0C1870
1818E0
301CC0
E00F80
ENDCHAR
STARTCHAR ampersand
ENCODING 38
SWIDTH 773 0
DWIDTH 19 0
BBX 20 18 1 0
BITMAP
007C00
01CE00
038700
038700
038E00
038E00
03F800
03E000
1DC3F0
39E1C0
71E1C0
F0F180
F0F180
F07B00
F03E00
703E00
783F00
1FCFC0
ENDCHAR
STARTCHAR quotesingle
ENCODING 39
SWIDTH 247 0
DWIDTH 6 0
BBX 4 7 4 11
BITMAP
F0
F0
E0
60
60
60
60
ENDCHAR
STARTCHAR parenleft
ENCODING 40
SWIDTH 336 0
DWIDTH 8 0
BBX 9 23 2 -5
BITMAP
0080
0100
0600
0E00
0C00
1C00
3800
3800
7000
7000
F000
F000
E000
E000
E000
E000
E000
E000
6000
7000
3000
1000
1800
ENDCHAR
STARTCHAR parenright
ENCODING 41
SWIDTH 336 0
DWIDTH 8 0
BBX 9 23 0 -5
BITMAP
0400
0400
0600
0300
0300
0380
0380
0380
0380
0380
0380
0780
0780
0700
0700
0E00
0E00
1C00
1800
3800
3000
4000
8000
ENDCHAR
STARTCHAR asterisk
ENCODING 42
SWIDTH 434 0
DWIDTH 11 0
BBX 10 9 3 9
BITMAP
0E00
0600
44C0
F7C0
7380
1400
3600
E700
2200
ENDCHAR
STARTCHAR plus
ENCODING 43
SWIDTH 636 0
DWIDTH 16 0
BBX 15 15 2 0
BITMAP
00C0
00C0
0080
0180
0180
0180
0180
FFFE
0300
0300
0300
0300
0200
0600
0600
ENDCHAR
STARTCHAR comma
ENCODING 44
SWIDTH 265 0
DWIDTH 7 0
BBX 6 9 0 -5
BITMAP
3C
7C
78
78
38
38
30
F0
C0
ENDCHAR
STARTCHAR hyphen
ENCODING 45
SWIDTH 289 0
DWIDTH 7 0
BBX 6 1 2 8
BITMAP
FC
ENDCHAR
STARTCHAR period
ENCODING 46
SWIDTH 265 0
DWIDTH 7 0
BBX 5 4 1 0
BITMAP
78
78
F0
F0
ENDCHAR
STARTCHAR slash
ENCODING 47
SWIDTH 515 0
DWIDTH 13 0
BBX 17 22 0 -4
BITMAP
000180
000300
000200
000400
000C00
000800
001000
003000
002000
004000
008000
008000
010000
020000
020000
040000
080000
080000
100000
200000
600000
C00000
ENDCHAR
STARTCHAR zero
ENCODING 48
SWIDTH 623 0
DWIDTH 16 0
BBX 15 18 2 0
BITMAP
01F0
0638
0C1C
1C1C
381C
381E
781E
701E
F01C
F01C
F03C
F03C
F038
F078
F070
70E0
39C0
1F00
ENDCHAR
STARTCHAR one
ENCODING 49
SWIDTH 636 0
DWIDTH 16 0
BBX 10 18 3 0
BITMAP
1FC0
03C0
03C0
0380
0380
0780
0780
0780
0700
0700
0F00
0F00
0F00
0E00
0E00
1E00
1E00
FFC0
ENDCHAR
STARTCHAR two
ENCODING 50
SWIDTH 636 0
DWIDTH 16 0
BBX 15 18 2 0
BITMAP
03F0
0C3C
181E
181E
001E
001E
003C
0038
0060
0180
0200
0400
1800
3000
7000
7FF8
FFF0
FFF0
ENDCHAR
STARTCHAR three
ENCODING 51
SWIDTH 636 0
DWIDTH 16 0
BBX 14 18 3 0
BITMAP
0FF0
0C78
083C
183C
003C
0038
0070
00E0
1FC0
01E0
0070
0078
0078
0078
4070
C0F0
E1C0
7F00
ENDCHAR
STARTCHAR four
ENCODING 52
SWIDTH 636 0
DWIDTH 16 0
BBX 14 18 2 0
BITMAP
001C
0038
0078
00B8
0138
0238
0470
0870
1070
2070
7FFC
FFFC
FFFC
00E0
00E0
00E0
01E0
07F8
ENDCHAR
STARTCHAR five
ENCODING 53
SWIDTH 636 0
DWIDTH 16 0
BBX 15 18 3 0
BITMAP
0FFE
0FFC
0FFC
1800
1800
1000
1000
3F00
03C0
00F0
00F0
0070
0078
0070
40F0
C0E0
E1C0
FE00
ENDCHAR
STARTCHAR six
ENCODING 54
SWIDTH 636 0
DWIDTH 16 0
BBX 15 18 3 0
BITMAP
01FC
070E
0E04
1C04
3C0C
3800
7800
73E0
FC78
F838
F038
F038
F038
F038
7070
7070
38E0
1F80
ENDCHAR
STARTCHAR seven
ENCODING 55
SWIDTH 636 0
DWIDTH 16 0
BBX 14 18 4 0
BITMAP
3FFC
7FFC
7FF8
0018
0030
0060
00C0
0180
0300
0700
0E00
1C00
3C00
3800
7800
7000
F000
F000
ENDCHAR
STARTCHAR eight
ENCODING 56
SWIDTH 636 0
DWIDTH 16 0
BBX 15 18 2 0
BITMAP
01F8
071C
0E1E
1C1E
1C1E
1E1C
1F38
0FE0
07E0
19F8
38F8
707C
F03C
F03C
F038
F030
7860
1F80
ENDCHAR
STARTCHAR nine
ENCODING 57
SWIDTH 636 0
DWIDTH 16 0
BBX 15 18 2 0
BITMAP
03E0
0E38
1C1C
3C1C
381E
781E
781E
781E
383E
3C7C
0FBC
003C
0038
4078
C070
C0E0
E180
7E00
ENDCHAR
STARTCHAR colon
ENCODING 58
SWIDTH 265 0
DWIDTH 6 0
BBX 6 13 1 0
BITMAP
3C
3C
3C
38
00
00
00
00
00
70
F0
F0
F0
ENDCHAR
STARTCHAR semicolon
ENCODING 59
SWIDTH 265 0
DWIDTH 6 0
BBX 7 18 1 -5
BITMAP
1E
1E
1E
1C
00
00
00
00
00
00
00
78
78
38
30
30
70
C0
ENDCHAR
STARTCHAR less
ENCODING 60
SWIDTH 636 0
DWIDTH 16 0
BBX 16 15 2 0
BITMAP
0001
0007
001E
0070
01C0
0700
3C00
F000
3C00
0F00
0780
01E0
0078
001C
0008
ENDCHAR
STARTCHAR equal
ENCODING 61
SWIDTH 636 0
DWIDTH 16 0
BBX 16 6 1 4
BITMAP
7FFF
0000
0000
0000
0000
FFFE
ENDCHAR
STARTCHAR greater
ENCODING 62
SWIDTH 636 0
DWIDTH 16 0
BBX 16 15 1 0
BITMAP
1000
1800
1E00
0780
01E0
00F0
003C
000F
003C
00E0
0380
0E00
3800
E000
8000
ENDCHAR
STARTCHAR question
ENCODING 63
SWIDTH 493 0
DWIDTH 12 0
BBX 11 18 3 0
BITMAP
3F80
63C0
41E0
C1E0
01E0
01C0
0180
0300
0600
1C00
3800
3800
7800
0000
0000
F000
F000
F000
ENDCHAR
STARTCHAR at
ENCODING 64
SWIDTH 861 0
DWIDTH 22 0
BBX 19 18 3 0
BITMAP
00FE00
030380
0C00C0
180040
30F020
211C20
430C20
460C20
861C20
8C3820
8C3860
8C7840
8ED880
471F00
400000
200000
183000
07E000
ENDCHAR
STARTCHAR A
ENCODING 65
SWIDTH 765 0
DWIDTH 19 0
BBX 19 18 0 0
BITMAP
000C00
001C00
001C00
003E00
007E00
005E00
00CE00
018E00
010F00
030F00
020F00
060700
0FFF80
080780
180780
100380
3003C0
F80FE0
ENDCHAR
STARTCHAR B
ENCODING 66
SWIDTH 651 0
DWIDTH 16 0
BBX 16 18 1 0
BITMAP
1FFC
070F
070F
070F
070F
0F0E
0E1E
0E3C
0FF0
0E38
1E1C
1C1E
1C1E
1C1E
1C1E
3C3C
3C78
FFF0
ENDCHAR
STARTCHAR C
ENCODING 67
SWIDTH 740 0
DWIDTH 18 0
BBX 17 18 3 0
BITMAP
00FF00
038780
0E0180
1E0100
1C0300
380000
780000
780000
F00000
F00000
F00000
F00000
F00000
F00000
780000
780000
3E0C00
0FF000
ENDCHAR
STARTCHAR D
ENCODING 68
SWIDTH 822 0
DWIDTH 21 0
BBX 20 18 1 0
BITMAP
1FFF00
0787C0
0781E0
0700E0
0700F0
0F00F0
0F00F0
0F00F0
0E00F0
0E00F0
1E00E0
1E01E0
1E01C0
1E03C0
1C0380
3C0700
3C1E00
FFF800
ENDCHAR
STARTCHAR E
ENCODING 69
SWIDTH 630 0
DWIDTH 16 0
BBX 17 18 1 0
BITMAP
1FFF80
078180
078100
078000
078000
0F0000
0F0000
0F0C00
0FF800
0E0800
1E0000
1E0000
1E0000
1E0000
1C0000
3C0600
3C0C00
FFFC00
ENDCHAR
STARTCHAR F
ENCODING 70
SWIDTH 602 0
DWIDTH 15 0
BBX 17 18 1 0
BITMAP
1FFF80
078180
078300
078000
070000
070000
0F0000
0F0C00
0FF800
0E0800
0E0000
1E0000
1E0000
1E0000
1C0000
3C0000
3C0000
FF0000
ENDCHAR
STARTCHAR G
ENCODING 71
SWIDTH 780 0
DWIDTH 19 0
BBX 17 18 3 0
BITMAP
00FF80
038380
0F0180
1E0300
1C0000
380000
780000
780000
F00000
F00000
F03F80
F01E00
F01E00
F01C00
781C00
781C00
3C3C00
0FF000
ENDCHAR
STARTCHAR H
ENCODING 72
SWIDTH 827 0
DWIDTH 21 0
BBX 23 18 1 0
BITMAP
1FF1FE
07C078
078078
0780F0
0780F0
0700F0
0F00F0
0F00E0
0FFFE0
0F01E0
0E01E0
1E01E0
1E01C0
1E03C0
1E03C0
3C03C0
3C07C0
FF1FF0
ENDCHAR
STARTCHAR I
ENCODING 73
SWIDTH 372 0
DWIDTH 9 0
BBX 11 18 1 0
BITMAP
1FE0
0780
0780
0700
0F00
0F00
0F00
0F00
0E00
0E00
1E00
1E00
1E00
1C00
1C00
3C00
3C00
FF00
ENDCHAR
STARTCHAR J
ENCODING 74
SWIDTH 478 0
DWIDTH 12 0
BBX 15 22 0 -4
BITMAP
01FE
0078
0078
0070
00F0
00F0
00F0
00F0
00E0
00E0
01E0
01E0
01E0
01E0
01C0
03C0
03C0
03C0
6380
C700
C600
FC00
ENDCHAR
STARTCHAR K
ENCODING 75
SWIDTH 746 0
DWIDTH 19 0
BBX 19 18 1 0
BITMAP
1FE3E0
078180
070300
070600
070C00
0F1000
0F6000
0EC000
0FE000
0FE000
1EF000
1EF800
1C7C00
1C3C00
1C3E00
3C1F00
3C0F00
FE3FC0
ENDCHAR
STARTCHAR L
ENCODING 76
SWIDTH 611 0
DWIDTH 15 0
BBX 15 18 1 0
BITMAP
1FF0
07C0
0780
0780
0780
0700
0F00
0F00
0F00
0F00
0E00
1E00
1E00
1E00
1E06
3C06
3C0C
FFFC
ENDCHAR
STARTCHAR M
ENCODING 77
SWIDTH 926 0
DWIDTH 23 0
BBX 25 18 1 0
BITMAP
1F801F80
07801E00
07803E00
07C07C00
05C05C00
0DC0BC00
0DC1BC00
0CE13C00
0CE33800
08E23800
18E43800
187C7800
18787800
18707000
10707000
3020F000
3000F000
FC03FC00
ENDCHAR
STARTCHAR N
ENCODING 78
SWIDTH 797 0
DWIDTH 20 0
BBX 22 18 1 0
BITMAP
1F80FC
078030
07C030
07C060
07E060
0DE060
0CF060
0CF060
0C78C0
0C78C0
183CC0
181CC0
181E80
180F80
180F80
300780
300780
FC0300
ENDCHAR
STARTCHAR O
ENCODING 79
SWIDTH 831 0
DWIDTH 21 0
BBX 19 18 3 0
BITMAP
00FE00
038780
0703C0
1E01C0
1C01E0
3801E0
7801E0
7801E0
F001E0
F001E0
F003C0
F003C0
F00380
F00700
700E00
781C00
3C3800
0FC000
ENDCHAR
STARTCHAR P
ENCODING 80
SWIDTH 628 0
DWIDTH 16 0
BBX 17 18 1 0
BITMAP
1FFE00
078F00
078780
078780
070780
0F0780
0F0700
0F0F00
0F0E00
0E3C00
1FF000
1E0000
1E0000
1E0000
1C0000
3C0000
3C0000
FF0000
ENDCHAR
STARTCHAR Q
ENCODING 81
SWIDTH 835 0
DWIDTH 21 0
BBX 21 23 3 -5
BITMAP
00FE00
038700
070380
1E01C0
1C01E0
3801E0
7801E0
7801E0
F001E0
F001E0
F003E0
F003C0
F003C0
F00780
700F80
781F00
3C3E00
0FFC00
007800
002000
001000
000E00
0001F8
ENDCHAR
STARTCHAR R
ENCODING 82
SWIDTH 711 0
DWIDTH 18 0
BBX 17 18 1 0
BITMAP
1FFE00
078F80
078780
070780
070780
0F0780
0F0700
0F0E00
0F1C00
0FF800
1E7800
1E7800
1E3C00
1C3C00
1C1E00
3C1E00
3C0F00
FE0F80
ENDCHAR
STARTCHAR S
ENCODING 83
SWIDTH 587 0
DWIDTH 15 0
BBX 15 18 2 0
BITMAP
01FC
070E
0E06
1C0C
1C00
1E00
1F00
1F80
0FE0
03F0
01F8
00F8
0078
0078
6078
C070
E0E0
7F80
ENDCHAR
STARTCHAR T
ENCODING 84
SWIDTH 716 0
DWIDTH 18 0
BBX 18 18 3 0
BITMAP
7FFFC0
E1E0C0
C1E080
C1E180
03C000
03C000
03C000
03C000
03C000
038000
078000
078000
078000
078000
070000
0F0000
0F0000
7FC000
ENDCHAR
STARTCHAR U
ENCODING 85
SWIDTH 775 0
DWIDTH 19 0
BBX 19 18 4 0
BITMAP
FF07E0
3C0380
3C0300
380300
380200
780200
780200
780200
700600
F00400
F00400
F00400
F00400
F00800
F00800
701000
382000
1FC000
ENDCHAR
STARTCHAR V
ENCODING 86
SWIDTH 741 0
DWIDTH 19 0
BBX 19 18 3 0
BITMAP
FE03E0
7C0080
3C0180
3C0100
3C0200
3C0600
1E0400
1E0800
1E0800
1E1000
1E3000
0F2000
0F4000
0FC000
0F8000
070000
070000
060000
ENDCHAR
STARTCHAR W
ENCODING 87
SWIDTH 922 0
DWIDTH 23 0
BBX 23 18 3 0
BITMAP
FC183E
78180C
783818
783810
387830
387C20
38FC60
38BC40
399CC0
391C80
3B1D80
3A1D00
3E1F00
3C1E00
3C1E00
381C00
381C00
301800
ENDCHAR
STARTCHAR X
ENCODING 88
SWIDTH 672 0
DWIDTH 17 0
BBX 20 18 0 0
BITMAP
0FE1F0
07C0C0
03C180
03C100
01E200
01E600
00EC00
00F800
00F000
00F800
01F800
033C00
023C00
041C00
081E00
181E00
300F00
F83F80
ENDCHAR
STARTCHAR Y
ENCODING 89
SWIDTH 669 0
DWIDTH 17 0
BBX 17 18 3 0
BITMAP
FE0F80
7C0600
3C0400
3C0C00
1C1800
1E3000
1E2000
0F6000
0FC000
078000
070000
0F0000
0F0000
0F0000
0F0000
0E0000
1E0000
7F8000
ENDCHAR
STARTCHAR Z
ENCODING 90
SWIDTH 684 0
DWIDTH 17 0
BBX 17 18 2 0
BITMAP
0FFF80
0C0F00
081F00
001E00
003C00
007800
00F800
01F000
01E000
03C000
078000
0F8000
0F0000
1E0000
3C0000
7C0C00
F80C00
FFFC00
ENDCHAR
STARTCHAR bracketleft
ENCODING 91
SWIDTH 336 0
DWIDTH 8 0
BBX 10 22 1 -4
BITMAP
0FC0
0E00
0E00
0E00
0E00
1C00
1C00
1C00
1C00
1C00
3800
3800
3800
3800
3800
7000
7000
7000
7000
7000
E000
FC00
ENDCHAR
STARTCHAR backslash
ENCODING 92
SWIDTH 515 0
DWIDTH 13 0
BBX 8 22 4 -4
BITMAP
C0
40
40
40
20
20
20
10
10
10
10
08
08
08
08
04
04
04
02
02
02
03
ENDCHAR
STARTCHAR bracketright
ENCODING 93
SWIDTH 336 0
DWIDTH 8 0
BBX 10 22 0 -4
BITMAP
0FC0
01C0
0380
0380
0380
0380
0380
0700
0700
0700
0700
0700
0E00
0E00
0E00
0E00
0E00
1C00
1C00
1C00
1C00
FC00
ENDCHAR
STARTCHAR asciicircum
ENCODING 94
SWIDTH 636 0
DWIDTH 16 0
BBX 14 15 2 3
BITMAP
0040
0040
00E0
01E0
01E0
0360
0230
0630
0C30
0C30
1818
3018
3018
600C
C00C
ENDCHAR
STARTCHAR underscore
ENCODING 95
SWIDTH 500 0
DWIDTH 12 0
BBX 11 1 1 -3
BITMAP
FFE0
ENDCHAR
STARTCHAR grave
ENCODING 96
SWIDTH 599 0
DWIDTH 15 0
BBX 5 4 8 14
BITMAP
E0
70
30
18
ENDCHAR
STARTCHAR a
ENCODING 97
SWIDTH 634 0
DWIDTH 16 0
BBX 15 13 2 0
BITMAP
01FE
063E
0C1C
181C
383C
703C
707C
F0B8
F1F8
F378
FE78
FC78
787C
ENDCHAR
STARTCHAR b
ENCODING 98
SWIDTH 633 0
DWIDTH 16 0
BBX 15 18 2 0
BITMAP
3F00
1E00
1E00
1E00
1E00
1C3C
1C7E
3CFE
3D9E
3F1E
3A1E
7C1C
781C
7838
7030
7060
F8C0
FF00
ENDCHAR
STARTCHAR c
ENCODING 99
SWIDTH 524 0
DWIDTH 13 0
BBX 13 13 2 0
BITMAP
03F0
0E38
1C30
3830
7800
7000
F000
F000
F000
F000
F000
7820
3FC0
ENDCHAR
STARTCHAR d
ENCODING 100
SWIDTH 634 0
DWIDTH 16 0
BBX 16 18 2 0
BITMAP
003F
000F
000E
000E
001E
01FE
063E
0C1C
183C
383C
703C
7078
F0B8
F1F8
F378
FE78
FC78
78FC
ENDCHAR
STARTCHAR e
ENCODING 101
SWIDTH 548 0
DWIDTH 14 0
BBX 12 13 2 0
BITMAP
03E0
0CF0
1870
3870
7070
70E0
F3C0
FF00
F000
F000
F010
7870
3F80
ENDCHAR
STARTCHAR f
ENCODING 102
SWIDTH 415 0
DWIDTH 10 0
BBX 14 25 1 -5
BITMAP
00FC
018C
030C
0708
0708
0F00
0F00
3FE0
1E00
1E00
1E00
1C00
1C00
3C00
3C00
3C00
3800
3800
7800
7800
7800
7000
7000
F000
F000
ENDCHAR
STARTCHAR g
ENCODING 103
SWIDTH 628 0
DWIDTH 16 0
BBX 15 18 1 -5
BITMAP
01FE
061E
0C1E
1C1C
181C
383C
787C
787C
78B8
79B8
7F78
7E78
3870
0070
80F0
C0E0
71C0
7F00
ENDCHAR
STARTCHAR h
ENCODING 104
SWIDTH 656 0
DWIDTH 16 0
BBX 14 18 2 0
BITMAP
3E00
1E00
1E00
1E00
1C00
1C38
3CFC
3DFC
3DBC
3A3C
3E38
7C38
7878
7878
7078
7070
F070
F0FC
ENDCHAR
STARTCHAR i
ENCODING 105
SWIDTH 319 0
DWIDTH 8 0
BBX 7 18 2 0
BITMAP
1E
1E
1C
00
00
FC
3C
3C
38
38
78
78
78
70
70
F0
F0
FC
ENDCHAR
STARTCHAR j
ENCODING 106
SWIDTH 381 0
DWIDTH 10 0
BBX 14 23 -1 -5
BITMAP
003C
003C
0038
0000
0000
01F8
0070
0070
00F0
00F0
00F0
00E0
00E0
01E0
01E0
01E0
01C0
03C0
03C0
4380
C300
C600
FC00
ENDCHAR
STARTCHAR k
ENCODING 107
SWIDTH 626 0
DWIDTH 16 0
BBX 14 18 2 0
BITMAP
3F00
1E00
1E00
1E00
1E00
1C3C
3C3C
3C38
3C70
39E0
3F80
7B80
7BC0
7BC0
71E0
70F0
F0F8
F07C
ENDCHAR
STARTCHAR l
ENCODING 108
SWIDTH 319 0
DWIDTH 8 0
BBX 7 18 2 0
BITMAP
3E
1E
1E
1C
1C
3C
3C
3C
38
38
78
78
78
70
70
F0
F0
F8
ENDCHAR
STARTCHAR m
ENCODING 109
SWIDTH 969 0
DWIDTH 24 0
BBX 22 13 2 0
BITMAP
FC3838
3CFCFC
3DFDFC
3B3D3C
3A3A3C
3C3E38
7C3C38
787838
707878
707078
707070
F07070
F0F0FC
ENDCHAR
STARTCHAR n
ENCODING 110
SWIDTH 656 0
DWIDTH 16 0
BBX 14 13 2 0
BITMAP
FC38
3CFC
3CFC
393C
3A3C
3C38
7C38
7878
7878
7078
7070
F070
F0FC
ENDCHAR
STARTCHAR o
ENCODING 111
SWIDTH 599 0
DWIDTH 15 0
BBX 14 13 2 0
BITMAP
03E0
0E38
1C38
383C
783C
703C
F03C
F038
F078
F070
F0E0
79C0
3F00
ENDCHAR
STARTCHAR p
ENCODING 112
SWIDTH 639 0
DWIDTH 16 0
BBX 16 18 1 -5
BITMAP
7E1E
1E3F
1E7F
1ECF
1D0F
1D0F
3E0E
3C0E
3C1C
3818
3830
7C60
7F80
7800
7000
7000
F000
F000
ENDCHAR
STARTCHAR q
ENCODING 113
SWIDTH 630 0
DWIDTH 16 0
BBX 15 18 2 -5
BITMAP
01FE
063E
0C1C
181C
383C
703C
707C
F0B8
F1B8
F378
FE78
FC78
7870
00F0
00F0
00F0
00F0
00E0
ENDCHAR
STARTCHAR r
ENCODING 114
SWIDTH 496 0
DWIDTH 12 0
BBX 13 13 2 0
BITMAP
7C38
3C70
3CF0
3D80
3E00
3E00
7C00
7800
7800
7000
7000
F000
F000
ENDCHAR
STARTCHAR s
ENCODING 115
SWIDTH 479 0
DWIDTH 12 0
BBX 12 13 1 0
BITMAP
07E0
1C70
1C20
3C60
1E00
1F00
0F80
07C0
03C0
41C0
C1C0
E380
7F00
ENDCHAR
STARTCHAR t
ENCODING 116
SWIDTH 375 0
DWIDTH 9 0
BBX 9 17 2 0
BITMAP
0C00
1C00
3C00
3C00
FF80
3C00
3800
3800
7800
7800
7800
7000
F000
F000
F000
7200
3C00
ENDCHAR
STARTCHAR u
ENCODING 117
SWIDTH 655 0
DWIDTH 16 0
BBX 14 13 3 0
BITMAP
FCFC
383C
3838
7838
7878
7878
70F8
70F0
F170
F370
FEF0
FCF0
70FC
ENDCHAR
STARTCHAR v
ENCODING 118
SWIDTH 584 0
DWIDTH 15 0
BBX 15 13 2 0
BITMAP
F83E
780E
3C0E
3C0C
1C18
1E30
1E30
1E60
0EC0
0F80
0F00
0E00
0C00
ENDCHAR
STARTCHAR w
ENCODING 119
SWIDTH 822 0
DWIDTH 21 0
BBX 20 13 2 0
BITMAP
F820F0
783070
387060
3C7060
3C78C0
1CB880
1CB900
1D3B00
1F3A00
1E1C00
1C1C00
181800
181000
ENDCHAR
STARTCHAR x
ENCODING 120
SWIDTH 534 0
DWIDTH 13 0
BBX 13 13 1 0
BITMAP
3C38
1E38
1E38
0F30
0F60
0780
0780
0F80
1BC0
31C0
61E0
E1E0
E0F0
ENDCHAR
STARTCHAR y
ENCODING 121
SWIDTH 586 0
DWIDTH 15 0
BBX 17 18 0 -5
BITMAP
3F0780
0F0380
0F0380
078300
078600
078600
038C00
039800
03B000
03E000
03C000
01C000
018000
030000
060000
0C0000
180000
F80000
ENDCHAR
STARTCHAR z
ENCODING 122
SWIDTH 567 0
DWIDTH 14 0
BBX 14 13 1 0
BITMAP
1FFC
1878
3078
00F0
01E0
03C0
0780
0F00
1E00
3C00
7C18
7830
FFF0
ENDCHAR
STARTCHAR braceleft
ENCODING 123
SWIDTH 361 0
DWIDTH 9 0
BBX 9 22 2 -4
BITMAP
0780
0E00
0E00
1E00
1E00
1E00
1E00
1C00
1C00
1800
3000
E000
3800
3800
3800
7800
7000
F000
F000
E000
F000
3800
ENDCHAR
STARTCHAR bar
ENCODING 124
SWIDTH 253 0
DWIDTH 6 0
BBX 6 22 2 -4
BITMAP
0C
0C
0C
18
18
18
18
18
30
30
30
30
30
30
60
60
60
60
60
C0
C0
C0
ENDCHAR
STARTCHAR braceright
ENCODING 125
SWIDTH 361 0
DWIDTH 9 0
BBX 9 22 1 -4
BITMAP
0E00
0700
0380
0380
0780
0700
0F00
0E00
0E00
0600
0200
0780
0E00
1C00
1C00
3C00
3C00
3C00
3C00
3C00
3800
F000
ENDCHAR
STARTCHAR asciitilde
ENCODING 126
SWIDTH 636 0
DWIDTH 16 0
BBX 15 6 2 4
BITMAP
1C02
2702
4304
4184
81C8
8070
ENDCHAR
STARTCHAR space
ENCODING 160
SWIDTH 333 0
DWIDTH 8 0
BBX 1 1 0 0
BITMAP
00
ENDCHAR
STARTCHAR exclamdown
ENCODING 161
SWIDTH 265 0
DWIDTH 6 0
BBX 7 18 1 -5
BITMAP
1E
1E
1E
00
00
18
18
38
38
38
38
78
78
78
F0
F0
F0
F0
ENDCHAR
STARTCHAR cent
ENCODING 162
SWIDTH 636 0
DWIDTH 16 0
BBX 13 18 3 0
BITMAP
00C0
0080
03F8
0EB8
1C98
3910
7900
7100
F100
F300
F200
F200
F200
7A20
3FC0
0400
0400
0400
ENDCHAR
STARTCHAR sterling
ENCODING 163
SWIDTH 636 0
DWIDTH 16 0
BBX 15 18 3 0
BITMAP
007C
01C6
0386
0384
0780
0780
0700
0F00
3FE0
0F00
0E00
0E00
1E00
1C00
3000
FFF0
FFF0
FFE0
ENDCHAR
STARTCHAR currency
ENCODING 164
SWIDTH 636 0
DWIDTH 16 0
BBX 18 16 1 1
BITMAP
100040
080080
0C0100
07F200
031C00
060C00
0C0400
0C0600
0C0C00
0C0C00
0C1800
0E3800
1FF800
300C00
400600
800200
ENDCHAR
STARTCHAR yen
ENCODING 165
SWIDTH 636 0
DWIDTH 16 0
BBX 17 18 3 0
BITMAP
FE0F80
780200
3C0400
3C0800
1E1000
1E3000
0F6000
0F4000
078000
3FF000
070000
0F0000
7FE000
0F0000
0E0000
0E0000
1E0000
7F8000
ENDCHAR
STARTCHAR brokenbar
ENCODING 166
SWIDTH 253 0
DWIDTH 6 0
BBX 6 22 2 -4
BITMAP
0C
0C
0C
18
18
18
18
18
30
30
00
00
30
30
60
60
60
60
60
C0
C0
C0
ENDCHAR
STARTCHAR section
ENCODING 167
SWIDTH 636 0
DWIDTH 16 0
BBX 14 23 2 -5
BITMAP
03FC
071C
0E0C
1C08
1C00
1E00
1F80
0FE0
0FF0
19F0
3878
3838
3830
3E20
1FE0
0FE0
03E0
00F0
00F0
40E0
C0E0
E1C0
7F00
ENDCHAR
STARTCHAR dieresis
ENCODING 168
SWIDTH 599 0
DWIDTH 15 0
BBX 8 3 7 15
BITMAP
E7
E7
E7
ENDCHAR
STARTCHAR copyright
ENCODING 169
SWIDTH 853 0
DWIDTH 21 0
BBX 20 18 3 0
BITMAP
01F800
060600
180100
300080
60FC40
438660
C70420
860020
8E0020
8C0030
8C0020
CE0020
470860
61F040
300080
180100
060600
01F800
ENDCHAR
STARTCHAR ordfeminine
ENCODING 170
SWIDTH 468 0
DWIDTH 12 0
BBX 11 10 3 8
BITMAP
0FE0
19C0
31C0
71C0
63C0
E7C0
ED80
FB80
F3C0
63E0
ENDCHAR
STARTCHAR guillemotleft
ENCODING 171
SWIDTH 527 0
DWIDTH 13 0
BBX 13 11 2 1
BITMAP
0210
0738
1C70
3CE0
79C0
F780
7380
79C0
38C0
18E0
0C40
ENDCHAR
STARTCHAR logicalnot
ENCODING 172
SWIDTH 636 0
DWIDTH 16 0
BBX 15 6 2 4
BITMAP
FFFE
0006
0006
000C
000C
000C
ENDCHAR
STARTCHAR hyphen
ENCODING 173
SWIDTH 289 0
DWIDTH 7 0
BBX 6 1 2 8
BITMAP
FC
ENDCHAR
STARTCHAR registered
ENCODING 174
SWIDTH 636 0
DWIDTH 16 0
BBX 11 12 5 6
BITMAP
1F00
2080
4040
CFA0
89A0
8920
8E20
9A20
DB20
4040
2080
1F00
ENDCHAR
STARTCHAR macron
ENCODING 175
SWIDTH 599 0
DWIDTH 15 0
BBX 8 1 7 17
BITMAP
FF
ENDCHAR
STARTCHAR degree
ENCODING 176
SWIDTH 259 0
DWIDTH 6 0
BBX 4 4 5 14
BITMAP
60
90
90
60
ENDCHAR
STARTCHAR plusminus
ENCODING 177
SWIDTH 636 0
DWIDTH 16 0
BBX 16 15 1 0
BITMAP
0060
0040
00C0
00C0
00C0
3FFF
0080
0180
0180
0180
0180
0180
0000
0000
FFFC
ENDCHAR
STARTCHAR twosuperior
ENCODING 178
SWIDTH 381 0
DWIDTH 10 0
BBX 9 11 -14 7
BITMAP
1F00
3380
2180
0180
0300
0600
1800
2000
4000
FF00
FE00
ENDCHAR
STARTCHAR threesuperior
ENCODING 179
SWIDTH 381 0
DWIDTH 10 0
BBX 8 11 -15 7
BITMAP
3E
23
23
03
06
3C
06
07
86
8E
FC
ENDCHAR
STARTCHAR acute
ENCODING 180
SWIDTH 599 0
DWIDTH 15 0
BBX 7 4 9 14
BITMAP
1E
38
70
C0
ENDCHAR
STARTCHAR mu
ENCODING 181
SWIDTH 687 0
DWIDTH 17 0
BBX 15 17 2 -4
BITMAP
7E7E
1C1E
1C1E
1C1C
3C1C
3C3C
383C
387C
38F8
79B8
7F78
7F78
7C7E
7000
F000
F000
F000
ENDCHAR
STARTCHAR paragraph
ENCODING 182
SWIDTH 636 0
DWIDTH 16 0
BBX 11 22 4 -4
BITMAP
3FE0
7E60
FC40
FC40
FC40
FC40
FCC0
7C80
3880
0880
0880
0980
1900
1100
1100
1100
1300
3300
2200
2200
2200
2600
ENDCHAR
STARTCHAR periodcentered
ENCODING 183
SWIDTH 636 0
DWIDTH 16 0
BBX 4 3 7 6
BITMAP
70
F0
E0
ENDCHAR
STARTCHAR cedilla
ENCODING 184
SWIDTH 599 0
DWIDTH 15 0
BBX 5 5 4 -5
BITMAP
30
60
18
18
F0
ENDCHAR
STARTCHAR onesuperior
ENCODING 185
SWIDTH 381 0
DWIDTH 10 0
BBX 6 11 -15 7
BITMAP
3C
0C
1C
18
18
18
18
38
30
30
FC
ENDCHAR
STARTCHAR ordmasculine
ENCODING 186
SWIDTH 468 0
DWIDTH 12 0
BBX 11 10 3 8
BITMAP
07C0
18E0
30E0
70E0
60E0
E0E0
E1C0
E180
F300
3C00
ENDCHAR
STARTCHAR guillemotright
ENCODING 187
SWIDTH 527 0
DWIDTH 13 0
BBX 13 11 1 1
BITMAP
1180
38C0
18E0
1C70
0E70
0F78
1CF0
38E0
7180
E700
4200
ENDCHAR
STARTCHAR onequarter
ENCODING 188
SWIDTH 818 0
DWIDTH 20 0
BBX 20 18 4 0
BITMAP
3C0070
0C00C0
1C0180
180300
180600
180C00
181800
3830C0
3071C0
30E380
FCCD80
019980
033180
066180
0C7FC0
180300
300300
E00F80
ENDCHAR
STARTCHAR onehalf
ENCODING 189
SWIDTH 818 0
DWIDTH 20 0
BBX 20 18 4 0
BITMAP
3C0070
0C00C0
1C0180
180300
180600
180C00
181800
3837C0
307CE0
30E860
FCC060
0180C0
030180
060600
0C0800
181000
303FC0
E03F80
ENDCHAR
STARTCHAR threequarters
ENCODING 190
SWIDTH 818 0
DWIDTH 20 0
BBX 21 18 5 0
BITMAP
3E0038
230060
2300C0
030180
060300
3C0600
060C00
071860
8638E0
8E71C0
FC66C0
00CCC0
0198C0
0330C0
063FE0
0C0180
180180
7007C0
ENDCHAR
STARTCHAR questiondown
ENCODING 191
SWIDTH 493 0
DWIDTH 12 0
BBX 11 18 1 -5
BITMAP
01E0
01E0
01E0
0000
0000
03C0
0380
0380
0700
0C00
1800
3000
7000
F000
F060
F040
78C0
3F80
ENDCHAR
STARTCHAR Agrave
ENCODING 192
SWIDTH 765 0
DWIDTH 19 0
BBX 19 23 0 0
BITMAP
003800
001C00
000C00
000600
000000
000C00
001C00
001C00
003E00
007E00
005E00
00CE00
018E00
010F00
030F00
020F00
060700
0FFF80
080780
180780
100380
3003C0
F80FE0
ENDCHAR
STARTCHAR Aacute
ENCODING 193
SWIDTH 765 0
DWIDTH 19 0
BBX 19 23 0 0
BITMAP
0003C0
000700
000E00
001800
000000
000C00
001C00
001C00
003E00
007E00
005E00
00CE00
018E00
010F00
030F00
020F00
060700
0FFF80
080780
180780
100380
3003C0
F80FE0
ENDCHAR
STARTCHAR Acircumflex
ENCODING 194
SWIDTH 765 0
DWIDTH 19 0
BBX 19 23 0 0
BITMAP
000E00
001F00
003B00
006180
000000
000C00
001C00
001C00
003E00
007E00
005E00
00CE00
018E00
010F00
030F00
020F00
060700
0FFF80
080780
180780
100380
3003C0
F80FE0
ENDCHAR
STARTCHAR Atilde
ENCODING 195
SWIDTH 765 0
DWIDTH 19 0
BBX 19 22 0 0
BITMAP
001C40
003F80
004700
000000
000C00
001C00
001C00
003E00
007E00
005E00
00CE00
018E00
010F00
030F00
020F00
060700
0FFF80
080780
180780
100380
3003C0
F80FE0
ENDCHAR
STARTCHAR Adieresis
ENCODING 196
SWIDTH 765 0
DWIDTH 19 0
BBX 19 22 0 0
BITMAP
0039C0
0039C0
0039C0
000000
000C00
001C00
001C00
003E00
007E00
005E00
00CE00
018E00
010F00
030F00
020F00
060700
0FFF80
080780
180780
100380
3003C0
F80FE0
ENDCHAR
STARTCHAR Aring
ENCODING 197
SWIDTH 765 0
DWIDTH 19 0
BBX 19 23 0 0
BITMAP
000600
000900
000900
000600
000000
000C00
001C00
001C00
003E00
007E00
005E00
00CE00
018E00
010F00
030F00
020F00
060700
0FFF80
080780
180780
100380
3003C0
F80FE0
ENDCHAR
STARTCHAR AE
ENCODING 198
SWIDTH 958 0
DWIDTH 24 0
BBX 26 18 0 0
BITMAP
0003FFC0
0007C0C0
0007C080
000BC000
001BC000
00338000
00278000
00478600
00C7FE00
01878600
01070600
02070000
07FF0000
0C0F0000
180F0000
100E0300
301E0600
F87FFE00
ENDCHAR
STARTCHAR Ccedilla
ENCODING 199
SWIDTH 740 0
DWIDTH 18 0
BBX 17 23 3 -5
BITMAP
00FF00
038780
0E0180
1E0100
1C0300
380000
780000
780000
F00000
F00000
F00000
F00000
F00000
F00000
780000
780000
3E0C00
0FF000
060000
0C0000
030000
030000
1E0000
ENDCHAR
STARTCHAR Egrave
ENCODING 200
SWIDTH 630 0
DWIDTH 16 0
BBX 17 23 1 0
BITMAP
00E000
007000
003000
001800
000000
1FFF80
078180
078100
078000
078000
0F0000
0F0000
0F0C00
0FF800
0E0800
1E0000
1E0000
1E0000
1E0000
1C0000
3C0600
3C0C00
FFFC00
ENDCHAR
STARTCHAR Eacute
ENCODING 201
SWIDTH 630 0
DWIDTH 16 0
BBX 17 23 1 0
BITMAP
000F00
001C00
003800
006000
000000
1FFF80
078180
078100
078000
078000
0F0000
0F0000
0F0C00
0FF800
0E0800
1E0000
1E0000
1E0000
1E0000
1C0000
3C0600
3C0C00
FFFC00
ENDCHAR
STARTCHAR Ecircumflex
ENCODING 202
SWIDTH 630 0
DWIDTH 16 0
BBX 17 23 1 0
BITMAP
003800
007C00
00EC00
018600
000000
1FFF80
078180
078100
078000
078000
0F0000
0F0000
0F0C00
0FF800
0E0800
1E0000
1E0000
1E0000
1E0000
1C0000
3C0600
3C0C00
FFFC00
ENDCHAR
STARTCHAR Edieresis
ENCODING 203
SWIDTH 630 0
DWIDTH 16 0
BBX 17 22 1 0
BITMAP
01CE00
01CE00
01CE00
000000
1FFF80
078180
078100
078000
078000
0F0000
0F0000
0F0C00
0FF800
0E0800
1E0000
1E0000
1E0000
1E0000
1C0000
3C0600
3C0C00
FFFC00
ENDCHAR
STARTCHAR Igrave
ENCODING 204
SWIDTH 372 0
DWIDTH 9 0
BBX 11 23 1 0
BITMAP
0700
0380
0180
00C0
0000
1FE0
0780
0780
0700
0F00
0F00
0F00
0F00
0E00
0E00
1E00
1E00
1E00
1C00
1C00
3C00
3C00
FF00
ENDCHAR
STARTCHAR Iacute
ENCODING 205
SWIDTH 372 0
DWIDTH 9 0
BBX 12 23 1 0
BITMAP
00F0
01C0
0380
0600
0000
1FE0
0780
0780
0700
0F00
0F00
0F00
0F00
0E00
0E00
1E00
1E00
1E00
1C00
1C00
3C00
3C00
FF00
ENDCHAR
STARTCHAR Icircumflex
ENCODING 206
SWIDTH 372 0
DWIDTH 9 0
BBX 11 23 1 0
BITMAP
0380
07C0
0EC0
1860
0000
1FE0
0780
0780
0700
0F00
0F00
0F00
0F00
0E00
0E00
1E00
1E00
1E00
1C00
1C00
3C00
3C00
FF00
ENDCHAR
STARTCHAR Idieresis
ENCODING 207
SWIDTH 372 0
DWIDTH 9 0
BBX 12 22 1 0
BITMAP
0E70
0E70
0E70
0000
1FE0
0780
0780
0700
0F00
0F00
0F00
0F00
0E00
0E00
1E00
1E00
1E00
1C00
1C00
3C00
3C00
FF00
ENDCHAR
STARTCHAR Eth
ENCODING 208
SWIDTH 822 0
DWIDTH 21 0
BBX 20 18 1 0
BITMAP
1FFF00
0787C0
0781E0
0700E0
0F00F0
0F00F0
0F00F0
0F00F0
7FF0F0
1E00F0
1E00E0
1E01E0
1E01C0
1E03C0
1C0380
3C0700
3C1E00
FFF800
ENDCHAR
STARTCHAR Ntilde
ENCODING 209
SWIDTH 797 0
DWIDTH 20 0
BBX 22 22 1 0
BITMAP
001C40
003F80
004700
000000
1F80FC
078030
07C030
07C060
07E060
0DE060
0CF060
0CF060
0C78C0
0C78C0
183CC0
181CC0
181E80
180F80
180F80
300780
300780
FC0300
ENDCHAR
STARTCHAR Ograve
ENCODING 210
SWIDTH 831 0
DWIDTH 21 0
BBX 19 23 3 0
BITMAP
007000
003800
001800
000C00
000000
00FE00
038780
0703C0
1E01C0
1C01E0
3801E0
7801E0
7801E0
F001E0
F001E0
F003C0
F003C0
F00380
F00700
700E00
781C00
3C3800
0FC000
ENDCHAR
STARTCHAR Oacute
ENCODING 211
SWIDTH 831 0
DWIDTH 21 0
BBX 19 23 3 0
BITMAP
000F00
001C00
003800
006000
000000
00FE00
038780
0703C0
1E01C0
1C01E0
3801E0
7801E0
7801E0
F001E0
F001E0
F003C0
F003C0
F00380
F00700
700E00
781C00
3C3800
0FC000
ENDCHAR
STARTCHAR Ocircumflex
ENCODING 212
SWIDTH 831 0
DWIDTH 21 0
BBX 19 23 3 0
BITMAP
003800
007C00
00EC00
018600
000000
00FE00
038780
0703C0
1E01C0
1C01E0
3801E0
7801E0
7801E0
F001E0
F001E0
F003C0
F003C0
F00380
F00700
700E00
781C00
3C3800
0FC000
ENDCHAR
STARTCHAR Otilde
ENCODING 213
SWIDTH 831 0
DWIDTH 21 0
BBX 19 22 3 0
BITMAP
007100
00FE00
011C00
000000
00FE00
038780
0703C0
1E01C0
1C01E0
3801E0
7801E0
7801E0
F001E0
F001E0
F003C0
F003C0
F00380
F00700
700E00
781C00
3C3800
0FC000
ENDCHAR
STARTCHAR Odieresis
ENCODING 214
SWIDTH 831 0
DWIDTH 21 0
BBX 19 22 3 0
BITMAP
00E700
00E700
00E700
000000
00FE00
038780
0703C0
1E01C0
1C01E0
3801E0
7801E0
7801E0
F001E0
F001E0
F003C0
F003C0
F00380
F00700
700E00
781C00
3C3800
0FC000
ENDCHAR
STARTCHAR multiply
ENCODING 215
SWIDTH 636 0
DWIDTH 16 0
BBX 17 15 1 0
BITMAP
300100
180380
1C0700
0E0C00
061800
033000
03E000
01C000
03E000
066000
0C3000
183800
701C00
E00C00
400600
ENDCHAR
STARTCHAR Oslash
ENCODING 216
SWIDTH 831 0
DWIDTH 21 0
BBX 22 18 1 0
BITMAP
003F8C
00C1F0
0380E0
0700F0
0E01F0
1E0378
1C0678
3C0C78
3C10F0
3C20F0
3C40F0
3C80E0
3D01E0
3E01C0
3C0380
1C0700
3E0C00
E7F000
ENDCHAR
STARTCHAR Ugrave
ENCODING 217
SWIDTH 775 0
DWIDTH 19 0
BBX 19 23 4 0
BITMAP
01C000
00E000
006000
003000
000000
FF07E0
3C0380
3C0300
380300
380200
780200
780200
780200
700600
F00400
F00400
F00400
F00400
F00800
F00800
701000
382000
1FC000
ENDCHAR
STARTCHAR Uacute
ENCODING 218
SWIDTH 775 0
DWIDTH 19 0
BBX 19 23 4 0
BITMAP
001E00
003800
007000
00C000
000000
FF07E0
3C0380
3C0300
380300
380200
780200
780200
780200
700600
F00400
F00400
F00400
F00400
F00800
F00800
701000
382000
1FC000
ENDCHAR
STARTCHAR Ucircumflex
ENCODING 219
SWIDTH 775 0
DWIDTH 19 0
BBX 19 23 4 0
BITMAP
007000
00F800
01D800
030C00
000000
FF07E0
3C0380
3C0300
380300
380200
780200
780200
780200
700600
F00400
F00400
F00400
F00400
F00800
F00800
701000
382000
1FC000
ENDCHAR
STARTCHAR Udieresis
ENCODING 220
SWIDTH 775 0
DWIDTH 19 0
BBX 19 22 4 0
BITMAP
039C00
039C00
039C00
000000
FF07E0
3C0380
3C0300
380300
380200
780200
780200
780200
700600
F00400
F00400
F00400
F00400
F00800
F00800
701000
382000
1FC000
ENDCHAR
STARTCHAR Yacute
ENCODING 221
SWIDTH 669 0
DWIDTH 17 0
BBX 17 23 3 0
BITMAP
003C00
007000
00E000
018000
000000
FE0F80
7C0600
3C0400
3C0C00
1C1800
1E3000
1E2000
0F6000
0FC000
078000
070000
0F0000
0F0000
0F0000
0F0000
0E0000
1E0000
7F8000
ENDCHAR
STARTCHAR Thorn
ENCODING 222
SWIDTH 628 0
DWIDTH 16 0
BBX 16 18 1 0
BITMAP
1FE0
0780
0780
0700
07FC
0F1E
0F0F
0F0F
0E0F
0E0F
1E0E
1E1C
1E38
1FE0
1C00
3C00
3C00
FF00
ENDCHAR
STARTCHAR germandbls
ENCODING 223
SWIDTH 656 0
DWIDTH 16 0
BBX 15 25 1 -5
BITMAP
01F8
039C
071C
071C
0F1C
0E18
0E30
1E60
1E40
1EE0
1CF0
1CF8
3C7C
3C3C
3C1E
380E
380E
798E
799C
79F8
7000
7000
F000
F000
F000
ENDCHAR
STARTCHAR agrave
ENCODING 224
SWIDTH 634 0
DWIDTH 16 0
BBX 15 18 2 0
BITMAP
01C0
00E0
0060
0030
0000
01FE
063E
0C1C
181C
383C
703C
707C
F0B8
F1F8
F378
FE78
FC78
787C
ENDCHAR
STARTCHAR aacute
ENCODING 225
SWIDTH 634 0
DWIDTH 16 0
BBX 15 18 2 0
BITMAP
001E
0038
0070
00C0
0000
01FE
063E
0C1C
181C
383C
703C
707C
F0B8
F1F8
F378
FE78
FC78
787C
ENDCHAR
STARTCHAR acircumflex
ENCODING 226
SWIDTH 634 0
DWIDTH 16 0
BBX 15 18 2 0
BITMAP
0070
00F8
01D8
030C
0000
01FE
063E
0C1C
181C
383C
703C
707C
F0B8
F1F8
F378
FE78
FC78
787C
ENDCHAR
STARTCHAR atilde
ENCODING 227
SWIDTH 634 0
DWIDTH 16 0
BBX 15 17 2 0
BITMAP
00E2
01FC
0238
0000
01FE
063E
0C1C
181C
383C
703C
707C
F0B8
F1F8
F378
FE78
FC78
787C
ENDCHAR
STARTCHAR adieresis
ENCODING 228
SWIDTH 634 0
DWIDTH 16 0
BBX 15 17 2 0
BITMAP
039C
039C
039C
0000
01FE
063E
0C1C
181C
383C
703C
707C
F0B8
F1F8
F378
FE78
FC78
787C
ENDCHAR
STARTCHAR aring
ENCODING 229
SWIDTH 634 0
DWIDTH 16 0
BBX 15 18 2 0
BITMAP
0030
0048
0048
0030
0000
01FE
063E
0C1C
181C
383C
703C
707C
F0B8
F1F8
F378
FE78
FC78
787C
ENDCHAR
STARTCHAR ae
ENCODING 230
SWIDTH 905 0
DWIDTH 23 0
BBX 21 13 2 0
BITMAP
03FDF0
043E78
1C3C38
183C38
383878
703870
7079E0
F0FF80
F1F800
F37800
FE3808
FC3C38
780FC0
ENDCHAR
STARTCHAR ccedilla
ENCODING 231
SWIDTH 524 0
DWIDTH 13 0
BBX 13 18 2 -5
BITMAP
03F0
0E38
1C30
3830
7800
7000
F000
F000
F000
F000
F000
7820
3FC0
1800
3000
0C00
0C00
7800
ENDCHAR
STARTCHAR egrave
ENCODING 232
SWIDTH 548 0
DWIDTH 14 0
BBX 12 18 2 0
BITMAP
0380
01C0
00C0
0060
0000
03E0
0CF0
1870
3870
7070
70E0
F3C0
FF00
F000
F000
F010
7870
3F80
ENDCHAR
STARTCHAR eacute
ENCODING 233
SWIDTH 548 0
DWIDTH 14 0
BBX 13 18 2 0
BITMAP
0078
00E0
01C0
0300
0000
03E0
0CF0
1870
3870
7070
70E0
F3C0
FF00
F000
F000
F010
7870
3F80
ENDCHAR
STARTCHAR ecircumflex
ENCODING 234
SWIDTH 548 0
DWIDTH 14 0
BBX 13 18 2 0
BITMAP
00E0
01F0
03B0
0618
0000
03E0
0CF0
1870
3870
7070
70E0
F3C0
FF00
F000
F000
F010
7870
3F80
ENDCHAR
STARTCHAR edieresis
ENCODING 235
SWIDTH 548 0
DWIDTH 14 0
BBX 13 17 2 0
BITMAP
0738
0738
0738
0000
03E0
0CF0
1870
3870
7070
70E0
F3C0
FF00
F000
F000
F010
7870
3F80
ENDCHAR
STARTCHAR igrave
ENCODING 236
SWIDTH 319 0
DWIDTH 8 0
BBX 7 18 2 0
BITMAP
38
1C
0C
06
00
FC
3C
3C
38
38
78
78
78
70
70
F0
F0
FC
ENDCHAR
STARTCHAR iacute
ENCODING 237
SWIDTH 319 0
DWIDTH 8 0
BBX 10 18 2 0
BITMAP
03C0
0700
0E00
1800
0000
FC00
3C00
3C00
3800
3800
7800
7800
7800
7000
7000
F000
F000
FC00
ENDCHAR
STARTCHAR icircumflex
ENCODING 238
SWIDTH 319 0
DWIDTH 8 0
BBX 9 18 2 0
BITMAP
0E00
1F00
3B00
6180
0000
FC00
3C00
3C00
3800
3800
7800
7800
7800
7000
7000
F000
F000
FC00
ENDCHAR
STARTCHAR idieresis
ENCODING 239
SWIDTH 319 0
DWIDTH 8 0
BBX 9 17 2 0
BITMAP
7380
7380
7380
0000
FC00
3C00
3C00
3800
3800
7800
7800
7800
7000
7000
F000
F000
FC00
ENDCHAR
STARTCHAR eth
ENCODING 240
SWIDTH 617 0
DWIDTH 15 0
BBX 14 20 2 0
BITMAP
0010
0038
1FC0
03E0
01F0
0678
0078
03F8
0C7C
183C
383C
703C
7038
F038
F038
F070
F070
F060
7880
3F00
ENDCHAR
STARTCHAR ntilde
ENCODING 241
SWIDTH 656 0
DWIDTH 16 0
BBX 14 17 2 0
BITMAP
01C4
03F8
0470
0000
FC38
3CFC
3CFC
393C
3A3C
3C38
7C38
7878
7878
7078
7070
F070
F0FC
ENDCHAR
STARTCHAR ograve
ENCODING 242
SWIDTH 599 0
DWIDTH 15 0
BBX 14 18 2 0
BITMAP
0380
01C0
00C0
0060
0000
03E0
0E38
1C38
383C
783C
703C
F03C
F038
F078
F070
F0E0
79C0
3F00
ENDCHAR
STARTCHAR oacute
ENCODING 243
SWIDTH 599 0
DWIDTH 15 0
BBX 14 18 2 0
BITMAP
003C
0070
00E0
0180
0000
03E0
0E38
1C38
383C
783C
703C
F03C
F038
F078
F070
F0E0
79C0
3F00
ENDCHAR
STARTCHAR ocircumflex
ENCODING 244
SWIDTH 599 0
DWIDTH 15 0
BBX 14 18 2 0
BITMAP
00E0
01F0
03B0
0618
0000
03E0
0E38
1C38
383C
783C
703C
F03C
F038
F078
F070
F0E0
79C0
3F00
ENDCHAR
STARTCHAR otilde
ENCODING 245
SWIDTH 599 0
DWIDTH 15 0
BBX 14 17 2 0
BITMAP
01C4
03F8
0470
0000
03E0
0E38
1C38
383C
783C
703C
F03C
F038
F078
F070
F0E0
79C0
3F00
ENDCHAR
STARTCHAR odieresis
ENCODING 246
SWIDTH 599 0
DWIDTH 15 0
BBX 14 17 2 0
BITMAP
0738
0738
0738
0000
03E0
0E38
1C38
383C
783C
703C
F03C
F038
F078
F070
F0E0
79C0
3F00
ENDCHAR
STARTCHAR divide
ENCODING 247
SWIDTH 636 0
DWIDTH 16 0
BBX 15 13 2 0
BITMAP
01C0
01C0
01C0
0000
0000
0000
FFFE
0000
0000
0000
0700
0700
0700
ENDCHAR
STARTCHAR oslash
ENCODING 248
SWIDTH 599 0
DWIDTH 15 0
BBX 16 13 1 0
BITMAP
01FB
073E
0E1E
1C3E
3C7E
38DE
799E
7B1C
7E1C
7C38
7870
3CE0
DF80
ENDCHAR
STARTCHAR ugrave
ENCODING 249
SWIDTH 655 0
DWIDTH 16 0
BBX 14 18 3 0
BITMAP
0380
01C0
00C0
0060
0000
FCFC
383C
3838
7838
7878
7878
70F8
70F0
F170
F370
FEF0
FCF0
70FC
ENDCHAR
STARTCHAR uacute
ENCODING 250
SWIDTH 655 0
DWIDTH 16 0
BBX 14 18 3 0
BITMAP
003C
0070
00E0
0180
0000
FCFC
383C
3838
7838
7878
7878
70F8
70F0
F170
F370
FEF0
FCF0
70FC
ENDCHAR
STARTCHAR ucircumflex
ENCODING 251
SWIDTH 655 0
DWIDTH 16 0
BBX 14 18 3 0
BITMAP
00E0
01F0
03B0
0618
0000
FCFC
383C
3838
7838
7878
7878
70F8
70F0
F170
F370
FEF0
FCF0
70FC
ENDCHAR
STARTCHAR udieresis
ENCODING 252
SWIDTH 655 0
DWIDTH 16 0
BBX 14 17 3 0
BITMAP
0738
0738
0738
0000
FCFC
383C
3838
7838
7878
7878
70F8
70F0
F170
F370
FEF0
FCF0
70FC
ENDCHAR
STARTCHAR yacute
ENCODING 253
SWIDTH 586 0
DWIDTH 15 0
BBX 17 23 0 -5
BITMAP
000F00
001C00
003800
006000
000000
3F0780
0F0380
0F0380
078300
078600
078600
038C00
039800
03B000
03E000
03C000
01C000
018000
030000
060000
0C0000
180000
F80000
ENDCHAR
STARTCHAR thorn
ENCODING 254
SWIDTH 639 0
DWIDTH 16 0
BBX 16 22 1 -5
BITMAP
3F00
1F00
0F00
0E00
0E1E
1E3F
1E7F
1ECF
1D8F
1D0F
3E0E
3C0E
3C1C
3818
3830
7C60
7F80
7800
7000
7000
F000
F000
ENDCHAR
STARTCHAR ydieresis
ENCODING 255
SWIDTH 586 0
DWIDTH 15 0
BBX 17 22 0 -5
BITMAP
00E700
00E700
00E700
000000
3F0780
0F0380
0F0380
078300
078600
078600
038C00
039800
03B000
03E000
03C000
01C000
018000
030000
060000
0C0000
180000
F80000
ENDCHAR
ENDFONT
