STARTFONT 2.1
COMMENT AUTOMATICALLY GENERATED FILE. DO NOT EDIT!
COMMENT Generated with 'ucs2any.pl lubBI08.bdf ../../../fonts/util/map-ISO8859-1 ISO8859-1'
COMMENT from an ISO10646-1 encoded source BDF font.
COMMENT ucs2any.pl by Markus Kuhn <mkuhn@acm.org>, 2000.
COMMENT $Xorg: $
COMMENT ISO10646-1 extension by Markus Kuhn <mkuhn@acm.org>, 2001-03-20
COMMENT  (c) Copyright Bigelow & Holmes 1986, 1985. Lucida is a registered
COMMENT  trademark of Bigelow & Holmes. See LEGAL NOTICE file for terms 
COMMENT  of the license. 
FONT -B&H-LucidaBright-DemiBold-I-Normal--11-80-100-100-P-66-ISO8859-1
SIZE 8 100 100
FONTBOUNDINGBOX 18 13 -6 -2
STARTPROPERTIES 22
COMMENT Begin LogicalFontDescription
FONTNAME_REGISTRY ""
FOUNDRY "B&H"
FAMILY_NAME "LucidaBright"
WEIGHT_NAME "DemiBold"
SLANT "I"
SETWIDTH_NAME "Normal"
ADD_STYLE_NAME ""
PIXEL_SIZE 11
POINT_SIZE 80
RESOLUTION_X 100
RESOLUTION_Y 100
SPACING "P"
AVERAGE_WIDTH 66
CHARSET_REGISTRY "ISO8859"
CHARSET_ENCODING "1"
COMMENT END LogicalFontDescription
FONT_ASCENT 10
FONT_DESCENT 3
DEFAULT_CHAR 0
COPYRIGHT "Copyright Bigelow & Holmes 1986, 1985."
FACE_NAME "Lucida Bright Demibold Italic"
X_HEIGHT 6
CAP_HEIGHT 9
ENDPROPERTIES
CHARS 192
STARTCHAR defaultchar
ENCODING 0
SWIDTH 827 0
DWIDTH 9 0
BBX 9 9 0 0
BITMAP
AA80
0000
8080
0000
8080
0000
8080
0000
AA80
ENDCHAR
STARTCHAR space
ENCODING 32
SWIDTH 333 0
DWIDTH 4 0
BBX 1 1 0 0
BITMAP
00
ENDCHAR
STARTCHAR exclam
ENCODING 33
SWIDTH 265 0
DWIDTH 3 0
BBX 3 9 1 0
BITMAP
60
60
60
40
40
40
00
00
C0
ENDCHAR
STARTCHAR quotedbl
ENCODING 34
SWIDTH 451 0
DWIDTH 5 0
BBX 4 4 2 5
BITMAP
F0
90
90
90
ENDCHAR
STARTCHAR numbersign
ENCODING 35
SWIDTH 636 0
DWIDTH 7 0
BBX 7 9 1 0
BITMAP
1A
14
7E
28
28
FC
50
90
A0
ENDCHAR
STARTCHAR dollar
ENCODING 36
SWIDTH 636 0
DWIDTH 7 0
BBX 6 10 1 -1
BITMAP
3C
74
70
30
10
38
28
B8
F0
40
ENDCHAR
STARTCHAR percent
ENCODING 37
SWIDTH 772 0
DWIDTH 8 0
BBX 7 9 2 0
BITMAP
62
F4
A8
68
1C
2A
2A
4E
8C
ENDCHAR
STARTCHAR ampersand
ENCODING 38
SWIDTH 773 0
DWIDTH 8 0
BBX 9 9 0 0
BITMAP
0E00
1200
1200
1C00
7B80
C900
CD00
C600
7F00
ENDCHAR
STARTCHAR quotesingle
ENCODING 39
SWIDTH 247 0
DWIDTH 3 0
BBX 2 4 2 5
BITMAP
C0
C0
80
80
ENDCHAR
STARTCHAR parenleft
ENCODING 40
SWIDTH 336 0
DWIDTH 4 0
BBX 4 11 1 -2
BITMAP
10
20
60
40
C0
C0
C0
C0
80
40
40
ENDCHAR
STARTCHAR parenright
ENCODING 41
SWIDTH 336 0
DWIDTH 4 0
BBX 4 11 0 -2
BITMAP
20
20
10
30
30
30
30
20
60
40
80
ENDCHAR
STARTCHAR asterisk
ENCODING 42
SWIDTH 434 0
DWIDTH 5 0
BBX 4 4 2 5
BITMAP
20
F0
60
A0
ENDCHAR
STARTCHAR plus
ENCODING 43
SWIDTH 636 0
DWIDTH 7 0
BBX 7 8 1 0
BITMAP
08
10
10
10
FE
10
10
20
ENDCHAR
STARTCHAR comma
ENCODING 44
SWIDTH 265 0
DWIDTH 3 0
BBX 2 4 0 -2
BITMAP
C0
C0
40
80
ENDCHAR
STARTCHAR hyphen
ENCODING 45
SWIDTH 289 0
DWIDTH 3 0
BBX 3 1 1 3
BITMAP
E0
ENDCHAR
STARTCHAR period
ENCODING 46
SWIDTH 265 0
DWIDTH 3 0
BBX 2 2 1 0
BITMAP
C0
C0
ENDCHAR
STARTCHAR slash
ENCODING 47
SWIDTH 515 0
DWIDTH 6 0
BBX 7 11 0 -2
BITMAP
02
04
04
08
18
10
30
20
40
40
80
ENDCHAR
STARTCHAR zero
ENCODING 48
SWIDTH 623 0
DWIDTH 7 0
BBX 6 9 1 0
BITMAP
18
64
44
C4
C4
CC
CC
D8
70
ENDCHAR
STARTCHAR one
ENCODING 49
SWIDTH 636 0
DWIDTH 7 0
BBX 5 9 1 0
BITMAP
38
18
18
10
30
30
30
30
F8
ENDCHAR
STARTCHAR two
ENCODING 50
SWIDTH 636 0
DWIDTH 7 0
BBX 7 9 1 0
BITMAP
3C
66
06
06
0C
30
60
40
FC
ENDCHAR
STARTCHAR three
ENCODING 51
SWIDTH 636 0
DWIDTH 7 0
BBX 6 9 1 0
BITMAP
38
4C
04
08
78
08
0C
98
F0
ENDCHAR
STARTCHAR four
ENCODING 52
SWIDTH 636 0
DWIDTH 7 0
BBX 6 9 1 0
BITMAP
0C
1C
38
68
C8
FC
18
18
38
ENDCHAR
STARTCHAR five
ENCODING 53
SWIDTH 636 0
DWIDTH 7 0
BBX 6 9 1 0
BITMAP
3C
40
40
70
18
08
0C
98
F0
ENDCHAR
STARTCHAR six
ENCODING 54
SWIDTH 636 0
DWIDTH 7 0
BBX 6 9 1 0
BITMAP
1C
24
40
F8
CC
CC
CC
C8
70
ENDCHAR
STARTCHAR seven
ENCODING 55
SWIDTH 636 0
DWIDTH 7 0
BBX 6 9 2 0
BITMAP
FC
08
08
10
20
20
40
C0
C0
ENDCHAR
STARTCHAR eight
ENCODING 56
SWIDTH 636 0
DWIDTH 7 0
BBX 7 9 1 0
BITMAP
3C
64
66
38
38
CC
C4
CC
70
ENDCHAR
STARTCHAR nine
ENCODING 57
SWIDTH 636 0
DWIDTH 7 0
BBX 6 9 1 0
BITMAP
38
64
44
44
4C
7C
0C
98
F0
ENDCHAR
STARTCHAR colon
ENCODING 58
SWIDTH 265 0
DWIDTH 3 0
BBX 3 6 0 0
BITMAP
60
60
00
00
C0
C0
ENDCHAR
STARTCHAR semicolon
ENCODING 59
SWIDTH 265 0
DWIDTH 3 0
BBX 3 8 0 -2
BITMAP
60
60
00
00
40
C0
40
80
ENDCHAR
STARTCHAR less
ENCODING 60
SWIDTH 636 0
DWIDTH 7 0
BBX 7 8 1 0
BITMAP
02
0C
10
E0
40
30
08
04
ENDCHAR
STARTCHAR equal
ENCODING 61
SWIDTH 636 0
DWIDTH 7 0
BBX 7 4 1 1
BITMAP
FE
00
00
FE
ENDCHAR
STARTCHAR greater
ENCODING 62
SWIDTH 636 0
DWIDTH 7 0
BBX 7 8 0 0
BITMAP
40
20
18
04
0E
10
60
80
ENDCHAR
STARTCHAR question
ENCODING 63
SWIDTH 493 0
DWIDTH 5 0
BBX 5 9 1 0
BITMAP
F0
98
18
10
20
40
C0
00
C0
ENDCHAR
STARTCHAR at
ENCODING 64
SWIDTH 861 0
DWIDTH 9 0
BBX 8 9 2 0
BITMAP
1C
22
59
AD
AD
FD
BE
40
78
ENDCHAR
STARTCHAR A
ENCODING 65
SWIDTH 765 0
DWIDTH 8 0
BBX 8 9 0 0
BITMAP
04
0C
14
16
16
3E
42
42
C7
ENDCHAR
STARTCHAR B
ENCODING 66
SWIDTH 651 0
DWIDTH 7 0
BBX 7 9 0 0
BITMAP
7E
36
26
24
38
64
66
6C
FC
ENDCHAR
STARTCHAR C
ENCODING 67
SWIDTH 740 0
DWIDTH 8 0
BBX 8 9 1 0
BITMAP
1F
31
61
C0
C0
C0
C0
E0
7E
ENDCHAR
STARTCHAR D
ENCODING 68
SWIDTH 822 0
DWIDTH 9 0
BBX 9 9 0 0
BITMAP
7F00
3180
3180
3180
2180
6180
6300
6600
FC00
ENDCHAR
STARTCHAR E
ENCODING 69
SWIDTH 630 0
DWIDTH 7 0
BBX 7 9 1 0
BITMAP
7E
32
20
24
3C
68
60
64
FC
ENDCHAR
STARTCHAR F
ENCODING 70
SWIDTH 602 0
DWIDTH 7 0
BBX 7 9 1 0
BITMAP
7E
32
20
24
3C
68
60
60
E0
ENDCHAR
STARTCHAR G
ENCODING 71
SWIDTH 780 0
DWIDTH 9 0
BBX 8 9 1 0
BITMAP
1F
31
61
C0
C0
CF
C6
E6
7E
ENDCHAR
STARTCHAR H
ENCODING 72
SWIDTH 827 0
DWIDTH 9 0
BBX 10 9 0 0
BITMAP
7BC0
3180
3180
3180
3F00
6100
6300
6300
F700
ENDCHAR
STARTCHAR I
ENCODING 73
SWIDTH 372 0
DWIDTH 4 0
BBX 5 9 0 0
BITMAP
78
30
30
30
20
60
60
60
F0
ENDCHAR
STARTCHAR J
ENCODING 74
SWIDTH 478 0
DWIDTH 5 0
BBX 7 11 0 -2
BITMAP
1E
0C
0C
0C
08
18
18
18
18
B0
E0
ENDCHAR
STARTCHAR K
ENCODING 75
SWIDTH 746 0
DWIDTH 8 0
BBX 9 9 0 0
BITMAP
3980
3300
3200
3C00
3800
2C00
6600
6600
E700
ENDCHAR
STARTCHAR L
ENCODING 76
SWIDTH 611 0
DWIDTH 7 0
BBX 6 9 1 0
BITMAP
78
30
30
20
20
60
60
64
FC
ENDCHAR
STARTCHAR M
ENCODING 77
SWIDTH 926 0
DWIDTH 10 0
BBX 11 9 0 0
BITMAP
70E0
30C0
31C0
32C0
2A80
4A80
4D80
4180
E3C0
ENDCHAR
STARTCHAR N
ENCODING 78
SWIDTH 797 0
DWIDTH 9 0
BBX 10 9 0 0
BITMAP
31C0
3080
3880
2880
2D00
2500
4700
4300
E300
ENDCHAR
STARTCHAR O
ENCODING 79
SWIDTH 831 0
DWIDTH 9 0
BBX 8 9 1 0
BITMAP
1E
33
61
C1
C1
C3
C2
C6
78
ENDCHAR
STARTCHAR P
ENCODING 80
SWIDTH 628 0
DWIDTH 7 0
BBX 7 9 1 0
BITMAP
7C
36
26
24
38
60
60
60
E0
ENDCHAR
STARTCHAR Q
ENCODING 81
SWIDTH 835 0
DWIDTH 9 0
BBX 9 11 1 -2
BITMAP
1E00
3300
6100
C100
C100
C300
C200
C600
7800
0C00
0380
ENDCHAR
STARTCHAR R
ENCODING 82
SWIDTH 711 0
DWIDTH 8 0
BBX 7 9 1 0
BITMAP
7E
26
26
24
38
68
6C
6C
E6
ENDCHAR
STARTCHAR S
ENCODING 83
SWIDTH 587 0
DWIDTH 6 0
BBX 6 9 1 0
BITMAP
3C
64
60
60
30
18
08
98
F0
ENDCHAR
STARTCHAR T
ENCODING 84
SWIDTH 716 0
DWIDTH 8 0
BBX 8 9 1 0
BITMAP
FF
99
18
10
30
30
30
30
78
ENDCHAR
STARTCHAR U
ENCODING 85
SWIDTH 775 0
DWIDTH 9 0
BBX 8 9 2 0
BITMAP
F3
62
42
C2
C2
C4
C4
C4
78
ENDCHAR
STARTCHAR V
ENCODING 86
SWIDTH 741 0
DWIDTH 8 0
BBX 8 9 2 0
BITMAP
E3
42
62
64
64
68
38
30
30
ENDCHAR
STARTCHAR W
ENCODING 87
SWIDTH 922 0
DWIDTH 10 0
BBX 10 9 2 0
BITMAP
E4C0
4C80
4C80
4C80
5500
5500
6600
4400
4400
ENDCHAR
STARTCHAR X
ENCODING 88
SWIDTH 672 0
DWIDTH 7 0
BBX 9 9 0 0
BITMAP
3980
1100
1A00
1C00
0C00
1C00
2400
4600
CF00
ENDCHAR
STARTCHAR Y
ENCODING 89
SWIDTH 669 0
DWIDTH 7 0
BBX 8 9 1 0
BITMAP
E3
62
64
28
30
30
30
30
F0
ENDCHAR
STARTCHAR Z
ENCODING 90
SWIDTH 684 0
DWIDTH 8 0
BBX 8 9 0 0
BITMAP
3F
26
04
0C
18
30
60
62
FE
ENDCHAR
STARTCHAR bracketleft
ENCODING 91
SWIDTH 336 0
DWIDTH 4 0
BBX 4 11 1 -2
BITMAP
30
20
60
40
40
40
40
40
C0
80
C0
ENDCHAR
STARTCHAR backslash
ENCODING 92
SWIDTH 515 0
DWIDTH 6 0
BBX 3 11 2 -2
BITMAP
80
80
80
40
40
40
40
40
20
20
20
ENDCHAR
STARTCHAR bracketright
ENCODING 93
SWIDTH 336 0
DWIDTH 4 0
BBX 4 11 0 -2
BITMAP
30
10
30
20
20
20
20
20
60
40
C0
ENDCHAR
STARTCHAR asciicircum
ENCODING 94
SWIDTH 636 0
DWIDTH 7 0
BBX 6 8 1 1
BITMAP
08
18
18
28
28
48
44
84
ENDCHAR
STARTCHAR underscore
ENCODING 95
SWIDTH 500 0
DWIDTH 5 0
BBX 5 1 0 -1
BITMAP
F8
ENDCHAR
STARTCHAR grave
ENCODING 96
SWIDTH 599 0
DWIDTH 7 0
BBX 2 2 4 7
BITMAP
80
40
ENDCHAR
STARTCHAR a
ENCODING 97
SWIDTH 634 0
DWIDTH 7 0
BBX 6 6 1 0
BITMAP
3C
4C
CC
C8
F8
FC
ENDCHAR
STARTCHAR b
ENCODING 98
SWIDTH 633 0
DWIDTH 7 0
BBX 6 9 1 0
BITMAP
60
60
60
7C
6C
6C
C8
C8
F0
ENDCHAR
STARTCHAR c
ENCODING 99
SWIDTH 524 0
DWIDTH 6 0
BBX 6 6 1 0
BITMAP
3C
68
C0
C0
C0
78
ENDCHAR
STARTCHAR d
ENCODING 100
SWIDTH 634 0
DWIDTH 7 0
BBX 7 9 1 0
BITMAP
0E
06
06
3C
64
4C
CC
DC
EC
ENDCHAR
STARTCHAR e
ENCODING 101
SWIDTH 548 0
DWIDTH 6 0
BBX 5 6 1 0
BITMAP
38
48
D8
F0
C8
70
ENDCHAR
STARTCHAR f
ENCODING 102
SWIDTH 415 0
DWIDTH 5 0
BBX 6 11 1 -2
BITMAP
1C
34
20
78
60
60
60
40
40
C0
C0
ENDCHAR
STARTCHAR g
ENCODING 103
SWIDTH 628 0
DWIDTH 7 0
BBX 7 8 0 -2
BITMAP
1E
26
44
4C
DC
6C
88
F0
ENDCHAR
STARTCHAR h
ENCODING 104
SWIDTH 656 0
DWIDTH 7 0
BBX 6 9 1 0
BITMAP
60
60
60
6C
7C
6C
CC
C8
CC
ENDCHAR
STARTCHAR i
ENCODING 105
SWIDTH 319 0
DWIDTH 4 0
BBX 3 9 1 0
BITMAP
60
00
00
E0
40
40
C0
C0
C0
ENDCHAR
STARTCHAR j
ENCODING 106
SWIDTH 381 0
DWIDTH 4 0
BBX 6 11 0 -2
BITMAP
0C
00
00
18
08
18
18
18
10
B0
E0
ENDCHAR
STARTCHAR k
ENCODING 107
SWIDTH 626 0
DWIDTH 7 0
BBX 6 9 1 0
BITMAP
60
60
60
6C
58
70
D0
D8
CC
ENDCHAR
STARTCHAR l
ENCODING 108
SWIDTH 319 0
DWIDTH 4 0
BBX 3 9 1 0
BITMAP
60
60
60
40
40
40
C0
C0
C0
ENDCHAR
STARTCHAR m
ENCODING 109
SWIDTH 969 0
DWIDTH 11 0
BBX 10 6 1 0
BITMAP
EDC0
77C0
6EC0
CCC0
CC80
C9C0
ENDCHAR
STARTCHAR n
ENCODING 110
SWIDTH 656 0
DWIDTH 7 0
BBX 6 6 1 0
BITMAP
FC
7C
6C
CC
C8
CC
ENDCHAR
STARTCHAR o
ENCODING 111
SWIDTH 599 0
DWIDTH 7 0
BBX 6 6 1 0
BITMAP
38
6C
CC
CC
C8
70
ENDCHAR
STARTCHAR p
ENCODING 112
SWIDTH 639 0
DWIDTH 7 0
BBX 7 8 0 -2
BITMAP
6E
76
66
66
4C
78
C0
C0
ENDCHAR
STARTCHAR q
ENCODING 113
SWIDTH 630 0
DWIDTH 7 0
BBX 6 8 1 -2
BITMAP
3C
4C
CC
D8
D8
F8
18
18
ENDCHAR
STARTCHAR r
ENCODING 114
SWIDTH 496 0
DWIDTH 5 0
BBX 6 6 1 0
BITMAP
EC
78
60
60
C0
C0
ENDCHAR
STARTCHAR s
ENCODING 115
SWIDTH 479 0
DWIDTH 5 0
BBX 5 6 1 0
BITMAP
38
68
60
30
98
F0
ENDCHAR
STARTCHAR t
ENCODING 116
SWIDTH 375 0
DWIDTH 4 0
BBX 4 9 1 0
BITMAP
20
60
60
F0
40
40
C0
C0
E0
ENDCHAR
STARTCHAR u
ENCODING 117
SWIDTH 655 0
DWIDTH 7 0
BBX 6 6 1 0
BITMAP
CC
4C
CC
D8
F8
DC
ENDCHAR
STARTCHAR v
ENCODING 118
SWIDTH 584 0
DWIDTH 6 0
BBX 6 6 1 0
BITMAP
CC
44
68
70
20
20
ENDCHAR
STARTCHAR w
ENCODING 119
SWIDTH 822 0
DWIDTH 9 0
BBX 9 6 1 0
BITMAP
C980
4D80
7D00
7600
6600
2400
ENDCHAR
STARTCHAR x
ENCODING 120
SWIDTH 534 0
DWIDTH 6 0
BBX 6 6 0 0
BITMAP
6C
24
38
30
58
8C
ENDCHAR
STARTCHAR y
ENCODING 121
SWIDTH 586 0
DWIDTH 6 0
BBX 7 8 0 -2
BITMAP
66
22
34
38
10
10
20
C0
ENDCHAR
STARTCHAR z
ENCODING 122
SWIDTH 567 0
DWIDTH 6 0
BBX 6 6 1 0
BITMAP
7C
48
10
20
68
F8
ENDCHAR
STARTCHAR braceleft
ENCODING 123
SWIDTH 361 0
DWIDTH 4 0
BBX 4 11 1 -2
BITMAP
30
60
60
60
60
C0
40
40
C0
C0
C0
ENDCHAR
STARTCHAR bar
ENCODING 124
SWIDTH 253 0
DWIDTH 3 0
BBX 3 11 1 -2
BITMAP
20
20
20
40
40
40
40
40
80
80
80
ENDCHAR
STARTCHAR braceright
ENCODING 125
SWIDTH 361 0
DWIDTH 4 0
BBX 4 11 0 -2
BITMAP
30
30
30
20
20
30
60
60
60
60
C0
ENDCHAR
STARTCHAR asciitilde
ENCODING 126
SWIDTH 636 0
DWIDTH 7 0
BBX 7 3 1 2
BITMAP
62
92
8C
ENDCHAR
STARTCHAR space
ENCODING 160
SWIDTH 333 0
DWIDTH 4 0
BBX 1 1 0 0
BITMAP
00
ENDCHAR
STARTCHAR exclamdown
ENCODING 161
SWIDTH 265 0
DWIDTH 3 0
BBX 3 8 0 -2
BITMAP
60
00
40
40
40
40
C0
C0
ENDCHAR
STARTCHAR cent
ENCODING 162
SWIDTH 636 0
DWIDTH 7 0
BBX 6 9 1 0
BITMAP
08
3C
74
D0
D0
D0
D0
78
20
ENDCHAR
STARTCHAR sterling
ENCODING 163
SWIDTH 636 0
DWIDTH 7 0
BBX 7 9 1 0
BITMAP
1E
12
30
30
78
30
20
40
FC
ENDCHAR
STARTCHAR currency
ENCODING 164
SWIDTH 636 0
DWIDTH 7 0
BBX 8 9 0 0
BITMAP
41
39
26
24
24
24
24
7C
82
ENDCHAR
STARTCHAR yen
ENCODING 165
SWIDTH 636 0
DWIDTH 7 0
BBX 8 9 1 0
BITMAP
E3
66
38
78
30
F8
30
20
70
ENDCHAR
STARTCHAR brokenbar
ENCODING 166
SWIDTH 253 0
DWIDTH 3 0
BBX 3 11 1 -2
BITMAP
20
20
20
40
40
00
40
40
80
80
80
ENDCHAR
STARTCHAR section
ENCODING 167
SWIDTH 636 0
DWIDTH 7 0
BBX 6 11 1 -2
BITMAP
3C
64
60
30
58
48
68
38
18
98
F0
ENDCHAR
STARTCHAR dieresis
ENCODING 168
SWIDTH 599 0
DWIDTH 7 0
BBX 4 1 3 8
BITMAP
F0
ENDCHAR
STARTCHAR copyright
ENCODING 169
SWIDTH 853 0
DWIDTH 9 0
BBX 8 9 2 0
BITMAP
3C
42
9D
A5
A1
A1
B9
42
3C
ENDCHAR
STARTCHAR ordfeminine
ENCODING 170
SWIDTH 468 0
DWIDTH 5 0
BBX 5 6 1 3
BITMAP
38
58
D0
B0
F0
D8
ENDCHAR
STARTCHAR guillemotleft
ENCODING 171
SWIDTH 527 0
DWIDTH 6 0
BBX 6 6 1 0
BITMAP
24
28
58
D0
58
68
ENDCHAR
STARTCHAR logicalnot
ENCODING 172
SWIDTH 636 0
DWIDTH 7 0
BBX 7 4 1 1
BITMAP
FE
02
02
02
ENDCHAR
STARTCHAR hyphen
ENCODING 173
SWIDTH 289 0
DWIDTH 3 0
BBX 3 1 1 3
BITMAP
E0
ENDCHAR
STARTCHAR registered
ENCODING 174
SWIDTH 636 0
DWIDTH 7 0
BBX 4 6 2 3
BITMAP
70
90
F0
F0
90
70
ENDCHAR
STARTCHAR macron
ENCODING 175
SWIDTH 599 0
DWIDTH 7 0
BBX 4 1 3 8
BITMAP
F0
ENDCHAR
STARTCHAR degree
ENCODING 176
SWIDTH 259 0
DWIDTH 3 0
BBX 2 3 2 6
BITMAP
C0
C0
C0
ENDCHAR
STARTCHAR plusminus
ENCODING 177
SWIDTH 636 0
DWIDTH 7 0
BBX 7 8 0 0
BITMAP
08
08
08
7E
10
10
00
FC
ENDCHAR
STARTCHAR twosuperior
ENCODING 178
SWIDTH 381 0
DWIDTH 4 0
BBX 4 5 -6 4
BITMAP
70
50
30
40
E0
ENDCHAR
STARTCHAR threesuperior
ENCODING 179
SWIDTH 381 0
DWIDTH 4 0
BBX 4 5 -6 4
BITMAP
70
60
60
A0
E0
ENDCHAR
STARTCHAR acute
ENCODING 180
SWIDTH 599 0
DWIDTH 7 0
BBX 3 2 4 7
BITMAP
60
80
ENDCHAR
STARTCHAR mu
ENCODING 181
SWIDTH 687 0
DWIDTH 8 0
BBX 7 8 1 -2
BITMAP
6E
66
66
6C
5C
6E
C0
C0
ENDCHAR
STARTCHAR paragraph
ENCODING 182
SWIDTH 636 0
DWIDTH 7 0
BBX 5 11 2 -2
BITMAP
78
E8
F0
F0
50
50
50
50
50
50
60
ENDCHAR
STARTCHAR periodcentered
ENCODING 183
SWIDTH 636 0
DWIDTH 7 0
BBX 2 1 3 3
BITMAP
C0
ENDCHAR
STARTCHAR cedilla
ENCODING 184
SWIDTH 599 0
DWIDTH 7 0
BBX 2 2 2 -2
BITMAP
C0
C0
ENDCHAR
STARTCHAR onesuperior
ENCODING 185
SWIDTH 381 0
DWIDTH 4 0
BBX 3 5 -6 4
BITMAP
60
20
40
40
E0
ENDCHAR
STARTCHAR ordmasculine
ENCODING 186
SWIDTH 468 0
DWIDTH 5 0
BBX 5 6 1 3
BITMAP
30
58
C8
98
D0
60
ENDCHAR
STARTCHAR guillemotright
ENCODING 187
SWIDTH 527 0
DWIDTH 6 0
BBX 6 6 0 0
BITMAP
58
68
2C
68
50
90
ENDCHAR
STARTCHAR onequarter
ENCODING 188
SWIDTH 818 0
DWIDTH 9 0
BBX 9 9 1 0
BITMAP
6180
2100
4200
4400
EB00
1500
2F00
4200
C700
ENDCHAR
STARTCHAR onehalf
ENCODING 189
SWIDTH 818 0
DWIDTH 9 0
BBX 9 9 1 0
BITMAP
6180
2100
4200
4400
EF00
1500
2300
4400
CE00
ENDCHAR
STARTCHAR threequarters
ENCODING 190
SWIDTH 818 0
DWIDTH 9 0
BBX 10 9 2 0
BITMAP
70C0
6080
6100
A200
E580
0A80
1780
2100
6380
ENDCHAR
STARTCHAR questiondown
ENCODING 191
SWIDTH 493 0
DWIDTH 5 0
BBX 5 8 0 -2
BITMAP
18
00
18
30
40
C0
C8
78
ENDCHAR
STARTCHAR Agrave
ENCODING 192
SWIDTH 765 0
DWIDTH 8 0
BBX 8 11 0 0
BITMAP
04
02
04
0C
14
16
16
3E
42
42
C7
ENDCHAR
STARTCHAR Aacute
ENCODING 193
SWIDTH 765 0
DWIDTH 8 0
BBX 8 11 0 0
BITMAP
03
04
04
0C
14
16
16
3E
42
42
C7
ENDCHAR
STARTCHAR Acircumflex
ENCODING 194
SWIDTH 765 0
DWIDTH 8 0
BBX 8 11 0 0
BITMAP
06
09
04
0C
14
16
16
3E
42
42
C7
ENDCHAR
STARTCHAR Atilde
ENCODING 195
SWIDTH 765 0
DWIDTH 8 0
BBX 8 10 0 0
BITMAP
0F
04
0C
14
16
16
3E
42
42
C7
ENDCHAR
STARTCHAR Adieresis
ENCODING 196
SWIDTH 765 0
DWIDTH 8 0
BBX 8 10 0 0
BITMAP
0F
04
0C
14
16
16
3E
42
42
C7
ENDCHAR
STARTCHAR Aring
ENCODING 197
SWIDTH 765 0
DWIDTH 8 0
BBX 8 11 0 0
BITMAP
06
06
04
0C
14
16
16
3E
42
42
C7
ENDCHAR
STARTCHAR AE
ENCODING 198
SWIDTH 958 0
DWIDTH 11 0
BBX 11 9 0 0
BITMAP
03E0
0720
0A40
13C0
1640
3E00
2600
4640
CFC0
ENDCHAR
STARTCHAR Ccedilla
ENCODING 199
SWIDTH 740 0
DWIDTH 8 0
BBX 8 11 1 -2
BITMAP
1F
31
61
C0
C0
C0
C0
E0
7E
30
30
ENDCHAR
STARTCHAR Egrave
ENCODING 200
SWIDTH 630 0
DWIDTH 7 0
BBX 7 11 1 0
BITMAP
10
08
7E
32
20
24
3C
68
60
64
FC
ENDCHAR
STARTCHAR Eacute
ENCODING 201
SWIDTH 630 0
DWIDTH 7 0
BBX 7 11 1 0
BITMAP
06
08
7E
32
20
24
3C
68
60
64
FC
ENDCHAR
STARTCHAR Ecircumflex
ENCODING 202
SWIDTH 630 0
DWIDTH 7 0
BBX 7 11 1 0
BITMAP
0C
12
7E
32
20
24
3C
68
60
64
FC
ENDCHAR
STARTCHAR Edieresis
ENCODING 203
SWIDTH 630 0
DWIDTH 7 0
BBX 7 10 1 0
BITMAP
12
7E
32
20
24
3C
68
60
64
FC
ENDCHAR
STARTCHAR Igrave
ENCODING 204
SWIDTH 372 0
DWIDTH 4 0
BBX 5 11 0 0
BITMAP
20
10
78
30
30
30
20
60
60
60
F0
ENDCHAR
STARTCHAR Iacute
ENCODING 205
SWIDTH 372 0
DWIDTH 4 0
BBX 5 11 0 0
BITMAP
18
20
78
30
30
30
20
60
60
60
F0
ENDCHAR
STARTCHAR Icircumflex
ENCODING 206
SWIDTH 372 0
DWIDTH 4 0
BBX 5 11 0 0
BITMAP
30
48
78
30
30
30
20
60
60
60
F0
ENDCHAR
STARTCHAR Idieresis
ENCODING 207
SWIDTH 372 0
DWIDTH 4 0
BBX 5 10 0 0
BITMAP
48
78
30
30
30
20
60
60
60
F0
ENDCHAR
STARTCHAR Eth
ENCODING 208
SWIDTH 822 0
DWIDTH 9 0
BBX 9 9 0 0
BITMAP
7F00
3180
3180
2180
F980
2180
6300
6600
FC00
ENDCHAR
STARTCHAR Ntilde
ENCODING 209
SWIDTH 797 0
DWIDTH 9 0
BBX 10 10 0 0
BITMAP
0F00
31C0
3080
3880
2880
2D00
2500
4700
4300
E300
ENDCHAR
STARTCHAR Ograve
ENCODING 210
SWIDTH 831 0
DWIDTH 9 0
BBX 8 11 1 0
BITMAP
08
04
1E
33
61
C1
C1
C3
C2
C6
78
ENDCHAR
STARTCHAR Oacute
ENCODING 211
SWIDTH 831 0
DWIDTH 9 0
BBX 8 11 1 0
BITMAP
06
08
1E
33
61
C1
C1
C3
C2
C6
78
ENDCHAR
STARTCHAR Ocircumflex
ENCODING 212
SWIDTH 831 0
DWIDTH 9 0
BBX 8 11 1 0
BITMAP
0C
12
1E
33
61
C1
C1
C3
C2
C6
78
ENDCHAR
STARTCHAR Otilde
ENCODING 213
SWIDTH 831 0
DWIDTH 9 0
BBX 8 10 1 0
BITMAP
1E
1E
33
61
C1
C1
C3
C2
C6
78
ENDCHAR
STARTCHAR Odieresis
ENCODING 214
SWIDTH 831 0
DWIDTH 9 0
BBX 8 10 1 0
BITMAP
12
1E
33
61
C1
C1
C3
C2
C6
78
ENDCHAR
STARTCHAR multiply
ENCODING 215
SWIDTH 636 0
DWIDTH 7 0
BBX 7 8 1 0
BITMAP
42
64
28
10
10
28
4C
84
ENDCHAR
STARTCHAR Oslash
ENCODING 216
SWIDTH 831 0
DWIDTH 9 0
BBX 10 9 1 0
BITMAP
0EC0
1180
2380
6780
6D80
5980
6300
6200
FC00
ENDCHAR
STARTCHAR Ugrave
ENCODING 217
SWIDTH 775 0
DWIDTH 9 0
BBX 8 11 2 0
BITMAP
10
08
F3
62
42
C2
C2
C4
C4
C4
78
ENDCHAR
STARTCHAR Uacute
ENCODING 218
SWIDTH 775 0
DWIDTH 9 0
BBX 8 11 2 0
BITMAP
0C
10
F3
62
42
C2
C2
C4
C4
C4
78
ENDCHAR
STARTCHAR Ucircumflex
ENCODING 219
SWIDTH 775 0
DWIDTH 9 0
BBX 8 11 2 0
BITMAP
18
24
F3
62
42
C2
C2
C4
C4
C4
78
ENDCHAR
STARTCHAR Udieresis
ENCODING 220
SWIDTH 775 0
DWIDTH 9 0
BBX 8 10 2 0
BITMAP
2C
F3
62
42
C2
C2
C4
C4
C4
78
ENDCHAR
STARTCHAR Yacute
ENCODING 221
SWIDTH 669 0
DWIDTH 7 0
BBX 8 11 1 0
BITMAP
0C
10
E3
62
64
28
30
30
30
30
F0
ENDCHAR
STARTCHAR Thorn
ENCODING 222
SWIDTH 628 0
DWIDTH 7 0
BBX 7 9 0 0
BITMAP
78
30
3E
26
26
66
78
60
E0
ENDCHAR
STARTCHAR germandbls
ENCODING 223
SWIDTH 656 0
DWIDTH 7 0
BBX 7 11 0 -2
BITMAP
1C
36
34
28
68
6C
66
52
5C
C0
C0
ENDCHAR
STARTCHAR agrave
ENCODING 224
SWIDTH 634 0
DWIDTH 7 0
BBX 6 8 1 0
BITMAP
10
08
3C
4C
CC
C8
F8
FC
ENDCHAR
STARTCHAR aacute
ENCODING 225
SWIDTH 634 0
DWIDTH 7 0
BBX 6 8 1 0
BITMAP
0C
10
3C
4C
CC
C8
F8
FC
ENDCHAR
STARTCHAR acircumflex
ENCODING 226
SWIDTH 634 0
DWIDTH 7 0
BBX 6 8 1 0
BITMAP
18
24
3C
4C
CC
C8
F8
FC
ENDCHAR
STARTCHAR atilde
ENCODING 227
SWIDTH 634 0
DWIDTH 7 0
BBX 6 7 1 0
BITMAP
3C
3C
4C
CC
C8
F8
FC
ENDCHAR
STARTCHAR adieresis
ENCODING 228
SWIDTH 634 0
DWIDTH 7 0
BBX 6 7 1 0
BITMAP
24
3C
4C
CC
C8
F8
FC
ENDCHAR
STARTCHAR aring
ENCODING 229
SWIDTH 634 0
DWIDTH 7 0
BBX 6 8 1 0
BITMAP
18
18
3C
4C
CC
C8
F8
FC
ENDCHAR
STARTCHAR ae
ENCODING 230
SWIDTH 905 0
DWIDTH 10 0
BBX 9 6 1 0
BITMAP
3F80
6C80
4D80
CF00
D880
E700
ENDCHAR
STARTCHAR ccedilla
ENCODING 231
SWIDTH 524 0
DWIDTH 6 0
BBX 6 8 1 -2
BITMAP
3C
68
C0
C0
C0
78
60
60
ENDCHAR
STARTCHAR egrave
ENCODING 232
SWIDTH 548 0
DWIDTH 6 0
BBX 5 8 1 0
BITMAP
10
08
38
48
D8
F0
C8
70
ENDCHAR
STARTCHAR eacute
ENCODING 233
SWIDTH 548 0
DWIDTH 6 0
BBX 6 8 1 0
BITMAP
0C
10
38
48
D8
F0
C8
70
ENDCHAR
STARTCHAR ecircumflex
ENCODING 234
SWIDTH 548 0
DWIDTH 6 0
BBX 6 8 1 0
BITMAP
18
24
38
48
D8
F0
C8
70
ENDCHAR
STARTCHAR edieresis
ENCODING 235
SWIDTH 548 0
DWIDTH 6 0
BBX 6 7 1 0
BITMAP
24
38
48
D8
F0
C8
70
ENDCHAR
STARTCHAR igrave
ENCODING 236
SWIDTH 319 0
DWIDTH 4 0
BBX 3 8 1 0
BITMAP
40
20
E0
60
40
40
C0
E0
ENDCHAR
STARTCHAR iacute
ENCODING 237
SWIDTH 319 0
DWIDTH 4 0
BBX 5 8 1 0
BITMAP
18
20
E0
60
40
40
C0
E0
ENDCHAR
STARTCHAR icircumflex
ENCODING 238
SWIDTH 319 0
DWIDTH 4 0
BBX 4 8 1 0
BITMAP
60
90
E0
60
40
40
C0
E0
ENDCHAR
STARTCHAR idieresis
ENCODING 239
SWIDTH 319 0
DWIDTH 4 0
BBX 5 7 1 0
BITMAP
58
E0
60
40
40
C0
E0
ENDCHAR
STARTCHAR eth
ENCODING 240
SWIDTH 617 0
DWIDTH 7 0
BBX 6 9 1 0
BITMAP
78
18
2C
3C
4C
CC
CC
C8
70
ENDCHAR
STARTCHAR ntilde
ENCODING 241
SWIDTH 656 0
DWIDTH 7 0
BBX 6 7 1 0
BITMAP
3C
FC
7C
6C
CC
C8
CC
ENDCHAR
STARTCHAR ograve
ENCODING 242
SWIDTH 599 0
DWIDTH 7 0
BBX 6 8 1 0
BITMAP
10
08
38
6C
CC
CC
C8
70
ENDCHAR
STARTCHAR oacute
ENCODING 243
SWIDTH 599 0
DWIDTH 7 0
BBX 6 8 1 0
BITMAP
0C
10
38
6C
CC
CC
C8
70
ENDCHAR
STARTCHAR ocircumflex
ENCODING 244
SWIDTH 599 0
DWIDTH 7 0
BBX 6 8 1 0
BITMAP
18
24
38
6C
CC
CC
C8
70
ENDCHAR
STARTCHAR otilde
ENCODING 245
SWIDTH 599 0
DWIDTH 7 0
BBX 6 7 1 0
BITMAP
3C
38
6C
CC
CC
C8
70
ENDCHAR
STARTCHAR odieresis
ENCODING 246
SWIDTH 599 0
DWIDTH 7 0
BBX 6 7 1 0
BITMAP
24
38
6C
CC
CC
C8
70
ENDCHAR
STARTCHAR divide
ENCODING 247
SWIDTH 636 0
DWIDTH 7 0
BBX 7 6 1 0
BITMAP
18
00
00
FE
00
30
ENDCHAR
STARTCHAR oslash
ENCODING 248
SWIDTH 599 0
DWIDTH 7 0
BBX 7 6 0 0
BITMAP
1E
66
5E
E4
CC
F0
ENDCHAR
STARTCHAR ugrave
ENCODING 249
SWIDTH 655 0
DWIDTH 7 0
BBX 6 8 1 0
BITMAP
10
08
CC
4C
CC
D8
F8
DC
ENDCHAR
STARTCHAR uacute
ENCODING 250
SWIDTH 655 0
DWIDTH 7 0
BBX 6 8 1 0
BITMAP
0C
10
CC
4C
CC
D8
F8
DC
ENDCHAR
STARTCHAR ucircumflex
ENCODING 251
SWIDTH 655 0
DWIDTH 7 0
BBX 6 8 1 0
BITMAP
18
24
CC
4C
CC
D8
F8
DC
ENDCHAR
STARTCHAR udieresis
ENCODING 252
SWIDTH 655 0
DWIDTH 7 0
BBX 6 7 1 0
BITMAP
3C
CC
4C
CC
D8
F8
DC
ENDCHAR
STARTCHAR yacute
ENCODING 253
SWIDTH 586 0
DWIDTH 6 0
BBX 7 10 0 -2
BITMAP
06
08
66
22
34
38
10
10
20
C0
ENDCHAR
STARTCHAR thorn
ENCODING 254
SWIDTH 639 0
DWIDTH 7 0
BBX 7 11 0 -2
BITMAP
70
20
20
6E
76
66
66
4C
78
C0
C0
ENDCHAR
STARTCHAR ydieresis
ENCODING 255
SWIDTH 586 0
DWIDTH 6 0
BBX 7 9 0 -2
BITMAP
1E
66
22
34
38
10
10
20
C0
ENDCHAR
ENDFONT
