STARTFONT 2.1
COMMENT AUTOMATICALLY GENERATED FILE. DO NOT EDIT!
COMMENT Generated with 'ucs2any.pl lubB10.bdf ../../../fonts/util/map-ISO8859-1 ISO8859-1'
COMMENT from an ISO10646-1 encoded source BDF font.
COMMENT ucs2any.pl by Markus Kuhn <mkuhn@acm.org>, 2000.
COMMENT $Xorg: $
COMMENT ISO10646-1 extension by Markus Kuhn <mkuhn@acm.org>, 2001-03-20
COMMENT  (c) Copyright Bigelow & Holmes 1986, 1985. Lucida is a registered
COMMENT  trademark of Bigelow & Holmes. See LEGAL NOTICE file for terms 
COMMENT  of the license. 
FONT -B&H-LucidaBright-DemiBold-R-Normal--14-100-100-100-P-84-ISO8859-1
SIZE 10 100 100
FONTBOUNDINGBOX 22 16 -8 -3
STARTPROPERTIES 22
COMMENT Begin LogicalFontDescription
FONTNAME_REGISTRY ""
FOUNDRY "B&H"
FAMILY_NAME "LucidaBright"
WEIGHT_NAME "DemiBold"
SLANT "R"
SETWIDTH_NAME "Normal"
ADD_STYLE_NAME ""
PIXEL_SIZE 14
POINT_SIZE 100
RESOLUTION_X 100
RESOLUTION_Y 100
SPACING "P"
AVERAGE_WIDTH 84
CHARSET_REGISTRY "ISO8859"
CHARSET_ENCODING "1"
COMMENT END LogicalFontDescription
FONT_ASCENT 13
FONT_DESCENT 3
DEFAULT_CHAR 0
COPYRIGHT "Copyright Bigelow & Holmes 1986, 1985."
FACE_NAME "Lucida Bright Demibold"
X_HEIGHT 7
CAP_HEIGHT 10
ENDPROPERTIES
CHARS 192
STARTCHAR defaultchar
ENCODING 0
SWIDTH 798 0
DWIDTH 11 0
BBX 9 9 1 0
BITMAP
AA80
0000
8080
0000
8080
0000
8080
0000
AA80
ENDCHAR
STARTCHAR space
ENCODING 32
SWIDTH 333 0
DWIDTH 5 0
BBX 1 1 0 0
BITMAP
00
ENDCHAR
STARTCHAR exclam
ENCODING 33
SWIDTH 265 0
DWIDTH 4 0
BBX 2 10 1 0
BITMAP
C0
C0
C0
C0
C0
40
40
00
C0
C0
ENDCHAR
STARTCHAR quotedbl
ENCODING 34
SWIDTH 461 0
DWIDTH 6 0
BBX 6 4 0 6
BITMAP
CC
CC
48
48
ENDCHAR
STARTCHAR numbersign
ENCODING 35
SWIDTH 663 0
DWIDTH 9 0
BBX 9 10 0 0
BITMAP
0900
1200
1200
7F80
1200
2400
FF00
2400
2400
4800
ENDCHAR
STARTCHAR dollar
ENCODING 36
SWIDTH 623 0
DWIDTH 9 0
BBX 6 13 1 -2
BITMAP
10
7C
D4
D4
F0
30
18
1C
9C
DC
F8
10
10
ENDCHAR
STARTCHAR percent
ENCODING 37
SWIDTH 759 0
DWIDTH 11 0
BBX 10 10 0 0
BITMAP
70C0
D980
DB00
DA00
7400
0B80
16C0
36C0
66C0
C380
ENDCHAR
STARTCHAR ampersand
ENCODING 38
SWIDTH 765 0
DWIDTH 11 0
BBX 10 10 0 0
BITMAP
1C00
3600
3600
3C00
39C0
4880
CC80
C700
E700
3DC0
ENDCHAR
STARTCHAR quotesingle
ENCODING 39
SWIDTH 253 0
DWIDTH 4 0
BBX 3 4 0 6
BITMAP
E0
E0
40
40
ENDCHAR
STARTCHAR parenleft
ENCODING 40
SWIDTH 327 0
DWIDTH 5 0
BBX 4 13 0 -3
BITMAP
10
20
60
40
C0
C0
C0
C0
C0
40
60
20
10
ENDCHAR
STARTCHAR parenright
ENCODING 41
SWIDTH 327 0
DWIDTH 5 0
BBX 4 13 0 -3
BITMAP
80
40
60
20
30
30
30
30
30
20
60
40
80
ENDCHAR
STARTCHAR asterisk
ENCODING 42
SWIDTH 434 0
DWIDTH 6 0
BBX 5 5 1 5
BITMAP
20
A8
D0
D0
50
ENDCHAR
STARTCHAR plus
ENCODING 43
SWIDTH 623 0
DWIDTH 9 0
BBX 9 8 0 0
BITMAP
0800
0800
0800
0800
FF80
0800
0800
0800
ENDCHAR
STARTCHAR comma
ENCODING 44
SWIDTH 265 0
DWIDTH 4 0
BBX 2 5 1 -3
BITMAP
C0
C0
C0
C0
C0
ENDCHAR
STARTCHAR hyphen
ENCODING 45
SWIDTH 289 0
DWIDTH 4 0
BBX 3 2 1 3
BITMAP
E0
E0
ENDCHAR
STARTCHAR period
ENCODING 46
SWIDTH 265 0
DWIDTH 4 0
BBX 2 2 1 0
BITMAP
C0
C0
ENDCHAR
STARTCHAR slash
ENCODING 47
SWIDTH 527 0
DWIDTH 7 0
BBX 7 13 0 -3
BITMAP
02
04
04
08
08
10
10
10
20
20
40
40
80
ENDCHAR
STARTCHAR zero
ENCODING 48
SWIDTH 623 0
DWIDTH 9 0
BBX 8 10 0 0
BITMAP
3C
66
C3
C3
C3
C3
C3
C3
66
3C
ENDCHAR
STARTCHAR one
ENCODING 49
SWIDTH 623 0
DWIDTH 9 0
BBX 6 10 1 0
BITMAP
F0
30
30
30
30
30
30
30
30
FC
ENDCHAR
STARTCHAR two
ENCODING 50
SWIDTH 623 0
DWIDTH 9 0
BBX 7 10 1 0
BITMAP
FC
CE
86
06
0C
18
30
40
FE
FE
ENDCHAR
STARTCHAR three
ENCODING 51
SWIDTH 623 0
DWIDTH 9 0
BBX 7 10 1 0
BITMAP
FC
8E
86
04
78
0C
06
86
8E
F8
ENDCHAR
STARTCHAR four
ENCODING 52
SWIDTH 623 0
DWIDTH 9 0
BBX 8 10 0 0
BITMAP
0E
0E
16
26
46
FF
FF
06
06
0F
ENDCHAR
STARTCHAR five
ENCODING 53
SWIDTH 623 0
DWIDTH 9 0
BBX 6 10 2 0
BITMAP
FC
FC
80
80
F8
1C
0C
8C
9C
F0
ENDCHAR
STARTCHAR six
ENCODING 54
SWIDTH 623 0
DWIDTH 9 0
BBX 8 10 0 0
BITMAP
3E
62
42
C0
DE
E7
C3
C3
67
3C
ENDCHAR
STARTCHAR seven
ENCODING 55
SWIDTH 623 0
DWIDTH 9 0
BBX 7 10 1 0
BITMAP
FE
FE
04
08
18
30
20
60
C0
C0
ENDCHAR
STARTCHAR eight
ENCODING 56
SWIDTH 623 0
DWIDTH 9 0
BBX 7 10 1 0
BITMAP
7C
C6
C6
E4
38
5C
C6
C6
E6
7C
ENDCHAR
STARTCHAR nine
ENCODING 57
SWIDTH 623 0
DWIDTH 9 0
BBX 8 10 0 0
BITMAP
3C
E6
C3
C3
E7
7B
03
42
46
7C
ENDCHAR
STARTCHAR colon
ENCODING 58
SWIDTH 265 0
DWIDTH 4 0
BBX 2 7 1 0
BITMAP
C0
C0
00
00
00
C0
C0
ENDCHAR
STARTCHAR semicolon
ENCODING 59
SWIDTH 265 0
DWIDTH 4 0
BBX 2 10 1 -3
BITMAP
C0
C0
00
00
00
C0
C0
C0
C0
80
ENDCHAR
STARTCHAR less
ENCODING 60
SWIDTH 623 0
DWIDTH 9 0
BBX 8 8 0 0
BITMAP
01
06
18
E0
60
18
06
01
ENDCHAR
STARTCHAR equal
ENCODING 61
SWIDTH 623 0
DWIDTH 9 0
BBX 8 4 0 2
BITMAP
FF
00
00
FF
ENDCHAR
STARTCHAR greater
ENCODING 62
SWIDTH 623 0
DWIDTH 9 0
BBX 8 8 0 0
BITMAP
80
60
18
06
07
18
60
80
ENDCHAR
STARTCHAR question
ENCODING 63
SWIDTH 505 0
DWIDTH 7 0
BBX 6 10 1 0
BITMAP
F8
9C
8C
08
10
20
60
00
60
60
ENDCHAR
STARTCHAR at
ENCODING 64
SWIDTH 861 0
DWIDTH 12 0
BBX 12 10 0 0
BITMAP
0FC0
1060
6710
4C90
9990
9990
9BA0
9DC0
6100
1E00
ENDCHAR
STARTCHAR A
ENCODING 65
SWIDTH 795 0
DWIDTH 11 0
BBX 11 10 0 0
BITMAP
0400
0E00
0E00
1700
1300
2380
3F80
41C0
40C0
E1E0
ENDCHAR
STARTCHAR B
ENCODING 66
SWIDTH 639 0
DWIDTH 9 0
BBX 8 10 0 0
BITMAP
FE
63
63
67
7C
66
63
63
67
FE
ENDCHAR
STARTCHAR C
ENCODING 67
SWIDTH 711 0
DWIDTH 10 0
BBX 9 10 0 0
BITMAP
1F80
7080
6080
C000
C000
C000
C000
6000
7080
1F00
ENDCHAR
STARTCHAR D
ENCODING 68
SWIDTH 794 0
DWIDTH 11 0
BBX 10 10 0 0
BITMAP
FF00
6180
60C0
60C0
60C0
60C0
60C0
6080
6180
FE00
ENDCHAR
STARTCHAR E
ENCODING 69
SWIDTH 601 0
DWIDTH 8 0
BBX 7 10 1 0
BITMAP
FE
62
60
64
7C
64
60
60
62
FE
ENDCHAR
STARTCHAR F
ENCODING 70
SWIDTH 584 0
DWIDTH 8 0
BBX 7 10 0 0
BITMAP
FE
62
60
64
7C
64
60
60
60
F0
ENDCHAR
STARTCHAR G
ENCODING 71
SWIDTH 753 0
DWIDTH 11 0
BBX 10 10 0 0
BITMAP
1F80
7180
6080
C000
C000
C3C0
C180
6180
7180
1F80
ENDCHAR
STARTCHAR H
ENCODING 72
SWIDTH 798 0
DWIDTH 11 0
BBX 10 10 1 0
BITMAP
F3C0
6180
6180
6180
7F80
6180
6180
6180
6180
F3C0
ENDCHAR
STARTCHAR I
ENCODING 73
SWIDTH 349 0
DWIDTH 5 0
BBX 4 10 0 0
BITMAP
F0
60
60
60
60
60
60
60
60
F0
ENDCHAR
STARTCHAR J
ENCODING 74
SWIDTH 452 0
DWIDTH 6 0
BBX 6 13 0 -3
BITMAP
3C
18
18
18
18
18
18
18
18
18
18
98
F0
ENDCHAR
STARTCHAR K
ENCODING 75
SWIDTH 747 0
DWIDTH 10 0
BBX 10 10 0 0
BITMAP
F380
6100
6600
6C00
7800
7C00
6E00
6700
6380
F7C0
ENDCHAR
STARTCHAR L
ENCODING 76
SWIDTH 584 0
DWIDTH 8 0
BBX 8 10 0 0
BITMAP
F0
60
60
60
60
60
60
61
61
FF
ENDCHAR
STARTCHAR M
ENCODING 77
SWIDTH 904 0
DWIDTH 13 0
BBX 12 10 0 0
BITMAP
F070
70E0
70E0
59E0
5960
4E60
4E60
4460
4460
E0F0
ENDCHAR
STARTCHAR N
ENCODING 78
SWIDTH 788 0
DWIDTH 11 0
BBX 10 10 0 0
BITMAP
E1C0
7080
7080
5880
5C80
4E80
4680
4380
4380
E180
ENDCHAR
STARTCHAR O
ENCODING 79
SWIDTH 810 0
DWIDTH 11 0
BBX 10 10 1 0
BITMAP
1E00
6180
6180
C0C0
C0C0
C0C0
C0C0
6180
6180
1E00
ENDCHAR
STARTCHAR P
ENCODING 80
SWIDTH 614 0
DWIDTH 9 0
BBX 8 10 0 0
BITMAP
FE
63
63
63
62
7C
60
60
60
F0
ENDCHAR
STARTCHAR Q
ENCODING 81
SWIDTH 810 0
DWIDTH 11 0
BBX 12 13 1 -3
BITMAP
1E00
6180
6180
C0C0
C0C0
C0C0
C0C0
61C0
6180
1F00
0180
00F0
0060
ENDCHAR
STARTCHAR R
ENCODING 82
SWIDTH 720 0
DWIDTH 10 0
BBX 10 10 0 0
BITMAP
FE00
6300
6300
6300
6600
7C00
6E00
6700
6380
F1C0
ENDCHAR
STARTCHAR S
ENCODING 83
SWIDTH 556 0
DWIDTH 8 0
BBX 7 10 1 0
BITMAP
7C
C4
C4
E0
78
1C
0E
86
8E
F8
ENDCHAR
STARTCHAR T
ENCODING 84
SWIDTH 714 0
DWIDTH 10 0
BBX 10 10 0 0
BITMAP
FFC0
8C40
0C00
0C00
0C00
0C00
0C00
0C00
0C00
1E00
ENDCHAR
STARTCHAR U
ENCODING 85
SWIDTH 747 0
DWIDTH 10 0
BBX 10 10 0 0
BITMAP
F1C0
6080
6080
6080
6080
6080
6080
6080
7180
3F00
ENDCHAR
STARTCHAR V
ENCODING 86
SWIDTH 753 0
DWIDTH 11 0
BBX 11 10 0 0
BITMAP
F8E0
7040
30C0
3080
1980
1900
0D00
0E00
0600
0400
ENDCHAR
STARTCHAR W
ENCODING 87
SWIDTH 955 0
DWIDTH 13 0
BBX 13 10 0 0
BITMAP
F338
6310
6310
7720
35A0
35A0
39C0
18C0
18C0
10C0
ENDCHAR
STARTCHAR X
ENCODING 88
SWIDTH 702 0
DWIDTH 10 0
BBX 10 10 0 0
BITMAP
F9C0
7080
3900
1A00
1E00
1E00
1600
2300
4380
E3C0
ENDCHAR
STARTCHAR Y
ENCODING 89
SWIDTH 717 0
DWIDTH 10 0
BBX 10 10 0 0
BITMAP
F1C0
7080
3100
1B00
1E00
0C00
0C00
0C00
0C00
1E00
ENDCHAR
STARTCHAR Z
ENCODING 90
SWIDTH 639 0
DWIDTH 9 0
BBX 8 10 0 0
BITMAP
FF
87
0E
0C
1C
38
30
70
E1
FF
ENDCHAR
STARTCHAR bracketleft
ENCODING 91
SWIDTH 327 0
DWIDTH 5 0
BBX 3 13 1 -3
BITMAP
E0
C0
C0
C0
C0
C0
C0
C0
C0
C0
C0
C0
E0
ENDCHAR
STARTCHAR backslash
ENCODING 92
SWIDTH 527 0
DWIDTH 7 0
BBX 7 13 0 -3
BITMAP
80
40
40
20
20
10
10
18
08
08
04
04
02
ENDCHAR
STARTCHAR bracketright
ENCODING 93
SWIDTH 327 0
DWIDTH 5 0
BBX 3 13 1 -3
BITMAP
E0
60
60
60
60
60
60
60
60
60
60
60
E0
ENDCHAR
STARTCHAR asciicircum
ENCODING 94
SWIDTH 623 0
DWIDTH 9 0
BBX 8 8 0 2
BITMAP
08
18
18
24
24
42
42
81
ENDCHAR
STARTCHAR underscore
ENCODING 95
SWIDTH 500 0
DWIDTH 7 0
BBX 6 1 1 -2
BITMAP
FC
ENDCHAR
STARTCHAR grave
ENCODING 96
SWIDTH 617 0
DWIDTH 9 0
BBX 3 2 2 8
BITMAP
C0
20
ENDCHAR
STARTCHAR a
ENCODING 97
SWIDTH 556 0
DWIDTH 8 0
BBX 7 7 0 0
BITMAP
78
4C
0C
7C
CC
CC
76
ENDCHAR
STARTCHAR b
ENCODING 98
SWIDTH 640 0
DWIDTH 9 0
BBX 8 10 0 0
BITMAP
E0
60
60
6E
7F
63
63
63
67
7E
ENDCHAR
STARTCHAR c
ENCODING 99
SWIDTH 541 0
DWIDTH 8 0
BBX 6 7 1 0
BITMAP
3C
44
C4
C0
C0
60
3C
ENDCHAR
STARTCHAR d
ENCODING 100
SWIDTH 652 0
DWIDTH 9 0
BBX 8 10 1 0
BITMAP
0E
06
06
7E
C6
C6
C6
C6
FE
77
ENDCHAR
STARTCHAR e
ENCODING 101
SWIDTH 568 0
DWIDTH 8 0
BBX 7 7 0 0
BITMAP
38
44
C6
FE
C0
60
3E
ENDCHAR
STARTCHAR f
ENCODING 102
SWIDTH 416 0
DWIDTH 6 0
BBX 6 10 0 0
BITMAP
3C
64
60
F8
60
60
60
60
60
F0
ENDCHAR
STARTCHAR g
ENCODING 103
SWIDTH 599 0
DWIDTH 8 0
BBX 8 10 0 -3
BITMAP
3F
66
66
66
3C
7F
7F
43
C3
7C
ENDCHAR
STARTCHAR h
ENCODING 104
SWIDTH 654 0
DWIDTH 9 0
BBX 9 10 0 0
BITMAP
E000
6000
6000
6E00
7F00
6300
6300
6300
6300
F780
ENDCHAR
STARTCHAR i
ENCODING 105
SWIDTH 325 0
DWIDTH 5 0
BBX 4 10 0 0
BITMAP
60
60
00
E0
60
60
60
60
60
F0
ENDCHAR
STARTCHAR j
ENCODING 106
SWIDTH 355 0
DWIDTH 5 0
BBX 5 13 0 -3
BITMAP
18
18
00
38
18
18
18
18
18
18
18
98
F0
ENDCHAR
STARTCHAR k
ENCODING 107
SWIDTH 654 0
DWIDTH 9 0
BBX 9 10 0 0
BITMAP
E000
6000
6000
6700
6600
6C00
7800
6E00
6700
F380
ENDCHAR
STARTCHAR l
ENCODING 108
SWIDTH 325 0
DWIDTH 5 0
BBX 4 10 0 0
BITMAP
E0
60
60
60
60
60
60
60
60
F0
ENDCHAR
STARTCHAR m
ENCODING 109
SWIDTH 967 0
DWIDTH 14 0
BBX 14 7 0 0
BITMAP
EE70
7FF8
6318
6318
6318
6318
F7BC
ENDCHAR
STARTCHAR n
ENCODING 110
SWIDTH 654 0
DWIDTH 9 0
BBX 9 7 0 0
BITMAP
EE00
7F00
6300
6300
6300
6300
F780
ENDCHAR
STARTCHAR o
ENCODING 111
SWIDTH 617 0
DWIDTH 9 0
BBX 8 7 0 0
BITMAP
3C
66
C3
C3
C3
66
3C
ENDCHAR
STARTCHAR p
ENCODING 112
SWIDTH 652 0
DWIDTH 9 0
BBX 8 10 0 -3
BITMAP
EE
7F
63
63
63
67
7E
60
60
F0
ENDCHAR
STARTCHAR q
ENCODING 113
SWIDTH 640 0
DWIDTH 9 0
BBX 8 10 1 -3
BITMAP
7E
E6
C6
C6
C6
FE
76
06
06
0F
ENDCHAR
STARTCHAR r
ENCODING 114
SWIDTH 462 0
DWIDTH 6 0
BBX 6 7 0 0
BITMAP
EC
7C
64
60
60
60
F0
ENDCHAR
STARTCHAR s
ENCODING 115
SWIDTH 525 0
DWIDTH 7 0
BBX 6 7 1 0
BITMAP
78
C8
E8
7C
9C
8C
F8
ENDCHAR
STARTCHAR t
ENCODING 116
SWIDTH 389 0
DWIDTH 5 0
BBX 5 9 0 0
BITMAP
60
60
F8
60
60
60
60
60
78
ENDCHAR
STARTCHAR u
ENCODING 117
SWIDTH 654 0
DWIDTH 9 0
BBX 9 7 0 0
BITMAP
E700
6300
6300
6300
6300
7F00
3B80
ENDCHAR
STARTCHAR v
ENCODING 118
SWIDTH 657 0
DWIDTH 9 0
BBX 9 7 0 0
BITMAP
F380
6100
3200
3200
1C00
1C00
0800
ENDCHAR
STARTCHAR w
ENCODING 119
SWIDTH 880 0
DWIDTH 12 0
BBX 12 7 0 0
BITMAP
F270
6720
6720
3740
39C0
1980
1080
ENDCHAR
STARTCHAR x
ENCODING 120
SWIDTH 608 0
DWIDTH 9 0
BBX 9 7 0 0
BITMAP
FB80
7300
3E00
1C00
3E00
6700
E780
ENDCHAR
STARTCHAR y
ENCODING 121
SWIDTH 654 0
DWIDTH 9 0
BBX 9 10 0 -3
BITMAP
F380
6100
3300
3200
1C00
1C00
1800
0800
1000
7000
ENDCHAR
STARTCHAR z
ENCODING 122
SWIDTH 584 0
DWIDTH 8 0
BBX 7 7 1 0
BITMAP
FE
8C
1C
38
70
E2
FE
ENDCHAR
STARTCHAR braceleft
ENCODING 123
SWIDTH 366 0
DWIDTH 5 0
BBX 4 13 1 -3
BITMAP
30
60
60
60
60
60
C0
60
60
60
60
60
30
ENDCHAR
STARTCHAR bar
ENCODING 124
SWIDTH 259 0
DWIDTH 4 0
BBX 1 13 1 -3
BITMAP
80
80
80
80
80
80
80
80
80
80
80
80
80
ENDCHAR
STARTCHAR braceright
ENCODING 125
SWIDTH 366 0
DWIDTH 5 0
BBX 4 13 1 -3
BITMAP
C0
60
60
60
60
60
30
60
60
60
60
60
C0
ENDCHAR
STARTCHAR asciitilde
ENCODING 126
SWIDTH 623 0
DWIDTH 9 0
BBX 8 3 0 2
BITMAP
61
99
86
ENDCHAR
STARTCHAR space
ENCODING 160
SWIDTH 333 0
DWIDTH 5 0
BBX 1 1 0 0
BITMAP
00
ENDCHAR
STARTCHAR exclamdown
ENCODING 161
SWIDTH 265 0
DWIDTH 4 0
BBX 2 10 1 -3
BITMAP
C0
C0
00
40
40
C0
C0
C0
C0
C0
ENDCHAR
STARTCHAR cent
ENCODING 162
SWIDTH 623 0
DWIDTH 9 0
BBX 6 10 1 0
BITMAP
10
3C
54
D4
D0
D0
D0
50
3C
10
ENDCHAR
STARTCHAR sterling
ENCODING 163
SWIDTH 623 0
DWIDTH 9 0
BBX 6 10 2 0
BITMAP
3C
64
64
60
F8
60
60
40
FC
FC
ENDCHAR
STARTCHAR currency
ENCODING 164
SWIDTH 623 0
DWIDTH 9 0
BBX 8 10 0 0
BITMAP
81
C3
7E
66
42
42
66
7E
C3
81
ENDCHAR
STARTCHAR yen
ENCODING 165
SWIDTH 623 0
DWIDTH 9 0
BBX 9 10 0 0
BITMAP
F380
6100
7200
3C00
3E00
1800
3E00
1800
1800
3C00
ENDCHAR
STARTCHAR brokenbar
ENCODING 166
SWIDTH 259 0
DWIDTH 4 0
BBX 1 13 1 -3
BITMAP
80
80
80
80
80
80
00
80
80
80
80
80
80
ENDCHAR
STARTCHAR section
ENCODING 167
SWIDTH 623 0
DWIDTH 9 0
BBX 7 13 1 -3
BITMAP
7E
C2
C2
E0
7C
DE
C6
F6
7C
1E
86
86
FC
ENDCHAR
STARTCHAR dieresis
ENCODING 168
SWIDTH 617 0
DWIDTH 9 0
BBX 4 2 2 8
BITMAP
90
90
ENDCHAR
STARTCHAR copyright
ENCODING 169
SWIDTH 855 0
DWIDTH 12 0
BBX 11 10 0 0
BITMAP
1F00
2080
4F40
9A20
9820
9820
9820
4E40
2080
1F00
ENDCHAR
STARTCHAR ordfeminine
ENCODING 170
SWIDTH 488 0
DWIDTH 7 0
BBX 6 5 1 5
BITMAP
F8
18
78
D8
EC
ENDCHAR
STARTCHAR guillemotleft
ENCODING 171
SWIDTH 566 0
DWIDTH 8 0
BBX 7 7 0 0
BITMAP
12
24
6C
D8
6C
24
12
ENDCHAR
STARTCHAR logicalnot
ENCODING 172
SWIDTH 623 0
DWIDTH 9 0
BBX 8 4 0 2
BITMAP
FF
01
01
01
ENDCHAR
STARTCHAR hyphen
ENCODING 173
SWIDTH 289 0
DWIDTH 4 0
BBX 3 2 1 3
BITMAP
E0
E0
ENDCHAR
STARTCHAR registered
ENCODING 174
SWIDTH 623 0
DWIDTH 9 0
BBX 6 7 1 3
BITMAP
78
CC
B4
B4
B4
CC
78
ENDCHAR
STARTCHAR macron
ENCODING 175
SWIDTH 617 0
DWIDTH 9 0
BBX 4 1 2 9
BITMAP
F0
ENDCHAR
STARTCHAR degree
ENCODING 176
SWIDTH 259 0
DWIDTH 4 0
BBX 3 2 2 8
BITMAP
E0
60
ENDCHAR
STARTCHAR plusminus
ENCODING 177
SWIDTH 623 0
DWIDTH 9 0
BBX 9 8 0 0
BITMAP
0800
0800
0800
FF80
0800
0800
0000
FF80
ENDCHAR
STARTCHAR twosuperior
ENCODING 178
SWIDTH 374 0
DWIDTH 5 0
BBX 4 6 -8 4
BITMAP
E0
90
10
60
40
F0
ENDCHAR
STARTCHAR threesuperior
ENCODING 179
SWIDTH 374 0
DWIDTH 5 0
BBX 4 6 -8 4
BITMAP
F0
90
60
10
90
E0
ENDCHAR
STARTCHAR acute
ENCODING 180
SWIDTH 617 0
DWIDTH 9 0
BBX 3 2 3 8
BITMAP
60
80
ENDCHAR
STARTCHAR mu
ENCODING 181
SWIDTH 705 0
DWIDTH 10 0
BBX 9 10 0 -3
BITMAP
E700
6300
6300
6300
6300
7F00
7B80
6000
6000
6000
ENDCHAR
STARTCHAR paragraph
ENCODING 182
SWIDTH 623 0
DWIDTH 9 0
BBX 6 13 1 -3
BITMAP
7C
F4
F4
F4
74
14
14
14
14
14
14
14
14
ENDCHAR
STARTCHAR periodcentered
ENCODING 183
SWIDTH 623 0
DWIDTH 9 0
BBX 2 2 3 3
BITMAP
C0
C0
ENDCHAR
STARTCHAR cedilla
ENCODING 184
SWIDTH 617 0
DWIDTH 9 0
BBX 2 3 3 -3
BITMAP
40
C0
C0
ENDCHAR
STARTCHAR onesuperior
ENCODING 185
SWIDTH 374 0
DWIDTH 5 0
BBX 3 6 -8 4
BITMAP
C0
40
40
40
40
E0
ENDCHAR
STARTCHAR ordmasculine
ENCODING 186
SWIDTH 488 0
DWIDTH 7 0
BBX 6 5 0 5
BITMAP
78
CC
CC
CC
78
ENDCHAR
STARTCHAR guillemotright
ENCODING 187
SWIDTH 566 0
DWIDTH 8 0
BBX 7 7 1 0
BITMAP
90
48
6C
36
6C
48
90
ENDCHAR
STARTCHAR onequarter
ENCODING 188
SWIDTH 803 0
DWIDTH 11 0
BBX 11 10 2 0
BITMAP
60E0
2180
2380
2700
26C0
7DC0
1F40
3BE0
3040
E0E0
ENDCHAR
STARTCHAR onehalf
ENCODING 189
SWIDTH 803 0
DWIDTH 11 0
BBX 11 10 2 0
BITMAP
60E0
2180
2380
2700
2780
7E40
1C40
3980
3100
E3C0
ENDCHAR
STARTCHAR threequarters
ENCODING 190
SWIDTH 803 0
DWIDTH 11 0
BBX 11 10 2 0
BITMAP
F0E0
9180
6380
1700
96C0
EDC0
1F40
3BE0
3040
E0E0
ENDCHAR
STARTCHAR questiondown
ENCODING 191
SWIDTH 505 0
DWIDTH 7 0
BBX 6 10 1 -3
BITMAP
18
18
00
18
10
20
40
C4
E4
7C
ENDCHAR
STARTCHAR Agrave
ENCODING 192
SWIDTH 795 0
DWIDTH 11 0
BBX 11 13 0 0
BITMAP
0C00
0200
0000
0400
0E00
0E00
1700
1300
2380
3F80
41C0
40C0
E1E0
ENDCHAR
STARTCHAR Aacute
ENCODING 193
SWIDTH 795 0
DWIDTH 11 0
BBX 11 13 0 0
BITMAP
0600
0800
0000
0400
0E00
0E00
1700
1300
2380
3F80
41C0
40C0
E1E0
ENDCHAR
STARTCHAR Acircumflex
ENCODING 194
SWIDTH 795 0
DWIDTH 11 0
BBX 11 13 0 0
BITMAP
0E00
1B00
0000
0400
0E00
0E00
1700
1300
2380
3F80
41C0
40C0
E1E0
ENDCHAR
STARTCHAR Atilde
ENCODING 195
SWIDTH 795 0
DWIDTH 11 0
BBX 11 13 0 0
BITMAP
1D00
1700
0000
0400
0E00
0E00
1700
1300
2380
3F80
41C0
40C0
E1E0
ENDCHAR
STARTCHAR Adieresis
ENCODING 196
SWIDTH 795 0
DWIDTH 11 0
BBX 11 13 0 0
BITMAP
0900
0900
0000
0400
0E00
0E00
1700
1300
2380
3F80
41C0
40C0
E1E0
ENDCHAR
STARTCHAR Aring
ENCODING 197
SWIDTH 795 0
DWIDTH 11 0
BBX 11 13 0 0
BITMAP
0C00
0C00
0000
0400
0E00
0E00
1700
1300
2380
3F80
41C0
40C0
E1E0
ENDCHAR
STARTCHAR AE
ENCODING 198
SWIDTH 959 0
DWIDTH 13 0
BBX 13 10 0 0
BITMAP
03F8
0708
0700
0B10
1BF0
1300
3F00
6300
4308
C7F8
ENDCHAR
STARTCHAR Ccedilla
ENCODING 199
SWIDTH 711 0
DWIDTH 10 0
BBX 9 13 0 -3
BITMAP
1F80
7080
6080
C000
C000
C000
C000
6000
7080
1F00
0400
0C00
0C00
ENDCHAR
STARTCHAR Egrave
ENCODING 200
SWIDTH 601 0
DWIDTH 8 0
BBX 7 13 1 0
BITMAP
30
08
00
FE
62
60
64
7C
64
60
60
62
FE
ENDCHAR
STARTCHAR Eacute
ENCODING 201
SWIDTH 601 0
DWIDTH 8 0
BBX 7 13 1 0
BITMAP
18
20
00
FE
62
60
64
7C
64
60
60
62
FE
ENDCHAR
STARTCHAR Ecircumflex
ENCODING 202
SWIDTH 601 0
DWIDTH 8 0
BBX 7 13 1 0
BITMAP
38
6C
00
FE
62
60
64
7C
64
60
60
62
FE
ENDCHAR
STARTCHAR Edieresis
ENCODING 203
SWIDTH 601 0
DWIDTH 8 0
BBX 7 13 1 0
BITMAP
24
24
00
FE
62
60
64
7C
64
60
60
62
FE
ENDCHAR
STARTCHAR Igrave
ENCODING 204
SWIDTH 349 0
DWIDTH 5 0
BBX 4 13 0 0
BITMAP
C0
20
00
F0
60
60
60
60
60
60
60
60
F0
ENDCHAR
STARTCHAR Iacute
ENCODING 205
SWIDTH 349 0
DWIDTH 5 0
BBX 4 13 0 0
BITMAP
30
40
00
F0
60
60
60
60
60
60
60
60
F0
ENDCHAR
STARTCHAR Icircumflex
ENCODING 206
SWIDTH 349 0
DWIDTH 5 0
BBX 5 13 1 0
BITMAP
70
D8
00
78
30
30
30
30
30
30
30
30
78
ENDCHAR
STARTCHAR Idieresis
ENCODING 207
SWIDTH 349 0
DWIDTH 5 0
BBX 4 13 0 0
BITMAP
90
90
00
F0
60
60
60
60
60
60
60
60
F0
ENDCHAR
STARTCHAR Eth
ENCODING 208
SWIDTH 794 0
DWIDTH 11 0
BBX 10 10 0 0
BITMAP
FF00
6180
60C0
60C0
F8C0
60C0
60C0
6080
6180
FF00
ENDCHAR
STARTCHAR Ntilde
ENCODING 209
SWIDTH 788 0
DWIDTH 11 0
BBX 10 13 0 0
BITMAP
1D00
1700
0000
E1C0
7080
7080
5880
5C80
4E80
4680
4380
4380
E180
ENDCHAR
STARTCHAR Ograve
ENCODING 210
SWIDTH 810 0
DWIDTH 11 0
BBX 10 13 1 0
BITMAP
1800
0400
0000
1E00
6180
6180
C0C0
C0C0
C0C0
C0C0
6180
6180
1E00
ENDCHAR
STARTCHAR Oacute
ENCODING 211
SWIDTH 810 0
DWIDTH 11 0
BBX 10 13 1 0
BITMAP
0600
0800
0000
1E00
6180
6180
C0C0
C0C0
C0C0
C0C0
6180
6180
1E00
ENDCHAR
STARTCHAR Ocircumflex
ENCODING 212
SWIDTH 810 0
DWIDTH 11 0
BBX 10 13 1 0
BITMAP
1C00
3600
0000
1E00
6180
6180
C0C0
C0C0
C0C0
C0C0
6180
6180
1E00
ENDCHAR
STARTCHAR Otilde
ENCODING 213
SWIDTH 810 0
DWIDTH 11 0
BBX 10 13 1 0
BITMAP
3A00
2E00
0000
1E00
6180
6180
C0C0
C0C0
C0C0
C0C0
6180
6180
1E00
ENDCHAR
STARTCHAR Odieresis
ENCODING 214
SWIDTH 810 0
DWIDTH 11 0
BBX 10 13 1 0
BITMAP
1200
1200
0000
1E00
6180
6180
C0C0
C0C0
C0C0
C0C0
6180
6180
1E00
ENDCHAR
STARTCHAR multiply
ENCODING 215
SWIDTH 623 0
DWIDTH 9 0
BBX 8 8 0 0
BITMAP
81
42
24
18
18
24
42
81
ENDCHAR
STARTCHAR Oslash
ENCODING 216
SWIDTH 810 0
DWIDTH 11 0
BBX 10 10 1 0
BITMAP
1E40
6180
61C0
C2C0
C4C0
C8C0
D0C0
E180
6180
9E00
ENDCHAR
STARTCHAR Ugrave
ENCODING 217
SWIDTH 747 0
DWIDTH 10 0
BBX 10 13 0 0
BITMAP
1800
0400
0000
F1C0
6080
6080
6080
6080
6080
6080
6080
7180
3F00
ENDCHAR
STARTCHAR Uacute
ENCODING 218
SWIDTH 747 0
DWIDTH 10 0
BBX 10 13 0 0
BITMAP
0600
0800
0000
F1C0
6080
6080
6080
6080
6080
6080
6080
7180
3F00
ENDCHAR
STARTCHAR Ucircumflex
ENCODING 219
SWIDTH 747 0
DWIDTH 10 0
BBX 10 13 0 0
BITMAP
0E00
1B00
0000
F1C0
6080
6080
6080
6080
6080
6080
6080
7180
3F00
ENDCHAR
STARTCHAR Udieresis
ENCODING 220
SWIDTH 747 0
DWIDTH 10 0
BBX 10 13 0 0
BITMAP
1200
1200
0000
F1C0
6080
6080
6080
6080
6080
6080
6080
7180
3F00
ENDCHAR
STARTCHAR Yacute
ENCODING 221
SWIDTH 717 0
DWIDTH 10 0
BBX 10 13 0 0
BITMAP
0600
0800
0000
F1C0
7080
3100
1B00
1E00
0C00
0C00
0C00
0C00
1E00
ENDCHAR
STARTCHAR Thorn
ENCODING 222
SWIDTH 614 0
DWIDTH 9 0
BBX 8 10 0 0
BITMAP
F0
60
7E
63
63
63
62
7C
60
F0
ENDCHAR
STARTCHAR germandbls
ENCODING 223
SWIDTH 700 0
DWIDTH 10 0
BBX 8 10 1 0
BITMAP
3C
66
64
64
68
6E
67
63
6B
FE
ENDCHAR
STARTCHAR agrave
ENCODING 224
SWIDTH 556 0
DWIDTH 8 0
BBX 7 10 0 0
BITMAP
30
08
00
78
4C
0C
7C
CC
CC
76
ENDCHAR
STARTCHAR aacute
ENCODING 225
SWIDTH 556 0
DWIDTH 8 0
BBX 7 10 0 0
BITMAP
18
20
00
78
4C
0C
7C
CC
CC
76
ENDCHAR
STARTCHAR acircumflex
ENCODING 226
SWIDTH 556 0
DWIDTH 8 0
BBX 7 10 0 0
BITMAP
38
6C
00
78
4C
0C
7C
CC
CC
76
ENDCHAR
STARTCHAR atilde
ENCODING 227
SWIDTH 556 0
DWIDTH 8 0
BBX 7 10 0 0
BITMAP
74
5C
00
78
4C
0C
7C
CC
CC
76
ENDCHAR
STARTCHAR adieresis
ENCODING 228
SWIDTH 556 0
DWIDTH 8 0
BBX 7 10 0 0
BITMAP
48
48
00
78
4C
0C
7C
CC
CC
76
ENDCHAR
STARTCHAR aring
ENCODING 229
SWIDTH 556 0
DWIDTH 8 0
BBX 7 10 0 0
BITMAP
30
30
00
78
4C
0C
7C
CC
CC
76
ENDCHAR
STARTCHAR ae
ENCODING 230
SWIDTH 858 0
DWIDTH 12 0
BBX 11 7 0 0
BITMAP
79C0
4E40
0C60
7FE0
CC00
CE00
73E0
ENDCHAR
STARTCHAR ccedilla
ENCODING 231
SWIDTH 541 0
DWIDTH 8 0
BBX 6 10 1 -3
BITMAP
3C
44
C4
C0
C0
60
3C
10
30
30
ENDCHAR
STARTCHAR egrave
ENCODING 232
SWIDTH 568 0
DWIDTH 8 0
BBX 7 10 0 0
BITMAP
30
08
00
38
44
C6
FE
C0
60
3E
ENDCHAR
STARTCHAR eacute
ENCODING 233
SWIDTH 568 0
DWIDTH 8 0
BBX 7 10 0 0
BITMAP
0C
10
00
38
44
C6
FE
C0
60
3E
ENDCHAR
STARTCHAR ecircumflex
ENCODING 234
SWIDTH 568 0
DWIDTH 8 0
BBX 7 10 0 0
BITMAP
38
6C
00
38
44
C6
FE
C0
60
3E
ENDCHAR
STARTCHAR edieresis
ENCODING 235
SWIDTH 568 0
DWIDTH 8 0
BBX 7 10 0 0
BITMAP
24
24
00
38
44
C6
FE
C0
60
3E
ENDCHAR
STARTCHAR igrave
ENCODING 236
SWIDTH 325 0
DWIDTH 5 0
BBX 4 10 0 0
BITMAP
C0
20
00
E0
60
60
60
60
60
F0
ENDCHAR
STARTCHAR iacute
ENCODING 237
SWIDTH 325 0
DWIDTH 5 0
BBX 4 10 0 0
BITMAP
30
40
00
E0
60
60
60
60
60
F0
ENDCHAR
STARTCHAR icircumflex
ENCODING 238
SWIDTH 325 0
DWIDTH 5 0
BBX 5 10 1 0
BITMAP
70
D8
00
70
30
30
30
30
30
78
ENDCHAR
STARTCHAR idieresis
ENCODING 239
SWIDTH 325 0
DWIDTH 5 0
BBX 4 10 0 0
BITMAP
90
90
00
E0
60
60
60
60
60
F0
ENDCHAR
STARTCHAR eth
ENCODING 240
SWIDTH 652 0
DWIDTH 9 0
BBX 8 11 1 0
BITMAP
0C
F8
3C
4E
3F
67
C3
C3
C3
66
3C
ENDCHAR
STARTCHAR ntilde
ENCODING 241
SWIDTH 654 0
DWIDTH 9 0
BBX 9 10 0 0
BITMAP
3A00
2E00
0000
EE00
7F00
6300
6300
6300
6300
F780
ENDCHAR
STARTCHAR ograve
ENCODING 242
SWIDTH 617 0
DWIDTH 9 0
BBX 8 10 0 0
BITMAP
30
08
00
3C
66
C3
C3
C3
66
3C
ENDCHAR
STARTCHAR oacute
ENCODING 243
SWIDTH 617 0
DWIDTH 9 0
BBX 8 10 0 0
BITMAP
0C
10
00
3C
66
C3
C3
C3
66
3C
ENDCHAR
STARTCHAR ocircumflex
ENCODING 244
SWIDTH 617 0
DWIDTH 9 0
BBX 8 10 0 0
BITMAP
1C
36
00
3C
66
C3
C3
C3
66
3C
ENDCHAR
STARTCHAR otilde
ENCODING 245
SWIDTH 617 0
DWIDTH 9 0
BBX 8 10 0 0
BITMAP
3A
2E
00
3C
66
C3
C3
C3
66
3C
ENDCHAR
STARTCHAR odieresis
ENCODING 246
SWIDTH 617 0
DWIDTH 9 0
BBX 8 10 0 0
BITMAP
24
24
00
3C
66
C3
C3
C3
66
3C
ENDCHAR
STARTCHAR divide
ENCODING 247
SWIDTH 623 0
DWIDTH 9 0
BBX 8 7 0 0
BITMAP
18
18
00
FF
00
18
18
ENDCHAR
STARTCHAR oslash
ENCODING 248
SWIDTH 617 0
DWIDTH 9 0
BBX 8 7 0 0
BITMAP
3D
66
C7
DB
E3
66
BC
ENDCHAR
STARTCHAR ugrave
ENCODING 249
SWIDTH 654 0
DWIDTH 9 0
BBX 9 10 0 0
BITMAP
1800
0400
0000
E700
6300
6300
6300
6300
7F00
3B80
ENDCHAR
STARTCHAR uacute
ENCODING 250
SWIDTH 654 0
DWIDTH 9 0
BBX 9 10 0 0
BITMAP
0600
0800
0000
E700
6300
6300
6300
6300
7F00
3B80
ENDCHAR
STARTCHAR ucircumflex
ENCODING 251
SWIDTH 654 0
DWIDTH 9 0
BBX 9 10 0 0
BITMAP
1C00
3600
0000
E700
6300
6300
6300
6300
7F00
3B80
ENDCHAR
STARTCHAR udieresis
ENCODING 252
SWIDTH 654 0
DWIDTH 9 0
BBX 9 10 0 0
BITMAP
1200
1200
0000
E700
6300
6300
6300
6300
7F00
3B80
ENDCHAR
STARTCHAR yacute
ENCODING 253
SWIDTH 654 0
DWIDTH 9 0
BBX 9 13 0 -3
BITMAP
0C00
1000
0000
F380
6100
3300
3200
1C00
1C00
1800
0800
1000
7000
ENDCHAR
STARTCHAR thorn
ENCODING 254
SWIDTH 652 0
DWIDTH 9 0
BBX 8 13 0 -3
BITMAP
E0
60
60
6E
7F
63
63
63
67
7E
60
60
F0
ENDCHAR
STARTCHAR ydieresis
ENCODING 255
SWIDTH 654 0
DWIDTH 9 0
BBX 9 13 0 -3
BITMAP
2400
2400
0000
F380
6100
3300
3200
1C00
1C00
1800
0800
1000
7000
ENDCHAR
ENDFONT
