STARTFONT 2.1
COMMENT AUTOMATICALLY GENERATED FILE. DO NOT EDIT!
COMMENT Generated with 'ucs2any.pl lubB12.bdf ../../../fonts/util/map-ISO8859-1 ISO8859-1'
COMMENT from an ISO10646-1 encoded source BDF font.
COMMENT ucs2any.pl by Markus Kuhn <mkuhn@acm.org>, 2000.
COMMENT $Xorg: $
COMMENT ISO10646-1 extension by Markus Kuhn <mkuhn@acm.org>, 2001-03-20
COMMENT  (c) Copyright Bigelow & Holmes 1986, 1985. Lucida is a registered
COMMENT  trademark of Bigelow & Holmes. See LEGAL NOTICE file for terms 
COMMENT  of the license. 
FONT -B&H-LucidaBright-DemiBold-R-Normal--17-120-100-100-P-101-ISO8859-1
SIZE 12 100 100
FONTBOUNDINGBOX 27 19 -11 -3
STARTPROPERTIES 22
COMMENT Begin LogicalFontDescription
FONTNAME_REGISTRY ""
FOUNDRY "B&H"
FAMILY_NAME "LucidaBright"
WEIGHT_NAME "DemiBold"
SLANT "R"
SETWIDTH_NAME "Normal"
ADD_STYLE_NAME ""
PIXEL_SIZE 17
POINT_SIZE 120
RESOLUTION_X 100
RESOLUTION_Y 100
SPACING "P"
AVERAGE_WIDTH 101
CHARSET_REGISTRY "ISO8859"
CHARSET_ENCODING "1"
COMMENT END LogicalFontDescription
FONT_ASCENT 15
FONT_DESCENT 4
DEFAULT_CHAR 0
COPYRIGHT "Copyright Bigelow & Holmes 1986, 1985."
FACE_NAME "Lucida Bright Demibold"
X_HEIGHT 9
CAP_HEIGHT 13
ENDPROPERTIES
CHARS 192
STARTCHAR defaultchar
ENCODING 0
SWIDTH 798 0
DWIDTH 14 0
BBX 11 13 1 0
BITMAP
AAA0
0000
8020
0000
8020
0000
8020
0000
8020
0000
8020
0000
AAA0
ENDCHAR
STARTCHAR space
ENCODING 32
SWIDTH 333 0
DWIDTH 6 0
BBX 1 1 0 0
BITMAP
00
ENDCHAR
STARTCHAR exclam
ENCODING 33
SWIDTH 265 0
DWIDTH 4 0
BBX 2 13 1 0
BITMAP
C0
C0
C0
C0
C0
C0
40
40
40
00
00
C0
C0
ENDCHAR
STARTCHAR quotedbl
ENCODING 34
SWIDTH 461 0
DWIDTH 8 0
BBX 6 5 1 8
BITMAP
CC
CC
CC
48
48
ENDCHAR
STARTCHAR numbersign
ENCODING 35
SWIDTH 663 0
DWIDTH 11 0
BBX 11 13 0 0
BITMAP
0480
0880
0880
0880
7FE0
1100
1100
1100
FFC0
2200
2200
2200
2400
ENDCHAR
STARTCHAR dollar
ENCODING 36
SWIDTH 623 0
DWIDTH 11 0
BBX 7 15 2 -1
BITMAP
10
7E
D2
D2
D0
F0
70
38
1C
16
16
96
D6
FC
10
ENDCHAR
STARTCHAR percent
ENCODING 37
SWIDTH 759 0
DWIDTH 13 0
BBX 13 13 0 0
BITMAP
7818
8420
8460
84C0
8480
8500
7A00
04F0
0908
1908
3108
2108
C0F0
ENDCHAR
STARTCHAR ampersand
ENCODING 38
SWIDTH 765 0
DWIDTH 13 0
BBX 13 13 0 0
BITMAP
1F00
3180
3180
3180
1B00
3C00
6E78
CE30
C720
C3E0
C1C0
60E0
3FF8
ENDCHAR
STARTCHAR quotesingle
ENCODING 39
SWIDTH 253 0
DWIDTH 4 0
BBX 3 5 1 8
BITMAP
E0
E0
E0
40
40
ENDCHAR
STARTCHAR parenleft
ENCODING 40
SWIDTH 327 0
DWIDTH 6 0
BBX 4 16 1 -3
BITMAP
10
20
20
40
40
C0
C0
C0
C0
C0
C0
40
40
20
20
10
ENDCHAR
STARTCHAR parenright
ENCODING 41
SWIDTH 327 0
DWIDTH 6 0
BBX 4 16 1 -3
BITMAP
80
40
40
20
20
30
30
30
30
30
30
20
20
40
40
80
ENDCHAR
STARTCHAR asterisk
ENCODING 42
SWIDTH 434 0
DWIDTH 7 0
BBX 7 5 0 8
BITMAP
10
D6
6C
28
6C
ENDCHAR
STARTCHAR plus
ENCODING 43
SWIDTH 623 0
DWIDTH 11 0
BBX 9 11 1 0
BITMAP
0800
0800
0800
0800
0800
FF80
0800
0800
0800
0800
0800
ENDCHAR
STARTCHAR comma
ENCODING 44
SWIDTH 265 0
DWIDTH 4 0
BBX 3 6 1 -3
BITMAP
E0
E0
E0
20
20
C0
ENDCHAR
STARTCHAR hyphen
ENCODING 45
SWIDTH 289 0
DWIDTH 5 0
BBX 4 1 0 5
BITMAP
F0
ENDCHAR
STARTCHAR period
ENCODING 46
SWIDTH 265 0
DWIDTH 4 0
BBX 3 2 1 0
BITMAP
E0
E0
ENDCHAR
STARTCHAR slash
ENCODING 47
SWIDTH 527 0
DWIDTH 9 0
BBX 9 16 0 -3
BITMAP
0080
0100
0100
0200
0200
0400
0400
0800
0800
1000
1000
2000
2000
4000
4000
8000
ENDCHAR
STARTCHAR zero
ENCODING 48
SWIDTH 623 0
DWIDTH 11 0
BBX 10 13 0 0
BITMAP
1E00
3300
6180
4080
C0C0
C0C0
C0C0
C0C0
C0C0
4080
6180
3300
1E00
ENDCHAR
STARTCHAR one
ENCODING 49
SWIDTH 623 0
DWIDTH 11 0
BBX 6 13 2 0
BITMAP
F0
30
30
30
30
30
30
30
30
30
30
30
FC
ENDCHAR
STARTCHAR two
ENCODING 50
SWIDTH 623 0
DWIDTH 11 0
BBX 8 13 1 0
BITMAP
7C
C6
83
03
03
02
06
08
10
20
40
FF
FF
ENDCHAR
STARTCHAR three
ENCODING 51
SWIDTH 623 0
DWIDTH 11 0
BBX 7 13 2 0
BITMAP
F8
8E
86
06
04
08
78
0C
06
06
86
8C
F8
ENDCHAR
STARTCHAR four
ENCODING 52
SWIDTH 623 0
DWIDTH 11 0
BBX 9 13 1 0
BITMAP
0300
0700
0B00
1B00
1300
2300
4300
C300
FF80
0300
0300
0300
0780
ENDCHAR
STARTCHAR five
ENCODING 53
SWIDTH 623 0
DWIDTH 11 0
BBX 7 13 2 0
BITMAP
FE
80
80
80
F8
1C
0E
06
06
06
86
8C
F8
ENDCHAR
STARTCHAR six
ENCODING 54
SWIDTH 623 0
DWIDTH 11 0
BBX 9 13 1 0
BITMAP
1F00
3100
6100
C000
C000
DE00
E300
C180
C180
C180
4180
6300
1E00
ENDCHAR
STARTCHAR seven
ENCODING 55
SWIDTH 623 0
DWIDTH 11 0
BBX 8 13 2 0
BITMAP
FF
FF
03
06
04
0C
18
18
30
30
60
60
60
ENDCHAR
STARTCHAR eight
ENCODING 56
SWIDTH 623 0
DWIDTH 11 0
BBX 9 13 1 0
BITMAP
3E00
6380
C180
C180
F100
7E00
3E00
4700
C380
C180
C180
6300
3E00
ENDCHAR
STARTCHAR nine
ENCODING 57
SWIDTH 623 0
DWIDTH 11 0
BBX 9 13 1 0
BITMAP
3C00
6300
C100
C180
C180
C180
6380
3D80
0180
0180
4300
4600
7C00
ENDCHAR
STARTCHAR colon
ENCODING 58
SWIDTH 265 0
DWIDTH 4 0
BBX 2 9 1 0
BITMAP
C0
C0
00
00
00
00
00
C0
C0
ENDCHAR
STARTCHAR semicolon
ENCODING 59
SWIDTH 265 0
DWIDTH 4 0
BBX 2 12 1 -3
BITMAP
C0
C0
00
00
00
00
00
C0
C0
40
40
80
ENDCHAR
STARTCHAR less
ENCODING 60
SWIDTH 623 0
DWIDTH 11 0
BBX 10 11 0 0
BITMAP
0040
00C0
0300
0C00
3000
C000
3000
0C00
0300
00C0
0040
ENDCHAR
STARTCHAR equal
ENCODING 61
SWIDTH 623 0
DWIDTH 11 0
BBX 10 5 0 2
BITMAP
FFC0
0000
0000
0000
FFC0
ENDCHAR
STARTCHAR greater
ENCODING 62
SWIDTH 623 0
DWIDTH 11 0
BBX 10 11 0 0
BITMAP
8000
C000
3000
0C00
0300
00C0
0300
0C00
3000
C000
8000
ENDCHAR
STARTCHAR question
ENCODING 63
SWIDTH 505 0
DWIDTH 9 0
BBX 7 13 1 0
BITMAP
F8
CE
86
06
04
08
10
10
30
00
00
30
30
ENDCHAR
STARTCHAR at
ENCODING 64
SWIDTH 861 0
DWIDTH 15 0
BBX 13 13 1 0
BITMAP
07C0
1830
3010
6708
4888
8988
9188
9318
9730
9DE0
4000
6100
1E00
ENDCHAR
STARTCHAR A
ENCODING 65
SWIDTH 795 0
DWIDTH 14 0
BBX 14 13 0 0
BITMAP
0200
0300
0700
0580
0D80
09C0
08C0
10E0
1FE0
2070
2030
4038
E07C
ENDCHAR
STARTCHAR B
ENCODING 66
SWIDTH 639 0
DWIDTH 11 0
BBX 9 13 1 0
BITMAP
FF00
6380
6180
6180
6180
6300
7E00
6300
6180
6180
6180
6380
FE00
ENDCHAR
STARTCHAR C
ENCODING 67
SWIDTH 711 0
DWIDTH 12 0
BBX 11 13 0 0
BITMAP
0FE0
3060
6020
6000
C000
C000
C000
C000
C000
6000
6000
3820
0FC0
ENDCHAR
STARTCHAR D
ENCODING 68
SWIDTH 794 0
DWIDTH 13 0
BBX 12 13 1 0
BITMAP
FF80
60C0
6060
6030
6030
6030
6030
6030
6030
6020
6060
60C0
FF80
ENDCHAR
STARTCHAR E
ENCODING 69
SWIDTH 601 0
DWIDTH 10 0
BBX 9 13 1 0
BITMAP
FF00
6100
6000
6000
6000
6200
7E00
6200
6000
6000
6000
6080
FF80
ENDCHAR
STARTCHAR F
ENCODING 70
SWIDTH 584 0
DWIDTH 10 0
BBX 8 13 1 0
BITMAP
FF
61
60
60
60
62
7E
62
60
60
60
60
F8
ENDCHAR
STARTCHAR G
ENCODING 71
SWIDTH 753 0
DWIDTH 13 0
BBX 12 13 1 0
BITMAP
0FE0
3860
6020
6000
C000
C000
C000
C0F0
C060
6060
6060
3860
0FE0
ENDCHAR
STARTCHAR H
ENCODING 72
SWIDTH 798 0
DWIDTH 14 0
BBX 12 13 1 0
BITMAP
F0F0
6060
6060
6060
6060
6060
7FE0
6060
6060
6060
6060
6060
F0F0
ENDCHAR
STARTCHAR I
ENCODING 73
SWIDTH 349 0
DWIDTH 6 0
BBX 4 13 1 0
BITMAP
F0
60
60
60
60
60
60
60
60
60
60
60
F0
ENDCHAR
STARTCHAR J
ENCODING 74
SWIDTH 452 0
DWIDTH 8 0
BBX 7 16 0 -3
BITMAP
1E
0C
0C
0C
0C
0C
0C
0C
0C
0C
0C
0C
0C
8C
88
F0
ENDCHAR
STARTCHAR K
ENCODING 75
SWIDTH 747 0
DWIDTH 13 0
BBX 12 13 1 0
BITMAP
F1E0
60C0
6100
6200
6400
7800
7800
6C00
6600
6300
6380
61C0
F3F0
ENDCHAR
STARTCHAR L
ENCODING 76
SWIDTH 584 0
DWIDTH 10 0
BBX 9 13 1 0
BITMAP
F000
6000
6000
6000
6000
6000
6000
6000
6000
6000
6080
6080
FF80
ENDCHAR
STARTCHAR M
ENCODING 77
SWIDTH 904 0
DWIDTH 15 0
BBX 14 13 1 0
BITMAP
F03C
7038
7838
5878
5858
4CD8
4C98
4698
4718
4718
4218
4018
E03C
ENDCHAR
STARTCHAR N
ENCODING 78
SWIDTH 788 0
DWIDTH 13 0
BBX 12 13 1 0
BITMAP
E070
7020
7020
5820
5C20
4E20
4620
4320
43A0
41A0
40E0
4060
E060
ENDCHAR
STARTCHAR O
ENCODING 79
SWIDTH 810 0
DWIDTH 14 0
BBX 12 13 1 0
BITMAP
1F80
30C0
6060
6060
C030
C030
C030
C030
C030
6060
6060
30C0
1F80
ENDCHAR
STARTCHAR P
ENCODING 80
SWIDTH 614 0
DWIDTH 10 0
BBX 9 13 1 0
BITMAP
FF00
6380
6180
6180
6180
6180
6300
7C00
6000
6000
6000
6000
F800
ENDCHAR
STARTCHAR Q
ENCODING 81
SWIDTH 810 0
DWIDTH 14 0
BBX 14 16 1 -3
BITMAP
1F80
30C0
6060
6060
C030
C030
C030
C030
C030
6070
6060
30E0
1F80
00E0
0078
001C
ENDCHAR
STARTCHAR R
ENCODING 82
SWIDTH 720 0
DWIDTH 12 0
BBX 11 13 1 0
BITMAP
FF00
6380
6180
6180
6180
6300
7F00
6600
6700
6300
6380
6180
F0E0
ENDCHAR
STARTCHAR S
ENCODING 83
SWIDTH 556 0
DWIDTH 9 0
BBX 8 13 1 0
BITMAP
3E
62
C2
C0
E0
78
3C
0E
03
03
83
C6
FC
ENDCHAR
STARTCHAR T
ENCODING 84
SWIDTH 714 0
DWIDTH 12 0
BBX 10 13 1 0
BITMAP
FFC0
8C40
0C00
0C00
0C00
0C00
0C00
0C00
0C00
0C00
0C00
0C00
3F00
ENDCHAR
STARTCHAR U
ENCODING 85
SWIDTH 747 0
DWIDTH 13 0
BBX 12 13 0 0
BITMAP
F070
6020
6020
6020
6020
6020
6020
6020
6020
6020
6020
3040
1F80
ENDCHAR
STARTCHAR V
ENCODING 86
SWIDTH 753 0
DWIDTH 13 0
BBX 13 13 0 0
BITMAP
F878
7010
3020
3820
1860
1C40
0C40
0C80
0680
0780
0700
0300
0200
ENDCHAR
STARTCHAR W
ENCODING 87
SWIDTH 955 0
DWIDTH 16 0
BBX 16 13 0 0
BITMAP
F887
7082
31C4
31C4
31C4
3AC4
1A68
1A68
1C68
1C30
0C30
0C30
0830
ENDCHAR
STARTCHAR X
ENCODING 88
SWIDTH 702 0
DWIDTH 12 0
BBX 12 13 0 0
BITMAP
FC70
3860
1840
1880
0D80
0F00
0600
0B00
1380
1180
21C0
60E0
F1F0
ENDCHAR
STARTCHAR Y
ENCODING 89
SWIDTH 717 0
DWIDTH 12 0
BBX 12 13 0 0
BITMAP
FCF0
7020
3840
18C0
0C80
0D00
0700
0600
0600
0600
0600
0600
0F00
ENDCHAR
STARTCHAR Z
ENCODING 90
SWIDTH 639 0
DWIDTH 11 0
BBX 9 13 1 0
BITMAP
FF80
C300
8300
0600
0E00
0C00
1C00
1800
3800
3000
6080
6080
FF80
ENDCHAR
STARTCHAR bracketleft
ENCODING 91
SWIDTH 327 0
DWIDTH 6 0
BBX 4 16 1 -3
BITMAP
F0
C0
C0
C0
C0
C0
C0
C0
C0
C0
C0
C0
C0
C0
C0
F0
ENDCHAR
STARTCHAR backslash
ENCODING 92
SWIDTH 527 0
DWIDTH 9 0
BBX 9 16 0 -3
BITMAP
C000
4000
4000
2000
2000
1000
1000
0800
0800
0400
0400
0200
0200
0100
0100
0080
ENDCHAR
STARTCHAR bracketright
ENCODING 93
SWIDTH 327 0
DWIDTH 6 0
BBX 4 16 1 -3
BITMAP
F0
30
30
30
30
30
30
30
30
30
30
30
30
30
30
F0
ENDCHAR
STARTCHAR asciicircum
ENCODING 94
SWIDTH 623 0
DWIDTH 11 0
BBX 10 11 0 2
BITMAP
0400
0C00
0C00
0C00
1200
1200
2100
2100
4080
4080
8040
ENDCHAR
STARTCHAR underscore
ENCODING 95
SWIDTH 500 0
DWIDTH 8 0
BBX 7 1 1 -1
BITMAP
FE
ENDCHAR
STARTCHAR grave
ENCODING 96
SWIDTH 617 0
DWIDTH 10 0
BBX 4 2 3 11
BITMAP
E0
30
ENDCHAR
STARTCHAR a
ENCODING 97
SWIDTH 556 0
DWIDTH 9 0
BBX 8 9 1 0
BITMAP
7C
46
46
06
7E
E6
C6
C6
7F
ENDCHAR
STARTCHAR b
ENCODING 98
SWIDTH 640 0
DWIDTH 11 0
BBX 10 13 0 0
BITMAP
E000
6000
6000
6000
6F00
7180
60C0
60C0
60C0
60C0
60C0
7180
6F00
ENDCHAR
STARTCHAR c
ENCODING 99
SWIDTH 541 0
DWIDTH 9 0
BBX 8 9 0 0
BITMAP
3F
61
C1
C0
C0
C0
C0
60
3F
ENDCHAR
STARTCHAR d
ENCODING 100
SWIDTH 652 0
DWIDTH 11 0
BBX 10 13 1 0
BITMAP
0380
0180
0180
0180
3D80
6380
C180
C180
C180
C180
C180
6380
3DC0
ENDCHAR
STARTCHAR e
ENCODING 101
SWIDTH 568 0
DWIDTH 10 0
BBX 8 9 1 0
BITMAP
3C
62
C3
C3
FF
C0
C0
61
3F
ENDCHAR
STARTCHAR f
ENCODING 102
SWIDTH 416 0
DWIDTH 7 0
BBX 6 13 1 0
BITMAP
3C
64
64
60
F8
60
60
60
60
60
60
60
F0
ENDCHAR
STARTCHAR g
ENCODING 103
SWIDTH 599 0
DWIDTH 10 0
BBX 10 12 0 -3
BITMAP
1FC0
63C0
6300
6300
6300
3E00
2000
6000
3F80
C180
C380
7E00
ENDCHAR
STARTCHAR h
ENCODING 104
SWIDTH 654 0
DWIDTH 11 0
BBX 10 13 1 0
BITMAP
E000
6000
6000
6000
6F00
7180
6180
6180
6180
6180
6180
6180
F3C0
ENDCHAR
STARTCHAR i
ENCODING 105
SWIDTH 325 0
DWIDTH 6 0
BBX 4 13 1 0
BITMAP
60
60
00
00
E0
60
60
60
60
60
60
60
F0
ENDCHAR
STARTCHAR j
ENCODING 106
SWIDTH 355 0
DWIDTH 6 0
BBX 6 16 0 -3
BITMAP
0C
0C
00
00
3C
0C
0C
0C
0C
0C
0C
0C
0C
8C
8C
F8
ENDCHAR
STARTCHAR k
ENCODING 107
SWIDTH 654 0
DWIDTH 11 0
BBX 11 13 0 0
BITMAP
E000
6000
6000
6000
63C0
6180
6600
6C00
7C00
6E00
6700
6380
F1E0
ENDCHAR
STARTCHAR l
ENCODING 108
SWIDTH 325 0
DWIDTH 6 0
BBX 4 13 1 0
BITMAP
E0
60
60
60
60
60
60
60
60
60
60
60
F0
ENDCHAR
STARTCHAR m
ENCODING 109
SWIDTH 967 0
DWIDTH 16 0
BBX 16 9 0 0
BITMAP
EF3C
71C6
6186
6186
6186
6186
6186
6186
F3CF
ENDCHAR
STARTCHAR n
ENCODING 110
SWIDTH 654 0
DWIDTH 11 0
BBX 10 9 1 0
BITMAP
EF00
7180
6180
6180
6180
6180
6180
6180
F3C0
ENDCHAR
STARTCHAR o
ENCODING 111
SWIDTH 617 0
DWIDTH 10 0
BBX 9 9 1 0
BITMAP
3E00
6300
C180
C180
C180
C180
C180
6300
3E00
ENDCHAR
STARTCHAR p
ENCODING 112
SWIDTH 652 0
DWIDTH 11 0
BBX 10 12 0 -3
BITMAP
EF00
7180
60C0
60C0
60C0
60C0
60C0
7180
6F00
6000
6000
F000
ENDCHAR
STARTCHAR q
ENCODING 113
SWIDTH 640 0
DWIDTH 11 0
BBX 10 12 1 -3
BITMAP
3D80
6380
C180
C180
C180
C180
C180
6380
3D80
0180
0180
03C0
ENDCHAR
STARTCHAR r
ENCODING 114
SWIDTH 462 0
DWIDTH 8 0
BBX 6 9 1 0
BITMAP
EC
74
64
60
60
60
60
60
F8
ENDCHAR
STARTCHAR s
ENCODING 115
SWIDTH 525 0
DWIDTH 9 0
BBX 7 9 1 0
BITMAP
7C
C4
C4
F0
7C
1E
86
86
FC
ENDCHAR
STARTCHAR t
ENCODING 116
SWIDTH 389 0
DWIDTH 7 0
BBX 5 12 1 0
BITMAP
60
60
60
F8
60
60
60
60
60
60
60
38
ENDCHAR
STARTCHAR u
ENCODING 117
SWIDTH 654 0
DWIDTH 11 0
BBX 10 9 0 0
BITMAP
E380
6180
6180
6180
6180
6180
6180
6380
3DC0
ENDCHAR
STARTCHAR v
ENCODING 118
SWIDTH 657 0
DWIDTH 11 0
BBX 11 9 0 0
BITMAP
F8E0
7040
3080
1880
1900
0D00
0E00
0600
0400
ENDCHAR
STARTCHAR w
ENCODING 119
SWIDTH 880 0
DWIDTH 15 0
BBX 15 9 0 0
BITMAP
F98E
7184
31C8
32C8
3AD8
1C70
1C70
0C60
0820
ENDCHAR
STARTCHAR x
ENCODING 120
SWIDTH 608 0
DWIDTH 10 0
BBX 10 9 0 0
BITMAP
FBC0
7180
3B00
1E00
0C00
1600
3700
6380
E7C0
ENDCHAR
STARTCHAR y
ENCODING 121
SWIDTH 654 0
DWIDTH 11 0
BBX 11 12 0 -3
BITMAP
F8E0
7040
3080
1880
1900
1F00
0E00
0C00
0400
0800
1800
3000
ENDCHAR
STARTCHAR z
ENCODING 122
SWIDTH 584 0
DWIDTH 10 0
BBX 8 9 1 0
BITMAP
FF
86
0E
1C
18
30
70
61
FF
ENDCHAR
STARTCHAR braceleft
ENCODING 123
SWIDTH 366 0
DWIDTH 6 0
BBX 4 16 1 -3
BITMAP
30
60
60
60
60
60
60
C0
40
60
60
60
60
60
60
30
ENDCHAR
STARTCHAR bar
ENCODING 124
SWIDTH 259 0
DWIDTH 4 0
BBX 1 16 2 -3
BITMAP
80
80
80
80
80
80
80
80
80
80
80
80
80
80
80
80
ENDCHAR
STARTCHAR braceright
ENCODING 125
SWIDTH 366 0
DWIDTH 6 0
BBX 4 16 1 -3
BITMAP
C0
60
60
60
60
60
60
30
20
60
60
60
60
60
60
C0
ENDCHAR
STARTCHAR asciitilde
ENCODING 126
SWIDTH 623 0
DWIDTH 11 0
BBX 10 4 0 3
BITMAP
7040
8840
8440
8380
ENDCHAR
STARTCHAR space
ENCODING 160
SWIDTH 333 0
DWIDTH 6 0
BBX 1 1 0 0
BITMAP
00
ENDCHAR
STARTCHAR exclamdown
ENCODING 161
SWIDTH 265 0
DWIDTH 4 0
BBX 2 12 1 -3
BITMAP
C0
C0
00
40
40
40
C0
C0
C0
C0
C0
C0
ENDCHAR
STARTCHAR cent
ENCODING 162
SWIDTH 623 0
DWIDTH 11 0
BBX 8 13 1 0
BITMAP
08
3F
69
49
C8
C8
C8
C8
C8
48
68
3F
08
ENDCHAR
STARTCHAR sterling
ENCODING 163
SWIDTH 623 0
DWIDTH 11 0
BBX 8 13 2 0
BITMAP
0F
11
31
30
30
30
FC
30
30
30
60
FF
FF
ENDCHAR
STARTCHAR currency
ENCODING 164
SWIDTH 623 0
DWIDTH 11 0
BBX 11 11 0 1
BITMAP
8020
4040
3F80
3180
2080
2080
2080
3180
3F80
4040
8020
ENDCHAR
STARTCHAR yen
ENCODING 165
SWIDTH 623 0
DWIDTH 11 0
BBX 10 13 1 0
BITMAP
F9C0
7080
3080
3100
1900
1A00
0C00
3F00
0C00
3F00
0C00
0C00
1E00
ENDCHAR
STARTCHAR brokenbar
ENCODING 166
SWIDTH 259 0
DWIDTH 4 0
BBX 1 16 2 -3
BITMAP
80
80
80
80
80
80
80
00
00
80
80
80
80
80
80
80
ENDCHAR
STARTCHAR section
ENCODING 167
SWIDTH 623 0
DWIDTH 11 0
BBX 8 16 1 -3
BITMAP
3E
E2
C2
C0
F0
7C
9F
83
C1
F9
3E
0F
03
83
C7
FC
ENDCHAR
STARTCHAR dieresis
ENCODING 168
SWIDTH 617 0
DWIDTH 10 0
BBX 5 1 3 12
BITMAP
D8
ENDCHAR
STARTCHAR copyright
ENCODING 169
SWIDTH 855 0
DWIDTH 15 0
BBX 13 13 1 0
BITMAP
0F80
3040
6020
4790
8888
9008
9008
9008
8808
4790
6030
3060
0F80
ENDCHAR
STARTCHAR ordfeminine
ENCODING 170
SWIDTH 488 0
DWIDTH 8 0
BBX 7 7 1 6
BITMAP
F8
8C
0C
7C
CC
CC
7E
ENDCHAR
STARTCHAR guillemotleft
ENCODING 171
SWIDTH 566 0
DWIDTH 10 0
BBX 8 7 1 1
BITMAP
11
32
66
CC
66
32
11
ENDCHAR
STARTCHAR logicalnot
ENCODING 172
SWIDTH 623 0
DWIDTH 11 0
BBX 10 5 0 2
BITMAP
FFC0
0040
0040
0040
0040
ENDCHAR
STARTCHAR hyphen
ENCODING 173
SWIDTH 289 0
DWIDTH 5 0
BBX 4 1 0 5
BITMAP
F0
ENDCHAR
STARTCHAR registered
ENCODING 174
SWIDTH 623 0
DWIDTH 11 0
BBX 9 9 1 4
BITMAP
3E00
6300
DF80
9280
9C80
9480
D780
6300
3E00
ENDCHAR
STARTCHAR macron
ENCODING 175
SWIDTH 617 0
DWIDTH 10 0
BBX 5 1 3 12
BITMAP
F8
ENDCHAR
STARTCHAR degree
ENCODING 176
SWIDTH 259 0
DWIDTH 4 0
BBX 3 4 1 9
BITMAP
40
A0
A0
40
ENDCHAR
STARTCHAR plusminus
ENCODING 177
SWIDTH 623 0
DWIDTH 11 0
BBX 9 11 1 0
BITMAP
0800
0800
0800
0800
FF80
0800
0800
0800
0800
0000
FF80
ENDCHAR
STARTCHAR twosuperior
ENCODING 178
SWIDTH 374 0
DWIDTH 6 0
BBX 4 8 -10 5
BITMAP
E0
90
10
10
20
40
80
F0
ENDCHAR
STARTCHAR threesuperior
ENCODING 179
SWIDTH 374 0
DWIDTH 6 0
BBX 4 8 -10 5
BITMAP
E0
90
10
60
10
10
90
E0
ENDCHAR
STARTCHAR acute
ENCODING 180
SWIDTH 617 0
DWIDTH 10 0
BBX 4 2 4 11
BITMAP
70
C0
ENDCHAR
STARTCHAR mu
ENCODING 181
SWIDTH 705 0
DWIDTH 12 0
BBX 10 12 1 -3
BITMAP
E380
6180
6180
6180
6180
6180
6180
6380
7DC0
6000
6000
6000
ENDCHAR
STARTCHAR paragraph
ENCODING 182
SWIDTH 623 0
DWIDTH 11 0
BBX 6 16 2 -3
BITMAP
7C
F4
F4
F4
F4
74
34
14
14
14
14
14
14
14
14
14
ENDCHAR
STARTCHAR periodcentered
ENCODING 183
SWIDTH 623 0
DWIDTH 11 0
BBX 2 2 4 4
BITMAP
C0
C0
ENDCHAR
STARTCHAR cedilla
ENCODING 184
SWIDTH 617 0
DWIDTH 10 0
BBX 3 3 4 -3
BITMAP
C0
20
E0
ENDCHAR
STARTCHAR onesuperior
ENCODING 185
SWIDTH 374 0
DWIDTH 6 0
BBX 3 8 -11 5
BITMAP
C0
40
40
40
40
40
40
E0
ENDCHAR
STARTCHAR ordmasculine
ENCODING 186
SWIDTH 488 0
DWIDTH 8 0
BBX 7 7 1 6
BITMAP
38
6C
C6
C6
C6
6C
38
ENDCHAR
STARTCHAR guillemotright
ENCODING 187
SWIDTH 566 0
DWIDTH 10 0
BBX 8 7 1 1
BITMAP
88
4C
66
33
66
4C
88
ENDCHAR
STARTCHAR onequarter
ENCODING 188
SWIDTH 803 0
DWIDTH 14 0
BBX 12 13 3 0
BITMAP
C060
40C0
4080
4100
4300
4260
44E0
E9A0
1B20
13F0
2020
6020
C070
ENDCHAR
STARTCHAR onehalf
ENCODING 189
SWIDTH 803 0
DWIDTH 14 0
BBX 11 13 3 0
BITMAP
C060
40C0
4080
4100
4300
43C0
4520
E820
1820
1040
2080
6100
C1E0
ENDCHAR
STARTCHAR threequarters
ENCODING 190
SWIDTH 803 0
DWIDTH 14 0
BBX 12 13 3 0
BITMAP
E060
90C0
1080
6100
1300
1260
94E0
E9A0
1B20
13F0
2020
6020
C070
ENDCHAR
STARTCHAR questiondown
ENCODING 191
SWIDTH 505 0
DWIDTH 9 0
BBX 7 12 1 -3
BITMAP
18
18
00
18
18
10
20
40
C0
C2
E6
3E
ENDCHAR
STARTCHAR Agrave
ENCODING 192
SWIDTH 795 0
DWIDTH 14 0
BBX 14 16 0 0
BITMAP
0E00
0300
0000
0200
0300
0700
0580
0D80
09C0
08C0
10E0
1FE0
2070
2030
4038
E07C
ENDCHAR
STARTCHAR Aacute
ENCODING 193
SWIDTH 795 0
DWIDTH 14 0
BBX 14 16 0 0
BITMAP
01C0
0300
0000
0200
0300
0700
0580
0D80
09C0
08C0
10E0
1FE0
2070
2030
4038
E07C
ENDCHAR
STARTCHAR Acircumflex
ENCODING 194
SWIDTH 795 0
DWIDTH 14 0
BBX 14 16 0 0
BITMAP
0780
0CC0
0000
0200
0300
0700
0580
0D80
09C0
08C0
10E0
1FE0
2070
2030
4038
E07C
ENDCHAR
STARTCHAR Atilde
ENCODING 195
SWIDTH 795 0
DWIDTH 14 0
BBX 14 16 0 0
BITMAP
0740
0B80
0000
0200
0300
0700
0580
0D80
09C0
08C0
10E0
1FE0
2070
2030
4038
E07C
ENDCHAR
STARTCHAR Adieresis
ENCODING 196
SWIDTH 795 0
DWIDTH 14 0
BBX 14 15 0 0
BITMAP
06C0
0000
0200
0300
0700
0580
0D80
09C0
08C0
10E0
1FE0
2070
2030
4038
E07C
ENDCHAR
STARTCHAR Aring
ENCODING 197
SWIDTH 795 0
DWIDTH 14 0
BBX 14 16 0 0
BITMAP
0380
0380
0000
0200
0300
0700
0580
0D80
09C0
08C0
10E0
1FE0
2070
2030
4038
E07C
ENDCHAR
STARTCHAR AE
ENCODING 198
SWIDTH 959 0
DWIDTH 16 0
BBX 16 13 0 0
BITMAP
00FF
01C1
03C0
02C0
04C2
04FE
08C2
10C0
1FC0
20C0
20C0
40C1
E1FF
ENDCHAR
STARTCHAR Ccedilla
ENCODING 199
SWIDTH 711 0
DWIDTH 12 0
BBX 11 16 0 -3
BITMAP
0FE0
3060
6020
6000
C000
C000
C000
C000
C000
6000
6000
3820
0FC0
0400
0200
0E00
ENDCHAR
STARTCHAR Egrave
ENCODING 200
SWIDTH 601 0
DWIDTH 10 0
BBX 9 16 1 0
BITMAP
3800
0C00
0000
FF00
6100
6000
6000
6000
6200
7E00
6200
6000
6000
6000
6080
FF80
ENDCHAR
STARTCHAR Eacute
ENCODING 201
SWIDTH 601 0
DWIDTH 10 0
BBX 9 16 1 0
BITMAP
0E00
1800
0000
FF00
6100
6000
6000
6000
6200
7E00
6200
6000
6000
6000
6080
FF80
ENDCHAR
STARTCHAR Ecircumflex
ENCODING 202
SWIDTH 601 0
DWIDTH 10 0
BBX 9 16 1 0
BITMAP
1E00
3300
0000
FF00
6100
6000
6000
6000
6200
7E00
6200
6000
6000
6000
6080
FF80
ENDCHAR
STARTCHAR Edieresis
ENCODING 203
SWIDTH 601 0
DWIDTH 10 0
BBX 9 15 1 0
BITMAP
3600
0000
FF00
6100
6000
6000
6000
6200
7E00
6200
6000
6000
6000
6080
FF80
ENDCHAR
STARTCHAR Igrave
ENCODING 204
SWIDTH 349 0
DWIDTH 6 0
BBX 5 16 2 0
BITMAP
E0
30
00
78
30
30
30
30
30
30
30
30
30
30
30
78
ENDCHAR
STARTCHAR Iacute
ENCODING 205
SWIDTH 349 0
DWIDTH 6 0
BBX 5 16 1 0
BITMAP
38
60
00
F0
60
60
60
60
60
60
60
60
60
60
60
F0
ENDCHAR
STARTCHAR Icircumflex
ENCODING 206
SWIDTH 349 0
DWIDTH 6 0
BBX 6 16 2 0
BITMAP
78
CC
00
78
30
30
30
30
30
30
30
30
30
30
30
78
ENDCHAR
STARTCHAR Idieresis
ENCODING 207
SWIDTH 349 0
DWIDTH 6 0
BBX 5 15 2 0
BITMAP
D8
00
78
30
30
30
30
30
30
30
30
30
30
30
78
ENDCHAR
STARTCHAR Eth
ENCODING 208
SWIDTH 794 0
DWIDTH 13 0
BBX 13 13 0 0
BITMAP
FFC0
3060
3030
3018
3018
3018
FE18
3018
3018
3010
3030
3060
FFC0
ENDCHAR
STARTCHAR Ntilde
ENCODING 209
SWIDTH 788 0
DWIDTH 13 0
BBX 12 16 1 0
BITMAP
0E80
1700
0000
E070
7020
7020
5820
5C20
4E20
4620
4320
43A0
41A0
40E0
4060
E060
ENDCHAR
STARTCHAR Ograve
ENCODING 210
SWIDTH 810 0
DWIDTH 14 0
BBX 12 16 1 0
BITMAP
1C00
0600
0000
1F80
30C0
6060
6060
C030
C030
C030
C030
C030
6060
6060
30C0
1F80
ENDCHAR
STARTCHAR Oacute
ENCODING 211
SWIDTH 810 0
DWIDTH 14 0
BBX 12 16 1 0
BITMAP
0380
0600
0000
1F80
30C0
6060
6060
C030
C030
C030
C030
C030
6060
6060
30C0
1F80
ENDCHAR
STARTCHAR Ocircumflex
ENCODING 212
SWIDTH 810 0
DWIDTH 14 0
BBX 12 16 1 0
BITMAP
0F00
1980
0000
1F80
30C0
6060
6060
C030
C030
C030
C030
C030
6060
6060
30C0
1F80
ENDCHAR
STARTCHAR Otilde
ENCODING 213
SWIDTH 810 0
DWIDTH 14 0
BBX 12 16 1 0
BITMAP
0E80
1700
0000
1F80
30C0
6060
6060
C030
C030
C030
C030
C030
6060
6060
30C0
1F80
ENDCHAR
STARTCHAR Odieresis
ENCODING 214
SWIDTH 810 0
DWIDTH 14 0
BBX 12 15 1 0
BITMAP
1B00
0000
1F80
30C0
6060
6060
C030
C030
C030
C030
C030
6060
6060
30C0
1F80
ENDCHAR
STARTCHAR multiply
ENCODING 215
SWIDTH 623 0
DWIDTH 11 0
BBX 10 11 0 0
BITMAP
8040
40C0
2100
1300
1E00
0C00
1E00
3200
2100
C080
8040
ENDCHAR
STARTCHAR Oslash
ENCODING 216
SWIDTH 810 0
DWIDTH 14 0
BBX 12 13 1 0
BITMAP
1F10
30E0
6060
60F0
C1B0
C330
C630
CC30
D830
F060
6060
70C0
9F80
ENDCHAR
STARTCHAR Ugrave
ENCODING 217
SWIDTH 747 0
DWIDTH 13 0
BBX 12 16 0 0
BITMAP
1C00
0600
0000
F070
6020
6020
6020
6020
6020
6020
6020
6020
6020
6020
3040
1F80
ENDCHAR
STARTCHAR Uacute
ENCODING 218
SWIDTH 747 0
DWIDTH 13 0
BBX 12 16 0 0
BITMAP
0380
0600
0000
F070
6020
6020
6020
6020
6020
6020
6020
6020
6020
6020
3040
1F80
ENDCHAR
STARTCHAR Ucircumflex
ENCODING 219
SWIDTH 747 0
DWIDTH 13 0
BBX 12 16 0 0
BITMAP
0F00
1980
0000
F070
6020
6020
6020
6020
6020
6020
6020
6020
6020
6020
3040
1F80
ENDCHAR
STARTCHAR Udieresis
ENCODING 220
SWIDTH 747 0
DWIDTH 13 0
BBX 12 15 0 0
BITMAP
0D80
0000
F070
6020
6020
6020
6020
6020
6020
6020
6020
6020
6020
3040
1F80
ENDCHAR
STARTCHAR Yacute
ENCODING 221
SWIDTH 717 0
DWIDTH 12 0
BBX 12 16 0 0
BITMAP
0380
0600
0000
FCF0
7020
3840
18C0
0C80
0D00
0700
0600
0600
0600
0600
0600
0F00
ENDCHAR
STARTCHAR Thorn
ENCODING 222
SWIDTH 614 0
DWIDTH 10 0
BBX 9 13 1 0
BITMAP
F000
6000
6000
7F00
6380
6180
6180
6180
6300
7C00
6000
6000
F000
ENDCHAR
STARTCHAR germandbls
ENCODING 223
SWIDTH 700 0
DWIDTH 12 0
BBX 10 13 1 0
BITMAP
3E00
6300
6300
6200
6400
6C00
6E00
6700
6380
61C0
60C0
64C0
F780
ENDCHAR
STARTCHAR agrave
ENCODING 224
SWIDTH 556 0
DWIDTH 9 0
BBX 8 12 1 0
BITMAP
70
18
00
7C
46
46
06
7E
E6
C6
C6
7F
ENDCHAR
STARTCHAR aacute
ENCODING 225
SWIDTH 556 0
DWIDTH 9 0
BBX 8 12 1 0
BITMAP
1C
30
00
7C
46
46
06
7E
E6
C6
C6
7F
ENDCHAR
STARTCHAR acircumflex
ENCODING 226
SWIDTH 556 0
DWIDTH 9 0
BBX 8 12 1 0
BITMAP
3C
66
00
7C
46
46
06
7E
E6
C6
C6
7F
ENDCHAR
STARTCHAR atilde
ENCODING 227
SWIDTH 556 0
DWIDTH 9 0
BBX 8 12 1 0
BITMAP
3A
5C
00
7C
46
46
06
7E
E6
C6
C6
7F
ENDCHAR
STARTCHAR adieresis
ENCODING 228
SWIDTH 556 0
DWIDTH 9 0
BBX 8 11 1 0
BITMAP
6C
00
7C
46
46
06
7E
E6
C6
C6
7F
ENDCHAR
STARTCHAR aring
ENCODING 229
SWIDTH 556 0
DWIDTH 9 0
BBX 8 12 1 0
BITMAP
38
38
00
7C
46
46
06
7E
E6
C6
C6
7F
ENDCHAR
STARTCHAR ae
ENCODING 230
SWIDTH 858 0
DWIDTH 15 0
BBX 13 9 1 0
BITMAP
3CE0
4710
4618
0618
7FF8
E600
C600
C708
79F8
ENDCHAR
STARTCHAR ccedilla
ENCODING 231
SWIDTH 541 0
DWIDTH 9 0
BBX 8 12 0 -3
BITMAP
3F
61
C1
C0
C0
C0
C0
60
3F
08
04
1C
ENDCHAR
STARTCHAR egrave
ENCODING 232
SWIDTH 568 0
DWIDTH 10 0
BBX 8 12 1 0
BITMAP
38
0C
00
3C
62
C3
C3
FF
C0
C0
61
3F
ENDCHAR
STARTCHAR eacute
ENCODING 233
SWIDTH 568 0
DWIDTH 10 0
BBX 8 12 1 0
BITMAP
0E
18
00
3C
62
C3
C3
FF
C0
C0
61
3F
ENDCHAR
STARTCHAR ecircumflex
ENCODING 234
SWIDTH 568 0
DWIDTH 10 0
BBX 8 12 1 0
BITMAP
3C
66
00
3C
62
C3
C3
FF
C0
C0
61
3F
ENDCHAR
STARTCHAR edieresis
ENCODING 235
SWIDTH 568 0
DWIDTH 10 0
BBX 8 11 1 0
BITMAP
36
00
3C
62
C3
C3
FF
C0
C0
61
3F
ENDCHAR
STARTCHAR igrave
ENCODING 236
SWIDTH 325 0
DWIDTH 6 0
BBX 5 12 2 0
BITMAP
E0
30
00
70
30
30
30
30
30
30
30
78
ENDCHAR
STARTCHAR iacute
ENCODING 237
SWIDTH 325 0
DWIDTH 6 0
BBX 4 12 1 0
BITMAP
70
C0
00
E0
60
60
60
60
60
60
60
F0
ENDCHAR
STARTCHAR icircumflex
ENCODING 238
SWIDTH 325 0
DWIDTH 6 0
BBX 6 12 2 0
BITMAP
78
CC
00
70
30
30
30
30
30
30
30
78
ENDCHAR
STARTCHAR idieresis
ENCODING 239
SWIDTH 325 0
DWIDTH 6 0
BBX 5 11 2 0
BITMAP
D8
00
70
30
30
30
30
30
30
30
78
ENDCHAR
STARTCHAR eth
ENCODING 240
SWIDTH 652 0
DWIDTH 11 0
BBX 9 14 1 0
BITMAP
0600
FC00
3C00
2E00
4700
3F00
6380
C180
C180
C180
C180
C100
6300
3E00
ENDCHAR
STARTCHAR ntilde
ENCODING 241
SWIDTH 654 0
DWIDTH 11 0
BBX 10 12 1 0
BITMAP
1D00
2E00
0000
EF00
7180
6180
6180
6180
6180
6180
6180
F3C0
ENDCHAR
STARTCHAR ograve
ENCODING 242
SWIDTH 617 0
DWIDTH 10 0
BBX 9 12 1 0
BITMAP
3800
0C00
0000
3E00
6300
C180
C180
C180
C180
C180
6300
3E00
ENDCHAR
STARTCHAR oacute
ENCODING 243
SWIDTH 617 0
DWIDTH 10 0
BBX 9 12 1 0
BITMAP
0E00
1800
0000
3E00
6300
C180
C180
C180
C180
C180
6300
3E00
ENDCHAR
STARTCHAR ocircumflex
ENCODING 244
SWIDTH 617 0
DWIDTH 10 0
BBX 9 12 1 0
BITMAP
3C00
6600
0000
3E00
6300
C180
C180
C180
C180
C180
6300
3E00
ENDCHAR
STARTCHAR otilde
ENCODING 245
SWIDTH 617 0
DWIDTH 10 0
BBX 9 12 1 0
BITMAP
3A00
5C00
0000
3E00
6300
C180
C180
C180
C180
C180
6300
3E00
ENDCHAR
STARTCHAR odieresis
ENCODING 246
SWIDTH 617 0
DWIDTH 10 0
BBX 9 11 1 0
BITMAP
3600
0000
3E00
6300
C180
C180
C180
C180
C180
6300
3E00
ENDCHAR
STARTCHAR divide
ENCODING 247
SWIDTH 623 0
DWIDTH 11 0
BBX 9 9 1 0
BITMAP
0800
0000
0000
0000
FF80
0000
0000
0000
0800
ENDCHAR
STARTCHAR oslash
ENCODING 248
SWIDTH 617 0
DWIDTH 10 0
BBX 10 9 0 0
BITMAP
3EC0
6180
C1C0
C2C0
CCC0
F0C0
E0C0
6180
DF00
ENDCHAR
STARTCHAR ugrave
ENCODING 249
SWIDTH 654 0
DWIDTH 11 0
BBX 10 12 0 0
BITMAP
1C00
0600
0000
E380
6180
6180
6180
6180
6180
6180
6380
3DC0
ENDCHAR
STARTCHAR uacute
ENCODING 250
SWIDTH 654 0
DWIDTH 11 0
BBX 10 12 0 0
BITMAP
0700
0C00
0000
E380
6180
6180
6180
6180
6180
6180
6380
3DC0
ENDCHAR
STARTCHAR ucircumflex
ENCODING 251
SWIDTH 654 0
DWIDTH 11 0
BBX 10 12 0 0
BITMAP
1E00
3300
0000
E380
6180
6180
6180
6180
6180
6180
6380
3DC0
ENDCHAR
STARTCHAR udieresis
ENCODING 252
SWIDTH 654 0
DWIDTH 11 0
BBX 10 11 0 0
BITMAP
1B00
0000
E380
6180
6180
6180
6180
6180
6180
6380
3DC0
ENDCHAR
STARTCHAR yacute
ENCODING 253
SWIDTH 654 0
DWIDTH 11 0
BBX 11 15 0 -3
BITMAP
0700
0C00
0000
F8E0
7040
3080
1880
1900
1F00
0E00
0C00
0400
0800
1800
3000
ENDCHAR
STARTCHAR thorn
ENCODING 254
SWIDTH 652 0
DWIDTH 11 0
BBX 10 16 0 -3
BITMAP
E000
6000
6000
6000
6F00
7180
60C0
60C0
60C0
60C0
60C0
7180
6F00
6000
6000
F000
ENDCHAR
STARTCHAR ydieresis
ENCODING 255
SWIDTH 654 0
DWIDTH 11 0
BBX 11 14 0 -3
BITMAP
1B00
0000
F8E0
7040
3080
1880
1900
1F00
0E00
0C00
0400
0800
1800
3000
ENDCHAR
ENDFONT
