STARTFONT 2.1
COMMENT AUTOMATICALLY GENERATED FILE. DO NOT EDIT!
COMMENT Generated with 'ucs2any.pl lubB24.bdf ../../../fonts/util/map-ISO8859-1 ISO8859-1'
COMMENT from an ISO10646-1 encoded source BDF font.
COMMENT ucs2any.pl by Markus Kuhn <mkuhn@acm.org>, 2000.
COMMENT $Xorg: $
COMMENT ISO10646-1 extension by Markus Kuhn <mkuhn@acm.org>, 2001-03-20
COMMENT  (c) Copyright Bigelow & Holmes 1986, 1985. Lucida is a registered
COMMENT  trademark of Bigelow & Holmes. See LEGAL NOTICE file for terms 
COMMENT  of the license. 
FONT -B&H-LucidaBright-DemiBold-R-Normal--34-240-100-100-P-202-ISO8859-1
SIZE 24 100 100
FONTBOUNDINGBOX 54 39 -21 -7
STARTPROPERTIES 22
COMMENT Begin LogicalFontDescription
FONTNAME_REGISTRY ""
FOUNDRY "B&H"
FAMILY_NAME "LucidaBright"
WEIGHT_NAME "DemiBold"
SLANT "R"
SETWIDTH_NAME "Normal"
ADD_STYLE_NAME ""
PIXEL_SIZE 34
POINT_SIZE 240
RESOLUTION_X 100
RESOLUTION_Y 100
SPACING "P"
AVERAGE_WIDTH 202
CHARSET_REGISTRY "ISO8859"
CHARSET_ENCODING "1"
COMMENT END LogicalFontDescription
FONT_ASCENT 31
FONT_DESCENT 8
DEFAULT_CHAR 0
COPYRIGHT "Copyright Bigelow & Holmes 1986, 1985."
FACE_NAME "Lucida Bright Demibold"
X_HEIGHT 18
CAP_HEIGHT 25
ENDPROPERTIES
CHARS 192
STARTCHAR defaultchar
ENCODING 0
SWIDTH 798 0
DWIDTH 27 0
BBX 25 25 1 0
BITMAP
AAAAAA80
00000000
80000080
00000000
80000080
00000000
80000080
00000000
80000080
00000000
80000080
00000000
80000080
00000000
80000080
00000000
80000080
00000000
80000080
00000000
80000080
00000000
80000080
00000000
AAAAAA80
ENDCHAR
STARTCHAR space
ENCODING 32
SWIDTH 333 0
DWIDTH 11 0
BBX 1 1 0 0
BITMAP
00
ENDCHAR
STARTCHAR exclam
ENCODING 33
SWIDTH 265 0
DWIDTH 9 0
BBX 5 25 2 0
BITMAP
F8
F8
F8
F8
F8
F8
F8
F8
78
78
78
70
70
70
70
30
30
30
00
00
F8
F8
F8
F8
F8
ENDCHAR
STARTCHAR quotedbl
ENCODING 34
SWIDTH 461 0
DWIDTH 16 0
BBX 13 10 1 16
BITMAP
F8F8
F8F8
F8F8
78F0
78F0
7070
7070
7070
3060
3060
ENDCHAR
STARTCHAR numbersign
ENCODING 35
SWIDTH 663 0
DWIDTH 23 0
BBX 21 25 1 0
BITMAP
00F1E0
00E1C0
00E1C0
00E1C0
01E380
01C380
01C380
3FFFF8
3FFFF8
3FFFF8
038700
038700
038F00
078E00
070E00
070E00
FFFFE0
FFFFE0
FFFFE0
0E1C00
0E1C00
0E3800
1C3800
1C3800
3C7800
ENDCHAR
STARTCHAR dollar
ENCODING 36
SWIDTH 623 0
DWIDTH 21 0
BBX 16 31 3 -4
BITMAP
0180
0180
0FFC
1FFE
3F9E
7D8E
7D8E
7D8E
7D80
7D80
3F80
3F80
1F80
0FC0
07F0
01F8
01FC
01FE
01BF
019F
019F
E19F
E19F
E19E
F9BE
FFFC
7FF8
01C0
0180
0180
0180
ENDCHAR
STARTCHAR percent
ENCODING 37
SWIDTH 759 0
DWIDTH 26 0
BBX 25 25 0 0
BITMAP
1F800780
3FC00F00
79E01E00
70E03C00
F0F07800
F0F07800
F0F0F000
F0F1E000
F0F3C000
70E78000
79EF0000
3FDE0000
1F9E0000
003CFC00
0079FE00
00F3CF00
01E78780
03C78780
07878780
07078780
0F078780
1E078780
3C03CF00
7801FE00
F000FC00
ENDCHAR
STARTCHAR ampersand
ENCODING 38
SWIDTH 765 0
DWIDTH 26 0
BBX 25 25 1 0
BITMAP
00FE0000
03FF0000
07CF8000
0F87C000
0F87C000
0F87C000
0F87C000
07CF8000
07CE0000
03FC0000
07F00000
0FF07F80
3CF87F80
787C1E00
787E1E00
F83E1C00
F81F1C00
F81F9800
F80FF000
FC07F000
7E03F000
7F07F800
3FFEFE00
0FFCFF00
03F07F00
ENDCHAR
STARTCHAR quotesingle
ENCODING 39
SWIDTH 253 0
DWIDTH 9 0
BBX 6 11 1 15
BITMAP
FC
FC
FC
78
78
78
78
78
30
30
30
ENDCHAR
STARTCHAR parenleft
ENCODING 40
SWIDTH 327 0
DWIDTH 11 0
BBX 9 32 1 -6
BITMAP
0080
0180
0300
0700
0E00
1C00
1C00
3C00
3C00
7800
7800
7800
F800
F800
F800
F800
F800
F800
F800
F800
7800
7800
7800
3C00
3C00
1C00
1C00
0E00
0600
0300
0180
0080
ENDCHAR
STARTCHAR parenright
ENCODING 41
SWIDTH 327 0
DWIDTH 11 0
BBX 9 32 1 -6
BITMAP
8000
C000
6000
7000
3800
1C00
1C00
1E00
1E00
0F00
0F00
0F00
0F80
0F80
0F80
0F80
0F80
0F80
0F80
0F80
0F00
0F00
0F00
1E00
1E00
1C00
1C00
3800
3000
6000
C000
8000
ENDCHAR
STARTCHAR asterisk
ENCODING 42
SWIDTH 434 0
DWIDTH 15 0
BBX 13 12 1 13
BITMAP
0700
0700
0700
6730
FAF8
F8F8
0000
0D80
1DC0
78E0
38F0
1080
ENDCHAR
STARTCHAR plus
ENCODING 43
SWIDTH 623 0
DWIDTH 21 0
BBX 21 21 0 0
BITMAP
007000
007000
007000
007000
007000
007000
007000
007000
007000
FFFFF8
FFFFF8
FFFFF8
007000
007000
007000
007000
007000
007000
007000
007000
007000
ENDCHAR
STARTCHAR comma
ENCODING 44
SWIDTH 265 0
DWIDTH 9 0
BBX 5 12 2 -6
BITMAP
F8
F8
F8
F8
F8
F8
78
78
70
F0
E0
C0
ENDCHAR
STARTCHAR hyphen
ENCODING 45
SWIDTH 289 0
DWIDTH 10 0
BBX 8 4 1 8
BITMAP
FF
FF
FF
FF
ENDCHAR
STARTCHAR period
ENCODING 46
SWIDTH 265 0
DWIDTH 9 0
BBX 5 5 2 0
BITMAP
F8
F8
F8
F8
F8
ENDCHAR
STARTCHAR slash
ENCODING 47
SWIDTH 527 0
DWIDTH 18 0
BBX 18 32 0 -6
BITMAP
0001C0
0003C0
000380
000780
000700
000F00
000E00
001E00
001C00
003C00
003800
007800
007000
007000
00E000
00E000
01C000
01C000
038000
038000
078000
070000
0F0000
0E0000
1E0000
1C0000
3C0000
380000
780000
700000
F00000
E00000
ENDCHAR
STARTCHAR zero
ENCODING 48
SWIDTH 623 0
DWIDTH 21 0
BBX 19 25 1 0
BITMAP
01F000
07FC00
0F1E00
1E0F00
3C0780
7C07C0
7C07C0
7803C0
F803E0
F803E0
F803E0
F803E0
F803E0
F803E0
F803E0
F803E0
F803E0
7803C0
7C07C0
7C07C0
3C0780
1E0F00
0F1E00
07FC00
01F000
ENDCHAR
STARTCHAR one
ENCODING 49
SWIDTH 623 0
DWIDTH 21 0
BBX 13 25 4 0
BITMAP
FF80
FF80
0F80
0F80
0F80
0F80
0F80
0F80
0F80
0F80
0F80
0F80
0F80
0F80
0F80
0F80
0F80
0F80
0F80
0F80
0F80
0F80
1FC0
FFF8
FFF8
ENDCHAR
STARTCHAR two
ENCODING 50
SWIDTH 623 0
DWIDTH 21 0
BBX 16 25 2 0
BITMAP
0FE0
7FF8
707E
603E
603F
701F
001F
001F
001F
001E
003C
007C
0070
00E0
01C0
0300
0E00
1C00
1800
3800
7FFF
7FFF
FFFF
FFFF
FFFF
ENDCHAR
STARTCHAR three
ENCODING 51
SWIDTH 623 0
DWIDTH 21 0
BBX 16 25 3 0
BITMAP
3FE0
FFF8
F0FC
E07E
E03E
E03E
003E
003E
003C
0078
00F0
1FC0
1FF0
00FC
007E
003E
001F
001F
001F
E01F
E03F
E03E
F0FC
FFF8
3FE0
ENDCHAR
STARTCHAR four
ENCODING 52
SWIDTH 623 0
DWIDTH 21 0
BBX 20 25 0 0
BITMAP
000F80
001F80
003F80
003F80
006F80
00CF80
01CF80
038F80
070F80
0E0F80
0C0F80
180F80
300F80
700F80
FFFFF0
FFFFF0
FFFFF0
FFFFF0
000F80
000F80
000F80
000F80
001FC0
007FF0
007FF0
ENDCHAR
STARTCHAR five
ENCODING 53
SWIDTH 623 0
DWIDTH 21 0
BBX 14 25 4 0
BITMAP
FFFC
FFFC
FFFC
FFFC
C000
C000
C000
C000
C000
C000
FF00
FFE0
07F0
01F8
00FC
007C
007C
007C
007C
E07C
E078
E0F8
F1F0
FFE0
7F80
ENDCHAR
STARTCHAR six
ENCODING 54
SWIDTH 623 0
DWIDTH 21 0
BBX 19 25 1 0
BITMAP
00FF00
07FFC0
0F83C0
1F01C0
3E01C0
3C01C0
7C0000
780000
F80000
F8FC00
F9FF00
FBFF80
FE1FC0
FC07C0
F807E0
F803E0
F803E0
7803E0
7803E0
7C03C0
3C07C0
3E0780
1F0F00
0FFE00
03F800
ENDCHAR
STARTCHAR seven
ENCODING 55
SWIDTH 623 0
DWIDTH 21 0
BBX 17 25 3 0
BITMAP
FFFF80
FFFF80
FFFF80
FFFF80
FFFF80
000700
000E00
001C00
001C00
003800
007000
00E000
01E000
01C000
03C000
078000
0F8000
0F0000
1F0000
1E0000
3E0000
3E0000
3C0000
7C0000
7C0000
ENDCHAR
STARTCHAR eight
ENCODING 56
SWIDTH 623 0
DWIDTH 21 0
BBX 18 25 2 0
BITMAP
03F800
0FFE00
3E3F00
3E1F80
7C0F80
7C0F80
7C0F80
7E0F00
3F0F00
3F9C00
1FF800
07F800
07FC00
1CFF00
3C3F80
781F80
F80FC0
F807C0
F807C0
F807C0
FC0780
7C0F80
7E1F00
1FFE00
07F000
ENDCHAR
STARTCHAR nine
ENCODING 57
SWIDTH 623 0
DWIDTH 21 0
BBX 19 25 1 0
BITMAP
03F800
0FFE00
3E1F00
3C0F80
7C0780
7807C0
F803C0
F803E0
F803E0
F803E0
FC03E0
7C07E0
7F0FE0
3FFBE0
1FF3E0
07E3E0
0003C0
0003C0
0007C0
700780
700F80
701F00
783E00
7FFC00
1FE000
ENDCHAR
STARTCHAR colon
ENCODING 58
SWIDTH 265 0
DWIDTH 9 0
BBX 5 18 2 0
BITMAP
F8
F8
F8
F8
F8
00
00
00
00
00
00
00
00
F8
F8
F8
F8
F8
ENDCHAR
STARTCHAR semicolon
ENCODING 59
SWIDTH 265 0
DWIDTH 9 0
BBX 5 24 2 -6
BITMAP
F8
F8
F8
F8
F8
00
00
00
00
00
00
00
00
F8
F8
F8
F8
F8
78
78
78
70
E0
C0
ENDCHAR
STARTCHAR less
ENCODING 60
SWIDTH 623 0
DWIDTH 21 0
BBX 20 21 1 0
BITMAP
000010
000070
0001F0
0007E0
001F80
007F00
01FC00
07F000
1FC000
7F0000
FC0000
7F0000
1FC000
07F000
01FC00
007F00
001F80
0007E0
0001F0
000070
000010
ENDCHAR
STARTCHAR equal
ENCODING 61
SWIDTH 623 0
DWIDTH 21 0
BBX 20 9 1 5
BITMAP
FFFFF0
FFFFF0
FFFFF0
000000
000000
000000
FFFFF0
FFFFF0
FFFFF0
ENDCHAR
STARTCHAR greater
ENCODING 62
SWIDTH 623 0
DWIDTH 21 0
BBX 20 21 1 0
BITMAP
800000
E00000
F80000
7E0000
1F8000
0FE000
03F800
00FE00
003F80
000FE0
0003F0
000FE0
003F80
00FE00
03F800
0FE000
1F8000
7E0000
F80000
E00000
800000
ENDCHAR
STARTCHAR question
ENCODING 63
SWIDTH 505 0
DWIDTH 17 0
BBX 15 25 1 0
BITMAP
3FC0
FFF8
F0FC
E07E
E03E
E03E
003E
003E
003C
0038
0070
00E0
01C0
0380
0780
0780
0F80
0F80
0000
0000
0F80
0F80
0F80
0F80
0F80
ENDCHAR
STARTCHAR at
ENCODING 64
SWIDTH 861 0
DWIDTH 29 0
BBX 27 25 2 0
BITMAP
000FE000
007FFC00
00F01E00
03C00700
07000180
0E0F01C0
1C1F80C0
38787060
30707060
60E07060
61E07060
61C0E060
C1C0E060
C3C0E060
C3C1E0C0
C3C360C0
C3E6E180
C3FCF300
61F8FE00
70E0F800
30000000
1C000000
0F01C000
07FFC000
00FF0000
ENDCHAR
STARTCHAR A
ENCODING 65
SWIDTH 795 0
DWIDTH 27 0
BBX 27 25 0 0
BITMAP
000E0000
000E0000
001F0000
001F0000
003F8000
003F8000
003FC000
006FC000
0067C000
00C7E000
00C3E000
0183F000
0181F000
0301F800
0300F800
07FFFC00
07FFFC00
0E007E00
0C003E00
1C003F00
18001F00
38001F80
78001F80
FE007FE0
FE007FE0
ENDCHAR
STARTCHAR B
ENCODING 66
SWIDTH 639 0
DWIDTH 22 0
BBX 20 25 1 0
BITMAP
FFFE00
FFFF80
3F0FC0
1F07E0
1F03E0
1F03E0
1F03E0
1F03E0
1F03C0
1F07C0
1F1F00
1FFC00
1FFE00
1F0F80
1F07C0
1F03E0
1F01F0
1F01F0
1F01F0
1F01F0
1F01F0
1F03E0
3F87E0
FFFFC0
FFFE00
ENDCHAR
STARTCHAR C
ENCODING 67
SWIDTH 711 0
DWIDTH 24 0
BBX 21 25 1 0
BITMAP
007FC0
03FFF8
0FC0F8
1F0038
3E0038
3C0038
7C0000
7C0000
F80000
F80000
F80000
F80000
F80000
F80000
F80000
F80000
FC0000
7C0000
7E0000
3E0000
3F8008
1FC078
0FFFF8
03FFF0
007FC0
ENDCHAR
STARTCHAR D
ENCODING 68
SWIDTH 794 0
DWIDTH 27 0
BBX 25 25 1 0
BITMAP
FFFF8000
FFFFF000
3F03F800
1F007C00
1F003E00
1F001F00
1F001F00
1F001F00
1F000F80
1F000F80
1F000F80
1F000F80
1F000F80
1F000F80
1F000F80
1F000F80
1F000F00
1F001F00
1F001F00
1F001E00
1F003E00
1F007C00
3F81F800
FFFFE000
FFFF8000
ENDCHAR
STARTCHAR E
ENCODING 69
SWIDTH 601 0
DWIDTH 20 0
BBX 19 25 1 0
BITMAP
FFFFE0
FFFFE0
3F01E0
1F00E0
1F00E0
1F0000
1F0000
1F0000
1F0000
1F0300
1F0300
1FFF00
1FFF00
1F0300
1F0300
1F0000
1F0000
1F0000
1F0000
1F0000
1F00E0
1F00E0
3F80E0
FFFFE0
FFFFE0
ENDCHAR
STARTCHAR F
ENCODING 70
SWIDTH 584 0
DWIDTH 20 0
BBX 18 25 1 0
BITMAP
FFFFC0
FFFFC0
3F03C0
1F01C0
1F01C0
1F0000
1F0000
1F0000
1F0000
1F0300
1F0300
1FFF00
1FFF00
1F0300
1F0300
1F0000
1F0000
1F0000
1F0000
1F0000
1F0000
1F0000
3F8000
FFE000
FFE000
ENDCHAR
STARTCHAR G
ENCODING 71
SWIDTH 753 0
DWIDTH 26 0
BBX 24 25 1 0
BITMAP
007FC0
03FFF8
0FC0F8
1F0038
3E0038
3C0038
7C0000
7C0000
F80000
F80000
F80000
F80000
F80000
F80000
F807FF
F807FF
F801FC
7C00F8
7C00F8
3E00F8
3E00F8
1F00F8
0FC0F8
03FFF8
007FC0
ENDCHAR
STARTCHAR H
ENCODING 72
SWIDTH 798 0
DWIDTH 27 0
BBX 26 25 1 0
BITMAP
FFE1FFC0
FFE1FFC0
3F807F00
1F003E00
1F003E00
1F003E00
1F003E00
1F003E00
1F003E00
1F003E00
1F003E00
1FFFFE00
1FFFFE00
1F003E00
1F003E00
1F003E00
1F003E00
1F003E00
1F003E00
1F003E00
1F003E00
1F003E00
3F807F00
FFE1FFC0
FFE1FFC0
ENDCHAR
STARTCHAR I
ENCODING 73
SWIDTH 349 0
DWIDTH 12 0
BBX 11 25 0 0
BITMAP
FFE0
FFE0
3F80
1F00
1F00
1F00
1F00
1F00
1F00
1F00
1F00
1F00
1F00
1F00
1F00
1F00
1F00
1F00
1F00
1F00
1F00
1F00
3F80
FFE0
FFE0
ENDCHAR
STARTCHAR J
ENCODING 74
SWIDTH 452 0
DWIDTH 15 0
BBX 15 31 0 -6
BITMAP
0FFE
0FFE
03F8
01F0
01F0
01F0
01F0
01F0
01F0
01F0
01F0
01F0
01F0
01F0
01F0
01F0
01F0
01F0
01F0
01F0
01F0
01F0
01F0
01F0
01F0
01F0
E1E0
E1E0
E3E0
FFC0
FF00
ENDCHAR
STARTCHAR K
ENCODING 75
SWIDTH 747 0
DWIDTH 25 0
BBX 25 25 1 0
BITMAP
FFC0FE00
FFC0FE00
3F807800
1F007000
1F00E000
1F018000
1F070000
1F0E0000
1F1C0000
1F380000
1F700000
1FF80000
1FFC0000
1FFE0000
1F7F0000
1F3F8000
1F1F8000
1F0FC000
1F07E000
1F07F000
1F03F800
1F01FC00
3F80FE00
FFC7FF80
FFC7FF80
ENDCHAR
STARTCHAR L
ENCODING 76
SWIDTH 584 0
DWIDTH 20 0
BBX 19 25 1 0
BITMAP
FFE000
FFE000
3F8000
1F0000
1F0000
1F0000
1F0000
1F0000
1F0000
1F0000
1F0000
1F0000
1F0000
1F0000
1F0000
1F0000
1F0000
1F0000
1F0000
1F00E0
1F00E0
1F00E0
3F80E0
FFFFE0
FFFFE0
ENDCHAR
STARTCHAR M
ENCODING 77
SWIDTH 904 0
DWIDTH 31 0
BBX 30 25 0 0
BITMAP
FF8003FC
FFC007FC
3FC007F0
1FC00FE0
1FE00FE0
1FE01FE0
1FF01FE0
1DF03FE0
1DF83BE0
1CF83BE0
1CF873E0
1CFC73E0
1C7CF3E0
1C7EE3E0
1C3FE3E0
1C3FC3E0
1C3FC3E0
1C1F83E0
1C1F83E0
1C0F03E0
1C0F03E0
1C0603E0
3E0007F0
FF000FFC
FF000FFC
ENDCHAR
STARTCHAR N
ENCODING 78
SWIDTH 788 0
DWIDTH 27 0
BBX 25 25 1 0
BITMAP
FE00FF80
FF00FF80
3F003E00
1F801C00
1FC01C00
1FC01C00
1FE01C00
1FF01C00
1DF81C00
1DF81C00
1CFC1C00
1C7E1C00
1C7E1C00
1C3F1C00
1C1F9C00
1C1FDC00
1C0FDC00
1C07FC00
1C03FC00
1C03FC00
1C01FC00
1C00FC00
3E00FC00
FF807C00
FF803C00
ENDCHAR
STARTCHAR O
ENCODING 79
SWIDTH 810 0
DWIDTH 28 0
BBX 25 25 1 0
BITMAP
00FF8000
03FFE000
0FC1F800
1F007C00
3E003E00
3C001E00
7C001F00
7C001F00
F8000F80
F8000F80
F8000F80
F8000F80
F8000F80
F8000F80
F8000F80
F8000F80
F8000F80
7C001F00
7C001F00
3E003E00
3E003E00
1F007C00
0FC1F800
03FFE000
00FF8000
ENDCHAR
STARTCHAR P
ENCODING 80
SWIDTH 614 0
DWIDTH 21 0
BBX 20 25 0 0
BITMAP
FFFF00
FFFFC0
3F07E0
1F03E0
1F01F0
1F01F0
1F01F0
1F01F0
1F01F0
1F01F0
1F03E0
1F03C0
1F0FC0
1FFF00
1FFC00
1F0000
1F0000
1F0000
1F0000
1F0000
1F0000
1F0000
3F8000
FFE000
FFE000
ENDCHAR
STARTCHAR Q
ENCODING 81
SWIDTH 810 0
DWIDTH 28 0
BBX 29 30 1 -5
BITMAP
00FF8000
03FFE000
0FC1F800
1F007C00
3E003E00
3C001E00
7C001F00
7C001F00
F8000F80
F8000F80
F8000F80
F8000F80
F8000F80
F8000F80
F8000F80
F8000F80
F8000F80
7C001F00
7C001F00
3E003F00
3E003E00
1F007C00
0FC1F800
03FFF000
00FFC000
0000F800
00007F80
00003FF8
00000FE0
000007C0
ENDCHAR
STARTCHAR R
ENCODING 82
SWIDTH 720 0
DWIDTH 24 0
BBX 24 25 1 0
BITMAP
FFFF00
FFFFC0
3F07E0
1F03E0
1F01F0
1F01F0
1F01F0
1F01F0
1F01F0
1F03E0
1F07E0
1F0FC0
1FFF80
1FFF00
1F3F00
1F1F80
1F0FC0
1F0FC0
1F07E0
1F03F0
1F03F0
1F01F8
3F81FC
FFC0FF
FFC07F
ENDCHAR
STARTCHAR S
ENCODING 83
SWIDTH 556 0
DWIDTH 19 0
BBX 16 25 2 0
BITMAP
07F8
1FFE
3E1E
7C0E
F80E
F80E
F800
FC00
FE00
7F00
7FC0
3FF0
0FF8
03FC
01FE
007F
003F
001F
001F
E01F
E01F
E03E
F87C
FFF8
3FE0
ENDCHAR
STARTCHAR T
ENCODING 84
SWIDTH 714 0
DWIDTH 24 0
BBX 23 25 1 0
BITMAP
FFFFFE
FFFFFE
E07C1E
E07C0E
E07C0E
007C00
007C00
007C00
007C00
007C00
007C00
007C00
007C00
007C00
007C00
007C00
007C00
007C00
007C00
007C00
007C00
007C00
00FE00
03FF80
03FF80
ENDCHAR
STARTCHAR U
ENCODING 85
SWIDTH 747 0
DWIDTH 25 0
BBX 25 25 0 0
BITMAP
FFE0FF80
FFE0FF80
3F803E00
1F001C00
1F001C00
1F001C00
1F001C00
1F001C00
1F001C00
1F001C00
1F001C00
1F001C00
1F001C00
1F001C00
1F001C00
1F001C00
1F001C00
1F001C00
1F001C00
0F003C00
0F803800
0F807800
07E0F000
03FFE000
007F8000
ENDCHAR
STARTCHAR V
ENCODING 86
SWIDTH 753 0
DWIDTH 26 0
BBX 26 25 0 0
BITMAP
FFE01FC0
FFE01FC0
3F800700
1F800600
1F800600
0F800E00
0FC00C00
07C01C00
07E01800
03E03800
03F03000
03F03000
01F07000
01F86000
00F8E000
00FCC000
007CC000
007F8000
003F8000
003F8000
003F0000
001F0000
001E0000
000E0000
000C0000
ENDCHAR
STARTCHAR W
ENCODING 87
SWIDTH 955 0
DWIDTH 32 0
BBX 32 25 0 0
BITMAP
FF80C03F
FF80E03F
7E01E00C
3F01E01C
3F01F018
1F03F018
1F03F010
1F83F030
0F87F830
0F86F830
0FC6F860
0FCEFC60
07CC7C60
07CC7CC0
07FC7EC0
03F83EC0
03F83F80
03F83F80
03F01F80
01F01F80
01F01F00
01E00F00
00E00F00
00E00E00
00C00600
ENDCHAR
STARTCHAR X
ENCODING 88
SWIDTH 702 0
DWIDTH 24 0
BBX 24 25 0 0
BITMAP
7FE07F
7FE07F
3F801C
1FC038
0FC030
07E070
07E0E0
03F0C0
01F180
01FB80
00FF00
007E00
007E00
00FF00
01FF80
03DF80
038FC0
0787E0
0F07E0
0E03F0
1E03F8
3C01F8
7800FC
FE07FF
FE07FF
ENDCHAR
STARTCHAR Y
ENCODING 89
SWIDTH 717 0
DWIDTH 24 0
BBX 25 25 0 0
BITMAP
FFE03F80
FFE03F80
3F800E00
1F800C00
0FC01C00
0FC03800
07E03000
03F07000
03F06000
01F8C000
00FDC000
00FD8000
007F0000
003F0000
003E0000
003E0000
003E0000
003E0000
003E0000
003E0000
003E0000
003E0000
007F0000
01FFC000
01FFC000
ENDCHAR
STARTCHAR Z
ENCODING 90
SWIDTH 639 0
DWIDTH 22 0
BBX 18 25 2 0
BITMAP
7FFFC0
7FFFC0
700FC0
701F80
701F80
003F00
003E00
007E00
00FC00
00FC00
01F800
01F000
03F000
03E000
07E000
0FC000
0FC000
1F8000
1F0000
3F0000
7E01C0
7E01C0
FC01C0
FFFFC0
FFFFC0
ENDCHAR
STARTCHAR bracketleft
ENCODING 91
SWIDTH 327 0
DWIDTH 11 0
BBX 8 32 2 -6
BITMAP
FF
FF
F8
F8
F8
F8
F8
F8
F8
F8
F8
F8
F8
F8
F8
F8
F8
F8
F8
F8
F8
F8
F8
F8
F8
F8
F8
F8
F8
F8
FF
FF
ENDCHAR
STARTCHAR backslash
ENCODING 92
SWIDTH 527 0
DWIDTH 18 0
BBX 18 32 0 -6
BITMAP
E00000
F00000
700000
780000
380000
3C0000
1C0000
1E0000
0E0000
0F0000
070000
078000
038000
03C000
01C000
01C000
00E000
00E000
007000
007000
003800
003800
003C00
001C00
001E00
000E00
000F00
000700
000780
000380
0003C0
0001C0
ENDCHAR
STARTCHAR bracketright
ENCODING 93
SWIDTH 327 0
DWIDTH 11 0
BBX 8 32 1 -6
BITMAP
FF
FF
1F
1F
1F
1F
1F
1F
1F
1F
1F
1F
1F
1F
1F
1F
1F
1F
1F
1F
1F
1F
1F
1F
1F
1F
1F
1F
1F
1F
FF
FF
ENDCHAR
STARTCHAR asciicircum
ENCODING 94
SWIDTH 623 0
DWIDTH 21 0
BBX 20 22 1 4
BITMAP
002000
006000
006000
006000
00F000
00F000
01F800
01F800
039C00
039C00
079E00
070E00
0F0F00
0E0700
1E0780
1C0380
3C03C0
3801C0
7801E0
7000E0
F000F0
E00070
ENDCHAR
STARTCHAR underscore
ENCODING 95
SWIDTH 500 0
DWIDTH 17 0
BBX 14 3 2 -4
BITMAP
FFFC
FFFC
FFFC
ENDCHAR
STARTCHAR grave
ENCODING 96
SWIDTH 617 0
DWIDTH 21 0
BBX 8 5 5 21
BITMAP
F8
38
1C
0E
07
ENDCHAR
STARTCHAR a
ENCODING 97
SWIDTH 556 0
DWIDTH 19 0
BBX 17 18 1 0
BITMAP
0FF000
3FF800
387C00
383E00
383E00
003E00
003E00
0FFE00
3FFE00
7E3E00
FC3E00
F83E00
F83E00
F83E00
FC7E00
7FDE00
7F9F80
1F0F80
ENDCHAR
STARTCHAR b
ENCODING 98
SWIDTH 640 0
DWIDTH 22 0
BBX 21 26 0 0
BITMAP
FF0000
FF0000
3F0000
1F0000
1F0000
1F0000
1F0000
1F0000
1F0F80
1F3FC0
1F7FE0
1F7FF0
1FC3F0
1F81F8
1F00F8
1F00F8
1F00F8
1F00F8
1F00F8
1F00F8
1F01F0
1F01F0
1FC3F0
1FFFE0
1F7FC0
1E1F00
ENDCHAR
STARTCHAR c
ENCODING 99
SWIDTH 541 0
DWIDTH 18 0
BBX 16 18 1 0
BITMAP
03FE
0FFF
3E0F
3C07
7C07
7807
F800
F800
F800
F800
F800
F800
7C00
7E00
3F01
1FFF
0FFF
03FC
ENDCHAR
STARTCHAR d
ENCODING 100
SWIDTH 652 0
DWIDTH 22 0
BBX 21 26 1 0
BITMAP
003FC0
003FC0
000FC0
0007C0
0007C0
0007C0
0007C0
0007C0
07C7C0
1FF7C0
3FFFC0
7E1FC0
7C07C0
7807C0
F807C0
F807C0
F807C0
F807C0
F807C0
F807C0
FC0FC0
7E1FC0
7FF7C0
3FF7E0
1FE7F8
0F87F8
ENDCHAR
STARTCHAR e
ENCODING 101
SWIDTH 568 0
DWIDTH 19 0
BBX 16 18 1 0
BITMAP
07F0
1FF8
3C3C
7C1E
781E
781F
F81F
FFFF
FFFF
F800
F800
F800
7C00
7E00
3F01
1FFF
0FFF
03FC
ENDCHAR
STARTCHAR f
ENCODING 102
SWIDTH 416 0
DWIDTH 14 0
BBX 14 26 1 0
BITMAP
03F8
07FC
0F9C
1F1C
1F1C
1F00
1F00
1F00
FFF0
FFF0
1F00
1F00
1F00
1F00
1F00
1F00
1F00
1F00
1F00
1F00
1F00
1F00
1F00
3F80
FFE0
FFE0
ENDCHAR
STARTCHAR g
ENCODING 103
SWIDTH 599 0
DWIDTH 20 0
BBX 19 25 1 -7
BITMAP
07FFE0
1FFFE0
3E3EC0
3C1E00
7C1F00
7C1F00
7C1F00
7C1F00
3C1F00
3C1E00
1E3E00
07FC00
0FF000
3C0000
3FFE00
3FFF80
3FFFC0
0FFFC0
3807C0
F807C0
F807C0
F80F80
FE1F00
7FFE00
0FF800
ENDCHAR
STARTCHAR h
ENCODING 104
SWIDTH 654 0
DWIDTH 22 0
BBX 22 26 0 0
BITMAP
FF0000
FF0000
3F0000
1F0000
1F0000
1F0000
1F0000
1F0000
1F0F00
1F3FC0
1F7FC0
1F7FE0
1FC3E0
1F83E0
1F03E0
1F03E0
1F03E0
1F03E0
1F03E0
1F03E0
1F03E0
1F03E0
1F03E0
3F87F0
FFFFFC
FFFFFC
ENDCHAR
STARTCHAR i
ENCODING 105
SWIDTH 325 0
DWIDTH 11 0
BBX 11 26 0 0
BITMAP
1F00
1F00
1F00
1F00
1F00
0000
0000
0000
FF00
FF00
3F00
1F00
1F00
1F00
1F00
1F00
1F00
1F00
1F00
1F00
1F00
1F00
1F00
3F80
FFE0
FFE0
ENDCHAR
STARTCHAR j
ENCODING 106
SWIDTH 355 0
DWIDTH 12 0
BBX 11 33 -1 -7
BITMAP
03E0
03E0
03E0
03E0
03E0
0000
0000
0000
0FE0
0FE0
03E0
03E0
03E0
03E0
03E0
03E0
03E0
03E0
03E0
03E0
03E0
03E0
03E0
03E0
03E0
03E0
03E0
E3E0
E3E0
E3C0
F7C0
FF80
7F00
ENDCHAR
STARTCHAR k
ENCODING 107
SWIDTH 654 0
DWIDTH 21 0
BBX 22 26 0 0
BITMAP
FF0000
FF0000
3F0000
1F0000
1F0000
1F0000
1F0000
1F0000
1F07F0
1F07F0
1F01C0
1F0380
1F0700
1F1E00
1F3800
1F7800
1FFC00
1FFC00
1F7E00
1F3F00
1F1F80
1F1FC0
1F0FE0
3F07F0
FFC3FC
FFC3FC
ENDCHAR
STARTCHAR l
ENCODING 108
SWIDTH 325 0
DWIDTH 11 0
BBX 11 26 0 0
BITMAP
FF00
FF00
3F00
1F00
1F00
1F00
1F00
1F00
1F00
1F00
1F00
1F00
1F00
1F00
1F00
1F00
1F00
1F00
1F00
1F00
1F00
1F00
1F00
3F80
FFE0
FFE0
ENDCHAR
STARTCHAR m
ENCODING 109
SWIDTH 967 0
DWIDTH 33 0
BBX 33 18 0 0
BITMAP
FF1F01E000
FF3FC7F800
3F7FCFF800
1FFFFFFC00
1FC7F87C00
1F83F07C00
1F03E07C00
1F03E07C00
1F03E07C00
1F03E07C00
1F03E07C00
1F03E07C00
1F03E07C00
1F03E07C00
1F03E07C00
3F03E07E00
FFCFF9FF80
FFCFF9FF80
ENDCHAR
STARTCHAR n
ENCODING 110
SWIDTH 654 0
DWIDTH 22 0
BBX 22 18 0 0
BITMAP
FF0F00
FF3FC0
7F7FC0
1F7FE0
1FC3E0
1F83E0
1F03E0
1F03E0
1F03E0
1F03E0
1F03E0
1F03E0
1F03E0
1F03E0
1F03E0
3F87F0
FFFFFC
FFFFFC
ENDCHAR
STARTCHAR o
ENCODING 111
SWIDTH 617 0
DWIDTH 21 0
BBX 19 18 1 0
BITMAP
03F800
0FFE00
3F1F80
3C0780
7C07C0
7803C0
F803E0
F803E0
F803E0
F803E0
F803E0
F803E0
7803C0
7C07C0
3C0780
3F1F80
0FFE00
03F800
ENDCHAR
STARTCHAR p
ENCODING 112
SWIDTH 652 0
DWIDTH 22 0
BBX 21 25 0 -7
BITMAP
FF0F80
FF3FC0
3F7FE0
1F7FF0
1FC3F0
1F81F8
1F00F8
1F00F8
1F00F8
1F00F8
1F00F8
1F00F8
1F01F0
1F01F0
1FC3F0
1FFFE0
1F7FC0
1F1F00
1F0000
1F0000
1F0000
1F0000
3F8000
FFE000
FFE000
ENDCHAR
STARTCHAR q
ENCODING 113
SWIDTH 640 0
DWIDTH 22 0
BBX 21 25 1 -7
BITMAP
07C7C0
1FF7C0
3FFFC0
7E1FC0
7C07C0
7C07C0
F807C0
F807C0
F807C0
F807C0
F807C0
F807C0
FC0FC0
7E1FC0
7FF7C0
3FF7C0
1FE7C0
0F87C0
0007C0
0007C0
0007C0
0007C0
000FE0
003FF8
003FF8
ENDCHAR
STARTCHAR r
ENCODING 114
SWIDTH 462 0
DWIDTH 16 0
BBX 15 18 0 0
BITMAP
FF0E
FF3E
3F7E
1FFE
1F8E
1F0E
1F00
1F00
1F00
1F00
1F00
1F00
1F00
1F00
1F00
3F80
FFE0
FFE0
ENDCHAR
STARTCHAR s
ENCODING 115
SWIDTH 525 0
DWIDTH 18 0
BBX 15 18 2 0
BITMAP
0FE0
3FF8
7C78
F838
F838
FC38
FF00
7FE0
7FF8
3FFC
0FFE
01FE
E07E
E03E
E03E
F87C
FFF8
3FE0
ENDCHAR
STARTCHAR t
ENCODING 116
SWIDTH 389 0
DWIDTH 13 0
BBX 11 23 1 0
BITMAP
0600
3E00
3E00
3E00
3E00
FFE0
FFE0
3E00
3E00
3E00
3E00
3E00
3E00
3E00
3E00
3E00
3E00
3E00
3E00
3F00
1FE0
1FE0
07E0
ENDCHAR
STARTCHAR u
ENCODING 117
SWIDTH 654 0
DWIDTH 22 0
BBX 22 18 0 0
BITMAP
FF1FE0
FF1FE0
3F07E0
1F03E0
1F03E0
1F03E0
1F03E0
1F03E0
1F03E0
1F03E0
1F03E0
1F03E0
1F07E0
1F0FE0
1FFBE0
0FFBF8
0FF3FC
03C3FC
ENDCHAR
STARTCHAR v
ENCODING 118
SWIDTH 657 0
DWIDTH 22 0
BBX 22 18 0 0
BITMAP
FFC1FC
FFC1FC
3F0070
1F0060
1F80E0
0F80C0
0FC1C0
07C180
07E380
03E300
03F700
01F600
01FE00
00FC00
00FC00
007800
007800
003000
ENDCHAR
STARTCHAR w
ENCODING 119
SWIDTH 880 0
DWIDTH 30 0
BBX 30 18 0 0
BITMAP
FFC1C1FC
FFC1C1FC
7E03E070
3F03E060
1F07E060
1F07F0E0
1F87F0C0
0F8FF8C0
0F8CF9C0
07DCF980
07D8FF80
07F87F00
03F07F00
03F03F00
03E03E00
01E01E00
01C01C00
00C01C00
ENDCHAR
STARTCHAR x
ENCODING 120
SWIDTH 608 0
DWIDTH 21 0
BBX 21 18 0 0
BITMAP
FFE3F8
FFE3F8
3F81E0
1F8180
0FC380
07E700
03FE00
03FC00
01F800
00FC00
01FE00
03FF00
073F80
0E1F80
1C0FC0
3807E0
FE1FF8
FE1FF8
ENDCHAR
STARTCHAR y
ENCODING 121
SWIDTH 654 0
DWIDTH 22 0
BBX 22 25 0 -7
BITMAP
FFC0FC
FFC0FC
3F0070
1F0060
1F8060
0F80C0
0FC0C0
07C180
07E380
07E300
03E700
03F600
01FE00
01FC00
00F800
00F800
007000
007000
002000
006000
00C000
01C000
038000
078000
1F0000
ENDCHAR
STARTCHAR z
ENCODING 122
SWIDTH 584 0
DWIDTH 20 0
BBX 16 18 2 0
BITMAP
7FFF
7FFF
607F
607E
70FC
01F8
01F8
03F0
07E0
0FE0
0FC0
1F80
3F00
3F07
7E07
FC07
FFFF
FFFF
ENDCHAR
STARTCHAR braceleft
ENCODING 123
SWIDTH 366 0
DWIDTH 12 0
BBX 9 32 2 -6
BITMAP
0780
0F80
1F00
3E00
3E00
3E00
3E00
3E00
3E00
3E00
3E00
3E00
3E00
3C00
7C00
F000
F000
7800
3C00
3E00
3E00
3E00
3E00
3E00
3E00
3E00
3E00
3E00
3E00
1F00
0F80
0780
ENDCHAR
STARTCHAR bar
ENCODING 124
SWIDTH 259 0
DWIDTH 9 0
BBX 3 32 3 -6
BITMAP
E0
E0
E0
E0
E0
E0
E0
E0
E0
E0
E0
E0
E0
E0
E0
E0
E0
E0
E0
E0
E0
E0
E0
E0
E0
E0
E0
E0
E0
E0
E0
E0
ENDCHAR
STARTCHAR braceright
ENCODING 125
SWIDTH 366 0
DWIDTH 12 0
BBX 9 32 2 -6
BITMAP
F000
F800
7C00
3E00
3E00
3E00
3E00
3E00
3E00
3E00
3E00
3E00
3E00
1E00
0F00
0780
0780
1F00
1E00
3E00
3E00
3E00
3E00
3E00
3E00
3E00
3E00
3E00
3E00
7C00
F800
F000
ENDCHAR
STARTCHAR asciitilde
ENCODING 126
SWIDTH 623 0
DWIDTH 21 0
BBX 20 7 1 6
BITMAP
1E0000
3F8030
7FE030
E1F870
C07FE0
C01FC0
000F80
ENDCHAR
STARTCHAR space
ENCODING 160
SWIDTH 333 0
DWIDTH 11 0
BBX 1 1 0 0
BITMAP
00
ENDCHAR
STARTCHAR exclamdown
ENCODING 161
SWIDTH 265 0
DWIDTH 9 0
BBX 5 25 2 -7
BITMAP
F8
F8
F8
F8
F8
00
00
30
30
30
70
70
70
70
78
78
78
F8
F8
F8
F8
F8
F8
F8
F8
ENDCHAR
STARTCHAR cent
ENCODING 162
SWIDTH 623 0
DWIDTH 21 0
BBX 17 25 1 0
BITMAP
006000
006000
006000
03FF00
0FFF80
1F6780
3C6380
7C6380
786380
F86000
F86000
F86000
F86000
F86000
F86000
F86000
7C6000
7C6000
3F6180
1FFF80
0FFF80
03FF00
006000
006000
006000
ENDCHAR
STARTCHAR sterling
ENCODING 163
SWIDTH 623 0
DWIDTH 21 0
BBX 15 25 4 0
BITMAP
01F8
07FE
079E
0F0E
0F0E
1F0E
1F00
1F00
1F00
1F00
1F00
7FE0
7FE0
1F00
1F00
1F00
1F00
1E00
1C00
3000
FFFE
FFFE
FFFE
FFFE
FFFE
ENDCHAR
STARTCHAR currency
ENCODING 164
SWIDTH 623 0
DWIDTH 21 0
BBX 21 23 0 1
BITMAP
400010
E00038
700070
38F8E0
1FFFC0
0FFF80
078F00
0F0780
0E0380
1C01C0
1C01C0
1C01C0
1C01C0
1C01C0
1E0380
0F0780
078F00
0FFF80
1FFFC0
38F8E0
700070
E00038
400010
ENDCHAR
STARTCHAR yen
ENCODING 165
SWIDTH 623 0
DWIDTH 21 0
BBX 22 25 0 0
BITMAP
FFC0FC
FFC0FC
7F0038
3F0070
1F80E0
1FC1C0
0FE180
07F300
03F600
01FE00
01FC00
0FFFC0
0FFFC0
00F800
00F800
00F800
0FFFC0
0FFFC0
00F800
00F800
00F800
00F800
01FC00
07FF00
07FF00
ENDCHAR
STARTCHAR brokenbar
ENCODING 166
SWIDTH 259 0
DWIDTH 9 0
BBX 3 32 3 -6
BITMAP
E0
E0
E0
E0
E0
E0
E0
E0
E0
E0
E0
E0
E0
E0
E0
00
00
E0
E0
E0
E0
E0
E0
E0
E0
E0
E0
E0
E0
E0
E0
E0
ENDCHAR
STARTCHAR section
ENCODING 167
SWIDTH 623 0
DWIDTH 21 0
BBX 16 31 3 -6
BITMAP
0FF8
3FFE
7E1E
FC0E
F80E
F80E
F800
FC00
7F80
7FE0
1FF8
3FFC
73FE
F0FF
F03F
F81F
FC0F
FF0F
7FCE
3FFC
1FF8
0FFC
01FE
007F
001F
E01F
E01F
E03F
F83E
FFFC
3FF0
ENDCHAR
STARTCHAR dieresis
ENCODING 168
SWIDTH 617 0
DWIDTH 21 0
BBX 10 4 5 21
BITMAP
E1C0
E1C0
E1C0
E1C0
ENDCHAR
STARTCHAR copyright
ENCODING 169
SWIDTH 855 0
DWIDTH 29 0
BBX 26 25 2 0
BITMAP
007F8000
01FFE000
07C0F800
0F003C00
1C000E00
383F8700
30FFC300
61F0C180
61E0C180
E3C001C0
C3C000C0
C3C000C0
C3C000C0
C3C000C0
C3C000C0
E1E001C0
61E00180
60F04180
307FC300
381F8700
1C000E00
0F003C00
07C0F800
01FFE000
007F8000
ENDCHAR
STARTCHAR ordfeminine
ENCODING 170
SWIDTH 488 0
DWIDTH 17 0
BBX 15 14 2 11
BITMAP
1FC0
7FF0
79F8
70F8
00F8
00F8
1FF8
7FF8
7CF8
F8F8
F9F8
FFF8
7F7E
3E3E
ENDCHAR
STARTCHAR guillemotleft
ENCODING 171
SWIDTH 566 0
DWIDTH 19 0
BBX 16 16 1 1
BITMAP
0102
0307
0706
0E0E
1E1C
3C3C
7C78
F8F8
F8F8
7C78
3C3C
1E1C
0E0E
0706
0303
0102
ENDCHAR
STARTCHAR logicalnot
ENCODING 172
SWIDTH 623 0
DWIDTH 21 0
BBX 20 9 1 5
BITMAP
FFFFF0
FFFFF0
FFFFF0
000070
000070
000070
000070
000070
000070
ENDCHAR
STARTCHAR hyphen
ENCODING 173
SWIDTH 289 0
DWIDTH 10 0
BBX 8 4 1 8
BITMAP
FF
FF
FF
FF
ENDCHAR
STARTCHAR registered
ENCODING 174
SWIDTH 623 0
DWIDTH 21 0
BBX 16 17 3 8
BITMAP
07E0
1FF8
3C3C
700E
6FC6
EFE7
C663
C663
C7C3
C7C3
C663
EE77
6E76
700E
3C3C
1FF8
07E0
ENDCHAR
STARTCHAR macron
ENCODING 175
SWIDTH 617 0
DWIDTH 21 0
BBX 10 3 5 22
BITMAP
FFC0
FFC0
FFC0
ENDCHAR
STARTCHAR degree
ENCODING 176
SWIDTH 259 0
DWIDTH 9 0
BBX 6 6 1 19
BITMAP
78
FC
CC
CC
FC
78
ENDCHAR
STARTCHAR plusminus
ENCODING 177
SWIDTH 623 0
DWIDTH 21 0
BBX 21 21 0 0
BITMAP
007000
007000
007000
007000
007000
007000
FFFFF8
FFFFF8
FFFFF8
007000
007000
007000
007000
007000
007000
000000
000000
000000
FFFFF8
FFFFF8
FFFFF8
ENDCHAR
STARTCHAR twosuperior
ENCODING 178
SWIDTH 374 0
DWIDTH 13 0
BBX 10 15 -20 10
BITMAP
7F00
C380
C1C0
81C0
01C0
01C0
0380
0300
0400
1800
3000
6000
7FC0
FFC0
FFC0
ENDCHAR
STARTCHAR threesuperior
ENCODING 179
SWIDTH 374 0
DWIDTH 13 0
BBX 10 15 -20 10
BITMAP
FF00
C380
81C0
01C0
01C0
0180
0200
7F00
0780
03C0
01C0
01C0
81C0
8380
FE00
ENDCHAR
STARTCHAR acute
ENCODING 180
SWIDTH 617 0
DWIDTH 21 0
BBX 8 5 8 21
BITMAP
1F
3C
38
70
E0
ENDCHAR
STARTCHAR mu
ENCODING 181
SWIDTH 705 0
DWIDTH 24 0
BBX 22 24 1 -6
BITMAP
FF1FE0
FF1FE0
3F07E0
1F03E0
1F03E0
1F03E0
1F03E0
1F03E0
1F03E0
1F03E0
1F03E0
1F03E0
1F03E0
1F0FE0
1FFFE0
1FFBF0
1FF3FC
1FE3FC
1F0000
1F0000
1F0000
1F0000
1F0000
1F0000
ENDCHAR
STARTCHAR paragraph
ENCODING 182
SWIDTH 623 0
DWIDTH 21 0
BBX 14 31 2 -6
BITMAP
1FFC
3FFC
7FFC
FF8C
FF8C
FF8C
FF8C
FF8C
FF8C
7F8C
7F8C
3F8C
0F8C
018C
018C
018C
018C
018C
018C
018C
018C
018C
018C
018C
018C
018C
018C
018C
018C
018C
018C
ENDCHAR
STARTCHAR periodcentered
ENCODING 183
SWIDTH 623 0
DWIDTH 21 0
BBX 4 5 9 7
BITMAP
F0
F0
F0
F0
F0
ENDCHAR
STARTCHAR cedilla
ENCODING 184
SWIDTH 617 0
DWIDTH 21 0
BBX 6 7 8 -7
BITMAP
30
60
78
3C
3C
FC
F8
ENDCHAR
STARTCHAR onesuperior
ENCODING 185
SWIDTH 374 0
DWIDTH 13 0
BBX 9 15 -21 10
BITMAP
FC00
1C00
1C00
1C00
1C00
1C00
1C00
1C00
1C00
1C00
1C00
1C00
1C00
3E00
FF80
ENDCHAR
STARTCHAR ordmasculine
ENCODING 186
SWIDTH 488 0
DWIDTH 17 0
BBX 15 14 1 11
BITMAP
0FE0
3FF8
7C7C
7C7C
F83E
F83E
F83E
F83E
F83E
F83E
7C7C
7C7C
3FF8
0FE0
ENDCHAR
STARTCHAR guillemotright
ENCODING 187
SWIDTH 566 0
DWIDTH 19 0
BBX 16 16 2 1
BITMAP
4080
E0C0
60E0
7070
3878
3C3C
1E3E
1F1F
1F1F
1E3E
3C3C
3878
7070
60E0
E0C0
4080
ENDCHAR
STARTCHAR onequarter
ENCODING 188
SWIDTH 803 0
DWIDTH 27 0
BBX 24 25 6 0
BITMAP
FC003F
1C003E
1C007C
1C00F8
1C01F0
1C01F0
1C03E0
1C07C0
1C0F80
1C0F80
1C1F1C
1C3E3C
1C7E3C
3E7C5C
FFF89C
01F11C
01F31C
03E61C
07C41C
0F8FFF
0F8FFF
1F001C
3E001C
7C001C
FC007F
ENDCHAR
STARTCHAR onehalf
ENCODING 189
SWIDTH 803 0
DWIDTH 27 0
BBX 24 25 6 0
BITMAP
FC003F
1C003E
1C007C
1C00F8
1C01F0
1C01F0
1C03E0
1C07C0
1C0F80
1C0F80
1C1FF8
1C3E1C
1C7E0E
3E7C0E
FFF80E
01F00E
01F01C
03E018
07C020
0F80C0
0F8180
1F0300
3E03FE
7C07FE
FC07FE
ENDCHAR
STARTCHAR threequarters
ENCODING 190
SWIDTH 803 0
DWIDTH 27 0
BBX 25 25 7 0
BITMAP
FF001F80
C3801F00
81C03E00
01C07C00
01C0F800
0180F800
0201F000
7F03E000
0787C000
03C7C000
01CF8E00
01DF1E00
81FF1E00
83BE2E00
FE7C4E00
00F88E00
00F98E00
01F30E00
03E20E00
07C7FF80
07C7FF80
0F800E00
1F000E00
3E000E00
7E003F80
ENDCHAR
STARTCHAR questiondown
ENCODING 191
SWIDTH 505 0
DWIDTH 17 0
BBX 15 25 1 -7
BITMAP
03E0
03E0
03E0
03E0
03E0
0000
0000
03E0
03E0
03C0
03C0
0380
0700
0E00
1C00
3800
7800
F800
F800
F80E
F80E
FC0E
7E1E
3FFE
0FF8
ENDCHAR
STARTCHAR Agrave
ENCODING 192
SWIDTH 795 0
DWIDTH 27 0
BBX 27 32 0 0
BITMAP
00F80000
00380000
001C0000
000E0000
00070000
00000000
00000000
000E0000
000E0000
001F0000
001F0000
003F8000
003F8000
003FC000
006FC000
0067C000
00C7E000
00C3E000
0183F000
0181F000
0301F800
0300F800
07FFFC00
07FFFC00
0E007E00
0C003E00
1C003F00
18001F00
38001F80
78001F80
FE007FE0
FE007FE0
ENDCHAR
STARTCHAR Aacute
ENCODING 193
SWIDTH 795 0
DWIDTH 27 0
BBX 27 32 0 0
BITMAP
0003E000
00078000
00070000
000E0000
001C0000
00000000
00000000
000E0000
000E0000
001F0000
001F0000
003F8000
003F8000
003FC000
006FC000
0067C000
00C7E000
00C3E000
0183F000
0181F000
0301F800
0300F800
07FFFC00
07FFFC00
0E007E00
0C003E00
1C003F00
18001F00
38001F80
78001F80
FE007FE0
FE007FE0
ENDCHAR
STARTCHAR Acircumflex
ENCODING 194
SWIDTH 795 0
DWIDTH 27 0
BBX 27 32 0 0
BITMAP
003F0000
003F0000
00738000
00E1C000
01C0E000
00000000
00000000
000E0000
000E0000
001F0000
001F0000
003F8000
003F8000
003FC000
006FC000
0067C000
00C7E000
00C3E000
0183F000
0181F000
0301F800
0300F800
07FFFC00
07FFFC00
0E007E00
0C003E00
1C003F00
18001F00
38001F80
78001F80
FE007FE0
FE007FE0
ENDCHAR
STARTCHAR Atilde
ENCODING 195
SWIDTH 795 0
DWIDTH 27 0
BBX 27 32 0 0
BITMAP
00786000
00FFE000
01FFE000
01FFC000
01838000
00000000
00000000
000E0000
000E0000
001F0000
001F0000
003F8000
003F8000
003FC000
006FC000
0067C000
00C7E000
00C3E000
0183F000
0181F000
0301F800
0300F800
07FFFC00
07FFFC00
0E007E00
0C003E00
1C003F00
18001F00
38001F80
78001F80
FE007FE0
FE007FE0
ENDCHAR
STARTCHAR Adieresis
ENCODING 196
SWIDTH 795 0
DWIDTH 27 0
BBX 27 31 0 0
BITMAP
0070E000
0070E000
0070E000
0070E000
00000000
00000000
000E0000
000E0000
001F0000
001F0000
003F8000
003F8000
003FC000
006FC000
0067C000
00C7E000
00C3E000
0183F000
0181F000
0301F800
0300F800
07FFFC00
07FFFC00
0E007E00
0C003E00
1C003F00
18001F00
38001F80
78001F80
FE007FE0
FE007FE0
ENDCHAR
STARTCHAR Aring
ENCODING 197
SWIDTH 795 0
DWIDTH 27 0
BBX 27 32 0 0
BITMAP
000E0000
001B0000
00110000
001B0000
000E0000
00000000
00000000
000E0000
000E0000
001F0000
001F0000
003F8000
003F8000
003FC000
006FC000
0067C000
00C7E000
00C3E000
0183F000
0181F000
0301F800
0300F800
07FFFC00
07FFFC00
0E007E00
0C003E00
1C003F00
18001F00
38001F80
78001F80
FE007FE0
FE007FE0
ENDCHAR
STARTCHAR AE
ENCODING 198
SWIDTH 959 0
DWIDTH 33 0
BBX 31 25 0 0
BITMAP
0001FFFC
0003FFFC
0003F03C
0007F01C
000FF01C
000DF000
001DF000
0019F000
0031F000
0071F038
0061F038
00E1FFF8
00C1FFF8
0181F038
0181F038
0301F000
07FFF000
07FFF000
0C01F000
0C01F000
1801F006
3001F006
7003F80E
FC0FFFFE
FC0FFFFE
ENDCHAR
STARTCHAR Ccedilla
ENCODING 199
SWIDTH 711 0
DWIDTH 24 0
BBX 21 32 1 -7
BITMAP
007FC0
03FFF8
0FC0F8
1F0038
3E0038
3C0038
7C0000
7C0000
F80000
F80000
F80000
F80000
F80000
F80000
F80000
F80000
FC0000
7C0000
7E0000
3E0000
3F8008
1FC078
0FFFF8
03FFF0
007FC0
003000
006000
007800
003C00
003C00
00FC00
00F800
ENDCHAR
STARTCHAR Egrave
ENCODING 200
SWIDTH 601 0
DWIDTH 20 0
BBX 19 32 1 0
BITMAP
07C000
01C000
00E000
007000
003800
000000
000000
FFFFE0
FFFFE0
3F01E0
1F00E0
1F00E0
1F0000
1F0000
1F0000
1F0000
1F0300
1F0300
1FFF00
1FFF00
1F0300
1F0300
1F0000
1F0000
1F0000
1F0000
1F0000
1F00E0
1F00E0
3F80E0
FFFFE0
FFFFE0
ENDCHAR
STARTCHAR Eacute
ENCODING 201
SWIDTH 601 0
DWIDTH 20 0
BBX 19 32 1 0
BITMAP
003E00
007800
007000
00E000
01C000
000000
000000
FFFFE0
FFFFE0
3F01E0
1F00E0
1F00E0
1F0000
1F0000
1F0000
1F0000
1F0300
1F0300
1FFF00
1FFF00
1F0300
1F0300
1F0000
1F0000
1F0000
1F0000
1F0000
1F00E0
1F00E0
3F80E0
FFFFE0
FFFFE0
ENDCHAR
STARTCHAR Ecircumflex
ENCODING 202
SWIDTH 601 0
DWIDTH 20 0
BBX 19 32 1 0
BITMAP
01F800
01F800
039C00
070E00
0E0700
000000
000000
FFFFE0
FFFFE0
3F01E0
1F00E0
1F00E0
1F0000
1F0000
1F0000
1F0000
1F0300
1F0300
1FFF00
1FFF00
1F0300
1F0300
1F0000
1F0000
1F0000
1F0000
1F0000
1F00E0
1F00E0
3F80E0
FFFFE0
FFFFE0
ENDCHAR
STARTCHAR Edieresis
ENCODING 203
SWIDTH 601 0
DWIDTH 20 0
BBX 19 31 1 0
BITMAP
070E00
070E00
070E00
070E00
000000
000000
FFFFE0
FFFFE0
3F01E0
1F00E0
1F00E0
1F0000
1F0000
1F0000
1F0000
1F0300
1F0300
1FFF00
1FFF00
1F0300
1F0300
1F0000
1F0000
1F0000
1F0000
1F0000
1F00E0
1F00E0
3F80E0
FFFFE0
FFFFE0
ENDCHAR
STARTCHAR Igrave
ENCODING 204
SWIDTH 349 0
DWIDTH 12 0
BBX 11 32 0 0
BITMAP
F800
3800
1C00
0E00
0700
0000
0000
FFE0
FFE0
3F80
1F00
1F00
1F00
1F00
1F00
1F00
1F00
1F00
1F00
1F00
1F00
1F00
1F00
1F00
1F00
1F00
1F00
1F00
1F00
3F80
FFE0
FFE0
ENDCHAR
STARTCHAR Iacute
ENCODING 205
SWIDTH 349 0
DWIDTH 12 0
BBX 11 32 0 0
BITMAP
03E0
0780
0700
0E00
1C00
0000
0000
FFE0
FFE0
3F80
1F00
1F00
1F00
1F00
1F00
1F00
1F00
1F00
1F00
1F00
1F00
1F00
1F00
1F00
1F00
1F00
1F00
1F00
1F00
3F80
FFE0
FFE0
ENDCHAR
STARTCHAR Icircumflex
ENCODING 206
SWIDTH 349 0
DWIDTH 12 0
BBX 12 32 1 0
BITMAP
1F80
1F80
39C0
70E0
E070
0000
0000
7FF0
7FF0
1FC0
0F80
0F80
0F80
0F80
0F80
0F80
0F80
0F80
0F80
0F80
0F80
0F80
0F80
0F80
0F80
0F80
0F80
0F80
0F80
1FC0
7FF0
7FF0
ENDCHAR
STARTCHAR Idieresis
ENCODING 207
SWIDTH 349 0
DWIDTH 12 0
BBX 11 31 0 0
BITMAP
E1C0
E1C0
E1C0
E1C0
0000
0000
FFE0
FFE0
3F80
1F00
1F00
1F00
1F00
1F00
1F00
1F00
1F00
1F00
1F00
1F00
1F00
1F00
1F00
1F00
1F00
1F00
1F00
1F00
3F80
FFE0
FFE0
ENDCHAR
STARTCHAR Eth
ENCODING 208
SWIDTH 794 0
DWIDTH 27 0
BBX 25 25 0 0
BITMAP
7FFF8000
7FFFF000
3F03F800
1F007C00
1F003E00
1F001F00
1F001F00
1F001F00
1F000F80
1F000F80
1F000F80
FFFC0F80
FFFC0F80
1F000F80
1F000F80
1F000F80
1F000F00
1F001F00
1F001F00
1F001E00
1F003E00
1F007C00
3F81F800
7FFFF000
7FFF8000
ENDCHAR
STARTCHAR Ntilde
ENCODING 209
SWIDTH 788 0
DWIDTH 27 0
BBX 25 32 1 0
BITMAP
00786000
00FFE000
01FFE000
01FFC000
01838000
00000000
00000000
FE00FF80
FF00FF80
3F003E00
1F801C00
1FC01C00
1FC01C00
1FE01C00
1FF01C00
1DF81C00
1DF81C00
1CFC1C00
1C7E1C00
1C7E1C00
1C3F1C00
1C1F9C00
1C1FDC00
1C0FDC00
1C07FC00
1C03FC00
1C03FC00
1C01FC00
1C00FC00
3E00FC00
FF807C00
FF803C00
ENDCHAR
STARTCHAR Ograve
ENCODING 210
SWIDTH 810 0
DWIDTH 28 0
BBX 25 32 1 0
BITMAP
01F00000
00700000
00380000
001C0000
000E0000
00000000
00000000
00FF8000
03FFE000
0FC1F800
1F007C00
3E003E00
3C001E00
7C001F00
7C001F00
F8000F80
F8000F80
F8000F80
F8000F80
F8000F80
F8000F80
F8000F80
F8000F80
F8000F80
7C001F00
7C001F00
3E003E00
3E003E00
1F007C00
0FC1F800
03FFE000
00FF8000
ENDCHAR
STARTCHAR Oacute
ENCODING 211
SWIDTH 810 0
DWIDTH 28 0
BBX 25 32 1 0
BITMAP
0007C000
000F0000
000E0000
001C0000
00380000
00000000
00000000
00FF8000
03FFE000
0FC1F800
1F007C00
3E003E00
3C001E00
7C001F00
7C001F00
F8000F80
F8000F80
F8000F80
F8000F80
F8000F80
F8000F80
F8000F80
F8000F80
F8000F80
7C001F00
7C001F00
3E003E00
3E003E00
1F007C00
0FC1F800
03FFE000
00FF8000
ENDCHAR
STARTCHAR Ocircumflex
ENCODING 212
SWIDTH 810 0
DWIDTH 28 0
BBX 25 32 1 0
BITMAP
007E0000
007E0000
00E70000
01C38000
0381C000
00000000
00000000
00FF8000
03FFE000
0FC1F800
1F007C00
3E003E00
3C001E00
7C001F00
7C001F00
F8000F80
F8000F80
F8000F80
F8000F80
F8000F80
F8000F80
F8000F80
F8000F80
F8000F80
7C001F00
7C001F00
3E003E00
3E003E00
1F007C00
0FC1F800
03FFE000
00FF8000
ENDCHAR
STARTCHAR Otilde
ENCODING 213
SWIDTH 810 0
DWIDTH 28 0
BBX 25 32 1 0
BITMAP
00F0C000
01FFC000
03FFC000
03FF8000
03070000
00000000
00000000
00FF8000
03FFE000
0FC1F800
1F007C00
3E003E00
3C001E00
7C001F00
7C001F00
F8000F80
F8000F80
F8000F80
F8000F80
F8000F80
F8000F80
F8000F80
F8000F80
F8000F80
7C001F00
7C001F00
3E003E00
3E003E00
1F007C00
0FC1F800
03FFE000
00FF8000
ENDCHAR
STARTCHAR Odieresis
ENCODING 214
SWIDTH 810 0
DWIDTH 28 0
BBX 25 31 1 0
BITMAP
01C38000
01C38000
01C38000
01C38000
00000000
00000000
00FF8000
03FFE000
0FC1F800
1F007C00
3E003E00
3C001E00
7C001F00
7C001F00
F8000F80
F8000F80
F8000F80
F8000F80
F8000F80
F8000F80
F8000F80
F8000F80
F8000F80
7C001F00
7C001F00
3E003E00
3E003E00
1F007C00
0FC1F800
03FFE000
00FF8000
ENDCHAR
STARTCHAR multiply
ENCODING 215
SWIDTH 623 0
DWIDTH 21 0
BBX 20 21 1 0
BITMAP
600060
E00070
F000F0
7801E0
3C03C0
1E0780
0F0F00
079E00
03FC00
01F800
00F000
01F800
03FC00
079E00
0F0F00
1E0780
3C03C0
7801E0
F000F0
E00070
600060
ENDCHAR
STARTCHAR Oslash
ENCODING 216
SWIDTH 810 0
DWIDTH 28 0
BBX 25 25 1 0
BITMAP
00FF0380
03FFE700
0FC0F600
1F007C00
3E003E00
3E003E00
7C007F00
7C00FF00
F801CF80
F8038F80
F8070F80
F80E0F80
F81C0F80
F8380F80
F8700F80
F8E00F80
F9C00F00
7F801F00
7F001F00
7E001E00
3E003E00
1F007C00
3781F800
73FFE000
E07F0000
ENDCHAR
STARTCHAR Ugrave
ENCODING 217
SWIDTH 747 0
DWIDTH 25 0
BBX 25 32 0 0
BITMAP
01F00000
00700000
00380000
001C0000
000E0000
00000000
00000000
FFE0FF80
FFE0FF80
3F803E00
1F001C00
1F001C00
1F001C00
1F001C00
1F001C00
1F001C00
1F001C00
1F001C00
1F001C00
1F001C00
1F001C00
1F001C00
1F001C00
1F001C00
1F001C00
1F001C00
0F003C00
0F803800
0F807800
07E0F000
03FFE000
007F8000
ENDCHAR
STARTCHAR Uacute
ENCODING 218
SWIDTH 747 0
DWIDTH 25 0
BBX 25 32 0 0
BITMAP
0007C000
000F0000
000E0000
001C0000
00380000
00000000
00000000
FFE0FF80
FFE0FF80
3F803E00
1F001C00
1F001C00
1F001C00
1F001C00
1F001C00
1F001C00
1F001C00
1F001C00
1F001C00
1F001C00
1F001C00
1F001C00
1F001C00
1F001C00
1F001C00
1F001C00
0F003C00
0F803800
0F807800
07E0F000
03FFE000
007F8000
ENDCHAR
STARTCHAR Ucircumflex
ENCODING 219
SWIDTH 747 0
DWIDTH 25 0
BBX 25 32 0 0
BITMAP
007E0000
007E0000
00E70000
01C38000
0381C000
00000000
00000000
FFE0FF80
FFE0FF80
3F803E00
1F001C00
1F001C00
1F001C00
1F001C00
1F001C00
1F001C00
1F001C00
1F001C00
1F001C00
1F001C00
1F001C00
1F001C00
1F001C00
1F001C00
1F001C00
1F001C00
0F003C00
0F803800
0F807800
07E0F000
03FFE000
007F8000
ENDCHAR
STARTCHAR Udieresis
ENCODING 220
SWIDTH 747 0
DWIDTH 25 0
BBX 25 31 0 0
BITMAP
01C38000
01C38000
01C38000
01C38000
00000000
00000000
FFE0FF80
FFE0FF80
3F803E00
1F001C00
1F001C00
1F001C00
1F001C00
1F001C00
1F001C00
1F001C00
1F001C00
1F001C00
1F001C00
1F001C00
1F001C00
1F001C00
1F001C00
1F001C00
1F001C00
0F003C00
0F803800
0F807800
07E0F000
03FFE000
007F8000
ENDCHAR
STARTCHAR Yacute
ENCODING 221
SWIDTH 717 0
DWIDTH 24 0
BBX 25 32 0 0
BITMAP
0007C000
000F0000
000E0000
001C0000
00380000
00000000
00000000
FFE03F80
FFE03F80
3F800E00
1F800C00
0FC01C00
0FC03800
07E03000
03F07000
03F06000
01F8C000
00FDC000
00FD8000
007F0000
003F0000
003E0000
003E0000
003E0000
003E0000
003E0000
003E0000
003E0000
003E0000
007F0000
01FFC000
01FFC000
ENDCHAR
STARTCHAR Thorn
ENCODING 222
SWIDTH 614 0
DWIDTH 21 0
BBX 20 25 0 0
BITMAP
FFE000
FFE000
3F8000
1F0000
1F0000
1FFF00
1FFFC0
1F07E0
1F03E0
1F01F0
1F01F0
1F01F0
1F01F0
1F01F0
1F01F0
1F03E0
1F03C0
1F0FC0
1FFF00
1FFC00
1F0000
1F0000
3F8000
FFE000
FFE000
ENDCHAR
STARTCHAR germandbls
ENCODING 223
SWIDTH 700 0
DWIDTH 24 0
BBX 21 26 1 0
BITMAP
01FC00
07FF00
0F9F80
0F0F80
1F0F80
1F0F80
1F0F00
1F0E00
1F1C00
1F3800
1F3800
1F7800
1F7C00
1F7F00
1F3F80
1F3FC0
1F0FE0
1F07F0
1F03F8
1F01F8
1F00F8
1F38F8
1F38F8
3F39F0
FFBFE0
FF9F80
ENDCHAR
STARTCHAR agrave
ENCODING 224
SWIDTH 556 0
DWIDTH 19 0
BBX 17 25 1 0
BITMAP
1F0000
070000
038000
01C000
00E000
000000
000000
0FF000
3FF800
387C00
383E00
383E00
003E00
003E00
0FFE00
3FFE00
7E3E00
FC3E00
F83E00
F83E00
F83E00
FC7E00
7FDE00
7F9F80
1F0F80
ENDCHAR
STARTCHAR aacute
ENCODING 225
SWIDTH 556 0
DWIDTH 19 0
BBX 17 25 1 0
BITMAP
00F800
01E000
01C000
038000
070000
000000
000000
0FF000
3FF800
387C00
383E00
383E00
003E00
003E00
0FFE00
3FFE00
7E3E00
FC3E00
F83E00
F83E00
F83E00
FC7E00
7FDE00
7F9F80
1F0F80
ENDCHAR
STARTCHAR acircumflex
ENCODING 226
SWIDTH 556 0
DWIDTH 19 0
BBX 17 25 1 0
BITMAP
07E000
07E000
0E7000
1C3800
381C00
000000
000000
0FF000
3FF800
387C00
383E00
383E00
003E00
003E00
0FFE00
3FFE00
7E3E00
FC3E00
F83E00
F83E00
F83E00
FC7E00
7FDE00
7F9F80
1F0F80
ENDCHAR
STARTCHAR atilde
ENCODING 227
SWIDTH 556 0
DWIDTH 19 0
BBX 17 25 1 0
BITMAP
0F0C00
1FFC00
3FFC00
3FF800
307000
000000
000000
0FF000
3FF800
387C00
383E00
383E00
003E00
003E00
0FFE00
3FFE00
7E3E00
FC3E00
F83E00
F83E00
F83E00
FC7E00
7FDE00
7F9F80
1F0F80
ENDCHAR
STARTCHAR adieresis
ENCODING 228
SWIDTH 556 0
DWIDTH 19 0
BBX 17 24 1 0
BITMAP
1C3800
1C3800
1C3800
1C3800
000000
000000
0FF000
3FF800
387C00
383E00
383E00
003E00
003E00
0FFE00
3FFE00
7E3E00
FC3E00
F83E00
F83E00
F83E00
FC7E00
7FDE00
7F9F80
1F0F80
ENDCHAR
STARTCHAR aring
ENCODING 229
SWIDTH 556 0
DWIDTH 19 0
BBX 17 25 1 0
BITMAP
01C000
036000
022000
036000
01C000
000000
000000
0FF000
3FF800
387C00
383E00
383E00
003E00
003E00
0FFE00
3FFE00
7E3E00
FC3E00
F83E00
F83E00
F83E00
FC7E00
7FDE00
7F9F80
1F0F80
ENDCHAR
STARTCHAR ae
ENCODING 230
SWIDTH 858 0
DWIDTH 29 0
BBX 27 18 1 0
BITMAP
0FF07C00
3FF9FF00
383F8780
381F03C0
001F03C0
001F03E0
001F03E0
07FFFFE0
3FFFFFE0
7E1F0000
FC1F0000
F81F0000
F81F8000
F81FC000
FC3FE020
7FE7FFE0
3FC3FFE0
1F00FF00
ENDCHAR
STARTCHAR ccedilla
ENCODING 231
SWIDTH 541 0
DWIDTH 18 0
BBX 16 25 1 -7
BITMAP
03FE
0FFF
3E0F
3C07
7C07
7807
F800
F800
F800
F800
F800
F800
7C00
7E00
3F01
1FFF
0FFF
03FC
00C0
0180
01E0
00F0
00F0
03F0
03E0
ENDCHAR
STARTCHAR egrave
ENCODING 232
SWIDTH 568 0
DWIDTH 19 0
BBX 16 25 1 0
BITMAP
1F00
0700
0380
01C0
00E0
0000
0000
07F0
1FF8
3C3C
7C1E
781E
781F
F81F
FFFF
FFFF
F800
F800
F800
7C00
7E00
3F01
1FFF
0FFF
03FC
ENDCHAR
STARTCHAR eacute
ENCODING 233
SWIDTH 568 0
DWIDTH 19 0
BBX 16 25 1 0
BITMAP
00F8
01E0
01C0
0380
0700
0000
0000
07F0
1FF8
3C3C
7C1E
781E
781F
F81F
FFFF
FFFF
F800
F800
F800
7C00
7E00
3F01
1FFF
0FFF
03FC
ENDCHAR
STARTCHAR ecircumflex
ENCODING 234
SWIDTH 568 0
DWIDTH 19 0
BBX 16 25 1 0
BITMAP
07E0
07E0
0E70
1C38
381C
0000
0000
07F0
1FF8
3C3C
7C1E
781E
781F
F81F
FFFF
FFFF
F800
F800
F800
7C00
7E00
3F01
1FFF
0FFF
03FC
ENDCHAR
STARTCHAR edieresis
ENCODING 235
SWIDTH 568 0
DWIDTH 19 0
BBX 16 24 1 0
BITMAP
1C38
1C38
1C38
1C38
0000
0000
07F0
1FF8
3C3C
7C1E
781E
781F
F81F
FFFF
FFFF
F800
F800
F800
7C00
7E00
3F01
1FFF
0FFF
03FC
ENDCHAR
STARTCHAR igrave
ENCODING 236
SWIDTH 325 0
DWIDTH 11 0
BBX 11 25 0 0
BITMAP
F800
3800
1C00
0E00
0700
0000
0000
FF00
FF00
3F00
1F00
1F00
1F00
1F00
1F00
1F00
1F00
1F00
1F00
1F00
1F00
1F00
3F80
FFE0
FFE0
ENDCHAR
STARTCHAR iacute
ENCODING 237
SWIDTH 325 0
DWIDTH 11 0
BBX 11 25 0 0
BITMAP
07C0
0F00
0E00
1C00
3800
0000
0000
FF00
FF00
3F00
1F00
1F00
1F00
1F00
1F00
1F00
1F00
1F00
1F00
1F00
1F00
1F00
3F80
FFE0
FFE0
ENDCHAR
STARTCHAR icircumflex
ENCODING 238
SWIDTH 325 0
DWIDTH 11 0
BBX 12 25 1 0
BITMAP
1F80
1F80
39C0
70E0
E070
0000
0000
7F80
7F80
1F80
0F80
0F80
0F80
0F80
0F80
0F80
0F80
0F80
0F80
0F80
0F80
0F80
1FC0
7FF0
7FF0
ENDCHAR
STARTCHAR idieresis
ENCODING 239
SWIDTH 325 0
DWIDTH 11 0
BBX 11 24 0 0
BITMAP
E1C0
E1C0
E1C0
E1C0
0000
0000
FF00
FF00
3F00
1F00
1F00
1F00
1F00
1F00
1F00
1F00
1F00
1F00
1F00
1F00
1F00
3F80
FFE0
FFE0
ENDCHAR
STARTCHAR eth
ENCODING 240
SWIDTH 652 0
DWIDTH 22 0
BBX 19 28 2 0
BITMAP
001800
003C00
FE7000
FFE000
1FE000
07F800
0FFC00
1C7E00
783F00
301F80
03FF80
0FFFC0
3F1FC0
3C07C0
7C07E0
7803E0
F803E0
F803E0
F803E0
F803E0
F803E0
F803C0
7807C0
7C07C0
3C0F80
1F1F00
0FFE00
03F800
ENDCHAR
STARTCHAR ntilde
ENCODING 241
SWIDTH 654 0
DWIDTH 22 0
BBX 22 25 0 0
BITMAP
01E180
03FF80
07FF80
07FF00
060E00
000000
000000
FF0F00
FF3FC0
7F7FC0
1F7FE0
1FC3E0
1F83E0
1F03E0
1F03E0
1F03E0
1F03E0
1F03E0
1F03E0
1F03E0
1F03E0
1F03E0
3F87F0
FFFFFC
FFFFFC
ENDCHAR
STARTCHAR ograve
ENCODING 242
SWIDTH 617 0
DWIDTH 21 0
BBX 19 25 1 0
BITMAP
0F8000
038000
01C000
00E000
007000
000000
000000
03F800
0FFE00
3F1F80
3C0780
7C07C0
7803C0
F803E0
F803E0
F803E0
F803E0
F803E0
F803E0
7803C0
7C07C0
3C0780
3F1F80
0FFE00
03F800
ENDCHAR
STARTCHAR oacute
ENCODING 243
SWIDTH 617 0
DWIDTH 21 0
BBX 19 25 1 0
BITMAP
003E00
007800
007000
00E000
01C000
000000
000000
03F800
0FFE00
3F1F80
3C0780
7C07C0
7803C0
F803E0
F803E0
F803E0
F803E0
F803E0
F803E0
7803C0
7C07C0
3C0780
3F1F80
0FFE00
03F800
ENDCHAR
STARTCHAR ocircumflex
ENCODING 244
SWIDTH 617 0
DWIDTH 21 0
BBX 19 25 1 0
BITMAP
03F000
03F000
073800
0E1C00
1C0E00
000000
000000
03F800
0FFE00
3F1F80
3C0780
7C07C0
7803C0
F803E0
F803E0
F803E0
F803E0
F803E0
F803E0
7803C0
7C07C0
3C0780
3F1F80
0FFE00
03F800
ENDCHAR
STARTCHAR otilde
ENCODING 245
SWIDTH 617 0
DWIDTH 21 0
BBX 19 25 1 0
BITMAP
078600
0FFE00
1FFE00
1FFC00
183800
000000
000000
03F800
0FFE00
3F1F80
3C0780
7C07C0
7803C0
F803E0
F803E0
F803E0
F803E0
F803E0
F803E0
7803C0
7C07C0
3C0780
3F1F80
0FFE00
03F800
ENDCHAR
STARTCHAR odieresis
ENCODING 246
SWIDTH 617 0
DWIDTH 21 0
BBX 19 24 1 0
BITMAP
0E1C00
0E1C00
0E1C00
0E1C00
000000
000000
03F800
0FFE00
3F1F80
3C0780
7C07C0
7803C0
F803E0
F803E0
F803E0
F803E0
F803E0
F803E0
7803C0
7C07C0
3C0780
3F1F80
0FFE00
03F800
ENDCHAR
STARTCHAR divide
ENCODING 247
SWIDTH 623 0
DWIDTH 21 0
BBX 20 17 1 1
BITMAP
00F000
00F000
00F000
00F000
000000
000000
000000
FFFFF0
FFFFF0
FFFFF0
000000
000000
000000
00F000
00F000
00F000
00F000
ENDCHAR
STARTCHAR oslash
ENCODING 248
SWIDTH 617 0
DWIDTH 21 0
BBX 21 18 0 0
BITMAP
01FC38
07FF20
1F8FC0
1E03C0
3E03E0
3C07E0
7C0FF0
7C1DF0
7C79F0
7CE1F0
7DC1F0
7F81F0
3F03E0
3E03E0
1E07C0
1F0F80
23FF00
E1FC00
ENDCHAR
STARTCHAR ugrave
ENCODING 249
SWIDTH 654 0
DWIDTH 22 0
BBX 22 25 0 0
BITMAP
03E000
00E000
007000
003800
001C00
000000
000000
FF1FE0
FF1FE0
3F07E0
1F03E0
1F03E0
1F03E0
1F03E0
1F03E0
1F03E0
1F03E0
1F03E0
1F03E0
1F07E0
1F0FE0
1FFBE0
0FFBF8
0FF3FC
03C3FC
ENDCHAR
STARTCHAR uacute
ENCODING 250
SWIDTH 654 0
DWIDTH 22 0
BBX 22 25 0 0
BITMAP
001F00
003C00
003800
007000
00E000
000000
000000
FF1FE0
FF1FE0
3F07E0
1F03E0
1F03E0
1F03E0
1F03E0
1F03E0
1F03E0
1F03E0
1F03E0
1F03E0
1F07E0
1F0FE0
1FFBE0
0FFBF8
0FF3FC
03C3FC
ENDCHAR
STARTCHAR ucircumflex
ENCODING 251
SWIDTH 654 0
DWIDTH 22 0
BBX 22 25 0 0
BITMAP
00FC00
00FC00
01CE00
038700
070380
000000
000000
FF1FE0
FF1FE0
3F07E0
1F03E0
1F03E0
1F03E0
1F03E0
1F03E0
1F03E0
1F03E0
1F03E0
1F03E0
1F07E0
1F0FE0
1FFBE0
0FFBF8
0FF3FC
03C3FC
ENDCHAR
STARTCHAR udieresis
ENCODING 252
SWIDTH 654 0
DWIDTH 22 0
BBX 22 24 0 0
BITMAP
038700
038700
038700
038700
000000
000000
FF1FE0
FF1FE0
3F07E0
1F03E0
1F03E0
1F03E0
1F03E0
1F03E0
1F03E0
1F03E0
1F03E0
1F03E0
1F07E0
1F0FE0
1FFBE0
0FFBF8
0FF3FC
03C3FC
ENDCHAR
STARTCHAR yacute
ENCODING 253
SWIDTH 654 0
DWIDTH 22 0
BBX 22 32 0 -7
BITMAP
001F00
003C00
003800
007000
00E000
000000
000000
FFC0FC
FFC0FC
3F0070
1F0060
1F8060
0F80C0
0FC0C0
07C180
07E380
07E300
03E700
03F600
01FE00
01FC00
00F800
00F800
007000
007000
002000
006000
00C000
01C000
038000
078000
1F0000
ENDCHAR
STARTCHAR thorn
ENCODING 254
SWIDTH 652 0
DWIDTH 22 0
BBX 21 31 0 -7
BITMAP
FF0000
FF0000
3F0000
1F0000
1F0000
1F0000
1F0F80
1F3FC0
1F7FE0
1F7FF0
1FC3F0
1F81F8
1F00F8
1F00F8
1F00F8
1F00F8
1F00F8
1F00F8
1F01F0
1F01F0
1FC3F0
1FFFE0
1F7FC0
1F1F00
1F0000
1F0000
1F0000
1F0000
3F8000
FFE000
FFE000
ENDCHAR
STARTCHAR ydieresis
ENCODING 255
SWIDTH 654 0
DWIDTH 22 0
BBX 22 31 0 -7
BITMAP
038700
038700
038700
038700
000000
000000
FFC0FC
FFC0FC
3F0070
1F0060
1F8060
0F80C0
0FC0C0
07C180
07E380
07E300
03E700
03F600
01FE00
01FC00
00F800
00F800
007000
007000
002000
006000
00C000
01C000
038000
078000
1F0000
ENDCHAR
ENDFONT
