STARTFONT 2.1
COMMENT AUTOMATICALLY GENERATED FILE. DO NOT EDIT!
COMMENT Generated with 'ucs2any.pl luBIS12.bdf ../../../fonts/util/map-ISO8859-1 ISO8859-1'
COMMENT from an ISO10646-1 encoded source BDF font.
COMMENT ucs2any.pl by Markus Kuhn <mkuhn@acm.org>, 2000.
COMMENT $Xorg: $
COMMENT ISO10646-1 extension by Markus Kuhn <mkuhn@acm.org>, 2001-03-20
COMMENT  (c) Copyright Bigelow & Holmes 1986, 1985. Lucida is a registered
COMMENT  trademark of Bigelow & Holmes. See LEGAL NOTICE file for terms 
COMMENT  of the license. 
FONT -B&H-Lucida-Bold-I-Normal-Sans-17-120-100-100-P-108-ISO8859-1
SIZE 12 100 100
FONTBOUNDINGBOX 34 18 -12 -3
STARTPROPERTIES 22
COMMENT Begin LogicalFontDescription
FONTNAME_REGISTRY ""
FOUNDRY "B&H"
FAMILY_NAME "Lucida"
WEIGHT_NAME "Bold"
SLANT "I"
SETWIDTH_NAME "Normal"
ADD_STYLE_NAME "Sans"
PIXEL_SIZE 17
POINT_SIZE 120
RESOLUTION_X 100
RESOLUTION_Y 100
SPACING "P"
AVERAGE_WIDTH 108
CHARSET_REGISTRY "ISO8859"
CHARSET_ENCODING "1"
COMMENT END LogicalFontDescription
FONT_ASCENT 15
FONT_DESCENT 4
DEFAULT_CHAR 0
COPYRIGHT "Copyright Bigelow & Holmes 1986, 1985."
FACE_NAME "Lucida Sans Bold Italic"
X_HEIGHT 9
CAP_HEIGHT 12
ENDPROPERTIES
CHARS 192
STARTCHAR defaultchar
ENCODING 0
SWIDTH 813 0
DWIDTH 14 0
BBX 13 11 2 0
BITMAP
AAA8
0000
8008
0000
8008
0000
8008
0000
8008
0000
AAA8
ENDCHAR
STARTCHAR space
ENCODING 32
SWIDTH 343 0
DWIDTH 6 0
BBX 1 1 0 0
BITMAP
00
ENDCHAR
STARTCHAR exclam
ENCODING 33
SWIDTH 343 0
DWIDTH 6 0
BBX 6 12 1 0
BITMAP
3C
3C
38
38
38
38
30
70
00
00
F0
F0
ENDCHAR
STARTCHAR quotedbl
ENCODING 34
SWIDTH 530 0
DWIDTH 9 0
BBX 8 6 3 6
BITMAP
E7
E7
E7
E7
66
66
ENDCHAR
STARTCHAR numbersign
ENCODING 35
SWIDTH 687 0
DWIDTH 12 0
BBX 11 12 2 0
BITMAP
0760
06E0
0EC0
7FE0
7FE0
1B80
3B00
FFC0
FFC0
6E00
EC00
DC00
ENDCHAR
STARTCHAR dollar
ENCODING 36
SWIDTH 687 0
DWIDTH 12 0
BBX 10 17 2 -2
BITMAP
0300
0300
0E00
1FC0
3FC0
3A40
3E00
1E00
1E00
0F00
0F80
0B80
8B80
FF00
FE00
1800
1800
ENDCHAR
STARTCHAR percent
ENCODING 37
SWIDTH 908 0
DWIDTH 15 0
BBX 14 12 2 0
BITMAP
3C1C
7C38
EE70
CCE0
FDC0
7B80
0778
0EFC
1CCC
39DC
70F8
E0F0
ENDCHAR
STARTCHAR ampersand
ENCODING 38
SWIDTH 816 0
DWIDTH 14 0
BBX 13 12 1 0
BITMAP
07C0
0FE0
1EE0
1EC0
0F80
1F18
7738
E7B0
E3E0
F1C0
FFC0
3EF0
ENDCHAR
STARTCHAR quotesingle
ENCODING 39
SWIDTH 265 0
DWIDTH 4 0
BBX 3 5 3 7
BITMAP
E0
E0
E0
E0
60
ENDCHAR
STARTCHAR parenleft
ENCODING 40
SWIDTH 386 0
DWIDTH 7 0
BBX 7 15 1 -3
BITMAP
02
0C
1C
38
70
70
F0
E0
E0
E0
E0
E0
70
30
10
ENDCHAR
STARTCHAR parenright
ENCODING 41
SWIDTH 386 0
DWIDTH 7 0
BBX 7 15 0 -3
BITMAP
10
18
1C
1C
0E
0E
1E
1E
1C
1C
38
38
70
E0
80
ENDCHAR
STARTCHAR asterisk
ENCODING 42
SWIDTH 464 0
DWIDTH 8 0
BBX 7 6 2 6
BITMAP
1C
5A
EE
28
EC
48
ENDCHAR
STARTCHAR plus
ENCODING 43
SWIDTH 687 0
DWIDTH 12 0
BBX 10 10 2 0
BITMAP
0600
0600
0400
0C00
FFC0
FFC0
0C00
0800
1800
1800
ENDCHAR
STARTCHAR comma
ENCODING 44
SWIDTH 343 0
DWIDTH 6 0
BBX 4 6 1 -3
BITMAP
70
70
F0
20
60
C0
ENDCHAR
STARTCHAR hyphen
ENCODING 45
SWIDTH 289 0
DWIDTH 5 0
BBX 4 2 2 4
BITMAP
F0
F0
ENDCHAR
STARTCHAR period
ENCODING 46
SWIDTH 343 0
DWIDTH 6 0
BBX 4 3 1 0
BITMAP
70
F0
E0
ENDCHAR
STARTCHAR slash
ENCODING 47
SWIDTH 596 0
DWIDTH 10 0
BBX 13 15 0 -3
BITMAP
0038
0070
0060
00E0
01C0
0180
0300
0700
0600
0C00
1C00
3800
3000
7000
E000
ENDCHAR
STARTCHAR zero
ENCODING 48
SWIDTH 687 0
DWIDTH 12 0
BBX 11 12 2 0
BITMAP
0F80
1FC0
39E0
70E0
71E0
F1E0
F1E0
E1C0
E3C0
F380
7F00
3C00
ENDCHAR
STARTCHAR one
ENCODING 49
SWIDTH 687 0
DWIDTH 12 0
BBX 6 12 4 0
BITMAP
7C
FC
38
38
38
78
78
70
70
70
F0
E0
ENDCHAR
STARTCHAR two
ENCODING 50
SWIDTH 687 0
DWIDTH 12 0
BBX 11 12 1 0
BITMAP
1F80
3FE0
21E0
00E0
01E0
03C0
0F00
1E00
3800
7000
FFC0
FF80
ENDCHAR
STARTCHAR three
ENCODING 51
SWIDTH 687 0
DWIDTH 12 0
BBX 10 12 2 0
BITMAP
1F80
3FC0
23C0
01C0
0380
3E00
3F00
0780
0380
8780
FF00
FE00
ENDCHAR
STARTCHAR four
ENCODING 52
SWIDTH 687 0
DWIDTH 12 0
BBX 10 12 1 0
BITMAP
01C0
03C0
0780
0D80
1B80
3B80
7380
FFC0
FFC0
0700
0700
0700
ENDCHAR
STARTCHAR five
ENCODING 53
SWIDTH 687 0
DWIDTH 12 0
BBX 11 12 2 0
BITMAP
1FE0
3FE0
3000
3000
3E00
7F00
0780
03C0
03C0
8780
FF80
FE00
ENDCHAR
STARTCHAR six
ENCODING 54
SWIDTH 687 0
DWIDTH 12 0
BBX 11 12 2 0
BITMAP
07E0
1FE0
3C20
7800
7780
FFC0
F3C0
E1C0
E1C0
F380
7F80
3E00
ENDCHAR
STARTCHAR seven
ENCODING 55
SWIDTH 687 0
DWIDTH 12 0
BBX 10 12 3 0
BITMAP
7FC0
FFC0
0380
0700
0E00
0E00
1C00
3800
7000
7000
F000
E000
ENDCHAR
STARTCHAR eight
ENCODING 56
SWIDTH 687 0
DWIDTH 12 0
BBX 10 12 2 0
BITMAP
0F80
1FC0
39C0
39C0
3F80
1F00
7F80
E380
E180
E380
FF00
3E00
ENDCHAR
STARTCHAR nine
ENCODING 57
SWIDTH 687 0
DWIDTH 12 0
BBX 11 12 2 0
BITMAP
0F80
3FC0
39E0
70E0
70E0
79E0
7FE0
3DC0
03C0
8780
FF00
FC00
ENDCHAR
STARTCHAR colon
ENCODING 58
SWIDTH 343 0
DWIDTH 6 0
BBX 5 9 1 0
BITMAP
38
78
70
00
00
00
70
F0
E0
ENDCHAR
STARTCHAR semicolon
ENCODING 59
SWIDTH 343 0
DWIDTH 6 0
BBX 6 12 1 -3
BITMAP
3C
3C
38
00
00
00
78
70
70
30
70
E0
ENDCHAR
STARTCHAR less
ENCODING 60
SWIDTH 687 0
DWIDTH 12 0
BBX 11 10 2 0
BITMAP
0020
00E0
03C0
1F00
FC00
7800
1C00
0700
0380
0080
ENDCHAR
STARTCHAR equal
ENCODING 61
SWIDTH 687 0
DWIDTH 12 0
BBX 11 6 1 2
BITMAP
7FE0
7FE0
0000
0000
FFC0
FFC0
ENDCHAR
STARTCHAR greater
ENCODING 62
SWIDTH 687 0
DWIDTH 12 0
BBX 11 10 1 0
BITMAP
2000
3800
1C00
0700
03C0
07E0
1F00
7800
E000
8000
ENDCHAR
STARTCHAR question
ENCODING 63
SWIDTH 539 0
DWIDTH 9 0
BBX 8 12 2 0
BITMAP
FE
FF
8F
0F
0E
1C
38
70
70
00
F0
E0
ENDCHAR
STARTCHAR at
ENCODING 64
SWIDTH 833 0
DWIDTH 14 0
BBX 14 12 1 0
BITMAP
07E0
1C18
3008
63E4
4444
C8C4
88C4
99CC
9ED8
4CF0
2080
1F00
ENDCHAR
STARTCHAR A
ENCODING 65
SWIDTH 771 0
DWIDTH 13 0
BBX 12 12 1 0
BITMAP
03C0
03C0
07C0
07C0
0DE0
0CE0
18E0
3FE0
3FE0
70F0
6070
E070
ENDCHAR
STARTCHAR B
ENCODING 66
SWIDTH 660 0
DWIDTH 11 0
BBX 10 12 2 0
BITMAP
3F80
3FC0
39C0
39C0
7380
7E00
7F00
7380
7380
E380
FF80
FE00
ENDCHAR
STARTCHAR C
ENCODING 67
SWIDTH 737 0
DWIDTH 13 0
BBX 12 12 2 0
BITMAP
07F0
1FF0
3C10
7800
7000
F000
F000
F000
F000
F840
7FC0
3F80
ENDCHAR
STARTCHAR D
ENCODING 68
SWIDTH 822 0
DWIDTH 14 0
BBX 13 12 2 0
BITMAP
3FE0
3FF0
3878
3878
7878
7078
7078
7070
70F0
F1E0
FFC0
FF00
ENDCHAR
STARTCHAR E
ENCODING 69
SWIDTH 642 0
DWIDTH 11 0
BBX 11 12 1 0
BITMAP
3FE0
3FE0
3800
3800
3800
7F80
7F80
7000
7000
7000
FF80
FF80
ENDCHAR
STARTCHAR F
ENCODING 70
SWIDTH 614 0
DWIDTH 10 0
BBX 11 12 1 0
BITMAP
3FE0
3FE0
3800
3800
3800
7F80
7F80
7000
7000
7000
F000
E000
ENDCHAR
STARTCHAR G
ENCODING 71
SWIDTH 755 0
DWIDTH 13 0
BBX 12 12 2 0
BITMAP
07F0
1FF0
3C10
7800
7000
F000
F0E0
F0E0
F1C0
F9C0
7FC0
3F80
ENDCHAR
STARTCHAR H
ENCODING 72
SWIDTH 813 0
DWIDTH 14 0
BBX 13 12 2 0
BITMAP
3C38
3838
3878
3870
7870
7FF0
7FF0
70F0
70E0
F0E0
E0E0
E1E0
ENDCHAR
STARTCHAR I
ENCODING 73
SWIDTH 361 0
DWIDTH 6 0
BBX 6 12 1 0
BITMAP
3C
3C
38
38
38
78
78
70
70
70
F0
F0
ENDCHAR
STARTCHAR J
ENCODING 74
SWIDTH 502 0
DWIDTH 9 0
BBX 10 15 0 -3
BITMAP
01C0
03C0
0380
0380
0380
0380
0780
0700
0700
0700
0700
0F00
0E00
FE00
F800
ENDCHAR
STARTCHAR K
ENCODING 75
SWIDTH 753 0
DWIDTH 13 0
BBX 12 12 1 0
BITMAP
3C70
3CE0
39C0
3B80
3B00
7F00
7F00
7780
73C0
73C0
F1E0
E0F0
ENDCHAR
STARTCHAR L
ENCODING 76
SWIDTH 623 0
DWIDTH 11 0
BBX 9 12 2 0
BITMAP
3C00
3800
3800
3800
7800
7000
7000
7000
7000
F000
FF80
FF80
ENDCHAR
STARTCHAR M
ENCODING 77
SWIDTH 940 0
DWIDTH 16 0
BBX 16 12 1 0
BITMAP
3E0F
3E1F
3E1E
3E3E
3E3E
766E
77EE
67DC
679C
679C
E71C
E03C
ENDCHAR
STARTCHAR N
ENCODING 78
SWIDTH 789 0
DWIDTH 13 0
BBX 13 12 1 0
BITMAP
3838
3C38
3C30
3E30
3E30
7770
7770
63E0
63E0
61E0
E1E0
E0E0
ENDCHAR
STARTCHAR O
ENCODING 79
SWIDTH 855 0
DWIDTH 15 0
BBX 14 12 2 0
BITMAP
07E0
1FF8
3C78
783C
703C
F03C
F038
F078
F070
F0E0
7FC0
1F00
ENDCHAR
STARTCHAR P
ENCODING 80
SWIDTH 645 0
DWIDTH 11 0
BBX 11 12 1 0
BITMAP
3FC0
3FE0
38E0
38E0
39C0
7F80
7F00
7000
7000
7000
E000
E000
ENDCHAR
STARTCHAR Q
ENCODING 81
SWIDTH 855 0
DWIDTH 15 0
BBX 14 15 2 -3
BITMAP
07E0
1FF8
3C78
783C
703C
F03C
F038
F078
F070
F0E0
7FC0
1F80
01F0
00FC
0030
ENDCHAR
STARTCHAR R
ENCODING 82
SWIDTH 708 0
DWIDTH 12 0
BBX 11 12 1 0
BITMAP
3FC0
3FE0
38E0
38E0
39C0
7F80
7F00
7700
7380
7380
E3C0
E1C0
ENDCHAR
STARTCHAR S
ENCODING 83
SWIDTH 639 0
DWIDTH 11 0
BBX 10 12 1 0
BITMAP
0FC0
3FC0
3840
3800
3C00
3E00
0F80
0780
0380
C780
FF00
FC00
ENDCHAR
STARTCHAR T
ENCODING 84
SWIDTH 747 0
DWIDTH 13 0
BBX 13 12 2 0
BITMAP
FFF8
FFF8
0700
0F00
0E00
0E00
0E00
1E00
1E00
1C00
1C00
1C00
ENDCHAR
STARTCHAR U
ENCODING 85
SWIDTH 759 0
DWIDTH 13 0
BBX 12 12 2 0
BITMAP
3870
7870
7070
70E0
70E0
F0E0
F0E0
E0C0
E1C0
F1C0
7F80
3F00
ENDCHAR
STARTCHAR V
ENCODING 86
SWIDTH 765 0
DWIDTH 13 0
BBX 12 12 3 0
BITMAP
E070
F060
F0E0
70C0
7180
7180
7300
7B00
7E00
3E00
3C00
3C00
ENDCHAR
STARTCHAR W
ENCODING 87
SWIDTH 991 0
DWIDTH 17 0
BBX 16 12 3 0
BITMAP
E1C7
E3C6
E3CE
E7CC
E7DC
E7D8
EDF8
EDF0
F9F0
F9E0
F1E0
71C0
ENDCHAR
STARTCHAR X
ENCODING 88
SWIDTH 696 0
DWIDTH 12 0
BBX 13 12 0 0
BITMAP
1C38
1E70
0EE0
0FC0
0F80
0700
0780
0F80
1F80
3BC0
71C0
E1E0
ENDCHAR
STARTCHAR Y
ENCODING 89
SWIDTH 681 0
DWIDTH 12 0
BBX 11 12 3 0
BITMAP
E0E0
71C0
7380
7B00
3E00
3E00
3C00
3C00
3800
3800
3800
7800
ENDCHAR
STARTCHAR Z
ENCODING 90
SWIDTH 687 0
DWIDTH 12 0
BBX 12 12 1 0
BITMAP
1FF0
3FF0
01E0
03C0
0780
0F80
0F00
1E00
3C00
7800
FFC0
FFC0
ENDCHAR
STARTCHAR bracketleft
ENCODING 91
SWIDTH 386 0
DWIDTH 7 0
BBX 7 15 1 -3
BITMAP
1E
1E
38
38
38
30
30
70
70
70
60
60
E0
F0
F0
ENDCHAR
STARTCHAR backslash
ENCODING 92
SWIDTH 566 0
DWIDTH 10 0
BBX 6 15 3 -3
BITMAP
C0
E0
60
60
60
70
30
30
30
38
18
18
18
1C
0C
ENDCHAR
STARTCHAR bracketright
ENCODING 93
SWIDTH 386 0
DWIDTH 7 0
BBX 7 15 1 -3
BITMAP
1E
1E
0E
0C
0C
1C
1C
1C
18
18
38
38
38
F0
F0
ENDCHAR
STARTCHAR asciicircum
ENCODING 94
SWIDTH 687 0
DWIDTH 12 0
BBX 10 10 1 2
BITMAP
0200
0200
0700
0700
0F00
1980
3980
3180
60C0
E0C0
ENDCHAR
STARTCHAR underscore
ENCODING 95
SWIDTH 500 0
DWIDTH 9 0
BBX 8 2 0 -2
BITMAP
FF
FF
ENDCHAR
STARTCHAR grave
ENCODING 96
SWIDTH 663 0
DWIDTH 11 0
BBX 4 2 6 10
BITMAP
E0
30
ENDCHAR
STARTCHAR a
ENCODING 97
SWIDTH 681 0
DWIDTH 12 0
BBX 11 9 1 0
BITMAP
0FE0
1FE0
39C0
71C0
73C0
E7C0
EFC0
FB80
7380
ENDCHAR
STARTCHAR b
ENCODING 98
SWIDTH 681 0
DWIDTH 12 0
BBX 11 12 1 0
BITMAP
1C00
3C00
3C00
39C0
3BE0
7FE0
74E0
79C0
71C0
7380
FF00
FE00
ENDCHAR
STARTCHAR c
ENCODING 99
SWIDTH 548 0
DWIDTH 9 0
BBX 9 9 1 0
BITMAP
0F80
3F80
7880
7000
F000
F000
F100
FF00
7E00
ENDCHAR
STARTCHAR d
ENCODING 100
SWIDTH 681 0
DWIDTH 12 0
BBX 12 12 1 0
BITMAP
00F0
00F0
00E0
0FE0
1FE0
39E0
71E0
73C0
E7C0
EDC0
FBC0
7380
ENDCHAR
STARTCHAR e
ENCODING 101
SWIDTH 612 0
DWIDTH 10 0
BBX 9 9 1 0
BITMAP
0F00
3F80
7380
7780
FF00
FC00
E080
FF80
3E00
ENDCHAR
STARTCHAR f
ENCODING 102
SWIDTH 464 0
DWIDTH 8 0
BBX 10 15 1 -3
BITMAP
07C0
1FC0
1C40
7F00
7F00
3800
3800
3800
7800
7000
7000
7000
7000
F000
E000
ENDCHAR
STARTCHAR g
ENCODING 103
SWIDTH 674 0
DWIDTH 11 0
BBX 11 12 1 -3
BITMAP
07E0
1FE0
39E0
71C0
73C0
77C0
7DC0
7BC0
7380
8380
FF00
FE00
ENDCHAR
STARTCHAR h
ENCODING 104
SWIDTH 675 0
DWIDTH 11 0
BBX 10 12 1 0
BITMAP
3C00
3800
3800
3980
3BC0
77C0
7DC0
7BC0
7380
7380
E380
E780
ENDCHAR
STARTCHAR i
ENCODING 105
SWIDTH 343 0
DWIDTH 6 0
BBX 6 12 1 0
BITMAP
1C
3C
00
38
38
78
70
70
70
70
F0
E0
ENDCHAR
STARTCHAR j
ENCODING 106
SWIDTH 407 0
DWIDTH 7 0
BBX 10 15 -1 -3
BITMAP
01C0
03C0
0000
0380
0380
0780
0700
0700
0700
0F00
0F00
0E00
8E00
FC00
F800
ENDCHAR
STARTCHAR k
ENCODING 107
SWIDTH 666 0
DWIDTH 11 0
BBX 11 12 1 0
BITMAP
1C00
3C00
3800
38E0
39C0
7B80
7700
7F00
7700
7780
F380
E3C0
ENDCHAR
STARTCHAR l
ENCODING 108
SWIDTH 343 0
DWIDTH 6 0
BBX 6 12 1 0
BITMAP
1C
3C
38
38
38
78
78
70
70
70
F0
E0
ENDCHAR
STARTCHAR m
ENCODING 109
SWIDTH 991 0
DWIDTH 17 0
BBX 16 9 1 0
BITMAP
39CE
3BDF
77DF
7DE7
79EE
73CE
738E
E38E
E39E
ENDCHAR
STARTCHAR n
ENCODING 110
SWIDTH 675 0
DWIDTH 11 0
BBX 10 9 1 0
BITMAP
3980
7BC0
77C0
7FC0
7BC0
7380
F380
E380
E780
ENDCHAR
STARTCHAR o
ENCODING 111
SWIDTH 663 0
DWIDTH 11 0
BBX 10 9 1 0
BITMAP
0F80
3FC0
79C0
71C0
E1C0
E1C0
F380
FF00
3C00
ENDCHAR
STARTCHAR p
ENCODING 112
SWIDTH 681 0
DWIDTH 12 0
BBX 11 12 1 -3
BITMAP
3DC0
3BE0
3EE0
3CE0
79E0
79C0
7380
7F00
7E00
F000
F000
E000
ENDCHAR
STARTCHAR q
ENCODING 113
SWIDTH 681 0
DWIDTH 12 0
BBX 11 12 1 -3
BITMAP
0FE0
1FE0
39C0
71C0
73C0
E5C0
FFC0
FB80
7380
0380
0780
0780
ENDCHAR
STARTCHAR r
ENCODING 114
SWIDTH 542 0
DWIDTH 9 0
BBX 9 9 1 0
BITMAP
3980
7B00
7700
7C00
7800
7000
F000
E000
E000
ENDCHAR
STARTCHAR s
ENCODING 115
SWIDTH 527 0
DWIDTH 9 0
BBX 9 9 1 0
BITMAP
1F80
3F80
3800
3C00
1E00
0F00
C700
FF00
FC00
ENDCHAR
STARTCHAR t
ENCODING 116
SWIDTH 437 0
DWIDTH 7 0
BBX 6 11 2 0
BITMAP
38
78
FC
FC
70
70
70
F0
F0
F8
78
ENDCHAR
STARTCHAR u
ENCODING 117
SWIDTH 675 0
DWIDTH 11 0
BBX 10 9 2 0
BITMAP
79C0
71C0
73C0
7380
F780
EF80
FB80
F780
6700
ENDCHAR
STARTCHAR v
ENCODING 118
SWIDTH 630 0
DWIDTH 11 0
BBX 10 9 2 0
BITMAP
E1C0
E180
F380
7300
7600
7600
7C00
7C00
3800
ENDCHAR
STARTCHAR w
ENCODING 119
SWIDTH 878 0
DWIDTH 15 0
BBX 14 9 2 0
BITMAP
E39C
E798
E7B8
EFB0
EFF0
FBE0
FBE0
F3C0
F3C0
ENDCHAR
STARTCHAR x
ENCODING 120
SWIDTH 563 0
DWIDTH 10 0
BBX 11 9 0 0
BITMAP
3CE0
1DC0
1F80
0F00
0E00
1F00
3F00
7780
E380
ENDCHAR
STARTCHAR y
ENCODING 121
SWIDTH 633 0
DWIDTH 11 0
BBX 12 12 1 -3
BITMAP
7870
38E0
38C0
39C0
3F80
3F00
1E00
1E00
1C00
3800
7800
F000
ENDCHAR
STARTCHAR z
ENCODING 122
SWIDTH 630 0
DWIDTH 11 0
BBX 10 9 1 0
BITMAP
3FC0
3FC0
0780
0F00
1E00
3C00
7800
FF80
FF80
ENDCHAR
STARTCHAR braceleft
ENCODING 123
SWIDTH 386 0
DWIDTH 7 0
BBX 7 15 1 -3
BITMAP
0E
1E
3C
3C
1C
18
78
E0
70
70
70
F0
F0
F0
70
ENDCHAR
STARTCHAR bar
ENCODING 124
SWIDTH 259 0
DWIDTH 4 0
BBX 5 15 1 -3
BITMAP
18
18
10
30
30
30
30
20
60
60
60
60
40
C0
C0
ENDCHAR
STARTCHAR braceright
ENCODING 125
SWIDTH 386 0
DWIDTH 7 0
BBX 7 15 0 -3
BITMAP
1C
1E
1E
1E
3C
1C
1C
0E
3C
30
70
78
78
F0
E0
ENDCHAR
STARTCHAR asciitilde
ENCODING 126
SWIDTH 687 0
DWIDTH 12 0
BBX 10 4 2 3
BITMAP
78C0
7CC0
CF80
C780
ENDCHAR
STARTCHAR space
ENCODING 160
SWIDTH 343 0
DWIDTH 6 0
BBX 1 1 0 0
BITMAP
00
ENDCHAR
STARTCHAR exclamdown
ENCODING 161
SWIDTH 343 0
DWIDTH 6 0
BBX 6 12 1 -3
BITMAP
3C
3C
00
00
38
30
70
70
70
70
F0
E0
ENDCHAR
STARTCHAR cent
ENCODING 162
SWIDTH 687 0
DWIDTH 12 0
BBX 10 12 3 0
BITMAP
0300
0300
1FC0
3880
7000
F000
F000
F000
FF80
7F00
0C00
0C00
ENDCHAR
STARTCHAR sterling
ENCODING 163
SWIDTH 687 0
DWIDTH 12 0
BBX 11 12 2 0
BITMAP
03E0
0FE0
0E20
1E00
1E00
3F00
7F00
1C00
3C00
3000
FF80
FF80
ENDCHAR
STARTCHAR currency
ENCODING 164
SWIDTH 687 0
DWIDTH 12 0
BBX 13 12 1 0
BITMAP
1010
3038
1B70
1FE0
1DC0
18C0
18C0
1DC0
3FC0
7FC0
E060
4040
ENDCHAR
STARTCHAR yen
ENCODING 165
SWIDTH 687 0
DWIDTH 12 0
BBX 11 12 3 0
BITMAP
F0E0
7B80
3F00
3E00
7F00
FF00
3C00
FE00
FE00
3800
3800
7800
ENDCHAR
STARTCHAR brokenbar
ENCODING 166
SWIDTH 259 0
DWIDTH 4 0
BBX 5 15 1 -3
BITMAP
18
18
10
30
30
30
00
00
00
60
60
60
40
C0
C0
ENDCHAR
STARTCHAR section
ENCODING 167
SWIDTH 687 0
DWIDTH 12 0
BBX 10 15 2 -3
BITMAP
0FC0
1FC0
3840
3C00
3E00
3F80
3780
7180
7980
3F00
1F00
0700
C700
FF00
FC00
ENDCHAR
STARTCHAR dieresis
ENCODING 168
SWIDTH 663 0
DWIDTH 11 0
BBX 6 2 5 10
BITMAP
CC
CC
ENDCHAR
STARTCHAR copyright
ENCODING 169
SWIDTH 834 0
DWIDTH 14 0
BBX 12 12 2 0
BITMAP
0F00
30C0
67A0
5C30
D810
B010
B010
F010
5830
6F20
30C0
0F00
ENDCHAR
STARTCHAR ordfeminine
ENCODING 170
SWIDTH 539 0
DWIDTH 9 0
BBX 8 6 3 6
BITMAP
1F
7F
E6
EE
F6
EE
ENDCHAR
STARTCHAR guillemotleft
ENCODING 171
SWIDTH 633 0
DWIDTH 11 0
BBX 10 8 2 0
BITMAP
0880
1DC0
3B80
7F00
E700
7700
3380
1100
ENDCHAR
STARTCHAR logicalnot
ENCODING 172
SWIDTH 687 0
DWIDTH 12 0
BBX 10 6 2 2
BITMAP
FFC0
FFC0
00C0
0080
0180
0180
ENDCHAR
STARTCHAR hyphen
ENCODING 173
SWIDTH 289 0
DWIDTH 5 0
BBX 4 2 2 4
BITMAP
F0
F0
ENDCHAR
STARTCHAR registered
ENCODING 174
SWIDTH 691 0
DWIDTH 12 0
BBX 9 9 3 3
BITMAP
1C00
6300
5F00
9F80
9C80
9580
7500
6300
1C00
ENDCHAR
STARTCHAR macron
ENCODING 175
SWIDTH 663 0
DWIDTH 11 0
BBX 6 2 5 10
BITMAP
FC
FC
ENDCHAR
STARTCHAR degree
ENCODING 176
SWIDTH 241 0
DWIDTH 4 0
BBX 3 3 3 9
BITMAP
E0
A0
E0
ENDCHAR
STARTCHAR plusminus
ENCODING 177
SWIDTH 687 0
DWIDTH 12 0
BBX 11 10 1 0
BITMAP
0300
0200
0600
7FE0
7FE0
0600
0C00
0000
FFC0
FFC0
ENDCHAR
STARTCHAR twosuperior
ENCODING 178
SWIDTH 539 0
DWIDTH 7 0
BBX 7 7 -10 5
BITMAP
7C
06
06
0C
30
60
FC
ENDCHAR
STARTCHAR threesuperior
ENCODING 179
SWIDTH 539 0
DWIDTH 7 0
BBX 6 7 -10 5
BITMAP
7C
0C
08
78
18
1C
F0
ENDCHAR
STARTCHAR acute
ENCODING 180
SWIDTH 663 0
DWIDTH 11 0
BBX 5 2 6 10
BITMAP
38
E0
ENDCHAR
STARTCHAR mu
ENCODING 181
SWIDTH 681 0
DWIDTH 12 0
BBX 11 12 1 -3
BITMAP
38E0
39E0
39C0
39C0
7BC0
77C0
7DC0
7F80
7B80
F000
E000
E000
ENDCHAR
STARTCHAR paragraph
ENCODING 182
SWIDTH 687 0
DWIDTH 12 0
BBX 8 15 3 -3
BITMAP
7F
FB
FA
FA
F6
76
36
34
34
2C
2C
6C
68
68
58
ENDCHAR
STARTCHAR periodcentered
ENCODING 183
SWIDTH 343 0
DWIDTH 12 0
BBX 3 2 5 4
BITMAP
E0
E0
ENDCHAR
STARTCHAR cedilla
ENCODING 184
SWIDTH 663 0
DWIDTH 11 0
BBX 3 3 4 -3
BITMAP
60
60
E0
ENDCHAR
STARTCHAR onesuperior
ENCODING 185
SWIDTH 539 0
DWIDTH 7 0
BBX 3 7 -12 5
BITMAP
E0
60
60
40
C0
C0
C0
ENDCHAR
STARTCHAR ordmasculine
ENCODING 186
SWIDTH 539 0
DWIDTH 9 0
BBX 9 6 2 6
BITMAP
1F00
7F80
6380
E300
FF00
7C00
ENDCHAR
STARTCHAR guillemotright
ENCODING 187
SWIDTH 633 0
DWIDTH 11 0
BBX 10 8 1 0
BITMAP
2200
7300
3B80
39C0
3F80
7700
EE00
4400
ENDCHAR
STARTCHAR onequarter
ENCODING 188
SWIDTH 1089 0
DWIDTH 16 0
BBX 14 12 6 0
BITMAP
701C
3038
3070
20E0
61C0
638C
671C
0E28
1C48
38FC
7018
E018
ENDCHAR
STARTCHAR onehalf
ENCODING 189
SWIDTH 1089 0
DWIDTH 16 0
BBX 15 12 6 0
BITMAP
701C
3038
3070
20E0
61C0
63FC
6706
0E06
1C0C
3830
7060
E0FC
ENDCHAR
STARTCHAR threequarters
ENCODING 190
SWIDTH 1149 0
DWIDTH 16 0
BBX 15 12 7 0
BITMAP
7C0E
0C1C
0838
7870
18E0
1DC6
F38E
0714
0E24
1C7E
380C
700C
ENDCHAR
STARTCHAR questiondown
ENCODING 191
SWIDTH 539 0
DWIDTH 9 0
BBX 8 12 0 -3
BITMAP
07
0F
00
0E
0E
1C
38
70
F0
F1
FF
7F
ENDCHAR
STARTCHAR Agrave
ENCODING 192
SWIDTH 771 0
DWIDTH 13 0
BBX 12 15 1 0
BITMAP
01C0
0060
0000
03C0
03C0
07C0
07C0
0DE0
0CE0
18E0
3FE0
3FE0
70F0
6070
E070
ENDCHAR
STARTCHAR Aacute
ENCODING 193
SWIDTH 771 0
DWIDTH 13 0
BBX 12 15 1 0
BITMAP
0070
01C0
0000
03C0
03C0
07C0
07C0
0DE0
0CE0
18E0
3FE0
3FE0
70F0
6070
E070
ENDCHAR
STARTCHAR Acircumflex
ENCODING 194
SWIDTH 771 0
DWIDTH 13 0
BBX 12 15 1 0
BITMAP
00E0
03B0
0000
03C0
03C0
07C0
07C0
0DE0
0CE0
18E0
3FE0
3FE0
70F0
6070
E070
ENDCHAR
STARTCHAR Atilde
ENCODING 195
SWIDTH 771 0
DWIDTH 13 0
BBX 12 15 1 0
BITMAP
03F0
07E0
0000
03C0
03C0
07C0
07C0
0DE0
0CE0
18E0
3FE0
3FE0
70F0
6070
E070
ENDCHAR
STARTCHAR Adieresis
ENCODING 196
SWIDTH 771 0
DWIDTH 13 0
BBX 12 15 1 0
BITMAP
0330
0330
0000
03C0
03C0
07C0
07C0
0DE0
0CE0
18E0
3FE0
3FE0
70F0
6070
E070
ENDCHAR
STARTCHAR Aring
ENCODING 197
SWIDTH 771 0
DWIDTH 13 0
BBX 12 15 1 0
BITMAP
01C0
01C0
0000
03C0
03C0
07C0
07C0
0DE0
0CE0
18E0
3FE0
3FE0
70F0
6070
E070
ENDCHAR
STARTCHAR AE
ENCODING 198
SWIDTH 1004 0
DWIDTH 17 0
BBX 18 12 0 0
BITMAP
007FC0
00FFC0
00F800
01F000
037000
077F00
0E7F00
0CF000
1FE000
3FE000
70FF00
C1FF00
ENDCHAR
STARTCHAR Ccedilla
ENCODING 199
SWIDTH 737 0
DWIDTH 13 0
BBX 12 15 2 -3
BITMAP
07F0
1FF0
3C10
7800
7000
F000
F000
F000
F000
F840
7FC0
3F80
0800
0C00
1C00
ENDCHAR
STARTCHAR Egrave
ENCODING 200
SWIDTH 642 0
DWIDTH 11 0
BBX 11 15 1 0
BITMAP
0700
0180
0000
3FE0
3FE0
3800
3800
3800
7F80
7F80
7000
7000
7000
FF80
FF80
ENDCHAR
STARTCHAR Eacute
ENCODING 201
SWIDTH 642 0
DWIDTH 11 0
BBX 11 15 1 0
BITMAP
01C0
0700
0000
3FE0
3FE0
3800
3800
3800
7F80
7F80
7000
7000
7000
FF80
FF80
ENDCHAR
STARTCHAR Ecircumflex
ENCODING 202
SWIDTH 642 0
DWIDTH 11 0
BBX 11 15 1 0
BITMAP
0380
0EC0
0000
3FE0
3FE0
3800
3800
3800
7F80
7F80
7000
7000
7000
FF80
FF80
ENDCHAR
STARTCHAR Edieresis
ENCODING 203
SWIDTH 642 0
DWIDTH 11 0
BBX 11 15 1 0
BITMAP
0CC0
0CC0
0000
3FE0
3FE0
3800
3800
3800
7F80
7F80
7000
7000
7000
FF80
FF80
ENDCHAR
STARTCHAR Igrave
ENCODING 204
SWIDTH 361 0
DWIDTH 6 0
BBX 6 15 1 0
BITMAP
38
0C
00
3C
3C
38
38
38
78
78
70
70
70
F0
F0
ENDCHAR
STARTCHAR Iacute
ENCODING 205
SWIDTH 361 0
DWIDTH 6 0
BBX 7 15 1 0
BITMAP
0E
38
00
3C
3C
38
38
38
78
78
70
70
70
F0
F0
ENDCHAR
STARTCHAR Icircumflex
ENCODING 206
SWIDTH 361 0
DWIDTH 6 0
BBX 7 15 1 0
BITMAP
1C
76
00
3C
3C
38
38
38
78
78
70
70
70
F0
F0
ENDCHAR
STARTCHAR Idieresis
ENCODING 207
SWIDTH 361 0
DWIDTH 6 0
BBX 8 15 1 0
BITMAP
33
33
00
3C
3C
38
38
38
78
78
70
70
70
F0
F0
ENDCHAR
STARTCHAR Eth
ENCODING 208
SWIDTH 822 0
DWIDTH 14 0
BBX 14 12 1 0
BITMAP
1FF0
1FF8
3C3C
3C3C
383C
FF3C
FF3C
3838
7878
70F0
7FE0
7F80
ENDCHAR
STARTCHAR Ntilde
ENCODING 209
SWIDTH 789 0
DWIDTH 13 0
BBX 13 15 1 0
BITMAP
03F0
07E0
0000
3838
3C38
3C30
3E30
3E30
7770
7770
63E0
63E0
61E0
E1E0
E0E0
ENDCHAR
STARTCHAR Ograve
ENCODING 210
SWIDTH 855 0
DWIDTH 15 0
BBX 14 15 2 0
BITMAP
0380
00C0
0000
07E0
1FF8
3C78
783C
703C
F03C
F038
F078
F070
F0E0
7FC0
1F00
ENDCHAR
STARTCHAR Oacute
ENCODING 211
SWIDTH 855 0
DWIDTH 15 0
BBX 14 15 2 0
BITMAP
00E0
0380
0000
07E0
1FF8
3C78
783C
703C
F03C
F038
F078
F070
F0E0
7FC0
1F00
ENDCHAR
STARTCHAR Ocircumflex
ENCODING 212
SWIDTH 855 0
DWIDTH 15 0
BBX 14 15 2 0
BITMAP
01C0
0760
0000
07E0
1FF8
3C78
783C
703C
F03C
F038
F078
F070
F0E0
7FC0
1F00
ENDCHAR
STARTCHAR Otilde
ENCODING 213
SWIDTH 855 0
DWIDTH 15 0
BBX 14 15 2 0
BITMAP
03F0
07E0
0000
07E0
1FF8
3C78
783C
703C
F03C
F038
F078
F070
F0E0
7FC0
1F00
ENDCHAR
STARTCHAR Odieresis
ENCODING 214
SWIDTH 855 0
DWIDTH 15 0
BBX 14 15 2 0
BITMAP
0660
0660
0000
07E0
1FF8
3C78
783C
703C
F03C
F038
F078
F070
F0E0
7FC0
1F00
ENDCHAR
STARTCHAR multiply
ENCODING 215
SWIDTH 687 0
DWIDTH 12 0
BBX 11 10 1 0
BITMAP
6040
30E0
39C0
1B80
0E00
0E00
3B00
7380
E180
40C0
ENDCHAR
STARTCHAR Oslash
ENCODING 216
SWIDTH 855 0
DWIDTH 15 0
BBX 16 12 3 0
BITMAP
03FF
0FFC
1E3C
3C7E
38FE
79DE
7B9C
7F3C
7E38
7C70
3FE0
EF80
ENDCHAR
STARTCHAR Ugrave
ENCODING 217
SWIDTH 759 0
DWIDTH 13 0
BBX 12 15 2 0
BITMAP
0700
0180
0000
3870
7870
7070
70E0
70E0
F0E0
F0E0
E0C0
E1C0
F1C0
7F80
3F00
ENDCHAR
STARTCHAR Uacute
ENCODING 218
SWIDTH 759 0
DWIDTH 13 0
BBX 12 15 2 0
BITMAP
01C0
0700
0000
3870
7870
7070
70E0
70E0
F0E0
F0E0
E0C0
E1C0
F1C0
7F80
3F00
ENDCHAR
STARTCHAR Ucircumflex
ENCODING 219
SWIDTH 759 0
DWIDTH 13 0
BBX 12 15 2 0
BITMAP
0380
0EC0
0000
3870
7870
7070
70E0
70E0
F0E0
F0E0
E0C0
E1C0
F1C0
7F80
3F00
ENDCHAR
STARTCHAR Udieresis
ENCODING 220
SWIDTH 759 0
DWIDTH 13 0
BBX 12 15 2 0
BITMAP
0CC0
0CC0
0000
3870
7870
7070
70E0
70E0
F0E0
F0E0
E0C0
E1C0
F1C0
7F80
3F00
ENDCHAR
STARTCHAR Yacute
ENCODING 221
SWIDTH 681 0
DWIDTH 12 0
BBX 11 15 3 0
BITMAP
0380
0E00
0000
E0E0
71C0
7380
7B00
3E00
3E00
3C00
3C00
3800
3800
3800
7800
ENDCHAR
STARTCHAR Thorn
ENCODING 222
SWIDTH 645 0
DWIDTH 11 0
BBX 10 12 2 0
BITMAP
3800
3800
3F80
3FC0
71C0
71C0
73C0
7380
7F00
FE00
E000
E000
ENDCHAR
STARTCHAR germandbls
ENCODING 223
SWIDTH 708 0
DWIDTH 12 0
BBX 11 15 1 -3
BITMAP
07C0
0FC0
1CC0
1DC0
3980
3B80
3B80
39C0
78E0
70E0
77E0
77C0
7000
E000
E000
ENDCHAR
STARTCHAR agrave
ENCODING 224
SWIDTH 681 0
DWIDTH 12 0
BBX 11 12 1 0
BITMAP
0700
0180
0000
0FE0
1FE0
39C0
71C0
73C0
E7C0
EFC0
FB80
7380
ENDCHAR
STARTCHAR aacute
ENCODING 225
SWIDTH 681 0
DWIDTH 12 0
BBX 11 12 1 0
BITMAP
01C0
0700
0000
0FE0
1FE0
39C0
71C0
73C0
E7C0
EFC0
FB80
7380
ENDCHAR
STARTCHAR acircumflex
ENCODING 226
SWIDTH 681 0
DWIDTH 12 0
BBX 11 12 1 0
BITMAP
0380
0EC0
0000
0FE0
1FE0
39C0
71C0
73C0
E7C0
EFC0
FB80
7380
ENDCHAR
STARTCHAR atilde
ENCODING 227
SWIDTH 681 0
DWIDTH 12 0
BBX 11 12 1 0
BITMAP
07E0
0FC0
0000
0FE0
1FE0
39C0
71C0
73C0
E7C0
EFC0
FB80
7380
ENDCHAR
STARTCHAR adieresis
ENCODING 228
SWIDTH 681 0
DWIDTH 12 0
BBX 11 12 1 0
BITMAP
0CC0
0CC0
0000
0FE0
1FE0
39C0
71C0
73C0
E7C0
EFC0
FB80
7380
ENDCHAR
STARTCHAR aring
ENCODING 229
SWIDTH 681 0
DWIDTH 12 0
BBX 11 12 1 0
BITMAP
0380
0380
0000
0FE0
1FE0
39C0
71C0
73C0
E7C0
EFC0
FB80
7380
ENDCHAR
STARTCHAR ae
ENCODING 230
SWIDTH 987 0
DWIDTH 17 0
BBX 15 9 2 0
BITMAP
0FDC
1FFE
39CE
73DC
F3FC
E7F0
EF82
FBFE
71F8
ENDCHAR
STARTCHAR ccedilla
ENCODING 231
SWIDTH 548 0
DWIDTH 9 0
BBX 9 12 1 -3
BITMAP
0F80
3F80
7880
7000
F000
F000
F100
FF00
7E00
1000
1800
3800
ENDCHAR
STARTCHAR egrave
ENCODING 232
SWIDTH 612 0
DWIDTH 10 0
BBX 9 12 1 0
BITMAP
0700
0180
0000
0F00
3F80
7380
7780
FF00
FC00
E080
FF80
3E00
ENDCHAR
STARTCHAR eacute
ENCODING 233
SWIDTH 612 0
DWIDTH 10 0
BBX 10 12 1 0
BITMAP
01C0
0700
0000
0F00
3F80
7380
7780
FF00
FC00
E080
FF80
3E00
ENDCHAR
STARTCHAR ecircumflex
ENCODING 234
SWIDTH 612 0
DWIDTH 10 0
BBX 9 12 1 0
BITMAP
0700
1D80
0000
0F00
3F80
7380
7780
FF00
FC00
E080
FF80
3E00
ENDCHAR
STARTCHAR edieresis
ENCODING 235
SWIDTH 612 0
DWIDTH 10 0
BBX 10 12 1 0
BITMAP
0CC0
0CC0
0000
0F00
3F80
7380
7780
FF00
FC00
E080
FF80
3E00
ENDCHAR
STARTCHAR igrave
ENCODING 236
SWIDTH 343 0
DWIDTH 6 0
BBX 6 12 1 0
BITMAP
38
0C
00
38
38
70
70
70
70
70
E0
E0
ENDCHAR
STARTCHAR iacute
ENCODING 237
SWIDTH 343 0
DWIDTH 6 0
BBX 7 12 1 0
BITMAP
0E
38
00
38
38
70
70
70
70
70
E0
E0
ENDCHAR
STARTCHAR icircumflex
ENCODING 238
SWIDTH 343 0
DWIDTH 6 0
BBX 7 12 1 0
BITMAP
1C
76
00
38
38
70
70
70
70
70
E0
E0
ENDCHAR
STARTCHAR idieresis
ENCODING 239
SWIDTH 343 0
DWIDTH 6 0
BBX 7 12 1 0
BITMAP
66
66
00
38
38
70
70
70
70
70
E0
E0
ENDCHAR
STARTCHAR eth
ENCODING 240
SWIDTH 663 0
DWIDTH 11 0
BBX 10 15 1 0
BITMAP
0100
0380
0700
3F00
3F80
3BC0
1FC0
3FC0
79C0
71C0
F1C0
E180
F380
7F00
3C00
ENDCHAR
STARTCHAR ntilde
ENCODING 241
SWIDTH 675 0
DWIDTH 11 0
BBX 11 12 1 0
BITMAP
07E0
0FC0
0000
3980
7BC0
77C0
7FC0
7BC0
7380
F380
E380
E780
ENDCHAR
STARTCHAR ograve
ENCODING 242
SWIDTH 663 0
DWIDTH 11 0
BBX 10 12 1 0
BITMAP
0700
0180
0000
0F80
3FC0
79C0
71C0
E1C0
E1C0
F380
FF00
3C00
ENDCHAR
STARTCHAR oacute
ENCODING 243
SWIDTH 663 0
DWIDTH 11 0
BBX 10 12 1 0
BITMAP
01C0
0700
0000
0F80
3FC0
79C0
71C0
E1C0
E1C0
F380
FF00
3C00
ENDCHAR
STARTCHAR ocircumflex
ENCODING 244
SWIDTH 663 0
DWIDTH 11 0
BBX 10 12 1 0
BITMAP
0380
0EC0
0000
0F80
3FC0
79C0
71C0
E1C0
E1C0
F380
FF00
3C00
ENDCHAR
STARTCHAR otilde
ENCODING 245
SWIDTH 663 0
DWIDTH 11 0
BBX 11 12 1 0
BITMAP
07E0
0FC0
0000
0F80
3FC0
79C0
71C0
E1C0
E1C0
F380
FF00
3C00
ENDCHAR
STARTCHAR odieresis
ENCODING 246
SWIDTH 663 0
DWIDTH 11 0
BBX 10 12 1 0
BITMAP
0CC0
0CC0
0000
0F80
3FC0
79C0
71C0
E1C0
E1C0
F380
FF00
3C00
ENDCHAR
STARTCHAR divide
ENCODING 247
SWIDTH 687 0
DWIDTH 12 0
BBX 10 10 2 0
BITMAP
0600
0E00
0000
0000
FFC0
FFC0
0000
0000
1C00
1800
ENDCHAR
STARTCHAR oslash
ENCODING 248
SWIDTH 663 0
DWIDTH 11 0
BBX 12 9 2 0
BITMAP
07F0
1FE0
3DE0
3BE0
76E0
7CE0
79C0
7F80
FE00
ENDCHAR
STARTCHAR ugrave
ENCODING 249
SWIDTH 675 0
DWIDTH 11 0
BBX 10 12 2 0
BITMAP
0700
0180
0000
79C0
71C0
73C0
7380
F780
EF80
FB80
F780
6700
ENDCHAR
STARTCHAR uacute
ENCODING 250
SWIDTH 675 0
DWIDTH 11 0
BBX 10 12 2 0
BITMAP
01C0
0700
0000
79C0
71C0
73C0
7380
F780
EF80
FB80
F780
6700
ENDCHAR
STARTCHAR ucircumflex
ENCODING 251
SWIDTH 675 0
DWIDTH 11 0
BBX 10 12 2 0
BITMAP
0700
1D80
0000
79C0
71C0
73C0
7380
F780
EF80
FB80
F780
6700
ENDCHAR
STARTCHAR udieresis
ENCODING 252
SWIDTH 675 0
DWIDTH 11 0
BBX 10 12 2 0
BITMAP
0CC0
0CC0
0000
79C0
71C0
73C0
7380
F780
EF80
FB80
F780
6700
ENDCHAR
STARTCHAR yacute
ENCODING 253
SWIDTH 633 0
DWIDTH 11 0
BBX 12 15 1 -3
BITMAP
01C0
0700
0000
7870
38E0
38C0
39C0
3F80
3F00
1E00
1E00
1C00
3800
7800
F000
ENDCHAR
STARTCHAR thorn
ENCODING 254
SWIDTH 681 0
DWIDTH 12 0
BBX 11 15 1 -3
BITMAP
1C00
1C00
3800
39C0
3BE0
3FE0
3CE0
79E0
79C0
7380
7F00
7E00
F000
F000
E000
ENDCHAR
STARTCHAR ydieresis
ENCODING 255
SWIDTH 633 0
DWIDTH 11 0
BBX 12 15 1 -3
BITMAP
0660
0660
0000
7870
38E0
38C0
39C0
3F80
3F00
1E00
1E00
1C00
3800
7800
F000
ENDCHAR
ENDFONT
