STARTFONT 2.1
COMMENT AUTOMATICALLY GENERATED FILE. DO NOT EDIT!
COMMENT Generated with 'ucs2any.pl lubI14.bdf ../../../fonts/util/map-ISO8859-1 ISO8859-1'
COMMENT from an ISO10646-1 encoded source BDF font.
COMMENT ucs2any.pl by Markus Kuhn <mkuhn@acm.org>, 2000.
COMMENT $Xorg: $
COMMENT ISO10646-1 extension by Markus Kuhn <mkuhn@acm.org>, 2001-03-20
COMMENT  (c) Copyright Bigelow & Holmes 1986, 1985. Lucida is a registered
COMMENT  trademark of Bigelow & Holmes. See LEGAL NOTICE file for terms 
COMMENT  of the license. 
FONT -B&H-LucidaBright-Medium-I-Normal--20-140-100-100-P-113-ISO8859-1
SIZE 14 100 100
FONTBOUNDINGBOX 31 23 -10 -4
STARTPROPERTIES 22
COMMENT Begin LogicalFontDescription
FONTNAME_REGISTRY ""
FOUNDRY "B&H"
FAMILY_NAME "LucidaBright"
WEIGHT_NAME "Medium"
SLANT "I"
SETWIDTH_NAME "Normal"
ADD_STYLE_NAME ""
PIXEL_SIZE 20
POINT_SIZE 140
RESOLUTION_X 100
RESOLUTION_Y 100
SPACING "P"
AVERAGE_WIDTH 113
CHARSET_REGISTRY "ISO8859"
CHARSET_ENCODING "1"
COMMENT END LogicalFontDescription
FONT_ASCENT 18
FONT_DESCENT 5
DEFAULT_CHAR 0
COPYRIGHT "Copyright Bigelow & Holmes 1986, 1985."
FACE_NAME "Lucida Bright Italic"
X_HEIGHT 11
CAP_HEIGHT 15
ENDPROPERTIES
CHARS 192
STARTCHAR defaultchar
ENCODING 0
SWIDTH 776 0
DWIDTH 16 0
BBX 17 15 1 0
BITMAP
AAAA80
000000
800080
000000
800080
000000
800080
000000
800080
000000
800080
000000
800080
000000
AAAA80
ENDCHAR
STARTCHAR space
ENCODING 32
SWIDTH 333 0
DWIDTH 6 0
BBX 1 1 0 0
BITMAP
00
ENDCHAR
STARTCHAR exclam
ENCODING 33
SWIDTH 265 0
DWIDTH 5 0
BBX 5 15 2 0
BITMAP
18
18
10
30
30
30
20
20
20
20
20
40
00
00
C0
ENDCHAR
STARTCHAR quotedbl
ENCODING 34
SWIDTH 377 0
DWIDTH 8 0
BBX 5 5 4 10
BITMAP
D8
D8
D8
48
48
ENDCHAR
STARTCHAR numbersign
ENCODING 35
SWIDTH 608 0
DWIDTH 12 0
BBX 12 15 2 0
BITMAP
0130
0220
0220
0640
0440
7FF0
0880
0880
1100
1100
FFE0
2200
2400
4400
C800
ENDCHAR
STARTCHAR dollar
ENCODING 36
SWIDTH 608 0
DWIDTH 12 0
BBX 9 18 3 -2
BITMAP
0200
1F80
3480
2480
6400
6400
3800
3800
0C00
1600
1300
1300
1300
9300
D600
F800
2000
2000
ENDCHAR
STARTCHAR percent
ENCODING 37
SWIDTH 759 0
DWIDTH 15 0
BBX 16 15 1 0
BITMAP
1E03
3304
6308
6310
4220
6640
3C80
0138
0264
06C4
0C86
1884
3084
60C8
C070
ENDCHAR
STARTCHAR ampersand
ENCODING 38
SWIDTH 727 0
DWIDTH 15 0
BBX 14 15 2 0
BITMAP
03C0
0640
0C60
0C40
0CC0
0D80
1E00
267C
4610
C330
C320
C1E0
C1C0
61C0
3EF0
ENDCHAR
STARTCHAR quotesingle
ENCODING 39
SWIDTH 231 0
DWIDTH 5 0
BBX 2 5 3 10
BITMAP
C0
C0
C0
40
40
ENDCHAR
STARTCHAR parenleft
ENCODING 40
SWIDTH 310 0
DWIDTH 6 0
BBX 7 19 2 -4
BITMAP
06
08
08
10
30
20
60
60
C0
C0
C0
C0
C0
C0
C0
40
40
40
20
ENDCHAR
STARTCHAR parenright
ENCODING 41
SWIDTH 310 0
DWIDTH 6 0
BBX 7 19 0 -4
BITMAP
08
08
04
04
04
04
04
06
04
0C
0C
0C
08
18
10
10
20
40
80
ENDCHAR
STARTCHAR asterisk
ENCODING 42
SWIDTH 458 0
DWIDTH 9 0
BBX 7 7 3 8
BITMAP
18
10
D6
2C
30
C8
48
ENDCHAR
STARTCHAR plus
ENCODING 43
SWIDTH 608 0
DWIDTH 12 0
BBX 12 13 1 0
BITMAP
0300
0200
0200
0200
0200
0200
FFF0
0400
0400
0400
0400
0C00
0800
ENDCHAR
STARTCHAR comma
ENCODING 44
SWIDTH 265 0
DWIDTH 5 0
BBX 4 7 1 -4
BITMAP
70
70
70
20
20
60
C0
ENDCHAR
STARTCHAR hyphen
ENCODING 45
SWIDTH 313 0
DWIDTH 6 0
BBX 5 1 2 7
BITMAP
F8
ENDCHAR
STARTCHAR period
ENCODING 46
SWIDTH 265 0
DWIDTH 5 0
BBX 3 2 1 0
BITMAP
E0
E0
ENDCHAR
STARTCHAR slash
ENCODING 47
SWIDTH 458 0
DWIDTH 9 0
BBX 13 19 0 -4
BITMAP
0018
0010
0020
0020
0040
00C0
0080
0100
0300
0200
0600
0400
0800
1800
1000
2000
2000
4000
C000
ENDCHAR
STARTCHAR zero
ENCODING 48
SWIDTH 608 0
DWIDTH 12 0
BBX 11 15 2 0
BITMAP
0780
18C0
30C0
3060
6060
6060
C060
C0C0
C0C0
C0C0
C0C0
C180
C100
6200
3C00
ENDCHAR
STARTCHAR one
ENCODING 49
SWIDTH 608 0
DWIDTH 12 0
BBX 8 15 2 0
BITMAP
1F
03
06
06
06
06
06
0C
0C
0C
0C
0C
18
18
FF
ENDCHAR
STARTCHAR two
ENCODING 50
SWIDTH 608 0
DWIDTH 12 0
BBX 11 15 2 0
BITMAP
0F80
18C0
1060
1060
0060
00C0
00C0
0180
0200
0C00
1000
2000
6000
C000
FF80
ENDCHAR
STARTCHAR three
ENCODING 51
SWIDTH 608 0
DWIDTH 12 0
BBX 10 15 2 0
BITMAP
1F80
10C0
10C0
00C0
00C0
0380
1E00
0300
0180
0180
0180
0180
8300
C700
FC00
ENDCHAR
STARTCHAR four
ENCODING 52
SWIDTH 608 0
DWIDTH 12 0
BBX 11 15 1 0
BITMAP
0060
00C0
01C0
02C0
04C0
08C0
1080
2180
4180
FFE0
0100
0100
0300
0300
0FC0
ENDCHAR
STARTCHAR five
ENCODING 53
SWIDTH 608 0
DWIDTH 12 0
BBX 11 15 2 0
BITMAP
1FE0
2000
2000
2000
2000
3E00
0300
0180
0180
0180
0180
0180
8300
C600
FC00
ENDCHAR
STARTCHAR six
ENCODING 54
SWIDTH 608 0
DWIDTH 12 0
BBX 11 15 2 0
BITMAP
07C0
0C60
1040
3000
6000
6F00
7180
E0C0
C0C0
C0C0
C0C0
C180
C180
6300
3C00
ENDCHAR
STARTCHAR seven
ENCODING 55
SWIDTH 608 0
DWIDTH 12 0
BBX 11 15 3 0
BITMAP
3FE0
0060
0040
0080
0100
0200
0400
0400
0800
1000
3000
6000
6000
E000
C000
ENDCHAR
STARTCHAR eight
ENCODING 56
SWIDTH 608 0
DWIDTH 12 0
BBX 11 15 2 0
BITMAP
0780
18C0
3060
3060
3040
39C0
1F00
1F00
6380
41C0
C0C0
C0C0
C180
6300
3E00
ENDCHAR
STARTCHAR nine
ENCODING 57
SWIDTH 608 0
DWIDTH 12 0
BBX 11 15 2 0
BITMAP
0780
18C0
30C0
3060
6060
6060
6060
60C0
31C0
1EC0
0180
0180
8300
C600
FC00
ENDCHAR
STARTCHAR colon
ENCODING 58
SWIDTH 265 0
DWIDTH 5 0
BBX 5 11 1 0
BITMAP
38
38
00
00
00
00
00
00
00
E0
E0
ENDCHAR
STARTCHAR semicolon
ENCODING 59
SWIDTH 265 0
DWIDTH 5 0
BBX 5 15 1 -4
BITMAP
38
38
00
00
00
00
00
00
00
60
60
60
60
40
C0
ENDCHAR
STARTCHAR less
ENCODING 60
SWIDTH 608 0
DWIDTH 12 0
BBX 13 13 1 0
BITMAP
0008
0030
00C0
0300
0C00
3000
C000
3000
1C00
0600
0180
00C0
0020
ENDCHAR
STARTCHAR equal
ENCODING 61
SWIDTH 608 0
DWIDTH 12 0
BBX 12 6 1 3
BITMAP
7FF0
0000
0000
0000
0000
FFE0
ENDCHAR
STARTCHAR greater
ENCODING 62
SWIDTH 608 0
DWIDTH 12 0
BBX 13 13 0 0
BITMAP
2000
1800
0C00
0300
01C0
0060
0018
0060
0180
0600
1800
6000
8000
ENDCHAR
STARTCHAR question
ENCODING 63
SWIDTH 471 0
DWIDTH 9 0
BBX 8 15 3 0
BITMAP
3C
47
C3
83
07
06
0C
10
20
60
60
00
00
00
C0
ENDCHAR
STARTCHAR at
ENCODING 64
SWIDTH 861 0
DWIDTH 17 0
BBX 16 15 2 0
BITMAP
03F0
0C0C
1006
21F2
4221
4421
8861
8861
88E2
88C2
8944
8E78
4000
3040
0F80
ENDCHAR
STARTCHAR A
ENCODING 65
SWIDTH 747 0
DWIDTH 15 0
BBX 15 15 0 0
BITMAP
0020
0060
00E0
00F0
0130
0330
0230
0430
0438
0FF8
1018
1018
2018
601C
F07E
ENDCHAR
STARTCHAR B
ENCODING 66
SWIDTH 606 0
DWIDTH 12 0
BBX 12 15 1 0
BITMAP
1FE0
0C70
0C30
0C30
0C30
0860
18C0
1F00
18C0
1860
1860
3060
3060
31C0
FF80
ENDCHAR
STARTCHAR C
ENCODING 67
SWIDTH 714 0
DWIDTH 14 0
BBX 13 15 2 0
BITMAP
03F8
0C18
1818
3018
6000
6000
6000
C000
C000
C000
C000
C000
6000
7060
1F80
ENDCHAR
STARTCHAR D
ENCODING 68
SWIDTH 770 0
DWIDTH 15 0
BBX 16 15 0 0
BITMAP
1FF8
0E1E
0C06
0C07
0C03
0C03
0C03
1803
1807
1806
180E
380C
3018
3070
FFC0
ENDCHAR
STARTCHAR E
ENCODING 69
SWIDTH 569 0
DWIDTH 11 0
BBX 13 15 0 0
BITMAP
1FF8
0608
0C18
0C00
0C00
0C00
0C20
1FC0
1840
1800
1800
1800
3020
3060
FFE0
ENDCHAR
STARTCHAR F
ENCODING 70
SWIDTH 551 0
DWIDTH 11 0
BBX 13 15 0 0
BITMAP
1FF8
0608
0C18
0C00
0C00
0C00
0C20
1FC0
1840
1800
1800
1800
3000
3000
FC00
ENDCHAR
STARTCHAR G
ENCODING 71
SWIDTH 756 0
DWIDTH 15 0
BBX 14 15 2 0
BITMAP
03FC
0E08
1808
3000
7000
6000
6000
C000
C0FC
C030
C030
E060
6060
7060
1F80
ENDCHAR
STARTCHAR H
ENCODING 72
SWIDTH 776 0
DWIDTH 16 0
BBX 17 15 1 0
BITMAP
1F1F80
0E0600
0C0600
0C0600
0C0E00
0C0C00
180C00
1FFC00
180C00
181C00
181800
301800
301800
303800
FC7C00
ENDCHAR
STARTCHAR I
ENCODING 73
SWIDTH 325 0
DWIDTH 7 0
BBX 9 15 0 0
BITMAP
1F80
0600
0600
0C00
0C00
0C00
0C00
1C00
1800
1800
1800
1800
3000
3000
FC00
ENDCHAR
STARTCHAR J
ENCODING 74
SWIDTH 422 0
DWIDTH 8 0
BBX 11 19 0 -4
BITMAP
07E0
0180
0180
0180
0380
0300
0300
0300
0300
0300
0700
0600
0600
0600
0600
0400
CC00
C800
F000
ENDCHAR
STARTCHAR K
ENCODING 75
SWIDTH 698 0
DWIDTH 14 0
BBX 15 15 1 0
BITMAP
1F1E
0E0C
0C10
0C20
0CC0
0D80
1B00
1F00
1B00
1980
19C0
30C0
3060
3070
FCF8
ENDCHAR
STARTCHAR L
ENCODING 76
SWIDTH 572 0
DWIDTH 11 0
BBX 11 15 1 0
BITMAP
1F00
0E00
0C00
0C00
0C00
0C00
1800
1800
1800
1800
1800
3000
3020
3060
FFE0
ENDCHAR
STARTCHAR M
ENCODING 77
SWIDTH 865 0
DWIDTH 17 0
BBX 19 15 1 0
BITMAP
1E01E0
0E0380
0E0380
0E0580
0B0F00
0B0B00
131300
131300
112300
11E200
11C600
318600
208600
200E00
F81F00
ENDCHAR
STARTCHAR N
ENCODING 78
SWIDTH 762 0
DWIDTH 15 0
BBX 17 15 0 0
BITMAP
1C0780
0E0300
0E0200
0F0200
0B0200
098400
118400
10C400
10C400
106400
107400
203800
203800
201800
F80800
ENDCHAR
STARTCHAR O
ENCODING 79
SWIDTH 783 0
DWIDTH 16 0
BBX 14 15 2 0
BITMAP
03E0
0C38
1818
300C
600C
600C
600C
C00C
C00C
C018
C018
C030
6060
70C0
1F00
ENDCHAR
STARTCHAR P
ENCODING 80
SWIDTH 579 0
DWIDTH 12 0
BBX 13 15 0 0
BITMAP
1FF0
0E38
0C18
0C18
0C18
0C30
0C30
18E0
1F80
1800
1800
3800
3000
3000
FC00
ENDCHAR
STARTCHAR Q
ENCODING 81
SWIDTH 788 0
DWIDTH 16 0
BBX 16 19 2 -4
BITMAP
03E0
0C38
1818
300C
600C
600C
600C
C00C
C01C
C018
C018
C030
6070
70E0
1FC0
0100
0080
00C0
003F
ENDCHAR
STARTCHAR R
ENCODING 82
SWIDTH 686 0
DWIDTH 14 0
BBX 13 15 1 0
BITMAP
1FF0
0C70
0C30
0C38
0C30
1C20
18C0
1F80
1980
19C0
18C0
30C0
3060
3070
FC38
ENDCHAR
STARTCHAR S
ENCODING 83
SWIDTH 549 0
DWIDTH 11 0
BBX 11 15 1 0
BITMAP
07C0
1860
1820
3020
3800
1800
1C00
0700
0380
0180
0180
C180
8180
C300
7E00
ENDCHAR
STARTCHAR T
ENCODING 84
SWIDTH 663 0
DWIDTH 13 0
BBX 13 15 3 0
BITMAP
FFF8
C708
8618
0600
0600
0600
0E00
0C00
0C00
0C00
0C00
1C00
1800
1800
7E00
ENDCHAR
STARTCHAR U
ENCODING 85
SWIDTH 727 0
DWIDTH 15 0
BBX 14 15 3 0
BITMAP
FC7C
3010
3010
6010
6020
6020
6020
6020
C020
C040
C040
C040
C080
6180
3E00
ENDCHAR
STARTCHAR V
ENCODING 86
SWIDTH 656 0
DWIDTH 13 0
BBX 14 15 2 0
BITMAP
F83C
6008
6010
3030
3020
3040
3040
3080
1980
1900
1A00
1A00
1C00
1C00
0800
ENDCHAR
STARTCHAR W
ENCODING 87
SWIDTH 878 0
DWIDTH 18 0
BBX 18 15 3 0
BITMAP
F843C0
60C180
60C100
61C300
61C200
62C600
22C400
244C00
344800
3C7800
387000
387000
306000
306000
204000
ENDCHAR
STARTCHAR X
ENCODING 88
SWIDTH 624 0
DWIDTH 12 0
BBX 16 15 0 0
BITMAP
1F8F
0606
0608
0318
0330
01E0
01C0
01C0
01C0
02E0
0460
0860
1030
2030
F0FC
ENDCHAR
STARTCHAR Y
ENCODING 89
SWIDTH 663 0
DWIDTH 13 0
BBX 13 15 3 0
BITMAP
F878
7030
3020
3040
3880
1900
1B00
0E00
0C00
0C00
0C00
1800
1800
1800
7E00
ENDCHAR
STARTCHAR Z
ENCODING 90
SWIDTH 633 0
DWIDTH 13 0
BBX 13 15 1 0
BITMAP
1FF8
1030
1070
0060
00C0
0180
0300
0700
0600
0C00
1800
3800
7020
6060
FFE0
ENDCHAR
STARTCHAR bracketleft
ENCODING 91
SWIDTH 310 0
DWIDTH 6 0
BBX 8 19 1 -4
BITMAP
0F
08
18
18
18
18
10
30
30
30
30
20
60
60
60
40
40
C0
F0
ENDCHAR
STARTCHAR backslash
ENCODING 92
SWIDTH 458 0
DWIDTH 9 0
BBX 5 19 3 -4
BITMAP
80
80
C0
40
40
40
40
60
20
20
20
20
10
10
10
10
18
08
08
ENDCHAR
STARTCHAR bracketright
ENCODING 93
SWIDTH 310 0
DWIDTH 6 0
BBX 7 19 1 -4
BITMAP
1E
06
06
04
04
0C
0C
0C
0C
08
08
18
18
18
10
10
30
30
F0
ENDCHAR
STARTCHAR asciicircum
ENCODING 94
SWIDTH 608 0
DWIDTH 12 0
BBX 12 13 1 2
BITMAP
0080
0180
0180
0280
0280
0440
0840
0840
1020
3020
2020
4020
C010
ENDCHAR
STARTCHAR underscore
ENCODING 95
SWIDTH 500 0
DWIDTH 10 0
BBX 8 1 1 -2
BITMAP
FF
ENDCHAR
STARTCHAR grave
ENCODING 96
SWIDTH 560 0
DWIDTH 11 0
BBX 4 3 6 12
BITMAP
E0
20
10
ENDCHAR
STARTCHAR a
ENCODING 97
SWIDTH 608 0
DWIDTH 12 0
BBX 11 11 1 0
BITMAP
07E0
0860
1060
20C0
60C0
60C0
C1C0
C2C0
C580
CD80
71E0
ENDCHAR
STARTCHAR b
ENCODING 98
SWIDTH 596 0
DWIDTH 12 0
BBX 11 15 2 0
BITMAP
7800
1800
1800
1000
31C0
3660
3C60
2860
7060
6040
60C0
6080
4180
E300
FC00
ENDCHAR
STARTCHAR c
ENCODING 99
SWIDTH 487 0
DWIDTH 10 0
BBX 9 11 2 0
BITMAP
0F80
1180
2080
6000
4000
C000
C000
C000
C000
6300
3C00
ENDCHAR
STARTCHAR d
ENCODING 100
SWIDTH 608 0
DWIDTH 12 0
BBX 12 15 1 0
BITMAP
00F0
0030
0060
0060
07E0
0860
1060
20C0
60C0
60C0
C1C0
C2C0
C580
CD80
71E0
ENDCHAR
STARTCHAR e
ENCODING 101
SWIDTH 518 0
DWIDTH 10 0
BBX 9 11 2 0
BITMAP
0F00
1180
2180
6100
4300
C600
F800
C000
C180
6300
3C00
ENDCHAR
STARTCHAR f
ENCODING 102
SWIDTH 380 0
DWIDTH 8 0
BBX 10 20 1 -4
BITMAP
03C0
0440
0CC0
0800
1800
7F00
1800
3000
3000
3000
3000
3000
6000
6000
6000
6000
6000
C000
C000
C000
ENDCHAR
STARTCHAR g
ENCODING 103
SWIDTH 602 0
DWIDTH 12 0
BBX 11 15 1 -4
BITMAP
07E0
0860
1060
3040
30C0
60C0
61C0
61C0
6280
6580
3980
0180
8100
C200
7C00
ENDCHAR
STARTCHAR h
ENCODING 104
SWIDTH 631 0
DWIDTH 13 0
BBX 11 15 2 0
BITMAP
7800
1800
1800
3000
31C0
3260
3460
2840
70C0
60C0
60C0
60C0
4080
C180
C1E0
ENDCHAR
STARTCHAR i
ENCODING 105
SWIDTH 289 0
DWIDTH 6 0
BBX 5 15 2 0
BITMAP
18
00
00
00
F0
30
30
20
60
60
60
60
40
C0
F0
ENDCHAR
STARTCHAR j
ENCODING 106
SWIDTH 343 0
DWIDTH 7 0
BBX 10 19 -1 -4
BITMAP
00C0
0000
0000
0000
0780
0180
0180
0180
0300
0300
0300
0300
0300
0600
0600
0600
8400
8800
F000
ENDCHAR
STARTCHAR k
ENCODING 107
SWIDTH 560 0
DWIDTH 11 0
BBX 10 15 2 0
BITMAP
7800
1800
1000
3000
30C0
3080
3180
2600
6800
7800
6C00
6E00
4600
C300
C3C0
ENDCHAR
STARTCHAR l
ENCODING 108
SWIDTH 289 0
DWIDTH 6 0
BBX 5 15 2 0
BITMAP
78
18
10
30
30
30
30
20
60
60
60
60
40
C0
F0
ENDCHAR
STARTCHAR m
ENCODING 109
SWIDTH 944 0
DWIDTH 19 0
BBX 17 11 2 0
BITMAP
F1C700
36C980
3CD180
78F180
70E300
60C300
618300
618300
C18200
C18600
C18780
ENDCHAR
STARTCHAR n
ENCODING 110
SWIDTH 631 0
DWIDTH 13 0
BBX 11 11 2 0
BITMAP
F1C0
3260
3460
2840
70C0
60C0
60C0
60C0
4080
C180
C1E0
ENDCHAR
STARTCHAR o
ENCODING 111
SWIDTH 560 0
DWIDTH 11 0
BBX 10 11 2 0
BITMAP
0F00
1980
30C0
60C0
60C0
C0C0
C180
C180
C300
E600
7C00
ENDCHAR
STARTCHAR p
ENCODING 112
SWIDTH 608 0
DWIDTH 12 0
BBX 11 15 2 -4
BITMAP
79C0
3260
3460
3860
3860
3040
20C0
6080
6180
6100
7E00
4000
C000
C000
C000
ENDCHAR
STARTCHAR q
ENCODING 113
SWIDTH 599 0
DWIDTH 12 0
BBX 11 15 1 -4
BITMAP
07E0
0860
1060
20C0
60C0
60C0
C1C0
C2C0
C580
CD80
7180
0180
0180
0300
0300
ENDCHAR
STARTCHAR r
ENCODING 114
SWIDTH 470 0
DWIDTH 9 0
BBX 9 11 2 0
BITMAP
F180
3700
3C00
6800
7000
6000
6000
6000
C000
C000
C000
ENDCHAR
STARTCHAR s
ENCODING 115
SWIDTH 440 0
DWIDTH 9 0
BBX 9 11 1 0
BITMAP
0F00
1880
3080
3000
1800
0E00
0600
8300
8300
C700
7C00
ENDCHAR
STARTCHAR t
ENCODING 116
SWIDTH 355 0
DWIDTH 7 0
BBX 6 14 2 0
BITMAP
30
30
30
FC
60
60
60
60
60
C0
C0
C0
C0
70
ENDCHAR
STARTCHAR u
ENCODING 117
SWIDTH 630 0
DWIDTH 13 0
BBX 11 11 2 0
BITMAP
F1E0
3060
2060
60C0
60C0
60C0
61C0
42C0
C780
CD80
71E0
ENDCHAR
STARTCHAR v
ENCODING 118
SWIDTH 558 0
DWIDTH 11 0
BBX 11 11 1 0
BITMAP
F060
3020
3060
1860
1840
1880
1900
0B00
0E00
0C00
0800
ENDCHAR
STARTCHAR w
ENCODING 119
SWIDTH 805 0
DWIDTH 16 0
BBX 16 11 1 0
BITMAP
E087
30C3
31C2
31C6
13C4
1A4C
1E68
1C70
1C70
1860
1040
ENDCHAR
STARTCHAR x
ENCODING 120
SWIDTH 510 0
DWIDTH 10 0
BBX 10 11 1 0
BITMAP
70C0
38C0
1880
1900
0E00
0C00
1600
2600
4300
C380
C1C0
ENDCHAR
STARTCHAR y
ENCODING 121
SWIDTH 558 0
DWIDTH 11 0
BBX 13 15 0 -4
BITMAP
7830
1818
1810
0C20
0C20
0C40
0C80
0500
0500
0600
0400
0800
1000
3000
E000
ENDCHAR
STARTCHAR z
ENCODING 122
SWIDTH 536 0
DWIDTH 11 0
BBX 10 11 1 0
BITMAP
3FC0
2180
2300
0300
0600
0C00
1800
3000
6080
6180
FF80
ENDCHAR
STARTCHAR braceleft
ENCODING 123
SWIDTH 337 0
DWIDTH 7 0
BBX 7 19 2 -4
BITMAP
0E
18
18
18
18
10
10
10
20
C0
60
20
60
60
40
C0
C0
C0
60
ENDCHAR
STARTCHAR bar
ENCODING 124
SWIDTH 241 0
DWIDTH 5 0
BBX 5 19 1 -4
BITMAP
08
18
18
10
10
10
30
30
20
20
20
60
60
40
40
40
C0
C0
80
ENDCHAR
STARTCHAR braceright
ENCODING 125
SWIDTH 337 0
DWIDTH 7 0
BBX 7 19 2 -4
BITMAP
0C
06
06
06
0C
0C
0C
08
08
06
08
10
10
30
30
30
30
20
C0
ENDCHAR
STARTCHAR asciitilde
ENCODING 126
SWIDTH 608 0
DWIDTH 12 0
BBX 12 6 1 3
BITMAP
3810
4C10
8610
8610
8320
81C0
ENDCHAR
STARTCHAR space
ENCODING 160
SWIDTH 333 0
DWIDTH 6 0
BBX 1 1 0 0
BITMAP
00
ENDCHAR
STARTCHAR exclamdown
ENCODING 161
SWIDTH 265 0
DWIDTH 5 0
BBX 5 15 1 -4
BITMAP
18
00
00
00
30
20
20
20
20
60
60
60
C0
C0
C0
ENDCHAR
STARTCHAR cent
ENCODING 162
SWIDTH 608 0
DWIDTH 12 0
BBX 9 15 3 0
BITMAP
0200
0380
1C80
3480
6400
4400
C400
C400
C800
C800
C800
E900
7E00
1000
1000
ENDCHAR
STARTCHAR sterling
ENCODING 163
SWIDTH 608 0
DWIDTH 12 0
BBX 11 15 2 0
BITMAP
01E0
0220
0420
0C00
0C00
0C00
1800
7F00
1800
1800
1800
3000
3000
4000
FF00
ENDCHAR
STARTCHAR currency
ENCODING 164
SWIDTH 608 0
DWIDTH 12 0
BBX 14 13 1 1
BITMAP
2008
101C
0FB0
0C60
1020
1020
2020
2020
1040
10C0
2F40
4020
8030
ENDCHAR
STARTCHAR yen
ENCODING 165
SWIDTH 608 0
DWIDTH 12 0
BBX 13 15 2 0
BITMAP
F878
7020
3020
3840
1880
1D00
0C00
7F80
0C00
0C00
7F00
1800
1800
1800
7C00
ENDCHAR
STARTCHAR brokenbar
ENCODING 166
SWIDTH 241 0
DWIDTH 5 0
BBX 5 19 1 -4
BITMAP
08
18
18
10
10
10
30
30
20
00
20
60
60
40
40
40
C0
C0
80
ENDCHAR
STARTCHAR section
ENCODING 167
SWIDTH 608 0
DWIDTH 12 0
BBX 11 19 2 -4
BITMAP
07E0
1860
3040
3000
3000
1800
1E00
2780
6180
6080
7080
3D80
1F00
0300
0180
0180
8300
C700
7C00
ENDCHAR
STARTCHAR dieresis
ENCODING 168
SWIDTH 560 0
DWIDTH 11 0
BBX 6 1 6 14
BITMAP
CC
ENDCHAR
STARTCHAR copyright
ENCODING 169
SWIDTH 843 0
DWIDTH 17 0
BBX 15 15 3 0
BITMAP
07C0
1830
2008
43E4
8624
8C22
8802
8802
8802
8802
8C04
47C4
2008
1830
07C0
ENDCHAR
STARTCHAR ordfeminine
ENCODING 170
SWIDTH 458 0
DWIDTH 8 0
BBX 8 9 2 6
BITMAP
1F
22
62
46
C6
CE
DE
D6
E7
ENDCHAR
STARTCHAR guillemotleft
ENCODING 171
SWIDTH 525 0
DWIDTH 10 0
BBX 9 9 2 1
BITMAP
0880
1100
3200
6600
CC00
4C00
6600
2200
1200
ENDCHAR
STARTCHAR logicalnot
ENCODING 172
SWIDTH 608 0
DWIDTH 12 0
BBX 12 6 2 3
BITMAP
FFF0
0030
0030
0020
0020
0020
ENDCHAR
STARTCHAR hyphen
ENCODING 173
SWIDTH 313 0
DWIDTH 6 0
BBX 5 1 2 7
BITMAP
F8
ENDCHAR
STARTCHAR registered
ENCODING 174
SWIDTH 608 0
DWIDTH 12 0
BBX 8 10 4 5
BITMAP
3C
46
9E
95
9D
99
99
A6
46
3C
ENDCHAR
STARTCHAR macron
ENCODING 175
SWIDTH 560 0
DWIDTH 11 0
BBX 6 1 6 14
BITMAP
FC
ENDCHAR
STARTCHAR degree
ENCODING 176
SWIDTH 277 0
DWIDTH 6 0
BBX 3 4 4 11
BITMAP
60
A0
A0
60
ENDCHAR
STARTCHAR plusminus
ENCODING 177
SWIDTH 608 0
DWIDTH 12 0
BBX 13 13 0 0
BITMAP
0180
0100
0100
0100
7FF8
0300
0200
0200
0200
0200
0000
0000
FFF0
ENDCHAR
STARTCHAR twosuperior
ENCODING 178
SWIDTH 365 0
DWIDTH 7 0
BBX 7 9 -10 6
BITMAP
3C
26
22
06
08
30
40
40
FC
ENDCHAR
STARTCHAR threesuperior
ENCODING 179
SWIDTH 365 0
DWIDTH 7 0
BBX 6 9 -10 6
BITMAP
38
24
04
0C
38
08
0C
88
F0
ENDCHAR
STARTCHAR acute
ENCODING 180
SWIDTH 560 0
DWIDTH 11 0
BBX 5 3 7 12
BITMAP
38
60
C0
ENDCHAR
STARTCHAR mu
ENCODING 181
SWIDTH 663 0
DWIDTH 13 0
BBX 11 15 2 -4
BITMAP
71E0
3060
3060
3040
30C0
20C0
21C0
61C0
6280
6580
7DE0
4000
C000
C000
C000
ENDCHAR
STARTCHAR paragraph
ENCODING 182
SWIDTH 608 0
DWIDTH 12 0
BBX 8 19 3 -4
BITMAP
3F
7D
F9
F9
F9
FA
7A
32
12
12
12
14
14
24
24
24
24
24
28
ENDCHAR
STARTCHAR periodcentered
ENCODING 183
SWIDTH 608 0
DWIDTH 12 0
BBX 2 2 6 6
BITMAP
C0
C0
ENDCHAR
STARTCHAR cedilla
ENCODING 184
SWIDTH 560 0
DWIDTH 11 0
BBX 3 5 3 -4
BITMAP
60
40
20
20
C0
ENDCHAR
STARTCHAR onesuperior
ENCODING 185
SWIDTH 365 0
DWIDTH 7 0
BBX 5 9 -10 6
BITMAP
38
18
10
10
10
10
30
20
F8
ENDCHAR
STARTCHAR ordmasculine
ENCODING 186
SWIDTH 458 0
DWIDTH 8 0
BBX 8 9 2 6
BITMAP
1E
26
43
43
C2
C2
C4
CC
70
ENDCHAR
STARTCHAR guillemotright
ENCODING 187
SWIDTH 525 0
DWIDTH 10 0
BBX 9 9 2 1
BITMAP
2400
2200
3300
1900
1980
3300
2600
4400
8800
ENDCHAR
STARTCHAR onequarter
ENCODING 188
SWIDTH 766 0
DWIDTH 16 0
BBX 16 15 3 0
BITMAP
3803
1806
100C
1018
1030
1020
3046
208A
F914
0224
0644
0C7E
1804
3008
601C
ENDCHAR
STARTCHAR onehalf
ENCODING 189
SWIDTH 766 0
DWIDTH 16 0
BBX 16 15 3 0
BITMAP
3803
1806
100C
1018
1030
1020
305E
2093
F911
0203
0604
0C18
1820
3020
607E
ENDCHAR
STARTCHAR threequarters
ENCODING 190
SWIDTH 766 0
DWIDTH 16 0
BBX 16 15 3 0
BITMAP
3803
2406
040C
0C18
3830
0820
0C46
888A
F114
0224
0644
0C7E
1804
3008
601C
ENDCHAR
STARTCHAR questiondown
ENCODING 191
SWIDTH 471 0
DWIDTH 9 0
BBX 8 15 1 -4
BITMAP
03
00
00
00
06
06
04
08
30
60
C0
C1
C2
E2
7C
ENDCHAR
STARTCHAR Agrave
ENCODING 192
SWIDTH 747 0
DWIDTH 15 0
BBX 15 19 0 0
BITMAP
00E0
0020
0010
0000
0020
0060
00E0
00F0
0130
0330
0230
0430
0438
0FF8
1018
1018
2018
601C
F07E
ENDCHAR
STARTCHAR Aacute
ENCODING 193
SWIDTH 747 0
DWIDTH 15 0
BBX 15 19 0 0
BITMAP
001C
0030
0060
0000
0020
0060
00E0
00F0
0130
0330
0230
0430
0438
0FF8
1018
1018
2018
601C
F07E
ENDCHAR
STARTCHAR Acircumflex
ENCODING 194
SWIDTH 747 0
DWIDTH 15 0
BBX 15 19 0 0
BITMAP
0038
0068
0084
0000
0020
0060
00E0
00F0
0130
0330
0230
0430
0438
0FF8
1018
1018
2018
601C
F07E
ENDCHAR
STARTCHAR Atilde
ENCODING 195
SWIDTH 747 0
DWIDTH 15 0
BBX 15 18 0 0
BITMAP
0064
0098
0000
0020
0060
00E0
00F0
0130
0330
0230
0430
0438
0FF8
1018
1018
2018
601C
F07E
ENDCHAR
STARTCHAR Adieresis
ENCODING 196
SWIDTH 747 0
DWIDTH 15 0
BBX 15 17 0 0
BITMAP
00CC
0000
0020
0060
00E0
00F0
0130
0330
0230
0430
0438
0FF8
1018
1018
2018
601C
F07E
ENDCHAR
STARTCHAR Aring
ENCODING 197
SWIDTH 747 0
DWIDTH 15 0
BBX 15 19 0 0
BITMAP
0038
0028
0038
0000
0020
0060
00E0
00F0
0130
0330
0230
0430
0438
0FF8
1018
1018
2018
601C
F07E
ENDCHAR
STARTCHAR AE
ENCODING 198
SWIDTH 907 0
DWIDTH 18 0
BBX 20 15 0 0
BITMAP
001FF0
001C10
003830
005800
009800
011840
011FC0
023080
043000
0FF000
083000
103000
207040
6070C0
F1FFC0
ENDCHAR
STARTCHAR Ccedilla
ENCODING 199
SWIDTH 714 0
DWIDTH 14 0
BBX 13 19 2 -4
BITMAP
03F8
0C18
1818
3018
6000
6000
6000
C000
C000
C000
C000
C000
6000
7060
1F80
0800
0400
0400
1800
ENDCHAR
STARTCHAR Egrave
ENCODING 200
SWIDTH 569 0
DWIDTH 11 0
BBX 13 19 0 0
BITMAP
0380
0080
0040
0000
1FF8
0608
0C18
0C00
0C00
0C00
0C20
1FC0
1840
1800
1800
1800
3020
3060
FFE0
ENDCHAR
STARTCHAR Eacute
ENCODING 201
SWIDTH 569 0
DWIDTH 11 0
BBX 13 19 0 0
BITMAP
0070
00C0
0180
0000
1FF8
0608
0C18
0C00
0C00
0C00
0C20
1FC0
1840
1800
1800
1800
3020
3060
FFE0
ENDCHAR
STARTCHAR Ecircumflex
ENCODING 202
SWIDTH 569 0
DWIDTH 11 0
BBX 13 19 0 0
BITMAP
00E0
01A0
0210
0000
1FF8
0608
0C18
0C00
0C00
0C00
0C20
1FC0
1840
1800
1800
1800
3020
3060
FFE0
ENDCHAR
STARTCHAR Edieresis
ENCODING 203
SWIDTH 569 0
DWIDTH 11 0
BBX 13 17 0 0
BITMAP
0330
0000
1FF8
0608
0C18
0C00
0C00
0C00
0C20
1FC0
1840
1800
1800
1800
3020
3060
FFE0
ENDCHAR
STARTCHAR Igrave
ENCODING 204
SWIDTH 325 0
DWIDTH 7 0
BBX 9 19 0 0
BITMAP
0E00
0200
0100
0000
1F80
0600
0600
0C00
0C00
0C00
0C00
1C00
1800
1800
1800
1800
3000
3000
FC00
ENDCHAR
STARTCHAR Iacute
ENCODING 205
SWIDTH 325 0
DWIDTH 7 0
BBX 10 19 0 0
BITMAP
01C0
0300
0600
0000
1F80
0600
0600
0C00
0C00
0C00
0C00
1C00
1800
1800
1800
1800
3000
3000
FC00
ENDCHAR
STARTCHAR Icircumflex
ENCODING 206
SWIDTH 325 0
DWIDTH 7 0
BBX 9 19 0 0
BITMAP
0700
0D00
1080
0000
1F80
0600
0600
0C00
0C00
0C00
0C00
1C00
1800
1800
1800
1800
3000
3000
FC00
ENDCHAR
STARTCHAR Idieresis
ENCODING 207
SWIDTH 325 0
DWIDTH 7 0
BBX 10 17 0 0
BITMAP
0CC0
0000
1F80
0600
0600
0C00
0C00
0C00
0C00
1C00
1800
1800
1800
1800
3000
3000
FC00
ENDCHAR
STARTCHAR Eth
ENCODING 208
SWIDTH 770 0
DWIDTH 15 0
BBX 16 15 0 0
BITMAP
1FF8
0E1E
0C06
0C07
0C03
0C03
0C03
7F83
1807
1806
180E
180C
3018
3070
FFC0
ENDCHAR
STARTCHAR Ntilde
ENCODING 209
SWIDTH 762 0
DWIDTH 15 0
BBX 17 18 0 0
BITMAP
006400
009800
000000
1C0780
0E0300
0E0200
0F0200
0B0200
098400
118400
10C400
10C400
106400
107400
203800
203800
201800
F80800
ENDCHAR
STARTCHAR Ograve
ENCODING 210
SWIDTH 783 0
DWIDTH 16 0
BBX 14 19 2 0
BITMAP
01C0
0040
0020
0000
03E0
0C38
1818
300C
600C
600C
600C
C00C
C00C
C018
C018
C030
6060
70C0
1F00
ENDCHAR
STARTCHAR Oacute
ENCODING 211
SWIDTH 783 0
DWIDTH 16 0
BBX 14 19 2 0
BITMAP
0070
00C0
0180
0000
03E0
0C38
1818
300C
600C
600C
600C
C00C
C00C
C018
C018
C030
6060
70C0
1F00
ENDCHAR
STARTCHAR Ocircumflex
ENCODING 212
SWIDTH 783 0
DWIDTH 16 0
BBX 14 19 2 0
BITMAP
00E0
01A0
0210
0000
03E0
0C38
1818
300C
600C
600C
600C
C00C
C00C
C018
C018
C030
6060
70C0
1F00
ENDCHAR
STARTCHAR Otilde
ENCODING 213
SWIDTH 783 0
DWIDTH 16 0
BBX 14 18 2 0
BITMAP
0190
0260
0000
03E0
0C38
1818
300C
600C
600C
600C
C00C
C00C
C018
C018
C030
6060
70C0
1F00
ENDCHAR
STARTCHAR Odieresis
ENCODING 214
SWIDTH 783 0
DWIDTH 16 0
BBX 14 17 2 0
BITMAP
0330
0000
03E0
0C38
1818
300C
600C
600C
600C
C00C
C00C
C018
C018
C030
6060
70C0
1F00
ENDCHAR
STARTCHAR multiply
ENCODING 215
SWIDTH 608 0
DWIDTH 12 0
BBX 14 13 0 0
BITMAP
2004
1008
1810
0820
0440
0380
0300
0700
0C80
1040
2060
4020
8010
ENDCHAR
STARTCHAR Oslash
ENCODING 216
SWIDTH 783 0
DWIDTH 16 0
BBX 17 15 1 0
BITMAP
01F180
071E00
0C0E00
180E00
181600
302600
304600
708600
610600
620C00
640C00
781800
303000
586000
CF8000
ENDCHAR
STARTCHAR Ugrave
ENCODING 217
SWIDTH 727 0
DWIDTH 15 0
BBX 14 19 3 0
BITMAP
0700
0100
0080
0000
FC7C
3010
3010
6010
6020
6020
6020
6020
C020
C040
C040
C040
C080
6180
3E00
ENDCHAR
STARTCHAR Uacute
ENCODING 218
SWIDTH 727 0
DWIDTH 15 0
BBX 14 19 3 0
BITMAP
00E0
0180
0300
0000
FC7C
3010
3010
6010
6020
6020
6020
6020
C020
C040
C040
C040
C080
6180
3E00
ENDCHAR
STARTCHAR Ucircumflex
ENCODING 219
SWIDTH 727 0
DWIDTH 15 0
BBX 14 19 3 0
BITMAP
0380
0680
0840
0000
FC7C
3010
3010
6010
6020
6020
6020
6020
C020
C040
C040
C040
C080
6180
3E00
ENDCHAR
STARTCHAR Udieresis
ENCODING 220
SWIDTH 727 0
DWIDTH 15 0
BBX 14 17 3 0
BITMAP
0660
0000
FC7C
3010
3010
6010
6020
6020
6020
6020
C020
C040
C040
C040
C080
6180
3E00
ENDCHAR
STARTCHAR Yacute
ENCODING 221
SWIDTH 663 0
DWIDTH 13 0
BBX 13 19 3 0
BITMAP
01C0
0300
0600
0000
F878
7030
3020
3040
3880
1900
1B00
0E00
0C00
0C00
0C00
1800
1800
1800
7E00
ENDCHAR
STARTCHAR Thorn
ENCODING 222
SWIDTH 579 0
DWIDTH 12 0
BBX 12 15 1 0
BITMAP
1F00
0E00
0C00
0FE0
0C70
0C30
1830
1830
1870
1860
19C0
3F00
3000
3000
FC00
ENDCHAR
STARTCHAR germandbls
ENCODING 223
SWIDTH 603 0
DWIDTH 12 0
BBX 11 20 1 -4
BITMAP
0780
0CC0
08C0
18C0
1880
1900
1A00
3600
3700
3380
31C0
30E0
6060
6460
6CC0
6780
6000
C000
C000
C000
ENDCHAR
STARTCHAR agrave
ENCODING 224
SWIDTH 608 0
DWIDTH 12 0
BBX 11 15 1 0
BITMAP
0700
0100
0080
0000
07E0
0860
1060
20C0
60C0
60C0
C1C0
C2C0
C580
CD80
71E0
ENDCHAR
STARTCHAR aacute
ENCODING 225
SWIDTH 608 0
DWIDTH 12 0
BBX 11 15 1 0
BITMAP
00E0
0180
0300
0000
07E0
0860
1060
20C0
60C0
60C0
C1C0
C2C0
C580
CD80
71E0
ENDCHAR
STARTCHAR acircumflex
ENCODING 226
SWIDTH 608 0
DWIDTH 12 0
BBX 11 15 1 0
BITMAP
01C0
0340
0420
0000
07E0
0860
1060
20C0
60C0
60C0
C1C0
C2C0
C580
CD80
71E0
ENDCHAR
STARTCHAR atilde
ENCODING 227
SWIDTH 608 0
DWIDTH 12 0
BBX 11 14 1 0
BITMAP
0320
04C0
0000
07E0
0860
1060
20C0
60C0
60C0
C1C0
C2C0
C580
CD80
71E0
ENDCHAR
STARTCHAR adieresis
ENCODING 228
SWIDTH 608 0
DWIDTH 12 0
BBX 11 13 1 0
BITMAP
0660
0000
07E0
0860
1060
20C0
60C0
60C0
C1C0
C2C0
C580
CD80
71E0
ENDCHAR
STARTCHAR aring
ENCODING 229
SWIDTH 608 0
DWIDTH 12 0
BBX 11 15 1 0
BITMAP
0380
0280
0380
0000
07E0
0860
1060
20C0
60C0
60C0
C1C0
C2C0
C580
CD80
71E0
ENDCHAR
STARTCHAR ae
ENCODING 230
SWIDTH 881 0
DWIDTH 18 0
BBX 17 11 1 0
BITMAP
07EF00
087180
106180
206100
60C300
60C600
C1F800
C3C000
C6C080
CCE300
707C00
ENDCHAR
STARTCHAR ccedilla
ENCODING 231
SWIDTH 487 0
DWIDTH 10 0
BBX 9 15 2 -4
BITMAP
0F80
1180
2080
6000
4000
C000
C000
C000
C000
6300
3C00
2000
1000
1000
6000
ENDCHAR
STARTCHAR egrave
ENCODING 232
SWIDTH 518 0
DWIDTH 10 0
BBX 9 15 2 0
BITMAP
0E00
0200
0100
0000
0F00
1180
2180
6100
4300
C600
F800
C000
C180
6300
3C00
ENDCHAR
STARTCHAR eacute
ENCODING 233
SWIDTH 518 0
DWIDTH 10 0
BBX 10 15 2 0
BITMAP
01C0
0300
0600
0000
0F00
1180
2180
6100
4300
C600
F800
C000
C180
6300
3C00
ENDCHAR
STARTCHAR ecircumflex
ENCODING 234
SWIDTH 518 0
DWIDTH 10 0
BBX 9 15 2 0
BITMAP
0700
0D00
1080
0000
0F00
1180
2180
6100
4300
C600
F800
C000
C180
6300
3C00
ENDCHAR
STARTCHAR edieresis
ENCODING 235
SWIDTH 518 0
DWIDTH 10 0
BBX 10 13 2 0
BITMAP
0CC0
0000
0F00
1180
2180
6100
4300
C600
F800
C000
C180
6300
3C00
ENDCHAR
STARTCHAR igrave
ENCODING 236
SWIDTH 289 0
DWIDTH 6 0
BBX 6 15 2 0
BITMAP
38
08
04
00
F0
30
20
60
60
60
60
40
C0
C0
F0
ENDCHAR
STARTCHAR iacute
ENCODING 237
SWIDTH 289 0
DWIDTH 6 0
BBX 7 15 2 0
BITMAP
0E
18
30
00
F0
30
20
60
60
60
60
40
C0
C0
F0
ENDCHAR
STARTCHAR icircumflex
ENCODING 238
SWIDTH 289 0
DWIDTH 6 0
BBX 7 15 2 0
BITMAP
1C
34
42
00
F0
30
20
60
60
60
60
40
C0
C0
F0
ENDCHAR
STARTCHAR idieresis
ENCODING 239
SWIDTH 289 0
DWIDTH 6 0
BBX 7 13 2 0
BITMAP
66
00
F0
30
20
60
60
60
60
40
C0
C0
F0
ENDCHAR
STARTCHAR eth
ENCODING 240
SWIDTH 562 0
DWIDTH 11 0
BBX 10 16 2 0
BITMAP
00C0
3F00
0700
0D80
1180
0F80
11C0
20C0
60C0
40C0
C080
C180
C180
C100
6200
7C00
ENDCHAR
STARTCHAR ntilde
ENCODING 241
SWIDTH 631 0
DWIDTH 13 0
BBX 11 14 2 0
BITMAP
0320
04C0
0000
F1C0
3260
3460
2840
70C0
60C0
60C0
60C0
4080
C180
C1E0
ENDCHAR
STARTCHAR ograve
ENCODING 242
SWIDTH 560 0
DWIDTH 11 0
BBX 10 15 2 0
BITMAP
0700
0100
0080
0000
0F00
1980
30C0
60C0
60C0
C0C0
C180
C180
C300
E600
7C00
ENDCHAR
STARTCHAR oacute
ENCODING 243
SWIDTH 560 0
DWIDTH 11 0
BBX 10 15 2 0
BITMAP
01C0
0300
0600
0000
0F00
1980
30C0
60C0
60C0
C0C0
C180
C180
C300
E600
7C00
ENDCHAR
STARTCHAR ocircumflex
ENCODING 244
SWIDTH 560 0
DWIDTH 11 0
BBX 10 15 2 0
BITMAP
0380
0680
0840
0000
0F00
1980
30C0
60C0
60C0
C0C0
C180
C180
C300
E600
7C00
ENDCHAR
STARTCHAR otilde
ENCODING 245
SWIDTH 560 0
DWIDTH 11 0
BBX 10 14 2 0
BITMAP
0640
0980
0000
0F00
1980
30C0
60C0
60C0
C0C0
C180
C180
C300
E600
7C00
ENDCHAR
STARTCHAR odieresis
ENCODING 246
SWIDTH 560 0
DWIDTH 11 0
BBX 10 13 2 0
BITMAP
0CC0
0000
0F00
1980
30C0
60C0
60C0
C0C0
C180
C180
C300
E600
7C00
ENDCHAR
STARTCHAR divide
ENCODING 247
SWIDTH 608 0
DWIDTH 12 0
BBX 12 11 1 0
BITMAP
0300
0000
0000
0000
0000
FFF0
0000
0000
0000
0000
0C00
ENDCHAR
STARTCHAR oslash
ENCODING 248
SWIDTH 560 0
DWIDTH 11 0
BBX 12 11 1 0
BITMAP
07B0
08C0
10E0
3160
6260
6440
68C0
70C0
6180
7300
9C00
ENDCHAR
STARTCHAR ugrave
ENCODING 249
SWIDTH 630 0
DWIDTH 13 0
BBX 11 15 2 0
BITMAP
0700
0100
0080
0000
F1E0
3060
2060
60C0
60C0
60C0
61C0
42C0
C780
CD80
71E0
ENDCHAR
STARTCHAR uacute
ENCODING 250
SWIDTH 630 0
DWIDTH 13 0
BBX 11 15 2 0
BITMAP
00E0
0180
0300
0000
F1E0
3060
2060
60C0
60C0
60C0
61C0
42C0
C780
CD80
71E0
ENDCHAR
STARTCHAR ucircumflex
ENCODING 251
SWIDTH 630 0
DWIDTH 13 0
BBX 11 15 2 0
BITMAP
0380
0680
0840
0000
F1E0
3060
2060
60C0
60C0
60C0
61C0
42C0
C780
CD80
71E0
ENDCHAR
STARTCHAR udieresis
ENCODING 252
SWIDTH 630 0
DWIDTH 13 0
BBX 11 13 2 0
BITMAP
0660
0000
F1E0
3060
2060
60C0
60C0
60C0
61C0
42C0
C780
CD80
71E0
ENDCHAR
STARTCHAR yacute
ENCODING 253
SWIDTH 558 0
DWIDTH 11 0
BBX 13 19 0 -4
BITMAP
0070
00C0
0180
0000
7830
1818
1810
0C20
0C20
0C40
0C80
0500
0500
0600
0400
0800
1000
3000
E000
ENDCHAR
STARTCHAR thorn
ENCODING 254
SWIDTH 608 0
DWIDTH 12 0
BBX 11 18 2 -4
BITMAP
7800
1800
1800
11C0
1260
3460
3860
3860
3040
20C0
6080
6180
6100
7E00
4000
C000
C000
C000
ENDCHAR
STARTCHAR ydieresis
ENCODING 255
SWIDTH 558 0
DWIDTH 11 0
BBX 13 17 0 -4
BITMAP
0330
0000
7830
1818
1810
0C20
0C20
0C40
0C80
0500
0500
0600
0400
0800
1000
3000
E000
ENDCHAR
ENDFONT
