STARTFONT 2.1
COMMENT AUTOMATICALLY GENERATED FILE. DO NOT EDIT!
COMMENT Generated with 'ucs2any.pl lubI18.bdf ../../../fonts/util/map-ISO8859-1 ISO8859-1'
COMMENT from an ISO10646-1 encoded source BDF font.
COMMENT ucs2any.pl by Markus Kuhn <mkuhn@acm.org>, 2000.
COMMENT $Xorg: $
COMMENT ISO10646-1 extension by Markus Kuhn <mkuhn@acm.org>, 2001-03-20
COMMENT  (c) Copyright Bigelow & Holmes 1986, 1985. Lucida is a registered
COMMENT  trademark of Bigelow & Holmes. See LEGAL NOTICE file for terms 
COMMENT  of the license. 
FONT -B&H-LucidaBright-Medium-I-Normal--25-180-100-100-P-142-ISO8859-1
SIZE 18 100 100
FONTBOUNDINGBOX 40 28 -14 -5
STARTPROPERTIES 22
COMMENT Begin LogicalFontDescription
FONTNAME_REGISTRY ""
FOUNDRY "B&H"
FAMILY_NAME "LucidaBright"
WEIGHT_NAME "Medium"
SLANT "I"
SETWIDTH_NAME "Normal"
ADD_STYLE_NAME ""
PIXEL_SIZE 25
POINT_SIZE 180
RESOLUTION_X 100
RESOLUTION_Y 100
SPACING "P"
AVERAGE_WIDTH 142
CHARSET_REGISTRY "ISO8859"
CHARSET_ENCODING "1"
COMMENT END LogicalFontDescription
FONT_ASCENT 23
FONT_DESCENT 6
DEFAULT_CHAR 0
COPYRIGHT "Copyright Bigelow & Holmes 1986, 1985."
FACE_NAME "Lucida Bright Italic"
X_HEIGHT 13
CAP_HEIGHT 18
ENDPROPERTIES
CHARS 192
STARTCHAR defaultchar
ENCODING 0
SWIDTH 776 0
DWIDTH 19 0
BBX 21 17 0 0
BITMAP
AAAAA8
000000
800008
000000
800008
000000
800008
000000
800008
000000
800008
000000
800008
000000
800008
000000
AAAAA8
ENDCHAR
STARTCHAR space
ENCODING 32
SWIDTH 333 0
DWIDTH 7 0
BBX 1 1 0 0
BITMAP
00
ENDCHAR
STARTCHAR exclam
ENCODING 33
SWIDTH 265 0
DWIDTH 7 0
BBX 6 18 2 0
BITMAP
1C
1C
18
18
18
18
10
30
30
30
20
20
20
00
00
00
E0
E0
ENDCHAR
STARTCHAR quotedbl
ENCODING 34
SWIDTH 377 0
DWIDTH 9 0
BBX 6 5 5 13
BITMAP
CC
CC
CC
44
44
ENDCHAR
STARTCHAR numbersign
ENCODING 35
SWIDTH 608 0
DWIDTH 15 0
BBX 15 18 2 0
BITMAP
00C6
0084
008C
0188
0118
0310
7FFE
0620
0420
0C60
0840
08C0
FFFC
1180
2100
2300
4200
C600
ENDCHAR
STARTCHAR dollar
ENCODING 36
SWIDTH 608 0
DWIDTH 15 0
BBX 11 21 4 -2
BITMAP
0100
0FC0
1A60
3260
3260
3200
3400
3400
1C00
0E00
0700
0B80
0980
0980
0980
4980
C980
CB00
FC00
1000
1000
ENDCHAR
STARTCHAR percent
ENCODING 37
SWIDTH 759 0
DWIDTH 19 0
BBX 17 18 3 0
BITMAP
0E0180
190300
318200
218400
618800
611800
633000
326000
1CC000
019E00
013300
026300
046300
0C6300
186300
306200
606600
C03C00
ENDCHAR
STARTCHAR ampersand
ENCODING 38
SWIDTH 727 0
DWIDTH 18 0
BBX 18 18 2 0
BITMAP
00F800
019C00
030C00
030C00
030C00
031800
033000
03C000
1F8000
318FC0
61C300
E1C200
E0E600
E06400
E07800
603000
707800
1F9F00
ENDCHAR
STARTCHAR quotesingle
ENCODING 39
SWIDTH 231 0
DWIDTH 6 0
BBX 3 6 4 12
BITMAP
E0
E0
E0
40
40
40
ENDCHAR
STARTCHAR parenleft
ENCODING 40
SWIDTH 310 0
DWIDTH 8 0
BBX 8 22 2 -4
BITMAP
01
02
04
08
18
10
30
70
60
60
E0
E0
C0
C0
C0
C0
C0
40
40
40
20
10
ENDCHAR
STARTCHAR parenright
ENCODING 41
SWIDTH 310 0
DWIDTH 8 0
BBX 8 22 0 -4
BITMAP
0C
04
02
02
03
03
03
03
03
03
03
07
07
06
06
0C
0C
18
10
20
40
80
ENDCHAR
STARTCHAR asterisk
ENCODING 42
SWIDTH 458 0
DWIDTH 11 0
BBX 9 9 4 9
BITMAP
0C00
0C00
4800
EB80
3600
1800
2400
E600
4400
ENDCHAR
STARTCHAR plus
ENCODING 43
SWIDTH 608 0
DWIDTH 15 0
BBX 15 15 2 0
BITMAP
0080
0080
0080
0180
0180
0100
0100
FFFE
0300
0300
0200
0200
0200
0200
0600
ENDCHAR
STARTCHAR comma
ENCODING 44
SWIDTH 265 0
DWIDTH 7 0
BBX 4 8 1 -5
BITMAP
70
70
70
20
20
60
60
C0
ENDCHAR
STARTCHAR hyphen
ENCODING 45
SWIDTH 313 0
DWIDTH 8 0
BBX 6 2 2 7
BITMAP
FC
FC
ENDCHAR
STARTCHAR period
ENCODING 46
SWIDTH 265 0
DWIDTH 7 0
BBX 4 3 2 0
BITMAP
70
F0
E0
ENDCHAR
STARTCHAR slash
ENCODING 47
SWIDTH 458 0
DWIDTH 11 0
BBX 16 22 0 -4
BITMAP
0003
0006
0004
000C
0018
0010
0030
0060
0040
00C0
0080
0100
0300
0200
0600
0C00
0800
1800
3000
2000
6000
C000
ENDCHAR
STARTCHAR zero
ENCODING 48
SWIDTH 608 0
DWIDTH 15 0
BBX 13 18 3 0
BITMAP
03E0
0E30
1C38
1818
3018
7018
6018
6018
E018
E018
E038
E030
E030
C060
E060
60C0
7180
1E00
ENDCHAR
STARTCHAR one
ENCODING 49
SWIDTH 608 0
DWIDTH 15 0
BBX 9 18 3 0
BITMAP
1F80
0380
0380
0300
0300
0300
0700
0700
0600
0600
0600
0E00
0E00
0C00
0C00
0C00
1C00
FF80
ENDCHAR
STARTCHAR two
ENCODING 50
SWIDTH 608 0
DWIDTH 15 0
BBX 14 18 2 0
BITMAP
03F0
0C38
081C
181C
001C
001C
0018
0030
0060
00C0
0300
0600
0800
1000
2000
6000
FFE0
FFE0
ENDCHAR
STARTCHAR three
ENCODING 51
SWIDTH 608 0
DWIDTH 15 0
BBX 13 18 3 0
BITMAP
0FC0
0870
1838
1838
0038
0030
0070
00C0
1F00
00C0
0060
0060
0070
0060
4060
C0C0
C180
FE00
ENDCHAR
STARTCHAR four
ENCODING 52
SWIDTH 608 0
DWIDTH 15 0
BBX 13 18 2 0
BITMAP
0018
0030
0070
00B0
0130
0230
0460
0860
1060
2060
40E0
FFF8
FFF8
00C0
00C0
01C0
01C0
07F0
ENDCHAR
STARTCHAR five
ENCODING 53
SWIDTH 608 0
DWIDTH 15 0
BBX 13 18 3 0
BITMAP
0FF8
0FF8
1000
1000
1000
1000
3F00
01C0
00E0
0060
0060
0060
0060
0060
40C0
C1C0
C380
FE00
ENDCHAR
STARTCHAR six
ENCODING 54
SWIDTH 608 0
DWIDTH 15 0
BBX 14 18 3 0
BITMAP
01F8
061C
0C08
1800
3800
3000
77C0
6860
F070
E030
E030
C030
C030
C070
E060
60C0
7180
1F00
ENDCHAR
STARTCHAR seven
ENCODING 55
SWIDTH 608 0
DWIDTH 15 0
BBX 14 18 4 0
BITMAP
3FFC
3FFC
0008
0010
0020
0040
0080
0100
0300
0600
0400
0C00
1800
3000
7000
6000
E000
E000
ENDCHAR
STARTCHAR eight
ENCODING 56
SWIDTH 608 0
DWIDTH 15 0
BBX 12 18 3 0
BITMAP
03C0
0C70
1830
1830
3830
3830
1C60
1FC0
0F80
13C0
61E0
60E0
C060
C060
C0E0
E0C0
6180
3F00
ENDCHAR
STARTCHAR nine
ENCODING 57
SWIDTH 608 0
DWIDTH 15 0
BBX 14 18 3 0
BITMAP
03E0
0C30
1838
1818
3018
3018
701C
7018
7038
3038
3878
1FB0
0070
0060
00E0
C0C0
C380
7E00
ENDCHAR
STARTCHAR colon
ENCODING 58
SWIDTH 265 0
DWIDTH 7 0
BBX 6 13 2 0
BITMAP
1C
3C
38
00
00
00
00
00
00
00
70
F0
E0
ENDCHAR
STARTCHAR semicolon
ENCODING 59
SWIDTH 265 0
DWIDTH 7 0
BBX 6 18 1 -5
BITMAP
1C
1C
1C
00
00
00
00
00
00
00
00
70
70
30
20
60
60
C0
ENDCHAR
STARTCHAR less
ENCODING 60
SWIDTH 608 0
DWIDTH 15 0
BBX 16 15 2 0
BITMAP
0001
0007
001C
0060
0380
0E00
3800
E000
3800
0C00
0700
01C0
0070
0018
0008
ENDCHAR
STARTCHAR equal
ENCODING 61
SWIDTH 608 0
DWIDTH 15 0
BBX 16 6 1 4
BITMAP
7FFF
0000
0000
0000
0000
FFFE
ENDCHAR
STARTCHAR greater
ENCODING 62
SWIDTH 608 0
DWIDTH 15 0
BBX 16 15 0 0
BITMAP
1000
1800
0E00
0380
00E0
0030
001C
0007
001C
0070
01C0
0600
1800
E000
8000
ENDCHAR
STARTCHAR question
ENCODING 63
SWIDTH 471 0
DWIDTH 12 0
BBX 10 18 4 0
BITMAP
3F00
6380
41C0
C1C0
01C0
0180
0300
0600
0C00
1800
3000
3000
6000
0000
0000
0000
E000
E000
ENDCHAR
STARTCHAR at
ENCODING 64
SWIDTH 861 0
DWIDTH 22 0
BBX 19 18 3 0
BITMAP
00FC00
030300
0C00C0
180040
207C20
208C20
410C20
820C20
860820
861820
862820
863840
865880
838F00
400000
200000
181000
07E000
ENDCHAR
STARTCHAR A
ENCODING 65
SWIDTH 747 0
DWIDTH 19 0
BBX 19 18 0 0
BITMAP
000C00
000C00
001C00
003E00
002E00
004E00
00CE00
008600
010600
010700
020700
07FF00
040300
080300
100380
100380
200380
F80FE0
ENDCHAR
STARTCHAR B
ENCODING 66
SWIDTH 606 0
DWIDTH 15 0
BBX 15 18 1 0
BITMAP
1FF8
071C
070E
060E
060E
060C
0E1C
0E38
0FE0
0C30
0C18
1C1C
1C1C
1C1C
181C
1838
3870
FFE0
ENDCHAR
STARTCHAR C
ENCODING 67
SWIDTH 714 0
DWIDTH 18 0
BBX 17 18 3 0
BITMAP
00FF80
038380
0E0180
1C0100
380000
300000
700000
700000
E00000
E00000
E00000
E00000
E00000
E00000
600000
700000
3C0C00
0FF000
ENDCHAR
STARTCHAR D
ENCODING 68
SWIDTH 770 0
DWIDTH 19 0
BBX 19 18 1 0
BITMAP
1FFE00
070780
0701C0
0700C0
0600E0
0600E0
0E00E0
0E00E0
0E00E0
0C00E0
0C00C0
1C01C0
1C01C0
1C0380
180700
180E00
383C00
FFF000
ENDCHAR
STARTCHAR E
ENCODING 69
SWIDTH 569 0
DWIDTH 14 0
BBX 16 18 1 0
BITMAP
1FFF
0703
0702
0700
0700
0600
0608
0E08
0FF8
0E18
0C10
0C00
1C00
1C00
1C00
180C
3808
FFF8
ENDCHAR
STARTCHAR F
ENCODING 70
SWIDTH 551 0
DWIDTH 14 0
BBX 16 18 1 0
BITMAP
1FFF
0703
0702
0700
0700
0600
0608
0E08
0FF8
0E18
0C10
0C00
1C00
1C00
1C00
1800
3C00
FF00
ENDCHAR
STARTCHAR G
ENCODING 71
SWIDTH 756 0
DWIDTH 19 0
BBX 17 18 3 0
BITMAP
00FF00
038380
0E0100
1C0100
380000
300000
700000
700000
E00000
E00000
E03F80
E00E00
E00C00
E00C00
601C00
701C00
381C00
0FE000
ENDCHAR
STARTCHAR H
ENCODING 72
SWIDTH 776 0
DWIDTH 19 0
BBX 22 18 0 0
BITMAP
1FE1FC
078070
070060
0700E0
0700E0
0600E0
0600C0
0E00C0
0FFFC0
0E01C0
0C01C0
0C0180
1C0180
1C0380
1C0380
180380
380780
FE1FE0
ENDCHAR
STARTCHAR I
ENCODING 73
SWIDTH 325 0
DWIDTH 8 0
BBX 11 18 0 0
BITMAP
0FE0
0380
0300
0700
0700
0700
0600
0600
0E00
0E00
0C00
0C00
1C00
1C00
1C00
1800
3800
FE00
ENDCHAR
STARTCHAR J
ENCODING 74
SWIDTH 422 0
DWIDTH 11 0
BBX 14 22 0 -4
BITMAP
01FC
0070
0060
0060
00E0
00E0
00E0
00C0
00C0
01C0
01C0
01C0
0180
0180
0380
0380
0380
0300
4300
C600
C600
F800
ENDCHAR
STARTCHAR K
ENCODING 75
SWIDTH 698 0
DWIDTH 17 0
BBX 19 18 1 0
BITMAP
1FE3E0
078180
070300
070600
070800
061000
066000
0EC000
0F8000
0FC000
0CE000
0CE000
1C7000
1C3800
1C1C00
181C00
380E00
FE3F80
ENDCHAR
STARTCHAR L
ENCODING 76
SWIDTH 572 0
DWIDTH 14 0
BBX 14 18 1 0
BITMAP
1FE0
0780
0700
0700
0700
0600
0600
0E00
0E00
0E00
0C00
0C00
1C00
1C00
1C04
180C
380C
FFF8
ENDCHAR
STARTCHAR M
ENCODING 77
SWIDTH 865 0
DWIDTH 22 0
BBX 24 18 1 0
BITMAP
0F001F
07803C
078038
078058
0580F8
05C0B8
05C130
0CC130
0CC230
08E470
08E470
086860
187860
187060
1060E0
1020E0
3000E0
FC03F8
ENDCHAR
STARTCHAR N
ENCODING 78
SWIDTH 762 0
DWIDTH 19 0
BBX 22 18 1 0
BITMAP
1F00FC
070030
078020
078020
05C060
04C040
04E040
0C7040
087040
083880
083880
081C80
180C80
100E80
100700
100700
300300
FC0100
ENDCHAR
STARTCHAR O
ENCODING 79
SWIDTH 783 0
DWIDTH 20 0
BBX 18 18 3 0
BITMAP
00FC00
030700
0E0380
1C0380
380180
3001C0
7001C0
6001C0
E00180
E00180
E00380
E00300
E00700
E00600
600C00
701800
387000
0FC000
ENDCHAR
STARTCHAR P
ENCODING 80
SWIDTH 579 0
DWIDTH 14 0
BBX 16 18 1 0
BITMAP
1FFC
070E
0707
0707
0707
0607
0606
0E0E
0E1C
0E38
0FE0
0C00
1C00
1C00
1C00
1800
3800
FF00
ENDCHAR
STARTCHAR Q
ENCODING 81
SWIDTH 788 0
DWIDTH 20 0
BBX 20 23 3 -5
BITMAP
00FC00
030600
0E0300
1C0380
380180
300180
7001C0
600180
E00180
E00380
E00380
E00380
E00700
E00700
600E00
701C00
387800
0FE000
004000
006000
001800
000FF0
0003E0
ENDCHAR
STARTCHAR R
ENCODING 82
SWIDTH 686 0
DWIDTH 17 0
BBX 17 18 0 0
BITMAP
0FFE00
030F00
030700
070300
070300
070300
060600
060C00
0E1800
0FE000
0E7000
0C3000
1C3800
1C1800
1C1C00
180C00
380E00
FF0780
ENDCHAR
STARTCHAR S
ENCODING 83
SWIDTH 549 0
DWIDTH 14 0
BBX 14 18 2 0
BITMAP
03F0
061C
0C0C
1C0C
1C08
1C00
1E00
0F00
0780
03E0
00E0
0070
0070
4070
C070
C060
E0C0
3F00
ENDCHAR
STARTCHAR T
ENCODING 84
SWIDTH 663 0
DWIDTH 17 0
BBX 16 18 4 0
BITMAP
7FFF
C183
8182
0380
0380
0300
0300
0300
0700
0700
0600
0600
0600
0E00
0E00
0E00
1E00
7F80
ENDCHAR
STARTCHAR U
ENCODING 85
SWIDTH 727 0
DWIDTH 18 0
BBX 18 18 4 0
BITMAP
FE0FC0
380300
380200
300200
300200
700600
700400
700400
600400
600C00
E00800
E00800
E00800
C01800
E01000
603000
706000
1F8000
ENDCHAR
STARTCHAR V
ENCODING 86
SWIDTH 656 0
DWIDTH 16 0
BBX 18 18 3 0
BITMAP
FE07C0
700100
300300
380200
380400
380400
180800
181800
1C1000
1C2000
1C6000
0C4000
0C8000
0C8000
0F0000
0F0000
060000
040000
ENDCHAR
STARTCHAR W
ENCODING 87
SWIDTH 878 0
DWIDTH 22 0
BBX 23 18 3 0
BITMAP
FC183E
701808
303818
303810
305820
305820
309840
309840
311880
311880
3A1900
3A1900
3C1E00
3C1E00
381C00
381C00
301800
300800
ENDCHAR
STARTCHAR X
ENCODING 88
SWIDTH 624 0
DWIDTH 16 0
BBX 20 18 0 0
BITMAP
0FE1F0
0380C0
038080
01C100
01C200
00C400
00E800
007000
007000
007000
00B800
013800
021C00
041C00
080C00
100E00
300F00
F83F80
ENDCHAR
STARTCHAR Y
ENCODING 89
SWIDTH 663 0
DWIDTH 17 0
BBX 17 18 3 0
BITMAP
FE0F80
780200
380400
380800
1C1000
1C3000
0E6000
0E4000
068000
070000
070000
060000
060000
0E0000
0E0000
0E0000
1E0000
7F8000
ENDCHAR
STARTCHAR Z
ENCODING 90
SWIDTH 633 0
DWIDTH 16 0
BBX 16 18 1 0
BITMAP
0FFF
0C06
080E
181C
0038
0070
0060
00E0
01C0
0380
0700
0600
0E00
1C00
3800
700C
6018
FFF8
ENDCHAR
STARTCHAR bracketleft
ENCODING 91
SWIDTH 310 0
DWIDTH 8 0
BBX 9 22 1 -4
BITMAP
0F80
0C00
0C00
0C00
1C00
1800
1800
1800
1800
3000
3000
3000
3000
3000
6000
6000
6000
6000
6000
C000
C000
F800
ENDCHAR
STARTCHAR backslash
ENCODING 92
SWIDTH 458 0
DWIDTH 11 0
BBX 7 22 4 -4
BITMAP
C0
C0
40
40
60
60
20
20
30
30
10
10
18
18
08
08
0C
0C
04
04
06
06
ENDCHAR
STARTCHAR bracketright
ENCODING 93
SWIDTH 310 0
DWIDTH 8 0
BBX 9 22 1 -4
BITMAP
0F80
0180
0180
0300
0300
0300
0300
0700
0600
0600
0600
0600
0E00
0C00
0C00
0C00
0C00
1C00
1800
1800
1800
F800
ENDCHAR
STARTCHAR asciicircum
ENCODING 94
SWIDTH 608 0
DWIDTH 15 0
BBX 15 15 1 3
BITMAP
0020
0060
0060
00E0
01B0
0110
0210
0610
0408
0808
1808
3004
2004
6004
C002
ENDCHAR
STARTCHAR underscore
ENCODING 95
SWIDTH 500 0
DWIDTH 12 0
BBX 10 2 1 -2
BITMAP
FFC0
FFC0
ENDCHAR
STARTCHAR grave
ENCODING 96
SWIDTH 560 0
DWIDTH 14 0
BBX 4 4 8 14
BITMAP
E0
60
20
10
ENDCHAR
STARTCHAR a
ENCODING 97
SWIDTH 608 0
DWIDTH 15 0
BBX 13 13 2 0
BITMAP
03F8
0438
1830
1030
3030
6030
6070
E0E0
E160
E360
E660
FCE0
70F8
ENDCHAR
STARTCHAR b
ENCODING 98
SWIDTH 596 0
DWIDTH 15 0
BBX 13 18 2 0
BITMAP
7C00
1C00
1800
1800
1800
1870
39F8
3338
3638
3438
3838
7030
7030
6060
6060
60C0
E100
FE00
ENDCHAR
STARTCHAR c
ENCODING 99
SWIDTH 487 0
DWIDTH 12 0
BBX 11 13 2 0
BITMAP
07E0
0860
1020
3060
6000
6000
E000
E000
E000
E000
E000
6080
3F00
ENDCHAR
STARTCHAR d
ENCODING 100
SWIDTH 608 0
DWIDTH 15 0
BBX 15 18 2 0
BITMAP
003E
000E
000C
000C
001C
03FC
041C
0818
1018
3038
6038
6070
E070
E0F0
E170
E670
FC70
787C
ENDCHAR
STARTCHAR e
ENCODING 101
SWIDTH 518 0
DWIDTH 13 0
BBX 11 13 2 0
BITMAP
07C0
08E0
10E0
30E0
60C0
61C0
E300
FC00
E000
E000
E060
71C0
3F00
ENDCHAR
STARTCHAR f
ENCODING 102
SWIDTH 380 0
DWIDTH 9 0
BBX 12 24 2 -5
BITMAP
01F0
0230
0630
0420
0C00
0C00
3FC0
1C00
1800
1800
1800
3800
3800
3000
3000
3000
7000
7000
7000
6000
6000
E000
E000
E000
ENDCHAR
STARTCHAR g
ENCODING 103
SWIDTH 602 0
DWIDTH 15 0
BBX 14 18 1 -5
BITMAP
01FC
021C
0C1C
1818
1818
3038
3038
7078
70B0
71B0
7330
7E70
3860
0060
8060
C0C0
7080
7F00
ENDCHAR
STARTCHAR h
ENCODING 104
SWIDTH 631 0
DWIDTH 16 0
BBX 13 18 3 0
BITMAP
7C00
1C00
1C00
1800
1800
1870
39F8
3B38
3638
3430
3830
7030
7070
6070
6060
6060
E060
E0F8
ENDCHAR
STARTCHAR i
ENCODING 105
SWIDTH 289 0
DWIDTH 7 0
BBX 6 18 3 0
BITMAP
1C
1C
00
00
00
F8
38
38
30
30
30
70
60
60
60
60
E0
F8
ENDCHAR
STARTCHAR j
ENCODING 106
SWIDTH 343 0
DWIDTH 9 0
BBX 12 23 -1 -5
BITMAP
0070
0070
0000
0000
0000
03E0
00E0
00E0
00C0
00C0
00C0
01C0
01C0
0180
0180
0180
0380
0380
0300
4300
C600
C400
F800
ENDCHAR
STARTCHAR k
ENCODING 107
SWIDTH 560 0
DWIDTH 14 0
BBX 13 18 2 0
BITMAP
7C00
1C00
1C00
1C00
1800
1838
1830
3860
38C0
3100
3600
7E00
7700
6700
6380
61C0
E1E0
E0F8
ENDCHAR
STARTCHAR l
ENCODING 108
SWIDTH 289 0
DWIDTH 7 0
BBX 6 18 2 0
BITMAP
7C
1C
18
18
18
18
38
30
30
30
30
70
60
60
60
60
E0
F8
ENDCHAR
STARTCHAR m
ENCODING 109
SWIDTH 944 0
DWIDTH 24 0
BBX 21 13 3 0
BITMAP
F87070
39F1F8
3B3B38
363638
3C3C30
383830
707830
707070
607070
606060
606060
E0E060
E0E0F8
ENDCHAR
STARTCHAR n
ENCODING 110
SWIDTH 631 0
DWIDTH 16 0
BBX 13 13 3 0
BITMAP
F870
39F8
3338
3638
3430
3830
7030
7070
6070
6060
6060
E060
E0F8
ENDCHAR
STARTCHAR o
ENCODING 111
SWIDTH 560 0
DWIDTH 14 0
BBX 12 13 2 0
BITMAP
07C0
0C60
1870
3030
7030
6030
E070
E070
E060
E0E0
E0C0
F380
7E00
ENDCHAR
STARTCHAR p
ENCODING 112
SWIDTH 608 0
DWIDTH 15 0
BBX 14 18 2 -5
BITMAP
7C38
1CFC
199C
1B1C
1A1C
3C1C
3818
3018
3030
3020
7060
7080
7F00
6000
6000
E000
E000
E000
ENDCHAR
STARTCHAR q
ENCODING 113
SWIDTH 599 0
DWIDTH 15 0
BBX 13 18 2 -5
BITMAP
03F8
0438
1838
1030
3030
6030
6070
E0F0
E160
E360
E660
FCE0
70E0
00C0
00C0
00C0
01C0
01C0
ENDCHAR
STARTCHAR r
ENCODING 114
SWIDTH 470 0
DWIDTH 12 0
BBX 11 13 3 0
BITMAP
F860
39E0
33C0
3600
3C00
3800
7000
7000
6000
6000
6000
E000
E000
ENDCHAR
STARTCHAR s
ENCODING 115
SWIDTH 440 0
DWIDTH 11 0
BBX 10 13 1 0
BITMAP
07C0
1C40
1840
1840
1C00
1E00
0F00
0780
0380
C180
C180
C300
7E00
ENDCHAR
STARTCHAR t
ENCODING 116
SWIDTH 355 0
DWIDTH 9 0
BBX 8 17 3 0
BITMAP
08
18
38
38
FF
30
30
70
70
60
60
60
E0
E0
E0
E0
78
ENDCHAR
STARTCHAR u
ENCODING 117
SWIDTH 630 0
DWIDTH 16 0
BBX 13 13 3 0
BITMAP
F8F8
3038
3030
3030
7030
7070
6070
60E0
6160
E360
E660
FCE0
70F8
ENDCHAR
STARTCHAR v
ENCODING 118
SWIDTH 558 0
DWIDTH 14 0
BBX 14 13 1 0
BITMAP
F81C
380C
180C
1C0C
0C18
0C10
0C20
0E40
0EC0
0F80
0700
0600
0400
ENDCHAR
STARTCHAR w
ENCODING 119
SWIDTH 805 0
DWIDTH 20 0
BBX 20 13 2 0
BITMAP
F02070
383070
383060
187060
187840
1CB8C0
1C9980
0D1900
0F1A00
0E1E00
0C1C00
0C1800
081800
ENDCHAR
STARTCHAR x
ENCODING 120
SWIDTH 510 0
DWIDTH 13 0
BBX 13 13 1 0
BITMAP
7838
1C18
0C30
0E60
06C0
0700
0700
0F80
1180
21C0
60C0
C0E0
E078
ENDCHAR
STARTCHAR y
ENCODING 121
SWIDTH 558 0
DWIDTH 14 0
BBX 16 18 0 -5
BITMAP
7C0F
1C07
0E06
0606
060C
0608
0710
0730
0320
0340
0380
0300
0200
0600
0C00
1800
3000
F000
ENDCHAR
STARTCHAR z
ENCODING 122
SWIDTH 536 0
DWIDTH 13 0
BBX 13 13 1 0
BITMAP
1FF8
1030
3060
00C0
01C0
0380
0700
0E00
1C00
3800
3030
6020
FFE0
ENDCHAR
STARTCHAR braceleft
ENCODING 123
SWIDTH 337 0
DWIDTH 8 0
BBX 9 22 2 -4
BITMAP
0380
0E00
0C00
0C00
1C00
1C00
1C00
1800
1800
1800
1000
E000
2000
3000
3000
7000
6000
E000
C000
C000
C000
3000
ENDCHAR
STARTCHAR bar
ENCODING 124
SWIDTH 241 0
DWIDTH 6 0
BBX 6 22 2 -4
BITMAP
0C
0C
0C
08
18
18
18
18
10
30
30
30
30
20
60
60
60
60
40
C0
C0
C0
ENDCHAR
STARTCHAR braceright
ENCODING 125
SWIDTH 337 0
DWIDTH 8 0
BBX 9 22 2 -4
BITMAP
0E00
0300
0100
0300
0300
0700
0600
0600
0600
0600
0380
0400
0800
1800
1800
1800
1800
1800
1800
1800
3000
E000
ENDCHAR
STARTCHAR asciitilde
ENCODING 126
SWIDTH 608 0
DWIDTH 15 0
BBX 15 6 2 4
BITMAP
1C00
3E02
4704
83C4
80FC
8078
ENDCHAR
STARTCHAR space
ENCODING 160
SWIDTH 333 0
DWIDTH 7 0
BBX 1 1 0 0
BITMAP
00
ENDCHAR
STARTCHAR exclamdown
ENCODING 161
SWIDTH 265 0
DWIDTH 7 0
BBX 6 18 1 -5
BITMAP
1C
1C
00
00
00
10
10
10
30
30
30
20
60
60
60
E0
E0
E0
ENDCHAR
STARTCHAR cent
ENCODING 162
SWIDTH 608 0
DWIDTH 15 0
BBX 13 18 3 0
BITMAP
0080
0080
01F8
0E90
1890
3100
6100
6100
E100
C200
C200
C200
E200
7460
3F80
0400
0400
0400
ENDCHAR
STARTCHAR sterling
ENCODING 163
SWIDTH 608 0
DWIDTH 15 0
BBX 14 18 3 0
BITMAP
0078
018C
030C
030C
0600
0600
0600
0E00
3FC0
0C00
0C00
0C00
1C00
1800
1000
2000
FFE0
FFC0
ENDCHAR
STARTCHAR currency
ENCODING 164
SWIDTH 608 0
DWIDTH 15 0
BBX 17 16 1 1
BITMAP
100080
100100
09E200
0A1400
0C0800
080C00
180400
100400
100C00
100800
100800
081000
1C3000
37C800
400C00
800400
ENDCHAR
STARTCHAR yen
ENCODING 165
SWIDTH 608 0
DWIDTH 15 0
BBX 17 18 3 0
BITMAP
FC0F80
780200
380400
180800
1C1000
0C2000
0E4000
068000
070000
7FE000
060000
060000
7FE000
0E0000
0E0000
0C0000
1C0000
7F0000
ENDCHAR
STARTCHAR brokenbar
ENCODING 166
SWIDTH 241 0
DWIDTH 6 0
BBX 6 22 2 -4
BITMAP
0C
0C
08
08
18
18
18
10
10
30
00
00
30
20
20
60
60
60
40
40
C0
C0
ENDCHAR
STARTCHAR section
ENCODING 167
SWIDTH 608 0
DWIDTH 15 0
BBX 14 23 2 -5
BITMAP
01F8
060C
0C04
0C04
0C00
1C00
0E00
0780
0BE0
10F0
3038
3018
3810
1E30
0FA0
03C0
00E0
0070
0030
C070
C060
E1C0
7F00
ENDCHAR
STARTCHAR dieresis
ENCODING 168
SWIDTH 560 0
DWIDTH 14 0
BBX 7 2 7 16
BITMAP
C6
C6
ENDCHAR
STARTCHAR copyright
ENCODING 169
SWIDTH 843 0
DWIDTH 21 0
BBX 19 18 3 0
BITMAP
03F800
0E0600
180180
200080
40FC40
418420
830420
860020
860020
860020
860020
860020
430820
41F040
200080
180180
0E0600
03F800
ENDCHAR
STARTCHAR ordfeminine
ENCODING 170
SWIDTH 458 0
DWIDTH 10 0
BBX 10 10 3 8
BITMAP
0FC0
1180
2180
6180
4380
C780
C700
DB00
F300
63C0
ENDCHAR
STARTCHAR guillemotleft
ENCODING 171
SWIDTH 525 0
DWIDTH 13 0
BBX 12 11 2 1
BITMAP
0210
0420
1840
3180
6380
E700
6300
6180
3180
1080
0840
ENDCHAR
STARTCHAR logicalnot
ENCODING 172
SWIDTH 608 0
DWIDTH 15 0
BBX 15 6 2 4
BITMAP
FFFE
0006
0006
0004
0004
000C
ENDCHAR
STARTCHAR hyphen
ENCODING 173
SWIDTH 313 0
DWIDTH 8 0
BBX 6 2 2 7
BITMAP
FC
FC
ENDCHAR
STARTCHAR registered
ENCODING 174
SWIDTH 608 0
DWIDTH 15 0
BBX 12 11 4 7
BITMAP
1F00
20C0
4FE0
88A0
8890
8F10
8B10
99A0
4060
30C0
0F00
ENDCHAR
STARTCHAR macron
ENCODING 175
SWIDTH 560 0
DWIDTH 14 0
BBX 7 1 7 17
BITMAP
FE
ENDCHAR
STARTCHAR degree
ENCODING 176
SWIDTH 277 0
DWIDTH 7 0
BBX 4 4 5 14
BITMAP
70
90
90
70
ENDCHAR
STARTCHAR plusminus
ENCODING 177
SWIDTH 608 0
DWIDTH 15 0
BBX 16 15 0 0
BITMAP
0060
0060
0040
0040
0040
3FFF
0080
0080
0080
0080
0180
0180
0000
0000
FFFE
ENDCHAR
STARTCHAR twosuperior
ENCODING 178
SWIDTH 365 0
DWIDTH 9 0
BBX 8 11 -14 7
BITMAP
1E
23
23
03
02
04
18
20
40
40
FC
ENDCHAR
STARTCHAR threesuperior
ENCODING 179
SWIDTH 365 0
DWIDTH 9 0
BBX 8 11 -14 7
BITMAP
3E
22
23
02
06
38
04
06
86
8C
F8
ENDCHAR
STARTCHAR acute
ENCODING 180
SWIDTH 560 0
DWIDTH 14 0
BBX 6 4 9 14
BITMAP
1C
30
60
C0
ENDCHAR
STARTCHAR mu
ENCODING 181
SWIDTH 663 0
DWIDTH 17 0
BBX 14 17 2 -4
BITMAP
7C7C
181C
1818
1818
3818
3838
3038
3070
30F0
70B0
7330
7F70
6E7C
6000
E000
E000
C000
ENDCHAR
STARTCHAR paragraph
ENCODING 182
SWIDTH 608 0
DWIDTH 15 0
BBX 11 22 4 -4
BITMAP
3FE0
7E40
FE40
FE40
FC40
FC80
7C80
7C80
1C80
0880
0880
0900
0900
0900
1100
1100
1200
1200
1200
2200
2200
2400
ENDCHAR
STARTCHAR periodcentered
ENCODING 183
SWIDTH 608 0
DWIDTH 15 0
BBX 3 3 8 6
BITMAP
E0
E0
E0
ENDCHAR
STARTCHAR cedilla
ENCODING 184
SWIDTH 560 0
DWIDTH 14 0
BBX 4 5 4 -5
BITMAP
20
60
30
30
E0
ENDCHAR
STARTCHAR onesuperior
ENCODING 185
SWIDTH 365 0
DWIDTH 9 0
BBX 6 11 -14 7
BITMAP
3C
0C
08
08
08
18
18
10
10
30
FC
ENDCHAR
STARTCHAR ordmasculine
ENCODING 186
SWIDTH 458 0
DWIDTH 10 0
BBX 10 10 3 8
BITMAP
0F00
1180
21C0
60C0
4080
C180
C180
C300
E600
7800
ENDCHAR
STARTCHAR guillemotright
ENCODING 187
SWIDTH 525 0
DWIDTH 13 0
BBX 12 11 2 1
BITMAP
2100
1080
18C0
1860
0C60
0E70
1C60
18C0
2180
4200
8400
ENDCHAR
STARTCHAR onequarter
ENCODING 188
SWIDTH 766 0
DWIDTH 20 0
BBX 20 18 5 0
BITMAP
3C0030
0C0060
0800C0
080180
080300
180600
180C00
101820
1030E0
306140
FCC240
018440
0308C0
0608C0
0C1FE0
180080
300180
6003C0
ENDCHAR
STARTCHAR onehalf
ENCODING 189
SWIDTH 766 0
DWIDTH 20 0
BBX 20 18 5 0
BITMAP
3C0030
0C0060
0800C0
080180
080300
180600
180C00
101BC0
103460
306460
FCC060
018040
030080
060300
0C0400
180800
300800
601F80
ENDCHAR
STARTCHAR threequarters
ENCODING 190
SWIDTH 766 0
DWIDTH 20 0
BBX 20 18 5 0
BITMAP
3E0030
220060
2300C0
020180
060300
380600
040C00
061820
8630E0
8C6140
F8C240
018440
0308C0
0608C0
0C1FE0
180080
300180
6003C0
ENDCHAR
STARTCHAR questiondown
ENCODING 191
SWIDTH 471 0
DWIDTH 12 0
BBX 10 18 1 -5
BITMAP
01C0
01C0
0000
0000
0000
0380
0300
0300
0600
0C00
1800
3000
6000
E000
E0C0
E080
7180
3F00
ENDCHAR
STARTCHAR Agrave
ENCODING 192
SWIDTH 747 0
DWIDTH 19 0
BBX 19 23 0 0
BITMAP
001C00
000C00
000400
000200
000000
000C00
000C00
001C00
003E00
002E00
004E00
00CE00
008600
010600
010700
020700
07FF00
040300
080300
100380
100380
200380
F80FE0
ENDCHAR
STARTCHAR Aacute
ENCODING 193
SWIDTH 747 0
DWIDTH 19 0
BBX 19 23 0 0
BITMAP
0001C0
000300
000600
000C00
000000
000C00
000C00
001C00
003E00
002E00
004E00
00CE00
008600
010600
010700
020700
07FF00
040300
080300
100380
100380
200380
F80FE0
ENDCHAR
STARTCHAR Acircumflex
ENCODING 194
SWIDTH 747 0
DWIDTH 19 0
BBX 19 23 0 0
BITMAP
000700
000F80
001880
003040
000000
000C00
000C00
001C00
003E00
002E00
004E00
00CE00
008600
010600
010700
020700
07FF00
040300
080300
100380
100380
200380
F80FE0
ENDCHAR
STARTCHAR Atilde
ENCODING 195
SWIDTH 747 0
DWIDTH 19 0
BBX 19 22 0 0
BITMAP
001C40
001F80
002380
000000
000C00
000C00
001C00
003E00
002E00
004E00
00CE00
008600
010600
010700
020700
07FF00
040300
080300
100380
100380
200380
F80FE0
ENDCHAR
STARTCHAR Adieresis
ENCODING 196
SWIDTH 747 0
DWIDTH 19 0
BBX 19 21 0 0
BITMAP
003180
003180
000000
000C00
000C00
001C00
003E00
002E00
004E00
00CE00
008600
010600
010700
020700
07FF00
040300
080300
100380
100380
200380
F80FE0
ENDCHAR
STARTCHAR Aring
ENCODING 197
SWIDTH 747 0
DWIDTH 19 0
BBX 19 23 0 0
BITMAP
000600
000900
000900
000600
000000
000C00
000C00
001C00
003E00
002E00
004E00
00CE00
008600
010600
010700
020700
07FF00
040300
080300
100380
100380
200380
F80FE0
ENDCHAR
STARTCHAR AE
ENCODING 198
SWIDTH 907 0
DWIDTH 23 0
BBX 25 18 0 0
BITMAP
0001FF80
00038180
00078100
000B8000
00138000
00130000
00230000
00470400
00870400
0187FC00
01070400
02060000
07FE0000
080E0000
080E0000
100C0600
201C0400
F87FFC00
ENDCHAR
STARTCHAR Ccedilla
ENCODING 199
SWIDTH 714 0
DWIDTH 18 0
BBX 17 23 3 -5
BITMAP
00FF80
038380
0E0180
1C0100
380000
300000
700000
700000
E00000
E00000
E00000
E00000
E00000
E00000
600000
700000
3C0C00
0FF000
020000
060000
030000
030000
0E0000
ENDCHAR
STARTCHAR Egrave
ENCODING 200
SWIDTH 569 0
DWIDTH 14 0
BBX 16 23 1 0
BITMAP
00E0
0060
0020
0010
0000
1FFF
0703
0702
0700
0700
0600
0608
0E08
0FF8
0E18
0C10
0C00
1C00
1C00
1C00
180C
3808
FFF8
ENDCHAR
STARTCHAR Eacute
ENCODING 201
SWIDTH 569 0
DWIDTH 14 0
BBX 16 23 1 0
BITMAP
000E
0018
0030
0060
0000
1FFF
0703
0702
0700
0700
0600
0608
0E08
0FF8
0E18
0C10
0C00
1C00
1C00
1C00
180C
3808
FFF8
ENDCHAR
STARTCHAR Ecircumflex
ENCODING 202
SWIDTH 569 0
DWIDTH 14 0
BBX 16 23 1 0
BITMAP
0038
007C
00C4
0182
0000
1FFF
0703
0702
0700
0700
0600
0608
0E08
0FF8
0E18
0C10
0C00
1C00
1C00
1C00
180C
3808
FFF8
ENDCHAR
STARTCHAR Edieresis
ENCODING 203
SWIDTH 569 0
DWIDTH 14 0
BBX 16 21 1 0
BITMAP
018C
018C
0000
1FFF
0703
0702
0700
0700
0600
0608
0E08
0FF8
0E18
0C10
0C00
1C00
1C00
1C00
180C
3808
FFF8
ENDCHAR
STARTCHAR Igrave
ENCODING 204
SWIDTH 325 0
DWIDTH 8 0
BBX 11 23 0 0
BITMAP
0700
0300
0100
0080
0000
0FE0
0380
0300
0700
0700
0700
0600
0600
0E00
0E00
0C00
0C00
1C00
1C00
1C00
1800
3800
FE00
ENDCHAR
STARTCHAR Iacute
ENCODING 205
SWIDTH 325 0
DWIDTH 8 0
BBX 12 23 0 0
BITMAP
0070
00C0
0180
0300
0000
0FE0
0380
0300
0700
0700
0700
0600
0600
0E00
0E00
0C00
0C00
1C00
1C00
1C00
1800
3800
FE00
ENDCHAR
STARTCHAR Icircumflex
ENCODING 206
SWIDTH 325 0
DWIDTH 8 0
BBX 12 23 0 0
BITMAP
01C0
03E0
0620
0C10
0000
0FE0
0380
0300
0700
0700
0700
0600
0600
0E00
0E00
0C00
0C00
1C00
1C00
1C00
1800
3800
FE00
ENDCHAR
STARTCHAR Idieresis
ENCODING 207
SWIDTH 325 0
DWIDTH 8 0
BBX 12 21 0 0
BITMAP
0630
0630
0000
0FE0
0380
0300
0700
0700
0700
0600
0600
0E00
0E00
0C00
0C00
1C00
1C00
1C00
1800
3800
FE00
ENDCHAR
STARTCHAR Eth
ENCODING 208
SWIDTH 770 0
DWIDTH 19 0
BBX 19 18 1 0
BITMAP
1FFE00
070780
0701C0
0700C0
0600E0
0600E0
0E00E0
0E00E0
7FE0E0
0C00E0
0C00C0
1C01C0
1C01C0
1C0380
180700
180E00
383C00
FFF000
ENDCHAR
STARTCHAR Ntilde
ENCODING 209
SWIDTH 762 0
DWIDTH 19 0
BBX 22 22 1 0
BITMAP
003880
003F00
004700
000000
1F00FC
070030
078020
078020
05C060
04C040
04E040
0C7040
087040
083880
083880
081C80
180C80
100E80
100700
100700
300300
FC0100
ENDCHAR
STARTCHAR Ograve
ENCODING 210
SWIDTH 783 0
DWIDTH 20 0
BBX 18 23 3 0
BITMAP
007000
003000
001000
000800
000000
00FC00
030700
0E0380
1C0380
380180
3001C0
7001C0
6001C0
E00180
E00180
E00380
E00300
E00700
E00600
600C00
701800
387000
0FC000
ENDCHAR
STARTCHAR Oacute
ENCODING 211
SWIDTH 783 0
DWIDTH 20 0
BBX 18 23 3 0
BITMAP
000E00
001800
003000
006000
000000
00FC00
030700
0E0380
1C0380
380180
3001C0
7001C0
6001C0
E00180
E00180
E00380
E00300
E00700
E00600
600C00
701800
387000
0FC000
ENDCHAR
STARTCHAR Ocircumflex
ENCODING 212
SWIDTH 783 0
DWIDTH 20 0
BBX 18 23 3 0
BITMAP
003800
007C00
00C400
018200
000000
00FC00
030700
0E0380
1C0380
380180
3001C0
7001C0
6001C0
E00180
E00180
E00380
E00300
E00700
E00600
600C00
701800
387000
0FC000
ENDCHAR
STARTCHAR Otilde
ENCODING 213
SWIDTH 783 0
DWIDTH 20 0
BBX 18 22 3 0
BITMAP
00E200
00FC00
011C00
000000
00FC00
030700
0E0380
1C0380
380180
3001C0
7001C0
6001C0
E00180
E00180
E00380
E00300
E00700
E00600
600C00
701800
387000
0FC000
ENDCHAR
STARTCHAR Odieresis
ENCODING 214
SWIDTH 783 0
DWIDTH 20 0
BBX 18 21 3 0
BITMAP
00C600
00C600
000000
00FC00
030700
0E0380
1C0380
380180
3001C0
7001C0
6001C0
E00180
E00180
E00380
E00300
E00700
E00600
600C00
701800
387000
0FC000
ENDCHAR
STARTCHAR multiply
ENCODING 215
SWIDTH 608 0
DWIDTH 15 0
BBX 17 15 1 0
BITMAP
100080
100100
080600
040C00
021800
033000
016000
008000
034000
066000
0C2000
181000
300800
600400
800400
ENDCHAR
STARTCHAR Oslash
ENCODING 216
SWIDTH 783 0
DWIDTH 20 0
BBX 21 18 1 0
BITMAP
007E18
01C3A0
0301C0
0600E0
0C01E0
1C02E0
180460
381860
3830E0
3060E0
30C0C0
7100C0
320180
340380
380300
180600
2C1C00
C7E000
ENDCHAR
STARTCHAR Ugrave
ENCODING 217
SWIDTH 727 0
DWIDTH 18 0
BBX 18 23 4 0
BITMAP
01C000
00C000
004000
002000
000000
FE0FC0
380300
380200
300200
300200
700600
700400
700400
600400
600C00
E00800
E00800
E00800
C01800
E01000
603000
706000
1F8000
ENDCHAR
STARTCHAR Uacute
ENCODING 218
SWIDTH 727 0
DWIDTH 18 0
BBX 18 23 4 0
BITMAP
001C00
003000
006000
00C000
000000
FE0FC0
380300
380200
300200
300200
700600
700400
700400
600400
600C00
E00800
E00800
E00800
C01800
E01000
603000
706000
1F8000
ENDCHAR
STARTCHAR Ucircumflex
ENCODING 219
SWIDTH 727 0
DWIDTH 18 0
BBX 18 23 4 0
BITMAP
007000
00F800
018800
030400
000000
FE0FC0
380300
380200
300200
300200
700600
700400
700400
600400
600C00
E00800
E00800
E00800
C01800
E01000
603000
706000
1F8000
ENDCHAR
STARTCHAR Udieresis
ENCODING 220
SWIDTH 727 0
DWIDTH 18 0
BBX 18 21 4 0
BITMAP
031800
031800
000000
FE0FC0
380300
380200
300200
300200
700600
700400
700400
600400
600C00
E00800
E00800
E00800
C01800
E01000
603000
706000
1F8000
ENDCHAR
STARTCHAR Yacute
ENCODING 221
SWIDTH 663 0
DWIDTH 17 0
BBX 17 23 3 0
BITMAP
003800
006000
00C000
018000
000000
FE0F80
780200
380400
380800
1C1000
1C3000
0E6000
0E4000
068000
070000
070000
060000
060000
0E0000
0E0000
0E0000
1E0000
7F8000
ENDCHAR
STARTCHAR Thorn
ENCODING 222
SWIDTH 579 0
DWIDTH 14 0
BBX 15 18 1 0
BITMAP
1FC0
0700
0700
0700
07F8
060C
0E0E
0E0E
0E0E
0C0E
0C1C
1C18
1C70
1FC0
1800
1800
3800
FE00
ENDCHAR
STARTCHAR germandbls
ENCODING 223
SWIDTH 603 0
DWIDTH 15 0
BBX 13 24 2 -5
BITMAP
01F0
0738
0618
0E18
0C30
0C20
0C40
1D80
1D80
1980
19C0
18F0
3878
3838
3018
3218
3218
7230
73E0
6000
6000
6000
E000
E000
ENDCHAR
STARTCHAR agrave
ENCODING 224
SWIDTH 608 0
DWIDTH 15 0
BBX 13 18 2 0
BITMAP
01C0
00C0
0040
0020
0000
03F8
0438
1830
1030
3030
6030
6070
E0E0
E160
E360
E660
FCE0
70F8
ENDCHAR
STARTCHAR aacute
ENCODING 225
SWIDTH 608 0
DWIDTH 15 0
BBX 13 18 2 0
BITMAP
0038
0060
00C0
0180
0000
03F8
0438
1830
1030
3030
6030
6070
E0E0
E160
E360
E660
FCE0
70F8
ENDCHAR
STARTCHAR acircumflex
ENCODING 226
SWIDTH 608 0
DWIDTH 15 0
BBX 13 18 2 0
BITMAP
00E0
01F0
0310
0608
0000
03F8
0438
1830
1030
3030
6030
6070
E0E0
E160
E360
E660
FCE0
70F8
ENDCHAR
STARTCHAR atilde
ENCODING 227
SWIDTH 608 0
DWIDTH 15 0
BBX 14 17 2 0
BITMAP
01C4
01F8
0238
0000
03F8
0438
1830
1030
3030
6030
6070
E0E0
E160
E360
E660
FCE0
70F8
ENDCHAR
STARTCHAR adieresis
ENCODING 228
SWIDTH 608 0
DWIDTH 15 0
BBX 13 16 2 0
BITMAP
0318
0318
0000
03F8
0438
1830
1030
3030
6030
6070
E0E0
E160
E360
E660
FCE0
70F8
ENDCHAR
STARTCHAR aring
ENCODING 229
SWIDTH 608 0
DWIDTH 15 0
BBX 13 18 2 0
BITMAP
0060
0090
0090
0060
0000
03F8
0438
1830
1030
3030
6030
6070
E0E0
E160
E360
E660
FCE0
70F8
ENDCHAR
STARTCHAR ae
ENCODING 230
SWIDTH 881 0
DWIDTH 22 0
BBX 20 13 2 0
BITMAP
03F9E0
043E70
181C30
103830
303870
603060
6071C0
E0FE00
E0B000
E13000
E63010
FC3860
781F80
ENDCHAR
STARTCHAR ccedilla
ENCODING 231
SWIDTH 487 0
DWIDTH 12 0
BBX 11 18 2 -5
BITMAP
07E0
0860
1020
3060
6000
6000
E000
E000
E000
E000
E000
6080
3F00
1000
3000
1800
1800
7000
ENDCHAR
STARTCHAR egrave
ENCODING 232
SWIDTH 518 0
DWIDTH 13 0
BBX 11 18 2 0
BITMAP
0380
0180
0080
0040
0000
07C0
08E0
10E0
30E0
60C0
61C0
E300
FC00
E000
E000
E060
71C0
3F00
ENDCHAR
STARTCHAR eacute
ENCODING 233
SWIDTH 518 0
DWIDTH 13 0
BBX 12 18 2 0
BITMAP
0070
00C0
0180
0300
0000
07C0
08E0
10E0
30E0
60C0
61C0
E300
FC00
E000
E000
E060
71C0
3F00
ENDCHAR
STARTCHAR ecircumflex
ENCODING 234
SWIDTH 518 0
DWIDTH 13 0
BBX 12 18 2 0
BITMAP
01C0
03E0
0620
0C10
0000
07C0
08E0
10E0
30E0
60C0
61C0
E300
FC00
E000
E000
E060
71C0
3F00
ENDCHAR
STARTCHAR edieresis
ENCODING 235
SWIDTH 518 0
DWIDTH 13 0
BBX 12 16 2 0
BITMAP
0630
0630
0000
07C0
08E0
10E0
30E0
60C0
61C0
E300
FC00
E000
E000
E060
71C0
3F00
ENDCHAR
STARTCHAR igrave
ENCODING 236
SWIDTH 289 0
DWIDTH 7 0
BBX 6 18 3 0
BITMAP
38
18
08
04
00
F8
38
30
30
30
30
70
60
60
60
60
E0
F8
ENDCHAR
STARTCHAR iacute
ENCODING 237
SWIDTH 289 0
DWIDTH 7 0
BBX 9 18 3 0
BITMAP
0380
0600
0C00
1800
0000
F800
3800
3000
3000
3000
3000
7000
6000
6000
6000
6000
E000
F800
ENDCHAR
STARTCHAR icircumflex
ENCODING 238
SWIDTH 289 0
DWIDTH 7 0
BBX 9 18 3 0
BITMAP
0E00
1F00
3100
6080
0000
F800
3800
3000
3000
3000
3000
7000
6000
6000
6000
6000
E000
F800
ENDCHAR
STARTCHAR idieresis
ENCODING 239
SWIDTH 289 0
DWIDTH 7 0
BBX 9 16 3 0
BITMAP
3180
3180
0000
F800
3800
3000
3000
3000
3000
7000
6000
6000
6000
6000
E000
F800
ENDCHAR
STARTCHAR eth
ENCODING 240
SWIDTH 562 0
DWIDTH 14 0
BBX 12 19 2 0
BITMAP
0030
1FE0
03C0
01C0
0E60
0060
07F0
0870
1030
3030
6030
6030
E030
E070
E060
E060
E0C0
6180
3E00
ENDCHAR
STARTCHAR ntilde
ENCODING 241
SWIDTH 631 0
DWIDTH 16 0
BBX 13 17 3 0
BITMAP
0388
03F0
0470
0000
F870
39F8
3338
3638
3430
3830
7030
7070
6070
6060
6060
E060
E0F8
ENDCHAR
STARTCHAR ograve
ENCODING 242
SWIDTH 560 0
DWIDTH 14 0
BBX 12 18 2 0
BITMAP
0380
0180
0080
0040
0000
07C0
0C60
1870
3030
7030
6030
E070
E070
E060
E0E0
E0C0
F380
7E00
ENDCHAR
STARTCHAR oacute
ENCODING 243
SWIDTH 560 0
DWIDTH 14 0
BBX 13 18 2 0
BITMAP
0038
0060
00C0
0180
0000
07C0
0C60
1870
3030
7030
6030
E070
E070
E060
E0E0
E0C0
F380
7E00
ENDCHAR
STARTCHAR ocircumflex
ENCODING 244
SWIDTH 560 0
DWIDTH 14 0
BBX 13 18 2 0
BITMAP
00E0
01F0
0310
0608
0000
07C0
0C60
1870
3030
7030
6030
E070
E070
E060
E0E0
E0C0
F380
7E00
ENDCHAR
STARTCHAR otilde
ENCODING 245
SWIDTH 560 0
DWIDTH 14 0
BBX 13 17 2 0
BITMAP
0388
03F0
0470
0000
07C0
0C60
1870
3030
7030
6030
E070
E070
E060
E0E0
E0C0
F380
7E00
ENDCHAR
STARTCHAR odieresis
ENCODING 246
SWIDTH 560 0
DWIDTH 14 0
BBX 12 16 2 0
BITMAP
0630
0630
0000
07C0
0C60
1870
3030
7030
6030
E070
E070
E060
E0E0
E0C0
F380
7E00
ENDCHAR
STARTCHAR divide
ENCODING 247
SWIDTH 608 0
DWIDTH 15 0
BBX 15 13 2 0
BITMAP
00C0
01C0
0000
0000
0000
0000
FFFE
0000
0000
0000
0000
0700
0700
ENDCHAR
STARTCHAR oslash
ENCODING 248
SWIDTH 560 0
DWIDTH 14 0
BBX 15 13 1 0
BITMAP
01E6
0638
0C18
1838
305C
3098
7118
7218
7430
7830
7060
38C0
DF00
ENDCHAR
STARTCHAR ugrave
ENCODING 249
SWIDTH 630 0
DWIDTH 16 0
BBX 13 18 3 0
BITMAP
01C0
00C0
0040
0020
0000
F8F8
3038
3030
3030
7030
7070
6070
60E0
6160
E360
E660
FCE0
70F8
ENDCHAR
STARTCHAR uacute
ENCODING 250
SWIDTH 630 0
DWIDTH 16 0
BBX 13 18 3 0
BITMAP
0038
0060
00C0
0180
0000
F8F8
3038
3030
3030
7030
7070
6070
60E0
6160
E360
E660
FCE0
70F8
ENDCHAR
STARTCHAR ucircumflex
ENCODING 251
SWIDTH 630 0
DWIDTH 16 0
BBX 13 18 3 0
BITMAP
00E0
01F0
0310
0608
0000
F8F8
3038
3030
3030
7030
7070
6070
60E0
6160
E360
E660
FCE0
70F8
ENDCHAR
STARTCHAR udieresis
ENCODING 252
SWIDTH 630 0
DWIDTH 16 0
BBX 13 16 3 0
BITMAP
0318
0318
0000
F8F8
3038
3030
3030
7030
7070
6070
60E0
6160
E360
E660
FCE0
70F8
ENDCHAR
STARTCHAR yacute
ENCODING 253
SWIDTH 558 0
DWIDTH 14 0
BBX 16 23 0 -5
BITMAP
000E
0018
0030
0060
0000
7C0F
1C07
0E06
0606
060C
0608
0710
0730
0320
0340
0380
0300
0200
0600
0C00
1800
3000
F000
ENDCHAR
STARTCHAR thorn
ENCODING 254
SWIDTH 608 0
DWIDTH 15 0
BBX 14 22 2 -5
BITMAP
3C00
0C00
0C00
0C00
1C38
1CFC
199C
1B1C
1A1C
3C1C
3818
3018
3030
3020
7060
7080
7F00
6000
6000
E000
E000
E000
ENDCHAR
STARTCHAR ydieresis
ENCODING 255
SWIDTH 558 0
DWIDTH 14 0
BBX 16 21 0 -5
BITMAP
00C6
00C6
0000
7C0F
1C07
0E06
0606
060C
0608
0710
0730
0320
0340
0380
0300
0200
0600
0C00
1800
3000
F000
ENDCHAR
ENDFONT
