STARTFONT 2.1
COMMENT AUTOMATICALLY GENERATED FILE. DO NOT EDIT!
COMMENT Generated with 'ucs2any.pl lubI19.bdf ../../../fonts/util/map-ISO8859-1 ISO8859-1'
COMMENT from an ISO10646-1 encoded source BDF font.
COMMENT ucs2any.pl by Markus Kuhn <mkuhn@acm.org>, 2000.
COMMENT $Xorg: $
COMMENT ISO10646-1 extension by Markus Kuhn <mkuhn@acm.org>, 2001-03-20
COMMENT  (c) Copyright Bigelow & Holmes 1986, 1985. Lucida is a registered
COMMENT  trademark of Bigelow & Holmes. See LEGAL NOTICE file for terms 
COMMENT  of the license. 
FONT -B&H-LucidaBright-Medium-I-Normal--26-190-100-100-P-148-ISO8859-1
SIZE 19 100 100
FONTBOUNDINGBOX 41 29 -14 -5
STARTPROPERTIES 22
COMMENT Begin LogicalFontDescription
FONTNAME_REGISTRY ""
FOUNDRY "B&H"
FAMILY_NAME "LucidaBright"
WEIGHT_NAME "Medium"
SLANT "I"
SETWIDTH_NAME "Normal"
ADD_STYLE_NAME ""
PIXEL_SIZE 26
POINT_SIZE 190
RESOLUTION_X 100
RESOLUTION_Y 100
SPACING "P"
AVERAGE_WIDTH "148"
CHARSET_REGISTRY "ISO8859"
CHARSET_ENCODING "1"
COMMENT END LogicalFontDescription
COPYRIGHT "Copyright Bigelow & Holmes 1986, 1985."
FONT_ASCENT 24
FONT_DESCENT 6
DEFAULT_CHAR 0
FACE_NAME "Lucida Bright Italic"
X_HEIGHT 14
CAP_HEIGHT 19
ENDPROPERTIES
CHARS 192
STARTCHAR defaultchar
ENCODING 0
SWIDTH 776 0
DWIDTH 20 0
BBX 23 19 0 0
BITMAP
AAAAAA
000000
800002
000000
800002
000000
800002
000000
800002
000000
800002
000000
800002
000000
800002
000000
800002
000000
AAAAAA
ENDCHAR
STARTCHAR space
ENCODING 32
SWIDTH 333 0
DWIDTH 8 0
BBX 1 1 0 0
BITMAP
00
ENDCHAR
STARTCHAR exclam
ENCODING 33
SWIDTH 265 0
DWIDTH 7 0
BBX 6 19 2 0
BITMAP
1C
1C
1C
18
18
18
18
30
30
30
20
20
20
20
00
00
E0
E0
E0
ENDCHAR
STARTCHAR quotedbl
ENCODING 34
SWIDTH 377 0
DWIDTH 10 0
BBX 7 6 5 13
BITMAP
CE
CC
CC
44
44
44
ENDCHAR
STARTCHAR numbersign
ENCODING 35
SWIDTH 608 0
DWIDTH 16 0
BBX 16 19 2 0
BITMAP
0063
0042
00C6
0084
018C
0108
7FFF
0210
0630
0420
0C60
0840
FFFE
1080
3180
2100
6300
4200
C600
ENDCHAR
STARTCHAR dollar
ENCODING 36
SWIDTH 608 0
DWIDTH 16 0
BBX 11 22 4 -2
BITMAP
0100
0FE0
1A60
3220
3220
3200
3200
3200
3C00
1C00
0E00
0780
0B80
09C0
09C0
09C0
4980
C980
CB00
FC00
1000
1000
ENDCHAR
STARTCHAR percent
ENCODING 37
SWIDTH 759 0
DWIDTH 20 0
BBX 20 19 2 0
BITMAP
0F0030
188040
30C080
30C100
60C300
60C600
618C00
331800
1E3000
006780
00CCC0
019840
033040
063040
0C30C0
1830C0
3030C0
603180
C01E00
ENDCHAR
STARTCHAR ampersand
ENCODING 38
SWIDTH 727 0
DWIDTH 19 0
BBX 19 19 2 0
BITMAP
007800
018C00
030C00
030C00
030C00
031C00
033800
03E000
0F8000
398FE0
71C300
E1C300
E0E200
E0E200
E07400
E07800
603800
787C00
1F9F00
ENDCHAR
STARTCHAR quotesingle
ENCODING 39
SWIDTH 231 0
DWIDTH 6 0
BBX 3 7 5 12
BITMAP
E0
E0
E0
60
40
40
40
ENDCHAR
STARTCHAR parenleft
ENCODING 40
SWIDTH 310 0
DWIDTH 8 0
BBX 9 23 2 -4
BITMAP
0080
0300
0600
0C00
0800
1800
3000
3000
6000
6000
6000
E000
E000
C000
C000
C000
C000
C000
4000
4000
2000
2000
1000
ENDCHAR
STARTCHAR parenright
ENCODING 41
SWIDTH 310 0
DWIDTH 8 0
BBX 9 23 0 -4
BITMAP
0400
0400
0200
0200
0300
0300
0300
0300
0380
0300
0300
0300
0300
0700
0600
0600
0C00
0C00
1800
1000
2000
4000
8000
ENDCHAR
STARTCHAR asterisk
ENCODING 42
SWIDTH 458 0
DWIDTH 12 0
BBX 10 9 4 10
BITMAP
0600
0400
4400
EDC0
3300
1C00
3600
E600
4300
ENDCHAR
STARTCHAR plus
ENCODING 43
SWIDTH 608 0
DWIDTH 16 0
BBX 15 16 2 0
BITMAP
00C0
00C0
0080
0080
0080
0180
0180
0180
FFFE
0100
0100
0300
0300
0200
0200
0600
ENDCHAR
STARTCHAR comma
ENCODING 44
SWIDTH 265 0
DWIDTH 7 0
BBX 5 9 1 -5
BITMAP
38
78
78
70
30
30
30
60
C0
ENDCHAR
STARTCHAR hyphen
ENCODING 45
SWIDTH 313 0
DWIDTH 8 0
BBX 6 2 3 8
BITMAP
FC
FC
ENDCHAR
STARTCHAR period
ENCODING 46
SWIDTH 265 0
DWIDTH 7 0
BBX 4 3 2 0
BITMAP
70
F0
E0
ENDCHAR
STARTCHAR slash
ENCODING 47
SWIDTH 458 0
DWIDTH 12 0
BBX 17 23 0 -4
BITMAP
000180
000300
000200
000600
000C00
000800
001800
003000
002000
006000
00C000
008000
018000
030000
020000
060000
0C0000
080000
180000
300000
200000
600000
C00000
ENDCHAR
STARTCHAR zero
ENCODING 48
SWIDTH 608 0
DWIDTH 16 0
BBX 14 19 3 0
BITMAP
03E0
0630
0C18
181C
301C
301C
701C
601C
601C
E01C
E018
E018
E038
E030
E070
E060
60C0
3180
1F00
ENDCHAR
STARTCHAR one
ENCODING 49
SWIDTH 608 0
DWIDTH 16 0
BBX 10 19 3 0
BITMAP
0FC0
01C0
0180
0180
0180
0380
0380
0300
0300
0300
0700
0700
0600
0600
0600
0E00
0E00
1E00
FFC0
ENDCHAR
STARTCHAR two
ENCODING 50
SWIDTH 608 0
DWIDTH 16 0
BBX 14 19 2 0
BITMAP
03F0
0C38
081C
181C
001C
001C
0018
0038
0070
00E0
0180
0300
0400
1800
3000
2000
6000
FFE0
FFE0
ENDCHAR
STARTCHAR three
ENCODING 51
SWIDTH 608 0
DWIDTH 16 0
BBX 13 19 3 0
BITMAP
0FE0
0C30
0818
1818
0018
0038
0030
00E0
0F80
00C0
0060
0070
0070
0070
0070
4060
C0C0
C180
FE00
ENDCHAR
STARTCHAR four
ENCODING 52
SWIDTH 608 0
DWIDTH 16 0
BBX 14 19 2 0
BITMAP
000C
0018
0038
0058
0098
0138
0230
0430
0830
1030
2070
4060
FFFC
FFFC
0060
00E0
00C0
01C0
07F0
ENDCHAR
STARTCHAR five
ENCODING 53
SWIDTH 608 0
DWIDTH 16 0
BBX 14 19 3 0
BITMAP
0FFC
0FFC
1000
1000
1000
1000
1000
3F00
01C0
00E0
0070
0070
0070
0070
0060
40E0
C0C0
C380
FE00
ENDCHAR
STARTCHAR six
ENCODING 54
SWIDTH 608 0
DWIDTH 16 0
BBX 14 19 3 0
BITMAP
01F8
070C
0C0C
1C0C
3800
3000
7000
77C0
7870
F030
E038
E038
E038
E030
E030
E060
60E0
31C0
1F00
ENDCHAR
STARTCHAR seven
ENCODING 55
SWIDTH 608 0
DWIDTH 16 0
BBX 14 19 4 0
BITMAP
3FFC
3FFC
0008
0010
0020
0040
00C0
0180
0100
0200
0600
0C00
1800
1800
3000
7000
7000
E000
E000
ENDCHAR
STARTCHAR eight
ENCODING 56
SWIDTH 608 0
DWIDTH 16 0
BBX 14 19 3 0
BITMAP
03F0
0638
081C
181C
181C
3818
1C30
1E60
0FC0
0BC0
31F0
6070
E038
C030
C030
E030
E060
70C0
1F00
ENDCHAR
STARTCHAR nine
ENCODING 57
SWIDTH 608 0
DWIDTH 16 0
BBX 14 19 3 0
BITMAP
03E0
0E30
1C18
181C
301C
301C
701C
701C
701C
303C
3858
0FB8
0038
0030
0070
C060
C0C0
E380
7E00
ENDCHAR
STARTCHAR colon
ENCODING 58
SWIDTH 265 0
DWIDTH 7 0
BBX 6 14 2 0
BITMAP
1C
3C
38
00
00
00
00
00
00
00
00
70
F0
E0
ENDCHAR
STARTCHAR semicolon
ENCODING 59
SWIDTH 265 0
DWIDTH 7 0
BBX 7 19 1 -5
BITMAP
0E
1E
1C
00
00
00
00
00
00
00
00
00
78
70
30
30
30
60
C0
ENDCHAR
STARTCHAR less
ENCODING 60
SWIDTH 608 0
DWIDTH 16 0
BBX 17 16 2 0
BITMAP
000080
000380
000E00
003800
00E000
070000
1C0000
F00000
700000
1C0000
0E0000
038000
00E000
003800
001C00
000400
ENDCHAR
STARTCHAR equal
ENCODING 61
SWIDTH 608 0
DWIDTH 16 0
BBX 16 7 1 4
BITMAP
7FFF
0000
0000
0000
0000
0000
FFFE
ENDCHAR
STARTCHAR greater
ENCODING 62
SWIDTH 608 0
DWIDTH 16 0
BBX 17 16 0 0
BITMAP
100000
1C0000
0E0000
038000
00E000
003800
001C00
000700
000780
001C00
007000
038000
0E0000
380000
E00000
800000
ENDCHAR
STARTCHAR question
ENCODING 63
SWIDTH 471 0
DWIDTH 12 0
BBX 10 19 4 0
BITMAP
3F00
63C0
41C0
C0C0
01C0
01C0
0180
0300
0400
0800
1000
3000
7000
7000
0000
0000
E000
E000
E000
ENDCHAR
STARTCHAR at
ENCODING 64
SWIDTH 861 0
DWIDTH 22 0
BBX 20 19 3 0
BITMAP
007E00
038180
040040
080020
107E10
208610
410610
420410
820C10
860C10
861C10
861C20
862C20
864CC0
438F00
400000
200000
181800
07E000
ENDCHAR
STARTCHAR A
ENCODING 65
SWIDTH 747 0
DWIDTH 19 0
BBX 19 19 0 0
BITMAP
000400
000C00
001C00
001C00
002E00
006E00
004E00
008600
008600
010700
030700
020700
07FF00
0C0300
080380
100380
100380
200380
F80FE0
ENDCHAR
STARTCHAR B
ENCODING 66
SWIDTH 606 0
DWIDTH 16 0
BBX 16 19 1 0
BITMAP
0FFC
030E
0307
0707
0707
0707
0706
060C
0E38
0FE0
0E38
0C0C
0C0E
1C0E
1C0E
1C0E
181C
3838
FFE0
ENDCHAR
STARTCHAR C
ENCODING 67
SWIDTH 714 0
DWIDTH 19 0
BBX 17 19 3 0
BITMAP
00FF00
038380
060180
0C0180
180100
380000
700000
700000
600000
E00000
E00000
E00000
E00000
E00000
E00000
700000
700000
3C1C00
0FF000
ENDCHAR
STARTCHAR D
ENCODING 68
SWIDTH 770 0
DWIDTH 20 0
BBX 20 19 1 0
BITMAP
0FFF00
0303C0
0300E0
0700E0
070070
070070
060070
060070
0E0070
0E0070
0E0060
0C00E0
0C00E0
1C01C0
1C01C0
1C0380
1C0700
3C1C00
FFF000
ENDCHAR
STARTCHAR E
ENCODING 69
SWIDTH 569 0
DWIDTH 15 0
BBX 17 19 0 0
BITMAP
0FFF80
038180
038100
030000
030000
070000
070000
070400
060C00
0FFC00
0E0800
0E0800
0C0000
0C0000
1C0000
1C0000
1C0600
3C0C00
FFFC00
ENDCHAR
STARTCHAR F
ENCODING 70
SWIDTH 551 0
DWIDTH 14 0
BBX 17 19 0 0
BITMAP
0FFF80
038180
038100
030000
030000
070000
070000
070400
060C00
0FFC00
0E0800
0E0800
0C0000
0C0000
1C0000
1C0000
1C0000
3C0000
FF0000
ENDCHAR
STARTCHAR G
ENCODING 71
SWIDTH 756 0
DWIDTH 20 0
BBX 18 19 3 0
BITMAP
00FF80
0381C0
070080
0C0180
1C0000
380000
700000
700000
600000
E00000
E00000
E03FC0
E00700
E00E00
E00E00
700E00
700C00
3C0C00
0FF000
ENDCHAR
STARTCHAR H
ENCODING 72
SWIDTH 776 0
DWIDTH 20 0
BBX 23 19 0 0
BITMAP
0FE1FE
038078
030070
030070
070070
070070
070060
0600E0
0600E0
0FFFE0
0E00E0
0E00C0
0C01C0
1C01C0
1C01C0
1C01C0
1C0180
3C0380
FF0FE0
ENDCHAR
STARTCHAR I
ENCODING 73
SWIDTH 325 0
DWIDTH 9 0
BBX 11 19 1 0
BITMAP
0FE0
0380
0700
0700
0700
0700
0600
0600
0E00
0E00
0E00
0C00
0C00
1C00
1C00
1C00
1C00
3800
FE00
ENDCHAR
STARTCHAR J
ENCODING 74
SWIDTH 422 0
DWIDTH 11 0
BBX 15 23 0 -4
BITMAP
01FE
0078
0070
0070
0070
0070
0060
00E0
00E0
00E0
00E0
00C0
01C0
01C0
01C0
01C0
0180
0380
0380
4300
C300
C600
F800
ENDCHAR
STARTCHAR K
ENCODING 75
SWIDTH 698 0
DWIDTH 18 0
BBX 20 19 0 0
BITMAP
0FE3F0
0380C0
030180
030200
070400
071800
073000
066000
0E8000
0FC000
0EE000
0EF000
0C7000
1C3800
1C1C00
1C1C00
1C0E00
3C0F00
FE1FC0
ENDCHAR
STARTCHAR L
ENCODING 76
SWIDTH 572 0
DWIDTH 15 0
BBX 15 19 0 0
BITMAP
0FE0
0380
0380
0300
0700
0700
0700
0600
0600
0E00
0E00
0E00
0C00
0C00
1C00
1C02
1C06
3C0E
FFFC
ENDCHAR
STARTCHAR M
ENCODING 77
SWIDTH 865 0
DWIDTH 22 0
BBX 25 19 1 0
BITMAP
0F800F80
03801E00
03801C00
07802C00
07C05C00
05C05C00
04C09800
04C19800
0CE11800
0CE23800
08623800
08643000
087C3000
18783000
18307000
10307000
10206000
3000E000
FC03F800
ENDCHAR
STARTCHAR N
ENCODING 78
SWIDTH 762 0
DWIDTH 20 0
BBX 22 19 1 0
BITMAP
0F00FC
030010
038030
07C030
05C020
04E020
04E020
047020
0C7040
083840
081840
081C40
080E40
180E80
100780
100780
100380
300180
FC0100
ENDCHAR
STARTCHAR O
ENCODING 79
SWIDTH 783 0
DWIDTH 20 0
BBX 18 19 3 0
BITMAP
00FC00
038700
060380
0C01C0
1801C0
3801C0
7000C0
7000C0
6000C0
E001C0
E001C0
E00180
E00380
E00300
E00700
600E00
701C00
383000
0FC000
ENDCHAR
STARTCHAR P
ENCODING 80
SWIDTH 579 0
DWIDTH 15 0
BBX 17 19 0 0
BITMAP
0FFE00
038700
030380
030380
070380
070380
070300
060700
060E00
0E1C00
0FF000
0E0000
0C0000
1C0000
1C0000
1C0000
1C0000
3C0000
FF0000
ENDCHAR
STARTCHAR Q
ENCODING 81
SWIDTH 788 0
DWIDTH 20 0
BBX 21 24 3 -5
BITMAP
00FC00
038700
060380
0C01C0
1801C0
3801C0
7001C0
7001C0
6001C0
E001C0
E001C0
E00180
E00380
E00380
E00700
600E00
701C00
383800
0FE000
004000
002000
001C00
0007F8
0001E0
ENDCHAR
STARTCHAR R
ENCODING 82
SWIDTH 686 0
DWIDTH 18 0
BBX 17 19 1 0
BITMAP
0FFE00
070F00
070700
070300
070300
060700
060700
0E0E00
0E1C00
0FF000
0E7000
0C7000
0C3800
1C3800
1C1C00
1C1C00
180E00
380E00
FE0780
ENDCHAR
STARTCHAR S
ENCODING 83
SWIDTH 549 0
DWIDTH 14 0
BBX 15 19 1 0
BITMAP
01FC
070E
0C06
1C06
1C06
1C00
1C00
0E00
0780
03C0
01E0
0070
0070
0030
4030
C030
C060
E0C0
3F00
ENDCHAR
STARTCHAR T
ENCODING 84
SWIDTH 663 0
DWIDTH 17 0
BBX 17 19 4 0
BITMAP
7FFF80
C1C180
81C100
018000
018000
038000
038000
038000
030000
030000
070000
070000
070000
060000
060000
0E0000
0E0000
0E0000
7F8000
ENDCHAR
STARTCHAR U
ENCODING 85
SWIDTH 727 0
DWIDTH 19 0
BBX 18 19 4 0
BITMAP
FF0FC0
3C0300
380200
380200
300200
300600
700400
700400
700400
600400
E00C00
E00800
E00800
E00800
E01800
E01000
603000
706000
1F8000
ENDCHAR
STARTCHAR V
ENCODING 86
SWIDTH 656 0
DWIDTH 17 0
BBX 18 19 3 0
BITMAP
FE07C0
700100
300100
380200
380600
380400
380800
180800
181000
1C3000
1C2000
1C4000
0C4000
0C8000
0F8000
0F0000
0E0000
060000
040000
ENDCHAR
STARTCHAR W
ENCODING 87
SWIDTH 878 0
DWIDTH 23 0
BBX 24 19 3 0
BITMAP
FE081F
781804
301808
303808
303C10
305C10
305C20
389C20
389C40
391C40
391C80
3A0C80
3A0D00
3C0D00
3C0E00
380E00
380C00
100C00
100800
ENDCHAR
STARTCHAR X
ENCODING 88
SWIDTH 624 0
DWIDTH 16 0
BBX 21 19 0 0
BITMAP
0FE0F8
038060
01C040
01C080
00C100
00E200
00E400
007800
007000
003800
007800
009C00
011C00
021C00
040E00
0C0E00
180700
300700
FC1FC0
ENDCHAR
STARTCHAR Y
ENCODING 89
SWIDTH 663 0
DWIDTH 17 0
BBX 17 19 4 0
BITMAP
FE0F80
780200
380400
380800
1C1800
1C1000
0C2000
0E4000
0E8000
078000
070000
070000
060000
060000
0E0000
0E0000
0E0000
1E0000
7F8000
ENDCHAR
STARTCHAR Z
ENCODING 90
SWIDTH 633 0
DWIDTH 16 0
BBX 17 19 1 0
BITMAP
0FFF80
0C0700
080600
180E00
001C00
003800
007000
007000
00E000
01C000
038000
070000
070000
0E0000
1C0000
380000
700400
700C00
FFFC00
ENDCHAR
STARTCHAR bracketleft
ENCODING 91
SWIDTH 310 0
DWIDTH 8 0
BBX 10 23 1 -4
BITMAP
07C0
0600
0E00
0C00
0C00
0C00
1C00
1C00
1800
1800
1800
3800
3000
3000
3000
3000
7000
6000
6000
6000
6000
C000
F800
ENDCHAR
STARTCHAR backslash
ENCODING 92
SWIDTH 458 0
DWIDTH 12 0
BBX 7 23 4 -4
BITMAP
C0
C0
40
40
60
60
20
20
20
30
10
10
10
18
18
08
08
0C
0C
04
04
06
06
ENDCHAR
STARTCHAR bracketright
ENCODING 93
SWIDTH 310 0
DWIDTH 8 0
BBX 10 23 0 -4
BITMAP
07C0
00C0
0180
0180
0180
0180
0380
0300
0300
0300
0300
0700
0600
0600
0600
0E00
0C00
0C00
0C00
0C00
1C00
1800
F800
ENDCHAR
STARTCHAR asciicircum
ENCODING 94
SWIDTH 608 0
DWIDTH 16 0
BBX 15 16 1 3
BITMAP
0020
0060
0060
00E0
00A0
0110
0310
0210
0608
0C08
0808
1808
3004
2004
6004
C002
ENDCHAR
STARTCHAR underscore
ENCODING 95
SWIDTH 500 0
DWIDTH 13 0
BBX 11 2 1 -2
BITMAP
FFE0
FFE0
ENDCHAR
STARTCHAR grave
ENCODING 96
SWIDTH 560 0
DWIDTH 15 0
BBX 5 4 8 15
BITMAP
E0
70
30
18
ENDCHAR
STARTCHAR a
ENCODING 97
SWIDTH 608 0
DWIDTH 16 0
BBX 14 14 2 0
BITMAP
03FC
041C
081C
1018
3018
3038
6038
6078
E070
E0B0
E170
E270
FC70
787C
ENDCHAR
STARTCHAR b
ENCODING 98
SWIDTH 596 0
DWIDTH 15 0
BBX 14 19 2 0
BITMAP
3E00
0C00
0C00
1C00
1C00
1878
18FC
399C
3A1C
3C1C
3C1C
3818
7018
7038
6030
6020
6040
E080
FF00
ENDCHAR
STARTCHAR c
ENCODING 99
SWIDTH 487 0
DWIDTH 13 0
BBX 12 14 2 0
BITMAP
03F0
0C70
1020
3020
6000
6000
E000
E000
E000
E000
E000
E000
70C0
3F00
ENDCHAR
STARTCHAR d
ENCODING 100
SWIDTH 608 0
DWIDTH 16 0
BBX 15 19 2 0
BITMAP
003E
000E
000C
000C
001C
03FC
041C
0818
1018
3038
7038
6038
6070
E0B0
E0F0
E170
E670
FC70
707C
ENDCHAR
STARTCHAR e
ENCODING 101
SWIDTH 518 0
DWIDTH 13 0
BBX 11 14 2 0
BITMAP
03C0
0CE0
1860
3060
6060
60C0
E180
EF00
F000
E000
E000
E020
70C0
3F00
ENDCHAR
STARTCHAR f
ENCODING 102
SWIDTH 380 0
DWIDTH 10 0
BBX 13 25 2 -5
BITMAP
00F8
0318
0618
0610
0E00
0C00
3FC0
0C00
1C00
1C00
1800
1800
1800
3800
3800
3000
3000
3000
7000
7000
6000
6000
6000
E000
E000
ENDCHAR
STARTCHAR g
ENCODING 103
SWIDTH 602 0
DWIDTH 16 0
BBX 15 19 1 -5
BITMAP
01FE
020E
040E
080C
180C
181C
301C
3038
7058
7058
70B8
7138
7E30
3C30
0070
8060
C060
7080
7F00
ENDCHAR
STARTCHAR h
ENCODING 104
SWIDTH 631 0
DWIDTH 16 0
BBX 14 19 3 0
BITMAP
7E00
0C00
1C00
1C00
1C00
1878
18FC
399C
3A1C
3418
3C18
3838
7038
7038
6030
6030
6070
E070
E07C
ENDCHAR
STARTCHAR i
ENCODING 105
SWIDTH 289 0
DWIDTH 8 0
BBX 6 19 3 0
BITMAP
1C
1C
00
00
00
F8
38
38
30
30
30
70
70
60
60
60
E0
E0
F8
ENDCHAR
STARTCHAR j
ENCODING 106
SWIDTH 343 0
DWIDTH 9 0
BBX 13 24 -1 -5
BITMAP
0038
0038
0000
0000
0000
01F0
0070
0060
0060
0060
00E0
00E0
00C0
00C0
01C0
01C0
01C0
01C0
0180
0380
4300
C300
C600
F800
ENDCHAR
STARTCHAR k
ENCODING 107
SWIDTH 560 0
DWIDTH 15 0
BBX 13 19 2 0
BITMAP
7C00
1C00
1C00
1C00
1800
1838
1830
3870
38E0
3180
3200
3E00
7E00
7700
6780
6380
61C0
E1E0
E0F8
ENDCHAR
STARTCHAR l
ENCODING 108
SWIDTH 289 0
DWIDTH 8 0
BBX 7 19 2 0
BITMAP
3E
0E
0C
0C
1C
1C
1C
18
38
38
38
30
30
70
70
60
60
E0
F8
ENDCHAR
STARTCHAR m
ENCODING 109
SWIDTH 944 0
DWIDTH 25 0
BBX 22 14 3 0
BITMAP
F87078
38F8FC
39999C
3B1B1C
363E18
3C3C18
383818
703838
703038
607030
607030
607030
E06070
E0E07C
ENDCHAR
STARTCHAR n
ENCODING 110
SWIDTH 631 0
DWIDTH 16 0
BBX 14 14 3 0
BITMAP
F878
38FC
399C
3A1C
3418
3C18
3838
7038
7038
6030
6030
6070
E070
E07C
ENDCHAR
STARTCHAR o
ENCODING 111
SWIDTH 560 0
DWIDTH 15 0
BBX 13 14 2 0
BITMAP
03E0
0C70
1830
3038
7038
6038
E038
E030
E070
E070
E060
E0C0
7180
3E00
ENDCHAR
STARTCHAR p
ENCODING 112
SWIDTH 608 0
DWIDTH 16 0
BBX 15 19 2 -5
BITMAP
7C3C
1C7E
1CCE
1D0E
1A0E
1E0E
3C0C
380C
3818
3018
3010
7020
7040
7F80
6000
6000
E000
E000
E000
ENDCHAR
STARTCHAR q
ENCODING 113
SWIDTH 599 0
DWIDTH 16 0
BBX 14 19 2 -5
BITMAP
03FC
041C
081C
1818
3018
3038
6038
6078
E070
E0B0
E170
E270
FC70
7860
0060
00E0
00E0
00E0
00C0
ENDCHAR
STARTCHAR r
ENCODING 114
SWIDTH 470 0
DWIDTH 12 0
BBX 12 14 3 0
BITMAP
F870
38E0
39E0
3B00
3600
3C00
3800
7000
7000
7000
6000
6000
E000
E000
ENDCHAR
STARTCHAR s
ENCODING 115
SWIDTH 440 0
DWIDTH 11 0
BBX 11 14 1 0
BITMAP
07C0
1C60
1860
1840
1800
1C00
0E00
0700
0380
0180
4180
C180
E380
7E00
ENDCHAR
STARTCHAR t
ENCODING 116
SWIDTH 355 0
DWIDTH 9 0
BBX 8 18 3 0
BITMAP
08
18
38
38
FF
30
30
30
70
70
60
60
60
E0
E0
E0
60
78
ENDCHAR
STARTCHAR u
ENCODING 117
SWIDTH 630 0
DWIDTH 16 0
BBX 14 14 3 0
BITMAP
F87C
381C
3818
3018
3018
7038
7038
7070
60B0
60B0
E170
E670
FC70
787C
ENDCHAR
STARTCHAR v
ENCODING 118
SWIDTH 558 0
DWIDTH 14 0
BBX 15 14 1 0
BITMAP
F81E
380E
1C0E
1C0C
0C0C
0C18
0E10
0E20
0E40
06C0
0780
0700
0600
0400
ENDCHAR
STARTCHAR w
ENCODING 119
SWIDTH 805 0
DWIDTH 21 0
BBX 20 14 2 0
BITMAP
F01070
383030
383830
183830
1C7860
1C5860
0C9CC0
0C9C80
0D1D80
0F0F00
0E0E00
0E0C00
0C0C00
080800
ENDCHAR
STARTCHAR x
ENCODING 120
SWIDTH 510 0
DWIDTH 13 0
BBX 13 14 1 0
BITMAP
7838
1C18
1C30
0E20
0E40
0780
0700
0780
0B80
31C0
61C0
60E0
C0E0
E078
ENDCHAR
STARTCHAR y
ENCODING 121
SWIDTH 558 0
DWIDTH 14 0
BBX 16 19 0 -5
BITMAP
7C07
1E03
0E03
0602
0706
0704
0708
0310
0330
0320
0340
0380
0300
0200
0600
0C00
1800
3000
F000
ENDCHAR
STARTCHAR z
ENCODING 122
SWIDTH 536 0
DWIDTH 14 0
BBX 14 14 1 0
BITMAP
1FFC
1838
1070
0060
00E0
01C0
0380
0700
0E00
1C00
3800
3010
6030
FFF0
ENDCHAR
STARTCHAR braceleft
ENCODING 123
SWIDTH 337 0
DWIDTH 9 0
BBX 9 23 2 -4
BITMAP
0380
0600
0C00
0C00
0C00
0C00
0C00
0C00
0800
1800
1000
E000
2000
3000
3000
3000
7000
6000
E000
C000
C000
6000
3000
ENDCHAR
STARTCHAR bar
ENCODING 124
SWIDTH 241 0
DWIDTH 6 0
BBX 6 23 2 -4
BITMAP
0C
0C
0C
08
18
18
18
18
10
30
30
30
30
20
20
60
60
60
60
40
C0
C0
C0
ENDCHAR
STARTCHAR braceright
ENCODING 125
SWIDTH 337 0
DWIDTH 9 0
BBX 9 23 2 -4
BITMAP
0600
0300
0180
0180
0380
0300
0700
0600
0600
0600
0600
0380
0400
0C00
0800
1800
1800
1800
1800
1800
1800
3000
E000
ENDCHAR
STARTCHAR asciitilde
ENCODING 126
SWIDTH 608 0
DWIDTH 16 0
BBX 16 6 1 5
BITMAP
1C00
3F01
4782
41C2
80FC
8038
ENDCHAR
STARTCHAR space
ENCODING 160
SWIDTH 333 0
DWIDTH 8 0
BBX 1 1 0 0
BITMAP
00
ENDCHAR
STARTCHAR exclamdown
ENCODING 161
SWIDTH 265 0
DWIDTH 7 0
BBX 6 19 1 -5
BITMAP
1C
1C
1C
00
00
10
10
10
10
30
30
30
60
60
60
60
E0
E0
E0
ENDCHAR
STARTCHAR cent
ENCODING 162
SWIDTH 608 0
DWIDTH 16 0
BBX 13 19 4 0
BITMAP
0040
0040
01F8
0698
1898
3110
7100
6100
E100
E100
E100
E200
E200
E200
7220
3FC0
0400
0400
0400
ENDCHAR
STARTCHAR sterling
ENCODING 163
SWIDTH 608 0
DWIDTH 16 0
BBX 14 19 3 0
BITMAP
0078
018C
010C
030C
0700
0600
0600
0600
0E00
3FC0
0E00
0C00
0C00
1C00
1800
1000
2000
FFE0
FFC0
ENDCHAR
STARTCHAR currency
ENCODING 164
SWIDTH 608 0
DWIDTH 16 0
BBX 18 17 1 1
BITMAP
100080
1001C0
08E300
071E00
040C00
0C0400
080400
180400
100400
100400
100C00
180800
081000
1C3800
33CC00
400400
800200
ENDCHAR
STARTCHAR yen
ENCODING 165
SWIDTH 608 0
DWIDTH 16 0
BBX 17 19 3 0
BITMAP
FC0F80
780200
380400
180800
1C1000
0C2000
0E4000
068000
070000
7FE000
070000
060000
060000
7FE000
0E0000
0E0000
0E0000
1C0000
7F0000
ENDCHAR
STARTCHAR brokenbar
ENCODING 166
SWIDTH 241 0
DWIDTH 6 0
BBX 6 23 2 -4
BITMAP
0C
0C
0C
08
18
18
18
18
10
30
30
00
30
30
20
60
60
60
60
40
C0
C0
C0
ENDCHAR
STARTCHAR section
ENCODING 167
SWIDTH 608 0
DWIDTH 16 0
BBX 14 24 2 -5
BITMAP
01FC
060C
0C04
0C04
0C00
0C00
0E00
0780
0FE0
18F0
1038
3018
3818
3C18
1F30
07E0
03E0
0070
0030
0030
C070
C060
E0C0
7F00
ENDCHAR
STARTCHAR dieresis
ENCODING 168
SWIDTH 560 0
DWIDTH 15 0
BBX 8 2 7 17
BITMAP
E3
C7
ENDCHAR
STARTCHAR copyright
ENCODING 169
SWIDTH 843 0
DWIDTH 22 0
BBX 19 19 3 0
BITMAP
03F800
0E0600
180180
300080
607C40
418620
830420
860020
860020
860020
860020
860020
860020
430820
61F040
300080
180180
0E0600
03F800
ENDCHAR
STARTCHAR ordfeminine
ENCODING 170
SWIDTH 458 0
DWIDTH 10 0
BBX 10 11 3 8
BITMAP
0FC0
11C0
31C0
6180
6180
C380
C780
C580
CB80
F300
63C0
ENDCHAR
STARTCHAR guillemotleft
ENCODING 171
SWIDTH 525 0
DWIDTH 14 0
BBX 12 12 2 1
BITMAP
0210
0420
0840
18C0
3180
6300
E700
6300
3180
3180
1080
0840
ENDCHAR
STARTCHAR logicalnot
ENCODING 172
SWIDTH 608 0
DWIDTH 16 0
BBX 15 7 2 4
BITMAP
FFFE
0006
0006
0004
0004
000C
000C
ENDCHAR
STARTCHAR hyphen
ENCODING 173
SWIDTH 313 0
DWIDTH 8 0
BBX 6 2 3 8
BITMAP
FC
FC
ENDCHAR
STARTCHAR registered
ENCODING 174
SWIDTH 608 0
DWIDTH 16 0
BBX 12 12 4 7
BITMAP
1F00
20C0
4FE0
88A0
8890
8F10
8A10
8B10
59A0
4060
30C0
0F00
ENDCHAR
STARTCHAR macron
ENCODING 175
SWIDTH 560 0
DWIDTH 15 0
BBX 8 1 7 18
BITMAP
FF
ENDCHAR
STARTCHAR degree
ENCODING 176
SWIDTH 277 0
DWIDTH 7 0
BBX 4 5 5 14
BITMAP
70
90
90
90
70
ENDCHAR
STARTCHAR plusminus
ENCODING 177
SWIDTH 608 0
DWIDTH 16 0
BBX 17 16 0 0
BITMAP
002000
002000
006000
006000
004000
004000
3FFF80
00C000
00C000
00C000
008000
008000
000000
000000
000000
FFFE00
ENDCHAR
STARTCHAR twosuperior
ENCODING 178
SWIDTH 365 0
DWIDTH 9 0
BBX 9 11 -14 8
BITMAP
1F00
3180
2180
0180
0100
0600
0800
1000
2000
4000
FE00
ENDCHAR
STARTCHAR threesuperior
ENCODING 179
SWIDTH 365 0
DWIDTH 9 0
BBX 8 11 -14 8
BITMAP
3E
23
23
03
06
3C
04
02
86
86
F8
ENDCHAR
STARTCHAR acute
ENCODING 180
SWIDTH 560 0
DWIDTH 15 0
BBX 6 4 9 15
BITMAP
1C
30
60
C0
ENDCHAR
STARTCHAR mu
ENCODING 181
SWIDTH 663 0
DWIDTH 17 0
BBX 15 18 2 -4
BITMAP
7C3E
1C0E
1C0C
180C
180C
381C
381C
3838
3038
3058
70F8
79B8
7F38
6E3E
6000
E000
E000
E000
ENDCHAR
STARTCHAR paragraph
ENCODING 182
SWIDTH 608 0
DWIDTH 16 0
BBX 11 23 4 -4
BITMAP
3FE0
7E20
FE20
FE40
FE40
FC40
FC40
7C40
3C80
0C80
0880
0880
0880
0900
0900
0900
1100
1100
1200
1200
1200
2200
2200
ENDCHAR
STARTCHAR periodcentered
ENCODING 183
SWIDTH 608 0
DWIDTH 16 0
BBX 3 3 8 7
BITMAP
E0
E0
E0
ENDCHAR
STARTCHAR cedilla
ENCODING 184
SWIDTH 560 0
DWIDTH 15 0
BBX 4 6 4 -5
BITMAP
20
40
30
30
30
E0
ENDCHAR
STARTCHAR onesuperior
ENCODING 185
SWIDTH 365 0
DWIDTH 9 0
BBX 6 11 -14 8
BITMAP
3C
0C
08
08
08
18
18
10
10
30
FC
ENDCHAR
STARTCHAR ordmasculine
ENCODING 186
SWIDTH 458 0
DWIDTH 10 0
BBX 10 11 3 8
BITMAP
0F80
11C0
30C0
60C0
60C0
C0C0
C080
C180
C100
E200
7C00
ENDCHAR
STARTCHAR guillemotright
ENCODING 187
SWIDTH 525 0
DWIDTH 14 0
BBX 12 12 2 1
BITMAP
2100
1080
18C0
18C0
0C60
0E70
0C60
18C0
3180
2100
4200
8400
ENDCHAR
STARTCHAR onequarter
ENCODING 188
SWIDTH 766 0
DWIDTH 21 0
BBX 20 19 4 0
BITMAP
3C0030
0C0060
0800C0
080180
080300
180600
180C00
101800
103020
3020E0
FC6140
00C240
018440
0308C0
0608C0
0C1FE0
180080
300180
6003C0
ENDCHAR
STARTCHAR onehalf
ENCODING 189
SWIDTH 766 0
DWIDTH 21 0
BBX 20 19 4 0
BITMAP
3C0030
0C0060
0800C0
080180
080300
180600
180C00
101800
1033E0
302630
FC6430
00C030
018020
0300C0
060100
0C0200
180400
300800
601FC0
ENDCHAR
STARTCHAR threequarters
ENCODING 190
SWIDTH 766 0
DWIDTH 21 0
BBX 20 19 4 0
BITMAP
3E0030
230060
2300C0
030180
060300
3C0600
040C00
021800
863020
8620E0
F86140
00C240
018440
0308C0
0608C0
0C1FE0
180080
300180
6003C0
ENDCHAR
STARTCHAR questiondown
ENCODING 191
SWIDTH 471 0
DWIDTH 12 0
BBX 10 19 1 -5
BITMAP
00C0
01C0
01C0
0000
0000
0180
0180
0300
0200
0400
0800
1000
7000
6000
E000
E040
E0C0
7080
3F00
ENDCHAR
STARTCHAR Agrave
ENCODING 192
SWIDTH 747 0
DWIDTH 19 0
BBX 19 24 0 0
BITMAP
001C00
000E00
000600
000300
000000
000400
000C00
001C00
001C00
002E00
006E00
004E00
008600
008600
010700
030700
020700
07FF00
0C0300
080380
100380
100380
200380
F80FE0
ENDCHAR
STARTCHAR Aacute
ENCODING 193
SWIDTH 747 0
DWIDTH 19 0
BBX 19 24 0 0
BITMAP
0001C0
000300
000600
000C00
000000
000400
000C00
001C00
001C00
002E00
006E00
004E00
008600
008600
010700
030700
020700
07FF00
0C0300
080380
100380
100380
200380
F80FE0
ENDCHAR
STARTCHAR Acircumflex
ENCODING 194
SWIDTH 747 0
DWIDTH 19 0
BBX 19 24 0 0
BITMAP
000700
000F80
001880
003040
000000
000400
000C00
001C00
001C00
002E00
006E00
004E00
008600
008600
010700
030700
020700
07FF00
0C0300
080380
100380
100380
200380
F80FE0
ENDCHAR
STARTCHAR Atilde
ENCODING 195
SWIDTH 747 0
DWIDTH 19 0
BBX 19 23 0 0
BITMAP
001C40
001F80
002380
000000
000400
000C00
001C00
001C00
002E00
006E00
004E00
008600
008600
010700
030700
020700
07FF00
0C0300
080380
100380
100380
200380
F80FE0
ENDCHAR
STARTCHAR Adieresis
ENCODING 196
SWIDTH 747 0
DWIDTH 19 0
BBX 19 22 0 0
BITMAP
0038C0
0031C0
000000
000400
000C00
001C00
001C00
002E00
006E00
004E00
008600
008600
010700
030700
020700
07FF00
0C0300
080380
100380
100380
200380
F80FE0
ENDCHAR
STARTCHAR Aring
ENCODING 197
SWIDTH 747 0
DWIDTH 19 0
BBX 19 24 0 0
BITMAP
000600
000900
000900
000600
000000
000400
000C00
001C00
001C00
002E00
006E00
004E00
008600
008600
010700
030700
020700
07FF00
0C0300
080380
100380
100380
200380
F80FE0
ENDCHAR
STARTCHAR AE
ENCODING 198
SWIDTH 907 0
DWIDTH 24 0
BBX 26 19 0 0
BITMAP
0001FFC0
0003C0C0
0007C080
00058000
00098000
00138000
00238000
00238200
00438200
0083FE00
01070600
03070000
03FF0000
04070000
08060000
180E0000
100E0300
601E0600
F87FFE00
ENDCHAR
STARTCHAR Ccedilla
ENCODING 199
SWIDTH 714 0
DWIDTH 19 0
BBX 17 24 3 -5
BITMAP
00FF00
038380
060180
0C0180
180100
380000
700000
700000
600000
E00000
E00000
E00000
E00000
E00000
E00000
700000
700000
3C1C00
0FF000
080000
060000
060000
060000
1C0000
ENDCHAR
STARTCHAR Egrave
ENCODING 200
SWIDTH 569 0
DWIDTH 15 0
BBX 17 24 0 0
BITMAP
00E000
007000
003000
001800
000000
0FFF80
038180
038100
030000
030000
070000
070000
070400
060C00
0FFC00
0E0800
0E0800
0C0000
0C0000
1C0000
1C0000
1C0600
3C0C00
FFFC00
ENDCHAR
STARTCHAR Eacute
ENCODING 201
SWIDTH 569 0
DWIDTH 15 0
BBX 17 24 0 0
BITMAP
000E00
001800
003000
006000
000000
0FFF80
038180
038100
030000
030000
070000
070000
070400
060C00
0FFC00
0E0800
0E0800
0C0000
0C0000
1C0000
1C0000
1C0600
3C0C00
FFFC00
ENDCHAR
STARTCHAR Ecircumflex
ENCODING 202
SWIDTH 569 0
DWIDTH 15 0
BBX 17 24 0 0
BITMAP
003800
007C00
00C400
018200
000000
0FFF80
038180
038100
030000
030000
070000
070000
070400
060C00
0FFC00
0E0800
0E0800
0C0000
0C0000
1C0000
1C0000
1C0600
3C0C00
FFFC00
ENDCHAR
STARTCHAR Edieresis
ENCODING 203
SWIDTH 569 0
DWIDTH 15 0
BBX 17 22 0 0
BITMAP
01C600
018E00
000000
0FFF80
038180
038100
030000
030000
070000
070000
070400
060C00
0FFC00
0E0800
0E0800
0C0000
0C0000
1C0000
1C0000
1C0600
3C0C00
FFFC00
ENDCHAR
STARTCHAR Igrave
ENCODING 204
SWIDTH 325 0
DWIDTH 9 0
BBX 11 24 1 0
BITMAP
0700
0380
0180
00C0
0000
0FE0
0380
0700
0700
0700
0700
0600
0600
0E00
0E00
0E00
0C00
0C00
1C00
1C00
1C00
1C00
3800
FE00
ENDCHAR
STARTCHAR Iacute
ENCODING 205
SWIDTH 325 0
DWIDTH 9 0
BBX 12 24 1 0
BITMAP
0070
00C0
0180
0300
0000
0FE0
0380
0700
0700
0700
0700
0600
0600
0E00
0E00
0E00
0C00
0C00
1C00
1C00
1C00
1C00
3800
FE00
ENDCHAR
STARTCHAR Icircumflex
ENCODING 206
SWIDTH 325 0
DWIDTH 9 0
BBX 12 24 1 0
BITMAP
01C0
03E0
0620
0C10
0000
0FE0
0380
0700
0700
0700
0700
0600
0600
0E00
0E00
0E00
0C00
0C00
1C00
1C00
1C00
1C00
3800
FE00
ENDCHAR
STARTCHAR Idieresis
ENCODING 207
SWIDTH 325 0
DWIDTH 9 0
BBX 12 22 1 0
BITMAP
0E30
0C70
0000
0FE0
0380
0700
0700
0700
0700
0600
0600
0E00
0E00
0E00
0C00
0C00
1C00
1C00
1C00
1C00
3800
FE00
ENDCHAR
STARTCHAR Eth
ENCODING 208
SWIDTH 770 0
DWIDTH 20 0
BBX 20 19 1 0
BITMAP
0FFF00
0303C0
0300E0
0700E0
070070
070070
060070
060070
0E0070
7FE070
0E0060
0E00E0
0C00E0
1C01C0
1C01C0
1C0380
180700
3C1C00
FFF000
ENDCHAR
STARTCHAR Ntilde
ENCODING 209
SWIDTH 762 0
DWIDTH 20 0
BBX 22 23 1 0
BITMAP
001C40
001F80
002380
000000
0F00FC
030010
038030
07C030
05C020
04E020
04E020
047020
0C7040
083840
081840
081C40
080E40
180E80
100780
100780
100380
300180
FC0100
ENDCHAR
STARTCHAR Ograve
ENCODING 210
SWIDTH 783 0
DWIDTH 20 0
BBX 18 24 3 0
BITMAP
007000
003800
001800
000C00
000000
00FC00
038700
060380
0C01C0
1801C0
3801C0
7000C0
7000C0
6000C0
E001C0
E001C0
E00180
E00380
E00300
E00700
600E00
701C00
383000
0FC000
ENDCHAR
STARTCHAR Oacute
ENCODING 211
SWIDTH 783 0
DWIDTH 20 0
BBX 18 24 3 0
BITMAP
000700
000C00
001800
003000
000000
00FC00
038700
060380
0C01C0
1801C0
3801C0
7000C0
7000C0
6000C0
E001C0
E001C0
E00180
E00380
E00300
E00700
600E00
701C00
383000
0FC000
ENDCHAR
STARTCHAR Ocircumflex
ENCODING 212
SWIDTH 783 0
DWIDTH 20 0
BBX 18 24 3 0
BITMAP
003800
007C00
00C400
018200
000000
00FC00
038700
060380
0C01C0
1801C0
3801C0
7000C0
7000C0
6000C0
E001C0
E001C0
E00180
E00380
E00300
E00700
600E00
701C00
383000
0FC000
ENDCHAR
STARTCHAR Otilde
ENCODING 213
SWIDTH 783 0
DWIDTH 20 0
BBX 18 23 3 0
BITMAP
007100
007E00
008E00
000000
00FC00
038700
060380
0C01C0
1801C0
3801C0
7000C0
7000C0
6000C0
E001C0
E001C0
E00180
E00380
E00300
E00700
600E00
701C00
383000
0FC000
ENDCHAR
STARTCHAR Odieresis
ENCODING 214
SWIDTH 783 0
DWIDTH 20 0
BBX 18 22 3 0
BITMAP
00E300
00C700
000000
00FC00
038700
060380
0C01C0
1801C0
3801C0
7000C0
7000C0
6000C0
E001C0
E001C0
E00180
E00380
E00300
E00700
600E00
701C00
383000
0FC000
ENDCHAR
STARTCHAR multiply
ENCODING 215
SWIDTH 608 0
DWIDTH 16 0
BBX 18 16 0 0
BITMAP
100040
1800C0
080300
040600
020C00
031800
013000
00E000
01C000
036000
063000
0C1000
180800
300400
600600
800200
ENDCHAR
STARTCHAR Oslash
ENCODING 216
SWIDTH 783 0
DWIDTH 20 0
BBX 22 19 1 0
BITMAP
003F0C
00C1D0
0380E0
070060
0E00F0
1C0370
1C0670
380C70
381870
383070
304060
3080E0
3100E0
3200C0
3C0180
380300
1C0600
2E1C00
C3F000
ENDCHAR
STARTCHAR Ugrave
ENCODING 217
SWIDTH 727 0
DWIDTH 19 0
BBX 18 24 4 0
BITMAP
01C000
00E000
006000
003000
000000
FF0FC0
3C0300
380200
380200
300200
300600
700400
700400
700400
600400
E00C00
E00800
E00800
E00800
E01800
E01000
603000
706000
1F8000
ENDCHAR
STARTCHAR Uacute
ENCODING 218
SWIDTH 727 0
DWIDTH 19 0
BBX 18 24 4 0
BITMAP
001C00
003000
006000
00C000
000000
FF0FC0
3C0300
380200
380200
300200
300600
700400
700400
700400
600400
E00C00
E00800
E00800
E00800
E01800
E01000
603000
706000
1F8000
ENDCHAR
STARTCHAR Ucircumflex
ENCODING 219
SWIDTH 727 0
DWIDTH 19 0
BBX 18 24 4 0
BITMAP
007000
00F800
018800
030400
000000
FF0FC0
3C0300
380200
380200
300200
300600
700400
700400
700400
600400
E00C00
E00800
E00800
E00800
E01800
E01000
603000
706000
1F8000
ENDCHAR
STARTCHAR Udieresis
ENCODING 220
SWIDTH 727 0
DWIDTH 19 0
BBX 18 22 4 0
BITMAP
038C00
031C00
000000
FF0FC0
3C0300
380200
380200
300200
300600
700400
700400
700400
600400
E00C00
E00800
E00800
E00800
E01800
E01000
603000
706000
1F8000
ENDCHAR
STARTCHAR Yacute
ENCODING 221
SWIDTH 663 0
DWIDTH 17 0
BBX 17 24 4 0
BITMAP
003800
006000
00C000
018000
000000
FE0F80
780200
380400
380800
1C1800
1C1000
0C2000
0E4000
0E8000
078000
070000
070000
060000
060000
0E0000
0E0000
0E0000
1E0000
7F8000
ENDCHAR
STARTCHAR Thorn
ENCODING 222
SWIDTH 579 0
DWIDTH 15 0
BBX 16 19 1 0
BITMAP
0FE0
0380
0300
0700
07FC
070E
0707
0607
0E07
0E07
0E06
0E0E
0C1C
1C38
1FE0
1C00
1C00
3C00
FF00
ENDCHAR
STARTCHAR germandbls
ENCODING 223
SWIDTH 603 0
DWIDTH 16 0
BBX 14 25 2 -5
BITMAP
01F0
0338
0618
0618
0E18
0C30
0C60
0C80
1D80
1D80
19C0
18E0
1870
3838
381C
300C
330C
3208
7318
73E0
6000
6000
6000
E000
E000
ENDCHAR
STARTCHAR agrave
ENCODING 224
SWIDTH 608 0
DWIDTH 16 0
BBX 14 19 2 0
BITMAP
01C0
00E0
0060
0030
0000
03FC
041C
081C
1018
3018
3038
6038
6078
E070
E0B0
E170
E270
FC70
787C
ENDCHAR
STARTCHAR aacute
ENCODING 225
SWIDTH 608 0
DWIDTH 16 0
BBX 14 19 2 0
BITMAP
001C
0030
0060
00C0
0000
03FC
041C
081C
1018
3018
3038
6038
6078
E070
E0B0
E170
E270
FC70
787C
ENDCHAR
STARTCHAR acircumflex
ENCODING 226
SWIDTH 608 0
DWIDTH 16 0
BBX 14 19 2 0
BITMAP
0070
00F8
0188
0304
0000
03FC
041C
081C
1018
3018
3038
6038
6078
E070
E0B0
E170
E270
FC70
787C
ENDCHAR
STARTCHAR atilde
ENCODING 227
SWIDTH 608 0
DWIDTH 16 0
BBX 14 18 2 0
BITMAP
01C4
01F8
0238
0000
03FC
041C
081C
1018
3018
3038
6038
6078
E070
E0B0
E170
E270
FC70
787C
ENDCHAR
STARTCHAR adieresis
ENCODING 228
SWIDTH 608 0
DWIDTH 16 0
BBX 14 17 2 0
BITMAP
038C
031C
0000
03FC
041C
081C
1018
3018
3038
6038
6078
E070
E0B0
E170
E270
FC70
787C
ENDCHAR
STARTCHAR aring
ENCODING 229
SWIDTH 608 0
DWIDTH 16 0
BBX 14 19 2 0
BITMAP
0060
0090
0090
0060
0000
03FC
041C
081C
1018
3018
3038
6038
6078
E070
E0B0
E170
E270
FC70
787C
ENDCHAR
STARTCHAR ae
ENCODING 230
SWIDTH 881 0
DWIDTH 23 0
BBX 20 14 2 0
BITMAP
03FDE0
043E30
081C30
101830
303830
703870
6030E0
607780
E0F800
E0B000
E13000
E63810
FC3860
701F80
ENDCHAR
STARTCHAR ccedilla
ENCODING 231
SWIDTH 487 0
DWIDTH 13 0
BBX 12 19 2 -5
BITMAP
03F0
0C70
1020
3020
6000
6000
E000
E000
E000
E000
E000
E000
70C0
3F00
2000
1800
1800
1800
7000
ENDCHAR
STARTCHAR egrave
ENCODING 232
SWIDTH 518 0
DWIDTH 13 0
BBX 11 19 2 0
BITMAP
0380
01C0
00C0
0060
0000
03C0
0CE0
1860
3060
6060
60C0
E180
EF00
F000
E000
E000
E020
70C0
3F00
ENDCHAR
STARTCHAR eacute
ENCODING 233
SWIDTH 518 0
DWIDTH 13 0
BBX 13 19 2 0
BITMAP
0038
0060
00C0
0180
0000
03C0
0CE0
1860
3060
6060
60C0
E180
EF00
F000
E000
E000
E020
70C0
3F00
ENDCHAR
STARTCHAR ecircumflex
ENCODING 234
SWIDTH 518 0
DWIDTH 13 0
BBX 12 19 2 0
BITMAP
01C0
03E0
0620
0C10
0000
03C0
0CE0
1860
3060
6060
60C0
E180
EF00
F000
E000
E000
E020
70C0
3F00
ENDCHAR
STARTCHAR edieresis
ENCODING 235
SWIDTH 518 0
DWIDTH 13 0
BBX 13 17 2 0
BITMAP
0718
0638
0000
03C0
0CE0
1860
3060
6060
60C0
E180
EF00
F000
E000
E000
E020
70C0
3F00
ENDCHAR
STARTCHAR igrave
ENCODING 236
SWIDTH 289 0
DWIDTH 8 0
BBX 7 19 3 0
BITMAP
38
1C
0C
06
00
F8
38
38
30
30
30
70
70
60
60
60
E0
E0
F8
ENDCHAR
STARTCHAR iacute
ENCODING 237
SWIDTH 289 0
DWIDTH 8 0
BBX 9 19 3 0
BITMAP
0380
0600
0C00
1800
0000
F800
3800
3800
3000
3000
3000
7000
7000
6000
6000
6000
E000
E000
F800
ENDCHAR
STARTCHAR icircumflex
ENCODING 238
SWIDTH 289 0
DWIDTH 8 0
BBX 9 19 3 0
BITMAP
0E00
1F00
3100
6080
0000
F800
3800
3800
3000
3000
3000
7000
7000
6000
6000
6000
E000
E000
F800
ENDCHAR
STARTCHAR idieresis
ENCODING 239
SWIDTH 289 0
DWIDTH 8 0
BBX 9 17 3 0
BITMAP
7180
6380
0000
F800
3800
3800
3000
3000
3000
7000
7000
6000
6000
6000
E000
E000
F800
ENDCHAR
STARTCHAR eth
ENCODING 240
SWIDTH 562 0
DWIDTH 15 0
BBX 13 20 2 0
BITMAP
0010
1FE0
03C0
01E0
0E60
0870
03F0
0C70
1838
3038
6038
6038
E030
E030
E030
E060
E060
E0C0
7180
3E00
ENDCHAR
STARTCHAR ntilde
ENCODING 241
SWIDTH 631 0
DWIDTH 16 0
BBX 14 18 3 0
BITMAP
01C4
01F8
0238
0000
F878
38FC
399C
3A1C
3418
3C18
3838
7038
7038
6030
6030
6070
E070
E07C
ENDCHAR
STARTCHAR ograve
ENCODING 242
SWIDTH 560 0
DWIDTH 15 0
BBX 13 19 2 0
BITMAP
0380
01C0
00C0
0060
0000
03E0
0C70
1830
3038
7038
6038
E038
E030
E070
E070
E060
E0C0
7180
3E00
ENDCHAR
STARTCHAR oacute
ENCODING 243
SWIDTH 560 0
DWIDTH 15 0
BBX 13 19 2 0
BITMAP
0038
0060
00C0
0180
0000
03E0
0C70
1830
3038
7038
6038
E038
E030
E070
E070
E060
E0C0
7180
3E00
ENDCHAR
STARTCHAR ocircumflex
ENCODING 244
SWIDTH 560 0
DWIDTH 15 0
BBX 13 19 2 0
BITMAP
00E0
01F0
0310
0608
0000
03E0
0C70
1830
3038
7038
6038
E038
E030
E070
E070
E060
E0C0
7180
3E00
ENDCHAR
STARTCHAR otilde
ENCODING 245
SWIDTH 560 0
DWIDTH 15 0
BBX 13 18 2 0
BITMAP
0388
03F0
0470
0000
03E0
0C70
1830
3038
7038
6038
E038
E030
E070
E070
E060
E0C0
7180
3E00
ENDCHAR
STARTCHAR odieresis
ENCODING 246
SWIDTH 560 0
DWIDTH 15 0
BBX 13 17 2 0
BITMAP
0718
0638
0000
03E0
0C70
1830
3038
7038
6038
E038
E030
E070
E070
E060
E0C0
7180
3E00
ENDCHAR
STARTCHAR divide
ENCODING 247
SWIDTH 608 0
DWIDTH 16 0
BBX 15 13 2 1
BITMAP
01C0
01C0
0000
0000
0000
0000
FFFE
0000
0000
0000
0000
0700
0700
ENDCHAR
STARTCHAR oslash
ENCODING 248
SWIDTH 560 0
DWIDTH 15 0
BBX 15 14 1 0
BITMAP
01F6
063C
0C1C
183C
187C
30DC
319C
731C
7618
7C38
7830
3060
38C0
DF00
ENDCHAR
STARTCHAR ugrave
ENCODING 249
SWIDTH 630 0
DWIDTH 16 0
BBX 14 19 3 0
BITMAP
01C0
00E0
0060
0030
0000
F87C
381C
3818
3018
3018
7038
7038
7070
60B0
60B0
E170
E670
FC70
787C
ENDCHAR
STARTCHAR uacute
ENCODING 250
SWIDTH 630 0
DWIDTH 16 0
BBX 14 19 3 0
BITMAP
001C
0030
0060
00C0
0000
F87C
381C
3818
3018
3018
7038
7038
7070
60B0
60B0
E170
E670
FC70
787C
ENDCHAR
STARTCHAR ucircumflex
ENCODING 251
SWIDTH 630 0
DWIDTH 16 0
BBX 14 19 3 0
BITMAP
00E0
01F0
0310
0608
0000
F87C
381C
3818
3018
3018
7038
7038
7070
60B0
60B0
E170
E670
FC70
787C
ENDCHAR
STARTCHAR udieresis
ENCODING 252
SWIDTH 630 0
DWIDTH 16 0
BBX 14 17 3 0
BITMAP
038C
031C
0000
F87C
381C
3818
3018
3018
7038
7038
7070
60B0
60B0
E170
E670
FC70
787C
ENDCHAR
STARTCHAR yacute
ENCODING 253
SWIDTH 558 0
DWIDTH 14 0
BBX 16 24 0 -5
BITMAP
0007
000C
0018
0030
0000
7C07
1E03
0E03
0602
0706
0704
0708
0310
0330
0320
0340
0380
0300
0200
0600
0C00
1800
3000
F000
ENDCHAR
STARTCHAR thorn
ENCODING 254
SWIDTH 608 0
DWIDTH 16 0
BBX 15 23 2 -5
BITMAP
3E00
0E00
0E00
0C00
0C3C
1C7E
1CCE
1D0E
1A0E
1E0E
3C0C
380C
3818
3018
3010
7020
7040
7F80
6000
6000
E000
E000
E000
ENDCHAR
STARTCHAR ydieresis
ENCODING 255
SWIDTH 558 0
DWIDTH 14 0
BBX 16 22 0 -5
BITMAP
00E3
00C7
0000
7C07
1E03
0E03
0602
0706
0704
0708
0310
0330
0320
0340
0380
0300
0200
0600
0C00
1800
3000
F000
ENDCHAR
ENDFONT
