STARTFONT 2.1
COMMENT AUTOMATICALLY GENERATED FILE. DO NOT EDIT!
COMMENT Generated with 'ucs2any.pl luBIS18.bdf ../../../fonts/util/map-ISO8859-1 ISO8859-1'
COMMENT from an ISO10646-1 encoded source BDF font.
COMMENT ucs2any.pl by Markus Kuhn <mkuhn@acm.org>, 2000.
COMMENT $Xorg: $
COMMENT ISO10646-1 extension by Markus Kuhn <mkuhn@acm.org>, 2001-03-20
COMMENT  (c) Copyright Bigelow & Holmes 1986, 1985. Lucida is a registered
COMMENT  trademark of Bigelow & Holmes. See LEGAL NOTICE file for terms 
COMMENT  of the license. 
FONT -B&H-Lucida-Bold-I-Normal-Sans-25-180-100-100-P-159-ISO8859-1
SIZE 18 100 100
FONTBOUNDINGBOX 50 28 -17 -5
STARTPROPERTIES 22
COMMENT Begin LogicalFontDescription
FONTNAME_REGISTRY ""
FOUNDRY "B&H"
FAMILY_NAME "Lucida"
WEIGHT_NAME "Bold"
SLANT "I"
SETWIDTH_NAME "Normal"
ADD_STYLE_NAME "Sans"
PIXEL_SIZE 25
POINT_SIZE 180
RESOLUTION_X 100
RESOLUTION_Y 100
SPACING "P"
AVERAGE_WIDTH 159
CHARSET_REGISTRY "ISO8859"
CHARSET_ENCODING "1"
COMMENT END LogicalFontDescription
FONT_ASCENT 23
FONT_DESCENT 6
DEFAULT_CHAR 0
COPYRIGHT "Copyright Bigelow & Holmes 1986, 1985."
FACE_NAME "Lucida Sans Bold Italic"
X_HEIGHT 13
CAP_HEIGHT 18
ENDPROPERTIES
CHARS 192
STARTCHAR defaultchar
ENCODING 0
SWIDTH 813 0
DWIDTH 20 0
BBX 19 17 2 0
BITMAP
AAAAA0
000000
800020
000000
800020
000000
800020
000000
800020
000000
800020
000000
800020
000000
800020
000000
AAAAA0
ENDCHAR
STARTCHAR space
ENCODING 32
SWIDTH 343 0
DWIDTH 9 0
BBX 1 1 0 0
BITMAP
00
ENDCHAR
STARTCHAR exclam
ENCODING 33
SWIDTH 343 0
DWIDTH 9 0
BBX 8 18 2 0
BITMAP
1F
1F
1F
1E
1E
1E
3C
3C
3C
3C
38
38
38
00
00
78
F8
F8
ENDCHAR
STARTCHAR quotedbl
ENCODING 34
SWIDTH 530 0
DWIDTH 13 0
BBX 11 8 4 11
BITMAP
FBE0
FBE0
F1E0
F1E0
71C0
71C0
71C0
71C0
ENDCHAR
STARTCHAR numbersign
ENCODING 35
SWIDTH 687 0
DWIDTH 17 0
BBX 16 18 2 0
BITMAP
0067
00C6
00CE
018C
018C
3FFF
7FFF
0630
0630
0C60
0C60
FFFE
FFFC
3180
3180
7300
6300
E600
ENDCHAR
STARTCHAR dollar
ENCODING 36
SWIDTH 687 0
DWIDTH 17 0
BBX 15 24 3 -3
BITMAP
0070
0060
00E0
03FC
07FE
0FFE
1EC4
1EC0
1FC0
1FC0
0FC0
07E0
03F0
03F8
03F8
0378
0378
6378
FFF0
FFF0
FFC0
0700
0600
0E00
ENDCHAR
STARTCHAR percent
ENCODING 37
SWIDTH 908 0
DWIDTH 23 0
BBX 21 18 3 0
BITMAP
1F0078
3F80E0
7FC1E0
F3C3C0
F3C780
F38F00
FF9E00
7F3C00
3E7800
00F3E0
01E7F0
03CFF8
078E78
0F1E78
1E1E78
3C1FF0
380FE0
F007C0
ENDCHAR
STARTCHAR ampersand
ENCODING 38
SWIDTH 816 0
DWIDTH 20 0
BBX 19 18 2 0
BITMAP
00FC00
03FE00
03FF00
07CF00
07CF00
07DE00
03FC00
03F0E0
1FE1E0
3DF1C0
78F1C0
F0FB80
F07F80
F83F00
FC3E00
7FFE00
7FFF00
1F8F80
ENDCHAR
STARTCHAR quotesingle
ENCODING 39
SWIDTH 265 0
DWIDTH 7 0
BBX 5 9 4 10
BITMAP
F8
F8
F8
F8
70
70
70
70
70
ENDCHAR
STARTCHAR parenleft
ENCODING 40
SWIDTH 386 0
DWIDTH 10 0
BBX 10 24 2 -5
BITMAP
0040
01C0
0380
0780
0F00
1E00
1E00
3C00
7C00
7C00
7800
F800
F800
F800
F800
F800
F800
F800
7800
7800
7C00
3C00
1C00
0800
ENDCHAR
STARTCHAR parenright
ENCODING 41
SWIDTH 386 0
DWIDTH 10 0
BBX 10 24 1 -5
BITMAP
0400
0E00
0F00
0F00
0780
0780
07C0
07C0
07C0
07C0
07C0
07C0
07C0
0780
0F80
0F80
0F00
1E00
1E00
3C00
7800
F000
E000
8000
ENDCHAR
STARTCHAR asterisk
ENCODING 42
SWIDTH 464 0
DWIDTH 12 0
BBX 10 9 3 9
BITMAP
0F00
0E00
6EC0
73C0
F3C0
1200
FF00
7700
2400
ENDCHAR
STARTCHAR plus
ENCODING 43
SWIDTH 687 0
DWIDTH 17 0
BBX 15 15 2 0
BITMAP
00C0
01C0
01C0
01C0
0180
0180
FFFE
FFFE
FFFE
0380
0300
0700
0700
0700
0700
ENDCHAR
STARTCHAR comma
ENCODING 44
SWIDTH 343 0
DWIDTH 9 0
BBX 6 9 1 -4
BITMAP
7C
7C
7C
78
78
38
38
F0
E0
ENDCHAR
STARTCHAR hyphen
ENCODING 45
SWIDTH 289 0
DWIDTH 7 0
BBX 6 3 2 6
BITMAP
FC
FC
FC
ENDCHAR
STARTCHAR period
ENCODING 46
SWIDTH 343 0
DWIDTH 9 0
BBX 6 5 2 0
BITMAP
7C
7C
FC
F8
F8
ENDCHAR
STARTCHAR slash
ENCODING 47
SWIDTH 596 0
DWIDTH 15 0
BBX 19 23 0 -4
BITMAP
0001E0
0003C0
000380
000780
000F00
000E00
001E00
003C00
003800
007800
00F000
00E000
01E000
03C000
038000
078000
0F0000
0E0000
1E0000
3C0000
380000
780000
F00000
ENDCHAR
STARTCHAR zero
ENCODING 48
SWIDTH 687 0
DWIDTH 17 0
BBX 16 18 2 0
BITMAP
01F0
07FC
0FFE
1F1E
3E1F
3C1F
7C1F
7C1F
FC1F
F83F
F83E
F83E
F83C
F87C
78F8
7FF0
3FE0
0F80
ENDCHAR
STARTCHAR one
ENCODING 49
SWIDTH 687 0
DWIDTH 17 0
BBX 8 18 6 0
BITMAP
7F
7F
FF
1E
1E
3E
3E
3E
3C
3C
7C
7C
7C
78
78
F8
F8
F8
ENDCHAR
STARTCHAR two
ENCODING 50
SWIDTH 687 0
DWIDTH 17 0
BBX 16 18 2 0
BITMAP
07F8
0FFE
1FFF
183F
001F
001F
003E
007E
00FC
01F0
07E0
0F80
1F00
3E00
7C00
7FFC
FFFC
FFF8
ENDCHAR
STARTCHAR three
ENCODING 51
SWIDTH 687 0
DWIDTH 17 0
BBX 15 18 3 0
BITMAP
07F8
0FFC
1FFE
183E
003E
003C
00F8
1FF0
1FE0
1FF0
00F8
007C
007C
007C
41F8
FFF8
FFE0
7F80
ENDCHAR
STARTCHAR four
ENCODING 52
SWIDTH 687 0
DWIDTH 17 0
BBX 15 18 2 0
BITMAP
003E
007E
00FC
01FC
03FC
07BC
0F7C
1E78
3C78
7878
7FFE
FFFE
FFFC
00F0
00F0
00F0
01F0
01E0
ENDCHAR
STARTCHAR five
ENCODING 53
SWIDTH 687 0
DWIDTH 17 0
BBX 16 18 3 0
BITMAP
0FFF
0FFF
1FFE
1C00
1C00
1800
1F80
3FE0
3FF8
03F8
00FC
007C
007C
00FC
41F8
FFF8
FFE0
FF80
ENDCHAR
STARTCHAR six
ENCODING 54
SWIDTH 687 0
DWIDTH 17 0
BBX 16 18 3 0
BITMAP
01FF
07FF
0FFF
1F82
3E00
3E00
7C00
7FF0
FFFC
FFFC
FC7E
F83E
F83E
F83C
7C7C
7FF8
3FF0
0FC0
ENDCHAR
STARTCHAR seven
ENCODING 55
SWIDTH 687 0
DWIDTH 17 0
BBX 14 18 5 0
BITMAP
7FFC
7FFC
FFFC
0078
00F8
01F0
03E0
03C0
0780
0F00
1F00
1E00
3C00
7C00
7C00
7800
F800
F800
ENDCHAR
STARTCHAR eight
ENCODING 56
SWIDTH 687 0
DWIDTH 17 0
BBX 15 18 3 0
BITMAP
01F8
07FC
0FFE
1E1E
1E1E
1E1E
1F3C
0FF0
0FF0
1FF8
7CFC
787C
F03C
F03C
F87C
FFF8
7FF0
1FC0
ENDCHAR
STARTCHAR nine
ENCODING 57
SWIDTH 687 0
DWIDTH 17 0
BBX 16 18 2 0
BITMAP
03F0
0FFC
1FFE
3E3E
3C1F
7C1F
7C1F
7E3F
3FFF
3FFF
0FFE
003E
007C
007C
41F8
FFF0
FFE0
FF80
ENDCHAR
STARTCHAR colon
ENCODING 58
SWIDTH 343 0
DWIDTH 9 0
BBX 8 13 2 0
BITMAP
1F
1F
3E
3E
3E
00
00
00
7C
7C
FC
F8
F8
ENDCHAR
STARTCHAR semicolon
ENCODING 59
SWIDTH 343 0
DWIDTH 9 0
BBX 8 17 1 -4
BITMAP
1F
1F
1F
1E
3E
00
00
00
3C
7C
7C
7C
7C
38
38
F0
E0
ENDCHAR
STARTCHAR less
ENCODING 60
SWIDTH 687 0
DWIDTH 17 0
BBX 16 15 3 0
BITMAP
0001
0007
001F
007E
03F8
0FE0
3F80
FE00
3E00
0F80
07E0
01F0
007C
0018
0008
ENDCHAR
STARTCHAR equal
ENCODING 61
SWIDTH 687 0
DWIDTH 17 0
BBX 16 8 2 3
BITMAP
3FFF
7FFF
7FFE
0000
0000
FFFE
FFFE
FFFC
ENDCHAR
STARTCHAR greater
ENCODING 62
SWIDTH 687 0
DWIDTH 17 0
BBX 16 15 1 0
BITMAP
1000
1800
3E00
0F80
07E0
01F0
007C
007F
01FC
07F0
1FC0
7E00
7800
E000
8000
ENDCHAR
STARTCHAR question
ENCODING 63
SWIDTH 539 0
DWIDTH 13 0
BBX 12 18 3 0
BITMAP
3F80
7FE0
FFF0
83F0
01F0
01E0
03E0
07C0
0F80
1F00
3E00
3C00
7C00
0000
0000
7800
F800
F800
ENDCHAR
STARTCHAR at
ENCODING 64
SWIDTH 833 0
DWIDTH 21 0
BBX 19 18 3 0
BITMAP
00FC00
03FF00
0F0380
1C00C0
3800E0
30FC60
63FC60
671C60
C61860
CC3860
CC78C0
CFD9C0
CF9F80
671E00
600000
383000
1FF000
07E000
ENDCHAR
STARTCHAR A
ENCODING 65
SWIDTH 771 0
DWIDTH 19 0
BBX 18 18 1 0
BITMAP
003E00
007E00
007E00
00FE00
01FE00
01DF00
03DF00
039F00
078F00
070F00
0F0F80
0FFF80
1FFF80
1FFF80
380780
3807C0
7007C0
F007C0
ENDCHAR
STARTCHAR B
ENCODING 66
SWIDTH 660 0
DWIDTH 16 0
BBX 15 18 2 0
BITMAP
1FF8
1FFC
1FFE
1E3E
1E3E
3E3C
3C7C
3FF0
3FC0
3FF0
7CF8
7C7C
787C
787C
78FC
FFF8
FFF8
FFE0
ENDCHAR
STARTCHAR C
ENCODING 67
SWIDTH 737 0
DWIDTH 18 0
BBX 18 18 2 0
BITMAP
007F80
03FFC0
07FFC0
0FC080
1F0000
3E0000
7C0000
7C0000
780000
F80000
F80000
F80000
F80000
FC0000
7E0600
7FFE00
3FFE00
0FF800
ENDCHAR
STARTCHAR D
ENCODING 68
SWIDTH 822 0
DWIDTH 21 0
BBX 20 18 2 0
BITMAP
0FFF00
1FFFC0
1FFFE0
1F07F0
1F03F0
1F01F0
3E01F0
3E01F0
3E01F0
3E03F0
3C03E0
7C03E0
7C07C0
7C0FC0
7C3F80
7FFF00
FFFC00
FFF000
ENDCHAR
STARTCHAR E
ENCODING 69
SWIDTH 642 0
DWIDTH 16 0
BBX 16 18 2 0
BITMAP
0FFF
1FFF
1FFE
1F00
1F00
1E00
3E00
3FF8
3FF8
3FF8
3C00
7C00
7C00
7C00
7C00
7FFC
FFF8
FFF8
ENDCHAR
STARTCHAR F
ENCODING 70
SWIDTH 614 0
DWIDTH 15 0
BBX 16 18 2 0
BITMAP
0FFF
1FFF
1FFE
1F00
1F00
1E00
3E00
3E00
3FF8
3FF8
3FF0
7C00
7C00
7C00
7C00
7800
F800
F800
ENDCHAR
STARTCHAR G
ENCODING 71
SWIDTH 755 0
DWIDTH 19 0
BBX 18 18 2 0
BITMAP
007F80
03FFC0
07FFC0
0FC080
1F0000
3E0000
7C0000
7C0000
780000
F80F00
F80F00
F81F00
F81F00
FC1E00
7E1E00
7FFE00
3FFE00
0FF800
ENDCHAR
STARTCHAR H
ENCODING 72
SWIDTH 813 0
DWIDTH 20 0
BBX 20 18 2 0
BITMAP
0F81F0
1F01F0
1F01E0
1F03E0
1F03E0
1E03E0
3E03E0
3FFFC0
3FFFC0
3FFFC0
3C07C0
7C07C0
7C0780
7C0F80
7C0F80
780F80
F80F80
F81F00
ENDCHAR
STARTCHAR I
ENCODING 73
SWIDTH 361 0
DWIDTH 9 0
BBX 8 18 2 0
BITMAP
1F
1F
1F
1E
1E
3E
3E
3E
3C
3C
7C
7C
7C
78
78
F8
F8
F8
ENDCHAR
STARTCHAR J
ENCODING 74
SWIDTH 502 0
DWIDTH 13 0
BBX 14 22 0 -4
BITMAP
007C
007C
007C
0078
00F8
00F8
00F8
00F8
00F0
01F0
01F0
01F0
01F0
01E0
03E0
03E0
03E0
03E0
47C0
FFC0
FF80
FE00
ENDCHAR
STARTCHAR K
ENCODING 75
SWIDTH 753 0
DWIDTH 19 0
BBX 17 18 2 0
BITMAP
1F0780
1F0F00
1F1E00
1F1C00
1E3800
3E7800
3EF000
3FE000
3FE000
3FF000
7DF000
7CF800
7CF800
7C7C00
787E00
F83E00
F83F00
F81F00
ENDCHAR
STARTCHAR L
ENCODING 76
SWIDTH 623 0
DWIDTH 16 0
BBX 14 18 2 0
BITMAP
0F80
1F00
1F00
1F00
1F00
1F00
3E00
3E00
3E00
3E00
3C00
7C00
7C00
7C00
7C00
7FFC
FFFC
FFFC
ENDCHAR
STARTCHAR M
ENCODING 77
SWIDTH 940 0
DWIDTH 23 0
BBX 23 18 2 0
BITMAP
0FC07E
1FC07E
1FC0FC
1FC0FC
1FC1FC
1FC3FC
3FE3FC
3FE778
39E778
39EE78
39EEF8
79FCF8
79FCF0
79F8F0
71F0F0
71F1F0
F0E1F0
F001E0
ENDCHAR
STARTCHAR N
ENCODING 78
SWIDTH 789 0
DWIDTH 20 0
BBX 19 18 2 0
BITMAP
1F01E0
1F01E0
1F81E0
1F81C0
1FC3C0
3FC3C0
3FE3C0
3FE3C0
3DF380
39F780
78FF80
78FF80
787F80
787F00
703F00
F03F00
F01F00
F01F00
ENDCHAR
STARTCHAR O
ENCODING 79
SWIDTH 855 0
DWIDTH 21 0
BBX 20 18 2 0
BITMAP
007F00
03FFC0
07FFE0
0F87E0
1F03F0
3E01F0
7C01F0
7C01F0
F801F0
F801F0
F803E0
F803E0
F807C0
FC0F80
7E1F00
7FFE00
3FFC00
0FE000
ENDCHAR
STARTCHAR P
ENCODING 80
SWIDTH 645 0
DWIDTH 16 0
BBX 16 18 2 0
BITMAP
1FFC
1FFE
1FFF
1E1F
1E1F
3E1F
3E1E
3E7E
3FFC
3FF8
7FE0
7C00
7C00
7800
7800
F800
F800
F800
ENDCHAR
STARTCHAR Q
ENCODING 81
SWIDTH 855 0
DWIDTH 21 0
BBX 21 22 2 -4
BITMAP
007F00
03FFC0
07FFE0
0F87E0
1F03F0
3E01F0
7C01F0
7C01F0
F801F0
F801F0
F803E0
F803E0
F807C0
FC0F80
7E1F00
7FFE00
3FFC00
0FFC00
003FC0
001FF8
0007E0
0000C0
ENDCHAR
STARTCHAR R
ENCODING 82
SWIDTH 708 0
DWIDTH 18 0
BBX 16 18 2 0
BITMAP
1FFC
1FFF
1FFF
1E1F
1E1F
3E1F
3E3E
3C7C
3FF8
3FF0
7FF0
7CF0
7CF8
78F8
7878
F87C
F87C
F83E
ENDCHAR
STARTCHAR S
ENCODING 83
SWIDTH 639 0
DWIDTH 16 0
BBX 15 18 2 0
BITMAP
01FC
07FE
1FFE
1F04
3E00
3E00
1F80
1FC0
0FE0
07F8
01F8
00FC
00FC
00FC
40F8
FFF0
FFE0
FF80
ENDCHAR
STARTCHAR T
ENCODING 84
SWIDTH 747 0
DWIDTH 19 0
BBX 19 18 3 0
BITMAP
FFFFE0
FFFFE0
FFFFE0
01F000
03E000
03E000
03E000
03E000
03E000
07C000
07C000
07C000
07C000
07C000
0F8000
0F8000
0F8000
0F8000
ENDCHAR
STARTCHAR U
ENCODING 85
SWIDTH 759 0
DWIDTH 19 0
BBX 18 18 3 0
BITMAP
3E03C0
3E07C0
3E0780
3E0780
3C0780
7C0780
7C0F80
7C0F00
780F00
F80F00
F80F00
F81F00
F81E00
F81E00
FC3C00
7FFC00
3FF800
0FE000
ENDCHAR
STARTCHAR V
ENCODING 86
SWIDTH 765 0
DWIDTH 19 0
BBX 18 18 4 0
BITMAP
F803C0
F80380
F80780
7C0700
7C0E00
7C1E00
7C1C00
7C3C00
7C3800
3E7800
3E7000
3EF000
3EE000
3FC000
1FC000
1F8000
1F8000
1F0000
ENDCHAR
STARTCHAR W
ENCODING 87
SWIDTH 991 0
DWIDTH 25 0
BBX 23 18 4 0
BITMAP
F03C1E
F07C1C
F07C3C
F87C38
F8FC78
F8FC70
F9FC70
F9FCE0
FBBCE0
FBBDE0
FBBDC0
7F3FC0
7F3F80
7E3F80
7E3F00
7C3F00
7C3E00
7C3E00
ENDCHAR
STARTCHAR X
ENCODING 88
SWIDTH 696 0
DWIDTH 17 0
BBX 20 18 0 0
BITMAP
0F80F0
07C1E0
07C3C0
07E780
03EF00
03FE00
01FC00
01FC00
01F800
01F800
03F800
03FC00
07FC00
0F7E00
1E3E00
3C3E00
781F00
F01F00
ENDCHAR
STARTCHAR Y
ENCODING 89
SWIDTH 681 0
DWIDTH 17 0
BBX 16 18 4 0
BITMAP
F80F
781E
7C3C
7C38
3C78
3EF0
3FE0
1FC0
1F80
1F80
1F00
1F00
1F00
1F00
1F00
3E00
3E00
3E00
ENDCHAR
STARTCHAR Z
ENCODING 90
SWIDTH 687 0
DWIDTH 17 0
BBX 17 18 2 0
BITMAP
0FFF80
0FFF80
0FFF80
003F00
007E00
00FC00
00FC00
01F800
03F000
07E000
0FC000
1F8000
1F8000
3F0000
7E0000
7FFC00
FFFC00
FFFC00
ENDCHAR
STARTCHAR bracketleft
ENCODING 91
SWIDTH 386 0
DWIDTH 10 0
BBX 11 23 1 -4
BITMAP
07E0
0FE0
0FC0
0F00
0F00
0F00
1E00
1E00
1E00
1E00
1E00
3C00
3C00
3C00
3C00
3C00
7800
7800
7800
7800
7E00
FE00
FC00
ENDCHAR
STARTCHAR backslash
ENCODING 92
SWIDTH 566 0
DWIDTH 14 0
BBX 9 23 4 -4
BITMAP
E000
F000
7000
7000
7000
7800
3800
3800
3800
3C00
1C00
1C00
1C00
1E00
0E00
0E00
0E00
0F00
0700
0700
0700
0780
0380
ENDCHAR
STARTCHAR bracketright
ENCODING 93
SWIDTH 386 0
DWIDTH 10 0
BBX 11 23 1 -4
BITMAP
0FE0
0FE0
0FC0
03C0
03C0
03C0
03C0
0780
0780
0780
0780
0780
0F00
0F00
0F00
0F00
0F00
1E00
1E00
1E00
FE00
FE00
FC00
ENDCHAR
STARTCHAR asciicircum
ENCODING 94
SWIDTH 687 0
DWIDTH 17 0
BBX 14 15 2 3
BITMAP
0040
0040
00E0
01E0
01E0
03E0
03F0
0770
0E70
0E30
1C38
3C38
3838
701C
F01C
ENDCHAR
STARTCHAR underscore
ENCODING 95
SWIDTH 500 0
DWIDTH 13 0
BBX 11 3 1 -3
BITMAP
FFE0
FFE0
FFE0
ENDCHAR
STARTCHAR grave
ENCODING 96
SWIDTH 663 0
DWIDTH 17 0
BBX 6 3 9 16
BITMAP
F0
38
1C
ENDCHAR
STARTCHAR a
ENCODING 97
SWIDTH 681 0
DWIDTH 17 0
BBX 16 13 2 0
BITMAP
01FF
07FF
0FFE
1F1E
3E3E
7C3E
787E
F8FC
F9BC
FB7C
FF7C
FE7C
78F8
ENDCHAR
STARTCHAR b
ENCODING 98
SWIDTH 681 0
DWIDTH 17 0
BBX 16 19 2 0
BITMAP
0F80
0F80
1F00
1F00
1F00
1F00
1E1E
3E3F
3E7F
3EFF
3D9F
3F1F
7E1E
7C3E
7C3C
78F8
7FF0
FFE0
FF80
ENDCHAR
STARTCHAR c
ENCODING 99
SWIDTH 548 0
DWIDTH 14 0
BBX 13 13 2 0
BITMAP
01F0
07F8
1FF8
3F18
7C00
7C00
F800
F800
F800
FC30
FFE0
7FE0
1F80
ENDCHAR
STARTCHAR d
ENCODING 100
SWIDTH 681 0
DWIDTH 17 0
BBX 17 19 2 0
BITMAP
000F80
000F80
000F00
001F00
001F00
001F00
01FF00
07FE00
0FFE00
1F3E00
3E3E00
7C3E00
787C00
F8FC00
F9BC00
FB7C00
FF7C00
FE7800
78F800
ENDCHAR
STARTCHAR e
ENCODING 101
SWIDTH 612 0
DWIDTH 15 0
BBX 13 13 2 0
BITMAP
03E0
0FF0
1FF8
3CF8
78F0
7FF0
FFC0
FF00
F808
F838
FFF8
7FF0
1F80
ENDCHAR
STARTCHAR f
ENCODING 102
SWIDTH 464 0
DWIDTH 12 0
BBX 15 24 1 -5
BITMAP
00FC
01FE
03FE
07C6
0F80
0F80
3FF0
3FF0
7FF0
1F00
1F00
1F00
3E00
3E00
3E00
3E00
3E00
7C00
7C00
7C00
7C00
7800
F800
F800
ENDCHAR
STARTCHAR g
ENCODING 103
SWIDTH 674 0
DWIDTH 17 0
BBX 16 18 1 -5
BITMAP
01FF
07FF
0FFF
1F1E
3E3E
3C3E
7C7E
7CFE
7DBC
7FBC
7F7C
7E7C
3C7C
80F8
E0F8
FFF0
7FE0
7F80
ENDCHAR
STARTCHAR h
ENCODING 104
SWIDTH 675 0
DWIDTH 17 0
BBX 15 19 2 0
BITMAP
0F00
1F00
1F00
1F00
1F00
1E00
3E1C
3E7E
3EFE
3CFE
3DBE
7F3E
7E3C
7C7C
7C7C
787C
F87C
F8F8
F8F8
ENDCHAR
STARTCHAR i
ENCODING 105
SWIDTH 343 0
DWIDTH 9 0
BBX 9 19 2 0
BITMAP
0F80
0F80
1F00
1F00
0000
0000
1F00
3E00
3E00
3E00
3E00
3E00
7C00
7C00
7C00
7C00
7800
F800
F800
ENDCHAR
STARTCHAR j
ENCODING 106
SWIDTH 407 0
DWIDTH 10 0
BBX 15 24 -2 -5
BITMAP
003E
003E
003C
007C
0000
0000
007C
0078
00F8
00F8
00F8
00F8
00F0
01F0
01F0
01F0
01F0
03E0
03E0
03E0
C7C0
FF80
FF00
7C00
ENDCHAR
STARTCHAR k
ENCODING 107
SWIDTH 666 0
DWIDTH 17 0
BBX 16 19 2 0
BITMAP
0F80
0F00
1F00
1F00
1F00
1F00
1E0F
3E1E
3E3C
3E78
3EF0
3DE0
7FE0
7DF0
7DF0
7CF8
78F8
F87C
F87C
ENDCHAR
STARTCHAR l
ENCODING 108
SWIDTH 343 0
DWIDTH 9 0
BBX 9 19 2 0
BITMAP
0F80
0F80
1F00
1F00
1F00
1F00
1F00
3E00
3E00
3E00
3E00
3E00
7C00
7C00
7C00
7C00
7C00
F800
F800
ENDCHAR
STARTCHAR m
ENCODING 109
SWIDTH 991 0
DWIDTH 25 0
BBX 23 13 2 0
BITMAP
1E3C3C
3E7E7E
3CFEFE
3DFDFE
3FBFBE
3F3F3C
7E3F3C
7E7E3C
7C7C7C
78787C
787878
F87878
F8F8F8
ENDCHAR
STARTCHAR n
ENCODING 110
SWIDTH 675 0
DWIDTH 17 0
BBX 15 13 2 0
BITMAP
1E1C
3E7E
3EFE
3DFE
3DBE
3F3E
7E3C
7C7C
7C7C
787C
787C
F8F8
F8F8
ENDCHAR
STARTCHAR o
ENCODING 111
SWIDTH 663 0
DWIDTH 17 0
BBX 15 13 2 0
BITMAP
01F8
0FFC
1FFE
3E3E
7C3E
783E
F83E
F83E
F87C
FCF8
FFF0
7FE0
1F80
ENDCHAR
STARTCHAR p
ENCODING 112
SWIDTH 681 0
DWIDTH 17 0
BBX 17 18 1 -5
BITMAP
0F8F00
1F3F80
1F7F80
1F6F80
1ECF80
1F8F80
3F0F00
3E1F00
3E3E00
3C7C00
3FF800
7FF000
7FC000
7C0000
7C0000
780000
F80000
F80000
ENDCHAR
STARTCHAR q
ENCODING 113
SWIDTH 681 0
DWIDTH 17 0
BBX 16 18 2 -5
BITMAP
01FF
07FF
0FFE
1F1E
3E3E
7C3E
787E
F8FC
F9BC
FF7C
FF7C
FE7C
7878
00F8
00F8
00F8
00F8
01F0
ENDCHAR
STARTCHAR r
ENCODING 114
SWIDTH 542 0
DWIDTH 14 0
BBX 14 13 2 0
BITMAP
1F1C
3E38
3E78
3EF8
3DC0
3F00
7E00
7E00
7C00
7C00
7800
F800
F800
ENDCHAR
STARTCHAR s
ENCODING 115
SWIDTH 527 0
DWIDTH 13 0
BBX 13 13 1 0
BITMAP
07F8
0FF8
1FF0
1F00
1E00
1F80
0FC0
03E0
01F0
41F0
FFE0
FFE0
7F80
ENDCHAR
STARTCHAR t
ENCODING 116
SWIDTH 437 0
DWIDTH 11 0
BBX 9 17 3 0
BITMAP
0600
3E00
3E00
3E00
FF80
FF80
FF80
7C00
7C00
7C00
7C00
7800
F800
F800
FF00
FE00
7E00
ENDCHAR
STARTCHAR u
ENCODING 117
SWIDTH 675 0
DWIDTH 17 0
BBX 15 13 3 0
BITMAP
3E3E
3C3E
7C3C
7C3C
7C7C
7C7C
78FC
F9F8
FB78
FF78
FEF8
FCF8
70F0
ENDCHAR
STARTCHAR v
ENCODING 118
SWIDTH 630 0
DWIDTH 16 0
BBX 15 13 3 0
BITMAP
F81E
F81C
F83C
7878
7C70
7CF0
7CE0
7DE0
3FC0
3F80
3F80
3F00
3F00
ENDCHAR
STARTCHAR w
ENCODING 119
SWIDTH 878 0
DWIDTH 22 0
BBX 21 13 3 0
BITMAP
F07878
F0F870
F0F8F0
F1F8E0
F3F9E0
F3F9C0
F7FBC0
FF7B80
FE7F80
FE7F00
FC3E00
FC3E00
783C00
ENDCHAR
STARTCHAR x
ENCODING 120
SWIDTH 563 0
DWIDTH 14 0
BBX 16 13 0 0
BITMAP
1F0F
0F9E
0FBC
0FF8
07F0
07E0
03E0
07E0
0FF0
1FF0
3DF0
78F8
F0F8
ENDCHAR
STARTCHAR y
ENCODING 121
SWIDTH 633 0
DWIDTH 16 0
BBX 17 18 1 -5
BITMAP
3E0780
3E0F00
3E0E00
1E1E00
1F3C00
1F3800
1F7800
1FF000
0FE000
0FE000
0FC000
0F8000
0F8000
0F0000
1E0000
3E0000
7C0000
F80000
ENDCHAR
STARTCHAR z
ENCODING 122
SWIDTH 630 0
DWIDTH 16 0
BBX 15 13 1 0
BITMAP
1FFE
1FFE
3FFC
00FC
01F8
03E0
07C0
0F80
3F00
7E00
7FFC
FFF8
FFF8
ENDCHAR
STARTCHAR braceleft
ENCODING 123
SWIDTH 386 0
DWIDTH 10 0
BBX 10 23 2 -4
BITMAP
03C0
0FC0
0F80
1F00
1F00
1F00
0F00
0F00
0F00
1E00
7C00
7000
F800
3C00
3C00
3C00
7C00
7C00
F800
F800
FC00
7C00
3800
ENDCHAR
STARTCHAR bar
ENCODING 124
SWIDTH 259 0
DWIDTH 6 0
BBX 7 23 1 -4
BITMAP
0E
0E
0E
0C
1C
1C
1C
1C
18
18
38
38
38
30
30
70
70
70
70
60
E0
E0
E0
ENDCHAR
STARTCHAR braceright
ENCODING 125
SWIDTH 386 0
DWIDTH 10 0
BBX 10 23 1 -4
BITMAP
0F00
0F80
0FC0
07C0
07C0
0F80
0F80
0F00
0F00
0F00
0FC0
0380
0F80
1E00
3C00
3C00
3C00
3E00
3E00
3E00
FC00
FC00
F000
ENDCHAR
STARTCHAR asciitilde
ENCODING 126
SWIDTH 687 0
DWIDTH 17 0
BBX 15 6 3 4
BITMAP
3C06
7F0E
7F8C
E3FC
E1FC
C078
ENDCHAR
STARTCHAR space
ENCODING 160
SWIDTH 343 0
DWIDTH 9 0
BBX 1 1 0 0
BITMAP
00
ENDCHAR
STARTCHAR exclamdown
ENCODING 161
SWIDTH 343 0
DWIDTH 9 0
BBX 8 18 1 -5
BITMAP
1F
1F
1E
00
00
1C
1C
1C
3C
3C
3C
3C
78
78
78
F8
F8
F8
ENDCHAR
STARTCHAR cent
ENCODING 162
SWIDTH 687 0
DWIDTH 17 0
BBX 14 18 4 0
BITMAP
0070
0060
01F8
07FC
0FFC
3E08
3C00
7C00
7800
F800
F800
FC08
FFF0
7FF0
3FF0
0700
0300
0700
ENDCHAR
STARTCHAR sterling
ENCODING 163
SWIDTH 687 0
DWIDTH 17 0
BBX 16 18 3 0
BITMAP
007E
01FF
03FF
03E2
07C0
07C0
07C0
1FF0
3FE0
3FE0
0F80
0F80
1F00
1E00
3C00
7FF8
FFF8
FFF8
ENDCHAR
STARTCHAR currency
ENCODING 164
SWIDTH 687 0
DWIDTH 17 0
BBX 20 18 0 0
BITMAP
040020
1C0060
1C00F0
0E01E0
0F7B80
07FF00
07FE00
079E00
070F00
0F0E00
070E00
079E00
0FFC00
1FFE00
3DE700
F80780
600380
400200
ENDCHAR
STARTCHAR yen
ENCODING 165
SWIDTH 687 0
DWIDTH 17 0
BBX 16 18 4 0
BITMAP
F80F
7C1E
7C3C
3C38
3E70
3EE0
1FE0
1FC0
0F80
7FE0
7FE0
1F00
FFE0
FFC0
1F00
1E00
3E00
3E00
ENDCHAR
STARTCHAR brokenbar
ENCODING 166
SWIDTH 259 0
DWIDTH 6 0
BBX 7 23 1 -4
BITMAP
0E
0E
0E
0C
1C
1C
1C
1C
18
00
00
00
00
00
30
70
70
70
70
60
E0
E0
E0
ENDCHAR
STARTCHAR section
ENCODING 167
SWIDTH 687 0
DWIDTH 17 0
BBX 15 23 3 -5
BITMAP
03FC
0FFE
0FFE
1F06
1F00
1F80
1FC0
0FF0
1FF8
1DFC
3C7C
3C3C
3E3C
3FB8
1FF0
0FF0
03F8
01F8
00F8
41F0
FFF0
FFE0
7F80
ENDCHAR
STARTCHAR dieresis
ENCODING 168
SWIDTH 663 0
DWIDTH 17 0
BBX 9 3 8 15
BITMAP
7380
E380
E700
ENDCHAR
STARTCHAR copyright
ENCODING 169
SWIDTH 834 0
DWIDTH 21 0
BBX 18 18 3 0
BITMAP
03F000
0FFC00
1E0E00
380300
70F980
63FDC0
C784C0
CE00C0
CE00C0
CE00C0
CE00C0
CE08C0
67F1C0
73F180
380300
1E0E00
0FFC00
03F000
ENDCHAR
STARTCHAR ordfeminine
ENCODING 170
SWIDTH 539 0
DWIDTH 13 0
BBX 12 10 4 8
BITMAP
07F0
1FF0
3DF0
79E0
73E0
F3E0
F7E0
FDE0
FBC0
73C0
ENDCHAR
STARTCHAR guillemotleft
ENCODING 171
SWIDTH 633 0
DWIDTH 16 0
BBX 15 11 2 1
BITMAP
020C
071E
0FBC
1E78
7CF0
FBE0
79F0
3CF0
3C78
1E38
0820
ENDCHAR
STARTCHAR logicalnot
ENCODING 172
SWIDTH 687 0
DWIDTH 17 0
BBX 15 8 3 3
BITMAP
FFFE
FFFE
FFFC
000C
001C
001C
001C
0018
ENDCHAR
STARTCHAR hyphen
ENCODING 173
SWIDTH 289 0
DWIDTH 7 0
BBX 6 3 2 6
BITMAP
FC
FC
FC
ENDCHAR
STARTCHAR registered
ENCODING 174
SWIDTH 691 0
DWIDTH 17 0
BBX 13 13 4 5
BITMAP
0F80
1FE0
3070
67F0
C7D8
CED8
CF98
CF98
CD98
6DB0
7070
3FE0
0F80
ENDCHAR
STARTCHAR macron
ENCODING 175
SWIDTH 663 0
DWIDTH 17 0
BBX 9 3 8 15
BITMAP
FF80
FF80
FF80
ENDCHAR
STARTCHAR degree
ENCODING 176
SWIDTH 241 0
DWIDTH 6 0
BBX 4 4 4 14
BITMAP
70
90
90
70
ENDCHAR
STARTCHAR plusminus
ENCODING 177
SWIDTH 687 0
DWIDTH 17 0
BBX 17 15 1 0
BITMAP
007000
007000
006000
00E000
3FFF80
3FFF80
3FFF80
00C000
01C000
01C000
01C000
000000
7FFE00
FFFE00
FFFE00
ENDCHAR
STARTCHAR twosuperior
ENCODING 178
SWIDTH 539 0
DWIDTH 10 0
BBX 10 11 -14 7
BITMAP
1F80
3FC0
21C0
01C0
0380
0700
1E00
3800
7000
FF80
FF00
ENDCHAR
STARTCHAR threesuperior
ENCODING 179
SWIDTH 539 0
DWIDTH 10 0
BBX 9 11 -15 7
BITMAP
3F00
3F80
0380
0700
3E00
3E00
0700
0700
8700
FF00
FC00
ENDCHAR
STARTCHAR acute
ENCODING 180
SWIDTH 663 0
DWIDTH 17 0
BBX 7 3 9 16
BITMAP
1E
38
E0
ENDCHAR
STARTCHAR mu
ENCODING 181
SWIDTH 681 0
DWIDTH 17 0
BBX 17 17 1 -4
BITMAP
1F0F80
1F0F80
1F1F00
1F1F00
1E1F00
3E3F00
3E7F00
3E7E00
3EDE00
3FBE00
7FBE00
7F3E00
7E7C00
7C0000
780000
F80000
F80000
ENDCHAR
STARTCHAR paragraph
ENCODING 182
SWIDTH 687 0
DWIDTH 17 0
BBX 11 22 5 -4
BITMAP
3FE0
7FE0
FEE0
FEC0
FEC0
FEC0
FDC0
7DC0
3D80
1D80
1D80
1B80
1B80
1B00
3B00
3B00
3300
3700
3600
7600
7600
7E00
ENDCHAR
STARTCHAR periodcentered
ENCODING 183
SWIDTH 343 0
DWIDTH 17 0
BBX 4 3 8 6
BITMAP
70
F0
E0
ENDCHAR
STARTCHAR cedilla
ENCODING 184
SWIDTH 663 0
DWIDTH 17 0
BBX 5 5 5 -5
BITMAP
38
70
38
18
F0
ENDCHAR
STARTCHAR onesuperior
ENCODING 185
SWIDTH 539 0
DWIDTH 10 0
BBX 5 11 -17 7
BITMAP
F8
F8
38
30
70
70
70
70
60
E0
E0
ENDCHAR
STARTCHAR ordmasculine
ENCODING 186
SWIDTH 539 0
DWIDTH 13 0
BBX 13 10 3 8
BITMAP
03E0
0FF0
3FF8
7CF8
7878
F070
F0F0
F9E0
7F80
3E00
ENDCHAR
STARTCHAR guillemotright
ENCODING 187
SWIDTH 633 0
DWIDTH 16 0
BBX 15 11 1 1
BITMAP
0820
38F0
3C78
1E78
1F3C
0FBE
1E7C
3CF0
7BE0
F1C0
6080
ENDCHAR
STARTCHAR onequarter
ENCODING 188
SWIDTH 1089 0
DWIDTH 24 0
BBX 20 18 9 0
BITMAP
F800F0
F801E0
3803C0
300780
700F00
701E00
703C00
707870
60F0F0
E0F1E0
E1E360
03C660
078CE0
0F1FF0
1E1FF0
3C00C0
7800C0
F001C0
ENDCHAR
STARTCHAR onehalf
ENCODING 189
SWIDTH 1089 0
DWIDTH 24 0
BBX 21 18 9 0
BITMAP
F800F0
F801E0
3803C0
300780
700F00
701E00
703C00
707BF0
60F7F8
E0F438
E1E038
03C070
0780E0
0F03C0
1E0700
3C0E00
781FF0
F01FE0
ENDCHAR
STARTCHAR threequarters
ENCODING 190
SWIDTH 1149 0
DWIDTH 24 0
BBX 22 18 11 0
BITMAP
3F003C
3F8078
0380F0
0701E0
3E03C0
3E0780
070F00
071E1C
873C3C
FF3C78
FC78D8
00F198
01E338
03C7FC
0787FC
0F0030
1E0030
3C0070
ENDCHAR
STARTCHAR questiondown
ENCODING 191
SWIDTH 539 0
DWIDTH 13 0
BBX 12 18 0 -5
BITMAP
01F0
01F0
01E0
0000
0000
03E0
03C0
07C0
0F80
1F00
3E00
7C00
F800
F800
FC10
FFF0
7FE0
1FC0
ENDCHAR
STARTCHAR Agrave
ENCODING 192
SWIDTH 771 0
DWIDTH 19 0
BBX 18 22 1 0
BITMAP
003C00
000E00
000700
000000
003E00
007E00
007E00
00FE00
01FE00
01DF00
03DF00
039F00
078F00
070F00
0F0F80
0FFF80
1FFF80
1FFF80
380780
3807C0
7007C0
F007C0
ENDCHAR
STARTCHAR Aacute
ENCODING 193
SWIDTH 771 0
DWIDTH 19 0
BBX 18 22 1 0
BITMAP
000780
000E00
003800
000000
003E00
007E00
007E00
00FE00
01FE00
01DF00
03DF00
039F00
078F00
070F00
0F0F80
0FFF80
1FFF80
1FFF80
380780
3807C0
7007C0
F007C0
ENDCHAR
STARTCHAR Acircumflex
ENCODING 194
SWIDTH 771 0
DWIDTH 19 0
BBX 18 22 1 0
BITMAP
001E00
003F00
00E380
000000
003E00
007E00
007E00
00FE00
01FE00
01DF00
03DF00
039F00
078F00
070F00
0F0F80
0FFF80
1FFF80
1FFF80
380780
3807C0
7007C0
F007C0
ENDCHAR
STARTCHAR Atilde
ENCODING 195
SWIDTH 771 0
DWIDTH 19 0
BBX 18 22 1 0
BITMAP
003DC0
007F80
00EF00
000000
003E00
007E00
007E00
00FE00
01FE00
01DF00
03DF00
039F00
078F00
070F00
0F0F80
0FFF80
1FFF80
1FFF80
380780
3807C0
7007C0
F007C0
ENDCHAR
STARTCHAR Adieresis
ENCODING 196
SWIDTH 771 0
DWIDTH 19 0
BBX 18 22 1 0
BITMAP
0039C0
0071C0
007380
000000
003E00
007E00
007E00
00FE00
01FE00
01DF00
03DF00
039F00
078F00
070F00
0F0F80
0FFF80
1FFF80
1FFF80
380780
3807C0
7007C0
F007C0
ENDCHAR
STARTCHAR Aring
ENCODING 197
SWIDTH 771 0
DWIDTH 19 0
BBX 18 23 1 0
BITMAP
000C00
001200
001200
000C00
000000
003E00
007E00
007E00
00FE00
01FE00
01DF00
03DF00
039F00
078F00
070F00
0F0F80
0FFF80
1FFF80
1FFF80
380780
3807C0
7007C0
F007C0
ENDCHAR
STARTCHAR AE
ENCODING 198
SWIDTH 1004 0
DWIDTH 25 0
BBX 27 18 0 0
BITMAP
0003FFE0
0007FFE0
000FFFC0
001FE000
003FE000
003FC000
007FC000
00F7FF00
01E7FF00
01C7FF00
03C78000
07FF8000
0FFF8000
1FFF8000
1C0F8000
3C0FFF80
781FFF00
F01FFF00
ENDCHAR
STARTCHAR Ccedilla
ENCODING 199
SWIDTH 737 0
DWIDTH 18 0
BBX 18 23 2 -5
BITMAP
007F80
03FFC0
07FFC0
0FC080
1F0000
3E0000
7C0000
7C0000
780000
F80000
F80000
F80000
F80000
FC0000
7E0600
7FFE00
3FFE00
0FF800
030000
070000
038000
018000
0F0000
ENDCHAR
STARTCHAR Egrave
ENCODING 200
SWIDTH 642 0
DWIDTH 16 0
BBX 16 22 2 0
BITMAP
01E0
0070
0038
0000
0FFF
1FFF
1FFE
1F00
1F00
1E00
3E00
3FF8
3FF8
3FF8
3C00
7C00
7C00
7C00
7C00
7FFC
FFF8
FFF8
ENDCHAR
STARTCHAR Eacute
ENCODING 201
SWIDTH 642 0
DWIDTH 16 0
BBX 16 22 2 0
BITMAP
003C
0070
01C0
0000
0FFF
1FFF
1FFE
1F00
1F00
1E00
3E00
3FF8
3FF8
3FF8
3C00
7C00
7C00
7C00
7C00
7FFC
FFF8
FFF8
ENDCHAR
STARTCHAR Ecircumflex
ENCODING 202
SWIDTH 642 0
DWIDTH 16 0
BBX 16 22 2 0
BITMAP
00F0
01F8
071C
0000
0FFF
1FFF
1FFE
1F00
1F00
1E00
3E00
3FF8
3FF8
3FF8
3C00
7C00
7C00
7C00
7C00
7FFC
FFF8
FFF8
ENDCHAR
STARTCHAR Edieresis
ENCODING 203
SWIDTH 642 0
DWIDTH 16 0
BBX 16 22 2 0
BITMAP
039C
071C
0738
0000
0FFF
1FFF
1FFE
1F00
1F00
1E00
3E00
3FF8
3FF8
3FF8
3C00
7C00
7C00
7C00
7C00
7FFC
FFF8
FFF8
ENDCHAR
STARTCHAR Igrave
ENCODING 204
SWIDTH 361 0
DWIDTH 9 0
BBX 9 22 2 0
BITMAP
1E00
0700
0380
0000
1F00
1F00
1F00
1E00
1E00
3E00
3E00
3E00
3C00
3C00
7C00
7C00
7C00
7800
7800
F800
F800
F800
ENDCHAR
STARTCHAR Iacute
ENCODING 205
SWIDTH 361 0
DWIDTH 9 0
BBX 10 22 2 0
BITMAP
03C0
0700
1C00
0000
1F00
1F00
1F00
1E00
1E00
3E00
3E00
3E00
3C00
3C00
7C00
7C00
7C00
7800
7800
F800
F800
F800
ENDCHAR
STARTCHAR Icircumflex
ENCODING 206
SWIDTH 361 0
DWIDTH 9 0
BBX 10 22 2 0
BITMAP
0F00
1F80
71C0
0000
1F00
1F00
1F00
1E00
1E00
3E00
3E00
3E00
3C00
3C00
7C00
7C00
7C00
7800
7800
F800
F800
F800
ENDCHAR
STARTCHAR Idieresis
ENCODING 207
SWIDTH 361 0
DWIDTH 9 0
BBX 11 22 2 0
BITMAP
1CE0
38E0
39C0
0000
1F00
1F00
1F00
1E00
1E00
3E00
3E00
3E00
3C00
3C00
7C00
7C00
7C00
7800
7800
F800
F800
F800
ENDCHAR
STARTCHAR Eth
ENCODING 208
SWIDTH 822 0
DWIDTH 21 0
BBX 20 18 1 0
BITMAP
0FFF80
0FFFC0
0FFFE0
0F07F0
1F03F0
1F01F0
1F01F0
FFE1F0
FFE1F0
FFE1F0
3E03E0
3E03E0
3E07C0
3C0FC0
7C3F80
7FFF00
7FFE00
7FF000
ENDCHAR
STARTCHAR Ntilde
ENCODING 209
SWIDTH 789 0
DWIDTH 20 0
BBX 19 22 2 0
BITMAP
007B80
00FF00
01DE00
000000
1F01E0
1F01E0
1F81E0
1F81C0
1FC3C0
3FC3C0
3FE3C0
3FE3C0
3DF380
39F780
78FF80
78FF80
787F80
787F00
703F00
F03F00
F01F00
F01F00
ENDCHAR
STARTCHAR Ograve
ENCODING 210
SWIDTH 855 0
DWIDTH 21 0
BBX 20 22 2 0
BITMAP
007800
001C00
000E00
000000
007F00
03FFC0
07FFE0
0F87E0
1F03F0
3E01F0
7C01F0
7C01F0
F801F0
F801F0
F803E0
F803E0
F807C0
FC0F80
7E1F00
7FFE00
3FFC00
0FE000
ENDCHAR
STARTCHAR Oacute
ENCODING 211
SWIDTH 855 0
DWIDTH 21 0
BBX 20 22 2 0
BITMAP
000F00
001C00
007000
000000
007F00
03FFC0
07FFE0
0F87E0
1F03F0
3E01F0
7C01F0
7C01F0
F801F0
F801F0
F803E0
F803E0
F807C0
FC0F80
7E1F00
7FFE00
3FFC00
0FE000
ENDCHAR
STARTCHAR Ocircumflex
ENCODING 212
SWIDTH 855 0
DWIDTH 21 0
BBX 20 22 2 0
BITMAP
003C00
007E00
01C700
000000
007F00
03FFC0
07FFE0
0F87E0
1F03F0
3E01F0
7C01F0
7C01F0
F801F0
F801F0
F803E0
F803E0
F807C0
FC0F80
7E1F00
7FFE00
3FFC00
0FE000
ENDCHAR
STARTCHAR Otilde
ENCODING 213
SWIDTH 855 0
DWIDTH 21 0
BBX 20 22 2 0
BITMAP
007B80
00FF00
01DE00
000000
007F00
03FFC0
07FFE0
0F87E0
1F03F0
3E01F0
7C01F0
7C01F0
F801F0
F801F0
F803E0
F803E0
F807C0
FC0F80
7E1F00
7FFE00
3FFC00
0FE000
ENDCHAR
STARTCHAR Odieresis
ENCODING 214
SWIDTH 855 0
DWIDTH 21 0
BBX 20 22 2 0
BITMAP
007380
00E380
00E700
000000
007F00
03FFC0
07FFE0
0F87E0
1F03F0
3E01F0
7C01F0
7C01F0
F801F0
F801F0
F803E0
F803E0
F807C0
FC0F80
7E1F00
7FFE00
3FFC00
0FE000
ENDCHAR
STARTCHAR multiply
ENCODING 215
SWIDTH 687 0
DWIDTH 17 0
BBX 17 15 2 0
BITMAP
080100
380300
1C0F80
0E1E00
0F3C00
07F800
03F000
03E000
07E000
0FF000
1E7800
3C3800
F81C00
600E00
400800
ENDCHAR
STARTCHAR Oslash
ENCODING 216
SWIDTH 855 0
DWIDTH 21 0
BBX 23 18 3 0
BITMAP
003FBE
01FFFC
03FFF8
07C3F0
0F83F8
1F07F8
3E0FF8
3E1EF8
7C3CF8
7C78F8
7CF1F0
7DE1F0
7FC3E0
7F87C0
3F0F80
3FFF00
7FFE00
FFF000
ENDCHAR
STARTCHAR Ugrave
ENCODING 217
SWIDTH 759 0
DWIDTH 19 0
BBX 18 22 3 0
BITMAP
01E000
007000
003800
000000
3E03C0
3E07C0
3E0780
3E0780
3C0780
7C0780
7C0F80
7C0F00
780F00
F80F00
F80F00
F81F00
F81E00
F81E00
FC3C00
7FFC00
3FF800
0FE000
ENDCHAR
STARTCHAR Uacute
ENCODING 218
SWIDTH 759 0
DWIDTH 19 0
BBX 18 22 3 0
BITMAP
001E00
003800
00E000
000000
3E03C0
3E07C0
3E0780
3E0780
3C0780
7C0780
7C0F80
7C0F00
780F00
F80F00
F80F00
F81F00
F81E00
F81E00
FC3C00
7FFC00
3FF800
0FE000
ENDCHAR
STARTCHAR Ucircumflex
ENCODING 219
SWIDTH 759 0
DWIDTH 19 0
BBX 18 22 3 0
BITMAP
007800
00FC00
038E00
000000
3E03C0
3E07C0
3E0780
3E0780
3C0780
7C0780
7C0F80
7C0F00
780F00
F80F00
F80F00
F81F00
F81E00
F81E00
FC3C00
7FFC00
3FF800
0FE000
ENDCHAR
STARTCHAR Udieresis
ENCODING 220
SWIDTH 759 0
DWIDTH 19 0
BBX 18 22 3 0
BITMAP
01CE00
038E00
039C00
000000
3E03C0
3E07C0
3E0780
3E0780
3C0780
7C0780
7C0F80
7C0F00
780F00
F80F00
F80F00
F81F00
F81E00
F81E00
FC3C00
7FFC00
3FF800
0FE000
ENDCHAR
STARTCHAR Yacute
ENCODING 221
SWIDTH 681 0
DWIDTH 17 0
BBX 16 22 4 0
BITMAP
0078
00E0
0380
0000
F80F
781E
7C3C
7C38
3C78
3EF0
3FE0
1FC0
1F80
1F80
1F00
1F00
1F00
1F00
1F00
3E00
3E00
3E00
ENDCHAR
STARTCHAR Thorn
ENCODING 222
SWIDTH 645 0
DWIDTH 16 0
BBX 15 18 2 0
BITMAP
1F00
1F00
1E00
1FF8
1FFC
3FFE
3E3E
3C3E
3C3E
3C3C
7CFC
7FF8
7FF0
7FC0
7800
F800
F800
F000
ENDCHAR
STARTCHAR germandbls
ENCODING 223
SWIDTH 708 0
DWIDTH 18 0
BBX 17 24 1 -5
BITMAP
00FC00
03FF00
07FF00
07CF00
0F8F00
0F9E00
0F9C00
1F3800
1F3800
1F7C00
1F7E00
1E3F00
3E1F00
3E0F80
3E0780
3E8780
3CFF80
7CFF00
7CFC00
7C0000
7C0000
780000
F80000
F80000
ENDCHAR
STARTCHAR agrave
ENCODING 224
SWIDTH 681 0
DWIDTH 17 0
BBX 16 17 2 0
BITMAP
01E0
0070
0038
0000
01FF
07FF
0FFE
1F1E
3E3E
7C3E
787E
F8FC
F9BC
FB7C
FF7C
FE7C
78F8
ENDCHAR
STARTCHAR aacute
ENCODING 225
SWIDTH 681 0
DWIDTH 17 0
BBX 16 17 2 0
BITMAP
001E
0038
00E0
0000
01FF
07FF
0FFE
1F1E
3E3E
7C3E
787E
F8FC
F9BC
FB7C
FF7C
FE7C
78F8
ENDCHAR
STARTCHAR acircumflex
ENCODING 226
SWIDTH 681 0
DWIDTH 17 0
BBX 16 17 2 0
BITMAP
0078
00FC
038E
0000
01FF
07FF
0FFE
1F1E
3E3E
7C3E
787E
F8FC
F9BC
FB7C
FF7C
FE7C
78F8
ENDCHAR
STARTCHAR atilde
ENCODING 227
SWIDTH 681 0
DWIDTH 17 0
BBX 16 17 2 0
BITMAP
00F7
01FE
03BC
0000
01FF
07FF
0FFE
1F1E
3E3E
7C3E
787E
F8FC
F9BC
FB7C
FF7C
FE7C
78F8
ENDCHAR
STARTCHAR adieresis
ENCODING 228
SWIDTH 681 0
DWIDTH 17 0
BBX 16 17 2 0
BITMAP
01CE
038E
039C
0000
01FF
07FF
0FFE
1F1E
3E3E
7C3E
787E
F8FC
F9BC
FB7C
FF7C
FE7C
78F8
ENDCHAR
STARTCHAR aring
ENCODING 229
SWIDTH 681 0
DWIDTH 17 0
BBX 16 18 2 0
BITMAP
0030
0048
0048
0030
0000
01FF
07FF
0FFE
1F1E
3E3E
7C3E
787E
F8FC
F9BC
FB7C
FF7C
FE7C
78F8
ENDCHAR
STARTCHAR ae
ENCODING 230
SWIDTH 987 0
DWIDTH 25 0
BBX 23 13 2 0
BITMAP
01FF78
07FFFC
0FFFFE
1E1F3E
3C3E3C
7C3FFC
787FF0
F8BFC0
F9BC02
FF3E0E
FE3FFE
FC1FFC
780FE0
ENDCHAR
STARTCHAR ccedilla
ENCODING 231
SWIDTH 548 0
DWIDTH 14 0
BBX 13 18 2 -5
BITMAP
01F0
07F8
1FF8
3F18
7C00
7C00
F800
F800
F800
FC30
FFE0
7FE0
1F80
0C00
1C00
0E00
0600
3C00
ENDCHAR
STARTCHAR egrave
ENCODING 232
SWIDTH 612 0
DWIDTH 15 0
BBX 13 17 2 0
BITMAP
03C0
00E0
0070
0000
03E0
0FF0
1FF8
3CF8
78F0
7FF0
FFC0
FF00
F808
F838
FFF8
7FF0
1F80
ENDCHAR
STARTCHAR eacute
ENCODING 233
SWIDTH 612 0
DWIDTH 15 0
BBX 14 17 2 0
BITMAP
003C
0070
01C0
0000
03E0
0FF0
1FF8
3CF8
78F0
7FF0
FFC0
FF00
F808
F838
FFF8
7FF0
1F80
ENDCHAR
STARTCHAR ecircumflex
ENCODING 234
SWIDTH 612 0
DWIDTH 15 0
BBX 14 17 2 0
BITMAP
00F0
01F8
071C
0000
03E0
0FF0
1FF8
3CF8
78F0
7FF0
FFC0
FF00
F808
F838
FFF8
7FF0
1F80
ENDCHAR
STARTCHAR edieresis
ENCODING 235
SWIDTH 612 0
DWIDTH 15 0
BBX 14 17 2 0
BITMAP
039C
071C
0738
0000
03E0
0FF0
1FF8
3CF8
78F0
7FF0
FFC0
FF00
F808
F838
FFF8
7FF0
1F80
ENDCHAR
STARTCHAR igrave
ENCODING 236
SWIDTH 343 0
DWIDTH 9 0
BBX 10 17 2 0
BITMAP
0F00
0380
01C0
0000
1F00
1F00
3E00
3E00
3E00
3E00
7E00
7C00
7C00
7C00
7C00
F800
F800
ENDCHAR
STARTCHAR iacute
ENCODING 237
SWIDTH 343 0
DWIDTH 9 0
BBX 11 17 2 0
BITMAP
01E0
0380
0E00
0000
1F00
1F00
3E00
3E00
3E00
3E00
7E00
7C00
7C00
7C00
7C00
F800
F800
ENDCHAR
STARTCHAR icircumflex
ENCODING 238
SWIDTH 343 0
DWIDTH 9 0
BBX 11 17 2 0
BITMAP
0780
0FC0
38E0
0000
1F00
1F00
3E00
3E00
3E00
3E00
7E00
7C00
7C00
7C00
7C00
F800
F800
ENDCHAR
STARTCHAR idieresis
ENCODING 239
SWIDTH 343 0
DWIDTH 9 0
BBX 11 17 2 0
BITMAP
1CE0
38E0
39C0
0000
1F00
1F00
3E00
3E00
3E00
3E00
7E00
7C00
7C00
7C00
7C00
F800
F800
ENDCHAR
STARTCHAR eth
ENCODING 240
SWIDTH 663 0
DWIDTH 17 0
BBX 15 22 2 0
BITMAP
0030
0078
00F8
1CF0
1FE0
3FF0
07F8
0E7C
1C7C
09FE
07FE
1FFE
3E3E
7C3E
783E
F83E
F83C
F87C
FCF8
7FF0
7FE0
1F80
ENDCHAR
STARTCHAR ntilde
ENCODING 241
SWIDTH 675 0
DWIDTH 17 0
BBX 15 17 2 0
BITMAP
01EE
03FC
0778
0000
1E1C
3E7E
3EFE
3DFE
3DBE
3F3E
7E3C
7C7C
7C7C
787C
787C
F8F8
F8F8
ENDCHAR
STARTCHAR ograve
ENCODING 242
SWIDTH 663 0
DWIDTH 17 0
BBX 15 17 2 0
BITMAP
01E0
0070
0038
0000
01F8
0FFC
1FFE
3E3E
7C3E
783E
F83E
F83E
F87C
FCF8
FFF0
7FE0
1F80
ENDCHAR
STARTCHAR oacute
ENCODING 243
SWIDTH 663 0
DWIDTH 17 0
BBX 15 17 2 0
BITMAP
003C
0070
01C0
0000
01F8
0FFC
1FFE
3E3E
7C3E
783E
F83E
F83E
F87C
FCF8
FFF0
7FE0
1F80
ENDCHAR
STARTCHAR ocircumflex
ENCODING 244
SWIDTH 663 0
DWIDTH 17 0
BBX 15 17 2 0
BITMAP
00F0
01F8
071C
0000
01F8
0FFC
1FFE
3E3E
7C3E
783E
F83E
F83E
F87C
FCF8
FFF0
7FE0
1F80
ENDCHAR
STARTCHAR otilde
ENCODING 245
SWIDTH 663 0
DWIDTH 17 0
BBX 15 17 2 0
BITMAP
01EE
03FC
0778
0000
01F8
0FFC
1FFE
3E3E
7C3E
783E
F83E
F83E
F87C
FCF8
FFF0
7FE0
1F80
ENDCHAR
STARTCHAR odieresis
ENCODING 246
SWIDTH 663 0
DWIDTH 17 0
BBX 15 17 2 0
BITMAP
01CE
038E
039C
0000
01F8
0FFC
1FFE
3E3E
7C3E
783E
F83E
F83E
F87C
FCF8
FFF0
7FE0
1F80
ENDCHAR
STARTCHAR divide
ENCODING 247
SWIDTH 687 0
DWIDTH 17 0
BBX 15 15 3 0
BITMAP
01E0
01C0
03C0
0000
0000
0000
FFFE
FFFE
FFFC
0000
0000
0000
0780
0700
0F00
ENDCHAR
STARTCHAR oslash
ENCODING 248
SWIDTH 663 0
DWIDTH 17 0
BBX 17 13 3 0
BITMAP
00FF80
07FF00
0FFF00
1F3F00
3E7F00
3CFF00
7DDF00
7F9F00
7F3E00
7E7C00
7FF800
7FF000
FFC000
ENDCHAR
STARTCHAR ugrave
ENCODING 249
SWIDTH 675 0
DWIDTH 17 0
BBX 15 17 3 0
BITMAP
01E0
0070
0038
0000
3E3E
3C3E
7C3C
7C3C
7C7C
7C7C
78FC
F9F8
FB78
FF78
FEF8
FCF8
70F0
ENDCHAR
STARTCHAR uacute
ENCODING 250
SWIDTH 675 0
DWIDTH 17 0
BBX 15 17 3 0
BITMAP
003C
0070
01C0
0000
3E3E
3C3E
7C3C
7C3C
7C7C
7C7C
78FC
F9F8
FB78
FF78
FEF8
FCF8
70F0
ENDCHAR
STARTCHAR ucircumflex
ENCODING 251
SWIDTH 675 0
DWIDTH 17 0
BBX 15 17 3 0
BITMAP
00F0
01F8
071C
0000
3E3E
3C3E
7C3C
7C3C
7C7C
7C7C
78FC
F9F8
FB78
FF78
FEF8
FCF8
70F0
ENDCHAR
STARTCHAR udieresis
ENCODING 252
SWIDTH 675 0
DWIDTH 17 0
BBX 15 17 3 0
BITMAP
039C
071C
0738
0000
3E3E
3C3E
7C3C
7C3C
7C7C
7C7C
78FC
F9F8
FB78
FF78
FEF8
FCF8
70F0
ENDCHAR
STARTCHAR yacute
ENCODING 253
SWIDTH 633 0
DWIDTH 16 0
BBX 17 22 1 -5
BITMAP
001E00
003800
00E000
000000
3E0780
3E0F00
3E0E00
1E1E00
1F3C00
1F3800
1F7800
1FF000
0FE000
0FE000
0FC000
0F8000
0F8000
0F0000
1E0000
3E0000
7C0000
F80000
ENDCHAR
STARTCHAR thorn
ENCODING 254
SWIDTH 681 0
DWIDTH 17 0
BBX 17 23 1 -5
BITMAP
0F8000
0F8000
0F8000
0F8000
0F8000
1F0F00
1F3F80
1F7F80
1F7F80
1ECF80
3F8F80
3F0F00
3E1F00
3E1E00
3E7C00
7FF800
7FF000
7FC000
7C0000
7C0000
F80000
F80000
F80000
ENDCHAR
STARTCHAR ydieresis
ENCODING 255
SWIDTH 633 0
DWIDTH 16 0
BBX 17 22 1 -5
BITMAP
01CE00
038E00
039C00
000000
3E0780
3E0F00
3E0E00
1E1E00
1F3C00
1F3800
1F7800
1FF000
0FE000
0FE000
0FC000
0F8000
0F8000
0F0000
1E0000
3E0000
7C0000
F80000
ENDCHAR
ENDFONT
