STARTFONT 2.1
COMMENT AUTOMATICALLY GENERATED FILE. DO NOT EDIT!
COMMENT Generated with 'ucs2any.pl luBS18.bdf ../../../fonts/util/map-ISO8859-1 ISO8859-1'
COMMENT from an ISO10646-1 encoded source BDF font.
COMMENT ucs2any.pl by Markus Kuhn <mkuhn@acm.org>, 2000.
COMMENT $Xorg: $
COMMENT ISO10646-1 extension by Markus Kuhn <mkuhn@acm.org>, 2001-03-20
COMMENT  (c) Copyright Bigelow & Holmes 1986, 1985. Lucida is a registered
COMMENT  trademark of Bigelow & Holmes. See LEGAL NOTICE file for terms 
COMMENT  of the license. 
FONT -B&H-Lucida-Bold-R-Normal-Sans-25-180-100-100-P-158-ISO8859-1
SIZE 18 100 100
FONTBOUNDINGBOX 44 28 -17 -5
STARTPROPERTIES 22
COMMENT Begin LogicalFontDescription
FONTNAME_REGISTRY ""
FOUNDRY "B&H"
FAMILY_NAME "Lucida"
WEIGHT_NAME "Bold"
SLANT "R"
SETWIDTH_NAME "Normal"
ADD_STYLE_NAME "Sans"
PIXEL_SIZE 25
POINT_SIZE 180
RESOLUTION_X 100
RESOLUTION_Y 100
SPACING "P"
AVERAGE_WIDTH 158
CHARSET_REGISTRY "ISO8859"
CHARSET_ENCODING "1"
COMMENT END LogicalFontDescription
FONT_ASCENT 23
FONT_DESCENT 6
DEFAULT_CHAR 0
COPYRIGHT "Copyright Bigelow & Holmes 1986, 1985."
FACE_NAME "Lucida Sans Bold"
X_HEIGHT 13
CAP_HEIGHT 18
ENDPROPERTIES
CHARS 192
STARTCHAR defaultchar
ENCODING 0
SWIDTH 813 0
DWIDTH 20 0
BBX 15 17 2 0
BITMAP
AAAA
0000
8002
0000
8002
0000
8002
0000
8002
0000
8002
0000
8002
0000
8002
0000
AAAA
ENDCHAR
STARTCHAR space
ENCODING 32
SWIDTH 343 0
DWIDTH 9 0
BBX 1 1 0 0
BITMAP
00
ENDCHAR
STARTCHAR exclam
ENCODING 33
SWIDTH 265 0
DWIDTH 9 0
BBX 5 18 2 0
BITMAP
F8
F8
F8
F8
F8
F8
F8
F8
70
70
70
70
70
00
00
F8
F8
F8
ENDCHAR
STARTCHAR quotedbl
ENCODING 34
SWIDTH 530 0
DWIDTH 13 0
BBX 11 8 1 11
BITMAP
FBE0
FBE0
F3E0
F3E0
71C0
71C0
71C0
71C0
ENDCHAR
STARTCHAR numbersign
ENCODING 35
SWIDTH 687 0
DWIDTH 17 0
BBX 16 18 1 0
BITMAP
038C
030C
0318
0318
0618
3FFF
7FFF
0630
0C30
0C30
0C60
FFFE
FFFC
1860
18C0
18C0
30C0
31C0
ENDCHAR
STARTCHAR dollar
ENCODING 36
SWIDTH 687 0
DWIDTH 17 0
BBX 13 24 2 -3
BITMAP
0700
0700
0700
1FF0
3FF0
7FF0
7B10
7B00
7F00
7F00
3F00
1FC0
0FE0
07F0
07F8
06F8
0678
8678
FFF0
FFF0
7FC0
0700
0700
0700
ENDCHAR
STARTCHAR percent
ENCODING 37
SWIDTH 898 0
DWIDTH 22 0
BBX 22 18 0 0
BITMAP
3E00F0
7F01E0
FF83C0
E38380
E38780
E38F00
FF9E00
7F3C00
3E3800
0079F0
00F3F8
01E7FC
03C71C
07871C
07871C
0F07FC
1E03F8
3C01F0
ENDCHAR
STARTCHAR ampersand
ENCODING 38
SWIDTH 792 0
DWIDTH 20 0
BBX 18 18 1 0
BITMAP
03E000
0FF800
1FFC00
1F3C00
1F3C00
1FFC00
0FF000
0FC3C0
3FE3C0
7FF3C0
F9F380
F9FF80
F8FF00
F8FF00
FC7E00
7FFE00
3FFF00
0FCF80
ENDCHAR
STARTCHAR quotesingle
ENCODING 39
SWIDTH 265 0
DWIDTH 7 0
BBX 5 9 1 10
BITMAP
F8
F8
F8
F8
F8
70
70
70
70
ENDCHAR
STARTCHAR parenleft
ENCODING 40
SWIDTH 386 0
DWIDTH 10 0
BBX 8 24 1 -5
BITMAP
01
07
0F
1F
3E
3C
7C
7C
78
F8
F8
F8
F8
F8
F8
78
7C
7C
3C
3E
1F
0F
07
01
ENDCHAR
STARTCHAR parenright
ENCODING 41
SWIDTH 386 0
DWIDTH 10 0
BBX 8 24 1 -5
BITMAP
80
E0
F0
F8
7C
3C
3E
3E
1E
1F
1F
1F
1F
1F
1F
1E
3E
3E
3C
7C
F8
F0
E0
80
ENDCHAR
STARTCHAR asterisk
ENCODING 42
SWIDTH 464 0
DWIDTH 12 0
BBX 10 9 1 9
BITMAP
1E00
4C80
6D80
F3C0
E3C0
1200
7F00
3380
1200
ENDCHAR
STARTCHAR plus
ENCODING 43
SWIDTH 687 0
DWIDTH 17 0
BBX 15 15 1 0
BITMAP
0380
0380
0380
0380
0380
0380
FFFE
FFFE
FFFE
0380
0380
0380
0380
0380
0380
ENDCHAR
STARTCHAR comma
ENCODING 44
SWIDTH 343 0
DWIDTH 9 0
BBX 5 9 2 -4
BITMAP
F8
F8
F8
F8
F8
38
70
F0
C0
ENDCHAR
STARTCHAR hyphen
ENCODING 45
SWIDTH 289 0
DWIDTH 7 0
BBX 5 3 1 6
BITMAP
F8
F8
F8
ENDCHAR
STARTCHAR period
ENCODING 46
SWIDTH 343 0
DWIDTH 9 0
BBX 5 5 2 0
BITMAP
F8
F8
F8
F8
F8
ENDCHAR
STARTCHAR slash
ENCODING 47
SWIDTH 596 0
DWIDTH 15 0
BBX 15 23 0 -4
BITMAP
001E
001C
003C
0038
0078
0070
00F0
00E0
01E0
01C0
03C0
0380
0780
0700
0F00
0E00
1E00
1C00
3C00
3800
7800
7000
F000
ENDCHAR
STARTCHAR zero
ENCODING 48
SWIDTH 687 0
DWIDTH 17 0
BBX 15 18 1 0
BITMAP
07C0
1FF0
3FF8
7C7C
7C7C
783C
F83E
F83E
F83E
F83E
F83E
F83E
783C
7C7C
7C7C
3FF8
1FF0
07C0
ENDCHAR
STARTCHAR one
ENCODING 49
SWIDTH 687 0
DWIDTH 17 0
BBX 8 18 4 0
BITMAP
FF
FF
FF
1F
1F
1F
1F
1F
1F
1F
1F
1F
1F
1F
1F
1F
1F
1F
ENDCHAR
STARTCHAR two
ENCODING 50
SWIDTH 687 0
DWIDTH 17 0
BBX 13 18 2 0
BITMAP
3F80
FFE0
FFF0
C1F8
00F8
00F8
00F8
01F0
01F0
03E0
07C0
0F80
3E00
7C00
F800
FFF8
FFF8
FFF8
ENDCHAR
STARTCHAR three
ENCODING 51
SWIDTH 687 0
DWIDTH 17 0
BBX 13 18 2 0
BITMAP
3F80
FFE0
FFF0
83F0
01F0
01F0
03E0
3FC0
3F00
3FE0
03F0
00F8
00F8
00F8
C1F8
FFF0
FFE0
7F80
ENDCHAR
STARTCHAR four
ENCODING 52
SWIDTH 687 0
DWIDTH 17 0
BBX 16 18 0 0
BITMAP
007C
00FC
01FC
03FC
07FC
0F7C
1E7C
3C7C
787C
F07C
FFFF
FFFF
FFFF
007C
007C
007C
007C
007C
ENDCHAR
STARTCHAR five
ENCODING 53
SWIDTH 687 0
DWIDTH 17 0
BBX 12 18 3 0
BITMAP
FFF0
FFF0
FFF0
E000
E000
E000
FE00
FF80
FFE0
07E0
03F0
01F0
01F0
01F0
83F0
FFE0
FFC0
7F00
ENDCHAR
STARTCHAR six
ENCODING 54
SWIDTH 687 0
DWIDTH 17 0
BBX 15 18 1 0
BITMAP
03F8
0FFC
3FFC
3F04
7C00
7C00
F800
FBF0
FFF8
FFFC
FC7E
F83E
F83E
783E
7C7C
3FFC
1FF8
07E0
ENDCHAR
STARTCHAR seven
ENCODING 55
SWIDTH 687 0
DWIDTH 17 0
BBX 13 18 3 0
BITMAP
FFF8
FFF8
FFF8
0078
00F0
01F0
03E0
03C0
0780
0F80
0F00
1E00
3E00
3E00
3C00
7C00
7C00
7C00
ENDCHAR
STARTCHAR eight
ENCODING 56
SWIDTH 687 0
DWIDTH 17 0
BBX 15 18 1 0
BITMAP
0FE0
1FF8
3FFC
7C7C
783C
7C3C
3F78
3FF0
0FF0
3FF8
7CFC
783E
F81E
F81E
FC3E
7FFC
3FF8
0FE0
ENDCHAR
STARTCHAR nine
ENCODING 57
SWIDTH 687 0
DWIDTH 17 0
BBX 15 18 1 0
BITMAP
0FC0
3FF0
7FF8
7C7C
F83C
F83E
F83E
FC7E
7FFE
3FFE
1FBE
003E
007C
007C
40F8
7FF8
7FE0
3F80
ENDCHAR
STARTCHAR colon
ENCODING 58
SWIDTH 343 0
DWIDTH 9 0
BBX 5 13 2 0
BITMAP
F8
F8
F8
F8
F8
00
00
00
F8
F8
F8
F8
F8
ENDCHAR
STARTCHAR semicolon
ENCODING 59
SWIDTH 343 0
DWIDTH 9 0
BBX 5 17 2 -4
BITMAP
F8
F8
F8
F8
F8
00
00
00
F8
F8
F8
F8
F8
38
70
F0
C0
ENDCHAR
STARTCHAR less
ENCODING 60
SWIDTH 687 0
DWIDTH 17 0
BBX 14 15 2 0
BITMAP
0004
001C
007C
01FC
07F0
1FC0
3F00
FC00
3F00
1FC0
07F0
01FC
007C
001C
0004
ENDCHAR
STARTCHAR equal
ENCODING 61
SWIDTH 687 0
DWIDTH 17 0
BBX 14 9 2 2
BITMAP
FFFC
FFFC
FFFC
0000
0000
0000
FFFC
FFFC
FFFC
ENDCHAR
STARTCHAR greater
ENCODING 62
SWIDTH 687 0
DWIDTH 17 0
BBX 14 15 2 0
BITMAP
8000
E000
F800
FE00
3F80
0FE0
03F0
00FC
03F0
0FE0
3F80
FE00
F800
E000
8000
ENDCHAR
STARTCHAR question
ENCODING 63
SWIDTH 572 0
DWIDTH 14 0
BBX 12 18 1 0
BITMAP
7F80
FFE0
FFF0
83F0
01F0
01F0
01E0
03C0
0780
0780
0F00
1F00
1F00
0000
0000
1F00
1F00
1F00
ENDCHAR
STARTCHAR at
ENCODING 64
SWIDTH 833 0
DWIDTH 21 0
BBX 19 18 3 0
BITMAP
00FC00
03FF00
0F0380
1C01C0
3800E0
30FC60
61FC60
638C60
C70860
CE3860
CE78C0
CFD9C0
CF9F80
671E00
600000
382000
1FF000
07C000
ENDCHAR
STARTCHAR A
ENCODING 65
SWIDTH 773 0
DWIDTH 19 0
BBX 19 18 0 0
BITMAP
01F000
03F800
03F800
03FC00
07FC00
077C00
0F7E00
0E3E00
0E3F00
1C1F00
1FFF00
1FFF80
3FFF80
380FC0
7807C0
7007C0
7003E0
E003E0
ENDCHAR
STARTCHAR B
ENCODING 66
SWIDTH 669 0
DWIDTH 17 0
BBX 14 18 2 0
BITMAP
FFE0
FFF0
FFF8
F8F8
F8F8
F8F8
F9F0
FFE0
FF80
FFF0
F8F8
F87C
F87C
F87C
F87C
FFFC
FFF8
FFE0
ENDCHAR
STARTCHAR C
ENCODING 67
SWIDTH 726 0
DWIDTH 18 0
BBX 17 18 1 0
BITMAP
03FF00
0FFF80
1FFF80
3F0180
7E0000
7C0000
F80000
F80000
F80000
F80000
F80000
F80000
7C0000
7E0000
3F8180
1FFF80
0FFF80
03FE00
ENDCHAR
STARTCHAR D
ENCODING 68
SWIDTH 819 0
DWIDTH 20 0
BBX 17 18 2 0
BITMAP
FFF000
FFFC00
FFFE00
F87F00
F81F00
F81F80
F80F80
F80F80
F80F80
F80F80
F80F80
F80F80
F80F00
F81F00
F83F00
FFFE00
FFFC00
FFF000
ENDCHAR
STARTCHAR E
ENCODING 69
SWIDTH 645 0
DWIDTH 16 0
BBX 13 18 2 0
BITMAP
FFF0
FFF0
FFF0
F800
F800
F800
F800
FFE0
FFE0
FFE0
F800
F800
F800
F800
F800
FFF8
FFF8
FFF8
ENDCHAR
STARTCHAR F
ENCODING 70
SWIDTH 602 0
DWIDTH 15 0
BBX 13 18 2 0
BITMAP
FFF8
FFF8
FFF8
F800
F800
F800
F800
F800
FFF0
FFF0
FFF0
F800
F800
F800
F800
F800
F800
F800
ENDCHAR
STARTCHAR G
ENCODING 71
SWIDTH 759 0
DWIDTH 19 0
BBX 16 18 1 0
BITMAP
03FF
0FFF
1FFF
3F03
7E00
7C00
F800
F800
F800
F81F
F81F
F81F
7C1F
7C1F
3F1F
3FFF
0FFF
03FE
ENDCHAR
STARTCHAR H
ENCODING 72
SWIDTH 813 0
DWIDTH 20 0
BBX 16 18 2 0
BITMAP
F81F
F81F
F81F
F81F
F81F
F81F
F81F
FFFF
FFFF
FFFF
F81F
F81F
F81F
F81F
F81F
F81F
F81F
F81F
ENDCHAR
STARTCHAR I
ENCODING 73
SWIDTH 361 0
DWIDTH 9 0
BBX 5 18 2 0
BITMAP
F8
F8
F8
F8
F8
F8
F8
F8
F8
F8
F8
F8
F8
F8
F8
F8
F8
F8
ENDCHAR
STARTCHAR J
ENCODING 74
SWIDTH 501 0
DWIDTH 13 0
BBX 10 22 0 -4
BITMAP
07C0
07C0
07C0
07C0
07C0
07C0
07C0
07C0
07C0
07C0
07C0
07C0
07C0
07C0
07C0
07C0
07C0
07C0
8FC0
FF80
FF80
7E00
ENDCHAR
STARTCHAR K
ENCODING 75
SWIDTH 753 0
DWIDTH 19 0
BBX 16 18 2 0
BITMAP
F81E
F83C
F878
F870
F8F0
F9E0
FBC0
FBC0
FFC0
FFE0
FFE0
FBF0
F9F8
F9F8
F8FC
F87E
F87E
F83F
ENDCHAR
STARTCHAR L
ENCODING 76
SWIDTH 620 0
DWIDTH 16 0
BBX 13 18 2 0
BITMAP
F800
F800
F800
F800
F800
F800
F800
F800
F800
F800
F800
F800
F800
F800
F800
FFF8
FFF8
FFF8
ENDCHAR
STARTCHAR M
ENCODING 77
SWIDTH 940 0
DWIDTH 23 0
BBX 19 18 2 0
BITMAP
FC07E0
FC07E0
FE0FE0
FE0FE0
FE0FE0
FF1FE0
EF1FE0
EF1FE0
EFBBE0
E7BBE0
E7BBE0
E7F3E0
E3F3E0
E3F3E0
E3E3E0
E1E3E0
E1E3E0
E003E0
ENDCHAR
STARTCHAR N
ENCODING 78
SWIDTH 783 0
DWIDTH 20 0
BBX 15 18 2 0
BITMAP
F00E
F80E
FC0E
FE0E
FE0E
FF0E
FF8E
FF8E
EFCE
E7EE
E3FE
E3FE
E1FE
E0FE
E0FE
E07E
E03E
E01E
ENDCHAR
STARTCHAR O
ENCODING 79
SWIDTH 855 0
DWIDTH 21 0
BBX 20 18 1 0
BITMAP
03FC00
0FFF00
1FFF80
3F0FC0
7E07E0
7C03E0
F801F0
F801F0
F801F0
F801F0
F801F0
F801F0
7C03E0
7E07E0
3F0FC0
1FFF80
0FFF00
03FC00
ENDCHAR
STARTCHAR P
ENCODING 80
SWIDTH 657 0
DWIDTH 16 0
BBX 14 18 2 0
BITMAP
FFF0
FFF8
FFFC
F8FC
F87C
F87C
F87C
F8F8
FFF8
FFF0
FFC0
F800
F800
F800
F800
F800
F800
F800
ENDCHAR
STARTCHAR Q
ENCODING 81
SWIDTH 855 0
DWIDTH 21 0
BBX 23 22 1 -4
BITMAP
03FC00
0FFF00
1FFF80
3F0FC0
7E07E0
7C03E0
F801F0
F801F0
F801F0
F801F0
F801F0
F801F0
7C03E0
7E07E0
3F0FC0
1FFF80
0FFF00
03FF00
000FFE
0007FC
0001F8
000030
ENDCHAR
STARTCHAR R
ENCODING 82
SWIDTH 734 0
DWIDTH 18 0
BBX 16 18 2 0
BITMAP
FFE0
FFF8
FFFC
F8FC
F87C
F87C
F87C
F8F8
FFF0
FFE0
FFE0
F9F0
F9F8
F8F8
F8FC
F87E
F87E
F83F
ENDCHAR
STARTCHAR S
ENCODING 83
SWIDTH 594 0
DWIDTH 15 0
BBX 13 18 1 0
BITMAP
1FF0
7FF0
7FF0
F830
F800
FC00
FF00
7F80
7FE0
1FF0
0FF8
03F8
00F8
00F8
C1F8
FFF0
FFE0
FF80
ENDCHAR
STARTCHAR T
ENCODING 84
SWIDTH 735 0
DWIDTH 18 0
BBX 19 18 0 0
BITMAP
FFFFE0
FFFFE0
FFFFE0
01F000
01F000
01F000
01F000
01F000
01F000
01F000
01F000
01F000
01F000
01F000
01F000
01F000
01F000
01F000
ENDCHAR
STARTCHAR U
ENCODING 85
SWIDTH 783 0
DWIDTH 20 0
BBX 15 18 2 0
BITMAP
F83E
F83E
F83E
F83E
F83E
F83E
F83E
F83E
F83E
F83E
F83E
F83E
F83E
F83E
7C7C
7FFC
3FF8
0FE0
ENDCHAR
STARTCHAR V
ENCODING 86
SWIDTH 735 0
DWIDTH 18 0
BBX 18 18 0 0
BITMAP
F801C0
FC0380
7C0380
7E0380
3E0700
3E0700
3F0F00
1F0E00
1F0E00
1F9E00
0F9C00
0FDC00
07F800
07F800
07F800
03F000
03F000
03F000
ENDCHAR
STARTCHAR W
ENCODING 87
SWIDTH 940 0
DWIDTH 23 0
BBX 23 18 0 0
BITMAP
F83C0E
F83C0E
F83E1C
7C7E1C
7C7E1C
7C7E1C
7C7E38
3EFF38
3EEF38
3EEF38
3EEF70
1FEFF0
1FC7F0
1FC7F0
1FC7E0
1FC7E0
0F83E0
0F83E0
ENDCHAR
STARTCHAR X
ENCODING 88
SWIDTH 699 0
DWIDTH 17 0
BBX 16 18 1 0
BITMAP
FC0F
7E1E
7E1C
3F3C
1F78
1FF0
0FF0
0FE0
07E0
07E0
07F0
0FF0
1FF8
1CFC
3CFC
387E
783E
F03F
ENDCHAR
STARTCHAR Y
ENCODING 89
SWIDTH 738 0
DWIDTH 18 0
BBX 17 18 1 0
BITMAP
FC0780
7C0700
7E0F00
3F0E00
3F1C00
1FBC00
1FB800
0FF800
07F000
07F000
03E000
03E000
03E000
03E000
03E000
03E000
03E000
03E000
ENDCHAR
STARTCHAR Z
ENCODING 90
SWIDTH 675 0
DWIDTH 17 0
BBX 14 18 1 0
BITMAP
FFFC
FFFC
FFFC
00FC
01F8
03F8
03F0
07E0
0FC0
0FC0
1F80
3F00
7F00
7E00
FC00
FFFC
FFFC
FFFC
ENDCHAR
STARTCHAR bracketleft
ENCODING 91
SWIDTH 386 0
DWIDTH 10 0
BBX 6 23 2 -4
BITMAP
FC
FC
FC
F0
F0
F0
F0
F0
F0
F0
F0
F0
F0
F0
F0
F0
F0
F0
F0
F0
FC
FC
FC
ENDCHAR
STARTCHAR backslash
ENCODING 92
SWIDTH 596 0
DWIDTH 15 0
BBX 15 23 0 -4
BITMAP
F000
7000
7800
3800
3C00
1C00
1E00
0E00
0F00
0700
0780
0380
03C0
01C0
01E0
00E0
00F0
0070
0078
0038
003C
001C
001E
ENDCHAR
STARTCHAR bracketright
ENCODING 93
SWIDTH 386 0
DWIDTH 10 0
BBX 6 23 2 -4
BITMAP
FC
FC
FC
3C
3C
3C
3C
3C
3C
3C
3C
3C
3C
3C
3C
3C
3C
3C
3C
3C
FC
FC
FC
ENDCHAR
STARTCHAR asciicircum
ENCODING 94
SWIDTH 687 0
DWIDTH 17 0
BBX 14 15 2 3
BITMAP
0100
0300
0300
0780
0780
0FC0
0FC0
1FE0
1CE0
3CF0
3870
7878
7038
7038
E01C
ENDCHAR
STARTCHAR underscore
ENCODING 95
SWIDTH 500 0
DWIDTH 13 0
BBX 11 3 1 -3
BITMAP
FFE0
FFE0
FFE0
ENDCHAR
STARTCHAR grave
ENCODING 96
SWIDTH 675 0
DWIDTH 17 0
BBX 6 3 5 16
BITMAP
F0
38
1C
ENDCHAR
STARTCHAR a
ENCODING 97
SWIDTH 623 0
DWIDTH 16 0
BBX 14 13 1 0
BITMAP
1FC0
7FF0
7FF8
41F8
00F8
1FF8
7FF8
FFF8
F8F8
F8F8
FFFC
7FFC
3E7C
ENDCHAR
STARTCHAR b
ENCODING 98
SWIDTH 696 0
DWIDTH 17 0
BBX 14 19 2 0
BITMAP
F800
F800
F800
F800
F800
F800
F9E0
FBF8
FFF8
FCFC
F87C
F87C
F87C
F87C
F87C
FCF8
FFF8
FFF0
F3E0
ENDCHAR
STARTCHAR c
ENCODING 99
SWIDTH 545 0
DWIDTH 14 0
BBX 12 13 1 0
BITMAP
0FE0
3FF0
7FF0
7E10
FC00
F800
F800
F800
FC00
7E10
7FF0
3FF0
0FF0
ENDCHAR
STARTCHAR d
ENCODING 100
SWIDTH 696 0
DWIDTH 17 0
BBX 14 19 1 0
BITMAP
007C
007C
007C
007C
007C
007C
1E7C
3FFC
7FFC
FCFC
F87C
F87C
F87C
F87C
F87C
FCFC
7FFC
7F7C
1E7C
ENDCHAR
STARTCHAR e
ENCODING 101
SWIDTH 614 0
DWIDTH 15 0
BBX 13 13 1 0
BITMAP
0FC0
3FE0
7FF0
78F0
F8F8
FFF8
FFF8
FFF8
F800
7C08
7FF8
3FF8
0FF0
ENDCHAR
STARTCHAR f
ENCODING 102
SWIDTH 461 0
DWIDTH 12 0
BBX 12 19 0 0
BITMAP
07F0
1FF0
1FF0
3E00
3E00
3E00
FFE0
FFE0
FFE0
3E00
3E00
3E00
3E00
3E00
3E00
3E00
3E00
3E00
3E00
ENDCHAR
STARTCHAR g
ENCODING 103
SWIDTH 696 0
DWIDTH 17 0
BBX 14 18 1 -5
BITMAP
1F3C
3FFC
7FFC
7CFC
F87C
F87C
F87C
F87C
F87C
FCFC
7FFC
7F7C
1E7C
007C
20FC
7FF8
7FF0
1FC0
ENDCHAR
STARTCHAR h
ENCODING 104
SWIDTH 693 0
DWIDTH 17 0
BBX 13 19 2 0
BITMAP
F800
F800
F800
F800
F800
F800
F9E0
FBF0
FFF8
FFF8
FCF8
F8F8
F8F8
F8F8
F8F8
F8F8
F8F8
F8F8
F8F8
ENDCHAR
STARTCHAR i
ENCODING 105
SWIDTH 361 0
DWIDTH 9 0
BBX 5 19 2 0
BITMAP
F8
F8
F8
00
00
00
F8
F8
F8
F8
F8
F8
F8
F8
F8
F8
F8
F8
F8
ENDCHAR
STARTCHAR j
ENCODING 106
SWIDTH 361 0
DWIDTH 9 0
BBX 10 24 -2 -5
BITMAP
07C0
07C0
07C0
0000
0000
0000
07C0
07C0
07C0
07C0
07C0
07C0
07C0
07C0
07C0
07C0
07C0
07C0
07C0
07C0
07C0
FFC0
FF80
FE00
ENDCHAR
STARTCHAR k
ENCODING 107
SWIDTH 681 0
DWIDTH 17 0
BBX 14 19 2 0
BITMAP
F800
F800
F800
F800
F800
F800
F878
F8F0
F8E0
F9C0
FBC0
FBC0
FFC0
FFE0
FBF0
FBF0
F9F8
F8F8
F8FC
ENDCHAR
STARTCHAR l
ENCODING 108
SWIDTH 361 0
DWIDTH 9 0
BBX 5 19 2 0
BITMAP
F8
F8
F8
F8
F8
F8
F8
F8
F8
F8
F8
F8
F8
F8
F8
F8
F8
F8
F8
ENDCHAR
STARTCHAR m
ENCODING 109
SWIDTH 1006 0
DWIDTH 25 0
BBX 21 13 2 0
BITMAP
FBE1F0
F7F3F8
FFFFF8
FFFFF8
FCFCF8
F8F8F8
F8F8F8
F8F8F8
F8F8F8
F8F8F8
F8F8F8
F8F8F8
F8F8F8
ENDCHAR
STARTCHAR n
ENCODING 110
SWIDTH 693 0
DWIDTH 17 0
BBX 13 13 2 0
BITMAP
F9E0
FBF0
FFF8
FFF8
FCF8
F8F8
F8F8
F8F8
F8F8
F8F8
F8F8
F8F8
F8F8
ENDCHAR
STARTCHAR o
ENCODING 111
SWIDTH 675 0
DWIDTH 17 0
BBX 15 13 1 0
BITMAP
0FE0
3FF8
7FFC
7C7C
F83E
F83E
F83E
F83E
F83E
7C7C
7FFC
3FF8
0FE0
ENDCHAR
STARTCHAR p
ENCODING 112
SWIDTH 696 0
DWIDTH 17 0
BBX 14 18 2 -5
BITMAP
F9E0
FBF8
FFF8
FCFC
F87C
F87C
F87C
F87C
F87C
FCFC
FFF8
FFF0
F9E0
F800
F800
F800
F800
F800
ENDCHAR
STARTCHAR q
ENCODING 113
SWIDTH 696 0
DWIDTH 17 0
BBX 14 18 1 -5
BITMAP
1F3C
3FFC
7FFC
7CFC
F87C
F87C
F87C
F87C
F87C
FCFC
7FFC
7F7C
1E7C
007C
007C
007C
007C
007C
ENDCHAR
STARTCHAR r
ENCODING 114
SWIDTH 500 0
DWIDTH 12 0
BBX 10 13 2 0
BITMAP
F9C0
FBC0
FFC0
FFC0
FC00
F800
F800
F800
F800
F800
F800
F800
F800
ENDCHAR
STARTCHAR s
ENCODING 115
SWIDTH 622 0
DWIDTH 16 0
BBX 12 13 2 0
BITMAP
3FC0
7FE0
FFE0
F820
F800
FF00
3FC0
0FF0
01F0
C1F0
FFF0
FFE0
7F80
ENDCHAR
STARTCHAR t
ENCODING 116
SWIDTH 436 0
DWIDTH 11 0
BBX 9 17 1 0
BITMAP
1C00
7C00
7C00
7C00
FF80
FF80
FF80
7C00
7C00
7C00
7C00
7C00
7C00
7C00
7F80
3F80
1F80
ENDCHAR
STARTCHAR u
ENCODING 117
SWIDTH 693 0
DWIDTH 17 0
BBX 13 13 2 0
BITMAP
F8F8
F8F8
F8F8
F8F8
F8F8
F8F8
F8F8
F8F8
F8F8
F9F8
FFF8
7EF8
3CF8
ENDCHAR
STARTCHAR v
ENCODING 118
SWIDTH 663 0
DWIDTH 17 0
BBX 15 13 1 0
BITMAP
F80E
FC1C
7C1C
7E3C
3E38
3E38
3F78
1F70
1FF0
0FE0
0FE0
0FE0
07C0
ENDCHAR
STARTCHAR w
ENCODING 119
SWIDTH 885 0
DWIDTH 22 0
BBX 21 13 1 0
BITMAP
F07838
78FC70
78FC70
78FC70
78FC70
3DDEE0
3DDEE0
3DDEE0
3F9FC0
1F8FC0
1F8FC0
1F8FC0
1F0F80
ENDCHAR
STARTCHAR x
ENCODING 120
SWIDTH 568 0
DWIDTH 14 0
BBX 13 13 1 0
BITMAP
FC78
7CF0
3EE0
3FE0
1FC0
1F80
0F80
0FC0
1FC0
3FE0
3BF0
79F0
F0F8
ENDCHAR
STARTCHAR y
ENCODING 121
SWIDTH 645 0
DWIDTH 16 0
BBX 15 18 1 -5
BITMAP
F81E
FC1C
7C3C
7E38
3E38
3E70
3F70
1FE0
1FE0
0FE0
0FC0
0FC0
0780
0780
0F00
0F00
1E00
3E00
ENDCHAR
STARTCHAR z
ENCODING 122
SWIDTH 608 0
DWIDTH 15 0
BBX 13 13 1 0
BITMAP
FFF8
FFF8
FFF8
03F8
07F0
0FE0
1FC0
3F80
7F00
FE00
FFF8
FFF8
FFF8
ENDCHAR
STARTCHAR braceleft
ENCODING 123
SWIDTH 386 0
DWIDTH 10 0
BBX 7 23 1 -4
BITMAP
1E
3E
7E
7C
7C
7C
7C
7C
7C
78
F8
E0
F8
78
7C
7C
7C
7C
7C
7C
7E
3E
1E
ENDCHAR
STARTCHAR bar
ENCODING 124
SWIDTH 265 0
DWIDTH 7 0
BBX 3 23 2 -4
BITMAP
E0
E0
E0
E0
E0
E0
E0
E0
E0
E0
E0
E0
E0
E0
E0
E0
E0
E0
E0
E0
E0
E0
E0
ENDCHAR
STARTCHAR braceright
ENCODING 125
SWIDTH 386 0
DWIDTH 10 0
BBX 7 23 1 -4
BITMAP
F0
F8
FC
7C
7C
7C
7C
7C
7C
3C
3E
0E
3E
3C
7C
7C
7C
7C
7C
7C
FC
F8
F0
ENDCHAR
STARTCHAR asciitilde
ENCODING 126
SWIDTH 687 0
DWIDTH 17 0
BBX 14 6 2 4
BITMAP
3C1C
7E1C
FF9C
E7FC
E1F8
E0F0
ENDCHAR
STARTCHAR space
ENCODING 160
SWIDTH 343 0
DWIDTH 9 0
BBX 1 1 0 0
BITMAP
00
ENDCHAR
STARTCHAR exclamdown
ENCODING 161
SWIDTH 265 0
DWIDTH 9 0
BBX 5 18 2 -5
BITMAP
F8
F8
F8
00
00
70
70
70
70
70
F8
F8
F8
F8
F8
F8
F8
F8
ENDCHAR
STARTCHAR cent
ENCODING 162
SWIDTH 687 0
DWIDTH 17 0
BBX 13 18 2 0
BITMAP
0380
0380
07F8
3FF8
7FF8
7C08
F800
F800
F800
F800
FC00
FE00
7FF8
7FF8
1FF8
0380
0380
0380
ENDCHAR
STARTCHAR sterling
ENCODING 163
SWIDTH 687 0
DWIDTH 17 0
BBX 12 18 3 0
BITMAP
07F0
1FF0
1FF0
3E00
3E00
3E00
3E00
FF80
FF80
FF80
3E00
3E00
3C00
3C00
7000
FFF0
FFF0
FFF0
ENDCHAR
STARTCHAR currency
ENCODING 164
SWIDTH 687 0
DWIDTH 17 0
BBX 17 18 0 0
BITMAP
600300
E00380
F00780
780F00
3DDE00
1FFC00
0FF800
1E3C00
1C1C00
1C1C00
1C1C00
0E3800
1FFC00
3FFE00
7FFF00
F80F80
F00780
600300
ENDCHAR
STARTCHAR yen
ENCODING 165
SWIDTH 687 0
DWIDTH 17 0
BBX 16 18 1 0
BITMAP
FC0F
7C0E
7E1E
3F1C
3F38
1FF8
0FF0
0FF0
07E0
1FF8
1FF8
03E0
1FF8
1FF8
03E0
03E0
03E0
03E0
ENDCHAR
STARTCHAR brokenbar
ENCODING 166
SWIDTH 265 0
DWIDTH 7 0
BBX 3 23 2 -4
BITMAP
E0
E0
E0
E0
E0
E0
E0
E0
E0
00
00
00
00
00
E0
E0
E0
E0
E0
E0
E0
E0
E0
ENDCHAR
STARTCHAR section
ENCODING 167
SWIDTH 693 0
DWIDTH 17 0
BBX 13 23 2 -5
BITMAP
1FF0
7FF0
FFF0
F810
F800
FE00
7FC0
3FE0
7FF0
6FF8
E3F8
F078
FE38
FFF0
7FF0
3FF0
0FF8
03F8
00F8
C0F8
FFF0
FFF0
FFC0
ENDCHAR
STARTCHAR dieresis
ENCODING 168
SWIDTH 675 0
DWIDTH 17 0
BBX 8 3 4 15
BITMAP
E7
E7
E7
ENDCHAR
STARTCHAR copyright
ENCODING 169
SWIDTH 825 0
DWIDTH 21 0
BBX 19 18 1 0
BITMAP
01F000
0FFE00
1E0F00
380380
71F9C0
67FCC0
E704E0
CE0060
CE0060
CE0060
CE0060
E704E0
63FCC0
71F9C0
380380
1E0F00
0FFE00
01F000
ENDCHAR
STARTCHAR ordfeminine
ENCODING 170
SWIDTH 536 0
DWIDTH 13 0
BBX 12 10 1 8
BITMAP
7F80
FFC0
C3E0
03E0
3FE0
FFE0
F3E0
F3F0
FFF0
7CF0
ENDCHAR
STARTCHAR guillemotleft
ENCODING 171
SWIDTH 614 0
DWIDTH 15 0
BBX 14 11 1 1
BITMAP
0410
0E3C
1F78
3C78
78F0
F9E0
78F0
3C78
1E78
0F3C
0410
ENDCHAR
STARTCHAR logicalnot
ENCODING 172
SWIDTH 687 0
DWIDTH 17 0
BBX 14 9 2 2
BITMAP
FFFC
FFFC
FFFC
001C
001C
001C
001C
001C
001C
ENDCHAR
STARTCHAR hyphen
ENCODING 173
SWIDTH 289 0
DWIDTH 7 0
BBX 5 3 1 6
BITMAP
F8
F8
F8
ENDCHAR
STARTCHAR registered
ENCODING 174
SWIDTH 687 0
DWIDTH 17 0
BBX 13 13 2 5
BITMAP
0F80
1FE0
38F0
6FB0
EFB8
CD98
CF98
CF18
EDB8
6DB0
78F0
3FE0
0F80
ENDCHAR
STARTCHAR macron
ENCODING 175
SWIDTH 675 0
DWIDTH 17 0
BBX 8 3 4 15
BITMAP
FF
FF
FF
ENDCHAR
STARTCHAR degree
ENCODING 176
SWIDTH 241 0
DWIDTH 6 0
BBX 4 4 1 14
BITMAP
60
90
90
60
ENDCHAR
STARTCHAR plusminus
ENCODING 177
SWIDTH 687 0
DWIDTH 17 0
BBX 15 15 1 0
BITMAP
0380
0380
0380
0380
FFFE
FFFE
FFFE
0380
0380
0380
0380
0000
FFFE
FFFE
FFFE
ENDCHAR
STARTCHAR twosuperior
ENCODING 178
SWIDTH 536 0
DWIDTH 10 0
BBX 8 11 -16 7
BITMAP
7C
FF
87
07
07
0E
1C
78
F0
FF
FF
ENDCHAR
STARTCHAR threesuperior
ENCODING 179
SWIDTH 536 0
DWIDTH 10 0
BBX 8 11 -16 7
BITMAP
7C
FF
87
07
7E
7C
0E
07
87
FF
FC
ENDCHAR
STARTCHAR acute
ENCODING 180
SWIDTH 675 0
DWIDTH 17 0
BBX 6 3 6 16
BITMAP
3C
70
E0
ENDCHAR
STARTCHAR mu
ENCODING 181
SWIDTH 699 0
DWIDTH 17 0
BBX 13 17 2 -4
BITMAP
F8F8
F8F8
F8F8
F8F8
F8F8
F8F8
F8F8
F8F8
F8F8
F9F8
FFF8
FFF8
FEF8
F800
F800
F800
F800
ENDCHAR
STARTCHAR paragraph
ENCODING 182
SWIDTH 693 0
DWIDTH 17 0
BBX 11 22 2 -4
BITMAP
3FE0
7FE0
FFE0
FFE0
FFE0
FFE0
FFE0
7FE0
1FE0
07E0
07E0
07E0
07E0
07E0
07E0
07E0
07E0
07E0
07E0
07E0
07E0
07E0
ENDCHAR
STARTCHAR periodcentered
ENCODING 183
SWIDTH 343 0
DWIDTH 17 0
BBX 4 3 7 6
BITMAP
F0
F0
F0
ENDCHAR
STARTCHAR cedilla
ENCODING 184
SWIDTH 675 0
DWIDTH 17 0
BBX 5 5 6 -5
BITMAP
30
60
38
F8
F0
ENDCHAR
STARTCHAR onesuperior
ENCODING 185
SWIDTH 536 0
DWIDTH 10 0
BBX 5 11 -17 7
BITMAP
F8
F8
38
38
38
38
38
38
38
38
38
ENDCHAR
STARTCHAR ordmasculine
ENCODING 186
SWIDTH 536 0
DWIDTH 13 0
BBX 12 10 1 8
BITMAP
1F80
7FE0
7BE0
F1F0
F1F0
F1F0
F1F0
7BE0
7FE0
1F80
ENDCHAR
STARTCHAR guillemotright
ENCODING 187
SWIDTH 614 0
DWIDTH 15 0
BBX 14 11 1 1
BITMAP
2080
F3C0
79E0
78F0
3C78
1E7C
3C78
78F0
7BE0
F1C0
2080
ENDCHAR
STARTCHAR onequarter
ENCODING 188
SWIDTH 1066 0
DWIDTH 23 0
BBX 21 18 6 0
BITMAP
F801E0
F803C0
380780
380F00
380E00
381E00
383C00
387870
38F0F0
38F1F0
39E370
03C770
078E70
070FF8
0F0FF8
1E0070
3C0070
780070
ENDCHAR
STARTCHAR onehalf
ENCODING 189
SWIDTH 1066 0
DWIDTH 23 0
BBX 20 18 6 0
BITMAP
F801E0
F803C0
380780
380F00
380E00
381E00
383C00
387FC0
38FFF0
38F870
39E070
03C070
0780E0
0701C0
0F0780
1E0F00
3C0FF0
780FF0
ENDCHAR
STARTCHAR threequarters
ENCODING 190
SWIDTH 1120 0
DWIDTH 23 0
BBX 21 18 6 0
BITMAP
7C01E0
FF03C0
870780
070F00
7E0E00
7C1E00
0E3C00
077870
87F0F0
FFF1F0
FDE370
03C770
078E70
070FF8
0F0FF8
1E0070
3C0070
780070
ENDCHAR
STARTCHAR questiondown
ENCODING 191
SWIDTH 572 0
DWIDTH 14 0
BBX 12 18 1 -5
BITMAP
0F80
0F80
0F80
0000
0000
0F80
0F80
0F00
1E00
3E00
3C00
7800
F800
F800
FC10
FFF0
7FF0
1FE0
ENDCHAR
STARTCHAR Agrave
ENCODING 192
SWIDTH 773 0
DWIDTH 19 0
BBX 19 22 0 0
BITMAP
03C000
00E000
007000
000000
01F000
03F800
03F800
03FC00
07FC00
077C00
0F7E00
0E3E00
0E3F00
1C1F00
1FFF00
1FFF80
3FFF80
380FC0
7807C0
7007C0
7003E0
E003E0
ENDCHAR
STARTCHAR Aacute
ENCODING 193
SWIDTH 773 0
DWIDTH 19 0
BBX 19 22 0 0
BITMAP
003C00
007000
00E000
000000
01F000
03F800
03F800
03FC00
07FC00
077C00
0F7E00
0E3E00
0E3F00
1C1F00
1FFF00
1FFF80
3FFF80
380FC0
7807C0
7007C0
7003E0
E003E0
ENDCHAR
STARTCHAR Acircumflex
ENCODING 194
SWIDTH 773 0
DWIDTH 19 0
BBX 19 22 0 0
BITMAP
01F000
03F800
071C00
000000
01F000
03F800
03F800
03FC00
07FC00
077C00
0F7E00
0E3E00
0E3F00
1C1F00
1FFF00
1FFF80
3FFF80
380FC0
7807C0
7007C0
7003E0
E003E0
ENDCHAR
STARTCHAR Atilde
ENCODING 195
SWIDTH 773 0
DWIDTH 19 0
BBX 19 22 0 0
BITMAP
03DC00
07FC00
077800
000000
01F000
03F800
03F800
03FC00
07FC00
077C00
0F7E00
0E3E00
0E3F00
1C1F00
1FFF00
1FFF80
3FFF80
380FC0
7807C0
7007C0
7003E0
E003E0
ENDCHAR
STARTCHAR Adieresis
ENCODING 196
SWIDTH 773 0
DWIDTH 19 0
BBX 19 22 0 0
BITMAP
039C00
039C00
039C00
000000
01F000
03F800
03F800
03FC00
07FC00
077C00
0F7E00
0E3E00
0E3F00
1C1F00
1FFF00
1FFF80
3FFF80
380FC0
7807C0
7007C0
7003E0
E003E0
ENDCHAR
STARTCHAR Aring
ENCODING 197
SWIDTH 773 0
DWIDTH 19 0
BBX 19 23 0 0
BITMAP
006000
009000
009000
006000
000000
01F000
03F800
03F800
03FC00
07FC00
077C00
0F7E00
0E3E00
0E3F00
1C1F00
1FFF00
1FFF80
3FFF80
380FC0
7807C0
7007C0
7003E0
E003E0
ENDCHAR
STARTCHAR AE
ENCODING 198
SWIDTH 997 0
DWIDTH 25 0
BBX 24 18 0 0
BITMAP
003FFE
007FFE
007FFE
00FF00
00FF00
01FF00
01DF00
03DFFC
079FFC
071FFC
0F1F00
0FFF00
1FFF00
1FFF00
3C1F00
381FFF
701FFF
F01FFF
ENDCHAR
STARTCHAR Ccedilla
ENCODING 199
SWIDTH 726 0
DWIDTH 18 0
BBX 17 23 1 -5
BITMAP
03FF00
0FFF80
1FFF80
3F0180
7E0000
7C0000
F80000
F80000
F80000
F80000
F80000
F80000
7C0000
7E0000
3F8180
1FFF80
0FFF80
03FE00
00C000
018000
00E000
03E000
03C000
ENDCHAR
STARTCHAR Egrave
ENCODING 200
SWIDTH 645 0
DWIDTH 16 0
BBX 13 22 2 0
BITMAP
1E00
0700
0380
0000
FFF0
FFF0
FFF0
F800
F800
F800
F800
FFE0
FFE0
FFE0
F800
F800
F800
F800
F800
FFF8
FFF8
FFF8
ENDCHAR
STARTCHAR Eacute
ENCODING 201
SWIDTH 645 0
DWIDTH 16 0
BBX 13 22 2 0
BITMAP
03C0
0700
0E00
0000
FFF0
FFF0
FFF0
F800
F800
F800
F800
FFE0
FFE0
FFE0
F800
F800
F800
F800
F800
FFF8
FFF8
FFF8
ENDCHAR
STARTCHAR Ecircumflex
ENCODING 202
SWIDTH 645 0
DWIDTH 16 0
BBX 13 22 2 0
BITMAP
0F80
1FC0
38E0
0000
FFF0
FFF0
FFF0
F800
F800
F800
F800
FFE0
FFE0
FFE0
F800
F800
F800
F800
F800
FFF8
FFF8
FFF8
ENDCHAR
STARTCHAR Edieresis
ENCODING 203
SWIDTH 645 0
DWIDTH 16 0
BBX 13 22 2 0
BITMAP
39C0
39C0
39C0
0000
FFF0
FFF0
FFF0
F800
F800
F800
F800
FFE0
FFE0
FFE0
F800
F800
F800
F800
F800
FFF8
FFF8
FFF8
ENDCHAR
STARTCHAR Igrave
ENCODING 204
SWIDTH 361 0
DWIDTH 9 0
BBX 6 22 3 0
BITMAP
F0
38
1C
00
7C
7C
7C
7C
7C
7C
7C
7C
7C
7C
7C
7C
7C
7C
7C
7C
7C
7C
ENDCHAR
STARTCHAR Iacute
ENCODING 205
SWIDTH 361 0
DWIDTH 9 0
BBX 7 22 2 0
BITMAP
1E
38
70
00
F8
F8
F8
F8
F8
F8
F8
F8
F8
F8
F8
F8
F8
F8
F8
F8
F8
F8
ENDCHAR
STARTCHAR Icircumflex
ENCODING 206
SWIDTH 361 0
DWIDTH 9 0
BBX 9 22 4 0
BITMAP
3E00
7F00
E380
0000
3E00
3E00
3E00
3E00
3E00
3E00
3E00
3E00
3E00
3E00
3E00
3E00
3E00
3E00
3E00
3E00
3E00
3E00
ENDCHAR
STARTCHAR Idieresis
ENCODING 207
SWIDTH 361 0
DWIDTH 9 0
BBX 8 22 3 0
BITMAP
E7
E7
E7
00
7C
7C
7C
7C
7C
7C
7C
7C
7C
7C
7C
7C
7C
7C
7C
7C
7C
7C
ENDCHAR
STARTCHAR Eth
ENCODING 208
SWIDTH 819 0
DWIDTH 20 0
BBX 19 18 0 0
BITMAP
3FFC00
3FFF00
3FFF80
3E1FC0
3E07C0
3E07E0
3E03E0
FFE3E0
FFE3E0
FFE3E0
3E03E0
3E03E0
3E03C0
3E07C0
3E0FC0
3FFF80
3FFF00
3FFC00
ENDCHAR
STARTCHAR Ntilde
ENCODING 209
SWIDTH 783 0
DWIDTH 20 0
BBX 15 22 2 0
BITMAP
0F70
1FF0
1DE0
0000
F00E
F80E
FC0E
FE0E
FE0E
FF0E
FF8E
FF8E
EFCE
E7EE
E3FE
E3FE
E1FE
E0FE
E0FE
E07E
E03E
E01E
ENDCHAR
STARTCHAR Ograve
ENCODING 210
SWIDTH 855 0
DWIDTH 21 0
BBX 20 22 1 0
BITMAP
01E000
007000
003800
000000
03FC00
0FFF00
1FFF80
3F0FC0
7E07E0
7C03E0
F801F0
F801F0
F801F0
F801F0
F801F0
F801F0
7C03E0
7E07E0
3F0FC0
1FFF80
0FFF00
03FC00
ENDCHAR
STARTCHAR Oacute
ENCODING 211
SWIDTH 855 0
DWIDTH 21 0
BBX 20 22 1 0
BITMAP
003C00
007000
00E000
000000
03FC00
0FFF00
1FFF80
3F0FC0
7E07E0
7C03E0
F801F0
F801F0
F801F0
F801F0
F801F0
F801F0
7C03E0
7E07E0
3F0FC0
1FFF80
0FFF00
03FC00
ENDCHAR
STARTCHAR Ocircumflex
ENCODING 212
SWIDTH 855 0
DWIDTH 21 0
BBX 20 22 1 0
BITMAP
00F800
01FC00
038E00
000000
03FC00
0FFF00
1FFF80
3F0FC0
7E07E0
7C03E0
F801F0
F801F0
F801F0
F801F0
F801F0
F801F0
7C03E0
7E07E0
3F0FC0
1FFF80
0FFF00
03FC00
ENDCHAR
STARTCHAR Otilde
ENCODING 213
SWIDTH 855 0
DWIDTH 21 0
BBX 20 22 1 0
BITMAP
01EE00
03FE00
03BC00
000000
03FC00
0FFF00
1FFF80
3F0FC0
7E07E0
7C03E0
F801F0
F801F0
F801F0
F801F0
F801F0
F801F0
7C03E0
7E07E0
3F0FC0
1FFF80
0FFF00
03FC00
ENDCHAR
STARTCHAR Odieresis
ENCODING 214
SWIDTH 855 0
DWIDTH 21 0
BBX 20 22 1 0
BITMAP
039C00
039C00
039C00
000000
03FC00
0FFF00
1FFF80
3F0FC0
7E07E0
7C03E0
F801F0
F801F0
F801F0
F801F0
F801F0
F801F0
7C03E0
7E07E0
3F0FC0
1FFF80
0FFF00
03FC00
ENDCHAR
STARTCHAR multiply
ENCODING 215
SWIDTH 687 0
DWIDTH 17 0
BBX 14 15 2 0
BITMAP
6018
E01C
F03C
7878
3CF0
1FE0
0FC0
0780
0FC0
1FE0
3CF0
7878
F03C
E01C
6018
ENDCHAR
STARTCHAR Oslash
ENCODING 216
SWIDTH 855 0
DWIDTH 21 0
BBX 20 18 1 0
BITMAP
03FCF0
0FFFE0
1FFFC0
3F0FC0
7E0FE0
7C1FE0
F83DF0
F879F0
F8F1F0
F8F1F0
F9E1F0
FBC1F0
7F83E0
7F07E0
3F0FC0
3FFF80
7FFF00
F3FC00
ENDCHAR
STARTCHAR Ugrave
ENCODING 217
SWIDTH 783 0
DWIDTH 20 0
BBX 15 22 2 0
BITMAP
0F00
0380
01C0
0000
F83E
F83E
F83E
F83E
F83E
F83E
F83E
F83E
F83E
F83E
F83E
F83E
F83E
F83E
7C7C
7FFC
3FF8
0FE0
ENDCHAR
STARTCHAR Uacute
ENCODING 218
SWIDTH 783 0
DWIDTH 20 0
BBX 15 22 2 0
BITMAP
00F0
01C0
0380
0000
F83E
F83E
F83E
F83E
F83E
F83E
F83E
F83E
F83E
F83E
F83E
F83E
F83E
F83E
7C7C
7FFC
3FF8
0FE0
ENDCHAR
STARTCHAR Ucircumflex
ENCODING 219
SWIDTH 783 0
DWIDTH 20 0
BBX 15 22 2 0
BITMAP
07C0
0FE0
1C70
0000
F83E
F83E
F83E
F83E
F83E
F83E
F83E
F83E
F83E
F83E
F83E
F83E
F83E
F83E
7C7C
7FFC
3FF8
0FE0
ENDCHAR
STARTCHAR Udieresis
ENCODING 220
SWIDTH 783 0
DWIDTH 20 0
BBX 15 22 2 0
BITMAP
0E70
0E70
0E70
0000
F83E
F83E
F83E
F83E
F83E
F83E
F83E
F83E
F83E
F83E
F83E
F83E
F83E
F83E
7C7C
7FFC
3FF8
0FE0
ENDCHAR
STARTCHAR Yacute
ENCODING 221
SWIDTH 738 0
DWIDTH 18 0
BBX 17 22 1 0
BITMAP
007800
00E000
01C000
000000
FC0780
7C0700
7E0F00
3F0E00
3F1C00
1FBC00
1FB800
0FF800
07F000
07F000
03E000
03E000
03E000
03E000
03E000
03E000
03E000
03E000
ENDCHAR
STARTCHAR Thorn
ENCODING 222
SWIDTH 657 0
DWIDTH 16 0
BBX 14 18 2 0
BITMAP
F800
F800
F800
FFF0
FFF8
FFFC
F8FC
F87C
F87C
F87C
F8F8
FFF8
FFF0
FFC0
F800
F800
F800
F800
ENDCHAR
STARTCHAR germandbls
ENCODING 223
SWIDTH 724 0
DWIDTH 18 0
BBX 16 19 2 0
BITMAP
0FC0
3FF0
7FF0
F8F0
F870
F8E0
F8E0
F9C0
F9E0
FBF8
F9FC
F9FE
F8FF
F83F
F81F
F80F
F9FF
F9FE
F9F8
ENDCHAR
STARTCHAR agrave
ENCODING 224
SWIDTH 623 0
DWIDTH 16 0
BBX 14 17 1 0
BITMAP
0F00
0380
01C0
0000
1FC0
7FF0
7FF8
41F8
00F8
1FF8
7FF8
FFF8
F8F8
F8F8
FFFC
7FFC
3E7C
ENDCHAR
STARTCHAR aacute
ENCODING 225
SWIDTH 623 0
DWIDTH 16 0
BBX 14 17 1 0
BITMAP
01E0
0380
0700
0000
1FC0
7FF0
7FF8
41F8
00F8
1FF8
7FF8
FFF8
F8F8
F8F8
FFFC
7FFC
3E7C
ENDCHAR
STARTCHAR acircumflex
ENCODING 226
SWIDTH 623 0
DWIDTH 16 0
BBX 14 17 1 0
BITMAP
07C0
0FE0
1C70
0000
1FC0
7FF0
7FF8
41F8
00F8
1FF8
7FF8
FFF8
F8F8
F8F8
FFFC
7FFC
3E7C
ENDCHAR
STARTCHAR atilde
ENCODING 227
SWIDTH 623 0
DWIDTH 16 0
BBX 14 17 1 0
BITMAP
0F70
1FF0
1DE0
0000
1FC0
7FF0
7FF8
41F8
00F8
1FF8
7FF8
FFF8
F8F8
F8F8
FFFC
7FFC
3E7C
ENDCHAR
STARTCHAR adieresis
ENCODING 228
SWIDTH 623 0
DWIDTH 16 0
BBX 14 17 1 0
BITMAP
1CE0
1CE0
1CE0
0000
1FC0
7FF0
7FF8
41F8
00F8
1FF8
7FF8
FFF8
F8F8
F8F8
FFFC
7FFC
3E7C
ENDCHAR
STARTCHAR aring
ENCODING 229
SWIDTH 623 0
DWIDTH 16 0
BBX 14 18 1 0
BITMAP
0300
0480
0480
0300
0000
1FC0
7FF0
7FF8
41F8
00F8
1FF8
7FF8
FFF8
F8F8
F8F8
FFFC
7FFC
3E7C
ENDCHAR
STARTCHAR ae
ENCODING 230
SWIDTH 913 0
DWIDTH 23 0
BBX 21 13 1 0
BITMAP
1F8FC0
7FDFE0
7FFFF0
40F9F0
00F8F8
1FFFF8
7FFFF8
FFFFF8
F8F800
F8F808
FFFFF8
7F3FF8
3E0FF0
ENDCHAR
STARTCHAR ccedilla
ENCODING 231
SWIDTH 545 0
DWIDTH 14 0
BBX 12 18 1 -5
BITMAP
0FE0
3FF0
7FF0
7E10
FC00
F800
F800
F800
FC00
7E10
7FF0
3FF0
0FF0
0300
0600
0380
0F80
0F00
ENDCHAR
STARTCHAR egrave
ENCODING 232
SWIDTH 614 0
DWIDTH 15 0
BBX 13 17 1 0
BITMAP
1E00
0700
0380
0000
0FC0
3FE0
7FF0
78F0
F8F8
FFF8
FFF8
FFF8
F800
7C08
7FF8
3FF8
0FF0
ENDCHAR
STARTCHAR eacute
ENCODING 233
SWIDTH 614 0
DWIDTH 15 0
BBX 13 17 1 0
BITMAP
01E0
0380
0700
0000
0FC0
3FE0
7FF0
78F0
F8F8
FFF8
FFF8
FFF8
F800
7C08
7FF8
3FF8
0FF0
ENDCHAR
STARTCHAR ecircumflex
ENCODING 234
SWIDTH 614 0
DWIDTH 15 0
BBX 13 17 1 0
BITMAP
0F80
1FC0
38E0
0000
0FC0
3FE0
7FF0
78F0
F8F8
FFF8
FFF8
FFF8
F800
7C08
7FF8
3FF8
0FF0
ENDCHAR
STARTCHAR edieresis
ENCODING 235
SWIDTH 614 0
DWIDTH 15 0
BBX 13 17 1 0
BITMAP
1CE0
1CE0
1CE0
0000
0FC0
3FE0
7FF0
78F0
F8F8
FFF8
FFF8
FFF8
F800
7C08
7FF8
3FF8
0FF0
ENDCHAR
STARTCHAR igrave
ENCODING 236
SWIDTH 361 0
DWIDTH 9 0
BBX 6 17 3 0
BITMAP
F0
38
1C
00
7C
7C
7C
7C
7C
7C
7C
7C
7C
7C
7C
7C
7C
ENDCHAR
STARTCHAR iacute
ENCODING 237
SWIDTH 361 0
DWIDTH 9 0
BBX 7 17 2 0
BITMAP
1E
38
70
00
F8
F8
F8
F8
F8
F8
F8
F8
F8
F8
F8
F8
F8
ENDCHAR
STARTCHAR icircumflex
ENCODING 238
SWIDTH 361 0
DWIDTH 9 0
BBX 9 17 4 0
BITMAP
3E00
7F00
E380
0000
3E00
3E00
3E00
3E00
3E00
3E00
3E00
3E00
3E00
3E00
3E00
3E00
3E00
ENDCHAR
STARTCHAR idieresis
ENCODING 239
SWIDTH 361 0
DWIDTH 9 0
BBX 8 17 3 0
BITMAP
E7
E7
E7
00
7C
7C
7C
7C
7C
7C
7C
7C
7C
7C
7C
7C
7C
ENDCHAR
STARTCHAR eth
ENCODING 240
SWIDTH 675 0
DWIDTH 17 0
BBX 15 22 1 0
BITMAP
0080
01C0
03E0
F780
FF80
FFE0
3FF0
79F8
70F8
2FFC
3FFC
7FFE
7C7E
F83E
F83E
F83E
F83E
F83E
7C7C
7FF8
3FF0
0FC0
ENDCHAR
STARTCHAR ntilde
ENCODING 241
SWIDTH 693 0
DWIDTH 17 0
BBX 13 17 2 0
BITMAP
1EE0
3FE0
3BC0
0000
F9E0
FBF0
FFF8
FFF8
FCF8
F8F8
F8F8
F8F8
F8F8
F8F8
F8F8
F8F8
F8F8
ENDCHAR
STARTCHAR ograve
ENCODING 242
SWIDTH 675 0
DWIDTH 17 0
BBX 15 17 1 0
BITMAP
0F00
0380
01C0
0000
0FE0
3FF8
7FFC
7C7C
F83E
F83E
F83E
F83E
F83E
7C7C
7FFC
3FF8
0FE0
ENDCHAR
STARTCHAR oacute
ENCODING 243
SWIDTH 675 0
DWIDTH 17 0
BBX 15 17 1 0
BITMAP
00F0
01C0
0380
0000
0FE0
3FF8
7FFC
7C7C
F83E
F83E
F83E
F83E
F83E
7C7C
7FFC
3FF8
0FE0
ENDCHAR
STARTCHAR ocircumflex
ENCODING 244
SWIDTH 675 0
DWIDTH 17 0
BBX 15 17 1 0
BITMAP
07C0
0FE0
1C70
0000
0FE0
3FF8
7FFC
7C7C
F83E
F83E
F83E
F83E
F83E
7C7C
7FFC
3FF8
0FE0
ENDCHAR
STARTCHAR otilde
ENCODING 245
SWIDTH 675 0
DWIDTH 17 0
BBX 15 17 1 0
BITMAP
0F70
1FF0
1DE0
0000
0FE0
3FF8
7FFC
7C7C
F83E
F83E
F83E
F83E
F83E
7C7C
7FFC
3FF8
0FE0
ENDCHAR
STARTCHAR odieresis
ENCODING 246
SWIDTH 675 0
DWIDTH 17 0
BBX 15 17 1 0
BITMAP
0E70
0E70
0E70
0000
0FE0
3FF8
7FFC
7C7C
F83E
F83E
F83E
F83E
F83E
7C7C
7FFC
3FF8
0FE0
ENDCHAR
STARTCHAR divide
ENCODING 247
SWIDTH 687 0
DWIDTH 17 0
BBX 14 15 2 0
BITMAP
0700
0700
0700
0000
0000
0000
FFFC
FFFC
FFFC
0000
0000
0000
0700
0700
0700
ENDCHAR
STARTCHAR oslash
ENCODING 248
SWIDTH 675 0
DWIDTH 17 0
BBX 15 13 1 0
BITMAP
0FFE
3FFC
7FFC
7CFC
F9FE
FBFE
FFBE
FFBE
FF3E
7E7C
7FFC
7FF8
FFE0
ENDCHAR
STARTCHAR ugrave
ENCODING 249
SWIDTH 693 0
DWIDTH 17 0
BBX 13 17 2 0
BITMAP
1E00
0700
0380
0000
F8F8
F8F8
F8F8
F8F8
F8F8
F8F8
F8F8
F8F8
F8F8
F9F8
FFF8
7EF8
3CF8
ENDCHAR
STARTCHAR uacute
ENCODING 250
SWIDTH 693 0
DWIDTH 17 0
BBX 13 17 2 0
BITMAP
01E0
0380
0700
0000
F8F8
F8F8
F8F8
F8F8
F8F8
F8F8
F8F8
F8F8
F8F8
F9F8
FFF8
7EF8
3CF8
ENDCHAR
STARTCHAR ucircumflex
ENCODING 251
SWIDTH 693 0
DWIDTH 17 0
BBX 13 17 2 0
BITMAP
0F80
1FC0
38E0
0000
F8F8
F8F8
F8F8
F8F8
F8F8
F8F8
F8F8
F8F8
F8F8
F9F8
FFF8
7EF8
3CF8
ENDCHAR
STARTCHAR udieresis
ENCODING 252
SWIDTH 693 0
DWIDTH 17 0
BBX 13 17 2 0
BITMAP
1CE0
1CE0
1CE0
0000
F8F8
F8F8
F8F8
F8F8
F8F8
F8F8
F8F8
F8F8
F8F8
F9F8
FFF8
7EF8
3CF8
ENDCHAR
STARTCHAR yacute
ENCODING 253
SWIDTH 645 0
DWIDTH 16 0
BBX 15 22 1 -5
BITMAP
01E0
0380
0700
0000
F81E
FC1C
7C3C
7E38
3E38
3E70
3F70
1FE0
1FE0
0FE0
0FC0
0FC0
0780
0780
0F00
0F00
1E00
3E00
ENDCHAR
STARTCHAR thorn
ENCODING 254
SWIDTH 696 0
DWIDTH 17 0
BBX 14 23 2 -5
BITMAP
F800
F800
F800
F800
F800
F9E0
FBF8
FFF8
FCFC
F87C
F87C
F87C
F87C
F87C
FCFC
FFF8
FFF0
F9E0
F800
F800
F800
F800
F800
ENDCHAR
STARTCHAR ydieresis
ENCODING 255
SWIDTH 645 0
DWIDTH 16 0
BBX 15 22 1 -5
BITMAP
0E70
0E70
0E70
0000
F81E
FC1C
7C3C
7E38
3E38
3E70
3F70
1FE0
1FE0
0FE0
0FC0
0FC0
0780
0780
0F00
0F00
1E00
3E00
ENDCHAR
ENDFONT
