STARTFONT 2.1
COMMENT AUTOMATICALLY GENERATED FILE. DO NOT EDIT!
COMMENT Generated with 'ucs2any.pl luIS24.bdf ../../../fonts/util/map-ISO8859-1 ISO8859-1'
COMMENT from an ISO10646-1 encoded source BDF font.
COMMENT ucs2any.pl by Markus Kuhn <mkuhn@acm.org>, 2000.
COMMENT $Xorg: $
COMMENT ISO10646-1 extension by Markus Kuhn <mkuhn@acm.org>, 2001-03-20
COMMENT  (c) Copyright Bigelow & Holmes 1986, 1985. Lucida is a registered
COMMENT  trademark of Bigelow & Holmes. See LEGAL NOTICE file for terms 
COMMENT  of the license. 
FONT -B&H-Lucida-Medium-I-Normal-Sans-34-240-100-100-P-192-ISO8859-1
SIZE 24 100 100
FONTBOUNDINGBOX 66 39 -22 -7
STARTPROPERTIES 22
COMMENT Begin LogicalFontDescription
FONTNAME_REGISTRY ""
FOUNDRY "B&H"
FAMILY_NAME "Lucida"
WEIGHT_NAME "Medium"
SLANT "I"
SETWIDTH_NAME "Normal"
ADD_STYLE_NAME "Sans"
PIXEL_SIZE 34
POINT_SIZE 240
RESOLUTION_X 100
RESOLUTION_Y 100
SPACING "P"
AVERAGE_WIDTH 192
CHARSET_REGISTRY "ISO8859"
CHARSET_ENCODING "1"
COMMENT END LogicalFontDescription
FONT_ASCENT 31
FONT_DESCENT 8
DEFAULT_CHAR 0
COPYRIGHT "Copyright Bigelow & Holmes 1986, 1985."
FACE_NAME "Lucida Sans Italic"
X_HEIGHT 18
CAP_HEIGHT 25
ENDPROPERTIES
CHARS 192
STARTCHAR defaultchar
ENCODING 0
SWIDTH 735 0
DWIDTH 25 0
BBX 23 25 3 0
BITMAP
AAAAAA
000000
800002
000000
800002
000000
800002
000000
800002
000000
800002
000000
800002
000000
800002
000000
800002
000000
800002
000000
800002
000000
800002
000000
AAAAAA
ENDCHAR
STARTCHAR space
ENCODING 32
SWIDTH 316 0
DWIDTH 11 0
BBX 1 1 0 0
BITMAP
00
ENDCHAR
STARTCHAR exclam
ENCODING 33
SWIDTH 193 0
DWIDTH 11 0
BBX 8 25 4 0
BITMAP
07
0F
0F
0E
0E
0E
0E
1C
1C
1C
1C
1C
18
38
38
38
30
30
00
00
00
00
70
F0
E0
ENDCHAR
STARTCHAR quotedbl
ENCODING 34
SWIDTH 361 0
DWIDTH 12 0
BBX 9 8 6 18
BITMAP
E380
E380
E380
E380
E380
E380
E380
E380
ENDCHAR
STARTCHAR numbersign
ENCODING 35
SWIDTH 633 0
DWIDTH 21 0
BBX 21 25 3 0
BITMAP
000C38
001870
001870
0030E0
0030E0
0061C0
0061C0
3FFFF8
3FFFF8
3FFFF8
018300
018600
030600
030C00
060C00
FFFFE0
FFFFE0
FFFFE0
0C3800
187000
187000
30E000
30E000
61C000
E3C000
ENDCHAR
STARTCHAR dollar
ENCODING 36
SWIDTH 633 0
DWIDTH 21 0
BBX 17 30 5 -3
BITMAP
003000
003000
00FE00
03FF80
07FF80
0F6100
1E6000
1C6000
1C4000
1C4000
1CC000
0EC000
0FC000
078000
01E000
01F000
01F800
01BC00
011C00
031C00
031C00
031C00
031C00
423800
FEF000
FFE000
7FC000
060000
060000
040000
ENDCHAR
STARTCHAR percent
ENCODING 37
SWIDTH 741 0
DWIDTH 25 0
BBX 26 25 2 0
BITMAP
03E003C0
07F00700
0FF80600
1E380C00
1C181C00
38183800
38387000
3830E000
3871C000
1FE38000
1FE70000
0F8E0000
001C7800
0039FC00
0033FE00
00678E00
00E70600
01C60600
038E0600
070E0600
0E0E0E00
1C0F1C00
3807FC00
7007F800
E003E000
ENDCHAR
STARTCHAR ampersand
ENCODING 38
SWIDTH 701 0
DWIDTH 24 0
BBX 20 25 3 0
BITMAP
001E00
007F80
00FF80
01E3C0
01C1C0
01C180
03C380
01C780
01CF00
01FE00
03F800
0FE000
1FF070
3C7070
787070
F078F0
F038E0
E03DE0
E01FC0
F01FC0
F00F80
7C3F00
7FFF80
3FF380
0FC3C0
ENDCHAR
STARTCHAR quotesingle
ENCODING 39
SWIDTH 217 0
DWIDTH 7 0
BBX 4 9 6 17
BITMAP
F0
F0
F0
F0
F0
F0
70
60
60
ENDCHAR
STARTCHAR parenleft
ENCODING 40
SWIDTH 325 0
DWIDTH 11 0
BBX 11 32 3 -6
BITMAP
0020
0060
00E0
01C0
0380
0700
0600
0E00
1C00
1C00
3800
3800
7800
7000
7000
F000
F000
E000
E000
E000
E000
E000
E000
E000
E000
6000
7000
7000
3800
3C00
1800
0800
ENDCHAR
STARTCHAR parenright
ENCODING 41
SWIDTH 325 0
DWIDTH 11 0
BBX 11 32 1 -6
BITMAP
0200
0300
0380
0380
01C0
01C0
00E0
00E0
00E0
00E0
00E0
00E0
00E0
00E0
00E0
00E0
00E0
01E0
01C0
01C0
0380
0380
0780
0700
0E00
0E00
1C00
3800
7000
E000
C000
8000
ENDCHAR
STARTCHAR asterisk
ENCODING 42
SWIDTH 470 0
DWIDTH 16 0
BBX 13 12 5 13
BITMAP
0380
0300
0300
4308
7278
FDF8
0400
0F00
1B80
7180
71C0
2100
ENDCHAR
STARTCHAR plus
ENCODING 43
SWIDTH 633 0
DWIDTH 21 0
BBX 20 21 3 0
BITMAP
003800
003800
003800
003800
003800
007000
007000
007000
007000
FFFFF0
FFFFF0
FFFFF0
00E000
00E000
00E000
00E000
01C000
01C000
01C000
01C000
01C000
ENDCHAR
STARTCHAR comma
ENCODING 44
SWIDTH 316 0
DWIDTH 11 0
BBX 6 12 2 -7
BITMAP
3C
3C
7C
78
78
18
38
38
30
70
E0
C0
ENDCHAR
STARTCHAR hyphen
ENCODING 45
SWIDTH 313 0
DWIDTH 11 0
BBX 8 3 3 9
BITMAP
FF
FF
FF
ENDCHAR
STARTCHAR period
ENCODING 46
SWIDTH 316 0
DWIDTH 11 0
BBX 5 4 3 0
BITMAP
78
78
F0
F0
ENDCHAR
STARTCHAR slash
ENCODING 47
SWIDTH 482 0
DWIDTH 16 0
BBX 22 32 0 -6
BITMAP
00001C
000038
000038
000070
0000E0
0000E0
0001C0
0001C0
000380
000700
000700
000E00
000E00
001C00
003800
003800
007000
007000
00E000
01C000
01C000
038000
038000
070000
0E0000
0E0000
1C0000
1C0000
380000
700000
700000
E00000
ENDCHAR
STARTCHAR zero
ENCODING 48
SWIDTH 633 0
DWIDTH 21 0
BBX 18 25 4 0
BITMAP
007C00
01FF00
03FF80
078780
0F03C0
1E01C0
1C01C0
3801C0
3801C0
7801C0
7001C0
7001C0
F003C0
F003C0
E00380
E00380
E00780
E00700
E00F00
F00E00
701C00
787C00
3FF800
3FE000
0F8000
ENDCHAR
STARTCHAR one
ENCODING 49
SWIDTH 633 0
DWIDTH 21 0
BBX 8 25 9 0
BITMAP
7F
7F
7F
0E
0E
0E
0E
1E
1C
1C
1C
1C
3C
38
38
38
38
78
70
70
70
70
F0
E0
E0
ENDCHAR
STARTCHAR two
ENCODING 50
SWIDTH 633 0
DWIDTH 21 0
BBX 19 25 3 0
BITMAP
00FE00
03FF80
07FFC0
0703E0
0401E0
0001E0
0001E0
0001E0
0001C0
0003C0
000780
000F00
001E00
003C00
00F800
01E000
03C000
078000
1E0000
1C0000
380000
780000
FFFE00
FFFE00
FFFE00
ENDCHAR
STARTCHAR three
ENCODING 51
SWIDTH 633 0
DWIDTH 21 0
BBX 17 25 4 0
BITMAP
03FC00
07FF00
07FF80
040F80
000380
000380
000380
000700
000F00
003E00
07F800
07E000
0FF800
007E00
001E00
000E00
000F00
000E00
000E00
001E00
003C00
407C00
FFF800
FFE000
7F8000
ENDCHAR
STARTCHAR four
ENCODING 52
SWIDTH 633 0
DWIDTH 21 0
BBX 18 25 3 0
BITMAP
0003C0
0007C0
000F80
001F80
003F80
007B80
007380
00E700
01C700
038700
070700
0F0700
1E0E00
3C0E00
380E00
700E00
FFFFC0
FFFFC0
FFFFC0
001C00
001C00
001C00
003800
003800
003800
ENDCHAR
STARTCHAR five
ENCODING 53
SWIDTH 633 0
DWIDTH 21 0
BBX 18 25 5 0
BITMAP
07FFC0
07FFC0
07FFC0
060000
0E0000
0E0000
0C0000
0C0000
0C0000
1FC000
1FF800
1FFC00
007E00
001E00
000E00
000E00
000E00
000E00
001E00
001E00
003C00
40F800
FFF000
FFE000
7F8000
ENDCHAR
STARTCHAR six
ENCODING 54
SWIDTH 633 0
DWIDTH 21 0
BBX 18 25 4 0
BITMAP
003F80
00FFC0
03FFC0
07C0C0
0F0000
1E0000
1C0000
3C0000
380000
79F800
7FFE00
7FFF00
FE0F00
F80700
F00780
F00780
E00700
E00700
E00700
F00E00
701E00
783C00
3FF800
1FF000
0FC000
ENDCHAR
STARTCHAR seven
ENCODING 55
SWIDTH 633 0
DWIDTH 21 0
BBX 19 25 5 0
BITMAP
1FFFE0
1FFFE0
1FFFE0
0003C0
0007C0
000F80
001F00
003E00
007C00
00F800
00F000
01E000
03C000
07C000
078000
0F0000
1F0000
1E0000
3C0000
3C0000
780000
780000
700000
F00000
F00000
ENDCHAR
STARTCHAR eight
ENCODING 56
SWIDTH 633 0
DWIDTH 21 0
BBX 18 25 4 0
BITMAP
007E00
01FF00
07FF80
0F83C0
0E01C0
1E01C0
1E0180
1E0380
1E0700
0F1E00
07FC00
07F000
0FF800
1F7C00
3C3E00
780F00
700F00
E00700
E00700
E00F00
F00E00
F83E00
7FFC00
3FF000
0FC000
ENDCHAR
STARTCHAR nine
ENCODING 57
SWIDTH 633 0
DWIDTH 21 0
BBX 18 25 4 0
BITMAP
007C00
01FF00
07FF80
0F8780
0E03C0
1C01C0
3C01C0
3801C0
3801C0
3801C0
3803C0
3C07C0
3E0FC0
1FFFC0
0FFB80
07E780
000780
000700
000F00
001E00
003C00
C07800
FFF000
FFE000
3F8000
ENDCHAR
STARTCHAR colon
ENCODING 58
SWIDTH 316 0
DWIDTH 11 0
BBX 7 18 4 0
BITMAP
0E
1E
1C
00
00
00
00
00
00
00
00
00
00
00
00
70
F0
E0
ENDCHAR
STARTCHAR semicolon
ENCODING 59
SWIDTH 316 0
DWIDTH 11 0
BBX 8 24 3 -6
BITMAP
07
0F
0E
00
00
00
00
00
00
00
00
00
00
00
00
38
78
78
30
30
30
60
C0
80
ENDCHAR
STARTCHAR less
ENCODING 60
SWIDTH 633 0
DWIDTH 21 0
BBX 22 21 3 0
BITMAP
000004
00001C
00007C
0001F8
0007C0
001F00
007C00
03F000
0FC000
3F0000
FC0000
7E0000
1F8000
07E000
03F000
00FC00
003F00
001F80
0007E0
0001C0
000040
ENDCHAR
STARTCHAR equal
ENCODING 61
SWIDTH 633 0
DWIDTH 21 0
BBX 21 9 2 5
BITMAP
7FFFF8
7FFFF8
7FFFF8
000000
000000
000000
FFFFF0
FFFFF0
FFFFF0
ENDCHAR
STARTCHAR greater
ENCODING 62
SWIDTH 633 0
DWIDTH 21 0
BBX 22 21 1 0
BITMAP
080000
0E0000
1F8000
07C000
03F000
00FC00
003F00
001F80
0007E0
0001F8
0000FC
0003F0
000FC0
003F00
00FC00
03E000
0F8000
3E0000
780000
E00000
800000
ENDCHAR
STARTCHAR question
ENCODING 63
SWIDTH 464 0
DWIDTH 16 0
BBX 14 25 5 0
BITMAP
1FC0
7FF0
7FF8
4078
0038
003C
0038
0038
0070
00F0
01E0
03C0
0700
0E00
1C00
3C00
3800
3800
7800
0000
0000
0000
7000
F000
E000
ENDCHAR
STARTCHAR at
ENCODING 64
SWIDTH 858 0
DWIDTH 29 0
BBX 26 25 4 0
BITMAP
000FE000
007FF800
01FFFE00
03F01F00
07800780
0E000380
1C0FF1C0
383FE0C0
307FE0C0
60E060C0
61C0E0C0
C180C0C0
C381C0C0
C302C1C0
C3078380
C39D8780
C3F9FF00
C3F1FC00
61E0F800
70000000
38000000
3E030000
1FFF0000
07FF0000
01FC0000
ENDCHAR
STARTCHAR A
ENCODING 65
SWIDTH 687 0
DWIDTH 23 0
BBX 22 25 1 0
BITMAP
000380
0007C0
000FC0
000FC0
001FC0
001DC0
003DE0
0039E0
0071E0
0070E0
00E0E0
01E0E0
01C0F0
03C0F0
038070
078070
07FFF0
0FFFF8
0FFFF8
1C0078
3C0078
380038
78003C
70003C
E0003C
ENDCHAR
STARTCHAR B
ENCODING 66
SWIDTH 593 0
DWIDTH 20 0
BBX 18 25 3 0
BITMAP
07FE00
07FF80
0FFF80
0F07C0
0F03C0
0E03C0
0E03C0
1E0380
1E0780
1C0F00
1C3E00
1FF800
3FF800
3FFE00
3C3F00
380F00
380700
780780
780780
780700
700F00
703F00
FFFE00
FFFC00
FFE000
ENDCHAR
STARTCHAR C
ENCODING 67
SWIDTH 679 0
DWIDTH 23 0
BBX 22 25 4 0
BITMAP
001FF0
007FFC
01FFFC
03E00C
0FC000
0F0000
1E0000
3E0000
3C0000
780000
780000
700000
F00000
F00000
F00000
F00000
F00000
F00000
F00000
F80000
780040
7E03C0
3FFFC0
1FFF00
03F800
ENDCHAR
STARTCHAR D
ENCODING 68
SWIDTH 743 0
DWIDTH 25 0
BBX 23 25 3 0
BITMAP
07FFC0
07FFF0
0FFFF8
0F01FC
0E007C
0E003E
0E001E
1E001E
1E001E
1C001E
1C001E
1C001E
3C001E
3C001C
38003C
38003C
380078
780078
7800F0
7001E0
7003E0
700FC0
FFFF80
FFFE00
FFF000
ENDCHAR
STARTCHAR E
ENCODING 69
SWIDTH 547 0
DWIDTH 19 0
BBX 19 25 3 0
BITMAP
07FFE0
07FFE0
0FFFE0
0F0000
0F0000
0F0000
0E0000
1E0000
1E0000
1E0000
1E0000
1FFE00
3FFE00
3FFE00
3C0000
3C0000
380000
780000
780000
780000
700000
700000
FFFE00
FFFE00
FFFE00
ENDCHAR
STARTCHAR F
ENCODING 70
SWIDTH 536 0
DWIDTH 18 0
BBX 19 25 3 0
BITMAP
07FFE0
07FFE0
0FFFE0
0F0000
0F0000
0E0000
0E0000
1E0000
1E0000
1E0000
1C0000
1FFE00
3FFE00
3FFC00
3C0000
380000
380000
780000
780000
780000
700000
700000
F00000
F00000
F00000
ENDCHAR
STARTCHAR G
ENCODING 71
SWIDTH 702 0
DWIDTH 24 0
BBX 22 25 4 0
BITMAP
001FF0
007FFC
01FFFC
03F00C
0F8000
0F0000
1E0000
3C0000
3C0000
780000
780000
700000
F00000
F00000
F000F0
F000E0
F000E0
F000E0
F001E0
F801E0
7C01C0
7E03C0
3FFFC0
1FFFC0
03FC00
ENDCHAR
STARTCHAR H
ENCODING 72
SWIDTH 735 0
DWIDTH 25 0
BBX 24 25 3 0
BITMAP
07000F
07000F
0F000F
0F000E
0F000E
0E001E
0E001E
1E001E
1E001C
1E003C
1FFFFC
1FFFFC
3FFFFC
3C0038
3C0038
380078
380078
780078
780070
780070
7000F0
7000F0
F000F0
F000E0
F000E0
ENDCHAR
STARTCHAR I
ENCODING 73
SWIDTH 289 0
DWIDTH 10 0
BBX 8 25 3 0
BITMAP
0F
0F
0F
0E
0E
0E
1E
1E
1C
1C
1C
3C
3C
3C
38
38
38
78
78
70
70
70
F0
F0
F0
ENDCHAR
STARTCHAR J
ENCODING 74
SWIDTH 408 0
DWIDTH 14 0
BBX 16 31 0 -6
BITMAP
000F
000F
000F
000E
000E
001E
001E
001E
001C
001C
001C
003C
003C
003C
0038
0038
0078
0078
0078
0070
0070
0070
00F0
00F0
00E0
00E0
01E0
C3C0
FF80
FF00
FE00
ENDCHAR
STARTCHAR K
ENCODING 75
SWIDTH 635 0
DWIDTH 22 0
BBX 21 25 3 0
BITMAP
070078
0700F0
0F01E0
0F03C0
0E0780
0E0F00
0E1E00
1E3C00
1E7800
1CF000
1DE000
1FC000
3FC000
3DC000
38E000
38F000
387000
787800
783C00
781C00
701E00
700F00
F00700
F00780
F003C0
ENDCHAR
STARTCHAR L
ENCODING 76
SWIDTH 545 0
DWIDTH 19 0
BBX 15 25 3 0
BITMAP
0700
0F00
0F00
0F00
0E00
0E00
0E00
1E00
1E00
1C00
1C00
1C00
3C00
3C00
3800
3800
3800
7800
7800
7000
7000
7000
FFFE
FFFE
FFFE
ENDCHAR
STARTCHAR M
ENCODING 77
SWIDTH 828 0
DWIDTH 28 0
BBX 27 25 3 0
BITMAP
07C003E0
07C007E0
0FC007E0
0FC00FC0
0FC00FC0
0FE01DC0
0FE01FC0
1CE03BC0
1CE03B80
1CE07380
1CE06380
1CE0E780
38F1C780
38F1C700
38738700
38738700
38770F00
70770F00
707E0E00
707C0E00
707C0E00
70380E00
E0381E00
E0001C00
E0001C00
ENDCHAR
STARTCHAR N
ENCODING 78
SWIDTH 741 0
DWIDTH 25 0
BBX 24 25 3 0
BITMAP
078007
078007
0F8007
0FC00E
0FC00E
0FE00E
0EE00E
1CF00E
1CF01C
1C781C
1C781C
1C381C
383C1C
381C38
381E38
381E38
380F38
700F38
700770
7007F0
7003F0
7003F0
E001F0
E001E0
E001E0
ENDCHAR
STARTCHAR O
ENCODING 79
SWIDTH 777 0
DWIDTH 26 0
BBX 24 25 4 0
BITMAP
001FC0
007FF8
01FFFC
03F07E
07C01E
0F001E
1E000F
3C000F
3C000F
78000F
78000F
70000F
F0000F
F0000E
F0001E
F0001E
F0003C
F0003C
F00078
7800F0
7C03E0
7E0FC0
3FFF80
1FFE00
03F800
ENDCHAR
STARTCHAR P
ENCODING 80
SWIDTH 575 0
DWIDTH 20 0
BBX 19 25 3 0
BITMAP
07FF00
07FFC0
0FFFC0
0F03E0
0F01E0
0E01E0
0E01E0
1E01E0
1E01C0
1E03C0
1C0780
1C1F00
3FFE00
3FF800
3FE000
380000
380000
780000
780000
780000
700000
700000
F00000
F00000
F00000
ENDCHAR
STARTCHAR Q
ENCODING 81
SWIDTH 777 0
DWIDTH 26 0
BBX 24 32 4 -7
BITMAP
001FC0
007FF0
01FFFC
03F07C
07C01E
0F001E
1E000F
3C000F
3C000F
78000F
78000F
70000F
F0000F
F0000E
F0001E
F0001E
F0003C
F0003C
F00078
7800F0
7C03F0
7E0FE0
3FFF80
1FFF00
03FE00
000F00
0007C0
0003F8
0001FF
0000FE
00003C
000008
ENDCHAR
STARTCHAR R
ENCODING 82
SWIDTH 632 0
DWIDTH 21 0
BBX 19 25 3 0
BITMAP
07FF00
07FFC0
0FFFE0
0F03E0
0F01E0
0E01E0
0E01E0
1E01C0
1E01C0
1E0380
1E0700
1C1E00
3FFC00
3FF000
3FF800
3C3800
383C00
781C00
781E00
780E00
700F00
700700
F00780
F00380
F003C0
ENDCHAR
STARTCHAR S
ENCODING 83
SWIDTH 553 0
DWIDTH 19 0
BBX 19 25 2 0
BITMAP
007F80
01FFE0
03FFE0
07C060
0F0000
0F0000
0F0000
0F0000
0F0000
078000
07E000
03F000
00F800
007C00
003E00
001F00
000F00
000700
000700
000F00
400F00
F03E00
FFFC00
FFF800
1FE000
ENDCHAR
STARTCHAR T
ENCODING 84
SWIDTH 623 0
DWIDTH 21 0
BBX 21 25 5 0
BITMAP
FFFFF8
FFFFF8
FFFFF8
00F000
00F000
00F000
00E000
00E000
01E000
01E000
01E000
01C000
01C000
03C000
03C000
03C000
038000
038000
038000
078000
078000
070000
070000
070000
0F0000
ENDCHAR
STARTCHAR U
ENCODING 85
SWIDTH 693 0
DWIDTH 24 0
BBX 21 25 4 0
BITMAP
1E0038
1E0038
1E0078
1C0070
3C0070
3C0070
3C0070
3C00F0
3800E0
7800E0
7800E0
7800E0
7801E0
7001C0
F001C0
F001C0
F001C0
F00380
F00380
F00780
F80700
7C1E00
7FFE00
3FF800
0FE000
ENDCHAR
STARTCHAR V
ENCODING 86
SWIDTH 687 0
DWIDTH 23 0
BBX 22 25 5 0
BITMAP
F0003C
F00038
F00078
700070
7000F0
7800E0
7801C0
7803C0
380380
380780
3C0700
3C0F00
3C0E00
3C1E00
1C1C00
1E3800
1E3800
1E7000
1EF000
0EE000
0FE000
0FC000
0FC000
0F8000
070000
ENDCHAR
STARTCHAR W
ENCODING 87
SWIDTH 886 0
DWIDTH 30 0
BBX 29 25 6 0
BITMAP
E0070038
E00F0070
E00F0070
E01F00E0
E01F00E0
F01F01C0
F03F01C0
F0370380
F0770380
F0770700
70E70700
70E70E00
71C78E00
71C79C00
71879C00
7387B800
7387B800
7707F800
7707F000
7E07F000
7E03E000
7C03E000
7C03C000
7803C000
78038000
ENDCHAR
STARTCHAR X
ENCODING 88
SWIDTH 620 0
DWIDTH 21 0
BBX 25 25 0 0
BITMAP
03C00780
03C00F00
01E01E00
01E03C00
00E07800
00F07000
0070E000
0079E000
007BC000
003F8000
003F0000
001E0000
001E0000
003F0000
007F0000
00F78000
01E78000
03C38000
0383C000
0701C000
0F01E000
1E01E000
3C00F000
7800F000
F0007800
ENDCHAR
STARTCHAR Y
ENCODING 89
SWIDTH 608 0
DWIDTH 21 0
BBX 20 25 5 0
BITMAP
F000F0
7001E0
7803C0
780380
3C0780
3C0F00
1C1E00
1E3C00
0E3800
0F7800
0FF000
07E000
07C000
03C000
038000
078000
078000
078000
070000
070000
0F0000
0F0000
0E0000
0E0000
1E0000
ENDCHAR
STARTCHAR Z
ENCODING 90
SWIDTH 578 0
DWIDTH 20 0
BBX 22 25 1 0
BITMAP
03FFFC
07FFFC
07FFFC
000078
0000F0
0001E0
0003C0
000780
000F80
001F00
001E00
003C00
007800
00F000
01E000
03E000
07C000
0F8000
0F0000
1E0000
3C0000
780000
FFFFC0
FFFFC0
FFFFC0
ENDCHAR
STARTCHAR bracketleft
ENCODING 91
SWIDTH 325 0
DWIDTH 11 0
BBX 13 32 2 -6
BITMAP
03F8
03F8
03F8
0380
0700
0700
0700
0700
0700
0E00
0E00
0E00
0E00
0E00
1C00
1C00
1C00
1C00
1C00
3800
3800
3800
3800
3800
7000
7000
7000
7000
7000
FE00
FE00
FE00
ENDCHAR
STARTCHAR backslash
ENCODING 92
SWIDTH 482 0
DWIDTH 16 0
BBX 10 32 5 -6
BITMAP
E000
E000
6000
6000
7000
7000
3000
3000
3800
3800
3800
1800
1800
1C00
1C00
0C00
0C00
0E00
0E00
0600
0600
0700
0700
0700
0300
0300
0380
0380
0180
0180
01C0
01C0
ENDCHAR
STARTCHAR bracketright
ENCODING 93
SWIDTH 325 0
DWIDTH 11 0
BBX 13 32 1 -6
BITMAP
03F8
03F8
03F8
0070
0070
0070
0070
0070
00E0
00E0
00E0
00E0
00E0
01C0
01C0
01C0
01C0
01C0
0380
0380
0380
0380
0380
0700
0700
0700
0700
0700
0E00
FE00
FE00
FE00
ENDCHAR
STARTCHAR asciicircum
ENCODING 94
SWIDTH 633 0
DWIDTH 21 0
BBX 20 21 2 4
BITMAP
000400
000400
000E00
001E00
001E00
003F00
007F00
007300
00F300
01E380
01C380
03C180
0781C0
0701C0
0F00C0
1E00C0
1C00E0
3C00E0
780060
700070
F00070
ENDCHAR
STARTCHAR underscore
ENCODING 95
SWIDTH 500 0
DWIDTH 17 0
BBX 14 3 1 -4
BITMAP
FFFC
FFFC
FFFC
ENDCHAR
STARTCHAR grave
ENCODING 96
SWIDTH 572 0
DWIDTH 19 0
BBX 6 5 11 21
BITMAP
F0
70
38
38
1C
ENDCHAR
STARTCHAR a
ENCODING 97
SWIDTH 608 0
DWIDTH 21 0
BBX 18 18 3 0
BITMAP
007FC0
01FFC0
03FFC0
078380
0F0380
1E0380
3C0780
380780
780F00
701F00
F03F00
F07F00
F0FF00
F1FE00
F3EE00
FFCE00
7F1E00
3C1E00
ENDCHAR
STARTCHAR b
ENCODING 98
SWIDTH 608 0
DWIDTH 21 0
BBX 18 26 3 0
BITMAP
070000
070000
070000
0F0000
0F0000
0E0000
0E0000
0E0000
1E0F00
1E3F80
1CFFC0
1DF3C0
1FE1C0
3FC3C0
3F83C0
3F03C0
3E0380
3C0780
780700
780F00
701E00
703C00
707800
FFF000
FFE000
FF8000
ENDCHAR
STARTCHAR c
ENCODING 99
SWIDTH 503 0
DWIDTH 17 0
BBX 15 18 3 0
BITMAP
00FE
03FE
07FE
0F82
1E00
3C00
7800
7000
7000
F000
F000
F000
F000
F008
F838
7FF8
3FF0
1F80
ENDCHAR
STARTCHAR d
ENCODING 100
SWIDTH 608 0
DWIDTH 21 0
BBX 20 26 3 0
BITMAP
000070
0000F0
0000E0
0000E0
0000E0
0000E0
0001E0
0001C0
007FC0
01FFC0
03FFC0
07C3C0
0F0380
1E0380
3C0380
380780
780F80
701F00
F03F00
F07F00
F0FF00
F1FF00
F3EE00
FFCE00
7F0E00
3C1E00
ENDCHAR
STARTCHAR e
ENCODING 101
SWIDTH 529 0
DWIDTH 18 0
BBX 15 18 3 0
BITMAP
00F8
03FC
0FFE
1F1E
1C0E
381C
781C
7078
71F0
FFC0
FE00
E000
E002
F00C
F83C
7FFC
3FF0
1FC0
ENDCHAR
STARTCHAR f
ENCODING 102
SWIDTH 383 0
DWIDTH 13 0
BBX 17 34 2 -7
BITMAP
001F80
007F80
00FF80
01F080
01C000
03C000
038000
078000
070000
3FF800
3FF800
3FF800
0F0000
0E0000
0E0000
0E0000
0E0000
1E0000
1C0000
1C0000
1C0000
1C0000
3C0000
380000
380000
380000
380000
780000
700000
700000
700000
700000
F00000
E00000
ENDCHAR
STARTCHAR g
ENCODING 103
SWIDTH 608 0
DWIDTH 21 0
BBX 19 25 2 -7
BITMAP
003FE0
00FFE0
01FFE0
03E1C0
0781C0
0F01C0
1E01C0
1E03C0
3C0780
3C0780
380F80
381B80
783F80
387700
38E700
3FC700
3F8700
1E0F00
000E00
000E00
801C00
F03C00
FFF800
FFF000
1FC000
ENDCHAR
STARTCHAR h
ENCODING 104
SWIDTH 620 0
DWIDTH 21 0
BBX 18 26 3 0
BITMAP
078000
070000
070000
070000
0F0000
0F0000
0E0000
0E0000
0E0F80
1E3FC0
1E7FC0
1CF3C0
1DE1C0
1FC3C0
3F83C0
3F8380
3F0380
3E0380
3C0780
780780
780700
700700
700700
700F00
F00F00
E00E00
ENDCHAR
STARTCHAR i
ENCODING 105
SWIDTH 289 0
DWIDTH 10 0
BBX 8 25 3 0
BITMAP
07
0F
0E
00
00
00
00
1E
1C
1C
1C
1C
3C
38
38
38
38
78
78
70
70
70
F0
F0
E0
ENDCHAR
STARTCHAR j
ENCODING 106
SWIDTH 325 0
DWIDTH 11 0
BBX 16 32 -3 -7
BITMAP
0007
000F
000E
0000
0000
0000
0000
001E
001C
001C
001C
001C
003C
003C
0038
0038
0038
0078
0078
0070
0070
0070
00F0
00F0
00E0
00E0
01E0
01C0
C780
FF80
FF00
FC00
ENDCHAR
STARTCHAR k
ENCODING 107
SWIDTH 572 0
DWIDTH 20 0
BBX 18 26 3 0
BITMAP
078000
070000
070000
070000
0F0000
0F0000
0E0000
0E0000
0E03C0
1E0F00
1E1E00
1C3C00
1C7800
1CF000
3DE000
3BC000
3F8000
3BC000
39E000
78E000
70F000
707800
703C00
703C00
F01E00
E00F00
ENDCHAR
STARTCHAR l
ENCODING 108
SWIDTH 289 0
DWIDTH 10 0
BBX 9 26 3 0
BITMAP
0380
0780
0700
0700
0700
0700
0F00
0E00
0E00
0E00
1E00
1C00
1C00
1C00
1C00
3C00
3800
3800
3800
7800
7800
7000
7000
7000
F000
E000
ENDCHAR
STARTCHAR m
ENCODING 109
SWIDTH 934 0
DWIDTH 32 0
BBX 28 18 3 0
BITMAP
0E0F01E0
1E3F87F0
1C7F9FF0
1CF7BEF0
1DE3BC70
1FC7F8F0
3F87F0F0
3F07E0E0
3E07C0E0
3E07C0E0
3C0F81E0
780F01C0
780E01C0
700E01C0
700E01C0
701E03C0
E01E0380
E01C0380
ENDCHAR
STARTCHAR n
ENCODING 110
SWIDTH 620 0
DWIDTH 21 0
BBX 18 18 3 0
BITMAP
0E0F80
1E3FC0
1E7FC0
1CF3C0
1DE1C0
1FC3C0
3F83C0
3F8380
3F0380
3E0380
3C0780
7C0780
780700
700700
700700
700F00
F00F00
E00E00
ENDCHAR
STARTCHAR o
ENCODING 111
SWIDTH 566 0
DWIDTH 19 0
BBX 17 18 3 0
BITMAP
00F800
03FE00
0FFF00
1F0F00
1C0780
380780
780780
700780
700700
F00700
F00700
F00E00
F01E00
F03C00
F07800
7FF000
3FE000
1F8000
ENDCHAR
STARTCHAR p
ENCODING 112
SWIDTH 608 0
DWIDTH 21 0
BBX 19 25 2 -7
BITMAP
070780
0F1FC0
0E7FE0
0EF9E0
0EF1E0
0FE1E0
0FC1E0
1F81E0
1F01C0
1E03C0
1E0380
1C0780
380F00
381E00
383C00
3FF800
3FF000
7FC000
700000
700000
700000
700000
F00000
F00000
E00000
ENDCHAR
STARTCHAR q
ENCODING 113
SWIDTH 608 0
DWIDTH 21 0
BBX 18 25 3 -7
BITMAP
007FC0
01FFC0
03FFC0
078380
0F0380
1E0380
3C0780
380F80
780F00
701F00
F03F00
F07F00
F0FF00
F1FE00
F3EE00
FFCE00
7F0E00
3C1E00
001C00
001C00
001C00
001C00
003C00
003800
003800
ENDCHAR
STARTCHAR r
ENCODING 114
SWIDTH 478 0
DWIDTH 16 0
BBX 15 18 3 0
BITMAP
1E0E
1C3E
1C7C
1CE0
1DC0
3F80
3F80
3F00
3E00
3C00
7C00
7800
7000
7000
7000
F000
F000
E000
ENDCHAR
STARTCHAR s
ENCODING 115
SWIDTH 489 0
DWIDTH 17 0
BBX 14 18 3 0
BITMAP
03F0
0FFC
0FFC
1E0C
1C00
1E00
1E00
0F80
07C0
03E0
01E0
00F0
0070
8070
E0F0
FFF0
FFE0
3F80
ENDCHAR
STARTCHAR t
ENCODING 116
SWIDTH 383 0
DWIDTH 13 0
BBX 11 23 4 0
BITMAP
0E00
0E00
0E00
0E00
1E00
FFE0
FFE0
FFE0
1C00
1C00
3C00
3800
3800
3800
3800
7000
7000
7000
7000
7800
7F00
7F00
1E00
ENDCHAR
STARTCHAR u
ENCODING 117
SWIDTH 620 0
DWIDTH 21 0
BBX 17 18 4 0
BITMAP
1C0380
1C0780
380780
380700
380700
380700
380F00
701F00
703E00
703E00
707E00
70FE00
E1FE00
E1FC00
F3DC00
FF9C00
FE1C00
7C3C00
ENDCHAR
STARTCHAR v
ENCODING 118
SWIDTH 545 0
DWIDTH 18 0
BBX 17 18 5 0
BITMAP
E00380
E00700
E00E00
F00E00
701C00
703800
703800
707000
707000
70E000
71C000
79C000
3B8000
3F0000
3F0000
3E0000
3E0000
3C0000
ENDCHAR
STARTCHAR w
ENCODING 119
SWIDTH 795 0
DWIDTH 27 0
BBX 25 18 4 0
BITMAP
E03C0380
E03C0700
E07C0700
E07C0E00
E0FC0E00
F0EC1C00
71EE1C00
71CE3800
73CE7800
738E7000
738EF000
770EE000
770FE000
7E0FC000
7E0FC000
7C0F8000
7C0F8000
380F0000
ENDCHAR
STARTCHAR x
ENCODING 120
SWIDTH 541 0
DWIDTH 18 0
BBX 20 18 1 0
BITMAP
0F00F0
0701E0
0383C0
038380
01C700
01CE00
00FC00
00F800
007000
00F800
01F800
03BC00
071C00
0E1E00
1E0E00
3C0F00
780700
F00780
ENDCHAR
STARTCHAR y
ENCODING 121
SWIDTH 548 0
DWIDTH 19 0
BBX 19 25 3 -7
BITMAP
7801E0
7801C0
3803C0
380780
380700
380F00
3C0E00
3C1C00
1C3C00
1C3800
1C7800
1EF000
1EE000
1FE000
0FC000
0F8000
0F8000
0F0000
0F0000
0E0000
1C0000
1C0000
380000
700000
F00000
ENDCHAR
STARTCHAR z
ENCODING 122
SWIDTH 536 0
DWIDTH 18 0
BBX 18 18 2 0
BITMAP
0FFFC0
0FFFC0
1FFF80
000F80
001F00
003E00
007C00
00F800
01F000
03E000
07C000
0F8000
1F0000
3E0000
7C0000
7FFF00
FFFF00
FFFE00
ENDCHAR
STARTCHAR braceleft
ENCODING 123
SWIDTH 325 0
DWIDTH 11 0
BBX 12 32 3 -6
BITMAP
0030
01F0
03E0
03E0
0780
0700
0700
0700
0700
0700
0700
0700
0E00
0E00
1C00
F800
F000
F000
3800
1800
1800
3800
3800
3800
7000
7000
7000
E000
E000
7C00
7C00
1C00
ENDCHAR
STARTCHAR bar
ENCODING 124
SWIDTH 233 0
DWIDTH 8 0
BBX 9 32 2 -6
BITMAP
0380
0380
0300
0300
0300
0700
0700
0600
0600
0600
0E00
0E00
0C00
0C00
0C00
1C00
1C00
1800
1800
1800
3800
3800
3000
3000
3000
7000
7000
6000
6000
6000
E000
E000
ENDCHAR
STARTCHAR braceright
ENCODING 125
SWIDTH 325 0
DWIDTH 11 0
BBX 12 32 1 -6
BITMAP
0300
03C0
03E0
00E0
00E0
00E0
00E0
01C0
01C0
01C0
0380
0380
0380
01C0
01F0
00E0
03E0
0780
0700
0E00
0E00
0E00
0E00
0E00
0E00
0E00
1E00
3C00
FC00
F800
F000
C000
ENDCHAR
STARTCHAR asciitilde
ENCODING 126
SWIDTH 633 0
DWIDTH 21 0
BBX 21 7 2 6
BITMAP
0F0000
3FC038
3FF030
70F870
607FE0
E01FE0
000780
ENDCHAR
STARTCHAR space
ENCODING 160
SWIDTH 316 0
DWIDTH 11 0
BBX 1 1 0 0
BITMAP
00
ENDCHAR
STARTCHAR exclamdown
ENCODING 161
SWIDTH 193 0
DWIDTH 11 0
BBX 8 25 3 -7
BITMAP
07
0F
0E
00
00
00
00
0C
0C
1C
1C
1C
18
38
38
38
38
38
70
70
70
70
F0
F0
E0
ENDCHAR
STARTCHAR cent
ENCODING 162
SWIDTH 633 0
DWIDTH 21 0
BBX 16 25 6 0
BITMAP
0030
0020
0020
00FF
03FE
07FE
0F60
1C40
3CC0
78C0
70C0
70C0
F080
F080
F180
F180
F180
F108
7938
7FF8
3FF8
1FE0
0300
0200
0600
ENDCHAR
STARTCHAR sterling
ENCODING 163
SWIDTH 633 0
DWIDTH 21 0
BBX 19 25 4 0
BITMAP
000FC0
003FE0
007FE0
00F060
00E000
01E000
01C000
01C000
01C000
03C000
038000
1FF800
1FF800
3FF000
078000
070000
070000
070000
0F0000
0E0000
0C0000
180000
7FFE00
FFFC00
FFFC00
ENDCHAR
STARTCHAR currency
ENCODING 164
SWIDTH 633 0
DWIDTH 21 0
BBX 24 21 1 2
BITMAP
040006
0E000E
1E001F
0F1E3C
07FFF8
03FFF0
03E1E0
0380E0
0700E0
060060
0600E0
0E00E0
0601C0
0601C0
078780
0FFFC0
1DFFE0
38F8E0
7000F0
E00078
400020
ENDCHAR
STARTCHAR yen
ENCODING 165
SWIDTH 633 0
DWIDTH 21 0
BBX 20 25 6 0
BITMAP
F000F0
7801E0
3803C0
3C0780
1E0F00
1E1E00
0F3C00
0F7800
07F000
07E000
03C000
7FFC00
7FFC00
7FFC00
038000
078000
FFFC00
FFF800
FFF800
070000
070000
0F0000
0F0000
0E0000
0E0000
ENDCHAR
STARTCHAR brokenbar
ENCODING 166
SWIDTH 233 0
DWIDTH 8 0
BBX 9 32 2 -6
BITMAP
0380
0380
0300
0300
0300
0700
0700
0600
0600
0600
0E00
0E00
0C00
0000
0000
0000
0000
0000
0000
3800
3800
3800
3000
3000
7000
7000
7000
6000
6000
E000
E000
E000
ENDCHAR
STARTCHAR section
ENCODING 167
SWIDTH 633 0
DWIDTH 21 0
BBX 18 32 3 -7
BITMAP
007F80
01FFC0
03FFC0
0780C0
0F0000
0E0000
0E0000
0E0000
070000
07C000
03E000
0FF800
0E7E00
1C1F00
1C0F00
3C0700
3C0700
1E0700
1F0700
0FCE00
07FC00
01F800
007C00
001E00
000E00
000E00
000E00
401E00
F03C00
FFF800
FFF000
1FC000
ENDCHAR
STARTCHAR dieresis
ENCODING 168
SWIDTH 566 0
DWIDTH 19 0
BBX 10 3 10 22
BITMAP
61C0
E1C0
E380
ENDCHAR
STARTCHAR copyright
ENCODING 169
SWIDTH 858 0
DWIDTH 29 0
BBX 25 25 4 0
BITMAP
007F0000
03FFE000
07FFF000
0F80F800
1E001C00
38000E00
700F8700
603FE300
60F04380
C1C00180
C1800180
C3800180
C3000180
C3000180
C3800180
C3C10180
63FF0380
61FF0300
707E0700
38000E00
1E001C00
0F80F800
07FFF000
03FFE000
007F0000
ENDCHAR
STARTCHAR ordfeminine
ENCODING 170
SWIDTH 392 0
DWIDTH 13 0
BBX 13 14 4 11
BITMAP
0380
0FF8
1FF8
3C78
3830
7070
70F0
E1F0
E3F0
E760
EEE0
FCE0
F8E0
71E0
ENDCHAR
STARTCHAR guillemotleft
ENCODING 171
SWIDTH 527 0
DWIDTH 18 0
BBX 16 16 4 1
BITMAP
0102
0387
078E
0F1C
1E38
3C78
78F0
F3E0
E1C0
71E0
30E0
38F0
1870
1C38
0C38
0610
ENDCHAR
STARTCHAR logicalnot
ENCODING 172
SWIDTH 633 0
DWIDTH 21 0
BBX 20 9 3 5
BITMAP
FFFFF0
FFFFF0
FFFFF0
000060
000060
000060
0000E0
0000E0
0000C0
ENDCHAR
STARTCHAR hyphen
ENCODING 173
SWIDTH 313 0
DWIDTH 11 0
BBX 8 3 3 9
BITMAP
FF
FF
FF
ENDCHAR
STARTCHAR registered
ENCODING 174
SWIDTH 633 0
DWIDTH 21 0
BBX 14 15 7 10
BITMAP
0FC0
1FF0
3878
77D8
67EC
C46C
C444
CF84
CF84
CD8C
6C8C
78D8
3878
1FF0
0FC0
ENDCHAR
STARTCHAR macron
ENCODING 175
SWIDTH 566 0
DWIDTH 19 0
BBX 10 3 10 22
BITMAP
FFC0
FFC0
FFC0
ENDCHAR
STARTCHAR degree
ENCODING 176
SWIDTH 269 0
DWIDTH 9 0
BBX 6 6 6 19
BITMAP
78
F8
CC
CC
F8
78
ENDCHAR
STARTCHAR plusminus
ENCODING 177
SWIDTH 633 0
DWIDTH 21 0
BBX 22 21 1 0
BITMAP
000E00
000C00
000C00
000C00
001C00
001C00
1FFFFC
3FFFFC
3FFFFC
003800
003800
003800
003000
003000
007000
000000
000000
000000
FFFFF0
FFFFF0
FFFFF0
ENDCHAR
STARTCHAR twosuperior
ENCODING 178
SWIDTH 392 0
DWIDTH 13 0
BBX 11 15 -19 10
BITMAP
0F80
1FC0
10E0
0060
0060
00C0
00C0
0380
0700
0C00
1800
3000
6000
FF80
FF80
ENDCHAR
STARTCHAR threesuperior
ENCODING 179
SWIDTH 392 0
DWIDTH 13 0
BBX 10 15 -19 10
BITMAP
1F80
1FC0
10C0
00C0
00C0
0180
1F00
1F00
0380
0180
0180
0180
8380
FF00
FC00
ENDCHAR
STARTCHAR acute
ENCODING 180
SWIDTH 566 0
DWIDTH 19 0
BBX 8 5 12 21
BITMAP
0F
1C
38
70
E0
ENDCHAR
STARTCHAR mu
ENCODING 181
SWIDTH 627 0
DWIDTH 21 0
BBX 19 24 2 -6
BITMAP
0F00E0
0E01E0
0E01E0
0E01C0
0E01C0
1E01C0
1C03C0
1C03C0
1C0780
1C0780
1C0F80
381B80
383F80
387700
38F700
3FE700
7FCF00
7F0F00
700000
700000
700000
F00000
E00000
E00000
ENDCHAR
STARTCHAR paragraph
ENCODING 182
SWIDTH 633 0
DWIDTH 21 0
BBX 15 31 5 -6
BITMAP
1FFE
7FFE
7FFE
FFCC
FFCC
FFCC
FF8C
FF8C
FF98
7F98
3F98
1F18
0718
0310
0330
0330
0730
0630
0630
0660
0660
0E60
0C60
0C60
0CC0
0CC0
0CC0
18C0
18C0
1980
1980
ENDCHAR
STARTCHAR periodcentered
ENCODING 183
SWIDTH 316 0
DWIDTH 21 0
BBX 5 4 10 9
BITMAP
78
78
F0
F0
ENDCHAR
STARTCHAR cedilla
ENCODING 184
SWIDTH 566 0
DWIDTH 19 0
BBX 5 8 7 -7
BITMAP
10
30
70
38
18
38
F8
F0
ENDCHAR
STARTCHAR onesuperior
ENCODING 185
SWIDTH 392 0
DWIDTH 13 0
BBX 5 15 -22 10
BITMAP
78
F8
18
30
30
30
30
30
60
60
60
60
60
C0
C0
ENDCHAR
STARTCHAR ordmasculine
ENCODING 186
SWIDTH 392 0
DWIDTH 13 0
BBX 13 14 4 11
BITMAP
03E0
07F0
1FF8
3C78
3838
7038
7038
E038
E070
E0F0
F1E0
FFC0
7F80
3E00
ENDCHAR
STARTCHAR guillemotright
ENCODING 187
SWIDTH 527 0
DWIDTH 18 0
BBX 16 16 2 1
BITMAP
0830
3C70
1C38
0E3C
0F1C
071E
078E
038F
07CF
0F1E
1E3C
3C78
38F0
71E0
E1C0
4080
ENDCHAR
STARTCHAR onequarter
ENCODING 188
SWIDTH 865 0
DWIDTH 30 0
BBX 26 25 14 0
BITMAP
3C0003C0
7C000780
0C000F00
18001E00
18001C00
18003800
18007000
1800E000
3001C000
30038000
30070380
300F0780
301E0F00
603C1F00
60381B00
00703300
00E06200
01C0C200
03818600
0703FF80
0E03FF80
1E000600
3C000400
78000C00
F0000C00
ENDCHAR
STARTCHAR onehalf
ENCODING 189
SWIDTH 865 0
DWIDTH 30 0
BBX 26 25 14 0
BITMAP
3C0003C0
7C000780
0C000F00
18001E00
18001C00
18003800
18007000
1800E000
3001C000
30038000
30071F00
300F3F80
301E21C0
603C00C0
603800C0
00700180
00E00180
01C00700
03800E00
07001800
0E003000
1E006000
3C00C000
7801FF00
F001FF00
ENDCHAR
STARTCHAR threequarters
ENCODING 190
SWIDTH 865 0
DWIDTH 30 0
BBX 28 25 16 0
BITMAP
1F8000F0
1FC001E0
10C003C0
00C00780
00C00700
01800E00
1F001C00
1F003800
03807000
0180E000
0181C0E0
0183C1E0
838783C0
FF0F07C0
FC0E06C0
001C0CC0
00381880
00703080
00E06180
01C0FFE0
0380FFE0
07800180
0F000100
1E000300
3C000300
ENDCHAR
STARTCHAR questiondown
ENCODING 191
SWIDTH 464 0
DWIDTH 16 0
BBX 13 25 1 -7
BITMAP
0038
0038
0038
0000
0000
0000
0070
0070
00F0
00E0
01C0
03C0
0780
0F00
1C00
3C00
7800
7000
F000
F000
F000
F818
7FF8
7FF0
1FE0
ENDCHAR
STARTCHAR Agrave
ENCODING 192
SWIDTH 687 0
DWIDTH 23 0
BBX 22 32 1 0
BITMAP
000780
000380
0001C0
0001C0
0000E0
000000
000000
000380
0007C0
000FC0
000FC0
001FC0
001DC0
003DE0
0039E0
0071E0
0070E0
00E0E0
01E0E0
01C0F0
03C0F0
038070
078070
07FFF0
0FFFF8
0FFFF8
1C0078
3C0078
380038
78003C
70003C
E0003C
ENDCHAR
STARTCHAR Aacute
ENCODING 193
SWIDTH 687 0
DWIDTH 23 0
BBX 22 32 1 0
BITMAP
000078
0000E0
0001C0
000380
000700
000000
000000
000380
0007C0
000FC0
000FC0
001FC0
001DC0
003DE0
0039E0
0071E0
0070E0
00E0E0
01E0E0
01C0F0
03C0F0
038070
078070
07FFF0
0FFFF8
0FFFF8
1C0078
3C0078
380038
78003C
70003C
E0003C
ENDCHAR
STARTCHAR Acircumflex
ENCODING 194
SWIDTH 687 0
DWIDTH 23 0
BBX 22 32 1 0
BITMAP
0001E0
0003E0
000670
000C70
003838
000000
000000
000380
0007C0
000FC0
000FC0
001FC0
001DC0
003DE0
0039E0
0071E0
0070E0
00E0E0
01E0E0
01C0F0
03C0F0
038070
078070
07FFF0
0FFFF8
0FFFF8
1C0078
3C0078
380038
78003C
70003C
E0003C
ENDCHAR
STARTCHAR Atilde
ENCODING 195
SWIDTH 687 0
DWIDTH 23 0
BBX 22 30 1 0
BITMAP
00078C
000FF8
0018F0
000000
000000
000380
0007C0
000FC0
000FC0
001FC0
001DC0
003DE0
0039E0
0071E0
0070E0
00E0E0
01E0E0
01C0F0
03C0F0
038070
078070
07FFF0
0FFFF8
0FFFF8
1C0078
3C0078
380038
78003C
70003C
E0003C
ENDCHAR
STARTCHAR Adieresis
ENCODING 196
SWIDTH 687 0
DWIDTH 23 0
BBX 22 30 1 0
BITMAP
000C38
001C38
001C70
000000
000000
000380
0007C0
000FC0
000FC0
001FC0
001DC0
003DE0
0039E0
0071E0
0070E0
00E0E0
01E0E0
01C0F0
03C0F0
038070
078070
07FFF0
0FFFF8
0FFFF8
1C0078
3C0078
380038
78003C
70003C
E0003C
ENDCHAR
STARTCHAR Aring
ENCODING 197
SWIDTH 687 0
DWIDTH 23 0
BBX 22 32 1 0
BITMAP
0001C0
000360
000220
000360
0001C0
000000
000000
000380
0007C0
000FC0
000FC0
001FC0
001DC0
003DE0
0039E0
0071E0
0070E0
00E0E0
01E0E0
01C0F0
03C0F0
038070
078070
07FFF0
0FFFF8
0FFFF8
1C0078
3C0078
380038
78003C
70003C
E0003C
ENDCHAR
STARTCHAR AE
ENCODING 198
SWIDTH 893 0
DWIDTH 30 0
BBX 34 25 0 0
BITMAP
00001FFFC0
00003FFFC0
00007FFFC0
0000FE0000
0000FE0000
0001FE0000
0003DC0000
00079C0000
00073C0000
000E3C0000
001E3C0000
003C3FFC00
00383FFC00
00707FFC00
00F0780000
01E0780000
01FFF00000
03FFF00000
07FFF00000
0F00F00000
0E00F00000
1C00E00000
3800FFFC00
7001FFFC00
F001FFFC00
ENDCHAR
STARTCHAR Ccedilla
ENCODING 199
SWIDTH 679 0
DWIDTH 23 0
BBX 22 32 4 -7
BITMAP
001FF0
007FFC
01FFFC
03E00C
0FC000
0F0000
1E0000
3E0000
3C0000
780000
780000
700000
F00000
F00000
F00000
F00000
F00000
F00000
F00000
F80000
780040
7E03C0
3FFFC0
1FFF00
03F800
018000
038000
01C000
00C000
01C000
07C000
078000
ENDCHAR
STARTCHAR Egrave
ENCODING 200
SWIDTH 547 0
DWIDTH 19 0
BBX 19 32 3 0
BITMAP
00F000
007000
003800
003800
001C00
000000
000000
07FFE0
07FFE0
0FFFE0
0F0000
0F0000
0F0000
0E0000
1E0000
1E0000
1E0000
1E0000
1FFE00
3FFE00
3FFE00
3C0000
3C0000
380000
780000
780000
780000
700000
700000
FFFE00
FFFE00
FFFE00
ENDCHAR
STARTCHAR Eacute
ENCODING 201
SWIDTH 547 0
DWIDTH 19 0
BBX 19 32 3 0
BITMAP
000780
000E00
001C00
003800
007000
000000
000000
07FFE0
07FFE0
0FFFE0
0F0000
0F0000
0F0000
0E0000
1E0000
1E0000
1E0000
1E0000
1FFE00
3FFE00
3FFE00
3C0000
3C0000
380000
780000
780000
780000
700000
700000
FFFE00
FFFE00
FFFE00
ENDCHAR
STARTCHAR Ecircumflex
ENCODING 202
SWIDTH 547 0
DWIDTH 19 0
BBX 19 32 3 0
BITMAP
003C00
007C00
00CE00
018E00
070700
000000
000000
07FFE0
07FFE0
0FFFE0
0F0000
0F0000
0F0000
0E0000
1E0000
1E0000
1E0000
1E0000
1FFE00
3FFE00
3FFE00
3C0000
3C0000
380000
780000
780000
780000
700000
700000
FFFE00
FFFE00
FFFE00
ENDCHAR
STARTCHAR Edieresis
ENCODING 203
SWIDTH 547 0
DWIDTH 19 0
BBX 19 30 3 0
BITMAP
018700
038700
038E00
000000
000000
07FFE0
07FFE0
0FFFE0
0F0000
0F0000
0F0000
0E0000
1E0000
1E0000
1E0000
1E0000
1FFE00
3FFE00
3FFE00
3C0000
3C0000
380000
780000
780000
780000
700000
700000
FFFE00
FFFE00
FFFE00
ENDCHAR
STARTCHAR Igrave
ENCODING 204
SWIDTH 289 0
DWIDTH 10 0
BBX 9 32 3 0
BITMAP
1E00
0E00
0700
0700
0380
0000
0000
0F00
0F00
0F00
0E00
0E00
0E00
1E00
1E00
1C00
1C00
1C00
3C00
3C00
3C00
3800
3800
3800
7800
7800
7000
7000
7000
F000
F000
F000
ENDCHAR
STARTCHAR Iacute
ENCODING 205
SWIDTH 289 0
DWIDTH 10 0
BBX 12 32 3 0
BITMAP
00F0
01C0
0380
0700
0E00
0000
0000
0F00
0F00
0F00
0E00
0E00
0E00
1E00
1E00
1C00
1C00
1C00
3C00
3C00
3C00
3800
3800
3800
7800
7800
7000
7000
7000
F000
F000
F000
ENDCHAR
STARTCHAR Icircumflex
ENCODING 206
SWIDTH 289 0
DWIDTH 10 0
BBX 12 32 3 0
BITMAP
03C0
07C0
0CE0
18E0
7070
0000
0000
0F00
0F00
0F00
0E00
0E00
0E00
1E00
1E00
1C00
1C00
1C00
3C00
3C00
3C00
3800
3800
3800
7800
7800
7000
7000
7000
F000
F000
F000
ENDCHAR
STARTCHAR Idieresis
ENCODING 207
SWIDTH 289 0
DWIDTH 10 0
BBX 12 30 3 0
BITMAP
1870
3870
38E0
0000
0000
0F00
0F00
0F00
0E00
0E00
0E00
1E00
1E00
1C00
1C00
1C00
3C00
3C00
3C00
3800
3800
3800
7800
7800
7000
7000
7000
F000
F000
F000
ENDCHAR
STARTCHAR Eth
ENCODING 208
SWIDTH 743 0
DWIDTH 25 0
BBX 25 25 2 0
BITMAP
03FFF000
03FFFC00
03FFFE00
03807F00
07801F00
07800F80
07800780
07000780
07000780
0F000780
0F000780
FFF80780
FFF80780
FFF80700
0E000F00
1E000F00
1E001E00
1C001E00
1C003C00
1C007800
3C00F000
3C03E000
3FFFC000
3FFF8000
7FFC0000
ENDCHAR
STARTCHAR Ntilde
ENCODING 209
SWIDTH 741 0
DWIDTH 25 0
BBX 24 30 3 0
BITMAP
001E30
003FE0
0063C0
000000
000000
078007
078007
0F8007
0FC00E
0FC00E
0FE00E
0EE00E
1CF00E
1CF01C
1C781C
1C781C
1C381C
383C1C
381C38
381E38
381E38
380F38
700F38
700770
7007F0
7003F0
7003F0
E001F0
E001E0
E001E0
ENDCHAR
STARTCHAR Ograve
ENCODING 210
SWIDTH 777 0
DWIDTH 26 0
BBX 24 32 4 0
BITMAP
001E00
000E00
000700
000700
000380
000000
000000
001FC0
007FF8
01FFFC
03F07E
07C01E
0F001E
1E000F
3C000F
3C000F
78000F
78000F
70000F
F0000F
F0000E
F0001E
F0001E
F0003C
F0003C
F00078
7800F0
7C03E0
7E0FC0
3FFF80
1FFE00
03F800
ENDCHAR
STARTCHAR Oacute
ENCODING 211
SWIDTH 777 0
DWIDTH 26 0
BBX 24 32 4 0
BITMAP
0000F0
0001C0
000380
000700
000E00
000000
000000
001FC0
007FF8
01FFFC
03F07E
07C01E
0F001E
1E000F
3C000F
3C000F
78000F
78000F
70000F
F0000F
F0000E
F0001E
F0001E
F0003C
F0003C
F00078
7800F0
7C03E0
7E0FC0
3FFF80
1FFE00
03F800
ENDCHAR
STARTCHAR Ocircumflex
ENCODING 212
SWIDTH 777 0
DWIDTH 26 0
BBX 24 32 4 0
BITMAP
0003C0
0007C0
000CE0
0018E0
007070
000000
000000
001FC0
007FF8
01FFFC
03F07E
07C01E
0F001E
1E000F
3C000F
3C000F
78000F
78000F
70000F
F0000F
F0000E
F0001E
F0001E
F0003C
F0003C
F00078
7800F0
7C03E0
7E0FC0
3FFF80
1FFE00
03F800
ENDCHAR
STARTCHAR Otilde
ENCODING 213
SWIDTH 777 0
DWIDTH 26 0
BBX 24 30 4 0
BITMAP
001E30
003FE0
0063C0
000000
000000
001FC0
007FF8
01FFFC
03F07E
07C01E
0F001E
1E000F
3C000F
3C000F
78000F
78000F
70000F
F0000F
F0000E
F0001E
F0001E
F0003C
F0003C
F00078
7800F0
7C03E0
7E0FC0
3FFF80
1FFE00
03F800
ENDCHAR
STARTCHAR Odieresis
ENCODING 214
SWIDTH 777 0
DWIDTH 26 0
BBX 24 30 4 0
BITMAP
001870
003870
0038E0
000000
000000
001FC0
007FF8
01FFFC
03F07E
07C01E
0F001E
1E000F
3C000F
3C000F
78000F
78000F
70000F
F0000F
F0000E
F0001E
F0001E
F0003C
F0003C
F00078
7800F0
7C03E0
7E0FC0
3FFF80
1FFE00
03F800
ENDCHAR
STARTCHAR multiply
ENCODING 215
SWIDTH 633 0
DWIDTH 21 0
BBX 23 21 1 0
BITMAP
040004
1C000E
0E001C
070038
0780F0
0381E0
01C3C0
00E780
007F00
007E00
003800
007C00
01FE00
03CF00
078700
0F0780
1E03C0
3801E0
7000F0
E000F0
400040
ENDCHAR
STARTCHAR Oslash
ENCODING 216
SWIDTH 777 0
DWIDTH 26 0
BBX 28 25 6 0
BITMAP
0007F0F0
001FFFE0
007FFFC0
00FC1F80
01F00F80
03C01F80
07803FC0
0F007BC0
0F00F3C0
1E01E3C0
1E03C3C0
1C0783C0
3C0F03C0
3C1E0380
3C3C0780
3C780780
3CF00F00
3DE00F00
3FC01E00
1F803C00
1F00F800
1F83F000
3FFFE000
7FFF8000
F0FE0000
ENDCHAR
STARTCHAR Ugrave
ENCODING 217
SWIDTH 693 0
DWIDTH 24 0
BBX 21 32 4 0
BITMAP
007800
003800
001C00
001C00
000E00
000000
000000
1E0038
1E0038
1E0078
1C0070
3C0070
3C0070
3C0070
3C00F0
3800E0
7800E0
7800E0
7800E0
7801E0
7001C0
F001C0
F001C0
F001C0
F00380
F00380
F00780
F80700
7C1E00
7FFE00
3FF800
0FE000
ENDCHAR
STARTCHAR Uacute
ENCODING 218
SWIDTH 693 0
DWIDTH 24 0
BBX 21 32 4 0
BITMAP
0003C0
000700
000E00
001C00
003800
000000
000000
1E0038
1E0038
1E0078
1C0070
3C0070
3C0070
3C0070
3C00F0
3800E0
7800E0
7800E0
7800E0
7801E0
7001C0
F001C0
F001C0
F001C0
F00380
F00380
F00780
F80700
7C1E00
7FFE00
3FF800
0FE000
ENDCHAR
STARTCHAR Ucircumflex
ENCODING 219
SWIDTH 693 0
DWIDTH 24 0
BBX 21 32 4 0
BITMAP
000F00
001F00
003380
006380
01C1C0
000000
000000
1E0038
1E0038
1E0078
1C0070
3C0070
3C0070
3C0070
3C00F0
3800E0
7800E0
7800E0
7800E0
7801E0
7001C0
F001C0
F001C0
F001C0
F00380
F00380
F00780
F80700
7C1E00
7FFE00
3FF800
0FE000
ENDCHAR
STARTCHAR Udieresis
ENCODING 220
SWIDTH 693 0
DWIDTH 24 0
BBX 21 30 4 0
BITMAP
00C380
01C380
01C700
000000
000000
1E0038
1E0038
1E0078
1C0070
3C0070
3C0070
3C0070
3C00F0
3800E0
7800E0
7800E0
7800E0
7801E0
7001C0
F001C0
F001C0
F001C0
F00380
F00380
F00780
F80700
7C1E00
7FFE00
3FF800
0FE000
ENDCHAR
STARTCHAR Yacute
ENCODING 221
SWIDTH 608 0
DWIDTH 21 0
BBX 20 32 5 0
BITMAP
000F00
001C00
003800
007000
00E000
000000
000000
F000F0
7001E0
7803C0
780380
3C0780
3C0F00
1C1E00
1E3C00
0E3800
0F7800
0FF000
07E000
07C000
03C000
038000
078000
078000
078000
070000
070000
0F0000
0F0000
0E0000
0E0000
1E0000
ENDCHAR
STARTCHAR Thorn
ENCODING 222
SWIDTH 575 0
DWIDTH 20 0
BBX 18 25 3 0
BITMAP
078000
070000
0F0000
0F0000
0F0000
0FFE00
0FFF80
1FFF80
1E07C0
1E03C0
1C03C0
1C03C0
3C03C0
3C0380
3C0780
380F00
383E00
7FFC00
7FF000
7FC000
700000
700000
F00000
F00000
F00000
ENDCHAR
STARTCHAR germandbls
ENCODING 223
SWIDTH 595 0
DWIDTH 20 0
BBX 18 34 2 -7
BITMAP
003E00
00FF00
01FF80
03C780
038380
038380
078780
070700
071E00
073C00
0F7800
0F7000
0E7000
0E7800
0E7800
0E3E00
1E1F00
1C0F80
1C0780
1C03C0
1C01C0
3C01C0
3801C0
3883C0
38FF80
39FF00
78FC00
780000
700000
700000
700000
F00000
F00000
E00000
ENDCHAR
STARTCHAR agrave
ENCODING 224
SWIDTH 608 0
DWIDTH 21 0
BBX 18 25 3 0
BITMAP
007800
003800
001C00
001C00
000E00
000000
000000
007FC0
01FFC0
03FFC0
078380
0F0380
1E0380
3C0780
380780
780F00
701F00
F03F00
F07F00
F0FF00
F1FE00
F3EE00
FFCE00
7F1E00
3C1E00
ENDCHAR
STARTCHAR aacute
ENCODING 225
SWIDTH 608 0
DWIDTH 21 0
BBX 18 25 3 0
BITMAP
0003C0
000700
000E00
001C00
003800
000000
000000
007FC0
01FFC0
03FFC0
078380
0F0380
1E0380
3C0780
380780
780F00
701F00
F03F00
F07F00
F0FF00
F1FE00
F3EE00
FFCE00
7F1E00
3C1E00
ENDCHAR
STARTCHAR acircumflex
ENCODING 226
SWIDTH 608 0
DWIDTH 21 0
BBX 18 25 3 0
BITMAP
000F00
001F00
003380
006380
01C1C0
000000
000000
007FC0
01FFC0
03FFC0
078380
0F0380
1E0380
3C0780
380780
780F00
701F00
F03F00
F07F00
F0FF00
F1FE00
F3EE00
FFCE00
7F1E00
3C1E00
ENDCHAR
STARTCHAR atilde
ENCODING 227
SWIDTH 608 0
DWIDTH 21 0
BBX 18 23 3 0
BITMAP
0078C0
00FF80
018F00
000000
000000
007FC0
01FFC0
03FFC0
078380
0F0380
1E0380
3C0780
380780
780F00
701F00
F03F00
F07F00
F0FF00
F1FE00
F3EE00
FFCE00
7F1E00
3C1E00
ENDCHAR
STARTCHAR adieresis
ENCODING 228
SWIDTH 608 0
DWIDTH 21 0
BBX 18 23 3 0
BITMAP
00C380
01C380
01C700
000000
000000
007FC0
01FFC0
03FFC0
078380
0F0380
1E0380
3C0780
380780
780F00
701F00
F03F00
F07F00
F0FF00
F1FE00
F3EE00
FFCE00
7F1E00
3C1E00
ENDCHAR
STARTCHAR aring
ENCODING 229
SWIDTH 608 0
DWIDTH 21 0
BBX 18 25 3 0
BITMAP
001C00
003600
002200
003600
001C00
000000
000000
007FC0
01FFC0
03FFC0
078380
0F0380
1E0380
3C0780
380780
780F00
701F00
F03F00
F07F00
F0FF00
F1FE00
F3EE00
FFCE00
7F1E00
3C1E00
ENDCHAR
STARTCHAR ae
ENCODING 230
SWIDTH 893 0
DWIDTH 30 0
BBX 27 18 3 0
BITMAP
007FCFC0
01FFFFE0
03FFFFE0
07C3F0E0
0F03E0E0
1E03C0E0
3C0781C0
380F83C0
780F1F00
701FFE00
F03FF000
F07F0000
F0F70020
F1F70060
F3E783E0
FFC7FFE0
7F83FF80
3E00FC00
ENDCHAR
STARTCHAR ccedilla
ENCODING 231
SWIDTH 503 0
DWIDTH 17 0
BBX 15 25 3 -7
BITMAP
00FE
03FE
07FE
0F82
1E00
3C00
7800
7000
7000
F000
F000
F000
F000
F008
F838
7FF8
3FF0
1F80
0600
0E00
0700
0300
0700
1F00
1E00
ENDCHAR
STARTCHAR egrave
ENCODING 232
SWIDTH 529 0
DWIDTH 18 0
BBX 15 25 3 0
BITMAP
00F0
0070
0038
0038
001C
0000
0000
00F8
03FC
0FFE
1F1E
1C0E
381C
781C
7078
71F0
FFC0
FE00
E000
E002
F00C
F83C
7FFC
3FF0
1FC0
ENDCHAR
STARTCHAR eacute
ENCODING 233
SWIDTH 529 0
DWIDTH 18 0
BBX 16 25 3 0
BITMAP
000F
001C
0038
0070
00E0
0000
0000
00F8
03FC
0FFE
1F1E
1C0E
381C
781C
7078
71F0
FFC0
FE00
E000
E002
F00C
F83C
7FFC
3FF0
1FC0
ENDCHAR
STARTCHAR ecircumflex
ENCODING 234
SWIDTH 529 0
DWIDTH 18 0
BBX 16 25 3 0
BITMAP
003C
007C
00CE
018E
0707
0000
0000
00F8
03FC
0FFE
1F1E
1C0E
381C
781C
7078
71F0
FFC0
FE00
E000
E002
F00C
F83C
7FFC
3FF0
1FC0
ENDCHAR
STARTCHAR edieresis
ENCODING 235
SWIDTH 529 0
DWIDTH 18 0
BBX 16 23 3 0
BITMAP
0187
0387
038E
0000
0000
00F8
03FC
0FFE
1F1E
1C0E
381C
781C
7078
71F0
FFC0
FE00
E000
E002
F00C
F83C
7FFC
3FF0
1FC0
ENDCHAR
STARTCHAR igrave
ENCODING 236
SWIDTH 289 0
DWIDTH 10 0
BBX 9 25 3 0
BITMAP
1E00
0E00
0700
0700
0380
0000
0000
0E00
1E00
1C00
1C00
1C00
1C00
3C00
3800
3800
3800
3800
7800
7000
7000
7000
7000
F000
E000
ENDCHAR
STARTCHAR iacute
ENCODING 237
SWIDTH 289 0
DWIDTH 10 0
BBX 12 25 3 0
BITMAP
00F0
01C0
0380
0700
0E00
0000
0000
0E00
1E00
1C00
1C00
1C00
1C00
3C00
3800
3800
3800
3800
7800
7000
7000
7000
7000
F000
E000
ENDCHAR
STARTCHAR icircumflex
ENCODING 238
SWIDTH 289 0
DWIDTH 10 0
BBX 12 25 3 0
BITMAP
03C0
07C0
0CE0
18E0
7070
0000
0000
0E00
1E00
1C00
1C00
1C00
1C00
3C00
3800
3800
3800
3800
7800
7000
7000
7000
7000
F000
E000
ENDCHAR
STARTCHAR idieresis
ENCODING 239
SWIDTH 289 0
DWIDTH 10 0
BBX 12 23 3 0
BITMAP
1870
3870
38E0
0000
0000
0E00
1E00
1C00
1C00
1C00
1C00
3C00
3800
3800
3800
3800
7800
7000
7000
7000
7000
F000
E000
ENDCHAR
STARTCHAR eth
ENCODING 240
SWIDTH 556 0
DWIDTH 19 0
BBX 16 26 3 0
BITMAP
0FC6
0FFE
1FFF
00FC
01FC
07FE
03CE
010F
00FF
03FF
0FFF
1F0F
1C07
3C07
7807
7007
7007
F007
F006
F00E
F01E
F03C
F878
7FF0
3FE0
1F80
ENDCHAR
STARTCHAR ntilde
ENCODING 241
SWIDTH 620 0
DWIDTH 21 0
BBX 18 23 3 0
BITMAP
0078C0
00FF80
018F00
000000
000000
0E0F80
1E3FC0
1E7FC0
1CF3C0
1DE1C0
1FC3C0
3F83C0
3F8380
3F0380
3E0380
3C0780
7C0780
780700
700700
700700
700F00
F00F00
E00E00
ENDCHAR
STARTCHAR ograve
ENCODING 242
SWIDTH 566 0
DWIDTH 19 0
BBX 17 25 3 0
BITMAP
00F000
007000
003800
003800
001C00
000000
000000
00F800
03FE00
0FFF00
1F0F00
1C0780
380780
780780
700780
700700
F00700
F00700
F00E00
F01E00
F03C00
F07800
7FF000
3FE000
1F8000
ENDCHAR
STARTCHAR oacute
ENCODING 243
SWIDTH 566 0
DWIDTH 19 0
BBX 17 25 3 0
BITMAP
000780
000E00
001C00
003800
007000
000000
000000
00F800
03FE00
0FFF00
1F0F00
1C0780
380780
780780
700780
700700
F00700
F00700
F00E00
F01E00
F03C00
F07800
7FF000
3FE000
1F8000
ENDCHAR
STARTCHAR ocircumflex
ENCODING 244
SWIDTH 566 0
DWIDTH 19 0
BBX 17 25 3 0
BITMAP
001E00
003E00
006700
00C700
038380
000000
000000
00F800
03FE00
0FFF00
1F0F00
1C0780
380780
780780
700780
700700
F00700
F00700
F00E00
F01E00
F03C00
F07800
7FF000
3FE000
1F8000
ENDCHAR
STARTCHAR otilde
ENCODING 245
SWIDTH 566 0
DWIDTH 19 0
BBX 17 23 3 0
BITMAP
00F180
01FF00
031E00
000000
000000
00F800
03FE00
0FFF00
1F0F00
1C0780
380780
780780
700780
700700
F00700
F00700
F00E00
F01E00
F03C00
F07800
7FF000
3FE000
1F8000
ENDCHAR
STARTCHAR odieresis
ENCODING 246
SWIDTH 566 0
DWIDTH 19 0
BBX 17 23 3 0
BITMAP
00C380
01C380
01C700
000000
000000
00F800
03FE00
0FFF00
1F0F00
1C0780
380780
780780
700780
700700
F00700
F00700
F00E00
F01E00
F03C00
F07800
7FF000
3FE000
1F8000
ENDCHAR
STARTCHAR divide
ENCODING 247
SWIDTH 633 0
DWIDTH 21 0
BBX 20 17 3 1
BITMAP
003C00
007800
007800
000000
000000
000000
000000
FFFFF0
FFFFF0
FFFFF0
000000
000000
000000
000000
01E000
01E000
03C000
ENDCHAR
STARTCHAR oslash
ENCODING 248
SWIDTH 566 0
DWIDTH 19 0
BBX 20 18 4 0
BITMAP
007CF0
01FFE0
07FFC0
0F8780
0E0FC0
1C0FC0
3C1FC0
383BC0
387380
78E380
79C380
7B8700
7F0F00
7E1E00
7E3C00
3FF800
7FF000
FFC000
ENDCHAR
STARTCHAR ugrave
ENCODING 249
SWIDTH 620 0
DWIDTH 21 0
BBX 17 25 4 0
BITMAP
00F000
007000
003800
003800
001C00
000000
000000
1C0380
1C0780
380780
380700
380700
380700
380F00
701F00
703E00
703E00
707E00
70FE00
E1FE00
E1FC00
F3DC00
FF9C00
FE1C00
7C3C00
ENDCHAR
STARTCHAR uacute
ENCODING 250
SWIDTH 620 0
DWIDTH 21 0
BBX 17 25 4 0
BITMAP
000780
000E00
001C00
003800
007000
000000
000000
1C0380
1C0780
380780
380700
380700
380700
380F00
701F00
703E00
703E00
707E00
70FE00
E1FE00
E1FC00
F3DC00
FF9C00
FE1C00
7C3C00
ENDCHAR
STARTCHAR ucircumflex
ENCODING 251
SWIDTH 620 0
DWIDTH 21 0
BBX 17 25 4 0
BITMAP
001E00
003E00
006700
00C700
038380
000000
000000
1C0380
1C0780
380780
380700
380700
380700
380F00
701F00
703E00
703E00
707E00
70FE00
E1FE00
E1FC00
F3DC00
FF9C00
FE1C00
7C3C00
ENDCHAR
STARTCHAR udieresis
ENCODING 252
SWIDTH 620 0
DWIDTH 21 0
BBX 17 23 4 0
BITMAP
018700
038700
038E00
000000
000000
1C0380
1C0780
380780
380700
380700
380700
380F00
701F00
703E00
703E00
707E00
70FE00
E1FE00
E1FC00
F3DC00
FF9C00
FE1C00
7C3C00
ENDCHAR
STARTCHAR yacute
ENCODING 253
SWIDTH 548 0
DWIDTH 19 0
BBX 19 32 3 -7
BITMAP
000780
000E00
001C00
003800
007000
000000
000000
7801E0
7801C0
3803C0
380780
380700
380F00
3C0E00
3C1C00
1C3C00
1C3800
1C7800
1EF000
1EE000
1FE000
0FC000
0F8000
0F8000
0F0000
0F0000
0E0000
1C0000
1C0000
380000
700000
F00000
ENDCHAR
STARTCHAR thorn
ENCODING 254
SWIDTH 608 0
DWIDTH 21 0
BBX 19 31 2 -7
BITMAP
038000
078000
078000
070000
070000
070000
0F0780
0F1FC0
0E7FE0
0EF9E0
0EF1E0
0FE1E0
1FC1E0
1F81E0
1F01C0
1E03C0
1E0380
3C0780
380F00
381E00
383C00
3FF800
3FF000
7FC000
700000
700000
700000
700000
F00000
F00000
E00000
ENDCHAR
STARTCHAR ydieresis
ENCODING 255
SWIDTH 548 0
DWIDTH 19 0
BBX 19 30 3 -7
BITMAP
018700
038700
038E00
000000
000000
7801E0
7801C0
3803C0
380780
380700
380F00
3C0E00
3C1C00
1C3C00
1C3800
1C7800
1EF000
1EE000
1FE000
0FC000
0F8000
0F8000
0F0000
0F0000
0E0000
1C0000
1C0000
380000
700000
F00000
ENDCHAR
ENDFONT
