STARTFONT 2.1
COMMENT AUTOMATICALLY GENERATED FILE. DO NOT EDIT!
COMMENT Generated with 'ucs2any.pl luIS12.bdf ../../../fonts/util/map-ISO8859-1 ISO8859-1'
COMMENT from an ISO10646-1 encoded source BDF font.
COMMENT ucs2any.pl by Markus Kuhn <mkuhn@acm.org>, 2000.
COMMENT $Xorg: $
COMMENT ISO10646-1 extension by Markus Kuhn <mkuhn@acm.org>, 2001-03-20
COMMENT  (c) Copyright Bigelow & Holmes 1986, 1985. Lucida is a registered
COMMENT  trademark of Bigelow & Holmes. See LEGAL NOTICE file for terms 
COMMENT  of the license. 
FONT -B&H-Lucida-Medium-I-Normal-Sans-17-120-100-100-P-97-ISO8859-1
SIZE 12 100 100
FONTBOUNDINGBOX 32 19 -10 -3
STARTPROPERTIES 22
COMMENT Begin LogicalFontDescription
FONTNAME_REGISTRY ""
FOUNDRY "B&H"
FAMILY_NAME "Lucida"
WEIGHT_NAME "Medium"
SLANT "I"
SETWIDTH_NAME "Normal"
ADD_STYLE_NAME "Sans"
PIXEL_SIZE 17
POINT_SIZE 120
RESOLUTION_X 100
RESOLUTION_Y 100
SPACING "P"
AVERAGE_WIDTH 97
CHARSET_REGISTRY "ISO8859"
CHARSET_ENCODING "1"
COMMENT END LogicalFontDescription
FONT_ASCENT 15
FONT_DESCENT 4
DEFAULT_CHAR 0
COPYRIGHT "Copyright Bigelow & Holmes 1986, 1985."
FACE_NAME "Lucida Sans Italic"
X_HEIGHT 9
CAP_HEIGHT 12
ENDPROPERTIES
CHARS 192
STARTCHAR defaultchar
ENCODING 0
SWIDTH 735 0
DWIDTH 12 0
BBX 11 11 1 0
BITMAP
AAA0
0000
8020
0000
8020
0000
8020
0000
8020
0000
AAA0
ENDCHAR
STARTCHAR space
ENCODING 32
SWIDTH 316 0
DWIDTH 5 0
BBX 1 1 0 0
BITMAP
00
ENDCHAR
STARTCHAR exclam
ENCODING 33
SWIDTH 193 0
DWIDTH 5 0
BBX 4 12 2 0
BITMAP
30
30
20
20
60
60
60
40
40
00
C0
C0
ENDCHAR
STARTCHAR quotedbl
ENCODING 34
SWIDTH 361 0
DWIDTH 6 0
BBX 5 4 3 8
BITMAP
D8
D8
D8
D8
ENDCHAR
STARTCHAR numbersign
ENCODING 35
SWIDTH 633 0
DWIDTH 11 0
BBX 11 12 1 0
BITMAP
0360
06C0
04C0
7FE0
7FE0
1900
1300
FFC0
FFC0
2600
4C00
DC00
ENDCHAR
STARTCHAR dollar
ENCODING 36
SWIDTH 633 0
DWIDTH 11 0
BBX 9 14 2 -1
BITMAP
0400
1F80
3F80
7400
2C00
3800
0800
0C00
1E00
1B00
1200
F600
FC00
1000
ENDCHAR
STARTCHAR percent
ENCODING 37
SWIDTH 741 0
DWIDTH 13 0
BBX 14 12 1 0
BITMAP
1C1C
3E30
6260
7EC0
3980
03F0
07F0
0D90
1910
3330
61F0
C1E0
ENDCHAR
STARTCHAR ampersand
ENCODING 38
SWIDTH 701 0
DWIDTH 12 0
BBX 12 12 1 0
BITMAP
03C0
07E0
0C60
0CC0
0F80
3E00
7630
C330
C3E0
E1C0
7FC0
3CE0
ENDCHAR
STARTCHAR quotesingle
ENCODING 39
SWIDTH 217 0
DWIDTH 4 0
BBX 2 4 3 8
BITMAP
C0
C0
C0
C0
ENDCHAR
STARTCHAR parenleft
ENCODING 40
SWIDTH 325 0
DWIDTH 6 0
BBX 6 15 2 -3
BITMAP
04
08
10
30
60
60
C0
C0
C0
C0
C0
C0
C0
60
20
ENDCHAR
STARTCHAR parenright
ENCODING 41
SWIDTH 325 0
DWIDTH 6 0
BBX 6 15 0 -3
BITMAP
10
18
18
0C
0C
0C
0C
0C
08
18
18
30
60
C0
80
ENDCHAR
STARTCHAR asterisk
ENCODING 42
SWIDTH 470 0
DWIDTH 8 0
BBX 6 6 3 6
BITMAP
10
10
FC
30
D0
98
ENDCHAR
STARTCHAR plus
ENCODING 43
SWIDTH 633 0
DWIDTH 11 0
BBX 10 10 1 0
BITMAP
0600
0600
0C00
0C00
FFC0
FFC0
0C00
0C00
1800
1800
ENDCHAR
STARTCHAR comma
ENCODING 44
SWIDTH 316 0
DWIDTH 5 0
BBX 3 5 1 -3
BITMAP
60
60
60
40
C0
ENDCHAR
STARTCHAR hyphen
ENCODING 45
SWIDTH 313 0
DWIDTH 5 0
BBX 4 2 2 4
BITMAP
F0
F0
ENDCHAR
STARTCHAR period
ENCODING 46
SWIDTH 316 0
DWIDTH 5 0
BBX 2 2 2 0
BITMAP
C0
C0
ENDCHAR
STARTCHAR slash
ENCODING 47
SWIDTH 482 0
DWIDTH 8 0
BBX 11 15 0 -3
BITMAP
0060
00C0
00C0
0180
0100
0300
0600
0400
0C00
1800
1000
3000
6000
6000
C000
ENDCHAR
STARTCHAR zero
ENCODING 48
SWIDTH 633 0
DWIDTH 11 0
BBX 10 12 2 0
BITMAP
0F00
1F80
3180
60C0
60C0
C080
C180
C180
C300
E700
7E00
3C00
ENDCHAR
STARTCHAR one
ENCODING 49
SWIDTH 633 0
DWIDTH 11 0
BBX 4 12 5 0
BITMAP
F0
F0
30
20
20
60
60
60
40
40
C0
C0
ENDCHAR
STARTCHAR two
ENCODING 50
SWIDTH 633 0
DWIDTH 11 0
BBX 9 12 2 0
BITMAP
1F00
3F80
2180
0180
0180
0700
0E00
1800
3000
6000
FE00
FE00
ENDCHAR
STARTCHAR three
ENCODING 51
SWIDTH 633 0
DWIDTH 11 0
BBX 9 12 2 0
BITMAP
1F00
3F80
0180
0180
0300
3C00
3F00
0700
0300
8700
FE00
FC00
ENDCHAR
STARTCHAR four
ENCODING 52
SWIDTH 633 0
DWIDTH 11 0
BBX 9 12 1 0
BITMAP
0380
0780
0700
0D00
1B00
3300
6200
FF80
FF80
0600
0600
0600
ENDCHAR
STARTCHAR five
ENCODING 53
SWIDTH 633 0
DWIDTH 11 0
BBX 9 12 2 0
BITMAP
1F80
3F80
2000
2000
3C00
3E00
0700
0300
0300
0600
FE00
F800
ENDCHAR
STARTCHAR six
ENCODING 54
SWIDTH 633 0
DWIDTH 11 0
BBX 10 12 2 0
BITMAP
0780
1FC0
3840
6000
7F00
FF00
E180
C180
C180
E300
7E00
3C00
ENDCHAR
STARTCHAR seven
ENCODING 55
SWIDTH 633 0
DWIDTH 11 0
BBX 9 12 3 0
BITMAP
3F80
7F80
0380
0700
0E00
1C00
3800
3000
7000
6000
C000
C000
ENDCHAR
STARTCHAR eight
ENCODING 56
SWIDTH 633 0
DWIDTH 11 0
BBX 10 12 2 0
BITMAP
0F00
1F80
30C0
3080
3380
3E00
7F00
E180
C180
C380
FF00
7C00
ENDCHAR
STARTCHAR nine
ENCODING 57
SWIDTH 633 0
DWIDTH 11 0
BBX 10 12 2 0
BITMAP
0F00
3F80
31C0
60C0
60C0
61C0
7F80
3D80
0300
8700
FE00
7800
ENDCHAR
STARTCHAR colon
ENCODING 58
SWIDTH 316 0
DWIDTH 5 0
BBX 3 9 2 0
BITMAP
60
60
00
00
00
00
00
C0
C0
ENDCHAR
STARTCHAR semicolon
ENCODING 59
SWIDTH 316 0
DWIDTH 5 0
BBX 4 12 1 -3
BITMAP
30
30
00
00
00
00
00
60
40
40
40
80
ENDCHAR
STARTCHAR less
ENCODING 60
SWIDTH 633 0
DWIDTH 11 0
BBX 12 10 2 0
BITMAP
0010
00F0
03C0
0F00
3800
F800
1E00
0780
03C0
00C0
ENDCHAR
STARTCHAR equal
ENCODING 61
SWIDTH 633 0
DWIDTH 11 0
BBX 11 5 1 2
BITMAP
7FE0
7FE0
0000
FFC0
FFC0
ENDCHAR
STARTCHAR greater
ENCODING 62
SWIDTH 633 0
DWIDTH 11 0
BBX 12 10 0 0
BITMAP
3000
3800
1E00
0780
01F0
01C0
0F00
3C00
F000
8000
ENDCHAR
STARTCHAR question
ENCODING 63
SWIDTH 464 0
DWIDTH 8 0
BBX 7 12 2 0
BITMAP
7C
7E
86
06
0C
18
30
60
60
00
C0
C0
ENDCHAR
STARTCHAR at
ENCODING 64
SWIDTH 858 0
DWIDTH 15 0
BBX 14 12 2 0
BITMAP
07E0
1FF0
3818
63CC
4FC4
888C
998C
9EF8
CCF0
6080
7F80
1E00
ENDCHAR
STARTCHAR A
ENCODING 65
SWIDTH 687 0
DWIDTH 12 0
BBX 11 12 0 0
BITMAP
0380
0380
0780
0680
0CC0
18C0
18C0
3FC0
3FC0
60E0
6060
C060
ENDCHAR
STARTCHAR B
ENCODING 66
SWIDTH 593 0
DWIDTH 10 0
BBX 9 12 1 0
BITMAP
3F00
3F80
3180
3180
2300
7E00
7F00
6300
6380
4300
FF00
FC00
ENDCHAR
STARTCHAR C
ENCODING 67
SWIDTH 679 0
DWIDTH 12 0
BBX 11 12 2 0
BITMAP
07C0
1FE0
3820
7000
6000
E000
C000
C000
C000
E080
7F80
3E00
ENDCHAR
STARTCHAR D
ENCODING 68
SWIDTH 743 0
DWIDTH 13 0
BBX 12 12 1 0
BITMAP
3FC0
3FE0
3070
3030
2030
6030
6030
6060
40E0
41C0
FF80
FE00
ENDCHAR
STARTCHAR E
ENCODING 69
SWIDTH 547 0
DWIDTH 9 0
BBX 9 12 2 0
BITMAP
3F80
3F80
3000
2000
6000
7E00
7E00
6000
4000
C000
FE00
FE00
ENDCHAR
STARTCHAR F
ENCODING 70
SWIDTH 536 0
DWIDTH 9 0
BBX 9 12 2 0
BITMAP
3F80
3F80
3000
2000
6000
7E00
7E00
6000
6000
C000
C000
C000
ENDCHAR
STARTCHAR G
ENCODING 71
SWIDTH 702 0
DWIDTH 12 0
BBX 11 12 2 0
BITMAP
07C0
1FE0
3820
7000
6000
C000
C0C0
C0C0
C080
E180
7F80
3F00
ENDCHAR
STARTCHAR H
ENCODING 72
SWIDTH 735 0
DWIDTH 12 0
BBX 12 12 1 0
BITMAP
3030
3030
3020
3060
2060
7FE0
7FE0
6040
60C0
40C0
C0C0
C0C0
ENDCHAR
STARTCHAR I
ENCODING 73
SWIDTH 289 0
DWIDTH 5 0
BBX 4 12 2 0
BITMAP
30
30
30
60
60
60
60
60
60
C0
C0
C0
ENDCHAR
STARTCHAR J
ENCODING 74
SWIDTH 408 0
DWIDTH 7 0
BBX 8 15 0 -3
BITMAP
03
03
03
06
06
06
06
06
0C
0C
0C
0C
18
F8
F0
ENDCHAR
STARTCHAR K
ENCODING 75
SWIDTH 635 0
DWIDTH 11 0
BBX 11 12 1 0
BITMAP
38E0
31C0
3380
3700
2C00
7800
7C00
6C00
6600
4700
C380
C1C0
ENDCHAR
STARTCHAR L
ENCODING 76
SWIDTH 545 0
DWIDTH 9 0
BBX 8 12 1 0
BITMAP
38
30
30
30
20
60
60
60
40
40
FF
FF
ENDCHAR
STARTCHAR M
ENCODING 77
SWIDTH 828 0
DWIDTH 14 0
BBX 13 12 2 0
BITMAP
3838
3838
2878
2C50
6CF0
6CB0
6DB0
6D30
4F20
C660
C660
C060
ENDCHAR
STARTCHAR N
ENCODING 78
SWIDTH 741 0
DWIDTH 13 0
BBX 12 12 2 0
BITMAP
3830
3830
3820
2C20
2C60
6660
6660
6340
4340
41C0
C1C0
C1C0
ENDCHAR
STARTCHAR O
ENCODING 79
SWIDTH 777 0
DWIDTH 13 0
BBX 12 12 2 0
BITMAP
07C0
1FF0
3870
7030
6030
E030
C030
C070
C060
E1C0
7F80
3E00
ENDCHAR
STARTCHAR P
ENCODING 80
SWIDTH 575 0
DWIDTH 10 0
BBX 9 12 2 0
BITMAP
3F00
3F80
3180
2180
6180
6300
7E00
7C00
6000
C000
C000
C000
ENDCHAR
STARTCHAR Q
ENCODING 81
SWIDTH 777 0
DWIDTH 13 0
BBX 12 15 2 -3
BITMAP
07C0
1FE0
3870
7030
6030
E030
C030
C070
C060
E1C0
7F80
3F00
0380
01F0
0060
ENDCHAR
STARTCHAR R
ENCODING 82
SWIDTH 632 0
DWIDTH 11 0
BBX 9 12 2 0
BITMAP
3F00
3F80
3180
2180
6100
6200
7C00
7C00
6600
C600
C300
C380
ENDCHAR
STARTCHAR S
ENCODING 83
SWIDTH 553 0
DWIDTH 9 0
BBX 10 12 1 0
BITMAP
0F80
1FC0
3840
3000
3800
1E00
0F00
0300
0380
8300
FF00
7E00
ENDCHAR
STARTCHAR T
ENCODING 84
SWIDTH 623 0
DWIDTH 11 0
BBX 11 12 2 0
BITMAP
FFE0
FFE0
0C00
0C00
0C00
0C00
1800
1800
1800
1800
1800
3000
ENDCHAR
STARTCHAR U
ENCODING 85
SWIDTH 693 0
DWIDTH 12 0
BBX 10 12 2 0
BITMAP
30C0
60C0
60C0
6080
6180
6180
C180
C100
C100
E300
FE00
7C00
ENDCHAR
STARTCHAR V
ENCODING 86
SWIDTH 687 0
DWIDTH 12 0
BBX 11 12 3 0
BITMAP
C060
C0C0
C0C0
6180
6180
6300
6200
6600
3C00
3C00
3800
3800
ENDCHAR
STARTCHAR W
ENCODING 87
SWIDTH 886 0
DWIDTH 15 0
BBX 15 12 3 0
BITMAP
C386
C38C
C78C
C798
C598
CDB0
C9B0
D9E0
D1E0
71C0
61C0
6180
ENDCHAR
STARTCHAR X
ENCODING 88
SWIDTH 620 0
DWIDTH 11 0
BBX 12 12 0 0
BITMAP
3830
1860
0CC0
0D80
0700
0600
0F00
0F00
1B80
3180
6180
C0C0
ENDCHAR
STARTCHAR Y
ENCODING 89
SWIDTH 608 0
DWIDTH 10 0
BBX 10 12 3 0
BITMAP
C1C0
6180
6300
7700
3E00
3C00
1800
1800
3000
3000
3000
3000
ENDCHAR
STARTCHAR Z
ENCODING 90
SWIDTH 578 0
DWIDTH 10 0
BBX 11 12 1 0
BITMAP
1FE0
1FE0
00C0
0180
0300
0600
0C00
1800
3000
6000
FF80
FF80
ENDCHAR
STARTCHAR bracketleft
ENCODING 91
SWIDTH 325 0
DWIDTH 6 0
BBX 6 15 1 -3
BITMAP
1C
1C
30
30
20
20
20
60
60
40
40
40
C0
E0
E0
ENDCHAR
STARTCHAR backslash
ENCODING 92
SWIDTH 482 0
DWIDTH 8 0
BBX 5 15 3 -3
BITMAP
C0
C0
C0
40
60
60
60
20
30
30
30
10
18
18
18
ENDCHAR
STARTCHAR bracketright
ENCODING 93
SWIDTH 325 0
DWIDTH 6 0
BBX 6 15 1 -3
BITMAP
1C
1C
0C
08
08
08
18
18
10
10
10
30
30
E0
E0
ENDCHAR
STARTCHAR asciicircum
ENCODING 94
SWIDTH 633 0
DWIDTH 11 0
BBX 10 11 1 2
BITMAP
0200
0200
0700
0700
0D00
1D00
1980
3080
7080
60C0
C0C0
ENDCHAR
STARTCHAR underscore
ENCODING 95
SWIDTH 500 0
DWIDTH 9 0
BBX 7 2 1 -1
BITMAP
FE
FE
ENDCHAR
STARTCHAR grave
ENCODING 96
SWIDTH 572 0
DWIDTH 10 0
BBX 3 3 6 9
BITMAP
C0
40
60
ENDCHAR
STARTCHAR a
ENCODING 97
SWIDTH 608 0
DWIDTH 10 0
BBX 9 9 1 0
BITMAP
0F80
1F80
3180
6300
4700
C700
DF00
FF00
7600
ENDCHAR
STARTCHAR b
ENCODING 98
SWIDTH 608 0
DWIDTH 10 0
BBX 9 12 2 0
BITMAP
1000
3000
3000
2700
3F80
7D80
7980
7100
6300
4600
FC00
F800
ENDCHAR
STARTCHAR c
ENCODING 99
SWIDTH 503 0
DWIDTH 9 0
BBX 8 9 1 0
BITMAP
0F
3F
70
60
C0
C0
C2
FE
78
ENDCHAR
STARTCHAR d
ENCODING 100
SWIDTH 608 0
DWIDTH 10 0
BBX 10 12 1 0
BITMAP
00C0
00C0
0080
0F80
1F80
3180
6380
4300
C700
CF00
FF00
7600
ENDCHAR
STARTCHAR e
ENCODING 101
SWIDTH 529 0
DWIDTH 9 0
BBX 8 9 1 0
BITMAP
0E
3F
62
66
FC
C0
C3
FE
7C
ENDCHAR
STARTCHAR f
ENCODING 102
SWIDTH 383 0
DWIDTH 6 0
BBX 8 16 1 -3
BITMAP
0F
1F
18
30
7C
7C
30
30
20
60
60
60
60
40
C0
C0
ENDCHAR
STARTCHAR g
ENCODING 103
SWIDTH 608 0
DWIDTH 10 0
BBX 10 12 1 -3
BITMAP
07C0
1FC0
3880
3080
6180
6380
6580
7D00
7300
8300
FE00
7C00
ENDCHAR
STARTCHAR h
ENCODING 104
SWIDTH 620 0
DWIDTH 11 0
BBX 9 12 2 0
BITMAP
1800
3000
3000
3780
2F80
7D80
7980
7100
6300
6300
C300
C300
ENDCHAR
STARTCHAR i
ENCODING 105
SWIDTH 289 0
DWIDTH 5 0
BBX 4 12 2 0
BITMAP
30
30
00
20
60
60
60
60
40
C0
C0
C0
ENDCHAR
STARTCHAR j
ENCODING 106
SWIDTH 325 0
DWIDTH 6 0
BBX 8 15 -1 -3
BITMAP
03
03
00
06
06
06
06
04
0C
0C
0C
0C
18
F0
E0
ENDCHAR
STARTCHAR k
ENCODING 107
SWIDTH 572 0
DWIDTH 10 0
BBX 9 12 2 0
BITMAP
1800
3000
3000
3380
2700
6E00
7C00
7800
5C00
4C00
C600
C300
ENDCHAR
STARTCHAR l
ENCODING 108
SWIDTH 289 0
DWIDTH 5 0
BBX 4 12 2 0
BITMAP
30
30
30
20
60
60
60
60
40
C0
C0
C0
ENDCHAR
STARTCHAR m
ENCODING 109
SWIDTH 934 0
DWIDTH 16 0
BBX 14 9 2 0
BITMAP
271C
6FFC
7D6C
7BCC
7388
6398
C318
C218
C618
ENDCHAR
STARTCHAR n
ENCODING 110
SWIDTH 620 0
DWIDTH 11 0
BBX 9 9 2 0
BITMAP
3780
2F80
7D80
7980
7100
6300
6300
C300
C300
ENDCHAR
STARTCHAR o
ENCODING 111
SWIDTH 566 0
DWIDTH 10 0
BBX 9 9 1 0
BITMAP
0F00
3F80
7180
6180
C180
C300
C700
FE00
7800
ENDCHAR
STARTCHAR p
ENCODING 112
SWIDTH 608 0
DWIDTH 10 0
BBX 10 12 1 -3
BITMAP
3380
3FC0
3CC0
38C0
3180
6180
6300
7E00
7C00
4000
C000
C000
ENDCHAR
STARTCHAR q
ENCODING 113
SWIDTH 608 0
DWIDTH 10 0
BBX 9 12 1 -3
BITMAP
0F80
1F80
3100
6300
4700
CF00
DF00
FE00
7200
0600
0600
0600
ENDCHAR
STARTCHAR r
ENCODING 114
SWIDTH 478 0
DWIDTH 8 0
BBX 8 9 1 0
BITMAP
33
2F
7C
78
70
60
40
C0
C0
ENDCHAR
STARTCHAR s
ENCODING 115
SWIDTH 489 0
DWIDTH 8 0
BBX 7 9 1 0
BITMAP
1C
3E
32
30
18
1C
8C
FC
78
ENDCHAR
STARTCHAR t
ENCODING 116
SWIDTH 383 0
DWIDTH 7 0
BBX 5 11 2 0
BITMAP
20
20
F8
F8
60
60
60
40
C0
E0
70
ENDCHAR
STARTCHAR u
ENCODING 117
SWIDTH 620 0
DWIDTH 11 0
BBX 9 9 2 0
BITMAP
6180
6180
6300
6300
C700
CF00
DF00
FA00
F600
ENDCHAR
STARTCHAR v
ENCODING 118
SWIDTH 545 0
DWIDTH 9 0
BBX 8 9 3 0
BITMAP
C3
C6
C6
CC
4C
58
70
70
60
ENDCHAR
STARTCHAR w
ENCODING 119
SWIDTH 795 0
DWIDTH 13 0
BBX 12 9 2 0
BITMAP
C630
CE30
CE60
DE60
5AC0
5AC0
7380
7380
6300
ENDCHAR
STARTCHAR x
ENCODING 120
SWIDTH 541 0
DWIDTH 9 0
BBX 10 9 0 0
BITMAP
30C0
1980
1B00
0E00
0C00
1E00
3600
6300
C380
ENDCHAR
STARTCHAR y
ENCODING 121
SWIDTH 548 0
DWIDTH 9 0
BBX 10 12 2 -3
BITMAP
61C0
6380
6300
6600
6E00
6C00
3800
3800
3000
3000
6000
C000
ENDCHAR
STARTCHAR z
ENCODING 122
SWIDTH 536 0
DWIDTH 9 0
BBX 9 9 1 0
BITMAP
3F80
3F80
0700
0E00
1C00
3800
7000
FF00
FF00
ENDCHAR
STARTCHAR braceleft
ENCODING 123
SWIDTH 325 0
DWIDTH 6 0
BBX 6 15 1 -3
BITMAP
1C
1C
38
30
30
30
30
E0
E0
60
60
60
C0
E0
60
ENDCHAR
STARTCHAR bar
ENCODING 124
SWIDTH 233 0
DWIDTH 4 0
BBX 4 15 1 -3
BITMAP
30
30
30
20
20
20
60
60
60
40
40
40
C0
C0
C0
ENDCHAR
STARTCHAR braceright
ENCODING 125
SWIDTH 325 0
DWIDTH 6 0
BBX 6 15 0 -3
BITMAP
18
1C
0C
08
18
18
0C
0C
30
30
30
30
30
E0
E0
ENDCHAR
STARTCHAR asciitilde
ENCODING 126
SWIDTH 633 0
DWIDTH 11 0
BBX 10 4 1 3
BITMAP
7040
7CC0
CF80
8380
ENDCHAR
STARTCHAR space
ENCODING 160
SWIDTH 316 0
DWIDTH 5 0
BBX 1 1 0 0
BITMAP
00
ENDCHAR
STARTCHAR exclamdown
ENCODING 161
SWIDTH 193 0
DWIDTH 5 0
BBX 4 12 1 -3
BITMAP
30
30
00
20
20
60
60
60
40
40
C0
C0
ENDCHAR
STARTCHAR cent
ENCODING 162
SWIDTH 633 0
DWIDTH 11 0
BBX 8 12 3 0
BITMAP
04
0F
3F
78
68
C8
C8
D0
D2
FE
7C
30
ENDCHAR
STARTCHAR sterling
ENCODING 163
SWIDTH 633 0
DWIDTH 11 0
BBX 9 12 2 0
BITMAP
0780
0F80
1800
1800
1800
7C00
7C00
3000
3000
2000
7E00
FE00
ENDCHAR
STARTCHAR currency
ENCODING 164
SWIDTH 633 0
DWIDTH 11 0
BBX 13 10 0 1
BITMAP
7030
3778
1FE0
18C0
3040
30C0
3180
3FC0
6EE0
C040
ENDCHAR
STARTCHAR yen
ENCODING 165
SWIDTH 633 0
DWIDTH 11 0
BBX 10 12 3 0
BITMAP
E1C0
6300
3E00
1C00
7E00
FE00
1000
FE00
FE00
3000
3000
3000
ENDCHAR
STARTCHAR brokenbar
ENCODING 166
SWIDTH 233 0
DWIDTH 4 0
BBX 4 15 1 -3
BITMAP
30
30
30
20
20
60
00
00
00
60
40
40
C0
C0
C0
ENDCHAR
STARTCHAR section
ENCODING 167
SWIDTH 633 0
DWIDTH 11 0
BBX 10 15 1 -3
BITMAP
0FC0
1F80
3800
3000
1800
3E00
6700
6180
7980
1F00
0600
0300
8700
FF00
7C00
ENDCHAR
STARTCHAR dieresis
ENCODING 168
SWIDTH 566 0
DWIDTH 10 0
BBX 5 2 5 10
BITMAP
D8
D8
ENDCHAR
STARTCHAR copyright
ENCODING 169
SWIDTH 858 0
DWIDTH 15 0
BBX 14 12 2 0
BITMAP
0FC0
3FF0
7038
4388
CFCC
9844
9884
DF8C
4F08
7038
3FF0
0FC0
ENDCHAR
STARTCHAR ordfeminine
ENCODING 170
SWIDTH 392 0
DWIDTH 7 0
BBX 7 6 2 6
BITMAP
38
7E
C4
DC
FC
EC
ENDCHAR
STARTCHAR guillemotleft
ENCODING 171
SWIDTH 527 0
DWIDTH 9 0
BBX 8 9 2 0
BITMAP
11
3B
76
6C
D8
DC
6C
26
24
ENDCHAR
STARTCHAR logicalnot
ENCODING 172
SWIDTH 633 0
DWIDTH 11 0
BBX 10 5 2 2
BITMAP
FFC0
FFC0
00C0
0080
0080
ENDCHAR
STARTCHAR hyphen
ENCODING 173
SWIDTH 313 0
DWIDTH 5 0
BBX 4 2 2 4
BITMAP
F0
F0
ENDCHAR
STARTCHAR registered
ENCODING 174
SWIDTH 633 0
DWIDTH 11 0
BBX 8 7 3 5
BITMAP
3C
7E
DF
99
EB
7E
3C
ENDCHAR
STARTCHAR macron
ENCODING 175
SWIDTH 566 0
DWIDTH 10 0
BBX 5 2 5 10
BITMAP
F8
F8
ENDCHAR
STARTCHAR degree
ENCODING 176
SWIDTH 269 0
DWIDTH 5 0
BBX 3 3 3 9
BITMAP
E0
A0
E0
ENDCHAR
STARTCHAR plusminus
ENCODING 177
SWIDTH 633 0
DWIDTH 11 0
BBX 11 10 1 0
BITMAP
0200
0200
0600
7FE0
7FE0
0400
0400
0000
FFC0
FFC0
ENDCHAR
STARTCHAR twosuperior
ENCODING 178
SWIDTH 392 0
DWIDTH 6 0
BBX 6 7 -8 5
BITMAP
38
64
04
18
20
40
F8
ENDCHAR
STARTCHAR threesuperior
ENCODING 179
SWIDTH 392 0
DWIDTH 6 0
BBX 5 7 -8 5
BITMAP
78
08
08
70
18
18
F0
ENDCHAR
STARTCHAR acute
ENCODING 180
SWIDTH 566 0
DWIDTH 10 0
BBX 4 3 6 9
BITMAP
30
60
C0
ENDCHAR
STARTCHAR mu
ENCODING 181
SWIDTH 627 0
DWIDTH 11 0
BBX 10 12 1 -3
BITMAP
30C0
30C0
3080
2180
6180
6380
6780
7D00
7B00
C000
C000
C000
ENDCHAR
STARTCHAR paragraph
ENCODING 182
SWIDTH 633 0
DWIDTH 11 0
BBX 8 15 2 -3
BITMAP
7F
FF
FA
FA
FA
7A
12
14
14
14
34
2C
28
28
68
ENDCHAR
STARTCHAR periodcentered
ENCODING 183
SWIDTH 316 0
DWIDTH 11 0
BBX 2 2 5 4
BITMAP
C0
C0
ENDCHAR
STARTCHAR cedilla
ENCODING 184
SWIDTH 566 0
DWIDTH 10 0
BBX 3 3 3 -3
BITMAP
60
20
E0
ENDCHAR
STARTCHAR onesuperior
ENCODING 185
SWIDTH 392 0
DWIDTH 6 0
BBX 2 7 -10 5
BITMAP
C0
40
40
80
80
80
80
ENDCHAR
STARTCHAR ordmasculine
ENCODING 186
SWIDTH 392 0
DWIDTH 7 0
BBX 7 6 2 6
BITMAP
1C
7E
C6
C6
FC
70
ENDCHAR
STARTCHAR guillemotright
ENCODING 187
SWIDTH 527 0
DWIDTH 9 0
BBX 8 9 1 0
BITMAP
2C
66
36
3B
1B
36
6E
DC
88
ENDCHAR
STARTCHAR onequarter
ENCODING 188
SWIDTH 865 0
DWIDTH 15 0
BBX 13 12 7 0
BITMAP
C018
4030
4060
80C0
8180
8330
8630
0C50
18A0
31F0
6020
C020
ENDCHAR
STARTCHAR onehalf
ENCODING 189
SWIDTH 865 0
DWIDTH 15 0
BBX 13 12 7 0
BITMAP
C018
4030
4060
80C0
8180
8370
86C8
0C08
1830
3040
6080
C1F0
ENDCHAR
STARTCHAR threequarters
ENCODING 190
SWIDTH 865 0
DWIDTH 15 0
BBX 14 12 8 0
BITMAP
780C
0818
0830
7060
18C0
1998
F318
0628
0C50
18F8
3010
6010
ENDCHAR
STARTCHAR questiondown
ENCODING 191
SWIDTH 464 0
DWIDTH 8 0
BBX 7 12 1 -3
BITMAP
06
06
00
0C
0C
18
30
60
C0
C2
FC
7C
ENDCHAR
STARTCHAR Agrave
ENCODING 192
SWIDTH 687 0
DWIDTH 12 0
BBX 11 16 0 0
BITMAP
0300
0100
0180
0000
0380
0380
0780
0680
0CC0
18C0
18C0
3FC0
3FC0
60E0
6060
C060
ENDCHAR
STARTCHAR Aacute
ENCODING 193
SWIDTH 687 0
DWIDTH 12 0
BBX 11 16 0 0
BITMAP
0060
00C0
0180
0000
0380
0380
0780
0680
0CC0
18C0
18C0
3FC0
3FC0
60E0
6060
C060
ENDCHAR
STARTCHAR Acircumflex
ENCODING 194
SWIDTH 687 0
DWIDTH 12 0
BBX 11 16 0 0
BITMAP
0180
0380
0640
0000
0380
0380
0780
0680
0CC0
18C0
18C0
3FC0
3FC0
60E0
6060
C060
ENDCHAR
STARTCHAR Atilde
ENCODING 195
SWIDTH 687 0
DWIDTH 12 0
BBX 11 15 0 0
BITMAP
01A0
02C0
0000
0380
0380
0780
0680
0CC0
18C0
18C0
3FC0
3FC0
60E0
6060
C060
ENDCHAR
STARTCHAR Adieresis
ENCODING 196
SWIDTH 687 0
DWIDTH 12 0
BBX 11 15 0 0
BITMAP
06C0
06C0
0000
0380
0380
0780
0680
0CC0
18C0
18C0
3FC0
3FC0
60E0
6060
C060
ENDCHAR
STARTCHAR Aring
ENCODING 197
SWIDTH 687 0
DWIDTH 12 0
BBX 11 16 0 0
BITMAP
01C0
0140
01C0
0000
0380
0380
0780
0680
0CC0
18C0
18C0
3FC0
3FC0
60E0
6060
C060
ENDCHAR
STARTCHAR AE
ENCODING 198
SWIDTH 893 0
DWIDTH 15 0
BBX 17 12 0 0
BITMAP
007F80
00FF80
01E000
03E000
037E00
067E00
0C4000
1FC000
1FC000
30C000
60FE00
C0FE00
ENDCHAR
STARTCHAR Ccedilla
ENCODING 199
SWIDTH 679 0
DWIDTH 12 0
BBX 11 15 2 -3
BITMAP
07C0
1FE0
3820
7000
6000
E000
C000
C000
C000
E080
7F80
3E00
1000
0800
3800
ENDCHAR
STARTCHAR Egrave
ENCODING 200
SWIDTH 547 0
DWIDTH 9 0
BBX 9 16 2 0
BITMAP
0C00
0400
0600
0000
3F80
3F80
3000
2000
6000
7E00
7E00
6000
4000
C000
FE00
FE00
ENDCHAR
STARTCHAR Eacute
ENCODING 201
SWIDTH 547 0
DWIDTH 9 0
BBX 9 16 2 0
BITMAP
0300
0600
0C00
0000
3F80
3F80
3000
2000
6000
7E00
7E00
6000
4000
C000
FE00
FE00
ENDCHAR
STARTCHAR Ecircumflex
ENCODING 202
SWIDTH 547 0
DWIDTH 9 0
BBX 9 16 2 0
BITMAP
0600
0E00
1900
0000
3F80
3F80
3000
2000
6000
7E00
7E00
6000
4000
C000
FE00
FE00
ENDCHAR
STARTCHAR Edieresis
ENCODING 203
SWIDTH 547 0
DWIDTH 9 0
BBX 9 15 2 0
BITMAP
1B00
1B00
0000
3F80
3F80
3000
2000
6000
7E00
7E00
6000
4000
C000
FE00
FE00
ENDCHAR
STARTCHAR Igrave
ENCODING 204
SWIDTH 289 0
DWIDTH 5 0
BBX 5 16 2 0
BITMAP
30
10
18
00
30
30
30
60
60
60
60
60
60
C0
C0
C0
ENDCHAR
STARTCHAR Iacute
ENCODING 205
SWIDTH 289 0
DWIDTH 5 0
BBX 6 16 2 0
BITMAP
0C
18
30
00
30
30
30
60
60
60
60
60
60
C0
C0
C0
ENDCHAR
STARTCHAR Icircumflex
ENCODING 206
SWIDTH 289 0
DWIDTH 5 0
BBX 6 16 2 0
BITMAP
18
38
64
00
30
30
30
60
60
60
60
60
60
C0
C0
C0
ENDCHAR
STARTCHAR Idieresis
ENCODING 207
SWIDTH 289 0
DWIDTH 5 0
BBX 6 15 2 0
BITMAP
6C
6C
00
30
30
30
60
60
60
60
60
60
C0
C0
C0
ENDCHAR
STARTCHAR Eth
ENCODING 208
SWIDTH 743 0
DWIDTH 13 0
BBX 12 12 1 0
BITMAP
1FC0
1FE0
3870
3030
3030
FC30
FC30
3060
60E0
61C0
7F80
7F00
ENDCHAR
STARTCHAR Ntilde
ENCODING 209
SWIDTH 741 0
DWIDTH 13 0
BBX 12 15 2 0
BITMAP
0340
0580
0000
3830
3830
3820
2C20
2C60
6660
6660
6340
4340
41C0
C1C0
C1C0
ENDCHAR
STARTCHAR Ograve
ENCODING 210
SWIDTH 777 0
DWIDTH 13 0
BBX 12 16 2 0
BITMAP
0300
0100
0180
0000
07C0
1FF0
3870
7030
6030
E030
C030
C070
C060
E1C0
7F80
3E00
ENDCHAR
STARTCHAR Oacute
ENCODING 211
SWIDTH 777 0
DWIDTH 13 0
BBX 12 16 2 0
BITMAP
00C0
0180
0300
0000
07C0
1FF0
3870
7030
6030
E030
C030
C070
C060
E1C0
7F80
3E00
ENDCHAR
STARTCHAR Ocircumflex
ENCODING 212
SWIDTH 777 0
DWIDTH 13 0
BBX 12 16 2 0
BITMAP
0180
0380
0640
0000
07C0
1FF0
3870
7030
6030
E030
C030
C070
C060
E1C0
7F80
3E00
ENDCHAR
STARTCHAR Otilde
ENCODING 213
SWIDTH 777 0
DWIDTH 13 0
BBX 12 15 2 0
BITMAP
0340
0580
0000
07C0
1FF0
3870
7030
6030
E030
C030
C070
C060
E1C0
7F80
3E00
ENDCHAR
STARTCHAR Odieresis
ENCODING 214
SWIDTH 777 0
DWIDTH 13 0
BBX 12 15 2 0
BITMAP
06C0
06C0
0000
07C0
1FF0
3870
7030
6030
E030
C030
C070
C060
E1C0
7F80
3E00
ENDCHAR
STARTCHAR multiply
ENCODING 215
SWIDTH 633 0
DWIDTH 11 0
BBX 11 10 1 0
BITMAP
6060
30E0
1980
1B00
0E00
0E00
1F00
3380
E180
C0C0
ENDCHAR
STARTCHAR Oslash
ENCODING 216
SWIDTH 777 0
DWIDTH 13 0
BBX 14 12 3 0
BITMAP
03EC
0FF8
1C38
3878
30D8
7398
6718
6E38
7C30
78E0
7FC0
FF00
ENDCHAR
STARTCHAR Ugrave
ENCODING 217
SWIDTH 693 0
DWIDTH 12 0
BBX 10 16 2 0
BITMAP
0C00
0400
0600
0000
30C0
60C0
60C0
6080
6180
6180
C180
C100
C100
E300
FE00
7C00
ENDCHAR
STARTCHAR Uacute
ENCODING 218
SWIDTH 693 0
DWIDTH 12 0
BBX 10 16 2 0
BITMAP
0180
0300
0600
0000
30C0
60C0
60C0
6080
6180
6180
C180
C100
C100
E300
FE00
7C00
ENDCHAR
STARTCHAR Ucircumflex
ENCODING 219
SWIDTH 693 0
DWIDTH 12 0
BBX 10 16 2 0
BITMAP
0600
0E00
1900
0000
30C0
60C0
60C0
6080
6180
6180
C180
C100
C100
E300
FE00
7C00
ENDCHAR
STARTCHAR Udieresis
ENCODING 220
SWIDTH 693 0
DWIDTH 12 0
BBX 10 15 2 0
BITMAP
1B00
1B00
0000
30C0
60C0
60C0
6080
6180
6180
C180
C100
C100
E300
FE00
7C00
ENDCHAR
STARTCHAR Yacute
ENCODING 221
SWIDTH 608 0
DWIDTH 10 0
BBX 10 16 3 0
BITMAP
0300
0600
0C00
0000
C1C0
6180
6300
7700
3E00
3C00
1800
1800
3000
3000
3000
3000
ENDCHAR
STARTCHAR Thorn
ENCODING 222
SWIDTH 575 0
DWIDTH 10 0
BBX 9 12 2 0
BITMAP
3000
3000
3F00
3F80
2180
6180
6180
6700
7E00
7C00
C000
C000
ENDCHAR
STARTCHAR germandbls
ENCODING 223
SWIDTH 595 0
DWIDTH 10 0
BBX 9 16 1 -3
BITMAP
0F00
1F80
1980
1300
3600
3C00
3C00
2E00
2300
6180
6180
6F80
7F00
4000
C000
C000
ENDCHAR
STARTCHAR agrave
ENCODING 224
SWIDTH 608 0
DWIDTH 10 0
BBX 9 13 1 0
BITMAP
0600
0200
0300
0000
0F80
1F80
3180
6300
4700
C700
DF00
FF00
7600
ENDCHAR
STARTCHAR aacute
ENCODING 225
SWIDTH 608 0
DWIDTH 10 0
BBX 9 13 1 0
BITMAP
0180
0300
0600
0000
0F80
1F80
3180
6300
4700
C700
DF00
FF00
7600
ENDCHAR
STARTCHAR acircumflex
ENCODING 226
SWIDTH 608 0
DWIDTH 10 0
BBX 9 13 1 0
BITMAP
0300
0700
0C80
0000
0F80
1F80
3180
6300
4700
C700
DF00
FF00
7600
ENDCHAR
STARTCHAR atilde
ENCODING 227
SWIDTH 608 0
DWIDTH 10 0
BBX 9 12 1 0
BITMAP
0680
0B00
0000
0F80
1F80
3180
6300
4700
C700
DF00
FF00
7600
ENDCHAR
STARTCHAR adieresis
ENCODING 228
SWIDTH 608 0
DWIDTH 10 0
BBX 9 12 1 0
BITMAP
0D80
0D80
0000
0F80
1F80
3180
6300
4700
C700
DF00
FF00
7600
ENDCHAR
STARTCHAR aring
ENCODING 229
SWIDTH 608 0
DWIDTH 10 0
BBX 9 13 1 0
BITMAP
0700
0500
0700
0000
0F80
1F80
3180
6300
4700
C700
DF00
FF00
7600
ENDCHAR
STARTCHAR ae
ENCODING 230
SWIDTH 893 0
DWIDTH 15 0
BBX 14 9 1 0
BITMAP
0FBC
1FFC
31CC
6388
C7F0
C700
DF04
FDFC
70F0
ENDCHAR
STARTCHAR ccedilla
ENCODING 231
SWIDTH 503 0
DWIDTH 9 0
BBX 8 12 1 -3
BITMAP
0F
3F
70
60
C0
C0
C2
FE
78
20
10
70
ENDCHAR
STARTCHAR egrave
ENCODING 232
SWIDTH 529 0
DWIDTH 9 0
BBX 8 13 1 0
BITMAP
0C
04
06
00
0E
3F
62
66
FC
C0
C3
FE
7C
ENDCHAR
STARTCHAR eacute
ENCODING 233
SWIDTH 529 0
DWIDTH 9 0
BBX 8 13 1 0
BITMAP
03
06
0C
00
0E
3F
62
66
FC
C0
C3
FE
7C
ENDCHAR
STARTCHAR ecircumflex
ENCODING 234
SWIDTH 529 0
DWIDTH 9 0
BBX 8 13 1 0
BITMAP
06
0E
19
00
0E
3F
62
66
FC
C0
C3
FE
7C
ENDCHAR
STARTCHAR edieresis
ENCODING 235
SWIDTH 529 0
DWIDTH 9 0
BBX 8 12 1 0
BITMAP
1B
1B
00
0E
3F
62
66
FC
C0
C3
FE
7C
ENDCHAR
STARTCHAR igrave
ENCODING 236
SWIDTH 289 0
DWIDTH 5 0
BBX 4 13 2 0
BITMAP
60
20
30
00
60
60
60
60
40
40
C0
C0
C0
ENDCHAR
STARTCHAR iacute
ENCODING 237
SWIDTH 289 0
DWIDTH 5 0
BBX 6 13 2 0
BITMAP
0C
18
30
00
60
60
60
60
40
40
C0
C0
C0
ENDCHAR
STARTCHAR icircumflex
ENCODING 238
SWIDTH 289 0
DWIDTH 5 0
BBX 5 13 2 0
BITMAP
30
70
C8
00
60
60
60
60
40
40
C0
C0
C0
ENDCHAR
STARTCHAR idieresis
ENCODING 239
SWIDTH 289 0
DWIDTH 5 0
BBX 6 12 2 0
BITMAP
6C
6C
00
60
60
60
60
40
40
C0
C0
C0
ENDCHAR
STARTCHAR eth
ENCODING 240
SWIDTH 556 0
DWIDTH 9 0
BBX 9 12 1 0
BITMAP
3F00
3E00
1F00
1F00
3F80
7380
6180
C180
C300
C700
FE00
7800
ENDCHAR
STARTCHAR ntilde
ENCODING 241
SWIDTH 620 0
DWIDTH 11 0
BBX 9 12 2 0
BITMAP
0680
0B00
0000
3780
2F80
7D80
7980
7100
6300
6300
C300
C300
ENDCHAR
STARTCHAR ograve
ENCODING 242
SWIDTH 566 0
DWIDTH 10 0
BBX 9 13 1 0
BITMAP
0C00
0400
0600
0000
0F00
3F80
7180
6180
C180
C300
C700
FE00
7800
ENDCHAR
STARTCHAR oacute
ENCODING 243
SWIDTH 566 0
DWIDTH 10 0
BBX 9 13 1 0
BITMAP
0180
0300
0600
0000
0F00
3F80
7180
6180
C180
C300
C700
FE00
7800
ENDCHAR
STARTCHAR ocircumflex
ENCODING 244
SWIDTH 566 0
DWIDTH 10 0
BBX 9 13 1 0
BITMAP
0600
0E00
1900
0000
0F00
3F80
7180
6180
C180
C300
C700
FE00
7800
ENDCHAR
STARTCHAR otilde
ENCODING 245
SWIDTH 566 0
DWIDTH 10 0
BBX 9 12 1 0
BITMAP
0680
0B00
0000
0F00
3F80
7180
6180
C180
C300
C700
FE00
7800
ENDCHAR
STARTCHAR odieresis
ENCODING 246
SWIDTH 566 0
DWIDTH 10 0
BBX 9 12 1 0
BITMAP
0D80
0D80
0000
0F00
3F80
7180
6180
C180
C300
C700
FE00
7800
ENDCHAR
STARTCHAR divide
ENCODING 247
SWIDTH 633 0
DWIDTH 11 0
BBX 10 9 1 0
BITMAP
0600
0400
0000
FFC0
FFC0
0000
0000
0800
1800
ENDCHAR
STARTCHAR oslash
ENCODING 248
SWIDTH 566 0
DWIDTH 10 0
BBX 10 9 1 0
BITMAP
0FC0
3F80
7380
6780
CD80
DB00
F700
FE00
F800
ENDCHAR
STARTCHAR ugrave
ENCODING 249
SWIDTH 620 0
DWIDTH 11 0
BBX 9 13 2 0
BITMAP
0C00
0400
0600
0000
6180
6180
6300
6300
C700
CF00
DF00
FA00
F600
ENDCHAR
STARTCHAR uacute
ENCODING 250
SWIDTH 620 0
DWIDTH 11 0
BBX 9 13 2 0
BITMAP
0180
0300
0600
0000
6180
6180
6300
6300
C700
CF00
DF00
FA00
F600
ENDCHAR
STARTCHAR ucircumflex
ENCODING 251
SWIDTH 620 0
DWIDTH 11 0
BBX 9 13 2 0
BITMAP
0600
0E00
1900
0000
6180
6180
6300
6300
C700
CF00
DF00
FA00
F600
ENDCHAR
STARTCHAR udieresis
ENCODING 252
SWIDTH 620 0
DWIDTH 11 0
BBX 9 12 2 0
BITMAP
1B00
1B00
0000
6180
6180
6300
6300
C700
CF00
DF00
FA00
F600
ENDCHAR
STARTCHAR yacute
ENCODING 253
SWIDTH 548 0
DWIDTH 9 0
BBX 10 16 2 -3
BITMAP
0300
0600
0C00
0000
61C0
6380
6300
6600
6E00
6C00
3800
3800
3000
3000
6000
C000
ENDCHAR
STARTCHAR thorn
ENCODING 254
SWIDTH 608 0
DWIDTH 10 0
BBX 10 15 1 -3
BITMAP
1800
1800
3000
3380
3FC0
3CC0
38C0
7180
6180
6300
7E00
7C00
C000
C000
C000
ENDCHAR
STARTCHAR ydieresis
ENCODING 255
SWIDTH 548 0
DWIDTH 9 0
BBX 10 15 2 -3
BITMAP
1B00
1B00
0000
61C0
6380
6300
6600
6E00
6C00
3800
3800
3000
3000
6000
C000
ENDCHAR
ENDFONT
