STARTFONT 2.1
COMMENT AUTOMATICALLY GENERATED FILE. DO NOT EDIT!
COMMENT Generated with 'ucs2any.pl lutBS19.bdf ../../../fonts/util/map-ISO8859-1 ISO8859-1'
COMMENT from an ISO10646-1 encoded source BDF font.
COMMENT ucs2any.pl by Markus Kuhn <mkuhn@acm.org>, 2000.
COMMENT $Xorg: $
COMMENT ISO10646-1 extension by Markus Kuhn <mkuhn@acm.org>, 2001-03-20
FONT -B&H-LucidaTypewriter-Bold-R-Normal-Sans-26-190-100-100-M-159-ISO8859-1
SIZE 19 100 100
FONTBOUNDINGBOX 21 29 -3 -5
STARTPROPERTIES 22
FONTNAME_REGISTRY ""
FOUNDRY "B&H"
FAMILY_NAME "LucidaTypewriter"
WEIGHT_NAME "Bold"
SLANT "R"
SETWIDTH_NAME "Normal"
ADD_STYLE_NAME "Sans"
PIXEL_SIZE 26
POINT_SIZE 190
RESOLUTION_X 100
RESOLUTION_Y 100
SPACING "M"
AVERAGE_WIDTH "159"
CHARSET_REGISTRY "ISO8859"
CHARSET_ENCODING "1"
COPYRIGHT "Copyright Bigelow & Holmes 1986, 1985."
FONT_ASCENT 24
FONT_DESCENT 5
DEFAULT_CHAR 0
FACE_NAME "Lucida Sans Typewriter Bold"
X_HEIGHT 14
CAP_HEIGHT 19
ENDPROPERTIES
CHARS 192
STARTCHAR defaultchar
ENCODING 0
SWIDTH 602 0
DWIDTH 16 0
BBX 13 19 1 0
BITMAP
AAA8
0000
8008
0000
8008
0000
8008
0000
8008
0000
8008
0000
8008
0000
8008
0000
8008
0000
AAA8
ENDCHAR
STARTCHAR space
ENCODING 32
SWIDTH 602 0
DWIDTH 16 0
BBX 1 1 0 0
BITMAP
00
ENDCHAR
STARTCHAR exclam
ENCODING 33
SWIDTH 602 0
DWIDTH 16 0
BBX 4 19 6 0
BITMAP
F0
F0
F0
F0
F0
F0
F0
F0
F0
70
70
70
70
00
00
00
F0
F0
F0
ENDCHAR
STARTCHAR quotedbl
ENCODING 34
SWIDTH 602 0
DWIDTH 16 0
BBX 11 8 2 12
BITMAP
FBE0
FBE0
FBE0
FBE0
71C0
71C0
71C0
71C0
ENDCHAR
STARTCHAR numbersign
ENCODING 35
SWIDTH 602 0
DWIDTH 16 0
BBX 14 19 1 0
BITMAP
07B8
0738
0778
0770
0E70
7FFC
7FFC
7FFC
1EE0
1CE0
1DE0
FFF8
FFF8
FFF8
39C0
3B80
7B80
7380
7780
ENDCHAR
STARTCHAR dollar
ENCODING 36
SWIDTH 602 0
DWIDTH 16 0
BBX 12 24 2 -3
BITMAP
0700
0700
0FE0
3FE0
7FE0
F820
F000
F000
F800
7E00
7F00
1FC0
0FE0
03E0
01F0
00F0
00F0
C1F0
FFE0
FFE0
7FC0
0700
0700
0700
ENDCHAR
STARTCHAR percent
ENCODING 37
SWIDTH 602 0
DWIDTH 16 0
BBX 17 19 0 0
BITMAP
3C0F00
7E1E00
FF1C00
E73C00
E73800
E77800
E77000
FFE000
7FE000
3DC000
03DE00
03BF00
077F80
0F7380
0E7380
1E7380
1C7F80
3C3F00
781E00
ENDCHAR
STARTCHAR ampersand
ENCODING 38
SWIDTH 602 0
DWIDTH 16 0
BBX 15 19 0 0
BITMAP
0F80
1FC0
3FE0
3DE0
3DE0
3DE0
1FC0
1F80
1F1E
3F1E
7F9E
F79E
F7DC
F3FC
F3F8
F9F0
7FF0
3FF8
1FBE
ENDCHAR
STARTCHAR quotesingle
ENCODING 39
SWIDTH 602 0
DWIDTH 16 0
BBX 4 9 6 11
BITMAP
F0
F0
F0
F0
F0
70
70
70
70
ENDCHAR
STARTCHAR parenleft
ENCODING 40
SWIDTH 602 0
DWIDTH 16 0
BBX 11 24 3 -4
BITMAP
00E0
03E0
0FE0
1F80
3E00
3C00
7800
7800
F800
F000
F000
F000
F000
F000
F000
F000
7800
7800
3C00
3E00
1F00
07E0
03E0
0060
ENDCHAR
STARTCHAR parenright
ENCODING 41
SWIDTH 602 0
DWIDTH 16 0
BBX 11 24 1 -4
BITMAP
C000
F800
FC00
1F00
0F80
0780
03C0
03C0
01E0
01E0
01E0
01E0
01E0
01E0
01E0
03E0
03C0
03C0
0780
0F80
3F00
FE00
F800
E000
ENDCHAR
STARTCHAR asterisk
ENCODING 42
SWIDTH 602 0
DWIDTH 16 0
BBX 12 11 2 8
BITMAP
0F00
0600
4620
6660
F9F0
F0F0
0900
1F80
79C0
39E0
1080
ENDCHAR
STARTCHAR plus
ENCODING 43
SWIDTH 602 0
DWIDTH 16 0
BBX 13 14 1 0
BITMAP
0700
0700
0700
0700
0700
FFF8
FFF8
FFF8
0700
0700
0700
0700
0700
0700
ENDCHAR
STARTCHAR comma
ENCODING 44
SWIDTH 602 0
DWIDTH 16 0
BBX 4 9 6 -4
BITMAP
F0
F0
F0
F0
F0
70
70
E0
C0
ENDCHAR
STARTCHAR hyphen
ENCODING 45
SWIDTH 602 0
DWIDTH 16 0
BBX 13 3 1 5
BITMAP
FFF8
FFF8
FFF8
ENDCHAR
STARTCHAR period
ENCODING 46
SWIDTH 602 0
DWIDTH 16 0
BBX 4 4 6 0
BITMAP
F0
F0
F0
F0
ENDCHAR
STARTCHAR slash
ENCODING 47
SWIDTH 602 0
DWIDTH 16 0
BBX 15 24 0 -4
BITMAP
001E
001C
003C
0038
0078
0070
00F0
00E0
00E0
01C0
01C0
0380
0380
0700
0700
0E00
0E00
1C00
1C00
3800
3800
7000
7000
E000
ENDCHAR
STARTCHAR zero
ENCODING 48
SWIDTH 602 0
DWIDTH 16 0
BBX 14 19 1 0
BITMAP
0FC0
1FE0
3FF0
7878
7878
F03C
F03C
F03C
F03C
F03C
F03C
F03C
F03C
F03C
7878
7878
3FF0
1FE0
0FC0
ENDCHAR
STARTCHAR one
ENCODING 49
SWIDTH 602 0
DWIDTH 16 0
BBX 12 19 2 0
BITMAP
FF00
FF00
FF00
0F00
0F00
0F00
0F00
0F00
0F00
0F00
0F00
0F00
0F00
0F00
0F00
0F00
FFF0
FFF0
FFF0
ENDCHAR
STARTCHAR two
ENCODING 50
SWIDTH 602 0
DWIDTH 16 0
BBX 11 19 2 0
BITMAP
3F00
7F80
7FC0
43E0
01E0
01E0
01E0
03E0
03C0
0780
0F00
1F00
3C00
7800
7800
F000
FFE0
FFE0
FFE0
ENDCHAR
STARTCHAR three
ENCODING 51
SWIDTH 602 0
DWIDTH 16 0
BBX 11 19 2 0
BITMAP
7F00
FFC0
FFC0
83E0
01E0
01E0
03C0
07C0
3E00
3F00
3FC0
07C0
01E0
01E0
01E0
83E0
FFC0
FF80
7E00
ENDCHAR
STARTCHAR four
ENCODING 52
SWIDTH 602 0
DWIDTH 16 0
BBX 14 19 1 0
BITMAP
03E0
03E0
07E0
0FE0
0FE0
1FE0
3DE0
39E0
79E0
F1E0
FFFC
FFFC
FFFC
FFFC
01E0
01E0
01E0
01E0
01E0
ENDCHAR
STARTCHAR five
ENCODING 53
SWIDTH 602 0
DWIDTH 16 0
BBX 10 19 3 0
BITMAP
FFC0
FFC0
FFC0
E000
E000
E000
E000
F800
FF00
FF80
0F80
07C0
03C0
03C0
03C0
8780
FF80
FF00
7C00
ENDCHAR
STARTCHAR six
ENCODING 54
SWIDTH 602 0
DWIDTH 16 0
BBX 13 19 1 0
BITMAP
03F0
0FF0
1FF0
3E10
7800
7800
F000
F3C0
FFF0
FFF0
F8F8
F078
F078
F078
7078
78F0
3FF0
1FE0
0FC0
ENDCHAR
STARTCHAR seven
ENCODING 55
SWIDTH 602 0
DWIDTH 16 0
BBX 11 19 3 0
BITMAP
FFE0
FFE0
FFE0
01E0
01E0
03C0
0380
0780
0F00
0F00
1E00
1E00
3C00
3C00
3800
7800
7800
7800
7800
ENDCHAR
STARTCHAR eight
ENCODING 56
SWIDTH 602 0
DWIDTH 16 0
BBX 13 19 1 0
BITMAP
0F80
3FE0
3FF0
78F0
78F0
7CF0
7FE0
3FC0
1F80
1FE0
3BF0
71F0
F0F8
F078
F078
F8F8
7FF0
3FE0
1F80
ENDCHAR
STARTCHAR nine
ENCODING 57
SWIDTH 602 0
DWIDTH 16 0
BBX 13 19 2 0
BITMAP
1F80
3FC0
7FE0
78F0
F070
F078
F078
F078
F8F8
7FF8
7FF8
1E78
0078
00F0
00F0
43E0
7FC0
7F80
7E00
ENDCHAR
STARTCHAR colon
ENCODING 58
SWIDTH 602 0
DWIDTH 16 0
BBX 4 14 6 0
BITMAP
F0
F0
F0
F0
00
00
00
00
00
00
F0
F0
F0
F0
ENDCHAR
STARTCHAR semicolon
ENCODING 59
SWIDTH 602 0
DWIDTH 16 0
BBX 4 18 6 -4
BITMAP
F0
F0
F0
F0
00
00
00
00
00
00
F0
F0
F0
F0
70
70
E0
C0
ENDCHAR
STARTCHAR less
ENCODING 60
SWIDTH 602 0
DWIDTH 16 0
BBX 13 14 1 0
BITMAP
0008
0038
00F8
03F8
0FE0
1F80
FE00
7E00
1F80
0FE0
03F8
00F8
0038
0008
ENDCHAR
STARTCHAR equal
ENCODING 61
SWIDTH 602 0
DWIDTH 16 0
BBX 13 10 1 2
BITMAP
FFF8
FFF8
FFF8
0000
0000
0000
0000
FFF8
FFF8
FFF8
ENDCHAR
STARTCHAR greater
ENCODING 62
SWIDTH 602 0
DWIDTH 16 0
BBX 13 14 1 0
BITMAP
8000
E000
F800
FE00
3F00
0FC0
03F0
03F8
0FC0
3F00
FE00
F800
E000
8000
ENDCHAR
STARTCHAR question
ENCODING 63
SWIDTH 602 0
DWIDTH 16 0
BBX 13 19 2 0
BITMAP
3FC0
FFF0
FFF0
C0F8
C078
C078
00F8
01F0
07E0
0F80
1F00
3C00
3C00
3C00
0000
0000
3C00
3C00
3C00
ENDCHAR
STARTCHAR at
ENCODING 64
SWIDTH 602 0
DWIDTH 16 0
BBX 14 19 1 0
BITMAP
07C0
0FF0
3FF8
3C78
7BB8
77F8
F7F8
EF38
EE38
EE78
EE78
EFFC
EFFC
F73C
7000
7840
3FC0
1FC0
0F80
ENDCHAR
STARTCHAR A
ENCODING 65
SWIDTH 602 0
DWIDTH 16 0
BBX 15 19 0 0
BITMAP
07C0
07C0
07E0
07E0
0FE0
0FF0
0EF0
1EF0
1CF0
1CF8
3878
3FF8
3FF8
7FFC
703C
703C
F03E
E01E
E01E
ENDCHAR
STARTCHAR B
ENCODING 66
SWIDTH 602 0
DWIDTH 16 0
BBX 13 19 2 0
BITMAP
FFC0
FFE0
FFF0
F0F0
F0F0
F0F0
F0F0
F1E0
FF80
FFC0
FFF0
F1F0
F078
F078
F078
F0F8
FFF0
FFF0
FFC0
ENDCHAR
STARTCHAR C
ENCODING 67
SWIDTH 602 0
DWIDTH 16 0
BBX 15 19 0 0
BITMAP
03FC
0FFE
1FFE
3E06
7C00
7800
F800
F000
F000
F000
F000
F000
F800
7800
7C00
3E06
1FFE
0FFE
03F8
ENDCHAR
STARTCHAR D
ENCODING 68
SWIDTH 602 0
DWIDTH 16 0
BBX 14 19 1 0
BITMAP
FFC0
FFF0
FFF8
F0F8
F078
F07C
F03C
F03C
F03C
F03C
F03C
F03C
F03C
F078
F078
F0F8
FFF0
FFE0
FF80
ENDCHAR
STARTCHAR E
ENCODING 69
SWIDTH 602 0
DWIDTH 16 0
BBX 13 19 2 0
BITMAP
FFF0
FFF0
FFF0
F000
F000
F000
F000
F000
FFE0
FFE0
FFE0
F000
F000
F000
F000
F000
FFF8
FFF8
FFF8
ENDCHAR
STARTCHAR F
ENCODING 70
SWIDTH 602 0
DWIDTH 16 0
BBX 13 19 2 0
BITMAP
FFF8
FFF8
FFF8
F000
F000
F000
F000
F000
F000
FFF0
FFE0
FFE0
F000
F000
F000
F000
F000
F000
F000
ENDCHAR
STARTCHAR G
ENCODING 71
SWIDTH 602 0
DWIDTH 16 0
BBX 15 19 0 0
BITMAP
03FC
0FFE
1FFE
3E06
7C00
7800
F800
F000
F000
F01E
F01E
F01E
F01E
781E
7C1E
3E1E
3FFE
0FFE
03F8
ENDCHAR
STARTCHAR H
ENCODING 72
SWIDTH 602 0
DWIDTH 16 0
BBX 13 19 1 0
BITMAP
F078
F078
F078
F078
F078
F078
F078
F078
FFF8
FFF8
FFF8
F078
F078
F078
F078
F078
F078
F078
F078
ENDCHAR
STARTCHAR I
ENCODING 73
SWIDTH 602 0
DWIDTH 16 0
BBX 12 19 2 0
BITMAP
FFF0
FFF0
FFF0
0F00
0F00
0F00
0F00
0F00
0F00
0F00
0F00
0F00
0F00
0F00
0F00
0F00
FFF0
FFF0
FFF0
ENDCHAR
STARTCHAR J
ENCODING 74
SWIDTH 602 0
DWIDTH 16 0
BBX 12 19 2 0
BITMAP
7FF0
7FF0
7FF0
00F0
00F0
00F0
00F0
00F0
00F0
00F0
00F0
00F0
00F0
00F0
00F0
81E0
FFE0
FFC0
FF00
ENDCHAR
STARTCHAR K
ENCODING 75
SWIDTH 602 0
DWIDTH 16 0
BBX 14 19 2 0
BITMAP
F03C
F078
F0F0
F0E0
F1E0
F3C0
F780
F700
FF00
FF00
FF80
F7C0
F7C0
F3E0
F1E0
F1F0
F0F8
F078
F07C
ENDCHAR
STARTCHAR L
ENCODING 76
SWIDTH 602 0
DWIDTH 16 0
BBX 13 19 2 0
BITMAP
F000
F000
F000
F000
F000
F000
F000
F000
F000
F000
F000
F000
F000
F000
F000
F000
FFF8
FFF8
FFF8
ENDCHAR
STARTCHAR M
ENCODING 77
SWIDTH 602 0
DWIDTH 16 0
BBX 14 19 1 0
BITMAP
F87C
F87C
F8FC
F8FC
FCFC
FCFC
FCFC
FDFC
FDFC
EFFC
EFFC
EFBC
EFBC
EFBC
EFBC
E7BC
E7BC
E73C
E03C
ENDCHAR
STARTCHAR N
ENCODING 78
SWIDTH 602 0
DWIDTH 16 0
BBX 13 19 1 0
BITMAP
F038
F838
F838
FC38
FC38
FE38
FE38
FF38
EF38
EFB8
E7B8
E7F8
E3F8
E3F8
E1F8
E1F8
E0F8
E0F8
E078
ENDCHAR
STARTCHAR O
ENCODING 79
SWIDTH 602 0
DWIDTH 16 0
BBX 15 19 0 0
BITMAP
07C0
1FF0
3FF8
7C7C
783C
701C
F01E
F01E
F01E
F01E
F01E
F01E
F01E
701C
783C
7C7C
3FF8
1FF0
07C0
ENDCHAR
STARTCHAR P
ENCODING 80
SWIDTH 602 0
DWIDTH 16 0
BBX 13 19 2 0
BITMAP
FFC0
FFF0
FFF0
F0F8
F078
F078
F078
F078
F0F0
FFF0
FFE0
FF80
F000
F000
F000
F000
F000
F000
F000
ENDCHAR
STARTCHAR Q
ENCODING 81
SWIDTH 602 0
DWIDTH 16 0
BBX 16 23 0 -4
BITMAP
07C0
1FF0
3FF8
7C7C
783C
701C
F01E
F01E
F01E
F01E
F01E
F01E
F01E
701E
783C
7C7C
3FF8
1FF0
07E0
00FF
003E
001E
000C
ENDCHAR
STARTCHAR R
ENCODING 82
SWIDTH 602 0
DWIDTH 16 0
BBX 13 19 2 0
BITMAP
FF80
FFE0
FFF0
F1F0
F0F0
F0F0
F0F0
F1E0
F3E0
FFC0
FF80
FF80
F7C0
F3C0
F3E0
F1E0
F1F0
F0F0
F078
ENDCHAR
STARTCHAR S
ENCODING 83
SWIDTH 602 0
DWIDTH 16 0
BBX 13 19 1 0
BITMAP
1FE0
7FF0
7FF0
F830
F000
F000
FC00
7F00
3F80
1FE0
07F0
01F8
00F8
0078
0078
C0F8
FFF0
FFE0
7F80
ENDCHAR
STARTCHAR T
ENCODING 84
SWIDTH 602 0
DWIDTH 16 0
BBX 16 19 0 0
BITMAP
FFFF
FFFF
FFFF
03C0
03C0
03C0
03C0
03C0
03C0
03C0
03C0
03C0
03C0
03C0
03C0
03C0
03C0
03C0
03C0
ENDCHAR
STARTCHAR U
ENCODING 85
SWIDTH 602 0
DWIDTH 16 0
BBX 13 19 1 0
BITMAP
F078
F078
F078
F078
F078
F078
F078
F078
F078
F078
F078
F078
F078
F078
F078
F8F8
7FF0
3FE0
1FC0
ENDCHAR
STARTCHAR V
ENCODING 86
SWIDTH 602 0
DWIDTH 16 0
BBX 15 19 0 0
BITMAP
F00E
F00E
781C
781C
781C
7C3C
3C38
3C38
3C78
1E70
1E70
1E70
1FE0
0FE0
0FE0
0FC0
07C0
07C0
07C0
ENDCHAR
STARTCHAR W
ENCODING 87
SWIDTH 602 0
DWIDTH 16 0
BBX 16 19 0 0
BITMAP
F007
F3C7
F3C7
F3E6
7BE6
7BEE
7FEE
7FEE
7FEE
7FEE
7FFC
3EFC
3EFC
3EFC
3EFC
3E7C
3C78
3C78
3C78
ENDCHAR
STARTCHAR X
ENCODING 88
SWIDTH 602 0
DWIDTH 16 0
BBX 15 19 0 0
BITMAP
F81E
783C
7C38
3E78
3E70
1FF0
0FE0
0FE0
07C0
07C0
07C0
0FE0
0FF0
1CF0
3CF8
3878
787C
703C
F03E
ENDCHAR
STARTCHAR Y
ENCODING 89
SWIDTH 602 0
DWIDTH 16 0
BBX 16 19 0 0
BITMAP
F807
780E
7C1E
3C1C
3E3C
1E38
1F78
0FF0
07F0
07E0
03C0
03C0
03C0
03C0
03C0
03C0
03C0
03C0
03C0
ENDCHAR
STARTCHAR Z
ENCODING 90
SWIDTH 602 0
DWIDTH 16 0
BBX 13 19 1 0
BITMAP
7FF8
7FF8
7FF8
00F8
01F0
01E0
03E0
07C0
07C0
0F80
1F00
1F00
3E00
3C00
7C00
F800
FFF8
FFF8
FFF8
ENDCHAR
STARTCHAR bracketleft
ENCODING 91
SWIDTH 602 0
DWIDTH 16 0
BBX 10 24 5 -4
BITMAP
FFC0
FFC0
FFC0
F000
F000
F000
F000
F000
F000
F000
F000
F000
F000
F000
F000
F000
F000
F000
F000
F000
F000
FFC0
FFC0
FFC0
ENDCHAR
STARTCHAR backslash
ENCODING 92
SWIDTH 602 0
DWIDTH 16 0
BBX 15 24 0 -4
BITMAP
E000
7000
7000
3800
3800
1C00
1C00
0E00
0E00
0700
0700
0380
0380
01C0
01C0
00E0
00E0
0070
0070
0038
0038
001C
001C
000E
ENDCHAR
STARTCHAR bracketright
ENCODING 93
SWIDTH 602 0
DWIDTH 16 0
BBX 10 24 1 -4
BITMAP
FFC0
FFC0
FFC0
03C0
03C0
03C0
03C0
03C0
03C0
03C0
03C0
03C0
03C0
03C0
03C0
03C0
03C0
03C0
03C0
03C0
03C0
FFC0
FFC0
FFC0
ENDCHAR
STARTCHAR asciicircum
ENCODING 94
SWIDTH 602 0
DWIDTH 16 0
BBX 13 16 1 3
BITMAP
0200
0200
0700
0700
0700
0F80
0F80
1DC0
1DC0
3DE0
38E0
38E0
78F0
7070
F078
E038
ENDCHAR
STARTCHAR underscore
ENCODING 95
SWIDTH 602 0
DWIDTH 16 0
BBX 16 3 0 -3
BITMAP
FFFF
FFFF
FFFF
ENDCHAR
STARTCHAR grave
ENCODING 96
SWIDTH 602 0
DWIDTH 16 0
BBX 6 4 5 16
BITMAP
F0
78
38
1C
ENDCHAR
STARTCHAR a
ENCODING 97
SWIDTH 602 0
DWIDTH 16 0
BBX 14 14 1 0
BITMAP
1FC0
7FF0
7FF8
60F8
0078
1FF8
7FF8
FFF8
F078
F078
F0F8
FFFC
7F7C
3E3C
ENDCHAR
STARTCHAR b
ENCODING 98
SWIDTH 602 0
DWIDTH 16 0
BBX 13 20 2 0
BITMAP
F000
F000
F000
F000
F000
F000
F3C0
F7E0
FFF0
FFF8
F8F8
F078
F078
F078
F078
F078
F8F0
FFF0
FFE0
E7C0
ENDCHAR
STARTCHAR c
ENCODING 99
SWIDTH 602 0
DWIDTH 16 0
BBX 14 14 1 0
BITMAP
07FC
1FFC
3FFC
7C0C
F800
F000
F000
F000
F000
F800
7E04
3FFC
1FFC
07FC
ENDCHAR
STARTCHAR d
ENCODING 100
SWIDTH 602 0
DWIDTH 16 0
BBX 13 20 1 0
BITMAP
0078
0078
0078
0078
0078
0078
1F78
3FF8
7FF8
78F8
F078
F078
F078
F078
F078
F8F8
FFF8
7FF8
3F78
1E78
ENDCHAR
STARTCHAR e
ENCODING 101
SWIDTH 602 0
DWIDTH 16 0
BBX 14 14 1 0
BITMAP
07C0
1FF0
3FF8
7878
F03C
FFFC
FFFC
FFFC
F000
F800
7C0C
3FFC
1FFC
07F0
ENDCHAR
STARTCHAR f
ENCODING 102
SWIDTH 602 0
DWIDTH 16 0
BBX 14 20 2 0
BITMAP
03F8
0FFC
1FFC
1E04
1E00
1E00
FFF8
FFF8
FFF8
1E00
1E00
1E00
1E00
1E00
1E00
1E00
1E00
1E00
1E00
1E00
ENDCHAR
STARTCHAR g
ENCODING 103
SWIDTH 602 0
DWIDTH 16 0
BBX 13 19 1 -5
BITMAP
1F38
3FB8
7FF8
78F8
F078
F078
F078
F078
F078
F8F8
7FF8
7F78
3F78
1E78
0078
20F0
3FF0
7FE0
1F80
ENDCHAR
STARTCHAR h
ENCODING 104
SWIDTH 602 0
DWIDTH 16 0
BBX 12 20 2 0
BITMAP
F000
F000
F000
F000
F000
F000
F3C0
F7E0
FFF0
FFF0
F8F0
F0F0
F0F0
F0F0
F0F0
F0F0
F0F0
F0F0
F0F0
F0F0
ENDCHAR
STARTCHAR i
ENCODING 105
SWIDTH 602 0
DWIDTH 16 0
BBX 9 20 2 0
BITMAP
0780
0780
0780
0780
0000
0000
FF80
FF80
FF80
0780
0780
0780
0780
0780
0780
0780
0780
0780
0780
0780
ENDCHAR
STARTCHAR j
ENCODING 106
SWIDTH 602 0
DWIDTH 16 0
BBX 10 25 2 -5
BITMAP
03C0
03C0
03C0
03C0
0000
0000
7FC0
7FC0
7FC0
03C0
03C0
03C0
03C0
03C0
03C0
03C0
03C0
03C0
03C0
03C0
03C0
87C0
FF80
FF80
7F00
ENDCHAR
STARTCHAR k
ENCODING 107
SWIDTH 602 0
DWIDTH 16 0
BBX 13 20 2 0
BITMAP
F000
F000
F000
F000
F000
F000
F0F0
F1E0
F1C0
F3C0
F780
F700
FF80
F780
F7C0
F3C0
F3E0
F1F0
F0F0
F0F8
ENDCHAR
STARTCHAR l
ENCODING 108
SWIDTH 602 0
DWIDTH 16 0
BBX 9 20 1 0
BITMAP
FF80
FF80
FF80
0780
0780
0780
0780
0780
0780
0780
0780
0780
0780
0780
0780
0780
0780
0780
0780
0780
ENDCHAR
STARTCHAR m
ENCODING 109
SWIDTH 602 0
DWIDTH 16 0
BBX 14 14 1 0
BITMAP
F338
F7BC
FFFC
FFFC
F7BC
F7BC
F7BC
F7BC
F7BC
F7BC
F7BC
F7BC
F7BC
F7BC
ENDCHAR
STARTCHAR n
ENCODING 110
SWIDTH 602 0
DWIDTH 16 0
BBX 12 14 2 0
BITMAP
F3C0
F7E0
FFF0
FFF0
F8F0
F0F0
F0F0
F0F0
F0F0
F0F0
F0F0
F0F0
F0F0
F0F0
ENDCHAR
STARTCHAR o
ENCODING 111
SWIDTH 602 0
DWIDTH 16 0
BBX 14 14 1 0
BITMAP
0FC0
3FF0
7FF8
7878
F87C
F03C
F03C
F03C
F03C
F87C
7878
7FF8
3FF0
0FC0
ENDCHAR
STARTCHAR p
ENCODING 112
SWIDTH 602 0
DWIDTH 16 0
BBX 13 19 2 -5
BITMAP
F3C0
F7E0
FFF0
FFF8
F8F8
F078
F078
F078
F078
F078
F8F0
FFF0
FFE0
F7C0
F000
F000
F000
F000
F000
ENDCHAR
STARTCHAR q
ENCODING 113
SWIDTH 602 0
DWIDTH 16 0
BBX 13 19 1 -5
BITMAP
1F38
3FF8
7FF8
78F8
F078
F078
F078
F078
F078
F8F8
FFF8
7FF8
3F78
1E78
0078
0078
0078
0078
0078
ENDCHAR
STARTCHAR r
ENCODING 114
SWIDTH 602 0
DWIDTH 16 0
BBX 12 14 3 0
BITMAP
F1F0
F7F0
FFF0
FFF0
FC70
F870
F000
F000
F000
F000
F000
F000
F000
F000
ENDCHAR
STARTCHAR s
ENCODING 115
SWIDTH 602 0
DWIDTH 16 0
BBX 12 14 2 0
BITMAP
1FC0
7FE0
FFE0
F020
FC00
FF00
7FE0
3FF0
07F0
00F0
C1F0
FFF0
FFE0
7F80
ENDCHAR
STARTCHAR t
ENCODING 116
SWIDTH 602 0
DWIDTH 16 0
BBX 12 18 2 0
BITMAP
0E00
1E00
1E00
1E00
FFF0
FFF0
FFF0
1E00
1E00
1E00
1E00
1E00
1E00
1E00
1E10
1FF0
0FF0
03E0
ENDCHAR
STARTCHAR u
ENCODING 117
SWIDTH 602 0
DWIDTH 16 0
BBX 12 14 2 0
BITMAP
F0F0
F0F0
F0F0
F0F0
F0F0
F0F0
F0F0
F0F0
F0F0
F1F0
FFF0
FFF0
7EF0
3CF0
ENDCHAR
STARTCHAR v
ENCODING 118
SWIDTH 602 0
DWIDTH 16 0
BBX 15 14 0 0
BITMAP
F00E
F81E
781C
7C1C
3C38
3C38
3E78
1E70
1F70
0FE0
0FE0
0FE0
07C0
07C0
ENDCHAR
STARTCHAR w
ENCODING 119
SWIDTH 602 0
DWIDTH 16 0
BBX 16 14 0 0
BITMAP
F007
F1C7
F3C7
7BE6
7BEE
7FEE
7FFE
7FFE
7F7E
3E7C
3E7C
3E3C
3E3C
3C3C
ENDCHAR
STARTCHAR x
ENCODING 120
SWIDTH 602 0
DWIDTH 16 0
BBX 14 14 1 0
BITMAP
F83C
7C78
3EF0
3EE0
1FE0
0FC0
0F80
0FC0
1FE0
1FE0
3DF0
78F8
70F8
F07C
ENDCHAR
STARTCHAR y
ENCODING 121
SWIDTH 602 0
DWIDTH 16 0
BBX 15 19 0 -5
BITMAP
F80E
781E
7C1C
3C3C
3C38
1E78
1E70
0F70
0FE0
0FE0
07C0
07C0
03C0
0380
0780
0700
7F00
7E00
7C00
ENDCHAR
STARTCHAR z
ENCODING 122
SWIDTH 602 0
DWIDTH 16 0
BBX 13 14 1 0
BITMAP
FFF8
FFF8
FFF8
01F0
03E0
07E0
0FC0
1F80
3F00
7E00
FC00
FFF8
FFF8
FFF8
ENDCHAR
STARTCHAR braceleft
ENCODING 123
SWIDTH 602 0
DWIDTH 16 0
BBX 12 24 2 -4
BITMAP
03F0
07F0
0FF0
0F00
0F00
0F00
0780
0780
0780
0780
0F00
FE00
FE00
FF00
0F80
0780
0780
0780
0F00
0F00
0F00
0FF0
0FF0
03F0
ENDCHAR
STARTCHAR bar
ENCODING 124
SWIDTH 602 0
DWIDTH 16 0
BBX 3 24 6 -4
BITMAP
E0
E0
E0
E0
E0
E0
E0
E0
E0
E0
E0
E0
E0
E0
E0
E0
E0
E0
E0
E0
E0
E0
E0
E0
ENDCHAR
STARTCHAR braceright
ENCODING 125
SWIDTH 602 0
DWIDTH 16 0
BBX 12 24 1 -4
BITMAP
FC00
FE00
FF00
0F00
0F00
0F00
1E00
1E00
1E00
1E00
0F00
07F0
07F0
0FF0
1F00
1E00
1E00
1E00
0E00
0F00
0F00
FF00
FF00
FC00
ENDCHAR
STARTCHAR asciitilde
ENCODING 126
SWIDTH 602 0
DWIDTH 16 0
BBX 13 6 1 4
BITMAP
3C38
7E38
7F38
E7F0
E3F0
E1E0
ENDCHAR
STARTCHAR space
ENCODING 160
SWIDTH 602 0
DWIDTH 16 0
BBX 1 1 0 0
BITMAP
00
ENDCHAR
STARTCHAR exclamdown
ENCODING 161
SWIDTH 602 0
DWIDTH 16 0
BBX 4 19 6 -5
BITMAP
F0
F0
F0
F0
00
00
70
70
70
70
F0
F0
F0
F0
F0
F0
F0
F0
F0
ENDCHAR
STARTCHAR cent
ENCODING 162
SWIDTH 602 0
DWIDTH 16 0
BBX 12 19 2 0
BITMAP
0380
0380
0780
1FF0
3FF0
7FF0
7C00
F800
F000
F000
F000
F800
7C00
7FF0
3FF0
0FF0
0380
0380
0380
ENDCHAR
STARTCHAR sterling
ENCODING 163
SWIDTH 602 0
DWIDTH 16 0
BBX 11 19 3 0
BITMAP
0FE0
1FE0
3FE0
3C20
3C00
3C00
3C00
3C00
FF80
FF80
FF80
3C00
3C00
3C00
3800
3000
FFE0
FFE0
FFE0
ENDCHAR
STARTCHAR currency
ENCODING 164
SWIDTH 602 0
DWIDTH 16 0
BBX 14 15 1 2
BITMAP
6018
FFFC
FFF8
7FF8
78F0
7078
7038
7038
7038
7078
7870
7FF8
FFFC
FFF8
6018
ENDCHAR
STARTCHAR yen
ENCODING 165
SWIDTH 602 0
DWIDTH 16 0
BBX 16 19 0 0
BITMAP
F80F
7C1E
3E1C
3F3C
1F78
0FF0
07E0
07E0
1FF8
1FF8
1FF8
03C0
1FF8
1FF8
1FF8
03C0
03C0
03C0
03C0
ENDCHAR
STARTCHAR brokenbar
ENCODING 166
SWIDTH 602 0
DWIDTH 16 0
BBX 3 24 6 -4
BITMAP
E0
E0
E0
E0
E0
E0
E0
E0
E0
00
00
00
00
00
00
E0
E0
E0
E0
E0
E0
E0
E0
E0
ENDCHAR
STARTCHAR section
ENCODING 167
SWIDTH 602 0
DWIDTH 16 0
BBX 11 24 2 -5
BITMAP
1F80
7FC0
FFC0
F040
F000
F000
7C00
3F00
7F80
77C0
E1E0
E0E0
F0E0
FCE0
7FC0
7F80
1F80
07C0
03E0
01E0
C3E0
FFC0
FFC0
FF00
ENDCHAR
STARTCHAR dieresis
ENCODING 168
SWIDTH 602 0
DWIDTH 16 0
BBX 8 3 4 16
BITMAP
E7
E7
E7
ENDCHAR
STARTCHAR copyright
ENCODING 169
SWIDTH 602 0
DWIDTH 16 0
BBX 15 19 0 0
BITMAP
07C0
1FF0
3FF8
783C
701C
E3CE
E7CE
EE4E
EE0E
EE0E
EE0E
EE4E
E7CE
F3DE
701C
783C
3FF8
1FF0
07C0
ENDCHAR
STARTCHAR ordfeminine
ENCODING 170
SWIDTH 602 0
DWIDTH 16 0
BBX 12 10 2 9
BITMAP
7F80
FFE0
FFE0
C0E0
3FE0
7FE0
E0E0
FFF0
FFF0
7CF0
ENDCHAR
STARTCHAR guillemotleft
ENCODING 171
SWIDTH 602 0
DWIDTH 16 0
BBX 14 12 1 1
BITMAP
0408
0E1C
1F38
1C78
3CF0
7BE0
F9E0
7CF0
3C78
1E38
0E1C
0408
ENDCHAR
STARTCHAR logicalnot
ENCODING 172
SWIDTH 602 0
DWIDTH 16 0
BBX 13 7 1 2
BITMAP
FFF8
FFF8
FFF8
0038
0038
0038
0038
ENDCHAR
STARTCHAR hyphen
ENCODING 173
SWIDTH 602 0
DWIDTH 16 0
BBX 10 3 3 7
BITMAP
FFC0
FFC0
FFC0
ENDCHAR
STARTCHAR registered
ENCODING 174
SWIDTH 602 0
DWIDTH 16 0
BBX 13 14 1 5
BITMAP
0F80
3FC0
7FE0
78F0
FFF8
EFF8
EEF8
EFF8
EFB8
FFF8
7FF0
7FE0
3FC0
0F80
ENDCHAR
STARTCHAR macron
ENCODING 175
SWIDTH 602 0
DWIDTH 16 0
BBX 8 3 4 16
BITMAP
FF
FF
FF
ENDCHAR
STARTCHAR degree
ENCODING 176
SWIDTH 602 0
DWIDTH 16 0
BBX 5 5 5 14
BITMAP
70
F8
D8
F8
70
ENDCHAR
STARTCHAR plusminus
ENCODING 177
SWIDTH 602 0
DWIDTH 16 0
BBX 13 14 1 0
BITMAP
0700
0700
0700
FFF8
FFF8
FFF8
0700
0700
0700
0000
0000
FFF8
FFF8
FFF8
ENDCHAR
STARTCHAR twosuperior
ENCODING 178
SWIDTH 602 0
DWIDTH 16 0
BBX 6 9 -3 10
BITMAP
F8
8C
0C
0C
18
30
60
C0
FC
ENDCHAR
STARTCHAR threesuperior
ENCODING 179
SWIDTH 602 0
DWIDTH 16 0
BBX 5 9 -3 10
BITMAP
F0
18
18
30
70
38
18
18
F0
ENDCHAR
STARTCHAR acute
ENCODING 180
SWIDTH 602 0
DWIDTH 16 0
BBX 6 4 5 16
BITMAP
3C
78
70
E0
ENDCHAR
STARTCHAR mu
ENCODING 181
SWIDTH 602 0
DWIDTH 16 0
BBX 12 18 2 -4
BITMAP
F0F0
F0F0
F0F0
F0F0
F0F0
F0F0
F0F0
F0F0
F0F0
F9F0
FFF0
FFF0
FFF0
FEF0
F000
F000
F000
F000
ENDCHAR
STARTCHAR paragraph
ENCODING 182
SWIDTH 602 0
DWIDTH 16 0
BBX 11 23 2 -4
BITMAP
3FE0
7FE0
FFE0
FFE0
FFE0
FFE0
FFE0
7FE0
3FE0
0FE0
07E0
07E0
07E0
07E0
07E0
07E0
07E0
07E0
07E0
07E0
07E0
07E0
07E0
ENDCHAR
STARTCHAR periodcentered
ENCODING 183
SWIDTH 602 0
DWIDTH 16 0
BBX 3 4 6 4
BITMAP
E0
E0
E0
E0
ENDCHAR
STARTCHAR cedilla
ENCODING 184
SWIDTH 602 0
DWIDTH 16 0
BBX 5 6 6 -5
BITMAP
60
60
F8
18
F8
F0
ENDCHAR
STARTCHAR onesuperior
ENCODING 185
SWIDTH 602 0
DWIDTH 16 0
BBX 6 9 -3 10
BITMAP
F0
30
30
30
30
30
30
30
FC
ENDCHAR
STARTCHAR ordmasculine
ENCODING 186
SWIDTH 602 0
DWIDTH 16 0
BBX 12 10 2 9
BITMAP
1F80
7FE0
7FE0
F0F0
E070
E070
F0F0
7FE0
7FE0
1F80
ENDCHAR
STARTCHAR guillemotright
ENCODING 187
SWIDTH 602 0
DWIDTH 16 0
BBX 14 12 1 1
BITMAP
2080
E1C0
71E0
78F0
3CF8
1E7C
1F78
3CF0
78F0
71E0
E3C0
4080
ENDCHAR
STARTCHAR onequarter
ENCODING 188
SWIDTH 602 0
DWIDTH 16 0
BBX 16 19 2 0
BITMAP
F00F
300E
301E
303C
3038
3078
30F0
30E0
FDE0
03C0
0786
070E
0F1E
1E16
1C26
3C7F
787F
7006
F006
ENDCHAR
STARTCHAR onehalf
ENCODING 189
SWIDTH 602 0
DWIDTH 16 0
BBX 16 19 2 0
BITMAP
F00F
300E
301E
303C
3038
3078
30F0
30E0
FDE0
03C0
07BE
0723
0F03
1E03
1C06
3C0C
7818
7030
F03F
ENDCHAR
STARTCHAR threequarters
ENCODING 190
SWIDTH 602 0
DWIDTH 16 0
BBX 16 19 2 0
BITMAP
F00F
180E
181E
303C
7038
3878
18F0
18E0
F1E0
03C0
0786
070E
0F1E
1E16
1C26
3C7F
787F
7006
F006
ENDCHAR
STARTCHAR questiondown
ENCODING 191
SWIDTH 602 0
DWIDTH 16 0
BBX 14 19 0 -5
BITMAP
01E0
01E0
01E0
01E0
0000
01E0
01E0
03E0
07C0
0F80
3F00
7C00
F800
F01C
F01C
F81C
7FFC
7FFC
0FF0
ENDCHAR
STARTCHAR Agrave
ENCODING 192
SWIDTH 602 0
DWIDTH 16 0
BBX 15 24 0 0
BITMAP
0780
03C0
01C0
00E0
0000
07C0
07C0
07E0
07E0
0FE0
0FF0
0EF0
1EF0
1CF0
1CF8
3878
3FF8
3FF8
7FFC
703C
703C
F03E
E01E
E01E
ENDCHAR
STARTCHAR Aacute
ENCODING 193
SWIDTH 602 0
DWIDTH 16 0
BBX 15 24 0 0
BITMAP
01E0
03C0
0380
0700
0000
07C0
07C0
07E0
07E0
0FE0
0FF0
0EF0
1EF0
1CF0
1CF8
3878
3FF8
3FF8
7FFC
703C
703C
F03E
E01E
E01E
ENDCHAR
STARTCHAR Acircumflex
ENCODING 194
SWIDTH 602 0
DWIDTH 16 0
BBX 15 24 0 0
BITMAP
0780
0FC0
0FC0
1CE0
0000
07C0
07C0
07E0
07E0
0FE0
0FF0
0EF0
1EF0
1CF0
1CF8
3878
3FF8
3FF8
7FFC
703C
703C
F03E
E01E
E01E
ENDCHAR
STARTCHAR Atilde
ENCODING 195
SWIDTH 602 0
DWIDTH 16 0
BBX 15 24 0 0
BITMAP
0730
0FF0
0FF0
0CE0
0000
07C0
07C0
07E0
07E0
0FE0
0FF0
0EF0
1EF0
1CF0
1CF8
3878
3FF8
3FF8
7FFC
703C
703C
F03E
E01E
E01E
ENDCHAR
STARTCHAR Adieresis
ENCODING 196
SWIDTH 602 0
DWIDTH 16 0
BBX 15 23 0 0
BITMAP
1CE0
1CE0
1CE0
0000
07C0
07C0
07E0
07E0
0FE0
0FF0
0EF0
1EF0
1CF0
1CF8
3878
3FF8
3FF8
7FFC
703C
703C
F03E
E01E
E01E
ENDCHAR
STARTCHAR Aring
ENCODING 197
SWIDTH 602 0
DWIDTH 16 0
BBX 15 24 0 0
BITMAP
0180
0240
0240
0180
0000
07C0
07C0
07E0
07E0
0FE0
0FF0
0EF0
1EF0
1CF0
1CF8
3878
3FF8
3FF8
7FFC
703C
703C
F03E
E01E
E01E
ENDCHAR
STARTCHAR AE
ENCODING 198
SWIDTH 602 0
DWIDTH 16 0
BBX 16 19 0 0
BITMAP
01FF
01FF
03FF
03F0
07F0
07F0
07F0
0FF0
0EFE
1EFE
1CFE
1CF0
3FF0
3FF0
7FF0
70F0
70FF
F0FF
E0FF
ENDCHAR
STARTCHAR Ccedilla
ENCODING 199
SWIDTH 602 0
DWIDTH 16 0
BBX 15 24 0 -5
BITMAP
03FC
0FFE
1FFE
3E06
7C00
7800
F800
F000
F000
F000
F000
F000
F800
7800
7C00
3E06
1FFE
0FFE
03F8
0180
03E0
0060
03E0
03C0
ENDCHAR
STARTCHAR Egrave
ENCODING 200
SWIDTH 602 0
DWIDTH 16 0
BBX 13 24 2 0
BITMAP
1E00
0F00
0700
0380
0000
FFF0
FFF0
FFF0
F000
F000
F000
F000
F000
FFE0
FFE0
FFE0
F000
F000
F000
F000
F000
FFF8
FFF8
FFF8
ENDCHAR
STARTCHAR Eacute
ENCODING 201
SWIDTH 602 0
DWIDTH 16 0
BBX 13 24 2 0
BITMAP
0780
0F00
0E00
1C00
0000
FFF0
FFF0
FFF0
F000
F000
F000
F000
F000
FFE0
FFE0
FFE0
F000
F000
F000
F000
F000
FFF8
FFF8
FFF8
ENDCHAR
STARTCHAR Ecircumflex
ENCODING 202
SWIDTH 602 0
DWIDTH 16 0
BBX 13 24 2 0
BITMAP
0F00
1F80
1F80
39C0
0000
FFF0
FFF0
FFF0
F000
F000
F000
F000
F000
FFE0
FFE0
FFE0
F000
F000
F000
F000
F000
FFF8
FFF8
FFF8
ENDCHAR
STARTCHAR Edieresis
ENCODING 203
SWIDTH 602 0
DWIDTH 16 0
BBX 13 23 2 0
BITMAP
39C0
39C0
39C0
0000
FFF0
FFF0
FFF0
F000
F000
F000
F000
F000
FFE0
FFE0
FFE0
F000
F000
F000
F000
F000
FFF8
FFF8
FFF8
ENDCHAR
STARTCHAR Igrave
ENCODING 204
SWIDTH 602 0
DWIDTH 16 0
BBX 12 24 2 0
BITMAP
1E00
0F00
0700
0380
0000
FFF0
FFF0
FFF0
0F00
0F00
0F00
0F00
0F00
0F00
0F00
0F00
0F00
0F00
0F00
0F00
0F00
FFF0
FFF0
FFF0
ENDCHAR
STARTCHAR Iacute
ENCODING 205
SWIDTH 602 0
DWIDTH 16 0
BBX 12 24 2 0
BITMAP
0780
0F00
0E00
1C00
0000
FFF0
FFF0
FFF0
0F00
0F00
0F00
0F00
0F00
0F00
0F00
0F00
0F00
0F00
0F00
0F00
0F00
FFF0
FFF0
FFF0
ENDCHAR
STARTCHAR Icircumflex
ENCODING 206
SWIDTH 602 0
DWIDTH 16 0
BBX 12 24 2 0
BITMAP
0F00
1F80
1F80
39C0
0000
FFF0
FFF0
FFF0
0F00
0F00
0F00
0F00
0F00
0F00
0F00
0F00
0F00
0F00
0F00
0F00
0F00
FFF0
FFF0
FFF0
ENDCHAR
STARTCHAR Idieresis
ENCODING 207
SWIDTH 602 0
DWIDTH 16 0
BBX 12 23 2 0
BITMAP
39C0
39C0
39C0
0000
FFF0
FFF0
FFF0
0F00
0F00
0F00
0F00
0F00
0F00
0F00
0F00
0F00
0F00
0F00
0F00
0F00
FFF0
FFF0
FFF0
ENDCHAR
STARTCHAR Eth
ENCODING 208
SWIDTH 602 0
DWIDTH 16 0
BBX 15 19 0 0
BITMAP
7FE0
7FF8
7FFC
787C
783C
783E
781E
FF1E
FF1E
FF1E
781E
781E
781E
783C
783C
787C
7FF8
7FF0
7FC0
ENDCHAR
STARTCHAR Ntilde
ENCODING 209
SWIDTH 602 0
DWIDTH 16 0
BBX 13 24 1 0
BITMAP
0E60
1FE0
1FE0
19C0
0000
F038
F838
F838
FC38
FC38
FE38
FE38
FF38
EF38
EFB8
E7B8
E7F8
E3F8
E3F8
E1F8
E1F8
E0F8
E0F8
E078
ENDCHAR
STARTCHAR Ograve
ENCODING 210
SWIDTH 602 0
DWIDTH 16 0
BBX 15 24 0 0
BITMAP
0780
03C0
01C0
00E0
0000
07C0
1FF0
3FF8
7C7C
783C
701C
F01E
F01E
F01E
F01E
F01E
F01E
F01E
701C
783C
7C7C
3FF8
1FF0
07C0
ENDCHAR
STARTCHAR Oacute
ENCODING 211
SWIDTH 602 0
DWIDTH 16 0
BBX 15 24 0 0
BITMAP
03C0
0780
0700
0E00
0000
07C0
1FF0
3FF8
7C7C
783C
701C
F01E
F01E
F01E
F01E
F01E
F01E
F01E
701C
783C
7C7C
3FF8
1FF0
07C0
ENDCHAR
STARTCHAR Ocircumflex
ENCODING 212
SWIDTH 602 0
DWIDTH 16 0
BBX 15 24 0 0
BITMAP
0780
0FC0
0FC0
1CE0
0000
07C0
1FF0
3FF8
7C7C
783C
701C
F01E
F01E
F01E
F01E
F01E
F01E
F01E
701C
783C
7C7C
3FF8
1FF0
07C0
ENDCHAR
STARTCHAR Otilde
ENCODING 213
SWIDTH 602 0
DWIDTH 16 0
BBX 15 24 0 0
BITMAP
0E60
1FE0
1FE0
19C0
0000
07C0
1FF0
3FF8
7C7C
783C
701C
F01E
F01E
F01E
F01E
F01E
F01E
F01E
701C
783C
7C7C
3FF8
1FF0
07C0
ENDCHAR
STARTCHAR Odieresis
ENCODING 214
SWIDTH 602 0
DWIDTH 16 0
BBX 15 23 0 0
BITMAP
1CE0
1CE0
1CE0
0000
07C0
1FF0
3FF8
7C7C
783C
701C
F01E
F01E
F01E
F01E
F01E
F01E
F01E
701C
783C
7C7C
3FF8
1FF0
07C0
ENDCHAR
STARTCHAR multiply
ENCODING 215
SWIDTH 602 0
DWIDTH 16 0
BBX 14 14 1 0
BITMAP
2010
7038
F87C
7CF8
3FF0
1FE0
0FC0
0FC0
1FE0
3FF0
7CF8
F87C
7038
2010
ENDCHAR
STARTCHAR Oslash
ENCODING 216
SWIDTH 602 0
DWIDTH 16 0
BBX 15 19 0 0
BITMAP
07CE
1FFC
3FF8
7C7C
787C
70FE
F0FE
F1FE
F3DE
F39E
F79E
FF1E
FE1E
FC1C
7C3C
7C7C
3FF8
7FF0
E7C0
ENDCHAR
STARTCHAR Ugrave
ENCODING 217
SWIDTH 602 0
DWIDTH 16 0
BBX 13 24 1 0
BITMAP
0F00
0780
0380
01C0
0000
F078
F078
F078
F078
F078
F078
F078
F078
F078
F078
F078
F078
F078
F078
F078
F8F8
7FF0
3FE0
1FC0
ENDCHAR
STARTCHAR Uacute
ENCODING 218
SWIDTH 602 0
DWIDTH 16 0
BBX 13 24 1 0
BITMAP
0780
0F00
0E00
1C00
0000
F078
F078
F078
F078
F078
F078
F078
F078
F078
F078
F078
F078
F078
F078
F078
F8F8
7FF0
3FE0
1FC0
ENDCHAR
STARTCHAR Ucircumflex
ENCODING 219
SWIDTH 602 0
DWIDTH 16 0
BBX 13 24 1 0
BITMAP
0F00
1F80
1F80
39C0
0000
F078
F078
F078
F078
F078
F078
F078
F078
F078
F078
F078
F078
F078
F078
F078
F8F8
7FF0
3FE0
1FC0
ENDCHAR
STARTCHAR Udieresis
ENCODING 220
SWIDTH 602 0
DWIDTH 16 0
BBX 13 23 1 0
BITMAP
39C0
39C0
39C0
0000
F078
F078
F078
F078
F078
F078
F078
F078
F078
F078
F078
F078
F078
F078
F078
F8F8
7FF0
3FE0
1FC0
ENDCHAR
STARTCHAR Yacute
ENCODING 221
SWIDTH 602 0
DWIDTH 16 0
BBX 16 24 0 0
BITMAP
01E0
03C0
0380
0700
0000
F807
780E
7C1E
3C1C
3E3C
1E38
1F78
0FF0
07F0
07E0
03C0
03C0
03C0
03C0
03C0
03C0
03C0
03C0
03C0
ENDCHAR
STARTCHAR Thorn
ENCODING 222
SWIDTH 602 0
DWIDTH 16 0
BBX 13 19 2 0
BITMAP
F000
F000
F000
FFC0
FFF0
FFF0
F0F8
F078
F078
F078
F078
F0F0
FFF0
FFE0
FF80
F000
F000
F000
F000
ENDCHAR
STARTCHAR germandbls
ENCODING 223
SWIDTH 602 0
DWIDTH 16 0
BBX 14 20 1 0
BITMAP
1F80
7FC0
7FE0
F1E0
F1E0
F1C0
F1C0
F380
F380
F3C0
F3E0
F1F0
F0F8
F07C
F03C
F03C
F23C
F3FC
F3F8
F3E0
ENDCHAR
STARTCHAR agrave
ENCODING 224
SWIDTH 602 0
DWIDTH 16 0
BBX 14 19 1 0
BITMAP
0F00
0780
0380
01C0
0000
1FC0
7FF0
7FF8
60F8
0078
1FF8
7FF8
FFF8
F078
F078
F0F8
FFFC
7F7C
3E3C
ENDCHAR
STARTCHAR aacute
ENCODING 225
SWIDTH 602 0
DWIDTH 16 0
BBX 14 19 1 0
BITMAP
03C0
0780
0700
0E00
0000
1FC0
7FF0
7FF8
60F8
0078
1FF8
7FF8
FFF8
F078
F078
F0F8
FFFC
7F7C
3E3C
ENDCHAR
STARTCHAR acircumflex
ENCODING 226
SWIDTH 602 0
DWIDTH 16 0
BBX 14 19 1 0
BITMAP
0780
0FC0
0FC0
1CE0
0000
1FC0
7FF0
7FF8
60F8
0078
1FF8
7FF8
FFF8
F078
F078
F0F8
FFFC
7F7C
3E3C
ENDCHAR
STARTCHAR atilde
ENCODING 227
SWIDTH 602 0
DWIDTH 16 0
BBX 14 19 1 0
BITMAP
0E60
1FE0
1FE0
19C0
0000
1FC0
7FF0
7FF8
60F8
0078
1FF8
7FF8
FFF8
F078
F078
F0F8
FFFC
7F7C
3E3C
ENDCHAR
STARTCHAR adieresis
ENCODING 228
SWIDTH 602 0
DWIDTH 16 0
BBX 14 18 1 0
BITMAP
1CE0
1CE0
1CE0
0000
1FC0
7FF0
7FF8
60F8
0078
1FF8
7FF8
FFF8
F078
F078
F0F8
FFFC
7F7C
3E3C
ENDCHAR
STARTCHAR aring
ENCODING 229
SWIDTH 602 0
DWIDTH 16 0
BBX 14 19 1 0
BITMAP
0300
0480
0480
0300
0000
1FC0
7FF0
7FF8
60F8
0078
1FF8
7FF8
FFF8
F078
F078
F0F8
FFFC
7F7C
3E3C
ENDCHAR
STARTCHAR ae
ENCODING 230
SWIDTH 602 0
DWIDTH 16 0
BBX 14 14 1 0
BITMAP
3E70
7FF8
7FF8
43B8
03BC
03BC
1FFC
7FFC
FFFC
F380
F384
FFFC
7DFC
38F8
ENDCHAR
STARTCHAR ccedilla
ENCODING 231
SWIDTH 602 0
DWIDTH 16 0
BBX 14 19 1 -5
BITMAP
07FC
1FFC
3FFC
7C0C
F800
F000
F000
F000
F000
F800
7E04
3FFC
1FFC
07FC
0300
07C0
00C0
07C0
0780
ENDCHAR
STARTCHAR egrave
ENCODING 232
SWIDTH 602 0
DWIDTH 16 0
BBX 14 19 1 0
BITMAP
0F00
0780
0380
01C0
0000
07C0
1FF0
3FF8
7878
F03C
FFFC
FFFC
FFFC
F000
F800
7C0C
3FFC
1FFC
07F0
ENDCHAR
STARTCHAR eacute
ENCODING 233
SWIDTH 602 0
DWIDTH 16 0
BBX 14 19 1 0
BITMAP
03C0
0780
0700
0E00
0000
07C0
1FF0
3FF8
7878
F03C
FFFC
FFFC
FFFC
F000
F800
7C0C
3FFC
1FFC
07F0
ENDCHAR
STARTCHAR ecircumflex
ENCODING 234
SWIDTH 602 0
DWIDTH 16 0
BBX 14 19 1 0
BITMAP
0780
0FC0
0FC0
1CE0
0000
07C0
1FF0
3FF8
7878
F03C
FFFC
FFFC
FFFC
F000
F800
7C0C
3FFC
1FFC
07F0
ENDCHAR
STARTCHAR edieresis
ENCODING 235
SWIDTH 602 0
DWIDTH 16 0
BBX 14 18 1 0
BITMAP
1CE0
1CE0
1CE0
0000
07C0
1FF0
3FF8
7878
F03C
FFFC
FFFC
FFFC
F000
F800
7C0C
3FFC
1FFC
07F0
ENDCHAR
STARTCHAR igrave
ENCODING 236
SWIDTH 602 0
DWIDTH 16 0
BBX 9 19 2 0
BITMAP
3C00
1E00
0E00
0700
0000
FF80
FF80
FF80
0780
0780
0780
0780
0780
0780
0780
0780
0780
0780
0780
ENDCHAR
STARTCHAR iacute
ENCODING 237
SWIDTH 602 0
DWIDTH 16 0
BBX 9 19 2 0
BITMAP
0F00
1E00
1C00
3800
0000
FF80
FF80
FF80
0780
0780
0780
0780
0780
0780
0780
0780
0780
0780
0780
ENDCHAR
STARTCHAR icircumflex
ENCODING 238
SWIDTH 602 0
DWIDTH 16 0
BBX 9 19 2 0
BITMAP
1E00
3F00
3F00
7380
0000
FF80
FF80
FF80
0780
0780
0780
0780
0780
0780
0780
0780
0780
0780
0780
ENDCHAR
STARTCHAR idieresis
ENCODING 239
SWIDTH 602 0
DWIDTH 16 0
BBX 9 18 2 0
BITMAP
7380
7380
7380
0000
FF80
FF80
FF80
0780
0780
0780
0780
0780
0780
0780
0780
0780
0780
0780
ENDCHAR
STARTCHAR eth
ENCODING 240
SWIDTH 602 0
DWIDTH 16 0
BBX 14 20 1 0
BITMAP
FC60
FFE0
FFC0
0FC0
0DE0
09F0
0FF0
3FF8
7FF8
787C
F87C
F03C
F03C
F03C
F03C
F878
7878
3FF0
1FE0
0FC0
ENDCHAR
STARTCHAR ntilde
ENCODING 241
SWIDTH 602 0
DWIDTH 16 0
BBX 12 19 2 0
BITMAP
1CC0
3FC0
3FC0
3380
0000
F3C0
F7E0
FFF0
FFF0
F8F0
F0F0
F0F0
F0F0
F0F0
F0F0
F0F0
F0F0
F0F0
F0F0
ENDCHAR
STARTCHAR ograve
ENCODING 242
SWIDTH 602 0
DWIDTH 16 0
BBX 14 19 1 0
BITMAP
0F00
0780
0380
01C0
0000
0FC0
3FF0
7FF8
7878
F87C
F03C
F03C
F03C
F03C
F87C
7878
7FF8
3FF0
0FC0
ENDCHAR
STARTCHAR oacute
ENCODING 243
SWIDTH 602 0
DWIDTH 16 0
BBX 14 19 1 0
BITMAP
03C0
0780
0700
0E00
0000
0FC0
3FF0
7FF8
7878
F87C
F03C
F03C
F03C
F03C
F87C
7878
7FF8
3FF0
0FC0
ENDCHAR
STARTCHAR ocircumflex
ENCODING 244
SWIDTH 602 0
DWIDTH 16 0
BBX 14 19 1 0
BITMAP
0780
0FC0
0FC0
1CE0
0000
0FC0
3FF0
7FF8
7878
F87C
F03C
F03C
F03C
F03C
F87C
7878
7FF8
3FF0
0FC0
ENDCHAR
STARTCHAR otilde
ENCODING 245
SWIDTH 602 0
DWIDTH 16 0
BBX 14 19 1 0
BITMAP
0E60
1FE0
1FE0
19C0
0000
0FC0
3FF0
7FF8
7878
F87C
F03C
F03C
F03C
F03C
F87C
7878
7FF8
3FF0
0FC0
ENDCHAR
STARTCHAR odieresis
ENCODING 246
SWIDTH 602 0
DWIDTH 16 0
BBX 14 18 1 0
BITMAP
1CE0
1CE0
1CE0
0000
0FC0
3FF0
7FF8
7878
F87C
F03C
F03C
F03C
F03C
F87C
7878
7FF8
3FF0
0FC0
ENDCHAR
STARTCHAR divide
ENCODING 247
SWIDTH 602 0
DWIDTH 16 0
BBX 14 14 1 0
BITMAP
0780
0780
0780
0780
0000
FFFC
FFFC
FFFC
0000
0000
0780
0780
0780
0780
ENDCHAR
STARTCHAR oslash
ENCODING 248
SWIDTH 602 0
DWIDTH 16 0
BBX 14 14 1 0
BITMAP
0FFC
3FF8
7FF8
78F8
F9FC
F3FC
F7BC
F7BC
FF3C
FE7C
7C78
7FF8
7FF0
FFC0
ENDCHAR
STARTCHAR ugrave
ENCODING 249
SWIDTH 602 0
DWIDTH 16 0
BBX 12 19 2 0
BITMAP
1E00
0F00
0700
0380
0000
F0F0
F0F0
F0F0
F0F0
F0F0
F0F0
F0F0
F0F0
F0F0
F1F0
FFF0
FFF0
7EF0
3CF0
ENDCHAR
STARTCHAR uacute
ENCODING 250
SWIDTH 602 0
DWIDTH 16 0
BBX 12 19 2 0
BITMAP
0780
0F00
0E00
1C00
0000
F0F0
F0F0
F0F0
F0F0
F0F0
F0F0
F0F0
F0F0
F0F0
F1F0
FFF0
FFF0
7EF0
3CF0
ENDCHAR
STARTCHAR ucircumflex
ENCODING 251
SWIDTH 602 0
DWIDTH 16 0
BBX 12 19 2 0
BITMAP
0F00
1F80
1F80
39C0
0000
F0F0
F0F0
F0F0
F0F0
F0F0
F0F0
F0F0
F0F0
F0F0
F1F0
FFF0
FFF0
7EF0
3CF0
ENDCHAR
STARTCHAR udieresis
ENCODING 252
SWIDTH 602 0
DWIDTH 16 0
BBX 12 18 2 0
BITMAP
39C0
39C0
39C0
0000
F0F0
F0F0
F0F0
F0F0
F0F0
F0F0
F0F0
F0F0
F0F0
F1F0
FFF0
FFF0
7EF0
3CF0
ENDCHAR
STARTCHAR yacute
ENCODING 253
SWIDTH 602 0
DWIDTH 16 0
BBX 15 24 0 -5
BITMAP
03C0
0780
0700
0E00
0000
F80E
781E
7C1C
3C3C
3C38
1E78
1E70
0F70
0FE0
0FE0
07C0
07C0
03C0
0380
0780
0700
7F00
7E00
7C00
ENDCHAR
STARTCHAR thorn
ENCODING 254
SWIDTH 602 0
DWIDTH 16 0
BBX 13 23 2 -5
BITMAP
F000
F000
F000
F000
F3C0
F7E0
FFF0
FFF8
F8F8
F078
F078
F078
F078
F078
F8F0
FFF0
FFE0
F7C0
F000
F000
F000
F000
F000
ENDCHAR
STARTCHAR ydieresis
ENCODING 255
SWIDTH 602 0
DWIDTH 16 0
BBX 15 23 0 -5
BITMAP
1CE0
1CE0
1CE0
0000
F80E
781E
7C1C
3C3C
3C38
1E78
1E70
0F70
0FE0
0FE0
07C0
07C0
03C0
0380
0780
0700
7F00
7E00
7C00
ENDCHAR
ENDFONT
