STARTFONT 2.1
COMMENT AUTOMATICALLY GENERATED FILE. DO NOT EDIT!
COMMENT Generated with 'ucs2any.pl lutBS24.bdf ../../../fonts/util/map-ISO8859-1 ISO8859-1'
COMMENT from an ISO10646-1 encoded source BDF font.
COMMENT ucs2any.pl by Markus Kuhn <mkuhn@acm.org>, 2000.
COMMENT $Xorg: $
COMMENT ISO10646-1 extension by Markus Kuhn <mkuhn@acm.org>, 2001-03-20
FONT -B&H-LucidaTypewriter-Bold-R-Normal-Sans-34-240-100-100-M-200-ISO8859-1
SIZE 24 100 100
FONTBOUNDINGBOX 27 38 -5 -7
STARTPROPERTIES 22
FONTNAME_REGISTRY ""
FOUNDRY "B&H"
FAMILY_NAME "LucidaTypewriter"
WEIGHT_NAME "Bold"
SLANT "R"
SETWIDTH_NAME "Normal"
ADD_STYLE_NAME "Sans"
PIXEL_SIZE 34
POINT_SIZE 240
RESOLUTION_X 100
RESOLUTION_Y 100
SPACING "M"
AVERAGE_WIDTH 200
CHARSET_REGISTRY "ISO8859"
CHARSET_ENCODING "1"
FONT_ASCENT 31
FONT_DESCENT 7
DEFAULT_CHAR 0
COPYRIGHT "Copyright Bigelow & Holmes 1986, 1985."
FACE_NAME "Lucida Sans Typewriter Bold"
X_HEIGHT 18
CAP_HEIGHT 25
ENDPROPERTIES
CHARS 192
STARTCHAR defaultchar
ENCODING 0
SWIDTH 602 0
DWIDTH 20 0
BBX 17 25 2 0
BITMAP
AAAA80
000000
800080
000000
800080
000000
800080
000000
800080
000000
800080
000000
800080
000000
800080
000000
800080
000000
800080
000000
800080
000000
800080
000000
AAAA80
ENDCHAR
STARTCHAR space
ENCODING 32
SWIDTH 602 0
DWIDTH 20 0
BBX 1 1 0 0
BITMAP
00
ENDCHAR
STARTCHAR exclam
ENCODING 33
SWIDTH 602 0
DWIDTH 20 0
BBX 5 25 8 0
BITMAP
F8
F8
F8
F8
F8
F8
F8
F8
F8
F8
F8
70
70
70
70
70
70
00
00
00
00
F8
F8
F8
F8
ENDCHAR
STARTCHAR quotedbl
ENCODING 34
SWIDTH 602 0
DWIDTH 20 0
BBX 14 10 3 16
BITMAP
F87C
F87C
F87C
F87C
F87C
7038
7038
7038
7038
7038
ENDCHAR
STARTCHAR numbersign
ENCODING 35
SWIDTH 602 0
DWIDTH 20 0
BBX 18 25 1 0
BITMAP
01E780
01C700
01C700
01C700
03CE00
038E00
038E00
3FFFC0
3FFFC0
7FFFC0
071C00
071C00
0F3800
0E3800
0E3800
FFFF80
FFFF00
FFFF00
1C7000
1C7000
1CE000
38E000
38E000
38E000
79C000
ENDCHAR
STARTCHAR dollar
ENCODING 36
SWIDTH 602 0
DWIDTH 20 0
BBX 15 32 3 -4
BITMAP
0380
0380
0380
07F8
0FFC
3FFC
3E1C
7C04
7C00
7C00
7C00
7E00
3F80
3FC0
1FE0
0FF0
03F8
01FC
00FC
007E
003E
003E
003E
803E
F07C
FFFC
FFF8
3FE0
0380
0380
0380
0380
ENDCHAR
STARTCHAR percent
ENCODING 37
SWIDTH 602 0
DWIDTH 20 0
BBX 21 25 0 0
BITMAP
1E01E0
3F01C0
7F83C0
F3C380
F3C700
F3C700
F3CE00
F3DE00
F3DC00
F3FC00
7FB800
3F7800
1E7000
00F3C0
00EFF0
01EFF0
01DE78
03DE78
039E78
071E78
071E78
0E1E78
1E0FF0
1C0FF0
3C03C0
ENDCHAR
STARTCHAR ampersand
ENCODING 38
SWIDTH 602 0
DWIDTH 20 0
BBX 20 25 0 0
BITMAP
03E000
0FF800
0FF800
1F7C00
1F7C00
1F7C00
1F7C00
1F7C00
0FF800
0FF000
07E000
0FC1F0
3FE1F0
7FE1F0
7FF1F0
F9F9E0
F8F9E0
F8FFC0
F87FC0
FC7F80
FE3F00
7FFF80
3FFFC0
1FFFE0
07E7F0
ENDCHAR
STARTCHAR quotesingle
ENCODING 39
SWIDTH 602 0
DWIDTH 20 0
BBX 6 11 7 15
BITMAP
FC
FC
FC
F8
F8
F8
78
78
70
70
70
ENDCHAR
STARTCHAR parenleft
ENCODING 40
SWIDTH 602 0
DWIDTH 20 0
BBX 14 32 5 -6
BITMAP
001C
00FC
03FC
07F0
0FC0
1F80
1F00
3E00
7E00
7C00
7C00
F800
F800
F800
F800
F800
F800
F800
F800
F800
7C00
7C00
7C00
3E00
3E00
1F00
1F80
0FE0
07FC
01FC
007C
001C
ENDCHAR
STARTCHAR parenright
ENCODING 41
SWIDTH 602 0
DWIDTH 20 0
BBX 14 32 2 -6
BITMAP
E000
F800
FE00
FF00
1FC0
07C0
03E0
01F0
01F0
00F8
00F8
00F8
007C
007C
007C
007C
007C
007C
007C
007C
007C
00F8
00F8
01F0
01F0
03E0
07E0
0FC0
3F80
FE00
FC00
E000
ENDCHAR
STARTCHAR asterisk
ENCODING 42
SWIDTH 602 0
DWIDTH 20 0
BBX 16 15 2 10
BITMAP
03C0
03C0
03C0
4182
718E
7D9E
FC3F
FC3F
0000
07E0
0E70
1E78
3E7C
1C38
0420
ENDCHAR
STARTCHAR plus
ENCODING 43
SWIDTH 602 0
DWIDTH 20 0
BBX 18 18 1 0
BITMAP
01E000
01E000
01E000
01E000
01E000
01E000
01E000
FFFFC0
FFFFC0
FFFFC0
FFFFC0
01E000
01E000
01E000
01E000
01E000
01E000
01E000
ENDCHAR
STARTCHAR comma
ENCODING 44
SWIDTH 602 0
DWIDTH 20 0
BBX 6 12 7 -6
BITMAP
FC
FC
FC
FC
FC
FC
3C
3C
3C
78
F8
E0
ENDCHAR
STARTCHAR hyphen
ENCODING 45
SWIDTH 602 0
DWIDTH 20 0
BBX 18 4 1 6
BITMAP
FFFFC0
FFFFC0
FFFFC0
FFFFC0
ENDCHAR
STARTCHAR period
ENCODING 46
SWIDTH 602 0
DWIDTH 20 0
BBX 6 5 7 0
BITMAP
FC
FC
FC
FC
FC
ENDCHAR
STARTCHAR slash
ENCODING 47
SWIDTH 602 0
DWIDTH 20 0
BBX 20 32 0 -6
BITMAP
0001F0
0001E0
0003E0
0003C0
0007C0
000780
000F80
000F00
001F00
001E00
003E00
003C00
007C00
007800
00F800
00F000
01F000
01E000
03E000
03C000
07C000
078000
078000
0F0000
0F0000
1E0000
1E0000
3C0000
3C0000
780000
780000
F00000
ENDCHAR
STARTCHAR zero
ENCODING 48
SWIDTH 602 0
DWIDTH 20 0
BBX 18 25 1 0
BITMAP
03F000
0FFC00
1FFE00
3E1F00
3C0F00
7C0F80
780780
780780
F807C0
F807C0
F807C0
F807C0
F807C0
F807C0
F807C0
F807C0
F807C0
780780
780780
7C0F80
3C0F00
3E1F00
1FFE00
0FFC00
03F000
ENDCHAR
STARTCHAR one
ENCODING 49
SWIDTH 602 0
DWIDTH 20 0
BBX 15 25 4 0
BITMAP
FFC0
FFC0
FFC0
07C0
07C0
07C0
07C0
07C0
07C0
07C0
07C0
07C0
07C0
07C0
07C0
07C0
07C0
07C0
07C0
07C0
07C0
07C0
FFFE
FFFE
FFFE
ENDCHAR
STARTCHAR two
ENCODING 50
SWIDTH 602 0
DWIDTH 20 0
BBX 15 25 3 0
BITMAP
1FC0
7FF0
7FF8
7FFC
40FE
007E
003E
003E
003E
003C
007C
00F8
00F0
01E0
03C0
0780
0F00
1E00
3C00
7C00
F800
FFFE
FFFE
FFFE
FFFE
ENDCHAR
STARTCHAR three
ENCODING 51
SWIDTH 602 0
DWIDTH 20 0
BBX 14 25 3 0
BITMAP
3FC0
FFF0
FFF8
C0F8
007C
007C
007C
007C
00F8
03F8
3FE0
3F00
3FE0
03F0
00F8
00F8
007C
007C
007C
007C
00F8
81F8
FFF0
FFE0
7F00
ENDCHAR
STARTCHAR four
ENCODING 52
SWIDTH 602 0
DWIDTH 20 0
BBX 17 25 2 0
BITMAP
007C00
00FC00
00FC00
01FC00
03FC00
03FC00
07FC00
0F7C00
0E7C00
1E7C00
1C7C00
387C00
787C00
707C00
FFFF80
FFFF80
FFFF80
FFFF80
FFFF80
007C00
007C00
007C00
007C00
007C00
007C00
ENDCHAR
STARTCHAR five
ENCODING 53
SWIDTH 602 0
DWIDTH 20 0
BBX 13 25 4 0
BITMAP
FFF8
FFF8
FFF8
FFF8
F000
F000
F000
E000
E000
FC00
FF80
FFC0
0FE0
03F0
01F8
00F8
00F8
00F8
00F8
00F8
01F0
83F0
FFE0
FFC0
7F00
ENDCHAR
STARTCHAR six
ENCODING 54
SWIDTH 602 0
DWIDTH 20 0
BBX 17 25 2 0
BITMAP
00FE00
03FF00
0FFF00
1F8100
3E0000
3E0000
7C0000
7C0000
780000
F8F800
FBFE00
FFFE00
FFFF00
FE3F80
FC1F80
F80F80
F80F80
F80F80
780F80
780F80
3C1F00
3E3F00
1FFE00
0FFC00
03F000
ENDCHAR
STARTCHAR seven
ENCODING 55
SWIDTH 602 0
DWIDTH 20 0
BBX 15 25 3 0
BITMAP
FFFE
FFFE
FFFE
FFFE
001E
003C
0078
0078
00F0
01E0
01E0
03C0
03C0
0780
0780
0F00
1F00
1E00
1E00
3E00
3E00
3C00
7C00
7C00
7C00
ENDCHAR
STARTCHAR eight
ENCODING 56
SWIDTH 602 0
DWIDTH 20 0
BBX 17 25 2 0
BITMAP
03F000
0FFC00
3FFE00
3E3F00
7C1F00
7C1F00
7C1F00
7E1F00
3FBE00
3FFC00
1FF800
07F800
0FFC00
3FFE00
7EFF00
7C7F00
F81F80
F81F80
F80F80
F80F80
FC0F80
7E1F00
7FFE00
1FFC00
07F000
ENDCHAR
STARTCHAR nine
ENCODING 57
SWIDTH 602 0
DWIDTH 20 0
BBX 17 25 2 0
BITMAP
07E000
1FF800
3FFC00
7E3E00
7C1E00
F80F00
F80F00
F80F80
F80F80
F80F80
FC1F80
FE3F80
7FFF80
3FFF80
3FEF80
0F8F80
000F00
001F00
001F00
003E00
003E00
40FC00
7FF800
7FE000
3F8000
ENDCHAR
STARTCHAR colon
ENCODING 58
SWIDTH 602 0
DWIDTH 20 0
BBX 5 18 8 0
BITMAP
F8
F8
F8
F8
F8
00
00
00
00
00
00
00
00
F8
F8
F8
F8
F8
ENDCHAR
STARTCHAR semicolon
ENCODING 59
SWIDTH 602 0
DWIDTH 20 0
BBX 5 24 8 -6
BITMAP
F8
F8
F8
F8
F8
00
00
00
00
00
00
00
F8
F8
F8
F8
F8
F8
78
78
78
70
F0
E0
ENDCHAR
STARTCHAR less
ENCODING 60
SWIDTH 602 0
DWIDTH 20 0
BBX 18 18 1 0
BITMAP
000040
0001C0
0007C0
001FC0
007FC0
01FF00
07FC00
1FF000
FFC000
7FC000
1FF000
07FC00
01FF00
007FC0
001FC0
0007C0
0001C0
000040
ENDCHAR
STARTCHAR equal
ENCODING 61
SWIDTH 602 0
DWIDTH 20 0
BBX 18 12 1 3
BITMAP
FFFFC0
FFFFC0
FFFFC0
FFFFC0
000000
000000
000000
000000
FFFFC0
FFFFC0
FFFFC0
FFFFC0
ENDCHAR
STARTCHAR greater
ENCODING 62
SWIDTH 602 0
DWIDTH 20 0
BBX 18 18 1 0
BITMAP
800000
E00000
F80000
FE0000
FF8000
3FE000
0FF800
03FE00
00FF80
00FFC0
03FE00
0FF800
3FE000
FF8000
FE0000
F80000
E00000
800000
ENDCHAR
STARTCHAR question
ENCODING 63
SWIDTH 602 0
DWIDTH 20 0
BBX 17 25 2 0
BITMAP
1FF000
FFFE00
FFFF00
F03F80
E00F80
E00F80
E00F80
001F80
001F00
003E00
00FC00
01F000
03E000
078000
0F0000
1F0000
1F0000
1F0000
000000
000000
000000
1F0000
1F0000
1F0000
1F0000
ENDCHAR
STARTCHAR at
ENCODING 64
SWIDTH 602 0
DWIDTH 20 0
BBX 20 25 0 0
BITMAP
00FC00
03FF00
0FFF80
1F0780
3C03C0
383DC0
787FC0
70FFC0
71E1C0
F1C1C0
E3C1C0
E381C0
E383C0
E383C0
E387C0
E38FC0
E3CDF0
71FDF0
71F9F0
78F000
3C0200
3E0E00
1FFE00
0FFE00
03F800
ENDCHAR
STARTCHAR A
ENCODING 65
SWIDTH 602 0
DWIDTH 20 0
BBX 20 25 0 0
BITMAP
00F800
00F800
01FC00
01FC00
01FC00
03FE00
03BE00
03BE00
07BE00
073F00
071F00
071F00
0E1F80
0E0F80
0E0F80
1C0F80
1FFFC0
1FFFC0
3FFFC0
3807C0
3803E0
7003E0
7003E0
7003F0
E001F0
ENDCHAR
STARTCHAR B
ENCODING 66
SWIDTH 602 0
DWIDTH 20 0
BBX 17 25 2 0
BITMAP
FFF800
FFFE00
FFFE00
F83F00
F81F00
F81F00
F81F00
F81F00
F83E00
F87E00
FFF800
FFF000
FFF800
F87E00
F81F00
F81F00
F80F80
F80F80
F80F80
F80F80
F81F80
F83F00
FFFF00
FFFE00
FFF800
ENDCHAR
STARTCHAR C
ENCODING 67
SWIDTH 602 0
DWIDTH 20 0
BBX 19 25 1 0
BITMAP
00FFC0
03FFE0
0FFFE0
1FC060
3F0000
3E0000
7C0000
7C0000
F80000
F80000
F80000
F80000
F80000
F80000
F80000
F80000
FC0000
7C0000
7E0000
3F0020
3FC0E0
1FFFE0
0FFFE0
03FFE0
00FF00
ENDCHAR
STARTCHAR D
ENCODING 68
SWIDTH 602 0
DWIDTH 20 0
BBX 18 25 2 0
BITMAP
FFF000
FFFC00
FFFE00
F87F00
F81F80
F80F80
F80F80
F80FC0
F807C0
F807C0
F807C0
F807C0
F807C0
F807C0
F807C0
F807C0
F807C0
F80F80
F80F80
F80F80
F81F00
F87E00
FFFE00
FFF800
FFE000
ENDCHAR
STARTCHAR E
ENCODING 69
SWIDTH 602 0
DWIDTH 20 0
BBX 16 25 3 0
BITMAP
FFFE
FFFE
FFFE
F800
F800
F800
F800
F800
F800
F800
FFFC
FFFC
FFFC
F800
F800
F800
F800
F800
F800
F800
F800
F800
FFFF
FFFF
FFFF
ENDCHAR
STARTCHAR F
ENCODING 70
SWIDTH 602 0
DWIDTH 20 0
BBX 17 25 3 0
BITMAP
FFFF80
FFFF80
FFFF80
F80000
F80000
F80000
F80000
F80000
F80000
F80000
F80000
FFFE00
FFFE00
FFFE00
F80000
F80000
F80000
F80000
F80000
F80000
F80000
F80000
F80000
F80000
F80000
ENDCHAR
STARTCHAR G
ENCODING 71
SWIDTH 602 0
DWIDTH 20 0
BBX 19 25 1 0
BITMAP
00FF80
07FFE0
0FFFE0
1FC0E0
3F0020
3E0000
7C0000
7C0000
F80000
F80000
F80000
F80000
F803E0
F803E0
F803E0
F803E0
FC03E0
7C03E0
7E03E0
3F03E0
3FC3E0
1FFFE0
0FFFE0
07FFE0
00FF00
ENDCHAR
STARTCHAR H
ENCODING 72
SWIDTH 602 0
DWIDTH 20 0
BBX 17 25 2 0
BITMAP
F80F80
F80F80
F80F80
F80F80
F80F80
F80F80
F80F80
F80F80
F80F80
F80F80
FFFF80
FFFF80
FFFF80
F80F80
F80F80
F80F80
F80F80
F80F80
F80F80
F80F80
F80F80
F80F80
F80F80
F80F80
F80F80
ENDCHAR
STARTCHAR I
ENCODING 73
SWIDTH 602 0
DWIDTH 20 0
BBX 17 25 2 0
BITMAP
FFFF80
FFFF80
FFFF80
03E000
03E000
03E000
03E000
03E000
03E000
03E000
03E000
03E000
03E000
03E000
03E000
03E000
03E000
03E000
03E000
03E000
03E000
03E000
FFFF80
FFFF80
FFFF80
ENDCHAR
STARTCHAR J
ENCODING 74
SWIDTH 602 0
DWIDTH 20 0
BBX 15 25 2 0
BITMAP
3FFE
3FFE
3FFE
003E
003E
003E
003E
003E
003E
003E
003E
003E
003E
003E
003E
003E
003E
003E
003E
003E
007C
C0FC
FFF8
FFF0
FFC0
ENDCHAR
STARTCHAR K
ENCODING 75
SWIDTH 602 0
DWIDTH 20 0
BBX 18 25 2 0
BITMAP
F807C0
F80700
F80F00
F81E00
F83C00
F83800
F87800
F8F000
F9E000
F9C000
FFC000
FFC000
FFC000
FFE000
FFF000
FBF000
F9F800
F8F800
F8FC00
F87E00
F87E00
F83F00
F81F80
F81F80
F80FC0
ENDCHAR
STARTCHAR L
ENCODING 76
SWIDTH 602 0
DWIDTH 20 0
BBX 16 25 4 0
BITMAP
F800
F800
F800
F800
F800
F800
F800
F800
F800
F800
F800
F800
F800
F800
F800
F800
F800
F800
F800
F800
F800
F800
FFFF
FFFF
FFFF
ENDCHAR
STARTCHAR M
ENCODING 77
SWIDTH 602 0
DWIDTH 20 0
BBX 19 25 1 0
BITMAP
FE07E0
FE07E0
FE0FE0
FE0FE0
FE0FE0
FF0FE0
FF1FE0
FF1FE0
FF1FE0
FF1FE0
F79FE0
F7BBE0
F7BBE0
F7BBE0
F7BBE0
F7FBE0
F3F3E0
F3F3E0
F3F3E0
F3F3E0
F3F3E0
F1E3E0
F1E3E0
F003E0
F003E0
ENDCHAR
STARTCHAR N
ENCODING 78
SWIDTH 602 0
DWIDTH 20 0
BBX 17 25 2 0
BITMAP
F80780
FC0780
FC0780
FE0780
FE0780
FF0780
FF0780
FF8780
FF8780
FFC780
F7C780
F7E780
F3E780
F3F780
F1F780
F1FF80
F0FF80
F0FF80
F07F80
F07F80
F03F80
F03F80
F01F80
F01F80
F00F80
ENDCHAR
STARTCHAR O
ENCODING 79
SWIDTH 602 0
DWIDTH 20 0
BBX 20 25 0 0
BITMAP
01F800
0FFF00
1FFF80
3F0FC0
3E07C0
7C03E0
7C03E0
7801E0
F801F0
F801F0
F801F0
F801F0
F801F0
F801F0
F801F0
F801F0
F801F0
7801E0
7C03E0
7C03E0
3E07C0
3F0FC0
1FFF80
07FE00
01F800
ENDCHAR
STARTCHAR P
ENCODING 80
SWIDTH 602 0
DWIDTH 20 0
BBX 17 25 2 0
BITMAP
FFF800
FFFE00
FFFF00
F83F00
F80F80
F80F80
F80F80
F80F80
F80F80
F80F80
F81F00
F83F00
FFFE00
FFFC00
FFE000
F80000
F80000
F80000
F80000
F80000
F80000
F80000
F80000
F80000
F80000
ENDCHAR
STARTCHAR Q
ENCODING 81
SWIDTH 602 0
DWIDTH 20 0
BBX 22 31 0 -6
BITMAP
01F800
0FFE00
1FFF80
3F0FC0
3E07C0
7C03E0
7C03E0
7801E0
F801F0
F801F0
F801F0
F801F0
F801F0
F801F0
F801F0
F801F0
F801F0
7801F0
7C03E0
7C03E0
3E07C0
1F0FC0
1FFF80
07FF00
01FF00
001FF0
000FFC
0007F8
0001F0
0000F0
000060
ENDCHAR
STARTCHAR R
ENCODING 82
SWIDTH 602 0
DWIDTH 20 0
BBX 18 25 2 0
BITMAP
FFF000
FFFC00
FFFE00
F83F00
F81F00
F81F00
F81F00
F81F00
F83F00
F83E00
F8FE00
FFFC00
FFF800
FFF000
F9F000
F9F800
F8F800
F8FC00
F87E00
F87E00
F83F00
F83F00
F81F80
F81F80
F80FC0
ENDCHAR
STARTCHAR S
ENCODING 83
SWIDTH 602 0
DWIDTH 20 0
BBX 18 25 1 0
BITMAP
07FE00
1FFF00
7FFF00
7E0300
F80000
F80000
F80000
FC0000
FF0000
7FC000
3FF000
1FFC00
07FE00
01FF00
007F80
001FC0
000FC0
0007C0
0007C0
800FC0
F01FC0
FFFF80
FFFF00
FFFE00
3FF000
ENDCHAR
STARTCHAR T
ENCODING 84
SWIDTH 602 0
DWIDTH 20 0
BBX 19 25 1 0
BITMAP
FFFFE0
FFFFE0
FFFFE0
01F000
01F000
01F000
01F000
01F000
01F000
01F000
01F000
01F000
01F000
01F000
01F000
01F000
01F000
01F000
01F000
01F000
01F000
01F000
01F000
01F000
01F000
ENDCHAR
STARTCHAR U
ENCODING 85
SWIDTH 602 0
DWIDTH 20 0
BBX 17 25 2 0
BITMAP
F80F80
F80F80
F80F80
F80F80
F80F80
F80F80
F80F80
F80F80
F80F80
F80F80
F80F80
F80F80
F80F80
F80F80
F80F80
F80F80
F80F80
F80F80
F80F80
F80F80
7C1F00
7E3F00
3FFE00
1FFC00
07F800
ENDCHAR
STARTCHAR V
ENCODING 86
SWIDTH 602 0
DWIDTH 20 0
BBX 20 25 0 0
BITMAP
F800F0
FC00F0
7C01F0
7C01E0
7C01E0
3E03E0
3E03C0
3E03C0
3F07C0
1F0780
1F0780
1F0780
0F8F00
0F8F00
0F8F00
0FDE00
07DE00
07DE00
07FE00
03FC00
03FC00
03FC00
03F800
01F800
01F800
ENDCHAR
STARTCHAR W
ENCODING 87
SWIDTH 602 0
DWIDTH 20 0
BBX 20 25 0 0
BITMAP
F80070
F80070
F87870
F8F870
7CF8E0
7CF8E0
7CFCE0
7CFCE0
7DFCE0
7DFCE0
7DFCE0
7DFCE0
3DFFE0
3FBFC0
3FBFC0
3F9FC0
3F9FC0
3F9FC0
3F1FC0
3F1FC0
1F1FC0
1F1F80
1F0F80
1E0F80
1E0F80
ENDCHAR
STARTCHAR X
ENCODING 88
SWIDTH 602 0
DWIDTH 20 0
BBX 19 25 1 0
BITMAP
FC01C0
7E0380
7E0780
3F0700
1F0F00
1F8E00
0F9E00
0FDC00
07FC00
07F800
03F800
03F000
01F000
01F800
03F800
03FC00
077E00
0F7E00
0E3F00
1E3F00
1C1F80
3C0F80
380FC0
7007C0
F007E0
ENDCHAR
STARTCHAR Y
ENCODING 89
SWIDTH 602 0
DWIDTH 20 0
BBX 21 25 0 0
BITMAP
FC0078
7E00F0
7E00E0
3F01E0
3F01C0
1F83C0
0F8380
0FC780
07C700
07EE00
03EE00
03FC00
01FC00
01F800
00F800
00F800
00F800
00F800
00F800
00F800
00F800
00F800
00F800
00F800
00F800
ENDCHAR
STARTCHAR Z
ENCODING 90
SWIDTH 602 0
DWIDTH 20 0
BBX 17 25 1 0
BITMAP
7FFF80
7FFF80
7FFF80
001F80
003F00
003F00
007E00
007C00
00FC00
01F800
01F800
03F000
03E000
07E000
0FC000
0FC000
1F8000
1F0000
3F0000
7E0000
7E0000
FC0000
FFFF80
FFFF80
FFFF80
ENDCHAR
STARTCHAR bracketleft
ENCODING 91
SWIDTH 602 0
DWIDTH 20 0
BBX 13 32 6 -6
BITMAP
FFF8
FFF8
FFF8
F800
F800
F800
F800
F800
F800
F800
F800
F800
F800
F800
F800
F800
F800
F800
F800
F800
F800
F800
F800
F800
F800
F800
F800
F800
F800
FFF8
FFF8
FFF8
ENDCHAR
STARTCHAR backslash
ENCODING 92
SWIDTH 602 0
DWIDTH 20 0
BBX 20 32 0 -6
BITMAP
F80000
780000
7C0000
3C0000
3E0000
1E0000
1F0000
0F0000
0F8000
078000
07C000
03C000
03C000
01E000
01E000
00F000
00F000
00F800
007800
007C00
003C00
003E00
001E00
001F00
000F00
000F80
000780
0007C0
0003C0
0003E0
0001E0
0001F0
ENDCHAR
STARTCHAR bracketright
ENCODING 93
SWIDTH 602 0
DWIDTH 20 0
BBX 13 32 1 -6
BITMAP
FFF8
FFF8
FFF8
00F8
00F8
00F8
00F8
00F8
00F8
00F8
00F8
00F8
00F8
00F8
00F8
00F8
00F8
00F8
00F8
00F8
00F8
00F8
00F8
00F8
00F8
00F8
00F8
00F8
00F8
FFF8
FFF8
FFF8
ENDCHAR
STARTCHAR asciicircum
ENCODING 94
SWIDTH 602 0
DWIDTH 20 0
BBX 18 21 1 4
BITMAP
004000
00C000
00C000
01E000
01E000
01E000
03F000
03F000
07F800
07F800
0FFC00
0F3C00
0F3C00
1E1E00
1E1E00
3E1F00
3C0F00
7C0F80
780780
780780
F807C0
ENDCHAR
STARTCHAR underscore
ENCODING 95
SWIDTH 602 0
DWIDTH 20 0
BBX 20 4 0 -5
BITMAP
FFFFF0
FFFFF0
FFFFF0
FFFFF0
ENDCHAR
STARTCHAR grave
ENCODING 96
SWIDTH 602 0
DWIDTH 20 0
BBX 8 5 6 21
BITMAP
F8
7C
3C
1E
0F
ENDCHAR
STARTCHAR a
ENCODING 97
SWIDTH 602 0
DWIDTH 20 0
BBX 18 18 1 0
BITMAP
0FF000
3FFC00
3FFE00
307F00
201F00
001F00
001F00
0FFF00
3FFF00
7FFF00
FC1F00
F81F00
F81F00
FC7F00
FFFFC0
7FFFC0
3FCFC0
1F87C0
ENDCHAR
STARTCHAR b
ENCODING 98
SWIDTH 602 0
DWIDTH 20 0
BBX 17 26 2 0
BITMAP
F80000
F80000
F80000
F80000
F80000
F80000
F80000
F80000
F8F800
F9FC00
FBFE00
FFFF00
FFFF00
FE1F80
FC1F80
F80F80
F80F80
F80F80
F80F80
F80F80
F81F00
FC3F00
FFFF00
FFFE00
FFFC00
F1F000
ENDCHAR
STARTCHAR c
ENCODING 99
SWIDTH 602 0
DWIDTH 20 0
BBX 17 18 2 0
BITMAP
03FF80
0FFF80
1FFF80
3F0180
7C0000
7C0000
F80000
F80000
F80000
F80000
F80000
FC0000
7E0000
7F8180
3FFF80
1FFF80
0FFF80
03FE00
ENDCHAR
STARTCHAR d
ENCODING 100
SWIDTH 602 0
DWIDTH 20 0
BBX 17 26 2 0
BITMAP
000F80
000F80
000F80
000F80
000F80
000F80
000F80
000F80
07CF80
1FEF80
3FFF80
7FFF80
7E1F80
7C0F80
F80F80
F80F80
F80F80
F80F80
F80F80
FC1F80
FC3F80
7FFF80
7FFF80
3FEF80
1FCF80
0F8F80
ENDCHAR
STARTCHAR e
ENCODING 101
SWIDTH 602 0
DWIDTH 20 0
BBX 18 18 1 0
BITMAP
03F800
0FFE00
1FFF00
3E0F80
7C0780
7C07C0
F807C0
FFFFC0
FFFFC0
FFFFC0
F80000
F80000
7C0000
7F00C0
3FFFC0
1FFFC0
0FFFC0
03FE00
ENDCHAR
STARTCHAR f
ENCODING 102
SWIDTH 602 0
DWIDTH 20 0
BBX 17 26 3 0
BITMAP
01FF00
07FF80
0FFF80
1F8180
1F0000
1F0000
1F0000
1F0000
FFFE00
FFFE00
FFFE00
1F0000
1F0000
1F0000
1F0000
1F0000
1F0000
1F0000
1F0000
1F0000
1F0000
1F0000
1F0000
1F0000
1F0000
1F0000
ENDCHAR
STARTCHAR g
ENCODING 103
SWIDTH 602 0
DWIDTH 20 0
BBX 17 25 2 -7
BITMAP
07C780
1FE780
3FFF80
7FFF80
7E3F80
FC0F80
F80F80
F80F80
F80F80
F80F80
F80F80
FC1F80
FC3F80
7FFF80
7FEF80
3FEF80
1FCF80
0F8F80
000F80
001F00
303F00
3FFF00
3FFE00
3FFC00
07F000
ENDCHAR
STARTCHAR h
ENCODING 104
SWIDTH 602 0
DWIDTH 20 0
BBX 16 26 2 0
BITMAP
F800
F800
F800
F800
F800
F800
F800
F800
F8F8
F9FC
FBFE
FFFF
FFFF
FE1F
FC1F
F81F
F81F
F81F
F81F
F81F
F81F
F81F
F81F
F81F
F81F
F81F
ENDCHAR
STARTCHAR i
ENCODING 105
SWIDTH 602 0
DWIDTH 20 0
BBX 12 26 3 0
BITMAP
01F0
01F0
01F0
01F0
01F0
0000
0000
0000
FFF0
FFF0
FFF0
01F0
01F0
01F0
01F0
01F0
01F0
01F0
01F0
01F0
01F0
01F0
01F0
01F0
01F0
01F0
ENDCHAR
STARTCHAR j
ENCODING 106
SWIDTH 602 0
DWIDTH 20 0
BBX 13 33 2 -7
BITMAP
00F8
00F8
00F8
00F8
00F8
0000
0000
0000
3FF8
3FF8
3FF8
00F8
00F8
00F8
00F8
00F8
00F8
00F8
00F8
00F8
00F8
00F8
00F8
00F8
00F8
00F8
00F8
00F8
00F8
C1F0
FFF0
FFE0
7F80
ENDCHAR
STARTCHAR k
ENCODING 107
SWIDTH 602 0
DWIDTH 20 0
BBX 17 26 3 0
BITMAP
F80000
F80000
F80000
F80000
F80000
F80000
F80000
F80000
F81E00
F83C00
F83800
F87800
F8F000
F8E000
F9E000
FBC000
FFE000
FBF000
FBF000
F9F800
F8FC00
F8FC00
F87E00
F83F00
F83F00
F81F80
ENDCHAR
STARTCHAR l
ENCODING 108
SWIDTH 602 0
DWIDTH 20 0
BBX 12 26 1 0
BITMAP
FFF0
FFF0
FFF0
01F0
01F0
01F0
01F0
01F0
01F0
01F0
01F0
01F0
01F0
01F0
01F0
01F0
01F0
01F0
01F0
01F0
01F0
01F0
01F0
01F0
01F0
01F0
ENDCHAR
STARTCHAR m
ENCODING 109
SWIDTH 602 0
DWIDTH 20 0
BBX 19 18 1 0
BITMAP
F9E3C0
FBE7C0
FBF7E0
FFFFE0
FFFFE0
FDF3E0
F9F3E0
F9F3E0
F9F3E0
F9F3E0
F9F3E0
F9F3E0
F9F3E0
F9F3E0
F9F3E0
F9F3E0
F9F3E0
F9F3E0
ENDCHAR
STARTCHAR n
ENCODING 110
SWIDTH 602 0
DWIDTH 20 0
BBX 16 18 2 0
BITMAP
F8F8
F9FC
FBFE
FFFF
FFFF
FE1F
FC1F
F81F
F81F
F81F
F81F
F81F
F81F
F81F
F81F
F81F
F81F
F81F
ENDCHAR
STARTCHAR o
ENCODING 111
SWIDTH 602 0
DWIDTH 20 0
BBX 19 18 1 0
BITMAP
03F800
0FFE00
1FFF00
3E0F80
7C07C0
7C07C0
F803E0
F803E0
F803E0
F803E0
F803E0
F803E0
7C07C0
7C07C0
3E0F80
1FFF00
0FFE00
03F800
ENDCHAR
STARTCHAR p
ENCODING 112
SWIDTH 602 0
DWIDTH 20 0
BBX 17 25 2 -7
BITMAP
F8F800
F9FC00
FBFE00
FFFF00
FFFF00
FE1F80
FC1F80
F80F80
F80F80
F80F80
F80F80
F80F80
F81F00
FC3F00
FFFF00
FFFE00
FBFC00
F9F000
F80000
F80000
F80000
F80000
F80000
F80000
F80000
ENDCHAR
STARTCHAR q
ENCODING 113
SWIDTH 602 0
DWIDTH 20 0
BBX 17 25 2 -7
BITMAP
07C780
1FF780
3FFF80
7FFF80
7E1F80
7C0F80
F80F80
F80F80
F80F80
F80F80
F80F80
FC1F80
FC3F80
7FFF80
7FFF80
3FEF80
1FCF80
0F8F80
000F80
000F80
000F80
000F80
000F80
000F80
000F80
ENDCHAR
STARTCHAR r
ENCODING 114
SWIDTH 602 0
DWIDTH 20 0
BBX 15 18 4 0
BITMAP
F87E
F9FE
FBFE
FFFE
FFFE
FF0E
FE0E
FC00
F800
F800
F800
F800
F800
F800
F800
F800
F800
F800
ENDCHAR
STARTCHAR s
ENCODING 115
SWIDTH 602 0
DWIDTH 20 0
BBX 16 18 2 0
BITMAP
07FC
3FFE
7FFE
7C06
F800
FE00
FF80
7FF0
3FFC
1FFE
03FF
00FF
001F
001F
C03F
FFFE
FFFC
3FE0
ENDCHAR
STARTCHAR t
ENCODING 116
SWIDTH 602 0
DWIDTH 20 0
BBX 16 23 2 0
BITMAP
0380
0F80
0F80
0F80
0F80
FFFF
FFFF
FFFF
0F80
0F80
0F80
0F80
0F80
0F80
0F80
0F80
0F80
0F80
0FC1
07FF
07FF
03FF
00FC
ENDCHAR
STARTCHAR u
ENCODING 117
SWIDTH 602 0
DWIDTH 20 0
BBX 16 18 2 0
BITMAP
F81F
F81F
F81F
F81F
F81F
F81F
F81F
F81F
F81F
F81F
F81F
F83F
F87F
FFFF
FFFF
7FDF
7F9F
1F1F
ENDCHAR
STARTCHAR v
ENCODING 118
SWIDTH 602 0
DWIDTH 20 0
BBX 19 18 1 0
BITMAP
F801E0
FC01C0
7C01C0
7E0380
3E0380
3E0780
3F0700
1F0700
1F8E00
0F8E00
0F9E00
0FDC00
07DC00
07F800
03F800
03F800
03F000
01F000
ENDCHAR
STARTCHAR w
ENCODING 119
SWIDTH 602 0
DWIDTH 20 0
BBX 20 18 0 0
BITMAP
F80070
F80070
F8F870
7CF8E0
7CF8E0
7CFCE0
7DFCE0
7DFCE0
7DFCE0
3FDFC0
3F9FC0
3F9FC0
3F9FC0
3F0FC0
3F0FC0
1F0F80
1F0780
1E0780
ENDCHAR
STARTCHAR x
ENCODING 120
SWIDTH 602 0
DWIDTH 20 0
BBX 19 18 1 0
BITMAP
FE03C0
7E0780
3F0F00
1F8E00
1FDE00
0FFC00
07F800
03F000
03F000
03F800
03FC00
07FC00
0F7E00
1E3F00
1C3F80
3C1F80
780FC0
F007E0
ENDCHAR
STARTCHAR y
ENCODING 121
SWIDTH 602 0
DWIDTH 20 0
BBX 19 25 1 -7
BITMAP
FC01E0
7C01C0
7C03C0
7E0380
3E0380
3F0700
1F0700
1F8F00
0F8E00
0FDE00
07DC00
07DC00
07F800
03F800
03F800
01F000
01F000
01E000
01E000
03C000
03C000
078000
7F8000
7F0000
7C0000
ENDCHAR
STARTCHAR z
ENCODING 122
SWIDTH 602 0
DWIDTH 20 0
BBX 17 18 2 0
BITMAP
FFFF80
FFFF80
FFFF80
003F80
007F00
00FE00
01FC00
03F800
07F000
0FE000
1FC000
3F8000
7F0000
7E0000
FFFF80
FFFF80
FFFF80
FFFF80
ENDCHAR
STARTCHAR braceleft
ENCODING 123
SWIDTH 602 0
DWIDTH 20 0
BBX 15 32 3 -6
BITMAP
00FE
03FE
07FE
07C0
07C0
07C0
07C0
07C0
03E0
03E0
03E0
03E0
03E0
03C0
0780
FF00
FF00
FF80
07C0
03E0
03E0
03E0
03E0
03E0
07E0
07C0
07C0
07C0
07C0
07FE
03FE
00FE
ENDCHAR
STARTCHAR bar
ENCODING 124
SWIDTH 602 0
DWIDTH 20 0
BBX 4 32 8 -6
BITMAP
F0
F0
F0
F0
F0
F0
F0
F0
F0
F0
F0
F0
F0
F0
F0
F0
F0
F0
F0
F0
F0
F0
F0
F0
F0
F0
F0
F0
F0
F0
F0
F0
ENDCHAR
STARTCHAR braceright
ENCODING 125
SWIDTH 602 0
DWIDTH 20 0
BBX 15 32 2 -6
BITMAP
FE00
FF80
FFC0
07C0
07C0
07C0
07C0
07C0
0F80
0F80
0F80
0F80
0F80
0780
03C0
01FE
01FE
03FE
07C0
0F80
0F80
0F80
0F80
0F80
07C0
07C0
07C0
07C0
07C0
FFC0
FF80
FE00
ENDCHAR
STARTCHAR asciitilde
ENCODING 126
SWIDTH 602 0
DWIDTH 20 0
BBX 18 8 1 5
BITMAP
1E01C0
3F01C0
7FC1C0
73E1C0
E1F380
E0FF80
E03F00
E01E00
ENDCHAR
STARTCHAR space
ENCODING 160
SWIDTH 602 0
DWIDTH 20 0
BBX 1 1 0 0
BITMAP
00
ENDCHAR
STARTCHAR exclamdown
ENCODING 161
SWIDTH 602 0
DWIDTH 20 0
BBX 5 25 8 -7
BITMAP
F8
F8
F8
F8
F8
00
00
00
70
70
70
70
70
70
F8
F8
F8
F8
F8
F8
F8
F8
F8
F8
F8
ENDCHAR
STARTCHAR cent
ENCODING 162
SWIDTH 602 0
DWIDTH 20 0
BBX 15 25 3 0
BITMAP
00E0
00E0
00E0
03FE
0FFE
1FFE
3E06
7C00
7C00
F800
F800
F800
F800
F800
FC00
7C00
7F00
3FFE
1FFE
0FFE
03E0
00E0
00E0
00E0
00E0
ENDCHAR
STARTCHAR sterling
ENCODING 163
SWIDTH 602 0
DWIDTH 20 0
BBX 14 25 4 0
BITMAP
03FC
07FC
0FFC
0F84
1F00
1F00
1F00
1F00
1F00
1F00
FFE0
FFE0
FFE0
1F00
1F00
1F00
1F00
1F00
1E00
1E00
3800
FFFC
FFFC
FFFC
FFFC
ENDCHAR
STARTCHAR currency
ENCODING 164
SWIDTH 602 0
DWIDTH 20 0
BBX 17 19 2 3
BITMAP
200200
73E700
FFFF80
7FFF00
3FFE00
3E3E00
7C1F00
780F00
780F00
780F00
780F00
780F00
7C1E00
3E3E00
3FFF00
7FFF00
FFFF80
73E700
200200
ENDCHAR
STARTCHAR yen
ENCODING 165
SWIDTH 602 0
DWIDTH 20 0
BBX 21 25 0 0
BITMAP
FC0078
7E00F0
3F00E0
3F01C0
1F83C0
0FC780
0FC700
07EF00
03FE00
03FC00
01FC00
00F800
0FFF80
0FFF80
0FFF80
00F800
0FFF80
0FFF80
0FFF80
00F800
00F800
00F800
00F800
00F800
00F800
ENDCHAR
STARTCHAR brokenbar
ENCODING 166
SWIDTH 602 0
DWIDTH 20 0
BBX 4 32 8 -6
BITMAP
F0
F0
F0
F0
F0
F0
F0
F0
F0
F0
F0
F0
F0
00
00
00
00
00
00
F0
F0
F0
F0
F0
F0
F0
F0
F0
F0
F0
F0
F0
ENDCHAR
STARTCHAR section
ENCODING 167
SWIDTH 602 0
DWIDTH 20 0
BBX 14 31 3 -6
BITMAP
0FF0
3FF8
7FF8
FC18
F800
F800
F800
FE00
7F80
3FC0
1FF0
3FF8
79F8
707C
F03C
F03C
F83C
FC38
FF78
7FF0
3FE0
1FF8
07F8
01FC
00FC
007C
007C
C0F8
FFF8
FFF0
FF80
ENDCHAR
STARTCHAR dieresis
ENCODING 168
SWIDTH 602 0
DWIDTH 20 0
BBX 10 4 5 21
BITMAP
F3C0
F3C0
F3C0
F3C0
ENDCHAR
STARTCHAR copyright
ENCODING 169
SWIDTH 602 0
DWIDTH 20 0
BBX 19 25 1 0
BITMAP
01F000
0FFE00
1FFF00
3E0F80
380380
7001C0
71F9C0
F3FDE0
E784E0
E700E0
EF00E0
EF00E0
EF00E0
EF00E0
EF00E0
E700E0
E784E0
F3FDE0
71F9C0
7001C0
380380
3E0F80
1FFF00
07FE00
01F000
ENDCHAR
STARTCHAR ordfeminine
ENCODING 170
SWIDTH 602 0
DWIDTH 20 0
BBX 15 14 3 11
BITMAP
3FC0
7FF0
7FF8
40F8
0078
0078
1FF8
7FF8
F878
F078
F0F8
FFFE
7FBE
3E1E
ENDCHAR
STARTCHAR guillemotleft
ENCODING 171
SWIDTH 602 0
DWIDTH 20 0
BBX 18 16 1 1
BITMAP
010100
038380
07C7C0
0F8F80
1F0F00
3F1F00
7E3E00
7CFE00
FC7C00
7E7E00
3E3F00
1F1F00
0F8F80
0787C0
03C380
010100
ENDCHAR
STARTCHAR logicalnot
ENCODING 172
SWIDTH 602 0
DWIDTH 20 0
BBX 18 8 1 3
BITMAP
FFFFC0
FFFFC0
FFFFC0
FFFFC0
0003C0
0003C0
0003C0
0003C0
ENDCHAR
STARTCHAR hyphen
ENCODING 173
SWIDTH 602 0
DWIDTH 20 0
BBX 14 3 3 10
BITMAP
FFFC
FFFC
FFFC
ENDCHAR
STARTCHAR registered
ENCODING 174
SWIDTH 602 0
DWIDTH 20 0
BBX 17 18 2 7
BITMAP
03E000
0FF800
1FFC00
3C1E00
780F00
77F700
E7FF80
E73B80
E7FB80
E7F380
E76380
E76780
776700
7F7F00
3C1E00
1FFC00
0FF800
03E000
ENDCHAR
STARTCHAR macron
ENCODING 175
SWIDTH 602 0
DWIDTH 20 0
BBX 10 3 5 22
BITMAP
FFC0
FFC0
FFC0
ENDCHAR
STARTCHAR degree
ENCODING 176
SWIDTH 602 0
DWIDTH 20 0
BBX 6 6 7 19
BITMAP
78
FC
CC
CC
FC
78
ENDCHAR
STARTCHAR plusminus
ENCODING 177
SWIDTH 602 0
DWIDTH 20 0
BBX 18 18 1 0
BITMAP
01E000
01E000
01E000
01E000
FFFFC0
FFFFC0
FFFFC0
FFFFC0
01E000
01E000
01E000
01E000
000000
000000
FFFFC0
FFFFC0
FFFFC0
FFFFC0
ENDCHAR
STARTCHAR twosuperior
ENCODING 178
SWIDTH 602 0
DWIDTH 20 0
BBX 7 12 -4 13
BITMAP
78
FE
8E
06
06
0E
1C
38
70
E0
FE
FE
ENDCHAR
STARTCHAR threesuperior
ENCODING 179
SWIDTH 602 0
DWIDTH 20 0
BBX 6 12 -5 13
BITMAP
78
FC
8C
0C
1C
70
78
1C
0C
8C
F8
F0
ENDCHAR
STARTCHAR acute
ENCODING 180
SWIDTH 602 0
DWIDTH 20 0
BBX 8 5 6 21
BITMAP
1F
3E
3C
78
F0
ENDCHAR
STARTCHAR mu
ENCODING 181
SWIDTH 602 0
DWIDTH 20 0
BBX 16 24 2 -6
BITMAP
F81F
F81F
F81F
F81F
F81F
F81F
F81F
F81F
F81F
F81F
F81F
F83F
FC7F
FFFF
FFFF
FFFF
FFDF
FF9F
F800
F800
F800
F800
F800
F800
ENDCHAR
STARTCHAR paragraph
ENCODING 182
SWIDTH 602 0
DWIDTH 20 0
BBX 14 31 2 -6
BITMAP
1FFC
7FFC
7FFC
FF9C
FF9C
FF9C
FF9C
FF9C
FF9C
7F9C
3F9C
1F9C
079C
039C
039C
039C
039C
039C
039C
039C
039C
039C
039C
039C
039C
039C
039C
039C
039C
039C
039C
ENDCHAR
STARTCHAR periodcentered
ENCODING 183
SWIDTH 602 0
DWIDTH 20 0
BBX 5 5 8 6
BITMAP
F8
F8
F8
F8
F8
ENDCHAR
STARTCHAR cedilla
ENCODING 184
SWIDTH 602 0
DWIDTH 20 0
BBX 7 8 8 -7
BITMAP
38
30
70
7C
1E
8E
FE
FC
ENDCHAR
STARTCHAR onesuperior
ENCODING 185
SWIDTH 602 0
DWIDTH 20 0
BBX 6 12 -5 13
BITMAP
F0
F0
30
30
30
30
30
30
30
30
FC
FC
ENDCHAR
STARTCHAR ordmasculine
ENCODING 186
SWIDTH 602 0
DWIDTH 20 0
BBX 15 14 3 11
BITMAP
0FE0
3FF8
7FFC
7C7C
F83E
F01E
F01E
F01E
F01E
F83E
7C7C
7FFC
3FF8
0FE0
ENDCHAR
STARTCHAR guillemotright
ENCODING 187
SWIDTH 602 0
DWIDTH 20 0
BBX 18 16 1 1
BITMAP
202000
70F000
F87800
7C7C00
3E3E00
3F1F00
1F9F80
0F8FC0
1FCF80
1F1F80
3E3F00
3C3E00
7C7C00
F8F800
707000
202000
ENDCHAR
STARTCHAR onequarter
ENCODING 188
SWIDTH 602 0
DWIDTH 20 0
BBX 20 25 2 0
BITMAP
F000F0
F000E0
3001C0
3003C0
300380
300700
300F00
300E00
301C00
303C00
FC3800
FC7000
00F000
00E1C0
01C1C0
03C3C0
0387C0
0706C0
0F0CC0
0E18C0
1C1FF0
3C1FF0
3800C0
7000C0
F000C0
ENDCHAR
STARTCHAR onehalf
ENCODING 189
SWIDTH 602 0
DWIDTH 20 0
BBX 20 25 2 0
BITMAP
F000F0
F000E0
3001C0
3003C0
300380
300700
300F00
300E00
301C00
303C00
FC3800
FC7000
00F000
00E3C0
01C7F0
03C470
038030
070030
0F0070
0E00E0
1C01C0
3C0380
380700
7007F0
F007F0
ENDCHAR
STARTCHAR threequarters
ENCODING 190
SWIDTH 602 0
DWIDTH 20 0
BBX 20 25 2 0
BITMAP
7800F0
FC00E0
8C01C0
0C03C0
1C0380
700700
780F00
1C0E00
0C1C00
8C3C00
F83800
F07000
00F000
00E1C0
01C1C0
03C3C0
0387C0
0706C0
0F0CC0
0E18C0
1C1FF0
3C1FF0
3800C0
7000C0
F000C0
ENDCHAR
STARTCHAR questiondown
ENCODING 191
SWIDTH 602 0
DWIDTH 20 0
BBX 17 25 1 -7
BITMAP
007C00
007C00
007C00
007C00
007C00
000000
000000
007C00
007C00
007C00
007800
00F000
03E000
07C000
1F8000
3E0000
7C0000
FC0000
F80380
F80380
F80380
FE0780
7FFF80
3FFF80
07FC00
ENDCHAR
STARTCHAR Agrave
ENCODING 192
SWIDTH 602 0
DWIDTH 20 0
BBX 20 31 0 0
BITMAP
03E000
01F000
00F000
007800
003C00
000000
00F800
00F800
01FC00
01FC00
01FC00
03FE00
03BE00
03BE00
07BE00
073F00
071F00
071F00
0E1F80
0E0F80
0E0F80
1C0F80
1FFFC0
1FFFC0
3FFFC0
3807C0
3803E0
7003E0
7003E0
7003F0
E001F0
ENDCHAR
STARTCHAR Aacute
ENCODING 193
SWIDTH 602 0
DWIDTH 20 0
BBX 20 31 0 0
BITMAP
007C00
00F800
00F000
01E000
03C000
000000
00F800
00F800
01FC00
01FC00
01FC00
03FE00
03BE00
03BE00
07BE00
073F00
071F00
071F00
0E1F80
0E0F80
0E0F80
1C0F80
1FFFC0
1FFFC0
3FFFC0
3807C0
3803E0
7003E0
7003E0
7003F0
E001F0
ENDCHAR
STARTCHAR Acircumflex
ENCODING 194
SWIDTH 602 0
DWIDTH 20 0
BBX 20 31 0 0
BITMAP
00F000
01F800
03FC00
039C00
079E00
000000
00F800
00F800
01FC00
01FC00
01FC00
03FE00
03BE00
03BE00
07BE00
073F00
071F00
071F00
0E1F80
0E0F80
0E0F80
1C0F80
1FFFC0
1FFFC0
3FFFC0
3807C0
3803E0
7003E0
7003E0
7003F0
E001F0
ENDCHAR
STARTCHAR Atilde
ENCODING 195
SWIDTH 602 0
DWIDTH 20 0
BBX 20 31 0 0
BITMAP
03C600
03FE00
07FE00
07FC00
063C00
000000
00F800
00F800
01FC00
01FC00
01FC00
03FE00
03BE00
03BE00
07BE00
073F00
071F00
071F00
0E1F80
0E0F80
0E0F80
1C0F80
1FFFC0
1FFFC0
3FFFC0
3807C0
3803E0
7003E0
7003E0
7003F0
E001F0
ENDCHAR
STARTCHAR Adieresis
ENCODING 196
SWIDTH 602 0
DWIDTH 20 0
BBX 20 30 0 0
BITMAP
079E00
079E00
079E00
079E00
000000
00F800
00F800
01FC00
01FC00
01FC00
03FE00
03BE00
03BE00
07BE00
073F00
071F00
071F00
0E1F80
0E0F80
0E0F80
1C0F80
1FFFC0
1FFFC0
3FFFC0
3807C0
3803E0
7003E0
7003E0
7003F0
E001F0
ENDCHAR
STARTCHAR Aring
ENCODING 197
SWIDTH 602 0
DWIDTH 20 0
BBX 20 31 0 0
BITMAP
007000
00D800
008800
00D800
007000
000000
00F800
00F800
01FC00
01FC00
01FC00
03FE00
03BE00
03BE00
07BE00
073F00
071F00
071F00
0E1F80
0E0F80
0E0F80
1C0F80
1FFFC0
1FFFC0
3FFFC0
3807C0
3803E0
7003E0
7003E0
7003F0
E001F0
ENDCHAR
STARTCHAR AE
ENCODING 198
SWIDTH 602 0
DWIDTH 20 0
BBX 20 25 0 0
BITMAP
007FF0
007FF0
007FF0
00FE00
00FE00
00FE00
01FE00
01FE00
03BE00
03BE00
03BFE0
073FE0
073FE0
0F3E00
0E3E00
0E3E00
1E3E00
1C3E00
1FFE00
3FFE00
3FFE00
703E00
703FF0
603FF0
E03FF0
ENDCHAR
STARTCHAR Ccedilla
ENCODING 199
SWIDTH 602 0
DWIDTH 20 0
BBX 19 32 1 -7
BITMAP
00FFC0
03FFE0
0FFFE0
1FC060
3F0000
3E0000
7C0000
7C0000
F80000
F80000
F80000
F80000
F80000
F80000
F80000
F80000
FC0000
7C0000
7E0000
3F0020
3FC0E0
1FFFE0
0FFFE0
03FFE0
00FF00
006000
00E000
00F800
003C00
011C00
01FC00
01F800
ENDCHAR
STARTCHAR Egrave
ENCODING 200
SWIDTH 602 0
DWIDTH 20 0
BBX 16 31 3 0
BITMAP
1F00
0F80
0780
03C0
01E0
0000
FFFE
FFFE
FFFE
F800
F800
F800
F800
F800
F800
F800
FFFC
FFFC
FFFC
F800
F800
F800
F800
F800
F800
F800
F800
F800
FFFF
FFFF
FFFF
ENDCHAR
STARTCHAR Eacute
ENCODING 201
SWIDTH 602 0
DWIDTH 20 0
BBX 16 31 3 0
BITMAP
03E0
07C0
0780
0F00
1E00
0000
FFFE
FFFE
FFFE
F800
F800
F800
F800
F800
F800
F800
FFFC
FFFC
FFFC
F800
F800
F800
F800
F800
F800
F800
F800
F800
FFFF
FFFF
FFFF
ENDCHAR
STARTCHAR Ecircumflex
ENCODING 202
SWIDTH 602 0
DWIDTH 20 0
BBX 16 31 3 0
BITMAP
03C0
07E0
0FF0
0E70
1E78
0000
FFFE
FFFE
FFFE
F800
F800
F800
F800
F800
F800
F800
FFFC
FFFC
FFFC
F800
F800
F800
F800
F800
F800
F800
F800
F800
FFFF
FFFF
FFFF
ENDCHAR
STARTCHAR Edieresis
ENCODING 203
SWIDTH 602 0
DWIDTH 20 0
BBX 16 30 3 0
BITMAP
3CF0
3CF0
3CF0
3CF0
0000
FFFE
FFFE
FFFE
F800
F800
F800
F800
F800
F800
F800
FFFC
FFFC
FFFC
F800
F800
F800
F800
F800
F800
F800
F800
F800
FFFF
FFFF
FFFF
ENDCHAR
STARTCHAR Igrave
ENCODING 204
SWIDTH 602 0
DWIDTH 20 0
BBX 17 31 2 0
BITMAP
07C000
03E000
01E000
00F000
007800
000000
FFFF80
FFFF80
FFFF80
03E000
03E000
03E000
03E000
03E000
03E000
03E000
03E000
03E000
03E000
03E000
03E000
03E000
03E000
03E000
03E000
03E000
03E000
03E000
FFFF80
FFFF80
FFFF80
ENDCHAR
STARTCHAR Iacute
ENCODING 205
SWIDTH 602 0
DWIDTH 20 0
BBX 17 31 2 0
BITMAP
01F000
03E000
03C000
078000
0F0000
000000
FFFF80
FFFF80
FFFF80
03E000
03E000
03E000
03E000
03E000
03E000
03E000
03E000
03E000
03E000
03E000
03E000
03E000
03E000
03E000
03E000
03E000
03E000
03E000
FFFF80
FFFF80
FFFF80
ENDCHAR
STARTCHAR Icircumflex
ENCODING 206
SWIDTH 602 0
DWIDTH 20 0
BBX 17 31 2 0
BITMAP
03C000
07E000
0FF000
0E7000
1E7800
000000
FFFF80
FFFF80
FFFF80
03E000
03E000
03E000
03E000
03E000
03E000
03E000
03E000
03E000
03E000
03E000
03E000
03E000
03E000
03E000
03E000
03E000
03E000
03E000
FFFF80
FFFF80
FFFF80
ENDCHAR
STARTCHAR Idieresis
ENCODING 207
SWIDTH 602 0
DWIDTH 20 0
BBX 17 30 2 0
BITMAP
1E7800
1E7800
1E7800
1E7800
000000
FFFF80
FFFF80
FFFF80
03E000
03E000
03E000
03E000
03E000
03E000
03E000
03E000
03E000
03E000
03E000
03E000
03E000
03E000
03E000
03E000
03E000
03E000
03E000
FFFF80
FFFF80
FFFF80
ENDCHAR
STARTCHAR Eth
ENCODING 208
SWIDTH 602 0
DWIDTH 20 0
BBX 19 25 0 0
BITMAP
7FF800
7FFE00
7FFF00
7C3F80
7C0FC0
7C07C0
7C07C0
7C07E0
7C03E0
7C03E0
FFC3E0
FFC3E0
FFC3E0
7C03E0
7C03E0
7C03E0
7C03E0
7C07C0
7C07C0
7C07C0
7C0F80
7C3F00
7FFF00
7FFC00
7FF000
ENDCHAR
STARTCHAR Ntilde
ENCODING 209
SWIDTH 602 0
DWIDTH 20 0
BBX 17 31 2 0
BITMAP
078C00
07FC00
0FFC00
0FF800
0C7800
000000
F80780
FC0780
FC0780
FE0780
FE0780
FF0780
FF0780
FF8780
FF8780
FFC780
F7C780
F7E780
F3E780
F3F780
F1F780
F1FF80
F0FF80
F0FF80
F07F80
F07F80
F03F80
F03F80
F01F80
F01F80
F00F80
ENDCHAR
STARTCHAR Ograve
ENCODING 210
SWIDTH 602 0
DWIDTH 20 0
BBX 20 31 0 0
BITMAP
03E000
01F000
00F000
007800
003C00
000000
01F800
0FFF00
1FFF80
3F0FC0
3E07C0
7C03E0
7C03E0
7801E0
F801F0
F801F0
F801F0
F801F0
F801F0
F801F0
F801F0
F801F0
F801F0
7801E0
7C03E0
7C03E0
3E07C0
3F0FC0
1FFF80
07FE00
01F800
ENDCHAR
STARTCHAR Oacute
ENCODING 211
SWIDTH 602 0
DWIDTH 20 0
BBX 20 31 0 0
BITMAP
007C00
00F800
00F000
01E000
03C000
000000
01F800
0FFF00
1FFF80
3F0FC0
3E07C0
7C03E0
7C03E0
7801E0
F801F0
F801F0
F801F0
F801F0
F801F0
F801F0
F801F0
F801F0
F801F0
7801E0
7C03E0
7C03E0
3E07C0
3F0FC0
1FFF80
07FE00
01F800
ENDCHAR
STARTCHAR Ocircumflex
ENCODING 212
SWIDTH 602 0
DWIDTH 20 0
BBX 20 31 0 0
BITMAP
00F000
01F800
03FC00
039C00
079E00
000000
01F800
0FFF00
1FFF80
3F0FC0
3E07C0
7C03E0
7C03E0
7801E0
F801F0
F801F0
F801F0
F801F0
F801F0
F801F0
F801F0
F801F0
F801F0
7801E0
7C03E0
7C03E0
3E07C0
3F0FC0
1FFF80
07FE00
01F800
ENDCHAR
STARTCHAR Otilde
ENCODING 213
SWIDTH 602 0
DWIDTH 20 0
BBX 20 31 0 0
BITMAP
03C600
03FE00
07FE00
07FC00
063C00
000000
01F800
0FFF00
1FFF80
3F0FC0
3E07C0
7C03E0
7C03E0
7801E0
F801F0
F801F0
F801F0
F801F0
F801F0
F801F0
F801F0
F801F0
F801F0
7801E0
7C03E0
7C03E0
3E07C0
3F0FC0
1FFF80
07FE00
01F800
ENDCHAR
STARTCHAR Odieresis
ENCODING 214
SWIDTH 602 0
DWIDTH 20 0
BBX 20 30 0 0
BITMAP
079E00
079E00
079E00
079E00
000000
01F800
0FFF00
1FFF80
3F0FC0
3E07C0
7C03E0
7C03E0
7801E0
F801F0
F801F0
F801F0
F801F0
F801F0
F801F0
F801F0
F801F0
F801F0
7801E0
7C03E0
7C03E0
3E07C0
3F0FC0
1FFF80
07FE00
01F800
ENDCHAR
STARTCHAR multiply
ENCODING 215
SWIDTH 602 0
DWIDTH 20 0
BBX 18 18 1 0
BITMAP
200100
700380
F807C0
7C0F80
3E1F00
1F3E00
0FFC00
07F800
03F000
03F000
07F800
0FFC00
1F3E00
3E1F00
7C0F80
F807C0
700380
200100
ENDCHAR
STARTCHAR Oslash
ENCODING 216
SWIDTH 602 0
DWIDTH 20 0
BBX 20 25 0 0
BITMAP
01FCF0
0FFFE0
1FFFC0
3F0FC0
3E07C0
7C07E0
7C0FE0
780FE0
F81FF0
F83DF0
F839F0
F871F0
F8F1F0
F9E1F0
F9C1F0
FBC1F0
FF81F0
7F01E0
7F03E0
7E03E0
3E07C0
3F0FC0
3FFF80
7FFE00
F3F800
ENDCHAR
STARTCHAR Ugrave
ENCODING 217
SWIDTH 602 0
DWIDTH 20 0
BBX 17 31 2 0
BITMAP
07C000
03E000
01E000
00F000
007800
000000
F80F80
F80F80
F80F80
F80F80
F80F80
F80F80
F80F80
F80F80
F80F80
F80F80
F80F80
F80F80
F80F80
F80F80
F80F80
F80F80
F80F80
F80F80
F80F80
F80F80
7C1F00
7E3F00
3FFE00
1FFC00
07F800
ENDCHAR
STARTCHAR Uacute
ENCODING 218
SWIDTH 602 0
DWIDTH 20 0
BBX 17 31 2 0
BITMAP
01F000
03E000
03C000
078000
0F0000
000000
F80F80
F80F80
F80F80
F80F80
F80F80
F80F80
F80F80
F80F80
F80F80
F80F80
F80F80
F80F80
F80F80
F80F80
F80F80
F80F80
F80F80
F80F80
F80F80
F80F80
7C1F00
7E3F00
3FFE00
1FFC00
07F800
ENDCHAR
STARTCHAR Ucircumflex
ENCODING 219
SWIDTH 602 0
DWIDTH 20 0
BBX 17 31 2 0
BITMAP
03C000
07E000
0FF000
0E7000
1E7800
000000
F80F80
F80F80
F80F80
F80F80
F80F80
F80F80
F80F80
F80F80
F80F80
F80F80
F80F80
F80F80
F80F80
F80F80
F80F80
F80F80
F80F80
F80F80
F80F80
F80F80
7C1F00
7E3F00
3FFE00
1FFC00
07F800
ENDCHAR
STARTCHAR Udieresis
ENCODING 220
SWIDTH 602 0
DWIDTH 20 0
BBX 17 30 2 0
BITMAP
1E7800
1E7800
1E7800
1E7800
000000
F80F80
F80F80
F80F80
F80F80
F80F80
F80F80
F80F80
F80F80
F80F80
F80F80
F80F80
F80F80
F80F80
F80F80
F80F80
F80F80
F80F80
F80F80
F80F80
F80F80
7C1F00
7E3F00
3FFE00
1FFC00
07F800
ENDCHAR
STARTCHAR Yacute
ENCODING 221
SWIDTH 602 0
DWIDTH 20 0
BBX 21 31 0 0
BITMAP
007C00
00F800
00F000
01E000
03C000
000000
FC0078
7E00F0
7E00E0
3F01E0
3F01C0
1F83C0
0F8380
0FC780
07C700
07EE00
03EE00
03FC00
01FC00
01F800
00F800
00F800
00F800
00F800
00F800
00F800
00F800
00F800
00F800
00F800
00F800
ENDCHAR
STARTCHAR Thorn
ENCODING 222
SWIDTH 602 0
DWIDTH 20 0
BBX 17 25 2 0
BITMAP
F80000
F80000
F80000
F80000
F80000
FFF800
FFFE00
FFFF00
F83F80
F80F80
F80F80
F80F80
F80F80
F80F80
F81F00
F83F00
FFFE00
FFFC00
FFF000
F80000
F80000
F80000
F80000
F80000
F80000
ENDCHAR
STARTCHAR germandbls
ENCODING 223
SWIDTH 602 0
DWIDTH 20 0
BBX 18 26 2 0
BITMAP
0FF000
3FFC00
7FFE00
7C7E00
783E00
F83E00
F83C00
F87C00
F87800
F8F000
F8F000
F9F000
F9F800
F9FC00
F8FE00
F87F00
F83F80
F81F80
F80FC0
F807C0
F807C0
F807C0
F90FC0
F9FF80
F9FF00
F9FC00
ENDCHAR
STARTCHAR agrave
ENCODING 224
SWIDTH 602 0
DWIDTH 20 0
BBX 18 24 1 0
BITMAP
07C000
03E000
01E000
00F000
007800
000000
0FF000
3FFC00
3FFE00
307F00
201F00
001F00
001F00
0FFF00
3FFF00
7FFF00
FC1F00
F81F00
F81F00
FC7F00
FFFFC0
7FFFC0
3FCFC0
1F87C0
ENDCHAR
STARTCHAR aacute
ENCODING 225
SWIDTH 602 0
DWIDTH 20 0
BBX 18 24 1 0
BITMAP
00F800
01F000
01E000
03C000
078000
000000
0FF000
3FFC00
3FFE00
307F00
201F00
001F00
001F00
0FFF00
3FFF00
7FFF00
FC1F00
F81F00
F81F00
FC7F00
FFFFC0
7FFFC0
3FCFC0
1F87C0
ENDCHAR
STARTCHAR acircumflex
ENCODING 226
SWIDTH 602 0
DWIDTH 20 0
BBX 18 24 1 0
BITMAP
01E000
03F000
07F800
073800
0F3C00
000000
0FF000
3FFC00
3FFE00
307F00
201F00
001F00
001F00
0FFF00
3FFF00
7FFF00
FC1F00
F81F00
F81F00
FC7F00
FFFFC0
7FFFC0
3FCFC0
1F87C0
ENDCHAR
STARTCHAR atilde
ENCODING 227
SWIDTH 602 0
DWIDTH 20 0
BBX 18 24 1 0
BITMAP
078C00
07FC00
0FFC00
0FF800
0C7800
000000
0FF000
3FFC00
3FFE00
307F00
201F00
001F00
001F00
0FFF00
3FFF00
7FFF00
FC1F00
F81F00
F81F00
FC7F00
FFFFC0
7FFFC0
3FCFC0
1F87C0
ENDCHAR
STARTCHAR adieresis
ENCODING 228
SWIDTH 602 0
DWIDTH 20 0
BBX 18 23 1 0
BITMAP
0F3C00
0F3C00
0F3C00
0F3C00
000000
0FF000
3FFC00
3FFE00
307F00
201F00
001F00
001F00
0FFF00
3FFF00
7FFF00
FC1F00
F81F00
F81F00
FC7F00
FFFFC0
7FFFC0
3FCFC0
1F87C0
ENDCHAR
STARTCHAR aring
ENCODING 229
SWIDTH 602 0
DWIDTH 20 0
BBX 18 24 1 0
BITMAP
01C000
036000
022000
036000
01C000
000000
0FF000
3FFC00
3FFE00
307F00
201F00
001F00
001F00
0FFF00
3FFF00
7FFF00
FC1F00
F81F00
F81F00
FC7F00
FFFFC0
7FFFC0
3FCFC0
1F87C0
ENDCHAR
STARTCHAR ae
ENCODING 230
SWIDTH 602 0
DWIDTH 20 0
BBX 19 18 1 0
BITMAP
1F8F00
3FFF80
3FFFC0
20F3C0
00F3C0
00F3E0
00F3E0
0FFFE0
3FFFE0
7FFFE0
FCF000
F8F000
F8F000
F9F820
FFFFE0
7FFFE0
7F3FE0
1E1F80
ENDCHAR
STARTCHAR ccedilla
ENCODING 231
SWIDTH 602 0
DWIDTH 20 0
BBX 17 25 2 -7
BITMAP
03FF80
0FFF80
1FFF80
3F0180
7C0000
7C0000
F80000
F80000
F80000
F80000
F80000
FC0000
7E0000
7F8180
3FFF80
1FFF80
0FFF80
03FE00
00C000
01C000
01F000
007800
023800
03F800
03F000
ENDCHAR
STARTCHAR egrave
ENCODING 232
SWIDTH 602 0
DWIDTH 20 0
BBX 18 24 1 0
BITMAP
07C000
03E000
01E000
00F000
007800
000000
03F800
0FFE00
1FFF00
3E0F80
7C0780
7C07C0
F807C0
FFFFC0
FFFFC0
FFFFC0
F80000
F80000
7C0000
7F00C0
3FFFC0
1FFFC0
0FFFC0
03FE00
ENDCHAR
STARTCHAR eacute
ENCODING 233
SWIDTH 602 0
DWIDTH 20 0
BBX 18 24 1 0
BITMAP
00F800
01F000
01E000
03C000
078000
000000
03F800
0FFE00
1FFF00
3E0F80
7C0780
7C07C0
F807C0
FFFFC0
FFFFC0
FFFFC0
F80000
F80000
7C0000
7F00C0
3FFFC0
1FFFC0
0FFFC0
03FE00
ENDCHAR
STARTCHAR ecircumflex
ENCODING 234
SWIDTH 602 0
DWIDTH 20 0
BBX 18 24 1 0
BITMAP
01E000
03F000
07F800
073800
0F3C00
000000
03F800
0FFE00
1FFF00
3E0F80
7C0780
7C07C0
F807C0
FFFFC0
FFFFC0
FFFFC0
F80000
F80000
7C0000
7F00C0
3FFFC0
1FFFC0
0FFFC0
03FE00
ENDCHAR
STARTCHAR edieresis
ENCODING 235
SWIDTH 602 0
DWIDTH 20 0
BBX 18 23 1 0
BITMAP
0F3C00
0F3C00
0F3C00
0F3C00
000000
03F800
0FFE00
1FFF00
3E0F80
7C0780
7C07C0
F807C0
FFFFC0
FFFFC0
FFFFC0
F80000
F80000
7C0000
7F00C0
3FFFC0
1FFFC0
0FFFC0
03FE00
ENDCHAR
STARTCHAR igrave
ENCODING 236
SWIDTH 602 0
DWIDTH 20 0
BBX 12 24 3 0
BITMAP
1F00
0F80
0780
03C0
01E0
0000
FFF0
FFF0
FFF0
01F0
01F0
01F0
01F0
01F0
01F0
01F0
01F0
01F0
01F0
01F0
01F0
01F0
01F0
01F0
ENDCHAR
STARTCHAR iacute
ENCODING 237
SWIDTH 602 0
DWIDTH 20 0
BBX 12 24 3 0
BITMAP
03E0
07C0
0780
0F00
1E00
0000
FFF0
FFF0
FFF0
01F0
01F0
01F0
01F0
01F0
01F0
01F0
01F0
01F0
01F0
01F0
01F0
01F0
01F0
01F0
ENDCHAR
STARTCHAR icircumflex
ENCODING 238
SWIDTH 602 0
DWIDTH 20 0
BBX 12 24 3 0
BITMAP
0780
0FC0
1FE0
1CE0
3CF0
0000
FFF0
FFF0
FFF0
01F0
01F0
01F0
01F0
01F0
01F0
01F0
01F0
01F0
01F0
01F0
01F0
01F0
01F0
01F0
ENDCHAR
STARTCHAR idieresis
ENCODING 239
SWIDTH 602 0
DWIDTH 20 0
BBX 12 23 3 0
BITMAP
3CF0
3CF0
3CF0
3CF0
0000
FFF0
FFF0
FFF0
01F0
01F0
01F0
01F0
01F0
01F0
01F0
01F0
01F0
01F0
01F0
01F0
01F0
01F0
01F0
ENDCHAR
STARTCHAR eth
ENCODING 240
SWIDTH 602 0
DWIDTH 20 0
BBX 19 26 1 0
BITMAP
FF0E00
FFFE00
FFFF00
07FC00
0FFC00
0FFE00
063F00
041F00
03FF80
0FFFC0
1FFFC0
3E0FC0
7C07E0
7C07E0
F803E0
F803E0
F803E0
F803E0
F803E0
F803C0
7C07C0
7C07C0
3E1F80
1FFF00
0FFE00
03F800
ENDCHAR
STARTCHAR ntilde
ENCODING 241
SWIDTH 602 0
DWIDTH 20 0
BBX 16 24 2 0
BITMAP
0F18
0FF8
1FF8
1FF0
18F0
0000
F8F8
F9FC
FBFE
FFFF
FFFF
FE1F
FC1F
F81F
F81F
F81F
F81F
F81F
F81F
F81F
F81F
F81F
F81F
F81F
ENDCHAR
STARTCHAR ograve
ENCODING 242
SWIDTH 602 0
DWIDTH 20 0
BBX 19 24 1 0
BITMAP
03E000
01F000
00F000
007800
003C00
000000
03F800
0FFE00
1FFF00
3E0F80
7C07C0
7C07C0
F803E0
F803E0
F803E0
F803E0
F803E0
F803E0
7C07C0
7C07C0
3E0F80
1FFF00
0FFE00
03F800
ENDCHAR
STARTCHAR oacute
ENCODING 243
SWIDTH 602 0
DWIDTH 20 0
BBX 19 24 1 0
BITMAP
00F800
01F000
01E000
03C000
078000
000000
03F800
0FFE00
1FFF00
3E0F80
7C07C0
7C07C0
F803E0
F803E0
F803E0
F803E0
F803E0
F803E0
7C07C0
7C07C0
3E0F80
1FFF00
0FFE00
03F800
ENDCHAR
STARTCHAR ocircumflex
ENCODING 244
SWIDTH 602 0
DWIDTH 20 0
BBX 19 24 1 0
BITMAP
01E000
03F000
07F800
073800
0F3C00
000000
03F800
0FFE00
1FFF00
3E0F80
7C07C0
7C07C0
F803E0
F803E0
F803E0
F803E0
F803E0
F803E0
7C07C0
7C07C0
3E0F80
1FFF00
0FFE00
03F800
ENDCHAR
STARTCHAR otilde
ENCODING 245
SWIDTH 602 0
DWIDTH 20 0
BBX 19 24 1 0
BITMAP
03C600
03FE00
07FE00
07FC00
063C00
000000
03F800
0FFE00
1FFF00
3E0F80
7C07C0
7C07C0
F803E0
F803E0
F803E0
F803E0
F803E0
F803E0
7C07C0
7C07C0
3E0F80
1FFF00
0FFE00
03F800
ENDCHAR
STARTCHAR odieresis
ENCODING 246
SWIDTH 602 0
DWIDTH 20 0
BBX 19 23 1 0
BITMAP
0F3C00
0F3C00
0F3C00
0F3C00
000000
03F800
0FFE00
1FFF00
3E0F80
7C07C0
7C07C0
F803E0
F803E0
F803E0
F803E0
F803E0
F803E0
7C07C0
7C07C0
3E0F80
1FFF00
0FFE00
03F800
ENDCHAR
STARTCHAR divide
ENCODING 247
SWIDTH 602 0
DWIDTH 20 0
BBX 17 18 2 0
BITMAP
03E000
03E000
03E000
03E000
03E000
000000
000000
FFFF80
FFFF80
FFFF80
FFFF80
000000
000000
03E000
03E000
03E000
03E000
03E000
ENDCHAR
STARTCHAR oslash
ENCODING 248
SWIDTH 602 0
DWIDTH 20 0
BBX 19 18 1 0
BITMAP
03FFE0
0FFFC0
1FFF80
3F0F80
7C1FC0
7C1FC0
F83FE0
F87BE0
F8F3E0
F9E3E0
FBC3E0
FF83E0
7F07C0
7E07C0
3E1F80
3FFF00
7FFE00
FFF800
ENDCHAR
STARTCHAR ugrave
ENCODING 249
SWIDTH 602 0
DWIDTH 20 0
BBX 16 24 2 0
BITMAP
0F80
07C0
03C0
01E0
00F0
0000
F81F
F81F
F81F
F81F
F81F
F81F
F81F
F81F
F81F
F81F
F81F
F83F
F87F
FFFF
FFFF
7FDF
7F9F
1F1F
ENDCHAR
STARTCHAR uacute
ENCODING 250
SWIDTH 602 0
DWIDTH 20 0
BBX 16 24 2 0
BITMAP
01F0
03E0
03C0
0780
0F00
0000
F81F
F81F
F81F
F81F
F81F
F81F
F81F
F81F
F81F
F81F
F81F
F83F
F87F
FFFF
FFFF
7FDF
7F9F
1F1F
ENDCHAR
STARTCHAR ucircumflex
ENCODING 251
SWIDTH 602 0
DWIDTH 20 0
BBX 16 24 2 0
BITMAP
03C0
07E0
0FF0
0E70
1E78
0000
F81F
F81F
F81F
F81F
F81F
F81F
F81F
F81F
F81F
F81F
F81F
F83F
F87F
FFFF
FFFF
7FDF
7F9F
1F1F
ENDCHAR
STARTCHAR udieresis
ENCODING 252
SWIDTH 602 0
DWIDTH 20 0
BBX 16 23 2 0
BITMAP
1E78
1E78
1E78
1E78
0000
F81F
F81F
F81F
F81F
F81F
F81F
F81F
F81F
F81F
F81F
F81F
F83F
F87F
FFFF
FFFF
7FDF
7F9F
1F1F
ENDCHAR
STARTCHAR yacute
ENCODING 253
SWIDTH 602 0
DWIDTH 20 0
BBX 19 31 1 -7
BITMAP
00F800
01F000
01E000
03C000
078000
000000
FC01E0
7C01C0
7C03C0
7E0380
3E0380
3F0700
1F0700
1F8F00
0F8E00
0FDE00
07DC00
07DC00
07F800
03F800
03F800
01F000
01F000
01E000
01E000
03C000
03C000
078000
7F8000
7F0000
7C0000
ENDCHAR
STARTCHAR thorn
ENCODING 254
SWIDTH 602 0
DWIDTH 20 0
BBX 17 31 2 -7
BITMAP
F80000
F80000
F80000
F80000
F80000
F80000
F8F800
F9FC00
FBFE00
FFFF00
FFFF00
FE1F80
FC1F80
F80F80
F80F80
F80F80
F80F80
F80F80
F81F00
FC3F00
FFFF00
FFFE00
FBFC00
F9F000
F80000
F80000
F80000
F80000
F80000
F80000
F80000
ENDCHAR
STARTCHAR ydieresis
ENCODING 255
SWIDTH 602 0
DWIDTH 20 0
BBX 19 30 1 -7
BITMAP
0F3C00
0F3C00
0F3C00
0F3C00
000000
FC01E0
7C01C0
7C03C0
7E0380
3E0380
3F0700
1F0700
1F8F00
0F8E00
0FDE00
07DC00
07DC00
07F800
03F800
03F800
01F000
01F000
01E000
01E000
03C000
03C000
078000
7F8000
7F0000
7C0000
ENDCHAR
ENDFONT
