STARTFONT 2.1
COMMENT AUTOMATICALLY GENERATED FILE. DO NOT EDIT!
COMMENT Generated with 'ucs2any.pl lutRS24.bdf ../../../fonts/util/map-ISO8859-1 ISO8859-1'
COMMENT from an ISO10646-1 encoded source BDF font.
COMMENT ucs2any.pl by Markus Kuhn <mkuhn@acm.org>, 2000.
COMMENT $Xorg: $
COMMENT ISO10646-1 extension by Markus Kuhn <mkuhn@acm.org>, 2001-03-20
FONT -B&H-LucidaTypewriter-Medium-R-Normal-Sans-34-240-100-100-M-200-ISO8859-1
SIZE 24 100 100
FONTBOUNDINGBOX 27 38 -3 -7
STARTPROPERTIES 22
FONTNAME_REGISTRY ""
FOUNDRY "B&H"
FAMILY_NAME "LucidaTypewriter"
WEIGHT_NAME "Medium"
SLANT "R"
SETWIDTH_NAME "Normal"
ADD_STYLE_NAME "Sans"
PIXEL_SIZE 34
POINT_SIZE 240
RESOLUTION_X 100
RESOLUTION_Y 100
SPACING "M"
AVERAGE_WIDTH 200
CHARSET_REGISTRY "ISO8859"
CHARSET_ENCODING "1"
FONT_ASCENT 31
FONT_DESCENT 7
DEFAULT_CHAR 0
COPYRIGHT "Copyright Bigelow & Holmes 1986, 1985."
FACE_NAME "Lucida Sans Typewriter"
X_HEIGHT 18
CAP_HEIGHT 25
ENDPROPERTIES
CHARS 192
STARTCHAR defaultchar
ENCODING 0
SWIDTH 602 0
DWIDTH 20 0
BBX 15 25 2 0
BITMAP
AAAA
0000
8002
0000
8002
0000
8002
0000
8002
0000
8002
0000
8002
0000
8002
0000
8002
0000
8002
0000
8002
0000
8002
0000
AAAA
ENDCHAR
STARTCHAR space
ENCODING 32
SWIDTH 602 0
DWIDTH 20 0
BBX 1 1 0 0
BITMAP
00
ENDCHAR
STARTCHAR exclam
ENCODING 33
SWIDTH 602 0
DWIDTH 20 0
BBX 4 25 8 0
BITMAP
70
70
70
70
70
70
70
70
70
70
70
60
60
60
60
60
60
60
00
00
00
00
F0
F0
F0
ENDCHAR
STARTCHAR quotedbl
ENCODING 34
SWIDTH 602 0
DWIDTH 20 0
BBX 13 9 4 17
BITMAP
E078
E078
E078
E078
E078
6030
6030
6030
6030
ENDCHAR
STARTCHAR numbersign
ENCODING 35
SWIDTH 602 0
DWIDTH 20 0
BBX 19 25 1 0
BITMAP
00C180
00C300
00C300
00C300
018300
018700
018600
018600
3FFFE0
7FFFE0
030C00
030C00
060C00
061800
061800
FFFFC0
FFFF80
0C3000
0C3000
183000
183000
186000
186000
186000
306000
ENDCHAR
STARTCHAR dollar
ENCODING 36
SWIDTH 602 0
DWIDTH 20 0
BBX 14 30 4 -3
BITMAP
0300
0300
1FF0
3FF8
7B18
F300
E300
E300
E300
E300
7300
7F00
3F00
1F80
0FC0
03F0
03F8
0378
033C
031C
031C
031C
031C
8338
F3F8
FFF0
3FC0
0300
0300
0300
ENDCHAR
STARTCHAR percent
ENCODING 37
SWIDTH 602 0
DWIDTH 20 0
BBX 20 25 0 0
BITMAP
1E0070
738060
6180C0
C0C1C0
C0C380
C0C300
C0C600
C0CE00
618C00
739800
1E3800
007000
006000
00E780
01CCC0
019860
033030
073030
063030
0C3030
1C3030
383030
301860
600CC0
E00780
ENDCHAR
STARTCHAR ampersand
ENCODING 38
SWIDTH 602 0
DWIDTH 20 0
BBX 20 25 0 0
BITMAP
01F000
03FC00
071C00
0E0E00
0E0E00
0E0E00
0E1E00
0F1C00
077800
07F000
07C000
1F8000
3DC070
71E070
70E070
E0F070
E07860
E03CE0
E01EE0
E01FC0
700FC0
780780
3C1FC0
1FFFE0
07F1F0
ENDCHAR
STARTCHAR quotesingle
ENCODING 39
SWIDTH 602 0
DWIDTH 20 0
BBX 4 10 8 16
BITMAP
F0
F0
F0
F0
F0
60
60
60
60
60
ENDCHAR
STARTCHAR parenleft
ENCODING 40
SWIDTH 602 0
DWIDTH 20 0
BBX 12 32 6 -6
BITMAP
0070
01F0
03E0
0F80
0E00
1C00
3C00
3800
7000
7000
7000
E000
E000
E000
E000
E000
E000
E000
E000
E000
6000
7000
7000
3000
3800
1C00
1C00
0E00
0780
03E0
01F0
0030
ENDCHAR
STARTCHAR parenright
ENCODING 41
SWIDTH 602 0
DWIDTH 20 0
BBX 12 32 3 -6
BITMAP
C000
F800
7C00
1E00
0700
0380
03C0
01C0
00E0
00E0
00E0
0060
0070
0070
0070
0070
0070
0070
0070
0070
0070
00E0
00E0
00E0
01C0
03C0
0380
0700
1E00
7C00
F800
C000
ENDCHAR
STARTCHAR asterisk
ENCODING 42
SWIDTH 602 0
DWIDTH 20 0
BBX 15 14 3 11
BITMAP
0380
0380
0380
4384
638C
F83E
FC7E
0840
0440
0EE0
1C70
3C78
3838
0820
ENDCHAR
STARTCHAR plus
ENCODING 43
SWIDTH 602 0
DWIDTH 20 0
BBX 18 18 1 0
BITMAP
00C000
00C000
00C000
00C000
00C000
00C000
00C000
00C000
FFFFC0
FFFFC0
00C000
00C000
00C000
00C000
00C000
00C000
00C000
00C000
ENDCHAR
STARTCHAR comma
ENCODING 44
SWIDTH 602 0
DWIDTH 20 0
BBX 5 11 8 -6
BITMAP
F8
F8
F8
F8
F8
18
18
38
30
70
C0
ENDCHAR
STARTCHAR hyphen
ENCODING 45
SWIDTH 602 0
DWIDTH 20 0
BBX 18 2 1 7
BITMAP
FFFFC0
FFFFC0
ENDCHAR
STARTCHAR period
ENCODING 46
SWIDTH 602 0
DWIDTH 20 0
BBX 5 5 8 0
BITMAP
F8
F8
F8
F8
F8
ENDCHAR
STARTCHAR slash
ENCODING 47
SWIDTH 602 0
DWIDTH 20 0
BBX 18 32 1 -6
BITMAP
0001C0
000180
000380
000300
000700
000600
000E00
000C00
001C00
001800
001800
003000
003000
006000
006000
00C000
00C000
018000
018000
030000
030000
060000
060000
0E0000
0C0000
1C0000
180000
380000
300000
700000
600000
E00000
ENDCHAR
STARTCHAR zero
ENCODING 48
SWIDTH 602 0
DWIDTH 20 0
BBX 17 25 2 0
BITMAP
03E000
0FF800
1C1C00
380E00
300E00
700700
700700
600300
E00380
E00380
E00380
E00380
E00380
E00380
E00380
E00380
E00380
600300
700700
700700
300600
380E00
1C1C00
0FF800
03E000
ENDCHAR
STARTCHAR one
ENCODING 49
SWIDTH 602 0
DWIDTH 20 0
BBX 17 25 3 0
BITMAP
004000
03C000
1FC000
FFC000
C1C000
01C000
01C000
01C000
01C000
01C000
01C000
01C000
01C000
01C000
01C000
01C000
01C000
01C000
01C000
01C000
01C000
01C000
01C000
FFFF80
FFFF80
ENDCHAR
STARTCHAR two
ENCODING 50
SWIDTH 602 0
DWIDTH 20 0
BBX 14 25 3 0
BITMAP
1FC0
7FE0
7078
4038
001C
001C
001C
001C
001C
0038
0038
0070
00E0
01C0
0380
0700
0E00
0C00
1C00
3800
7800
F000
F000
FFFC
FFFC
ENDCHAR
STARTCHAR three
ENCODING 51
SWIDTH 602 0
DWIDTH 20 0
BBX 13 25 4 0
BITMAP
7F00
FFC0
C1E0
00F0
0070
0070
0070
0070
0060
00E0
01C0
3F00
3FC0
01F0
0070
0078
0038
0038
0038
0038
0078
0070
C0E0
FFC0
7F00
ENDCHAR
STARTCHAR four
ENCODING 52
SWIDTH 602 0
DWIDTH 20 0
BBX 16 25 2 0
BITMAP
0038
0078
0078
00F8
01F8
01B8
0338
0738
0638
0C38
1C38
1838
3838
7038
6038
E038
FFFF
FFFF
0038
0038
0038
0038
0038
0038
0038
ENDCHAR
STARTCHAR five
ENCODING 53
SWIDTH 602 0
DWIDTH 20 0
BBX 12 25 5 0
BITMAP
FFE0
FFE0
C000
C000
C000
C000
C000
C000
C000
FC00
FF00
07C0
01E0
00E0
0070
0070
0070
0070
0070
0070
00E0
00E0
C3C0
FF80
7E00
ENDCHAR
STARTCHAR six
ENCODING 54
SWIDTH 602 0
DWIDTH 20 0
BBX 16 25 3 0
BITMAP
01FC
07FE
1E06
1800
3800
7000
7000
6000
E000
E3F0
EFF8
FC3C
F01E
F00E
E007
E007
E007
E007
6007
7007
700E
380E
1C3C
0FF8
07E0
ENDCHAR
STARTCHAR seven
ENCODING 55
SWIDTH 602 0
DWIDTH 20 0
BBX 15 25 3 0
BITMAP
FFFE
FFFE
FFFE
000C
001C
0018
0038
0030
0060
00E0
00C0
01C0
0180
0380
0300
0700
0E00
0E00
1C00
1C00
3C00
3800
3800
7000
7000
ENDCHAR
STARTCHAR eight
ENCODING 56
SWIDTH 602 0
DWIDTH 20 0
BBX 16 25 2 0
BITMAP
07E0
1FF8
3C38
781C
700C
700C
700C
781C
3C18
3E78
1FF0
0FE0
1FF0
38FC
703E
701E
E00F
E007
E007
E007
F007
700E
7C1C
1FF8
07E0
ENDCHAR
STARTCHAR nine
ENCODING 57
SWIDTH 602 0
DWIDTH 20 0
BBX 16 25 2 0
BITMAP
07E0
1FF0
3C38
701C
700E
E006
E006
E007
E007
E007
E007
700F
700F
3C3F
1FF7
0FC7
0007
0006
000E
000E
001C
0018
6078
7FE0
3F80
ENDCHAR
STARTCHAR colon
ENCODING 58
SWIDTH 602 0
DWIDTH 20 0
BBX 5 18 8 0
BITMAP
F8
F8
F8
F8
F8
00
00
00
00
00
00
00
00
F8
F8
F8
F8
F8
ENDCHAR
STARTCHAR semicolon
ENCODING 59
SWIDTH 602 0
DWIDTH 20 0
BBX 5 24 8 -6
BITMAP
F8
F8
F8
F8
F8
00
00
00
00
00
00
00
00
F8
F8
F8
F8
F8
18
18
38
30
70
C0
ENDCHAR
STARTCHAR less
ENCODING 60
SWIDTH 602 0
DWIDTH 20 0
BBX 17 18 0 0
BITMAP
000080
000180
000780
001E00
007800
01E000
078000
1E0000
F80000
780000
1E0000
078000
01E000
007800
001E00
000780
000180
000080
ENDCHAR
STARTCHAR equal
ENCODING 61
SWIDTH 602 0
DWIDTH 20 0
BBX 18 8 1 5
BITMAP
FFFFC0
FFFFC0
000000
000000
000000
000000
FFFFC0
FFFFC0
ENDCHAR
STARTCHAR greater
ENCODING 62
SWIDTH 602 0
DWIDTH 20 0
BBX 17 18 1 0
BITMAP
800000
C00000
F00000
3C0000
0F0000
03C000
00F000
003C00
000F00
000F80
003C00
00F000
03C000
0F0000
3C0000
F00000
C00000
800000
ENDCHAR
STARTCHAR question
ENCODING 63
SWIDTH 602 0
DWIDTH 20 0
BBX 15 25 3 0
BITMAP
3FE0
FFF8
C03C
C01E
C00E
000E
000E
000C
001C
0038
0070
00E0
01C0
0380
0300
0700
0700
0700
0000
0000
0000
0000
0F00
0F00
0F00
ENDCHAR
STARTCHAR at
ENCODING 64
SWIDTH 602 0
DWIDTH 20 0
BBX 19 25 1 0
BITMAP
01FC00
07FE00
0F0700
1C0300
380180
301F80
706180
60C180
618180
C18180
C10180
C30180
C30380
C30380
C30780
C30580
C30D80
619980
61F9E0
70F1E0
300000
380000
1E0600
07FE00
01F800
ENDCHAR
STARTCHAR A
ENCODING 65
SWIDTH 602 0
DWIDTH 20 0
BBX 20 25 0 0
BITMAP
007000
00F000
00F000
00F800
01B800
01B800
019C00
031C00
031C00
030E00
060E00
060E00
060F00
0C0700
0C0700
0C0780
1FFF80
1FFF80
1803C0
3001C0
3001C0
3000E0
6000E0
6000E0
E00070
ENDCHAR
STARTCHAR B
ENCODING 66
SWIDTH 602 0
DWIDTH 20 0
BBX 15 25 3 0
BITMAP
FFE0
FFF8
E078
E03C
E01C
E01C
E01C
E01C
E038
E078
E0F0
FFE0
FFE0
E0F0
E038
E01C
E00E
E00E
E00E
E00E
E00E
E01C
E03C
FFF8
FFE0
ENDCHAR
STARTCHAR C
ENCODING 67
SWIDTH 602 0
DWIDTH 20 0
BBX 17 25 2 0
BITMAP
01FE00
07FF80
0F0380
1C0080
380000
380000
700000
700000
F00000
E00000
E00000
E00000
E00000
E00000
E00000
E00000
E00000
700000
700000
380000
3C0000
1E0000
0F8180
07FF80
00FE00
ENDCHAR
STARTCHAR D
ENCODING 68
SWIDTH 602 0
DWIDTH 20 0
BBX 17 25 2 0
BITMAP
FFE000
FFF800
E07C00
E01E00
E00F00
E00700
E00700
E00380
E00380
E00380
E00380
E00380
E00380
E00380
E00380
E00380
E00380
E00700
E00700
E00700
E00E00
E01E00
E07C00
FFF000
FFC000
ENDCHAR
STARTCHAR E
ENCODING 69
SWIDTH 602 0
DWIDTH 20 0
BBX 15 25 4 0
BITMAP
FFFC
FFFC
E000
E000
E000
E000
E000
E000
E000
E000
E000
FFF8
FFF0
E000
E000
E000
E000
E000
E000
E000
E000
E000
E000
FFFE
FFFE
ENDCHAR
STARTCHAR F
ENCODING 70
SWIDTH 602 0
DWIDTH 20 0
BBX 15 25 4 0
BITMAP
FFFE
FFFE
E000
E000
E000
E000
E000
E000
E000
E000
E000
FFF8
FFF8
E000
E000
E000
E000
E000
E000
E000
E000
E000
E000
E000
E000
ENDCHAR
STARTCHAR G
ENCODING 71
SWIDTH 602 0
DWIDTH 20 0
BBX 17 25 1 0
BITMAP
01FF00
07FF80
0F0180
1C0000
380000
380000
700000
700000
E00000
E00000
E00000
E00000
E00000
E00000
E00380
E00380
F00380
700380
700380
380380
3C0380
1E0380
0F8380
07FF80
00FE00
ENDCHAR
STARTCHAR H
ENCODING 72
SWIDTH 602 0
DWIDTH 20 0
BBX 16 25 2 0
BITMAP
E007
E007
E007
E007
E007
E007
E007
E007
E007
E007
E007
FFFF
FFFF
E007
E007
E007
E007
E007
E007
E007
E007
E007
E007
E007
E007
ENDCHAR
STARTCHAR I
ENCODING 73
SWIDTH 602 0
DWIDTH 20 0
BBX 15 25 3 0
BITMAP
FFFE
FFFE
0380
0380
0380
0380
0380
0380
0380
0380
0380
0380
0380
0380
0380
0380
0380
0380
0380
0380
0380
0380
0380
FFFE
FFFE
ENDCHAR
STARTCHAR J
ENCODING 74
SWIDTH 602 0
DWIDTH 20 0
BBX 12 25 3 0
BITMAP
3FF0
3FF0
0070
0070
0070
0070
0070
0070
0070
0070
0070
0070
0070
0070
0070
0070
0070
0070
0070
0070
0070
00E0
C1C0
FFC0
7F00
ENDCHAR
STARTCHAR K
ENCODING 75
SWIDTH 602 0
DWIDTH 20 0
BBX 17 25 3 0
BITMAP
E00E00
E01C00
E01800
E03000
E07000
E0E000
E0C000
E18000
E38000
E70000
E60000
EE0000
FE0000
EF0000
E78000
E38000
E3C000
E1E000
E0F000
E07800
E03800
E03C00
E01E00
E00F00
E00780
ENDCHAR
STARTCHAR L
ENCODING 76
SWIDTH 602 0
DWIDTH 20 0
BBX 14 25 4 0
BITMAP
E000
E000
E000
E000
E000
E000
E000
E000
E000
E000
E000
E000
E000
E000
E000
E000
E000
E000
E000
E000
E000
E000
E000
FFFC
FFFC
ENDCHAR
STARTCHAR M
ENCODING 77
SWIDTH 602 0
DWIDTH 20 0
BBX 18 25 1 0
BITMAP
F003C0
F003C0
F003C0
F807C0
D806C0
D806C0
D806C0
DC0EC0
CC0CC0
CC0CC0
CC0CC0
CE1CC0
C618C0
C618C0
C618C0
C330C0
C330C0
C330C0
C330C0
C1E0C0
C1E0C0
C1E0C0
C0C0C0
C000C0
C000C0
ENDCHAR
STARTCHAR N
ENCODING 78
SWIDTH 602 0
DWIDTH 20 0
BBX 16 25 2 0
BITMAP
E003
F003
F003
F803
F803
FC03
DC03
CE03
CF03
C703
C783
C383
C3C3
C1C3
C1E3
C0E3
C073
C07B
C03B
C03F
C01F
C01F
C00F
C007
C007
ENDCHAR
STARTCHAR O
ENCODING 79
SWIDTH 602 0
DWIDTH 20 0
BBX 18 25 1 0
BITMAP
03F000
0FFC00
1E1E00
380700
380700
700380
700380
700380
E001C0
E001C0
E001C0
E001C0
E001C0
E001C0
E001C0
E001C0
E001C0
700380
700380
700380
380700
3C0F00
1E1E00
0FFC00
03F000
ENDCHAR
STARTCHAR P
ENCODING 80
SWIDTH 602 0
DWIDTH 20 0
BBX 15 25 4 0
BITMAP
FFE0
FFF8
E03C
E01E
E00E
E00E
E00E
E00E
E00E
E01C
E01C
E078
FFF0
FF80
E000
E000
E000
E000
E000
E000
E000
E000
E000
E000
E000
ENDCHAR
STARTCHAR Q
ENCODING 81
SWIDTH 602 0
DWIDTH 20 0
BBX 19 31 1 -6
BITMAP
03F000
0FFC00
1E1E00
380700
380700
700380
700380
700380
E001C0
E001C0
E001C0
E001C0
E001C0
E001C0
E001C0
E001C0
E001C0
7003C0
700380
700380
380780
3C0F00
1E1F00
0FFE00
03FC00
003800
001E00
000F80
0007E0
0003C0
000080
ENDCHAR
STARTCHAR R
ENCODING 82
SWIDTH 602 0
DWIDTH 20 0
BBX 17 25 3 0
BITMAP
FFC000
FFF000
E07800
E03C00
E01C00
E01C00
E01C00
E01C00
E03C00
E07800
E0F800
FFF000
FFE000
E3C000
E1C000
E0E000
E0E000
E07000
E07800
E03800
E03C00
E01E00
E00E00
E00F00
E00780
ENDCHAR
STARTCHAR S
ENCODING 83
SWIDTH 602 0
DWIDTH 20 0
BBX 16 25 3 0
BITMAP
0FF8
3FFE
780E
7000
E000
E000
E000
F000
F000
7C00
3F00
0FC0
03F0
00FC
003E
001E
000F
0007
0007
0007
0007
800E
F03C
FFF8
1FE0
ENDCHAR
STARTCHAR T
ENCODING 84
SWIDTH 602 0
DWIDTH 20 0
BBX 19 25 1 0
BITMAP
FFFFE0
FFFFE0
00E000
00E000
00E000
00E000
00E000
00E000
00E000
00E000
00E000
00E000
00E000
00E000
00E000
00E000
00E000
00E000
00E000
00E000
00E000
00E000
00E000
00E000
00E000
ENDCHAR
STARTCHAR U
ENCODING 85
SWIDTH 602 0
DWIDTH 20 0
BBX 15 25 3 0
BITMAP
E006
E006
E006
E006
E006
E006
E006
E006
E006
E006
E006
E006
E006
E006
E006
E006
E006
E006
E006
E006
F00C
700C
781C
3FF8
0FE0
ENDCHAR
STARTCHAR V
ENCODING 86
SWIDTH 602 0
DWIDTH 20 0
BBX 20 25 0 0
BITMAP
E00070
700060
700060
7000C0
3800C0
3800C0
380180
1C0180
1C0180
1C0300
0E0300
0E0300
0E0600
070600
070600
070C00
038C00
038C00
039800
01D800
01D800
01F000
01F000
00F000
00E000
ENDCHAR
STARTCHAR W
ENCODING 87
SWIDTH 602 0
DWIDTH 20 0
BBX 20 25 0 0
BITMAP
C00030
C00030
C0E030
C0E060
E1F060
E1F060
61F060
61F060
61B060
61B0C0
6338C0
6338C0
7338C0
7318C0
7218C0
7619C0
761D80
761D80
760D80
340D80
340F80
3C0F80
3C0F00
380700
380700
ENDCHAR
STARTCHAR X
ENCODING 88
SWIDTH 602 0
DWIDTH 20 0
BBX 20 25 0 0
BITMAP
7800E0
3800C0
3C01C0
1E0380
0E0300
0F0700
070600
038C00
03DC00
01D800
01F000
00F000
007000
00F800
01F800
01BC00
031E00
070E00
060F00
0C0700
1C0380
1803C0
3001C0
7001E0
E000F0
ENDCHAR
STARTCHAR Y
ENCODING 89
SWIDTH 602 0
DWIDTH 20 0
BBX 20 25 0 0
BITMAP
F00070
7000E0
3800C0
3C01C0
1C0380
1E0300
0E0700
0F0600
070C00
078C00
03D800
01F800
01F000
00E000
00E000
00E000
00E000
00E000
00E000
00E000
00E000
00E000
00E000
00E000
00E000
ENDCHAR
STARTCHAR Z
ENCODING 90
SWIDTH 602 0
DWIDTH 20 0
BBX 17 25 2 0
BITMAP
7FFF80
7FFF80
000780
000F00
000E00
001E00
001C00
003800
007800
007000
00F000
01E000
01C000
03C000
078000
070000
0F0000
1E0000
1C0000
3C0000
780000
700000
F00000
FFFF80
FFFF80
ENDCHAR
STARTCHAR bracketleft
ENCODING 91
SWIDTH 602 0
DWIDTH 20 0
BBX 9 32 8 -6
BITMAP
FF80
FF80
C000
C000
C000
C000
C000
C000
C000
C000
C000
C000
C000
C000
C000
C000
C000
C000
C000
C000
C000
C000
C000
C000
C000
C000
C000
C000
C000
C000
FF80
FF80
ENDCHAR
STARTCHAR backslash
ENCODING 92
SWIDTH 602 0
DWIDTH 20 0
BBX 18 32 1 -6
BITMAP
E00000
600000
700000
300000
380000
180000
1C0000
0C0000
0E0000
060000
060000
030000
030000
018000
018000
00C000
00C000
006000
006000
003000
003000
001800
001800
001C00
000C00
000E00
000600
000700
000300
000380
000180
0001C0
ENDCHAR
STARTCHAR bracketright
ENCODING 93
SWIDTH 602 0
DWIDTH 20 0
BBX 9 32 3 -6
BITMAP
FF80
FF80
0180
0180
0180
0180
0180
0180
0180
0180
0180
0180
0180
0180
0180
0180
0180
0180
0180
0180
0180
0180
0180
0180
0180
0180
0180
0180
0180
0180
FF80
FF80
ENDCHAR
STARTCHAR asciicircum
ENCODING 94
SWIDTH 602 0
DWIDTH 20 0
BBX 18 19 1 5
BITMAP
004000
00C000
00C000
01E000
01E000
03F000
033000
033000
061800
061800
0C0C00
0C0C00
180600
180600
380700
300300
700380
600180
E001C0
ENDCHAR
STARTCHAR underscore
ENCODING 95
SWIDTH 602 0
DWIDTH 20 0
BBX 20 2 0 -3
BITMAP
FFFFF0
FFFFF0
ENDCHAR
STARTCHAR grave
ENCODING 96
SWIDTH 602 0
DWIDTH 20 0
BBX 7 5 7 21
BITMAP
F0
78
38
1C
0E
ENDCHAR
STARTCHAR a
ENCODING 97
SWIDTH 602 0
DWIDTH 20 0
BBX 17 18 2 0
BITMAP
0FE000
3FF800
303800
201C00
001C00
001C00
001C00
07FC00
1FFC00
7C1C00
701C00
E01C00
E01C00
E01C00
E03C00
707C00
7FEF80
1F8F80
ENDCHAR
STARTCHAR b
ENCODING 98
SWIDTH 602 0
DWIDTH 20 0
BBX 16 26 3 0
BITMAP
E000
E000
E000
E000
E000
E000
E000
E000
E3F0
E7F8
EE1C
F80E
F00E
E007
E007
E007
E007
E007
E007
E007
E00E
E00E
F01C
FC3C
EFF8
E3E0
ENDCHAR
STARTCHAR c
ENCODING 99
SWIDTH 602 0
DWIDTH 20 0
BBX 15 18 3 0
BITMAP
03FC
0FFE
3E06
7800
7000
F000
E000
E000
E000
E000
E000
E000
7000
7000
3800
3E06
0FFE
03FC
ENDCHAR
STARTCHAR d
ENCODING 100
SWIDTH 602 0
DWIDTH 20 0
BBX 16 26 2 0
BITMAP
0007
0007
0007
0007
0007
0007
0007
0007
07E7
1FF7
3C3F
380F
7007
7007
E007
E007
E007
E007
E007
E007
E007
700F
701F
3877
1FE7
0FC7
ENDCHAR
STARTCHAR e
ENCODING 101
SWIDTH 602 0
DWIDTH 20 0
BBX 16 18 2 0
BITMAP
03F0
0FFC
1C1E
380E
700E
7007
E007
E007
FFFF
FFFF
E000
E000
6000
7000
3800
1C03
0FFF
03FC
ENDCHAR
STARTCHAR f
ENCODING 102
SWIDTH 602 0
DWIDTH 20 0
BBX 17 27 3 0
BITMAP
007F00
01FF80
03C080
038000
070000
070000
070000
070000
070000
FFFF00
FFFF00
070000
070000
070000
070000
070000
070000
070000
070000
070000
070000
070000
070000
070000
070000
070000
070000
ENDCHAR
STARTCHAR g
ENCODING 103
SWIDTH 602 0
DWIDTH 20 0
BBX 16 25 2 -7
BITMAP
07E3
1FFB
3C3F
380F
7007
7007
E007
E007
E007
E007
E007
E007
E007
700F
701F
3877
1FE7
0FC7
0007
0007
0006
000E
301C
3FF8
1FE0
ENDCHAR
STARTCHAR h
ENCODING 104
SWIDTH 602 0
DWIDTH 20 0
BBX 15 26 3 0
BITMAP
E000
E000
E000
E000
E000
E000
E000
E000
E1F0
E7F8
EFFC
FC1E
F80E
F00E
E00E
E00E
E00E
E00E
E00E
E00E
E00E
E00E
E00E
E00E
E00E
E00E
ENDCHAR
STARTCHAR i
ENCODING 105
SWIDTH 602 0
DWIDTH 20 0
BBX 10 26 3 0
BITMAP
01C0
01C0
01C0
01C0
0000
0000
0000
0000
FFC0
FFC0
01C0
01C0
01C0
01C0
01C0
01C0
01C0
01C0
01C0
01C0
01C0
01C0
01C0
01C0
01C0
01C0
ENDCHAR
STARTCHAR j
ENCODING 106
SWIDTH 602 0
DWIDTH 20 0
BBX 12 33 3 -7
BITMAP
0070
0070
0070
0070
0000
0000
0000
0000
7FF0
7FF0
0070
0070
0070
0070
0070
0070
0070
0070
0070
0070
0070
0070
0070
0070
0070
0070
0070
0070
0070
00E0
81E0
FFC0
7F00
ENDCHAR
STARTCHAR k
ENCODING 107
SWIDTH 602 0
DWIDTH 20 0
BBX 16 26 4 0
BITMAP
E000
E000
E000
E000
E000
E000
E000
E000
E01C
E030
E070
E0E0
E1C0
E380
E700
EE00
EE00
FF00
E780
E3C0
E1E0
E0F0
E078
E07C
E03C
E01F
ENDCHAR
STARTCHAR l
ENCODING 108
SWIDTH 602 0
DWIDTH 20 0
BBX 10 26 3 0
BITMAP
FFC0
FFC0
01C0
01C0
01C0
01C0
01C0
01C0
01C0
01C0
01C0
01C0
01C0
01C0
01C0
01C0
01C0
01C0
01C0
01C0
01C0
01C0
01C0
01C0
01C0
01C0
ENDCHAR
STARTCHAR m
ENCODING 109
SWIDTH 602 0
DWIDTH 20 0
BBX 18 18 1 0
BITMAP
C70780
CF9F80
D8D8C0
F0F0C0
E0E0C0
C0C0C0
C0C0C0
C0C0C0
C0C0C0
C0C0C0
C0C0C0
C0C0C0
C0C0C0
C0C0C0
C0C0C0
C0C0C0
C0C0C0
C0C0C0
ENDCHAR
STARTCHAR n
ENCODING 110
SWIDTH 602 0
DWIDTH 20 0
BBX 15 18 3 0
BITMAP
E1F0
E7F8
EFFC
FC1E
F80E
F00E
E00E
E00E
E00E
E00E
E00E
E00E
E00E
E00E
E00E
E00E
E00E
E00E
ENDCHAR
STARTCHAR o
ENCODING 111
SWIDTH 602 0
DWIDTH 20 0
BBX 17 18 2 0
BITMAP
07F000
1FFC00
3C1E00
780F00
700700
F00780
E00380
E00380
E00380
E00380
E00380
E00380
F00780
700700
780F00
3C1E00
1FFC00
07F000
ENDCHAR
STARTCHAR p
ENCODING 112
SWIDTH 602 0
DWIDTH 20 0
BBX 16 25 3 -7
BITMAP
E3F0
E7F8
EE1C
F80E
F00E
E007
E007
E007
E007
E007
E007
E007
E00E
E00E
F01C
FC3C
EFF8
E7E0
E000
E000
E000
E000
E000
E000
E000
ENDCHAR
STARTCHAR q
ENCODING 113
SWIDTH 602 0
DWIDTH 20 0
BBX 16 25 2 -7
BITMAP
07C7
1FF7
3C3F
380F
7007
7007
E007
E007
E007
E007
E007
E007
E007
700F
701F
3877
1FE7
0FC7
0007
0007
0007
0007
0007
0007
0007
ENDCHAR
STARTCHAR r
ENCODING 114
SWIDTH 602 0
DWIDTH 20 0
BBX 13 18 5 0
BITMAP
E1F8
E7F8
EE18
F818
F018
E000
E000
E000
E000
E000
E000
E000
E000
E000
E000
E000
E000
E000
ENDCHAR
STARTCHAR s
ENCODING 115
SWIDTH 602 0
DWIDTH 20 0
BBX 14 18 3 0
BITMAP
0FF0
3FF8
7018
E000
E000
E000
F800
7F00
3FE0
0FF8
01FC
003C
001C
001C
801C
E078
FFF0
3FC0
ENDCHAR
STARTCHAR t
ENCODING 116
SWIDTH 602 0
DWIDTH 20 0
BBX 16 22 2 0
BITMAP
0700
0700
0700
0700
FFFF
FFFF
0700
0700
0700
0700
0700
0700
0700
0700
0700
0700
0700
0700
0700
0380
03FF
00FF
ENDCHAR
STARTCHAR u
ENCODING 117
SWIDTH 602 0
DWIDTH 20 0
BBX 15 18 3 0
BITMAP
E00E
E00E
E00E
E00E
E00E
E00E
E00E
E00E
E00E
E00E
E00E
E00E
E01E
E03E
F07E
7FEE
3FCE
1F0E
ENDCHAR
STARTCHAR v
ENCODING 118
SWIDTH 602 0
DWIDTH 20 0
BBX 18 18 1 0
BITMAP
E001C0
700180
700380
780300
380300
3C0600
1C0600
1C0E00
1E0C00
0E0C00
0F1800
071800
073000
03B000
03F000
03E000
01E000
01C000
ENDCHAR
STARTCHAR w
ENCODING 119
SWIDTH 602 0
DWIDTH 20 0
BBX 20 18 0 0
BITMAP
E00030
E00030
E0F060
70F060
70F060
70F060
719860
7198C0
3198C0
3B98C0
3B0CC0
3B0DC0
3B0D80
3E0D80
1E0D80
1E0780
1E0780
1C0700
ENDCHAR
STARTCHAR x
ENCODING 120
SWIDTH 602 0
DWIDTH 20 0
BBX 18 18 1 0
BITMAP
F00380
780700
3C0600
1E0C00
0E1C00
0F1800
07B000
03F000
01E000
01E000
03F000
077800
063C00
0C1C00
1C1E00
380F00
300780
E003C0
ENDCHAR
STARTCHAR y
ENCODING 121
SWIDTH 602 0
DWIDTH 20 0
BBX 18 25 1 -7
BITMAP
F001C0
700180
700380
380300
380300
3C0600
1C0600
1C0C00
0E0C00
0E1C00
0F1800
071800
073000
03B000
03E000
01E000
01E000
01C000
01C000
018000
018000
030000
070000
7E0000
780000
ENDCHAR
STARTCHAR z
ENCODING 122
SWIDTH 602 0
DWIDTH 20 0
BBX 16 18 2 0
BITMAP
FFFF
FFFF
000E
001C
0038
0030
0060
00E0
01C0
0380
0700
0E00
1C00
1800
3000
6000
FFFF
FFFF
ENDCHAR
STARTCHAR braceleft
ENCODING 123
SWIDTH 602 0
DWIDTH 20 0
BBX 13 32 4 -6
BITMAP
00F8
03F8
0700
0E00
0E00
0E00
0E00
0E00
0700
0700
0700
0300
0300
0300
0E00
FC00
F800
0E00
0200
0300
0300
0300
0700
0700
0600
0E00
0E00
0E00
0E00
0700
03F8
00F8
ENDCHAR
STARTCHAR bar
ENCODING 124
SWIDTH 602 0
DWIDTH 20 0
BBX 2 32 9 -6
BITMAP
C0
C0
C0
C0
C0
C0
C0
C0
C0
C0
C0
C0
C0
C0
C0
C0
C0
C0
C0
C0
C0
C0
C0
C0
C0
C0
C0
C0
C0
C0
C0
C0
ENDCHAR
STARTCHAR braceright
ENCODING 125
SWIDTH 602 0
DWIDTH 20 0
BBX 12 32 4 -6
BITMAP
F800
FE00
0700
0380
0380
0380
0380
0300
0700
0700
0600
0600
0600
0600
0300
01F0
01F0
0300
0600
0600
0600
0600
0700
0700
0300
0380
0380
0380
0380
0700
FE00
F800
ENDCHAR
STARTCHAR asciitilde
ENCODING 126
SWIDTH 602 0
DWIDTH 20 0
BBX 18 6 1 6
BITMAP
1E00C0
7F80C0
63C0C0
C0F180
C07F80
C01E00
ENDCHAR
STARTCHAR space
ENCODING 160
SWIDTH 602 0
DWIDTH 20 0
BBX 1 1 0 0
BITMAP
00
ENDCHAR
STARTCHAR exclamdown
ENCODING 161
SWIDTH 602 0
DWIDTH 20 0
BBX 4 25 8 -7
BITMAP
F0
F0
F0
00
00
00
00
60
60
60
60
60
60
60
70
70
70
70
70
70
70
70
70
70
70
ENDCHAR
STARTCHAR cent
ENCODING 162
SWIDTH 602 0
DWIDTH 20 0
BBX 13 25 4 0
BITMAP
0180
0180
0180
07F0
1FF8
3F98
3988
7180
7180
E180
E180
E180
E180
E180
E180
E180
6180
7180
3988
3D98
1FF8
07F0
0180
0180
0180
ENDCHAR
STARTCHAR sterling
ENCODING 163
SWIDTH 602 0
DWIDTH 20 0
BBX 13 25 4 0
BITMAP
01F8
07F8
0E08
0C00
1C00
1C00
1C00
1C00
1C00
1C00
1C00
7F80
7F80
1C00
1C00
1C00
1C00
1C00
1C00
1C00
3800
7000
F000
FFF8
FFF8
ENDCHAR
STARTCHAR currency
ENCODING 164
SWIDTH 602 0
DWIDTH 20 0
BBX 17 17 2 4
BITMAP
400100
E00380
600700
33E600
1FFC00
1C1C00
380E00
300600
300600
300600
300600
180C00
1C1C00
3FFE00
73E700
E00380
400100
ENDCHAR
STARTCHAR yen
ENCODING 165
SWIDTH 602 0
DWIDTH 20 0
BBX 19 25 1 0
BITMAP
F000E0
7800C0
380180
3C0380
1C0300
1E0600
0F0E00
070C00
079C00
039800
03F000
01F000
00E000
1FFF00
1FFF00
00E000
00E000
1FFF00
1FFF00
00E000
00E000
00E000
00E000
00E000
00E000
ENDCHAR
STARTCHAR brokenbar
ENCODING 166
SWIDTH 602 0
DWIDTH 20 0
BBX 2 32 9 -6
BITMAP
C0
C0
C0
C0
C0
C0
C0
C0
C0
C0
C0
C0
C0
00
00
00
00
00
00
C0
C0
C0
C0
C0
C0
C0
C0
C0
C0
C0
C0
C0
ENDCHAR
STARTCHAR section
ENCODING 167
SWIDTH 602 0
DWIDTH 20 0
BBX 13 31 4 -6
BITMAP
0FF0
3FF0
7010
6000
C000
C000
C000
F000
FC00
7F00
7F80
67C0
C1E0
C070
C030
C030
E030
F030
7C60
3FE0
0FE0
03F0
00F0
0078
0038
0038
0038
8038
E0F0
FFE0
3F80
ENDCHAR
STARTCHAR dieresis
ENCODING 168
SWIDTH 602 0
DWIDTH 20 0
BBX 9 2 6 23
BITMAP
E380
E380
ENDCHAR
STARTCHAR copyright
ENCODING 169
SWIDTH 602 0
DWIDTH 20 0
BBX 19 25 1 0
BITMAP
03F800
0FFE00
1C0700
380380
3001C0
60FCC0
63FCC0
470460
C60060
CE0060
CC0060
CC0060
CC0060
CC0060
CC0060
CE0060
C60060
C78440
63FCC0
60F8C0
700180
380380
1C0700
0FFE00
03F800
ENDCHAR
STARTCHAR ordfeminine
ENCODING 170
SWIDTH 602 0
DWIDTH 20 0
BBX 12 13 4 12
BITMAP
3F00
7F80
61C0
40C0
00C0
1FC0
7FC0
60C0
C0C0
C0C0
E3C0
7FF0
3CF0
ENDCHAR
STARTCHAR guillemotleft
ENCODING 171
SWIDTH 602 0
DWIDTH 20 0
BBX 16 16 2 1
BITMAP
0102
0387
070E
0E0C
1C18
1838
3870
F1E0
70E0
3870
1838
1C18
0E0C
070E
0307
0182
ENDCHAR
STARTCHAR logicalnot
ENCODING 172
SWIDTH 602 0
DWIDTH 20 0
BBX 18 8 1 5
BITMAP
FFFFC0
FFFFC0
0000C0
0000C0
0000C0
0000C0
0000C0
0000C0
ENDCHAR
STARTCHAR hyphen
ENCODING 173
SWIDTH 602 0
DWIDTH 20 0
BBX 14 2 3 10
BITMAP
FFFC
FFFC
ENDCHAR
STARTCHAR registered
ENCODING 174
SWIDTH 602 0
DWIDTH 20 0
BBX 15 15 3 10
BITMAP
07C0
1830
2788
4444
4444
8442
84C2
8782
8482
8482
4484
4484
2008
1830
07C0
ENDCHAR
STARTCHAR macron
ENCODING 175
SWIDTH 602 0
DWIDTH 20 0
BBX 9 2 6 22
BITMAP
FF80
FF80
ENDCHAR
STARTCHAR degree
ENCODING 176
SWIDTH 602 0
DWIDTH 20 0
BBX 6 6 7 19
BITMAP
78
CC
84
84
CC
78
ENDCHAR
STARTCHAR plusminus
ENCODING 177
SWIDTH 602 0
DWIDTH 20 0
BBX 18 18 1 0
BITMAP
00C000
00C000
00C000
00C000
00C000
00C000
FFFFC0
FFFFC0
00C000
00C000
00C000
00C000
00C000
000000
000000
000000
FFFFC0
FFFFC0
ENDCHAR
STARTCHAR twosuperior
ENCODING 178
SWIDTH 602 0
DWIDTH 20 0
BBX 6 12 -3 13
BITMAP
78
8C
04
04
04
08
18
30
60
40
C0
FC
ENDCHAR
STARTCHAR threesuperior
ENCODING 179
SWIDTH 602 0
DWIDTH 20 0
BBX 6 12 -3 13
BITMAP
F8
8C
04
04
08
70
0C
04
04
04
88
F0
ENDCHAR
STARTCHAR acute
ENCODING 180
SWIDTH 602 0
DWIDTH 20 0
BBX 7 5 6 21
BITMAP
1E
3C
38
70
E0
ENDCHAR
STARTCHAR mu
ENCODING 181
SWIDTH 602 0
DWIDTH 20 0
BBX 15 24 3 -6
BITMAP
E00E
E00E
E00E
E00E
E00E
E00E
E00E
E00E
E00E
E00E
E00E
E00E
E01E
E03E
F0FE
FFEE
FFCE
FF0E
E000
E000
E000
E000
E000
E000
ENDCHAR
STARTCHAR paragraph
ENCODING 182
SWIDTH 602 0
DWIDTH 20 0
BBX 12 31 3 -6
BITMAP
1FF0
7FF0
FF30
FF30
FF30
FF30
FF30
FF30
FF30
7F30
7F30
1F30
0F30
0330
0330
0330
0330
0330
0330
0330
0330
0330
0330
0330
0330
0330
0330
0330
0330
0330
0330
ENDCHAR
STARTCHAR periodcentered
ENCODING 183
SWIDTH 602 0
DWIDTH 20 0
BBX 4 3 8 8
BITMAP
F0
F0
F0
ENDCHAR
STARTCHAR cedilla
ENCODING 184
SWIDTH 602 0
DWIDTH 20 0
BBX 5 7 8 -7
BITMAP
60
E0
70
38
18
18
F0
ENDCHAR
STARTCHAR onesuperior
ENCODING 185
SWIDTH 602 0
DWIDTH 20 0
BBX 7 12 -3 13
BITMAP
10
F0
10
10
10
10
10
10
10
10
10
FE
ENDCHAR
STARTCHAR ordmasculine
ENCODING 186
SWIDTH 602 0
DWIDTH 20 0
BBX 13 13 4 12
BITMAP
0F80
3FE0
78F0
7070
E038
E038
E038
E038
E038
7070
78F0
3FE0
0F80
ENDCHAR
STARTCHAR guillemotright
ENCODING 187
SWIDTH 602 0
DWIDTH 20 0
BBX 16 16 2 1
BITMAP
4180
E0C0
70E0
3070
1830
1C18
0E1C
070E
078F
0E1C
1C18
1838
3070
70E0
E1C0
4080
ENDCHAR
STARTCHAR onequarter
ENCODING 188
SWIDTH 602 0
DWIDTH 20 0
BBX 20 25 4 0
BITMAP
100070
F000E0
1000C0
100180
100380
100300
100600
100E00
101C00
101800
103800
FE7000
006000
00C040
01C0C0
0181C0
030140
070240
060240
0C0440
1C0840
180FF0
300040
700040
E00040
ENDCHAR
STARTCHAR onehalf
ENCODING 189
SWIDTH 602 0
DWIDTH 20 0
BBX 20 25 4 0
BITMAP
100070
F000E0
1000C0
100180
100380
100300
100600
100E00
101C00
101800
103800
FE7000
006000
00C1E0
01C230
018010
030010
070010
060020
0C0060
1C00C0
180180
300100
700300
E003F0
ENDCHAR
STARTCHAR threequarters
ENCODING 190
SWIDTH 602 0
DWIDTH 20 0
BBX 20 25 4 0
BITMAP
F80070
8C00E0
0400C0
040180
080380
700300
0C0600
040E00
041C00
041800
883800
F07000
006000
00C040
01C0C0
0181C0
030140
070240
060240
0C0440
1C0840
180FF0
300040
700040
E00040
ENDCHAR
STARTCHAR questiondown
ENCODING 191
SWIDTH 602 0
DWIDTH 20 0
BBX 15 25 3 -7
BITMAP
01C0
01C0
01C0
0000
0000
0000
0000
01C0
01C0
01C0
0180
0380
0700
0E00
1C00
3800
7000
E000
E000
E000
E006
F006
7806
3FFE
0FF8
ENDCHAR
STARTCHAR Agrave
ENCODING 192
SWIDTH 602 0
DWIDTH 20 0
BBX 20 31 0 0
BITMAP
01E000
00F000
007000
003800
001C00
000000
007000
00F000
00F000
00F800
01B800
01B800
019C00
031C00
031C00
030E00
060E00
060E00
060F00
0C0700
0C0700
0C0780
1FFF80
1FFF80
1803C0
3001C0
3001C0
3000E0
6000E0
6000E0
E00070
ENDCHAR
STARTCHAR Aacute
ENCODING 193
SWIDTH 602 0
DWIDTH 20 0
BBX 20 31 0 0
BITMAP
007800
00F000
00E000
01C000
038000
000000
007000
00F000
00F000
00F800
01B800
01B800
019C00
031C00
031C00
030E00
060E00
060E00
060F00
0C0700
0C0700
0C0780
1FFF80
1FFF80
1803C0
3001C0
3001C0
3000E0
6000E0
6000E0
E00070
ENDCHAR
STARTCHAR Acircumflex
ENCODING 194
SWIDTH 602 0
DWIDTH 20 0
BBX 20 31 0 0
BITMAP
00F800
00F800
01DC00
038E00
070700
000000
007000
00F000
00F000
00F800
01B800
01B800
019C00
031C00
031C00
030E00
060E00
060E00
060F00
0C0700
0C0700
0C0780
1FFF80
1FFF80
1803C0
3001C0
3001C0
3000E0
6000E0
6000E0
E00070
ENDCHAR
STARTCHAR Atilde
ENCODING 195
SWIDTH 602 0
DWIDTH 20 0
BBX 20 29 0 0
BITMAP
03E300
07FF00
063E00
000000
007000
00F000
00F000
00F800
01B800
01B800
019C00
031C00
031C00
030E00
060E00
060E00
060F00
0C0700
0C0700
0C0780
1FFF80
1FFF80
1803C0
3001C0
3001C0
3000E0
6000E0
6000E0
E00070
ENDCHAR
STARTCHAR Adieresis
ENCODING 196
SWIDTH 602 0
DWIDTH 20 0
BBX 20 28 0 0
BITMAP
038E00
038E00
000000
007000
00F000
00F000
00F800
01B800
01B800
019C00
031C00
031C00
030E00
060E00
060E00
060F00
0C0700
0C0700
0C0780
1FFF80
1FFF80
1803C0
3001C0
3001C0
3000E0
6000E0
6000E0
E00070
ENDCHAR
STARTCHAR Aring
ENCODING 197
SWIDTH 602 0
DWIDTH 20 0
BBX 20 31 0 0
BITMAP
007000
00D800
008800
00D800
007000
000000
007000
00F000
00F000
00F800
01B800
01B800
019C00
031C00
031C00
030E00
060E00
060E00
060F00
0C0700
0C0700
0C0780
1FFF80
1FFF80
1803C0
3001C0
3001C0
3000E0
6000E0
6000E0
E00070
ENDCHAR
STARTCHAR AE
ENCODING 198
SWIDTH 602 0
DWIDTH 20 0
BBX 19 25 0 0
BITMAP
007FC0
007FC0
00F800
00F800
00F800
01B800
01B800
01B800
033800
033800
033800
063F80
063F80
0E3800
0C3800
0C3800
1C3800
1FF800
1FF800
303800
303800
303800
603800
603FE0
E03FE0
ENDCHAR
STARTCHAR Ccedilla
ENCODING 199
SWIDTH 602 0
DWIDTH 20 0
BBX 17 32 2 -7
BITMAP
01FE00
07FF80
0F0380
1C0080
380000
380000
700000
700000
F00000
E00000
E00000
E00000
E00000
E00000
E00000
E00000
E00000
700000
700000
380000
3C0000
1E0000
0F8180
07FF80
00FE00
00C000
01C000
00E000
007000
003000
003000
01E000
ENDCHAR
STARTCHAR Egrave
ENCODING 200
SWIDTH 602 0
DWIDTH 20 0
BBX 15 31 4 0
BITMAP
1E00
0F00
0700
0380
01C0
0000
FFFC
FFFC
E000
E000
E000
E000
E000
E000
E000
E000
E000
FFF8
FFF0
E000
E000
E000
E000
E000
E000
E000
E000
E000
E000
FFFE
FFFE
ENDCHAR
STARTCHAR Eacute
ENCODING 201
SWIDTH 602 0
DWIDTH 20 0
BBX 15 31 4 0
BITMAP
03C0
0780
0700
0E00
1C00
0000
FFFC
FFFC
E000
E000
E000
E000
E000
E000
E000
E000
E000
FFF8
FFF0
E000
E000
E000
E000
E000
E000
E000
E000
E000
E000
FFFE
FFFE
ENDCHAR
STARTCHAR Ecircumflex
ENCODING 202
SWIDTH 602 0
DWIDTH 20 0
BBX 15 31 4 0
BITMAP
07C0
07C0
0EE0
1C70
3838
0000
FFFC
FFFC
E000
E000
E000
E000
E000
E000
E000
E000
E000
FFF8
FFF0
E000
E000
E000
E000
E000
E000
E000
E000
E000
E000
FFFE
FFFE
ENDCHAR
STARTCHAR Edieresis
ENCODING 203
SWIDTH 602 0
DWIDTH 20 0
BBX 15 28 4 0
BITMAP
38E0
38E0
0000
FFFC
FFFC
E000
E000
E000
E000
E000
E000
E000
E000
E000
FFF8
FFF0
E000
E000
E000
E000
E000
E000
E000
E000
E000
E000
FFFE
FFFE
ENDCHAR
STARTCHAR Igrave
ENCODING 204
SWIDTH 602 0
DWIDTH 20 0
BBX 15 31 3 0
BITMAP
0F00
0780
0380
01C0
00E0
0000
FFFE
FFFE
0380
0380
0380
0380
0380
0380
0380
0380
0380
0380
0380
0380
0380
0380
0380
0380
0380
0380
0380
0380
0380
FFFE
FFFE
ENDCHAR
STARTCHAR Iacute
ENCODING 205
SWIDTH 602 0
DWIDTH 20 0
BBX 15 31 3 0
BITMAP
01E0
03C0
0380
0700
0E00
0000
FFFE
FFFE
0380
0380
0380
0380
0380
0380
0380
0380
0380
0380
0380
0380
0380
0380
0380
0380
0380
0380
0380
0380
0380
FFFE
FFFE
ENDCHAR
STARTCHAR Icircumflex
ENCODING 206
SWIDTH 602 0
DWIDTH 20 0
BBX 15 31 3 0
BITMAP
07C0
07C0
0EE0
1C70
3838
0000
FFFE
FFFE
0380
0380
0380
0380
0380
0380
0380
0380
0380
0380
0380
0380
0380
0380
0380
0380
0380
0380
0380
0380
0380
FFFE
FFFE
ENDCHAR
STARTCHAR Idieresis
ENCODING 207
SWIDTH 602 0
DWIDTH 20 0
BBX 15 28 3 0
BITMAP
1C70
1C70
0000
FFFE
FFFE
0380
0380
0380
0380
0380
0380
0380
0380
0380
0380
0380
0380
0380
0380
0380
0380
0380
0380
0380
0380
0380
FFFE
FFFE
ENDCHAR
STARTCHAR Eth
ENCODING 208
SWIDTH 602 0
DWIDTH 20 0
BBX 19 25 0 0
BITMAP
3FF800
3FFE00
381F00
380780
3803C0
3801C0
3801C0
3800E0
3800E0
3800E0
3800E0
FF80E0
FF80E0
3800E0
3800E0
3800E0
3800E0
3801C0
3801C0
3801C0
380380
380780
381F00
3FFC00
3FF000
ENDCHAR
STARTCHAR Ntilde
ENCODING 209
SWIDTH 602 0
DWIDTH 20 0
BBX 16 29 2 0
BITMAP
0F8C
1FFC
18F8
0000
E003
F003
F003
F803
F803
FC03
DC03
CE03
CF03
C703
C783
C383
C3C3
C1C3
C1E3
C0E3
C073
C07B
C03B
C03F
C01F
C01F
C00F
C007
C007
ENDCHAR
STARTCHAR Ograve
ENCODING 210
SWIDTH 602 0
DWIDTH 20 0
BBX 18 31 1 0
BITMAP
03C000
01E000
00E000
007000
003800
000000
03F000
0FFC00
1E1E00
380700
380700
700380
700380
700380
E001C0
E001C0
E001C0
E001C0
E001C0
E001C0
E001C0
E001C0
E001C0
700380
700380
700380
380700
3C0F00
1E1E00
0FFC00
03F000
ENDCHAR
STARTCHAR Oacute
ENCODING 211
SWIDTH 602 0
DWIDTH 20 0
BBX 18 31 1 0
BITMAP
00F000
01E000
01C000
038000
070000
000000
03F000
0FFC00
1E1E00
380700
380700
700380
700380
700380
E001C0
E001C0
E001C0
E001C0
E001C0
E001C0
E001C0
E001C0
E001C0
700380
700380
700380
380700
3C0F00
1E1E00
0FFC00
03F000
ENDCHAR
STARTCHAR Ocircumflex
ENCODING 212
SWIDTH 602 0
DWIDTH 20 0
BBX 18 31 1 0
BITMAP
03E000
03E000
077000
0E3800
1C1C00
000000
03F000
0FFC00
1E1E00
380700
380700
700380
700380
700380
E001C0
E001C0
E001C0
E001C0
E001C0
E001C0
E001C0
E001C0
E001C0
700380
700380
700380
380700
3C0F00
1E1E00
0FFC00
03F000
ENDCHAR
STARTCHAR Otilde
ENCODING 213
SWIDTH 602 0
DWIDTH 20 0
BBX 18 29 1 0
BITMAP
0F8C00
1FFC00
18F800
000000
03F000
0FFC00
1E1E00
380700
380700
700380
700380
700380
E001C0
E001C0
E001C0
E001C0
E001C0
E001C0
E001C0
E001C0
E001C0
700380
700380
700380
380700
3C0F00
1E1E00
0FFC00
03F000
ENDCHAR
STARTCHAR Odieresis
ENCODING 214
SWIDTH 602 0
DWIDTH 20 0
BBX 18 28 1 0
BITMAP
071C00
071C00
000000
03F000
0FFC00
1E1E00
380700
380700
700380
700380
700380
E001C0
E001C0
E001C0
E001C0
E001C0
E001C0
E001C0
E001C0
E001C0
700380
700380
700380
380700
3C0F00
1E1E00
0FFC00
03F000
ENDCHAR
STARTCHAR multiply
ENCODING 215
SWIDTH 602 0
DWIDTH 20 0
BBX 18 18 1 0
BITMAP
400080
E001C0
700380
380700
1C0E00
0E1C00
073800
03F000
01E000
01E000
03F000
073800
0E1C00
1C0E00
380700
700380
E001C0
400080
ENDCHAR
STARTCHAR Oslash
ENCODING 216
SWIDTH 602 0
DWIDTH 20 0
BBX 18 25 1 0
BITMAP
03F1C0
0FFF80
1E1F80
3C0700
380780
700F80
700F80
701BC0
E039C0
E031C0
E061C0
E0E1C0
E0C1C0
E181C0
E381C0
E301C0
E701C0
F60380
7C0380
7C0380
780700
380F00
7E1E00
7FFC00
E3F000
ENDCHAR
STARTCHAR Ugrave
ENCODING 217
SWIDTH 602 0
DWIDTH 20 0
BBX 15 31 3 0
BITMAP
0F00
0780
0380
01C0
00E0
0000
E006
E006
E006
E006
E006
E006
E006
E006
E006
E006
E006
E006
E006
E006
E006
E006
E006
E006
E006
E006
F00C
700C
781C
3FF8
0FE0
ENDCHAR
STARTCHAR Uacute
ENCODING 218
SWIDTH 602 0
DWIDTH 20 0
BBX 15 31 3 0
BITMAP
01E0
03C0
0380
0700
0E00
0000
E006
E006
E006
E006
E006
E006
E006
E006
E006
E006
E006
E006
E006
E006
E006
E006
E006
E006
E006
E006
F00C
700C
781C
3FF8
0FE0
ENDCHAR
STARTCHAR Ucircumflex
ENCODING 219
SWIDTH 602 0
DWIDTH 20 0
BBX 15 31 3 0
BITMAP
07C0
07C0
0EE0
1C70
3838
0000
E006
E006
E006
E006
E006
E006
E006
E006
E006
E006
E006
E006
E006
E006
E006
E006
E006
E006
E006
E006
F00C
700C
781C
3FF8
0FE0
ENDCHAR
STARTCHAR Udieresis
ENCODING 220
SWIDTH 602 0
DWIDTH 20 0
BBX 15 28 3 0
BITMAP
1C70
1C70
0000
E006
E006
E006
E006
E006
E006
E006
E006
E006
E006
E006
E006
E006
E006
E006
E006
E006
E006
E006
E006
F00C
700C
781C
3FF8
0FE0
ENDCHAR
STARTCHAR Yacute
ENCODING 221
SWIDTH 602 0
DWIDTH 20 0
BBX 20 31 0 0
BITMAP
007800
00F000
00E000
01C000
038000
000000
F00070
7000E0
3800C0
3C01C0
1C0380
1E0300
0E0700
0F0600
070C00
078C00
03D800
01F800
01F000
00E000
00E000
00E000
00E000
00E000
00E000
00E000
00E000
00E000
00E000
00E000
00E000
ENDCHAR
STARTCHAR Thorn
ENCODING 222
SWIDTH 602 0
DWIDTH 20 0
BBX 15 25 4 0
BITMAP
E000
E000
E000
E000
E000
FFE0
FFF8
E03C
E01E
E00E
E00E
E00E
E00E
E00E
E01C
E01C
E078
FFF0
FF80
E000
E000
E000
E000
E000
E000
ENDCHAR
STARTCHAR germandbls
ENCODING 223
SWIDTH 602 0
DWIDTH 20 0
BBX 16 27 3 0
BITMAP
1F80
3FE0
70F0
6070
E070
E070
E070
E0E0
E0C0
E180
E300
E300
E300
E380
E1C0
E1F0
E0F8
E07C
E01E
E00F
E00F
E007
E007
E007
E60E
E7FE
E3F8
ENDCHAR
STARTCHAR agrave
ENCODING 224
SWIDTH 602 0
DWIDTH 20 0
BBX 17 24 2 0
BITMAP
078000
03C000
01C000
00E000
007000
000000
0FE000
3FF800
303800
201C00
001C00
001C00
001C00
07FC00
1FFC00
7C1C00
701C00
E01C00
E01C00
E01C00
E03C00
707C00
7FEF80
1F8F80
ENDCHAR
STARTCHAR aacute
ENCODING 225
SWIDTH 602 0
DWIDTH 20 0
BBX 17 24 2 0
BITMAP
01E000
03C000
038000
070000
0E0000
000000
0FE000
3FF800
303800
201C00
001C00
001C00
001C00
07FC00
1FFC00
7C1C00
701C00
E01C00
E01C00
E01C00
E03C00
707C00
7FEF80
1F8F80
ENDCHAR
STARTCHAR acircumflex
ENCODING 226
SWIDTH 602 0
DWIDTH 20 0
BBX 17 24 2 0
BITMAP
07C000
07C000
0EE000
1C7000
383800
000000
0FE000
3FF800
303800
201C00
001C00
001C00
001C00
07FC00
1FFC00
7C1C00
701C00
E01C00
E01C00
E01C00
E03C00
707C00
7FEF80
1F8F80
ENDCHAR
STARTCHAR atilde
ENCODING 227
SWIDTH 602 0
DWIDTH 20 0
BBX 17 22 2 0
BITMAP
1F1800
3FF800
31F000
000000
0FE000
3FF800
303800
201C00
001C00
001C00
001C00
07FC00
1FFC00
7C1C00
701C00
E01C00
E01C00
E01C00
E03C00
707C00
7FEF80
1F8F80
ENDCHAR
STARTCHAR adieresis
ENCODING 228
SWIDTH 602 0
DWIDTH 20 0
BBX 17 21 2 0
BITMAP
1C7000
1C7000
000000
0FE000
3FF800
303800
201C00
001C00
001C00
001C00
07FC00
1FFC00
7C1C00
701C00
E01C00
E01C00
E01C00
E03C00
707C00
7FEF80
1F8F80
ENDCHAR
STARTCHAR aring
ENCODING 229
SWIDTH 602 0
DWIDTH 20 0
BBX 17 24 2 0
BITMAP
038000
06C000
044000
06C000
038000
000000
0FE000
3FF800
303800
201C00
001C00
001C00
001C00
07FC00
1FFC00
7C1C00
701C00
E01C00
E01C00
E01C00
E03C00
707C00
7FEF80
1F8F80
ENDCHAR
STARTCHAR ae
ENCODING 230
SWIDTH 602 0
DWIDTH 20 0
BBX 19 18 1 0
BITMAP
3F9F00
3FFF80
21F9C0
00F0C0
00E0E0
00E0E0
00E0E0
0FFFE0
3FFFE0
78E000
F0E000
E0E000
E0E000
E0E000
E0F000
71F860
7F7FE0
1E1F80
ENDCHAR
STARTCHAR ccedilla
ENCODING 231
SWIDTH 602 0
DWIDTH 20 0
BBX 15 25 3 -7
BITMAP
03FC
0FFE
3E06
7800
7000
F000
E000
E000
E000
E000
E000
E000
7000
7000
3800
3E06
0FFE
03FC
0300
0700
0380
01C0
00C0
00C0
0780
ENDCHAR
STARTCHAR egrave
ENCODING 232
SWIDTH 602 0
DWIDTH 20 0
BBX 16 24 2 0
BITMAP
0780
03C0
01C0
00E0
0070
0000
03F0
0FFC
1C1E
380E
700E
7007
E007
E007
FFFF
FFFF
E000
E000
6000
7000
3800
1C03
0FFF
03FC
ENDCHAR
STARTCHAR eacute
ENCODING 233
SWIDTH 602 0
DWIDTH 20 0
BBX 16 24 2 0
BITMAP
01E0
03C0
0380
0700
0E00
0000
03F0
0FFC
1C1E
380E
700E
7007
E007
E007
FFFF
FFFF
E000
E000
6000
7000
3800
1C03
0FFF
03FC
ENDCHAR
STARTCHAR ecircumflex
ENCODING 234
SWIDTH 602 0
DWIDTH 20 0
BBX 16 24 2 0
BITMAP
07C0
07C0
0EE0
1C70
3838
0000
03F0
0FFC
1C1E
380E
700E
7007
E007
E007
FFFF
FFFF
E000
E000
6000
7000
3800
1C03
0FFF
03FC
ENDCHAR
STARTCHAR edieresis
ENCODING 235
SWIDTH 602 0
DWIDTH 20 0
BBX 16 21 2 0
BITMAP
1C70
1C70
0000
03F0
0FFC
1C1E
380E
700E
7007
E007
E007
FFFF
FFFF
E000
E000
6000
7000
3800
1C03
0FFF
03FC
ENDCHAR
STARTCHAR igrave
ENCODING 236
SWIDTH 602 0
DWIDTH 20 0
BBX 11 24 3 0
BITMAP
0F00
0780
0380
01C0
00E0
0000
FFC0
FFC0
01C0
01C0
01C0
01C0
01C0
01C0
01C0
01C0
01C0
01C0
01C0
01C0
01C0
01C0
01C0
01C0
ENDCHAR
STARTCHAR iacute
ENCODING 237
SWIDTH 602 0
DWIDTH 20 0
BBX 11 24 3 0
BITMAP
01E0
03C0
0380
0700
0E00
0000
FFC0
FFC0
01C0
01C0
01C0
01C0
01C0
01C0
01C0
01C0
01C0
01C0
01C0
01C0
01C0
01C0
01C0
01C0
ENDCHAR
STARTCHAR icircumflex
ENCODING 238
SWIDTH 602 0
DWIDTH 20 0
BBX 13 24 3 0
BITMAP
07C0
07C0
0EE0
1C70
3838
0000
FFC0
FFC0
01C0
01C0
01C0
01C0
01C0
01C0
01C0
01C0
01C0
01C0
01C0
01C0
01C0
01C0
01C0
01C0
ENDCHAR
STARTCHAR idieresis
ENCODING 239
SWIDTH 602 0
DWIDTH 20 0
BBX 12 21 3 0
BITMAP
1C70
1C70
0000
FFC0
FFC0
01C0
01C0
01C0
01C0
01C0
01C0
01C0
01C0
01C0
01C0
01C0
01C0
01C0
01C0
01C0
01C0
ENDCHAR
STARTCHAR eth
ENCODING 240
SWIDTH 602 0
DWIDTH 20 0
BBX 17 26 2 0
BITMAP
FC6000
FFF000
0FF000
07E000
1FF000
387800
303C00
001C00
03FE00
0FFE00
3C1F00
380F00
700780
700780
E00380
E00380
E00380
E00380
E00380
E00380
700700
700700
380E00
3C1E00
1FF800
07F000
ENDCHAR
STARTCHAR ntilde
ENCODING 241
SWIDTH 602 0
DWIDTH 20 0
BBX 15 22 3 0
BITMAP
1F18
3FF8
31F0
0000
E1F0
E7F8
EFFC
FC1E
F80E
F00E
E00E
E00E
E00E
E00E
E00E
E00E
E00E
E00E
E00E
E00E
E00E
E00E
ENDCHAR
STARTCHAR ograve
ENCODING 242
SWIDTH 602 0
DWIDTH 20 0
BBX 17 24 2 0
BITMAP
078000
03C000
01C000
00E000
007000
000000
07F000
1FFC00
3C1E00
780F00
700700
F00780
E00380
E00380
E00380
E00380
E00380
E00380
F00780
700700
780F00
3C1E00
1FFC00
07F000
ENDCHAR
STARTCHAR oacute
ENCODING 243
SWIDTH 602 0
DWIDTH 20 0
BBX 17 24 2 0
BITMAP
00F000
01E000
01C000
038000
070000
000000
07F000
1FFC00
3C1E00
780F00
700700
F00780
E00380
E00380
E00380
E00380
E00380
E00380
F00780
700700
780F00
3C1E00
1FFC00
07F000
ENDCHAR
STARTCHAR ocircumflex
ENCODING 244
SWIDTH 602 0
DWIDTH 20 0
BBX 17 24 2 0
BITMAP
03E000
03E000
077000
0E3800
1C1C00
000000
07F000
1FFC00
3C1E00
780F00
700700
F00780
E00380
E00380
E00380
E00380
E00380
E00380
F00780
700700
780F00
3C1E00
1FFC00
07F000
ENDCHAR
STARTCHAR otilde
ENCODING 245
SWIDTH 602 0
DWIDTH 20 0
BBX 17 22 2 0
BITMAP
0F8C00
1FFC00
18F800
000000
07F000
1FFC00
3C1E00
780F00
700700
F00780
E00380
E00380
E00380
E00380
E00380
E00380
F00780
700700
780F00
3C1E00
1FFC00
07F000
ENDCHAR
STARTCHAR odieresis
ENCODING 246
SWIDTH 602 0
DWIDTH 20 0
BBX 17 21 2 0
BITMAP
0E3800
0E3800
000000
07F000
1FFC00
3C1E00
780F00
700700
F00780
E00380
E00380
E00380
E00380
E00380
E00380
F00780
700700
780F00
3C1E00
1FFC00
07F000
ENDCHAR
STARTCHAR divide
ENCODING 247
SWIDTH 602 0
DWIDTH 20 0
BBX 17 18 2 0
BITMAP
01C000
01C000
01C000
000000
000000
000000
000000
000000
FFFF80
FFFF80
000000
000000
000000
000000
000000
01C000
01C000
01C000
ENDCHAR
STARTCHAR oslash
ENCODING 248
SWIDTH 602 0
DWIDTH 20 0
BBX 17 18 2 0
BITMAP
07F780
1FFF00
3C1F00
780F00
701F00
F03F80
E07380
E0E380
E0C380
E18380
E38380
E70380
FE0780
7C0700
780F00
7C1E00
7FFC00
F7F000
ENDCHAR
STARTCHAR ugrave
ENCODING 249
SWIDTH 602 0
DWIDTH 20 0
BBX 15 24 3 0
BITMAP
0F00
0780
0380
01C0
00E0
0000
E00E
E00E
E00E
E00E
E00E
E00E
E00E
E00E
E00E
E00E
E00E
E00E
E01E
E03E
F07E
7FEE
3FCE
1F0E
ENDCHAR
STARTCHAR uacute
ENCODING 250
SWIDTH 602 0
DWIDTH 20 0
BBX 15 24 3 0
BITMAP
01E0
03C0
0380
0700
0E00
0000
E00E
E00E
E00E
E00E
E00E
E00E
E00E
E00E
E00E
E00E
E00E
E00E
E01E
E03E
F07E
7FEE
3FCE
1F0E
ENDCHAR
STARTCHAR ucircumflex
ENCODING 251
SWIDTH 602 0
DWIDTH 20 0
BBX 15 24 3 0
BITMAP
07C0
07C0
0EE0
1C70
3838
0000
E00E
E00E
E00E
E00E
E00E
E00E
E00E
E00E
E00E
E00E
E00E
E00E
E01E
E03E
F07E
7FEE
3FCE
1F0E
ENDCHAR
STARTCHAR udieresis
ENCODING 252
SWIDTH 602 0
DWIDTH 20 0
BBX 15 21 3 0
BITMAP
1C70
1C70
0000
E00E
E00E
E00E
E00E
E00E
E00E
E00E
E00E
E00E
E00E
E00E
E00E
E01E
E03E
F07E
7FEE
3FCE
1F0E
ENDCHAR
STARTCHAR yacute
ENCODING 253
SWIDTH 602 0
DWIDTH 20 0
BBX 18 31 1 -7
BITMAP
00F000
01E000
01C000
038000
070000
000000
F001C0
700180
700380
380300
380300
3C0600
1C0600
1C0C00
0E0C00
0E1C00
0F1800
071800
073000
03B000
03E000
01E000
01E000
01C000
01C000
018000
018000
030000
070000
7E0000
780000
ENDCHAR
STARTCHAR thorn
ENCODING 254
SWIDTH 602 0
DWIDTH 20 0
BBX 16 31 3 -7
BITMAP
E000
E000
E000
E000
E000
E000
E3F0
E7F8
EE1C
F80E
F00E
E007
E007
E007
E007
E007
E007
E007
E00E
E00E
F01C
FC3C
EFF8
E7E0
E000
E000
E000
E000
E000
E000
E000
ENDCHAR
STARTCHAR ydieresis
ENCODING 255
SWIDTH 602 0
DWIDTH 20 0
BBX 18 28 1 -7
BITMAP
0E3800
0E3800
000000
F001C0
700180
700380
380300
380300
3C0600
1C0600
1C0C00
0E0C00
0E1C00
0F1800
071800
073000
03B000
03E000
01E000
01E000
01C000
01C000
018000
018000
030000
070000
7E0000
780000
ENDCHAR
ENDFONT
