STARTFONT 2.1
COMMENT AUTOMATICALLY GENERATED FILE. DO NOT EDIT!
COMMENT Generated with 'ucs2any.pl lutRS12.bdf ../../../fonts/util/map-ISO8859-1 ISO8859-1'
COMMENT from an ISO10646-1 encoded source BDF font.
COMMENT ucs2any.pl by Markus Kuhn <mkuhn@acm.org>, 2000.
COMMENT $Xorg: $
COMMENT ISO10646-1 extension by Markus Kuhn <mkuhn@acm.org>, 2001-03-20
FONT -B&H-LucidaTypewriter-Medium-R-Normal-Sans-17-120-100-100-M-100-ISO8859-1
SIZE 12 100 100
FONTBOUNDINGBOX 13 18 -1 -3
STARTPROPERTIES 22
FONTNAME_REGISTRY ""
FOUNDRY "B&H"
FAMILY_NAME "LucidaTypewriter"
WEIGHT_NAME "Medium"
SLANT "R"
SETWIDTH_NAME "Normal"
ADD_STYLE_NAME "Sans"
PIXEL_SIZE 17
POINT_SIZE 120
RESOLUTION_X 100
RESOLUTION_Y 100
SPACING "M"
AVERAGE_WIDTH 100
CHARSET_REGISTRY "ISO8859"
CHARSET_ENCODING "1"
FONT_ASCENT 15
FONT_DESCENT 3
DEFAULT_CHAR 0
COPYRIGHT "Copyright Bigelow & Holmes 1986, 1985."
FACE_NAME "Lucida Sans Typewriter"
X_HEIGHT 9
CAP_HEIGHT 12
ENDPROPERTIES
CHARS 192
STARTCHAR defaultchar
ENCODING 0
SWIDTH 602 0
DWIDTH 10 0
BBX 7 11 1 0
BITMAP
AA
00
82
00
82
00
82
00
82
00
AA
ENDCHAR
STARTCHAR space
ENCODING 32
SWIDTH 602 0
DWIDTH 10 0
BBX 1 1 0 0
BITMAP
00
ENDCHAR
STARTCHAR exclam
ENCODING 33
SWIDTH 602 0
DWIDTH 10 0
BBX 1 12 5 0
BITMAP
80
80
80
80
80
80
80
80
80
00
00
80
ENDCHAR
STARTCHAR quotedbl
ENCODING 34
SWIDTH 602 0
DWIDTH 10 0
BBX 5 4 3 8
BITMAP
88
88
88
88
ENDCHAR
STARTCHAR numbersign
ENCODING 35
SWIDTH 602 0
DWIDTH 10 0
BBX 9 12 1 0
BITMAP
0900
1B00
1200
7F80
1200
2400
FF00
2400
2400
4C00
4800
4800
ENDCHAR
STARTCHAR dollar
ENCODING 36
SWIDTH 602 0
DWIDTH 10 0
BBX 7 14 2 -1
BITMAP
10
7E
D2
90
90
F0
30
1C
16
12
12
96
FC
10
ENDCHAR
STARTCHAR percent
ENCODING 37
SWIDTH 602 0
DWIDTH 10 0
BBX 10 12 0 0
BITMAP
70C0
D880
8900
8A00
DE00
7400
0800
1380
1440
2440
4440
C380
ENDCHAR
STARTCHAR ampersand
ENCODING 38
SWIDTH 602 0
DWIDTH 10 0
BBX 11 12 0 0
BITMAP
1E00
2100
2100
2300
1C00
3000
C820
8420
8260
81C0
41C0
3EE0
ENDCHAR
STARTCHAR quotesingle
ENCODING 39
SWIDTH 602 0
DWIDTH 10 0
BBX 3 4 4 8
BITMAP
E0
E0
40
40
ENDCHAR
STARTCHAR parenleft
ENCODING 40
SWIDTH 602 0
DWIDTH 10 0
BBX 5 14 3 -2
BITMAP
18
30
60
40
80
80
80
80
80
80
40
40
30
18
ENDCHAR
STARTCHAR parenright
ENCODING 41
SWIDTH 602 0
DWIDTH 10 0
BBX 5 14 2 -2
BITMAP
C0
60
30
10
08
08
08
08
08
08
10
10
60
C0
ENDCHAR
STARTCHAR asterisk
ENCODING 42
SWIDTH 602 0
DWIDTH 10 0
BBX 8 7 1 5
BITMAP
18
18
DB
66
2C
76
24
ENDCHAR
STARTCHAR plus
ENCODING 43
SWIDTH 602 0
DWIDTH 10 0
BBX 9 9 1 0
BITMAP
0800
0800
0800
0800
FF80
0800
0800
0800
0800
ENDCHAR
STARTCHAR comma
ENCODING 44
SWIDTH 602 0
DWIDTH 10 0
BBX 2 6 4 -3
BITMAP
C0
C0
C0
40
40
80
ENDCHAR
STARTCHAR hyphen
ENCODING 45
SWIDTH 602 0
DWIDTH 10 0
BBX 9 1 1 4
BITMAP
FF80
ENDCHAR
STARTCHAR period
ENCODING 46
SWIDTH 602 0
DWIDTH 10 0
BBX 2 2 4 0
BITMAP
C0
C0
ENDCHAR
STARTCHAR slash
ENCODING 47
SWIDTH 602 0
DWIDTH 10 0
BBX 9 14 1 -2
BITMAP
0180
0100
0300
0200
0400
0400
0800
0800
1000
1000
2000
6000
4000
C000
ENDCHAR
STARTCHAR zero
ENCODING 48
SWIDTH 602 0
DWIDTH 10 0
BBX 8 12 1 0
BITMAP
3C
46
82
81
81
81
81
81
81
81
42
3C
ENDCHAR
STARTCHAR one
ENCODING 49
SWIDTH 602 0
DWIDTH 10 0
BBX 7 12 2 0
BITMAP
10
F0
10
10
10
10
10
10
10
10
10
FE
ENDCHAR
STARTCHAR two
ENCODING 50
SWIDTH 602 0
DWIDTH 10 0
BBX 6 12 2 0
BITMAP
78
8C
04
04
04
08
18
30
60
40
C0
FC
ENDCHAR
STARTCHAR three
ENCODING 51
SWIDTH 602 0
DWIDTH 10 0
BBX 6 12 2 0
BITMAP
F8
8C
04
04
08
70
0C
04
04
04
88
F0
ENDCHAR
STARTCHAR four
ENCODING 52
SWIDTH 602 0
DWIDTH 10 0
BBX 8 12 1 0
BITMAP
04
0C
1C
14
24
24
44
84
FF
04
04
04
ENDCHAR
STARTCHAR five
ENCODING 53
SWIDTH 602 0
DWIDTH 10 0
BBX 6 12 2 0
BITMAP
FC
80
80
80
F0
18
04
04
04
04
88
F0
ENDCHAR
STARTCHAR six
ENCODING 54
SWIDTH 602 0
DWIDTH 10 0
BBX 8 12 1 0
BITMAP
1E
22
40
80
BC
C2
81
81
81
81
42
3C
ENDCHAR
STARTCHAR seven
ENCODING 55
SWIDTH 602 0
DWIDTH 10 0
BBX 7 12 2 0
BITMAP
FE
06
04
0C
08
18
10
30
20
20
40
40
ENDCHAR
STARTCHAR eight
ENCODING 56
SWIDTH 602 0
DWIDTH 10 0
BBX 8 12 1 0
BITMAP
3E
63
41
41
72
3C
46
83
81
81
42
3C
ENDCHAR
STARTCHAR nine
ENCODING 57
SWIDTH 602 0
DWIDTH 10 0
BBX 8 12 1 0
BITMAP
3C
42
81
81
81
81
43
3D
01
02
44
78
ENDCHAR
STARTCHAR colon
ENCODING 58
SWIDTH 602 0
DWIDTH 10 0
BBX 2 9 4 0
BITMAP
C0
C0
00
00
00
00
00
C0
C0
ENDCHAR
STARTCHAR semicolon
ENCODING 59
SWIDTH 602 0
DWIDTH 10 0
BBX 2 12 4 -3
BITMAP
C0
C0
00
00
00
00
00
C0
C0
40
40
80
ENDCHAR
STARTCHAR less
ENCODING 60
SWIDTH 602 0
DWIDTH 10 0
BBX 9 9 1 0
BITMAP
0080
0380
0E00
3800
E000
3800
0E00
0380
0080
ENDCHAR
STARTCHAR equal
ENCODING 61
SWIDTH 602 0
DWIDTH 10 0
BBX 9 5 1 2
BITMAP
FF80
0000
0000
0000
FF80
ENDCHAR
STARTCHAR greater
ENCODING 62
SWIDTH 602 0
DWIDTH 10 0
BBX 9 9 1 0
BITMAP
8000
E000
3800
0E00
0380
0E00
3800
E000
8000
ENDCHAR
STARTCHAR question
ENCODING 63
SWIDTH 602 0
DWIDTH 10 0
BBX 7 12 2 0
BITMAP
FC
86
82
02
04
08
10
10
10
00
00
10
ENDCHAR
STARTCHAR at
ENCODING 64
SWIDTH 602 0
DWIDTH 10 0
BBX 9 12 1 0
BITMAP
1E00
2100
4700
8900
9100
9100
9300
9300
9700
4D80
6200
1E00
ENDCHAR
STARTCHAR A
ENCODING 65
SWIDTH 602 0
DWIDTH 10 0
BBX 10 12 0 0
BITMAP
0C00
0C00
0C00
1200
1200
1200
2100
2100
7F00
4080
4080
80C0
ENDCHAR
STARTCHAR B
ENCODING 66
SWIDTH 602 0
DWIDTH 10 0
BBX 8 12 1 0
BITMAP
FE
83
81
81
87
FC
86
83
81
81
83
FE
ENDCHAR
STARTCHAR C
ENCODING 67
SWIDTH 602 0
DWIDTH 10 0
BBX 9 12 1 0
BITMAP
1F80
2080
4000
C000
8000
8000
8000
8000
C000
4000
3080
1F80
ENDCHAR
STARTCHAR D
ENCODING 68
SWIDTH 602 0
DWIDTH 10 0
BBX 9 12 1 0
BITMAP
FE00
8300
8180
8080
8080
8080
8080
8080
8080
8100
8300
FC00
ENDCHAR
STARTCHAR E
ENCODING 69
SWIDTH 602 0
DWIDTH 10 0
BBX 7 12 2 0
BITMAP
FE
80
80
80
80
FC
80
80
80
80
80
FE
ENDCHAR
STARTCHAR F
ENCODING 70
SWIDTH 602 0
DWIDTH 10 0
BBX 7 12 2 0
BITMAP
FE
80
80
80
80
80
FC
80
80
80
80
80
ENDCHAR
STARTCHAR G
ENCODING 71
SWIDTH 602 0
DWIDTH 10 0
BBX 9 12 0 0
BITMAP
1F80
2080
4000
8000
8000
8000
8000
8080
C080
4080
3080
1F80
ENDCHAR
STARTCHAR H
ENCODING 72
SWIDTH 602 0
DWIDTH 10 0
BBX 8 12 1 0
BITMAP
81
81
81
81
81
FF
81
81
81
81
81
81
ENDCHAR
STARTCHAR I
ENCODING 73
SWIDTH 602 0
DWIDTH 10 0
BBX 7 12 2 0
BITMAP
FE
10
10
10
10
10
10
10
10
10
10
FE
ENDCHAR
STARTCHAR J
ENCODING 74
SWIDTH 602 0
DWIDTH 10 0
BBX 5 12 2 0
BITMAP
78
08
08
08
08
08
08
08
08
08
88
F0
ENDCHAR
STARTCHAR K
ENCODING 75
SWIDTH 602 0
DWIDTH 10 0
BBX 9 12 1 0
BITMAP
8300
8600
8C00
9800
9000
A000
E000
9000
8800
8400
8200
8180
ENDCHAR
STARTCHAR L
ENCODING 76
SWIDTH 602 0
DWIDTH 10 0
BBX 7 12 2 0
BITMAP
80
80
80
80
80
80
80
80
80
80
80
FE
ENDCHAR
STARTCHAR M
ENCODING 77
SWIDTH 602 0
DWIDTH 10 0
BBX 9 12 1 0
BITMAP
C180
C180
E380
A280
A280
A280
9480
9480
9480
9480
8880
8080
ENDCHAR
STARTCHAR N
ENCODING 78
SWIDTH 602 0
DWIDTH 10 0
BBX 8 12 1 0
BITMAP
81
C1
E1
A1
91
91
89
89
85
83
83
81
ENDCHAR
STARTCHAR O
ENCODING 79
SWIDTH 602 0
DWIDTH 10 0
BBX 9 12 1 0
BITMAP
3E00
6300
4100
8080
8080
8080
8080
8080
8080
4100
6300
3E00
ENDCHAR
STARTCHAR P
ENCODING 80
SWIDTH 602 0
DWIDTH 10 0
BBX 8 12 2 0
BITMAP
FE
83
81
81
81
82
FC
80
80
80
80
80
ENDCHAR
STARTCHAR Q
ENCODING 81
SWIDTH 602 0
DWIDTH 10 0
BBX 10 15 0 -3
BITMAP
3C00
6300
4100
8080
8080
8080
8080
8080
8080
4180
6300
1F00
0200
01C0
0080
ENDCHAR
STARTCHAR R
ENCODING 82
SWIDTH 602 0
DWIDTH 10 0
BBX 7 12 2 0
BITMAP
FC
86
82
82
82
8C
F8
88
8C
84
82
82
ENDCHAR
STARTCHAR S
ENCODING 83
SWIDTH 602 0
DWIDTH 10 0
BBX 8 12 1 0
BITMAP
3F
C1
80
80
40
38
06
03
01
01
82
7C
ENDCHAR
STARTCHAR T
ENCODING 84
SWIDTH 602 0
DWIDTH 10 0
BBX 9 12 1 0
BITMAP
FF80
0800
0800
0800
0800
0800
0800
0800
0800
0800
0800
0800
ENDCHAR
STARTCHAR U
ENCODING 85
SWIDTH 602 0
DWIDTH 10 0
BBX 8 12 1 0
BITMAP
81
81
81
81
81
81
81
81
81
81
C2
7C
ENDCHAR
STARTCHAR V
ENCODING 86
SWIDTH 602 0
DWIDTH 10 0
BBX 10 12 0 0
BITMAP
C040
4080
4080
2080
2100
2100
1300
1200
1200
0C00
0C00
0C00
ENDCHAR
STARTCHAR W
ENCODING 87
SWIDTH 602 0
DWIDTH 10 0
BBX 10 12 0 0
BITMAP
8040
8840
88C0
9C80
D480
D480
5480
5580
5380
6300
4100
4100
ENDCHAR
STARTCHAR X
ENCODING 88
SWIDTH 602 0
DWIDTH 10 0
BBX 10 12 0 0
BITMAP
40C0
2180
2100
1200
0E00
0C00
0C00
1200
1200
2100
4180
C0C0
ENDCHAR
STARTCHAR Y
ENCODING 89
SWIDTH 602 0
DWIDTH 10 0
BBX 9 12 1 0
BITMAP
C180
4100
2200
2200
1400
1400
0800
0800
0800
0800
0800
0800
ENDCHAR
STARTCHAR Z
ENCODING 90
SWIDTH 602 0
DWIDTH 10 0
BBX 9 12 1 0
BITMAP
FF80
0100
0300
0200
0400
0800
0800
1000
2000
6000
4000
FF80
ENDCHAR
STARTCHAR bracketleft
ENCODING 91
SWIDTH 602 0
DWIDTH 10 0
BBX 5 14 4 -2
BITMAP
F8
80
80
80
80
80
80
80
80
80
80
80
80
F8
ENDCHAR
STARTCHAR backslash
ENCODING 92
SWIDTH 602 0
DWIDTH 10 0
BBX 9 14 1 -2
BITMAP
C000
4000
6000
2000
1000
1000
0800
0800
0400
0400
0200
0300
0100
0180
ENDCHAR
STARTCHAR bracketright
ENCODING 93
SWIDTH 602 0
DWIDTH 10 0
BBX 5 14 1 -2
BITMAP
F8
08
08
08
08
08
08
08
08
08
08
08
08
F8
ENDCHAR
STARTCHAR asciicircum
ENCODING 94
SWIDTH 602 0
DWIDTH 10 0
BBX 9 10 1 2
BITMAP
0800
0800
0800
1400
1400
2200
2200
4100
4100
8080
ENDCHAR
STARTCHAR underscore
ENCODING 95
SWIDTH 602 0
DWIDTH 10 0
BBX 10 1 0 -1
BITMAP
FFC0
ENDCHAR
STARTCHAR grave
ENCODING 96
SWIDTH 602 0
DWIDTH 10 0
BBX 4 2 3 10
BITMAP
E0
30
ENDCHAR
STARTCHAR a
ENCODING 97
SWIDTH 602 0
DWIDTH 10 0
BBX 8 9 1 0
BITMAP
7C
42
02
02
3E
C2
82
86
7B
ENDCHAR
STARTCHAR b
ENCODING 98
SWIDTH 602 0
DWIDTH 10 0
BBX 8 12 1 0
BITMAP
80
80
80
BC
E2
81
81
81
81
83
C2
BC
ENDCHAR
STARTCHAR c
ENCODING 99
SWIDTH 602 0
DWIDTH 10 0
BBX 7 9 2 0
BITMAP
3E
42
80
80
80
80
C0
42
3E
ENDCHAR
STARTCHAR d
ENCODING 100
SWIDTH 602 0
DWIDTH 10 0
BBX 8 12 1 0
BITMAP
01
01
01
3D
43
C1
81
81
81
81
47
3D
ENDCHAR
STARTCHAR e
ENCODING 101
SWIDTH 602 0
DWIDTH 10 0
BBX 8 9 1 0
BITMAP
3E
42
81
81
FF
80
80
41
3F
ENDCHAR
STARTCHAR f
ENCODING 102
SWIDTH 602 0
DWIDTH 10 0
BBX 8 13 2 0
BITMAP
1F
20
20
20
FF
20
20
20
20
20
20
20
20
ENDCHAR
STARTCHAR g
ENCODING 103
SWIDTH 602 0
DWIDTH 10 0
BBX 8 12 1 -3
BITMAP
3D
43
81
81
81
81
81
47
3D
01
41
7E
ENDCHAR
STARTCHAR h
ENCODING 104
SWIDTH 602 0
DWIDTH 10 0
BBX 7 12 2 0
BITMAP
80
80
80
BC
C2
82
82
82
82
82
82
82
ENDCHAR
STARTCHAR i
ENCODING 105
SWIDTH 602 0
DWIDTH 10 0
BBX 4 12 2 0
BITMAP
10
00
00
F0
10
10
10
10
10
10
10
10
ENDCHAR
STARTCHAR j
ENCODING 106
SWIDTH 602 0
DWIDTH 10 0
BBX 5 15 2 -3
BITMAP
08
00
00
78
08
08
08
08
08
08
08
08
08
88
F0
ENDCHAR
STARTCHAR k
ENCODING 107
SWIDTH 602 0
DWIDTH 10 0
BBX 7 12 2 0
BITMAP
80
80
80
8C
98
90
A0
E0
B0
98
88
86
ENDCHAR
STARTCHAR l
ENCODING 108
SWIDTH 602 0
DWIDTH 10 0
BBX 4 12 2 0
BITMAP
F0
10
10
10
10
10
10
10
10
10
10
10
ENDCHAR
STARTCHAR m
ENCODING 109
SWIDTH 602 0
DWIDTH 10 0
BBX 9 9 1 0
BITMAP
B380
CC80
8880
8880
8880
8880
8880
8880
8880
ENDCHAR
STARTCHAR n
ENCODING 110
SWIDTH 602 0
DWIDTH 10 0
BBX 7 9 2 0
BITMAP
BC
C2
82
82
82
82
82
82
82
ENDCHAR
STARTCHAR o
ENCODING 111
SWIDTH 602 0
DWIDTH 10 0
BBX 9 9 1 0
BITMAP
3E00
6300
C180
8080
8080
8080
C180
6300
3E00
ENDCHAR
STARTCHAR p
ENCODING 112
SWIDTH 602 0
DWIDTH 10 0
BBX 8 12 1 -3
BITMAP
BC
E2
81
81
81
81
83
C2
BC
80
80
80
ENDCHAR
STARTCHAR q
ENCODING 113
SWIDTH 602 0
DWIDTH 10 0
BBX 8 12 1 -3
BITMAP
3D
43
C1
81
81
81
81
47
3D
01
01
01
ENDCHAR
STARTCHAR r
ENCODING 114
SWIDTH 602 0
DWIDTH 10 0
BBX 6 9 3 0
BITMAP
BC
C4
80
80
80
80
80
80
80
ENDCHAR
STARTCHAR s
ENCODING 115
SWIDTH 602 0
DWIDTH 10 0
BBX 7 9 2 0
BITMAP
7E
80
80
E0
38
06
02
86
FC
ENDCHAR
STARTCHAR t
ENCODING 116
SWIDTH 602 0
DWIDTH 10 0
BBX 7 11 2 0
BITMAP
20
20
FE
20
20
20
20
20
20
20
1E
ENDCHAR
STARTCHAR u
ENCODING 117
SWIDTH 602 0
DWIDTH 10 0
BBX 7 9 2 0
BITMAP
82
82
82
82
82
82
82
86
7A
ENDCHAR
STARTCHAR v
ENCODING 118
SWIDTH 602 0
DWIDTH 10 0
BBX 9 9 1 0
BITMAP
C080
4100
4100
2200
2200
1600
1400
1400
0800
ENDCHAR
STARTCHAR w
ENCODING 119
SWIDTH 602 0
DWIDTH 10 0
BBX 10 9 0 0
BITMAP
8040
8C40
8C80
5480
5280
5280
5280
6300
6300
ENDCHAR
STARTCHAR x
ENCODING 120
SWIDTH 602 0
DWIDTH 10 0
BBX 9 9 1 0
BITMAP
C100
2200
3600
1400
0800
1400
2600
6200
C180
ENDCHAR
STARTCHAR y
ENCODING 121
SWIDTH 602 0
DWIDTH 10 0
BBX 9 12 1 -3
BITMAP
C080
4100
4100
2200
2200
1400
1400
0800
0800
1800
1000
E000
ENDCHAR
STARTCHAR z
ENCODING 122
SWIDTH 602 0
DWIDTH 10 0
BBX 8 9 1 0
BITMAP
FF
02
04
08
18
30
60
40
FF
ENDCHAR
STARTCHAR braceleft
ENCODING 123
SWIDTH 602 0
DWIDTH 10 0
BBX 6 14 2 -2
BITMAP
1C
20
20
20
20
20
20
E0
20
20
20
20
20
1C
ENDCHAR
STARTCHAR bar
ENCODING 124
SWIDTH 602 0
DWIDTH 10 0
BBX 1 14 5 -2
BITMAP
80
80
80
80
80
80
80
80
80
80
80
80
80
80
ENDCHAR
STARTCHAR braceright
ENCODING 125
SWIDTH 602 0
DWIDTH 10 0
BBX 7 14 1 -2
BITMAP
E0
10
10
10
10
10
10
0E
10
10
10
10
10
E0
ENDCHAR
STARTCHAR asciitilde
ENCODING 126
SWIDTH 602 0
DWIDTH 10 0
BBX 9 3 1 3
BITMAP
7080
8880
8700
ENDCHAR
STARTCHAR space
ENCODING 160
SWIDTH 602 0
DWIDTH 10 0
BBX 1 1 0 0
BITMAP
00
ENDCHAR
STARTCHAR exclamdown
ENCODING 161
SWIDTH 602 0
DWIDTH 10 0
BBX 1 12 5 -3
BITMAP
80
00
00
80
80
80
80
80
80
80
80
80
ENDCHAR
STARTCHAR cent
ENCODING 162
SWIDTH 602 0
DWIDTH 10 0
BBX 7 12 2 0
BITMAP
08
1E
3A
48
88
88
88
88
88
6E
38
08
ENDCHAR
STARTCHAR sterling
ENCODING 163
SWIDTH 602 0
DWIDTH 10 0
BBX 6 12 2 0
BITMAP
1C
20
20
20
20
F8
20
20
20
20
C0
FC
ENDCHAR
STARTCHAR currency
ENCODING 164
SWIDTH 602 0
DWIDTH 10 0
BBX 9 8 1 2
BITMAP
8080
7F00
6300
4100
4100
6300
7F00
8080
ENDCHAR
STARTCHAR yen
ENCODING 165
SWIDTH 602 0
DWIDTH 10 0
BBX 9 12 1 0
BITMAP
C180
4100
2200
1600
1400
0800
7E00
0800
7E00
0800
0800
0800
ENDCHAR
STARTCHAR brokenbar
ENCODING 166
SWIDTH 602 0
DWIDTH 10 0
BBX 1 14 5 -2
BITMAP
80
80
80
80
80
80
00
00
80
80
80
80
80
80
ENDCHAR
STARTCHAR section
ENCODING 167
SWIDTH 602 0
DWIDTH 10 0
BBX 7 15 2 -3
BITMAP
3E
C2
80
80
F0
DC
86
82
C2
3C
0E
02
02
86
FC
ENDCHAR
STARTCHAR dieresis
ENCODING 168
SWIDTH 602 0
DWIDTH 10 0
BBX 5 1 3 11
BITMAP
98
ENDCHAR
STARTCHAR copyright
ENCODING 169
SWIDTH 602 0
DWIDTH 10 0
BBX 10 12 0 0
BITMAP
1F00
6180
40C0
9F40
B140
A040
A040
B040
9F40
C080
6180
3E00
ENDCHAR
STARTCHAR ordfeminine
ENCODING 170
SWIDTH 602 0
DWIDTH 10 0
BBX 6 6 2 6
BITMAP
F8
08
78
88
88
7C
ENDCHAR
STARTCHAR guillemotleft
ENCODING 171
SWIDTH 602 0
DWIDTH 10 0
BBX 8 7 1 1
BITMAP
11
32
64
C8
64
22
11
ENDCHAR
STARTCHAR logicalnot
ENCODING 172
SWIDTH 602 0
DWIDTH 10 0
BBX 9 5 1 2
BITMAP
FF80
0080
0080
0080
0080
ENDCHAR
STARTCHAR hyphen
ENCODING 173
SWIDTH 602 0
DWIDTH 10 0
BBX 7 1 2 5
BITMAP
FE
ENDCHAR
STARTCHAR registered
ENCODING 174
SWIDTH 602 0
DWIDTH 10 0
BBX 7 7 2 5
BITMAP
38
7C
AA
B2
AA
44
38
ENDCHAR
STARTCHAR macron
ENCODING 175
SWIDTH 602 0
DWIDTH 10 0
BBX 5 1 3 11
BITMAP
F8
ENDCHAR
STARTCHAR degree
ENCODING 176
SWIDTH 602 0
DWIDTH 10 0
BBX 3 2 4 10
BITMAP
E0
E0
ENDCHAR
STARTCHAR plusminus
ENCODING 177
SWIDTH 602 0
DWIDTH 10 0
BBX 9 9 1 0
BITMAP
0800
0800
0800
FF80
0800
0800
0800
0000
FF80
ENDCHAR
STARTCHAR twosuperior
ENCODING 178
SWIDTH 602 0
DWIDTH 10 0
BBX 4 6 -1 6
BITMAP
E0
10
10
60
40
F0
ENDCHAR
STARTCHAR threesuperior
ENCODING 179
SWIDTH 602 0
DWIDTH 10 0
BBX 4 6 -1 6
BITMAP
F0
10
60
10
10
E0
ENDCHAR
STARTCHAR acute
ENCODING 180
SWIDTH 602 0
DWIDTH 10 0
BBX 4 2 3 10
BITMAP
70
C0
ENDCHAR
STARTCHAR mu
ENCODING 181
SWIDTH 602 0
DWIDTH 10 0
BBX 7 11 2 -2
BITMAP
82
82
82
82
82
82
82
8E
FA
80
80
ENDCHAR
STARTCHAR paragraph
ENCODING 182
SWIDTH 602 0
DWIDTH 10 0
BBX 6 14 2 -2
BITMAP
7C
F4
F4
F4
F4
34
14
14
14
14
14
14
14
14
ENDCHAR
STARTCHAR periodcentered
ENCODING 183
SWIDTH 602 0
DWIDTH 10 0
BBX 2 1 4 5
BITMAP
C0
ENDCHAR
STARTCHAR cedilla
ENCODING 184
SWIDTH 602 0
DWIDTH 10 0
BBX 3 3 4 -3
BITMAP
C0
20
E0
ENDCHAR
STARTCHAR onesuperior
ENCODING 185
SWIDTH 602 0
DWIDTH 10 0
BBX 5 6 0 6
BITMAP
E0
20
20
20
20
F8
ENDCHAR
STARTCHAR ordmasculine
ENCODING 186
SWIDTH 602 0
DWIDTH 10 0
BBX 7 6 2 6
BITMAP
7C
C6
82
82
C6
7C
ENDCHAR
STARTCHAR guillemotright
ENCODING 187
SWIDTH 602 0
DWIDTH 10 0
BBX 8 7 1 1
BITMAP
88
4C
26
13
26
4C
88
ENDCHAR
STARTCHAR onequarter
ENCODING 188
SWIDTH 602 0
DWIDTH 10 0
BBX 10 12 2 0
BITMAP
E0C0
2080
2100
2200
2600
FC00
0980
1980
1280
2680
47C0
C080
ENDCHAR
STARTCHAR onehalf
ENCODING 189
SWIDTH 602 0
DWIDTH 10 0
BBX 10 12 2 0
BITMAP
E0C0
2080
2100
2200
2600
FC00
0B80
1840
1040
2180
4100
C3C0
ENDCHAR
STARTCHAR threequarters
ENCODING 190
SWIDTH 602 0
DWIDTH 10 0
BBX 10 12 2 0
BITMAP
F0C0
1080
6100
1200
1600
E400
0980
1980
1280
2680
47C0
C080
ENDCHAR
STARTCHAR questiondown
ENCODING 191
SWIDTH 602 0
DWIDTH 10 0
BBX 7 12 2 -3
BITMAP
10
00
00
10
10
10
20
40
80
82
C2
7E
ENDCHAR
STARTCHAR Agrave
ENCODING 192
SWIDTH 602 0
DWIDTH 10 0
BBX 10 15 0 0
BITMAP
1C00
0600
0000
0C00
0C00
0C00
1200
1200
1200
2100
2100
7F00
4080
4080
80C0
ENDCHAR
STARTCHAR Aacute
ENCODING 193
SWIDTH 602 0
DWIDTH 10 0
BBX 10 15 0 0
BITMAP
0E00
1800
0000
0C00
0C00
0C00
1200
1200
1200
2100
2100
7F00
4080
4080
80C0
ENDCHAR
STARTCHAR Acircumflex
ENCODING 194
SWIDTH 602 0
DWIDTH 10 0
BBX 10 15 0 0
BITMAP
1E00
3300
0000
0C00
0C00
0C00
1200
1200
1200
2100
2100
7F00
4080
4080
80C0
ENDCHAR
STARTCHAR Atilde
ENCODING 195
SWIDTH 602 0
DWIDTH 10 0
BBX 10 14 0 0
BITMAP
3F00
0000
0C00
0C00
0C00
1200
1200
1200
2100
2100
7F00
4080
4080
80C0
ENDCHAR
STARTCHAR Adieresis
ENCODING 196
SWIDTH 602 0
DWIDTH 10 0
BBX 10 14 0 0
BITMAP
1300
0000
0C00
0C00
0C00
1200
1200
1200
2100
2100
7F00
4080
4080
80C0
ENDCHAR
STARTCHAR Aring
ENCODING 197
SWIDTH 602 0
DWIDTH 10 0
BBX 10 15 0 0
BITMAP
0E00
0E00
0000
0C00
0C00
0C00
1200
1200
1200
2100
2100
7F00
4080
4080
80C0
ENDCHAR
STARTCHAR AE
ENCODING 198
SWIDTH 602 0
DWIDTH 10 0
BBX 9 12 0 0
BITMAP
0F80
0C00
0C00
1400
1400
3700
2400
2400
7C00
4400
4400
8780
ENDCHAR
STARTCHAR Ccedilla
ENCODING 199
SWIDTH 602 0
DWIDTH 10 0
BBX 9 15 1 -3
BITMAP
1F80
2080
4000
C000
8000
8000
8000
8000
C000
4000
3080
1F80
0800
0400
1C00
ENDCHAR
STARTCHAR Egrave
ENCODING 200
SWIDTH 602 0
DWIDTH 10 0
BBX 7 15 2 0
BITMAP
70
18
00
FE
80
80
80
80
FC
80
80
80
80
80
FE
ENDCHAR
STARTCHAR Eacute
ENCODING 201
SWIDTH 602 0
DWIDTH 10 0
BBX 7 15 2 0
BITMAP
38
60
00
FE
80
80
80
80
FC
80
80
80
80
80
FE
ENDCHAR
STARTCHAR Ecircumflex
ENCODING 202
SWIDTH 602 0
DWIDTH 10 0
BBX 7 15 2 0
BITMAP
3C
66
00
FE
80
80
80
80
FC
80
80
80
80
80
FE
ENDCHAR
STARTCHAR Edieresis
ENCODING 203
SWIDTH 602 0
DWIDTH 10 0
BBX 7 14 2 0
BITMAP
4C
00
FE
80
80
80
80
FC
80
80
80
80
80
FE
ENDCHAR
STARTCHAR Igrave
ENCODING 204
SWIDTH 602 0
DWIDTH 10 0
BBX 7 15 2 0
BITMAP
38
0C
00
FE
10
10
10
10
10
10
10
10
10
10
FE
ENDCHAR
STARTCHAR Iacute
ENCODING 205
SWIDTH 602 0
DWIDTH 10 0
BBX 7 15 2 0
BITMAP
38
60
00
FE
10
10
10
10
10
10
10
10
10
10
FE
ENDCHAR
STARTCHAR Icircumflex
ENCODING 206
SWIDTH 602 0
DWIDTH 10 0
BBX 7 15 2 0
BITMAP
78
CC
00
FE
10
10
10
10
10
10
10
10
10
10
FE
ENDCHAR
STARTCHAR Idieresis
ENCODING 207
SWIDTH 602 0
DWIDTH 10 0
BBX 7 14 2 0
BITMAP
4C
00
FE
10
10
10
10
10
10
10
10
10
10
FE
ENDCHAR
STARTCHAR Eth
ENCODING 208
SWIDTH 602 0
DWIDTH 10 0
BBX 10 12 0 0
BITMAP
7F00
4180
40C0
4040
4040
F040
4040
4040
4040
4080
4180
7E00
ENDCHAR
STARTCHAR Ntilde
ENCODING 209
SWIDTH 602 0
DWIDTH 10 0
BBX 8 14 1 0
BITMAP
7E
00
81
C1
E1
A1
91
91
89
89
85
83
83
81
ENDCHAR
STARTCHAR Ograve
ENCODING 210
SWIDTH 602 0
DWIDTH 10 0
BBX 9 15 1 0
BITMAP
1C00
0600
0000
3E00
6300
4100
8080
8080
8080
8080
8080
8080
4100
6300
3E00
ENDCHAR
STARTCHAR Oacute
ENCODING 211
SWIDTH 602 0
DWIDTH 10 0
BBX 9 15 1 0
BITMAP
1C00
3000
0000
3E00
6300
4100
8080
8080
8080
8080
8080
8080
4100
6300
3E00
ENDCHAR
STARTCHAR Ocircumflex
ENCODING 212
SWIDTH 602 0
DWIDTH 10 0
BBX 9 15 1 0
BITMAP
3C00
6600
0000
3E00
6300
4100
8080
8080
8080
8080
8080
8080
4100
6300
3E00
ENDCHAR
STARTCHAR Otilde
ENCODING 213
SWIDTH 602 0
DWIDTH 10 0
BBX 9 14 1 0
BITMAP
7E00
0000
3E00
6300
4100
8080
8080
8080
8080
8080
8080
4100
6300
3E00
ENDCHAR
STARTCHAR Odieresis
ENCODING 214
SWIDTH 602 0
DWIDTH 10 0
BBX 9 14 1 0
BITMAP
2600
0000
3E00
6300
4100
8080
8080
8080
8080
8080
8080
4100
6300
3E00
ENDCHAR
STARTCHAR multiply
ENCODING 215
SWIDTH 602 0
DWIDTH 10 0
BBX 9 9 1 0
BITMAP
8080
4100
2200
1400
0800
1400
2200
4100
8080
ENDCHAR
STARTCHAR Oslash
ENCODING 216
SWIDTH 602 0
DWIDTH 10 0
BBX 9 12 1 0
BITMAP
3F80
6380
4180
8280
8480
8C80
9880
9080
A080
C100
E300
FE00
ENDCHAR
STARTCHAR Ugrave
ENCODING 217
SWIDTH 602 0
DWIDTH 10 0
BBX 8 15 1 0
BITMAP
38
0C
00
81
81
81
81
81
81
81
81
81
81
C2
7C
ENDCHAR
STARTCHAR Uacute
ENCODING 218
SWIDTH 602 0
DWIDTH 10 0
BBX 8 15 1 0
BITMAP
1C
30
00
81
81
81
81
81
81
81
81
81
81
C2
7C
ENDCHAR
STARTCHAR Ucircumflex
ENCODING 219
SWIDTH 602 0
DWIDTH 10 0
BBX 8 15 1 0
BITMAP
3C
66
00
81
81
81
81
81
81
81
81
81
81
C2
7C
ENDCHAR
STARTCHAR Udieresis
ENCODING 220
SWIDTH 602 0
DWIDTH 10 0
BBX 8 14 1 0
BITMAP
4C
00
81
81
81
81
81
81
81
81
81
81
C2
7C
ENDCHAR
STARTCHAR Yacute
ENCODING 221
SWIDTH 602 0
DWIDTH 10 0
BBX 9 15 1 0
BITMAP
1C00
3000
0000
C180
4100
2200
2200
1400
1400
0800
0800
0800
0800
0800
0800
ENDCHAR
STARTCHAR Thorn
ENCODING 222
SWIDTH 602 0
DWIDTH 10 0
BBX 8 12 2 0
BITMAP
80
80
FE
83
81
81
81
82
FC
80
80
80
ENDCHAR
STARTCHAR germandbls
ENCODING 223
SWIDTH 602 0
DWIDTH 10 0
BBX 8 13 2 0
BITMAP
78
84
84
8C
88
90
90
8C
86
81
81
A1
BE
ENDCHAR
STARTCHAR agrave
ENCODING 224
SWIDTH 602 0
DWIDTH 10 0
BBX 8 12 1 0
BITMAP
38
0C
00
7C
42
02
02
3E
C2
82
86
7B
ENDCHAR
STARTCHAR aacute
ENCODING 225
SWIDTH 602 0
DWIDTH 10 0
BBX 8 12 1 0
BITMAP
38
60
00
7C
42
02
02
3E
C2
82
86
7B
ENDCHAR
STARTCHAR acircumflex
ENCODING 226
SWIDTH 602 0
DWIDTH 10 0
BBX 8 12 1 0
BITMAP
3C
66
00
7C
42
02
02
3E
C2
82
86
7B
ENDCHAR
STARTCHAR atilde
ENCODING 227
SWIDTH 602 0
DWIDTH 10 0
BBX 8 11 1 0
BITMAP
7E
00
7C
42
02
02
3E
C2
82
86
7B
ENDCHAR
STARTCHAR adieresis
ENCODING 228
SWIDTH 602 0
DWIDTH 10 0
BBX 8 11 1 0
BITMAP
4C
00
7C
42
02
02
3E
C2
82
86
7B
ENDCHAR
STARTCHAR aring
ENCODING 229
SWIDTH 602 0
DWIDTH 10 0
BBX 8 12 1 0
BITMAP
38
38
00
7C
42
02
02
3E
C2
82
86
7B
ENDCHAR
STARTCHAR ae
ENCODING 230
SWIDTH 602 0
DWIDTH 10 0
BBX 10 9 0 0
BITMAP
7B80
0640
0440
0440
3FC0
C400
8400
8640
7FC0
ENDCHAR
STARTCHAR ccedilla
ENCODING 231
SWIDTH 602 0
DWIDTH 10 0
BBX 7 12 2 -3
BITMAP
3E
42
80
80
80
80
C0
42
3E
10
08
38
ENDCHAR
STARTCHAR egrave
ENCODING 232
SWIDTH 602 0
DWIDTH 10 0
BBX 8 12 1 0
BITMAP
38
0C
00
3E
42
81
81
FF
80
80
41
3F
ENDCHAR
STARTCHAR eacute
ENCODING 233
SWIDTH 602 0
DWIDTH 10 0
BBX 8 12 1 0
BITMAP
1C
30
00
3E
42
81
81
FF
80
80
41
3F
ENDCHAR
STARTCHAR ecircumflex
ENCODING 234
SWIDTH 602 0
DWIDTH 10 0
BBX 8 12 1 0
BITMAP
3C
66
00
3E
42
81
81
FF
80
80
41
3F
ENDCHAR
STARTCHAR edieresis
ENCODING 235
SWIDTH 602 0
DWIDTH 10 0
BBX 8 11 1 0
BITMAP
4C
00
3E
42
81
81
FF
80
80
41
3F
ENDCHAR
STARTCHAR igrave
ENCODING 236
SWIDTH 602 0
DWIDTH 10 0
BBX 5 12 2 0
BITMAP
70
18
00
F0
10
10
10
10
10
10
10
10
ENDCHAR
STARTCHAR iacute
ENCODING 237
SWIDTH 602 0
DWIDTH 10 0
BBX 5 12 2 0
BITMAP
38
60
00
F0
10
10
10
10
10
10
10
10
ENDCHAR
STARTCHAR icircumflex
ENCODING 238
SWIDTH 602 0
DWIDTH 10 0
BBX 6 12 2 0
BITMAP
78
CC
00
F0
10
10
10
10
10
10
10
10
ENDCHAR
STARTCHAR idieresis
ENCODING 239
SWIDTH 602 0
DWIDTH 10 0
BBX 6 11 2 0
BITMAP
4C
00
F0
10
10
10
10
10
10
10
10
ENDCHAR
STARTCHAR eth
ENCODING 240
SWIDTH 602 0
DWIDTH 10 0
BBX 8 12 1 0
BITMAP
FC
68
84
3E
42
81
81
81
81
81
42
3C
ENDCHAR
STARTCHAR ntilde
ENCODING 241
SWIDTH 602 0
DWIDTH 10 0
BBX 7 11 2 0
BITMAP
FC
00
BC
C2
82
82
82
82
82
82
82
ENDCHAR
STARTCHAR ograve
ENCODING 242
SWIDTH 602 0
DWIDTH 10 0
BBX 9 12 1 0
BITMAP
1C00
0600
0000
3E00
6300
C180
8080
8080
8080
C180
6300
3E00
ENDCHAR
STARTCHAR oacute
ENCODING 243
SWIDTH 602 0
DWIDTH 10 0
BBX 9 12 1 0
BITMAP
1C00
3000
0000
3E00
6300
C180
8080
8080
8080
C180
6300
3E00
ENDCHAR
STARTCHAR ocircumflex
ENCODING 244
SWIDTH 602 0
DWIDTH 10 0
BBX 9 12 1 0
BITMAP
3C00
6600
0000
3E00
6300
C180
8080
8080
8080
C180
6300
3E00
ENDCHAR
STARTCHAR otilde
ENCODING 245
SWIDTH 602 0
DWIDTH 10 0
BBX 9 11 1 0
BITMAP
7E00
0000
3E00
6300
C180
8080
8080
8080
C180
6300
3E00
ENDCHAR
STARTCHAR odieresis
ENCODING 246
SWIDTH 602 0
DWIDTH 10 0
BBX 9 11 1 0
BITMAP
2600
0000
3E00
6300
C180
8080
8080
8080
C180
6300
3E00
ENDCHAR
STARTCHAR divide
ENCODING 247
SWIDTH 602 0
DWIDTH 10 0
BBX 7 9 2 0
BITMAP
10
00
00
00
FE
00
00
00
10
ENDCHAR
STARTCHAR oslash
ENCODING 248
SWIDTH 602 0
DWIDTH 10 0
BBX 9 9 1 0
BITMAP
3F80
6180
C280
8480
8880
9080
A180
C300
FE00
ENDCHAR
STARTCHAR ugrave
ENCODING 249
SWIDTH 602 0
DWIDTH 10 0
BBX 7 12 2 0
BITMAP
38
0C
00
82
82
82
82
82
82
82
86
7A
ENDCHAR
STARTCHAR uacute
ENCODING 250
SWIDTH 602 0
DWIDTH 10 0
BBX 7 12 2 0
BITMAP
38
60
00
82
82
82
82
82
82
82
86
7A
ENDCHAR
STARTCHAR ucircumflex
ENCODING 251
SWIDTH 602 0
DWIDTH 10 0
BBX 7 12 2 0
BITMAP
3C
66
00
82
82
82
82
82
82
82
86
7A
ENDCHAR
STARTCHAR udieresis
ENCODING 252
SWIDTH 602 0
DWIDTH 10 0
BBX 7 11 2 0
BITMAP
4C
00
82
82
82
82
82
82
82
86
7A
ENDCHAR
STARTCHAR yacute
ENCODING 253
SWIDTH 602 0
DWIDTH 10 0
BBX 9 15 1 -3
BITMAP
1C00
3000
0000
C080
4100
4100
2200
2200
1400
1400
0800
0800
1800
1000
E000
ENDCHAR
STARTCHAR thorn
ENCODING 254
SWIDTH 602 0
DWIDTH 10 0
BBX 8 14 1 -3
BITMAP
80
80
BC
E2
81
81
81
81
83
C2
BC
80
80
80
ENDCHAR
STARTCHAR ydieresis
ENCODING 255
SWIDTH 602 0
DWIDTH 10 0
BBX 9 14 1 -3
BITMAP
2600
0000
C080
4100
4100
2200
2200
1400
1400
0800
0800
1800
1000
E000
ENDCHAR
ENDFONT
