STARTFONT 2.1
COMMENT AUTOMATICALLY GENERATED FILE. DO NOT EDIT!
COMMENT Generated with 'ucs2any.pl ncenBI10.bdf ../../../fonts/util/map-ISO8859-1 ISO8859-1'
COMMENT from an ISO10646-1 encoded source BDF font.
COMMENT ucs2any.pl by Markus Kuhn <mkuhn@acm.org>, 2000.
FONT -Adobe-New Century Schoolbook-Bold-I-Normal--14-100-100-100-P-88-ISO8859-1
SIZE 10 100 100
FONTBOUNDINGBOX 19 18 -3 -3
COMMENT $Xorg: $
COMMENT ISO10646-1 extension by Markus Kuhn <mkuhn@acm.org>, 2001-03-20
COMMENT 
COMMENT +
COMMENT  Copyright 1984-1989, 1994 Adobe Systems Incorporated.
COMMENT  Copyright 1988, 1994 Digital Equipment Corporation.
COMMENT
COMMENT  Adobe is a trademark of Adobe Systems Incorporated which may be
COMMENT  registered in certain jurisdictions.
COMMENT  Permission to use these trademarks is hereby granted only in
COMMENT  association with the images described in this file.
COMMENT
COMMENT  Permission to use, copy, modify, distribute and sell this software
COMMENT  and its documentation for any purpose and without fee is hereby
COMMENT  granted, provided that the above copyright notices appear in all
COMMENT  copies and that both those copyright notices and this permission
COMMENT  notice appear in supporting documentation, and that the names of
COMMENT  Adobe Systems and Digital Equipment Corporation not be used in
COMMENT  advertising or publicity pertaining to distribution of the software
COMMENT  without specific, written prior permission.  Adobe Systems and
COMMENT  Digital Equipment Corporation make no representations about the
COMMENT  suitability of this software for any purpose.  It is provided "as
COMMENT  is" without express or implied warranty.
COMMENT -
STARTPROPERTIES 26
FOUNDRY "Adobe"
FAMILY_NAME "New Century Schoolbook"
WEIGHT_NAME "Bold"
SLANT "I"
SETWIDTH_NAME "Normal"
ADD_STYLE_NAME ""
PIXEL_SIZE 14
POINT_SIZE 100
RESOLUTION_X 100
RESOLUTION_Y 100
SPACING "P"
AVERAGE_WIDTH 88
CHARSET_REGISTRY "ISO8859"
CHARSET_ENCODING "1"
CAP_HEIGHT 11
X_HEIGHT 7
FONT_ASCENT 13
FONT_DESCENT 3
FACE_NAME "New Century Schoolbook Bold Italic"
COPYRIGHT "Copyright (c) 1984, 1987 Adobe Systems Incorporated. All Rights Reserved. Copyright (c) 1988, 1991 Digital Equipment Corporation. All Rights Reserved."
NOTICE "New Century Schoolbook is a trademark of Linotype-Hell AG and/or its subsidiaries."
_DEC_DEVICE_FONTNAMES "PS=NewCenturySchlbk-BoldItalic"
DEFAULT_CHAR 0
RELATIVE_SETWIDTH 50
RELATIVE_WEIGHT 70
FULL_NAME "New Century Schoolbook Bold Italic"
ENDPROPERTIES
CHARS 192
STARTCHAR defaultchar
ENCODING 0
SWIDTH 870 0
DWIDTH 12 0
BBX 11 11 0 0
BITMAP
AAA0
0000
8020
0000
8020
0000
8020
0000
8020
0000
AAA0
ENDCHAR
STARTCHAR space
ENCODING 32
SWIDTH 287 0
DWIDTH 4 0
BBX 1 1 0 0
BITMAP
00
ENDCHAR
STARTCHAR exclam
ENCODING 33
SWIDTH 333 0
DWIDTH 5 0
BBX 4 11 0 0
BITMAP
30
30
30
60
60
60
40
40
00
C0
C0
ENDCHAR
STARTCHAR quotedbl
ENCODING 34
SWIDTH 400 0
DWIDTH 6 0
BBX 6 4 0 7
BITMAP
6C
6C
D8
90
ENDCHAR
STARTCHAR numbersign
ENCODING 35
SWIDTH 606 0
DWIDTH 8 0
BBX 7 10 0 0
BITMAP
14
14
14
7E
28
28
FC
50
50
50
ENDCHAR
STARTCHAR dollar
ENCODING 36
SWIDTH 574 0
DWIDTH 8 0
BBX 7 13 0 -1
BITMAP
04
1E
2A
48
68
70
38
1C
2C
24
A8
F0
40
ENDCHAR
STARTCHAR percent
ENCODING 37
SWIDTH 889 0
DWIDTH 13 0
BBX 12 12 0 -1
BITMAP
3080
6F80
C900
C900
D200
6260
04D0
0590
0990
09A0
10C0
1000
ENDCHAR
STARTCHAR ampersand
ENCODING 38
SWIDTH 889 0
DWIDTH 13 0
BBX 12 11 0 0
BITMAP
0E00
1300
3300
3200
1C00
38F0
5C40
CE80
C700
E790
79E0
ENDCHAR
STARTCHAR quotesingle
ENCODING 39
SWIDTH 287 0
DWIDTH 4 0
BBX 1 4 1 7
BITMAP
80
80
80
80
ENDCHAR
STARTCHAR parenleft
ENCODING 40
SWIDTH 407 0
DWIDTH 5 0
BBX 5 13 0 -2
BITMAP
08
10
30
60
60
C0
C0
C0
C0
C0
C0
40
20
ENDCHAR
STARTCHAR parenright
ENCODING 41
SWIDTH 407 0
DWIDTH 6 0
BBX 5 13 -1 -2
BITMAP
20
10
18
18
18
18
18
18
30
30
60
40
80
ENDCHAR
STARTCHAR asterisk
ENCODING 42
SWIDTH 500 0
DWIDTH 7 0
BBX 5 5 1 6
BITMAP
20
A8
70
A8
20
ENDCHAR
STARTCHAR plus
ENCODING 43
SWIDTH 606 0
DWIDTH 8 0
BBX 7 7 0 1
BITMAP
10
10
10
FE
10
10
10
ENDCHAR
STARTCHAR comma
ENCODING 44
SWIDTH 287 0
DWIDTH 4 0
BBX 3 5 -1 -3
BITMAP
60
60
20
40
80
ENDCHAR
STARTCHAR hyphen
ENCODING 45
SWIDTH 333 0
DWIDTH 5 0
BBX 4 1 0 4
BITMAP
F0
ENDCHAR
STARTCHAR period
ENCODING 46
SWIDTH 287 0
DWIDTH 4 0
BBX 2 2 0 0
BITMAP
C0
C0
ENDCHAR
STARTCHAR slash
ENCODING 47
SWIDTH 278 0
DWIDTH 5 0
BBX 4 11 0 0
BITMAP
10
10
10
20
20
20
40
40
40
80
80
ENDCHAR
STARTCHAR zero
ENCODING 48
SWIDTH 574 0
DWIDTH 8 0
BBX 7 11 0 0
BITMAP
1C
36
66
66
46
C4
CC
CC
CC
D8
70
ENDCHAR
STARTCHAR one
ENCODING 49
SWIDTH 574 0
DWIDTH 8 0
BBX 6 11 0 0
BITMAP
0C
3C
18
18
18
18
30
30
30
30
FC
ENDCHAR
STARTCHAR two
ENCODING 50
SWIDTH 574 0
DWIDTH 8 0
BBX 7 11 0 0
BITMAP
3C
66
66
06
0C
18
30
60
C2
FC
FC
ENDCHAR
STARTCHAR three
ENCODING 51
SWIDTH 574 0
DWIDTH 8 0
BBX 7 11 0 0
BITMAP
1C
26
66
04
18
0C
0C
0C
CC
D8
70
ENDCHAR
STARTCHAR four
ENCODING 52
SWIDTH 574 0
DWIDTH 8 0
BBX 7 11 0 0
BITMAP
06
0E
16
26
2C
4C
8C
FE
18
18
7E
ENDCHAR
STARTCHAR five
ENCODING 53
SWIDTH 574 0
DWIDTH 8 0
BBX 7 11 0 0
BITMAP
3E
3C
20
40
78
0C
0C
0C
CC
D8
70
ENDCHAR
STARTCHAR six
ENCODING 54
SWIDTH 574 0
DWIDTH 8 0
BBX 7 11 0 0
BITMAP
1C
36
66
60
78
CC
CC
CC
CC
D8
70
ENDCHAR
STARTCHAR seven
ENCODING 55
SWIDTH 574 0
DWIDTH 8 0
BBX 7 11 0 0
BITMAP
7E
7E
84
0C
18
18
30
30
60
60
60
ENDCHAR
STARTCHAR eight
ENCODING 56
SWIDTH 574 0
DWIDTH 8 0
BBX 7 11 0 0
BITMAP
1C
32
22
32
3C
3C
4C
C4
C4
CC
78
ENDCHAR
STARTCHAR nine
ENCODING 57
SWIDTH 574 0
DWIDTH 8 0
BBX 7 11 0 0
BITMAP
1C
36
66
66
66
66
3C
0C
CC
D8
70
ENDCHAR
STARTCHAR colon
ENCODING 58
SWIDTH 287 0
DWIDTH 4 0
BBX 3 7 0 0
BITMAP
60
60
00
00
00
C0
C0
ENDCHAR
STARTCHAR semicolon
ENCODING 59
SWIDTH 287 0
DWIDTH 5 0
BBX 4 10 -1 -3
BITMAP
30
30
00
00
00
60
60
20
40
80
ENDCHAR
STARTCHAR less
ENCODING 60
SWIDTH 606 0
DWIDTH 9 0
BBX 8 9 0 0
BITMAP
01
07
1C
70
C0
70
1C
07
01
ENDCHAR
STARTCHAR equal
ENCODING 61
SWIDTH 606 0
DWIDTH 9 0
BBX 8 4 0 3
BITMAP
FF
00
00
FF
ENDCHAR
STARTCHAR greater
ENCODING 62
SWIDTH 606 0
DWIDTH 9 0
BBX 8 9 0 0
BITMAP
80
E0
38
0E
03
0E
38
E0
80
ENDCHAR
STARTCHAR question
ENCODING 63
SWIDTH 481 0
DWIDTH 7 0
BBX 5 11 1 0
BITMAP
70
98
98
30
60
C0
90
60
00
C0
C0
ENDCHAR
STARTCHAR at
ENCODING 64
SWIDTH 747 0
DWIDTH 13 0
BBX 12 11 0 0
BITMAP
0F80
3060
4020
4D90
9B90
B190
B320
B720
9BC0
4020
3FC0
ENDCHAR
STARTCHAR A
ENCODING 65
SWIDTH 741 0
DWIDTH 11 0
BBX 11 11 -1 0
BITMAP
0300
0700
0700
0D80
0980
1980
1180
3FC0
20C0
60C0
F1E0
ENDCHAR
STARTCHAR B
ENCODING 66
SWIDTH 759 0
DWIDTH 10 0
BBX 9 11 0 0
BITMAP
7F00
3180
3180
3180
3300
7E00
6180
6180
6180
6300
FE00
ENDCHAR
STARTCHAR C
ENCODING 67
SWIDTH 759 0
DWIDTH 11 0
BBX 10 11 0 0
BITMAP
0F40
30C0
6040
6040
C000
C000
C000
C000
C080
6180
3E00
ENDCHAR
STARTCHAR D
ENCODING 68
SWIDTH 833 0
DWIDTH 12 0
BBX 11 11 0 0
BITMAP
7F80
30C0
3060
3060
3060
6060
6060
60C0
60C0
6180
FE00
ENDCHAR
STARTCHAR E
ENCODING 69
SWIDTH 741 0
DWIDTH 10 0
BBX 9 11 0 0
BITMAP
7F80
3080
3080
3200
3200
7E00
6200
6200
6080
6100
FF00
ENDCHAR
STARTCHAR F
ENCODING 70
SWIDTH 704 0
DWIDTH 10 0
BBX 9 11 0 0
BITMAP
7F80
3080
3080
3200
3200
7E00
6200
6200
6000
6000
F000
ENDCHAR
STARTCHAR G
ENCODING 71
SWIDTH 815 0
DWIDTH 11 0
BBX 10 11 0 0
BITMAP
0F40
30C0
6040
6040
C000
C000
C7C0
C180
C180
6300
3D00
ENDCHAR
STARTCHAR H
ENCODING 72
SWIDTH 870 0
DWIDTH 12 0
BBX 11 11 0 0
BITMAP
79E0
30C0
30C0
30C0
30C0
7F80
6180
6180
6180
6180
F3C0
ENDCHAR
STARTCHAR I
ENCODING 73
SWIDTH 444 0
DWIDTH 6 0
BBX 5 11 0 0
BITMAP
78
30
30
30
30
60
60
60
60
60
F0
ENDCHAR
STARTCHAR J
ENCODING 74
SWIDTH 667 0
DWIDTH 8 0
BBX 8 11 -1 0
BITMAP
0F
06
06
06
06
0C
0C
0C
CC
C8
70
ENDCHAR
STARTCHAR K
ENCODING 75
SWIDTH 778 0
DWIDTH 12 0
BBX 11 11 0 0
BITMAP
79E0
3080
3100
3200
3400
3C00
6600
6700
6380
61C0
F3E0
ENDCHAR
STARTCHAR L
ENCODING 76
SWIDTH 704 0
DWIDTH 10 0
BBX 9 11 0 0
BITMAP
7800
3000
3000
3000
3000
6000
6000
6000
6080
6100
FF00
ENDCHAR
STARTCHAR M
ENCODING 77
SWIDTH 944 0
DWIDTH 15 0
BBX 14 11 0 0
BITMAP
783C
3838
3858
2C58
2CD8
2C98
2DB0
6730
4630
4630
E678
ENDCHAR
STARTCHAR N
ENCODING 78
SWIDTH 852 0
DWIDTH 13 0
BBX 12 11 0 0
BITMAP
7870
3820
3C20
2C20
2E60
2640
6740
4340
43C0
41C0
E1C0
ENDCHAR
STARTCHAR O
ENCODING 79
SWIDTH 833 0
DWIDTH 12 0
BBX 11 11 0 0
BITMAP
0F80
30C0
6060
6060
C060
C060
C060
C0C0
C0C0
6180
3E00
ENDCHAR
STARTCHAR P
ENCODING 80
SWIDTH 741 0
DWIDTH 11 0
BBX 10 11 0 0
BITMAP
7F80
30C0
30C0
30C0
3180
3F00
6000
6000
6000
6000
F000
ENDCHAR
STARTCHAR Q
ENCODING 81
SWIDTH 833 0
DWIDTH 12 0
BBX 11 13 0 -2
BITMAP
0F80
30C0
6060
6060
C060
C060
C060
DCC0
E6C0
6380
3F20
03C0
0180
ENDCHAR
STARTCHAR R
ENCODING 82
SWIDTH 796 0
DWIDTH 12 0
BBX 11 11 0 0
BITMAP
7F80
30C0
30C0
30C0
3180
3E00
6300
6300
6180
61A0
F1C0
ENDCHAR
STARTCHAR S
ENCODING 83
SWIDTH 685 0
DWIDTH 10 0
BBX 9 11 0 0
BITMAP
1E80
7180
6080
6080
7800
3E00
0F00
8300
8300
C700
BC00
ENDCHAR
STARTCHAR T
ENCODING 84
SWIDTH 722 0
DWIDTH 11 0
BBX 10 11 0 0
BITMAP
FFC0
CCC0
8C40
0C00
0C00
1800
1800
1800
1800
1800
3C00
ENDCHAR
STARTCHAR U
ENCODING 85
SWIDTH 833 0
DWIDTH 12 0
BBX 10 11 1 0
BITMAP
F1C0
6080
6080
6080
6080
C180
C100
C100
C100
E300
7E00
ENDCHAR
STARTCHAR V
ENCODING 86
SWIDTH 741 0
DWIDTH 11 0
BBX 11 11 0 0
BITMAP
F9E0
60C0
6080
6180
3100
3300
3200
3400
1C00
1800
1800
ENDCHAR
STARTCHAR W
ENCODING 87
SWIDTH 944 0
DWIDTH 15 0
BBX 16 11 0 0
BITMAP
FBCF
6186
6184
638C
6388
34D8
34D0
38E0
38E0
30C0
30C0
ENDCHAR
STARTCHAR X
ENCODING 88
SWIDTH 741 0
DWIDTH 11 0
BBX 12 11 -1 0
BITMAP
3CF0
1860
0CC0
0D80
0700
0600
0F00
1B00
3180
6180
F3C0
ENDCHAR
STARTCHAR Y
ENCODING 89
SWIDTH 704 0
DWIDTH 9 0
BBX 10 11 0 0
BITMAP
F1C0
6180
3300
3200
1C00
1800
1800
1000
3000
3000
7800
ENDCHAR
STARTCHAR Z
ENCODING 90
SWIDTH 704 0
DWIDTH 10 0
BBX 9 11 0 0
BITMAP
7F80
4180
4380
0700
0E00
1C00
3800
7000
E100
C100
FF00
ENDCHAR
STARTCHAR bracketleft
ENCODING 91
SWIDTH 407 0
DWIDTH 7 0
BBX 6 13 0 -2
BITMAP
3C
30
30
30
60
60
60
60
C0
C0
C0
C0
F0
ENDCHAR
STARTCHAR backslash
ENCODING 92
SWIDTH 606 0
DWIDTH 9 0
BBX 6 11 1 0
BITMAP
80
80
40
40
20
20
10
10
08
08
04
ENDCHAR
STARTCHAR bracketright
ENCODING 93
SWIDTH 407 0
DWIDTH 7 0
BBX 6 13 -1 -2
BITMAP
3C
0C
0C
0C
18
18
18
18
30
30
30
30
F0
ENDCHAR
STARTCHAR asciicircum
ENCODING 94
SWIDTH 606 0
DWIDTH 8 0
BBX 7 7 0 4
BITMAP
10
10
38
28
6C
44
C6
ENDCHAR
STARTCHAR underscore
ENCODING 95
SWIDTH 500 0
DWIDTH 9 0
BBX 9 1 -1 -2
BITMAP
FF80
ENDCHAR
STARTCHAR grave
ENCODING 96
SWIDTH 333 0
DWIDTH 5 0
BBX 4 3 0 8
BITMAP
C0
60
10
ENDCHAR
STARTCHAR a
ENCODING 97
SWIDTH 667 0
DWIDTH 10 0
BBX 9 7 0 0
BITMAP
3B00
6700
C300
C600
C600
CE80
7700
ENDCHAR
STARTCHAR b
ENCODING 98
SWIDTH 611 0
DWIDTH 8 0
BBX 7 11 0 0
BITMAP
70
30
30
60
7C
66
C6
C6
C6
CC
78
ENDCHAR
STARTCHAR c
ENCODING 99
SWIDTH 537 0
DWIDTH 8 0
BBX 7 7 0 0
BITMAP
3C
66
C6
C0
C0
C4
78
ENDCHAR
STARTCHAR d
ENCODING 100
SWIDTH 667 0
DWIDTH 10 0
BBX 9 11 0 0
BITMAP
0380
0180
0180
0300
3B00
6700
C300
C600
C600
CE80
7700
ENDCHAR
STARTCHAR e
ENCODING 101
SWIDTH 519 0
DWIDTH 8 0
BBX 7 7 0 0
BITMAP
3C
66
C6
FC
C0
C4
78
ENDCHAR
STARTCHAR f
ENCODING 102
SWIDTH 389 0
DWIDTH 5 0
BBX 7 14 0 -3
BITMAP
0E
16
30
30
F8
60
60
60
60
C0
C0
C0
C0
80
ENDCHAR
STARTCHAR g
ENCODING 103
SWIDTH 611 0
DWIDTH 8 0
BBX 9 12 -1 -3
BITMAP
0180
0380
1E00
2300
6300
6200
3C00
4000
7E00
7F00
8300
FC00
ENDCHAR
STARTCHAR h
ENCODING 104
SWIDTH 685 0
DWIDTH 10 0
BBX 9 11 0 0
BITMAP
7000
3000
3000
6000
6600
6F00
7300
C300
C600
C680
C700
ENDCHAR
STARTCHAR i
ENCODING 105
SWIDTH 389 0
DWIDTH 5 0
BBX 4 10 0 0
BITMAP
30
30
00
E0
60
60
C0
C0
D0
E0
ENDCHAR
STARTCHAR j
ENCODING 106
SWIDTH 370 0
DWIDTH 4 0
BBX 7 13 -3 -3
BITMAP
06
06
00
1C
0C
0C
0C
18
18
18
18
D0
E0
ENDCHAR
STARTCHAR k
ENCODING 107
SWIDTH 648 0
DWIDTH 9 0
BBX 8 11 0 0
BITMAP
70
30
30
60
6F
73
66
F8
CC
CF
C6
ENDCHAR
STARTCHAR l
ENCODING 108
SWIDTH 389 0
DWIDTH 5 0
BBX 4 11 0 0
BITMAP
70
30
30
60
60
60
60
C0
C0
D0
E0
ENDCHAR
STARTCHAR m
ENCODING 109
SWIDTH 944 0
DWIDTH 15 0
BBX 14 7 0 0
BITMAP
E630
6F78
7398
6318
C630
C634
C638
ENDCHAR
STARTCHAR n
ENCODING 110
SWIDTH 685 0
DWIDTH 10 0
BBX 9 7 0 0
BITMAP
E600
6F00
7300
6300
C600
C680
C700
ENDCHAR
STARTCHAR o
ENCODING 111
SWIDTH 574 0
DWIDTH 8 0
BBX 7 7 0 0
BITMAP
3C
66
C6
C6
C6
CC
78
ENDCHAR
STARTCHAR p
ENCODING 112
SWIDTH 648 0
DWIDTH 8 0
BBX 9 10 -2 -3
BITMAP
3B00
1D80
1980
3180
3180
3300
3E00
6000
6000
F000
ENDCHAR
STARTCHAR q
ENCODING 113
SWIDTH 630 0
DWIDTH 9 0
BBX 8 10 0 -3
BITMAP
3D
67
C3
C3
C6
CE
76
0C
0C
1E
ENDCHAR
STARTCHAR r
ENCODING 114
SWIDTH 519 0
DWIDTH 7 0
BBX 7 7 0 0
BITMAP
EE
76
60
60
C0
C0
C0
ENDCHAR
STARTCHAR s
ENCODING 115
SWIDTH 481 0
DWIDTH 8 0
BBX 7 7 0 0
BITMAP
1E
66
60
38
0C
CC
F0
ENDCHAR
STARTCHAR t
ENCODING 116
SWIDTH 407 0
DWIDTH 5 0
BBX 5 9 0 0
BITMAP
30
30
F8
60
60
C0
C0
D0
E0
ENDCHAR
STARTCHAR u
ENCODING 117
SWIDTH 685 0
DWIDTH 10 0
BBX 9 7 0 0
BITMAP
E300
6300
6300
C600
CE00
F680
6700
ENDCHAR
STARTCHAR v
ENCODING 118
SWIDTH 556 0
DWIDTH 8 0
BBX 7 7 0 0
BITMAP
E6
66
62
C2
C4
CC
78
ENDCHAR
STARTCHAR w
ENCODING 119
SWIDTH 833 0
DWIDTH 13 0
BBX 12 7 0 0
BITMAP
E330
6330
6310
C610
C620
CE60
73C0
ENDCHAR
STARTCHAR x
ENCODING 120
SWIDTH 574 0
DWIDTH 9 0
BBX 8 7 0 0
BITMAP
33
77
1C
18
39
EE
CC
ENDCHAR
STARTCHAR y
ENCODING 121
SWIDTH 519 0
DWIDTH 9 0
BBX 9 10 -1 -3
BITMAP
6180
7180
B100
1A00
1A00
0C00
0C00
0800
D000
E000
ENDCHAR
STARTCHAR z
ENCODING 122
SWIDTH 519 0
DWIDTH 9 0
BBX 8 7 0 0
BITMAP
3B
7E
44
08
31
7E
9C
ENDCHAR
STARTCHAR braceleft
ENCODING 123
SWIDTH 407 0
DWIDTH 6 0
BBX 5 13 0 -2
BITMAP
08
10
30
30
30
20
C0
60
60
60
60
60
30
ENDCHAR
STARTCHAR bar
ENCODING 124
SWIDTH 606 0
DWIDTH 9 0
BBX 1 11 4 0
BITMAP
80
80
80
80
80
80
80
80
80
80
80
ENDCHAR
STARTCHAR braceright
ENCODING 125
SWIDTH 407 0
DWIDTH 6 0
BBX 5 13 0 -2
BITMAP
60
30
30
30
30
18
20
60
60
60
60
40
80
ENDCHAR
STARTCHAR asciitilde
ENCODING 126
SWIDTH 606 0
DWIDTH 11 0
BBX 10 3 0 3
BITMAP
38C0
7F80
C700
ENDCHAR
STARTCHAR space
ENCODING 160
SWIDTH 287 0
DWIDTH 4 0
BBX 1 1 0 0
BITMAP
00
ENDCHAR
STARTCHAR exclamdown
ENCODING 161
SWIDTH 333 0
DWIDTH 5 0
BBX 4 11 0 -3
BITMAP
30
30
00
20
20
60
60
60
C0
C0
C0
ENDCHAR
STARTCHAR cent
ENCODING 162
SWIDTH 574 0
DWIDTH 8 0
BBX 7 9 0 -1
BITMAP
04
3C
6E
D6
D0
D0
E4
78
40
ENDCHAR
STARTCHAR sterling
ENCODING 163
SWIDTH 574 0
DWIDTH 10 0
BBX 9 11 0 0
BITMAP
0700
0980
1980
1800
1800
7F00
1800
1800
7080
BF00
DE00
ENDCHAR
STARTCHAR currency
ENCODING 164
SWIDTH 574 0
DWIDTH 8 0
BBX 7 7 0 2
BITMAP
BA
6C
C6
C6
C6
6C
BA
ENDCHAR
STARTCHAR yen
ENCODING 165
SWIDTH 574 0
DWIDTH 10 0
BBX 10 11 0 0
BITMAP
F1C0
6080
3100
3200
1C00
7F00
1800
FE00
1000
3000
7800
ENDCHAR
STARTCHAR brokenbar
ENCODING 166
SWIDTH 606 0
DWIDTH 8 0
BBX 1 11 3 0
BITMAP
80
80
80
80
00
00
80
80
80
80
80
ENDCHAR
STARTCHAR section
ENCODING 167
SWIDTH 500 0
DWIDTH 9 0
BBX 8 13 0 -2
BITMAP
1E
33
33
18
3C
4E
67
73
3A
1C
CC
CC
78
ENDCHAR
STARTCHAR dieresis
ENCODING 168
SWIDTH 333 0
DWIDTH 6 0
BBX 5 2 0 8
BITMAP
D8
D8
ENDCHAR
STARTCHAR copyright
ENCODING 169
SWIDTH 747 0
DWIDTH 12 0
BBX 11 11 0 0
BITMAP
1F00
60C0
4F40
9920
9020
9020
9920
8E20
4040
60C0
1F00
ENDCHAR
STARTCHAR ordfeminine
ENCODING 170
SWIDTH 412 0
DWIDTH 8 0
BBX 7 8 0 3
BITMAP
36
4E
C6
CC
76
00
00
FE
ENDCHAR
STARTCHAR guillemotleft
ENCODING 171
SWIDTH 481 0
DWIDTH 10 0
BBX 9 6 0 1
BITMAP
1980
3300
6600
CC00
6600
3300
ENDCHAR
STARTCHAR logicalnot
ENCODING 172
SWIDTH 606 0
DWIDTH 9 0
BBX 8 4 0 3
BITMAP
FF
01
01
01
ENDCHAR
STARTCHAR hyphen
ENCODING 173
SWIDTH 333 0
DWIDTH 5 0
BBX 4 1 0 4
BITMAP
F0
ENDCHAR
STARTCHAR registered
ENCODING 174
SWIDTH 747 0
DWIDTH 12 0
BBX 11 11 0 0
BITMAP
1F00
60C0
5E40
9220
9220
9C20
9620
9320
4040
60C0
1F00
ENDCHAR
STARTCHAR macron
ENCODING 175
SWIDTH 333 0
DWIDTH 6 0
BBX 5 1 0 8
BITMAP
F8
ENDCHAR
STARTCHAR degree
ENCODING 176
SWIDTH 400 0
DWIDTH 6 0
BBX 4 4 1 7
BITMAP
60
90
90
60
ENDCHAR
STARTCHAR plusminus
ENCODING 177
SWIDTH 606 0
DWIDTH 8 0
BBX 7 7 0 1
BITMAP
10
10
FE
10
10
00
FE
ENDCHAR
STARTCHAR twosuperior
ENCODING 178
SWIDTH 344 0
DWIDTH 5 0
BBX 5 6 0 5
BITMAP
70
98
30
60
C0
F8
ENDCHAR
STARTCHAR threesuperior
ENCODING 179
SWIDTH 344 0
DWIDTH 5 0
BBX 6 6 -1 5
BITMAP
38
0C
38
18
98
70
ENDCHAR
STARTCHAR acute
ENCODING 180
SWIDTH 333 0
DWIDTH 5 0
BBX 4 3 0 8
BITMAP
30
60
80
ENDCHAR
STARTCHAR mu
ENCODING 181
SWIDTH 576 0
DWIDTH 10 0
BBX 10 10 -1 -3
BITMAP
7180
3180
3180
6300
6700
7B40
7380
8000
C000
C000
ENDCHAR
STARTCHAR paragraph
ENCODING 182
SWIDTH 650 0
DWIDTH 9 0
BBX 8 11 0 0
BITMAP
7F
EA
CA
CA
CA
74
14
14
14
14
3C
ENDCHAR
STARTCHAR periodcentered
ENCODING 183
SWIDTH 287 0
DWIDTH 5 0
BBX 2 3 1 3
BITMAP
C0
C0
C0
ENDCHAR
STARTCHAR cedilla
ENCODING 184
SWIDTH 333 0
DWIDTH 5 0
BBX 3 3 0 -3
BITMAP
40
20
E0
ENDCHAR
STARTCHAR onesuperior
ENCODING 185
SWIDTH 344 0
DWIDTH 5 0
BBX 3 6 0 5
BITMAP
20
E0
60
40
40
E0
ENDCHAR
STARTCHAR ordmasculine
ENCODING 186
SWIDTH 356 0
DWIDTH 8 0
BBX 7 8 0 3
BITMAP
3C
66
C6
CC
78
00
00
FE
ENDCHAR
STARTCHAR guillemotright
ENCODING 187
SWIDTH 481 0
DWIDTH 10 0
BBX 9 6 0 1
BITMAP
6600
3300
1980
3300
6600
CC00
ENDCHAR
STARTCHAR onequarter
ENCODING 188
SWIDTH 861 0
DWIDTH 12 0
BBX 11 11 0 0
BITMAP
2100
E100
6200
4200
4400
E4C0
0940
0AC0
14C0
17E0
2080
ENDCHAR
STARTCHAR onehalf
ENCODING 189
SWIDTH 861 0
DWIDTH 12 0
BBX 11 11 0 0
BITMAP
2100
E100
6200
4200
4400
E5C0
0A60
0860
11C0
1300
23C0
ENDCHAR
STARTCHAR threequarters
ENCODING 190
SWIDTH 861 0
DWIDTH 12 0
BBX 12 11 -1 0
BITMAP
3880
0C80
3900
1900
9A00
7260
04A0
0560
0A60
0BF0
1040
ENDCHAR
STARTCHAR questiondown
ENCODING 191
SWIDTH 481 0
DWIDTH 7 0
BBX 5 11 0 -3
BITMAP
18
18
00
30
48
18
30
60
C8
C8
70
ENDCHAR
STARTCHAR Agrave
ENCODING 192
SWIDTH 741 0
DWIDTH 11 0
BBX 11 15 -1 0
BITMAP
1C00
0E00
0300
0000
0300
0700
0700
0D80
0980
1980
1180
3FC0
20C0
60C0
F1E0
ENDCHAR
STARTCHAR Aacute
ENCODING 193
SWIDTH 741 0
DWIDTH 11 0
BBX 11 15 -1 0
BITMAP
00E0
01C0
0300
0000
0300
0700
0700
0D80
0980
1980
1180
3FC0
20C0
60C0
F1E0
ENDCHAR
STARTCHAR Acircumflex
ENCODING 194
SWIDTH 741 0
DWIDTH 11 0
BBX 11 15 -1 0
BITMAP
0100
0380
06C0
0000
0300
0700
0700
0D80
0980
1980
1180
3FC0
20C0
60C0
F1E0
ENDCHAR
STARTCHAR Atilde
ENCODING 195
SWIDTH 741 0
DWIDTH 11 0
BBX 11 14 -1 0
BITMAP
0740
0B80
0000
0300
0700
0700
0D80
0980
1980
1180
3FC0
20C0
60C0
F1E0
ENDCHAR
STARTCHAR Adieresis
ENCODING 196
SWIDTH 741 0
DWIDTH 11 0
BBX 11 14 -1 0
BITMAP
06C0
06C0
0000
0300
0700
0700
0D80
0980
1980
1180
3FC0
20C0
60C0
F1E0
ENDCHAR
STARTCHAR Aring
ENCODING 197
SWIDTH 741 0
DWIDTH 11 0
BBX 11 15 -1 0
BITMAP
0300
0480
0300
0000
0300
0700
0700
0D80
0980
1980
1180
3FC0
20C0
60C0
F1E0
ENDCHAR
STARTCHAR AE
ENCODING 198
SWIDTH 889 0
DWIDTH 14 0
BBX 14 11 -1 0
BITMAP
0FFC
0584
0D84
0990
1990
11F0
3F10
2310
6304
4304
E7FC
ENDCHAR
STARTCHAR Ccedilla
ENCODING 199
SWIDTH 759 0
DWIDTH 11 0
BBX 10 14 0 -3
BITMAP
0F40
30C0
6040
6040
C000
C000
C000
C000
C080
6180
3E00
0800
0400
1C00
ENDCHAR
STARTCHAR Egrave
ENCODING 200
SWIDTH 741 0
DWIDTH 10 0
BBX 9 15 0 0
BITMAP
3800
1C00
0600
0000
7F80
3080
3080
3200
3200
7E00
6200
6200
6080
6080
FF80
ENDCHAR
STARTCHAR Eacute
ENCODING 201
SWIDTH 741 0
DWIDTH 10 0
BBX 9 15 0 0
BITMAP
0380
0700
0C00
0000
7F80
3080
3080
3200
3200
7E00
6200
6200
6080
6080
FF80
ENDCHAR
STARTCHAR Ecircumflex
ENCODING 202
SWIDTH 741 0
DWIDTH 10 0
BBX 9 15 0 0
BITMAP
0400
0E00
1B00
0000
7F80
3080
3080
3200
3200
7E00
6200
6200
6080
6080
FF80
ENDCHAR
STARTCHAR Edieresis
ENCODING 203
SWIDTH 741 0
DWIDTH 10 0
BBX 9 14 0 0
BITMAP
1B00
1B00
0000
7F80
3080
3080
3200
3200
7E00
6200
6200
6080
6080
FF80
ENDCHAR
STARTCHAR Igrave
ENCODING 204
SWIDTH 444 0
DWIDTH 6 0
BBX 5 15 0 0
BITMAP
E0
70
18
00
78
30
30
30
30
60
60
60
60
60
F0
ENDCHAR
STARTCHAR Iacute
ENCODING 205
SWIDTH 444 0
DWIDTH 6 0
BBX 7 15 0 0
BITMAP
0E
1C
30
00
78
30
30
30
30
60
60
60
60
60
F0
ENDCHAR
STARTCHAR Icircumflex
ENCODING 206
SWIDTH 444 0
DWIDTH 6 0
BBX 6 15 0 0
BITMAP
10
38
6C
00
78
30
30
30
30
60
60
60
60
60
F0
ENDCHAR
STARTCHAR Idieresis
ENCODING 207
SWIDTH 444 0
DWIDTH 6 0
BBX 6 14 0 0
BITMAP
6C
6C
00
78
30
30
30
30
60
60
60
60
60
F0
ENDCHAR
STARTCHAR Eth
ENCODING 208
SWIDTH 833 0
DWIDTH 12 0
BBX 11 11 0 0
BITMAP
7F80
30C0
3060
3060
3060
FC60
6060
60C0
60C0
6180
FE00
ENDCHAR
STARTCHAR Ntilde
ENCODING 209
SWIDTH 852 0
DWIDTH 13 0
BBX 12 14 0 0
BITMAP
0740
0B80
0000
7870
3820
3C20
2C20
2E60
2640
6740
4340
43C0
41C0
E1C0
ENDCHAR
STARTCHAR Ograve
ENCODING 210
SWIDTH 833 0
DWIDTH 12 0
BBX 11 15 0 0
BITMAP
1C00
0E00
0300
0000
0F80
30C0
6060
6060
C060
C060
C060
C0C0
C0C0
6180
3E00
ENDCHAR
STARTCHAR Oacute
ENCODING 211
SWIDTH 833 0
DWIDTH 12 0
BBX 11 15 0 0
BITMAP
00E0
01C0
0300
0000
0F80
30C0
6060
6060
C060
C060
C060
C0C0
C0C0
6180
3E00
ENDCHAR
STARTCHAR Ocircumflex
ENCODING 212
SWIDTH 833 0
DWIDTH 12 0
BBX 11 15 0 0
BITMAP
0200
0700
0D80
0000
0F80
30C0
6060
6060
C060
C060
C060
C0C0
C0C0
6180
3E00
ENDCHAR
STARTCHAR Otilde
ENCODING 213
SWIDTH 833 0
DWIDTH 12 0
BBX 11 14 0 0
BITMAP
0740
0B80
0000
0F80
30C0
6060
6060
C060
C060
C060
C0C0
C0C0
6180
3E00
ENDCHAR
STARTCHAR Odieresis
ENCODING 214
SWIDTH 833 0
DWIDTH 12 0
BBX 11 14 0 0
BITMAP
0D80
0D80
0000
0F80
30C0
6060
6060
C060
C060
C060
C0C0
C0C0
6180
3E00
ENDCHAR
STARTCHAR multiply
ENCODING 215
SWIDTH 606 0
DWIDTH 8 0
BBX 8 7 0 1
BITMAP
C3
66
3C
18
3C
66
C3
ENDCHAR
STARTCHAR Oslash
ENCODING 216
SWIDTH 833 0
DWIDTH 12 0
BBX 11 11 0 0
BITMAP
0FA0
30C0
60E0
6160
C260
C460
C860
D0C0
E0C0
6180
BE00
ENDCHAR
STARTCHAR Ugrave
ENCODING 217
SWIDTH 833 0
DWIDTH 12 0
BBX 10 15 1 0
BITMAP
1C00
0E00
0300
0000
F1C0
6080
6080
6080
6080
C180
C100
C100
C100
E300
7E00
ENDCHAR
STARTCHAR Uacute
ENCODING 218
SWIDTH 833 0
DWIDTH 12 0
BBX 10 15 1 0
BITMAP
0380
0700
0C00
0000
F1C0
6080
6080
6080
6080
C180
C100
C100
C100
E300
7E00
ENDCHAR
STARTCHAR Ucircumflex
ENCODING 219
SWIDTH 833 0
DWIDTH 12 0
BBX 10 15 1 0
BITMAP
0400
0E00
1B00
0000
F1C0
6080
6080
6080
6080
C180
C100
C100
C100
E300
7E00
ENDCHAR
STARTCHAR Udieresis
ENCODING 220
SWIDTH 833 0
DWIDTH 12 0
BBX 10 14 1 0
BITMAP
1B00
1B00
0000
F1C0
6080
6080
6080
6080
C180
C100
C100
C100
E300
7E00
ENDCHAR
STARTCHAR Yacute
ENCODING 221
SWIDTH 704 0
DWIDTH 9 0
BBX 10 15 0 0
BITMAP
01C0
0300
0600
0000
F1C0
6180
3300
3200
1C00
1800
1800
3000
3000
3000
7800
ENDCHAR
STARTCHAR Thorn
ENCODING 222
SWIDTH 741 0
DWIDTH 11 0
BBX 10 11 0 0
BITMAP
7800
3000
3F80
30C0
30C0
30C0
6180
7F00
6000
6000
F000
ENDCHAR
STARTCHAR germandbls
ENCODING 223
SWIDTH 574 0
DWIDTH 10 0
BBX 9 14 0 -3
BITMAP
0F00
1180
3180
3100
3600
6300
6300
6300
6300
C200
CC00
C000
C000
8000
ENDCHAR
STARTCHAR agrave
ENCODING 224
SWIDTH 667 0
DWIDTH 10 0
BBX 9 11 0 0
BITMAP
3000
1800
0400
0000
3B00
6700
C300
C600
C600
CE80
7700
ENDCHAR
STARTCHAR aacute
ENCODING 225
SWIDTH 667 0
DWIDTH 10 0
BBX 9 11 0 0
BITMAP
0600
0C00
1000
0000
3B00
6700
C300
C600
C600
CE80
7700
ENDCHAR
STARTCHAR acircumflex
ENCODING 226
SWIDTH 667 0
DWIDTH 10 0
BBX 9 11 0 0
BITMAP
0800
1C00
3600
0000
3B00
6700
C300
C600
C600
CE80
7700
ENDCHAR
STARTCHAR atilde
ENCODING 227
SWIDTH 667 0
DWIDTH 10 0
BBX 9 10 0 0
BITMAP
1A00
2C00
0000
3B00
6700
C300
C600
C600
CE80
7700
ENDCHAR
STARTCHAR adieresis
ENCODING 228
SWIDTH 667 0
DWIDTH 10 0
BBX 9 10 0 0
BITMAP
3600
3600
0000
3B00
6700
C300
C600
C600
CE80
7700
ENDCHAR
STARTCHAR aring
ENCODING 229
SWIDTH 667 0
DWIDTH 10 0
BBX 9 11 0 0
BITMAP
0C00
1200
0C00
0000
3B00
6700
C300
C600
C600
CE80
7700
ENDCHAR
STARTCHAR ae
ENCODING 230
SWIDTH 815 0
DWIDTH 13 0
BBX 12 7 0 0
BITMAP
39E0
6730
0630
7FE0
C600
CE20
73C0
ENDCHAR
STARTCHAR ccedilla
ENCODING 231
SWIDTH 537 0
DWIDTH 8 0
BBX 7 10 0 -3
BITMAP
3C
66
C6
C0
C0
C4
78
20
10
70
ENDCHAR
STARTCHAR egrave
ENCODING 232
SWIDTH 519 0
DWIDTH 8 0
BBX 7 11 0 0
BITMAP
60
30
08
00
3C
66
C6
FC
C0
C4
78
ENDCHAR
STARTCHAR eacute
ENCODING 233
SWIDTH 519 0
DWIDTH 8 0
BBX 7 11 0 0
BITMAP
06
0C
10
00
3C
66
C6
FC
C0
C4
78
ENDCHAR
STARTCHAR ecircumflex
ENCODING 234
SWIDTH 519 0
DWIDTH 8 0
BBX 7 11 0 0
BITMAP
10
38
6C
00
3C
66
C6
FC
C0
C4
78
ENDCHAR
STARTCHAR edieresis
ENCODING 235
SWIDTH 519 0
DWIDTH 8 0
BBX 7 10 0 0
BITMAP
36
36
00
3C
66
C6
FC
C0
C4
78
ENDCHAR
STARTCHAR igrave
ENCODING 236
SWIDTH 389 0
DWIDTH 5 0
BBX 4 11 0 0
BITMAP
C0
60
10
00
E0
60
60
C0
C0
D0
E0
ENDCHAR
STARTCHAR iacute
ENCODING 237
SWIDTH 389 0
DWIDTH 5 0
BBX 4 11 0 0
BITMAP
30
60
80
00
E0
60
60
C0
C0
D0
E0
ENDCHAR
STARTCHAR icircumflex
ENCODING 238
SWIDTH 389 0
DWIDTH 5 0
BBX 5 11 0 0
BITMAP
20
70
D8
00
E0
60
60
C0
C0
D0
E0
ENDCHAR
STARTCHAR idieresis
ENCODING 239
SWIDTH 389 0
DWIDTH 5 0
BBX 5 10 0 0
BITMAP
D8
D8
00
E0
60
60
C0
C0
D0
E0
ENDCHAR
STARTCHAR eth
ENCODING 240
SWIDTH 574 0
DWIDTH 8 0
BBX 7 11 0 0
BITMAP
C8
30
58
0C
3C
66
C6
C6
C6
CC
78
ENDCHAR
STARTCHAR ntilde
ENCODING 241
SWIDTH 685 0
DWIDTH 10 0
BBX 9 10 0 0
BITMAP
0D00
1600
0000
E600
6F00
7300
6300
C600
C680
C700
ENDCHAR
STARTCHAR ograve
ENCODING 242
SWIDTH 574 0
DWIDTH 8 0
BBX 7 11 0 0
BITMAP
60
30
08
00
3C
66
C6
C6
C6
CC
78
ENDCHAR
STARTCHAR oacute
ENCODING 243
SWIDTH 574 0
DWIDTH 8 0
BBX 7 11 0 0
BITMAP
06
0C
10
00
3C
66
C6
C6
C6
CC
78
ENDCHAR
STARTCHAR ocircumflex
ENCODING 244
SWIDTH 574 0
DWIDTH 8 0
BBX 7 11 0 0
BITMAP
08
1C
36
00
3C
66
C6
C6
C6
CC
78
ENDCHAR
STARTCHAR otilde
ENCODING 245
SWIDTH 574 0
DWIDTH 8 0
BBX 7 10 0 0
BITMAP
1A
2C
00
3C
66
C6
C6
C6
CC
78
ENDCHAR
STARTCHAR odieresis
ENCODING 246
SWIDTH 574 0
DWIDTH 8 0
BBX 7 10 0 0
BITMAP
36
36
00
3C
66
C6
C6
C6
CC
78
ENDCHAR
STARTCHAR divide
ENCODING 247
SWIDTH 606 0
DWIDTH 8 0
BBX 7 7 0 1
BITMAP
10
10
00
FE
00
10
10
ENDCHAR
STARTCHAR oslash
ENCODING 248
SWIDTH 574 0
DWIDTH 8 0
BBX 9 7 -1 0
BITMAP
1E80
3300
6700
6B00
7300
6600
BC00
ENDCHAR
STARTCHAR ugrave
ENCODING 249
SWIDTH 685 0
DWIDTH 10 0
BBX 9 11 0 0
BITMAP
3000
1800
0400
0000
E300
6300
6300
C600
CE00
F680
6700
ENDCHAR
STARTCHAR uacute
ENCODING 250
SWIDTH 685 0
DWIDTH 10 0
BBX 9 11 0 0
BITMAP
0600
0C00
1000
0000
E300
6300
6300
C600
CE00
F680
6700
ENDCHAR
STARTCHAR ucircumflex
ENCODING 251
SWIDTH 685 0
DWIDTH 10 0
BBX 9 11 0 0
BITMAP
0800
1C00
3600
0000
E300
6300
6300
C600
CE00
F680
6700
ENDCHAR
STARTCHAR udieresis
ENCODING 252
SWIDTH 685 0
DWIDTH 10 0
BBX 9 10 0 0
BITMAP
3600
3600
0000
E300
6300
6300
C600
CE00
F680
6700
ENDCHAR
STARTCHAR yacute
ENCODING 253
SWIDTH 519 0
DWIDTH 9 0
BBX 9 14 -1 -3
BITMAP
0300
0600
0800
0000
6180
7180
B100
1A00
1A00
0C00
0C00
0800
D000
E000
ENDCHAR
STARTCHAR thorn
ENCODING 254
SWIDTH 648 0
DWIDTH 8 0
BBX 9 14 -2 -3
BITMAP
1C00
0C00
0C00
0800
1B00
1D80
1980
3180
3180
3300
3E00
6000
6000
F000
ENDCHAR
STARTCHAR ydieresis
ENCODING 255
SWIDTH 519 0
DWIDTH 9 0
BBX 9 13 -1 -3
BITMAP
1B00
1B00
0000
6180
7180
B100
1A00
1A00
0C00
0C00
0800
D000
E000
ENDCHAR
ENDFONT
