STARTFONT 2.1
COMMENT AUTOMATICALLY GENERATED FILE. DO NOT EDIT!
COMMENT Generated with 'ucs2any.pl ncenBI24.bdf ../../../fonts/util/map-ISO8859-1 ISO8859-1'
COMMENT from an ISO10646-1 encoded source BDF font.
COMMENT ucs2any.pl by Markus Kuhn <mkuhn@acm.org>, 2000.
FONT -Adobe-New Century Schoolbook-Bold-I-Normal--34-240-100-100-P-193-ISO8859-1
SIZE 24 100 100
FONTBOUNDINGBOX 40 39 -7 -7
COMMENT $Xorg: $
COMMENT ISO10646-1 extension by Markus Kuhn <mkuhn@acm.org>, 2001-03-20
COMMENT 
COMMENT +
COMMENT  Copyright 1984-1989, 1994 Adobe Systems Incorporated.
COMMENT  Copyright 1988, 1994 Digital Equipment Corporation.
COMMENT
COMMENT  Adobe is a trademark of Adobe Systems Incorporated which may be
COMMENT  registered in certain jurisdictions.
COMMENT  Permission to use these trademarks is hereby granted only in
COMMENT  association with the images described in this file.
COMMENT
COMMENT  Permission to use, copy, modify, distribute and sell this software
COMMENT  and its documentation for any purpose and without fee is hereby
COMMENT  granted, provided that the above copyright notices appear in all
COMMENT  copies and that both those copyright notices and this permission
COMMENT  notice appear in supporting documentation, and that the names of
COMMENT  Adobe Systems and Digital Equipment Corporation not be used in
COMMENT  advertising or publicity pertaining to distribution of the software
COMMENT  without specific, written prior permission.  Adobe Systems and
COMMENT  Digital Equipment Corporation make no representations about the
COMMENT  suitability of this software for any purpose.  It is provided "as
COMMENT  is" without express or implied warranty.
COMMENT -
STARTPROPERTIES 26
FOUNDRY "Adobe"
FAMILY_NAME "New Century Schoolbook"
WEIGHT_NAME "Bold"
SLANT "I"
SETWIDTH_NAME "Normal"
ADD_STYLE_NAME ""
PIXEL_SIZE 34
POINT_SIZE 240
RESOLUTION_X 100
RESOLUTION_Y 100
SPACING "P"
AVERAGE_WIDTH 193
CHARSET_REGISTRY "ISO8859"
CHARSET_ENCODING "1"
CAP_HEIGHT 25
X_HEIGHT 16
FONT_ASCENT 29
FONT_DESCENT 7
FACE_NAME "New Century Schoolbook Bold Italic"
COPYRIGHT "Copyright (c) 1984, 1987 Adobe Systems Incorporated. All Rights Reserved. Copyright (c) 1988, 1991 Digital Equipment Corporation. All Rights Reserved."
NOTICE "New Century Schoolbook is a trademark of Linotype-Hell AG and/or its subsidiaries."
_DEC_DEVICE_FONTNAMES "PS=NewCenturySchlbk-BoldItalic"
DEFAULT_CHAR 0
RELATIVE_SETWIDTH 50
RELATIVE_WEIGHT 70
FULL_NAME "New Century Schoolbook Bold Italic"
ENDPROPERTIES
CHARS 192
STARTCHAR defaultchar
ENCODING 0
SWIDTH 870 0
DWIDTH 29 0
BBX 31 25 -1 0
BITMAP
AAAAAAAA
00000000
80000002
00000000
80000002
00000000
80000002
00000000
80000002
00000000
80000002
00000000
80000002
00000000
80000002
00000000
80000002
00000000
80000002
00000000
80000002
00000000
80000002
00000000
AAAAAAAA
ENDCHAR
STARTCHAR space
ENCODING 32
SWIDTH 287 0
DWIDTH 10 0
BBX 1 1 1 0
BITMAP
00
ENDCHAR
STARTCHAR exclam
ENCODING 33
SWIDTH 333 0
DWIDTH 11 0
BBX 11 25 0 0
BITMAP
03C0
07E0
07E0
07E0
07E0
07C0
07C0
0F80
0F80
0F00
0F00
0E00
0E00
1E00
1C00
1C00
1800
1800
0000
0000
7000
F800
F800
F800
7000
ENDCHAR
STARTCHAR quotedbl
ENCODING 34
SWIDTH 400 0
DWIDTH 13 0
BBX 13 11 1 14
BITMAP
3870
7CF8
7CF8
7CF8
78F0
78F0
F1E0
E1C0
E1C0
C180
C180
ENDCHAR
STARTCHAR numbersign
ENCODING 35
SWIDTH 606 0
DWIDTH 19 0
BBX 16 23 2 0
BITMAP
071C
071C
071C
071C
0618
0618
0618
7FFF
7FFF
0E38
0E38
0C30
0C30
FFFE
FFFE
1C70
1C70
1870
1860
1860
3860
38E0
38E0
ENDCHAR
STARTCHAR dollar
ENCODING 36
SWIDTH 574 0
DWIDTH 19 0
BBX 19 30 0 -4
BITMAP
000600
000C00
000C00
007E00
03FF80
0799C0
0F18E0
0E1BE0
1E33E0
1E33E0
1F33C0
1FF000
0FF000
0FFC00
07FE00
01FF00
00FF80
30DF80
78CF80
F98780
F98780
F18700
E30F00
731E00
1FF800
07C000
060000
060000
060000
040000
ENDCHAR
STARTCHAR percent
ENCODING 37
SWIDTH 889 0
DWIDTH 29 0
BBX 26 25 2 -1
BITMAP
00001800
03C03800
0F607000
1E3FE000
3C1E6000
7C10C000
7810C000
F8118000
F8310000
F0230000
F0660000
F0C60000
798C0F00
3F083D80
001878C0
0030F040
0031F040
0061E040
0063E0C0
00C3C080
0183C180
0183C300
0301E600
0300FC00
02000000
ENDCHAR
STARTCHAR ampersand
ENCODING 38
SWIDTH 889 0
DWIDTH 30 0
BBX 26 25 1 0
BITMAP
000F8000
003FE000
007CF000
00F87800
00F87800
00F87800
00F87800
00F8F000
00F9E000
00FFC000
00FF0000
01FC0000
07FC7FC0
0F7E7FC0
3E7E0F00
7C7E0E00
7C3F1C00
FC3F3800
FC1FF000
FC1FE000
FE0FC0C0
7F07E180
3FFFFF80
1FF9FE00
07C07800
ENDCHAR
STARTCHAR quotesingle
ENCODING 39
SWIDTH 287 0
DWIDTH 10 0
BBX 6 11 3 14
BITMAP
38
7C
7C
7C
78
78
F0
E0
E0
C0
C0
ENDCHAR
STARTCHAR parenleft
ENCODING 40
SWIDTH 407 0
DWIDTH 14 0
BBX 13 28 4 -4
BITMAP
0018
0070
01E0
0380
0780
0F00
0E00
1E00
3C00
3C00
7C00
7800
7800
F800
F800
F000
F000
F000
F000
7000
7000
7000
7000
3000
3800
1800
0C00
0C00
ENDCHAR
STARTCHAR parenright
ENCODING 41
SWIDTH 407 0
DWIDTH 14 0
BBX 12 28 -2 -4
BITMAP
0300
0300
0180
01C0
00C0
00E0
00E0
00E0
00F0
00F0
00F0
00F0
00F0
01F0
01F0
01E0
01E0
03E0
03C0
03C0
0780
0780
0F00
1E00
1C00
7800
E000
8000
ENDCHAR
STARTCHAR asterisk
ENCODING 42
SWIDTH 500 0
DWIDTH 17 0
BBX 15 15 1 9
BITMAP
00C0
01E0
39E0
3DC0
3DCC
1FBE
07FE
7FFC
FFC0
FBF0
6778
0778
0F38
0F00
0600
ENDCHAR
STARTCHAR plus
ENCODING 43
SWIDTH 606 0
DWIDTH 20 0
BBX 17 17 1 0
BITMAP
01C000
01C000
01C000
01C000
01C000
01C000
01C000
FFFF80
FFFF80
FFFF80
01C000
01C000
01C000
01C000
01C000
01C000
01C000
ENDCHAR
STARTCHAR comma
ENCODING 44
SWIDTH 287 0
DWIDTH 9 0
BBX 8 12 -2 -6
BITMAP
0E
1F
3F
3F
3F
1E
06
0C
18
30
60
C0
ENDCHAR
STARTCHAR hyphen
ENCODING 45
SWIDTH 333 0
DWIDTH 11 0
BBX 9 4 0 6
BITMAP
7F80
7F80
FF00
FF00
ENDCHAR
STARTCHAR period
ENCODING 46
SWIDTH 287 0
DWIDTH 9 0
BBX 6 5 0 0
BITMAP
78
FC
FC
FC
78
ENDCHAR
STARTCHAR slash
ENCODING 47
SWIDTH 278 0
DWIDTH 9 0
BBX 11 25 -1 0
BITMAP
00E0
01C0
01C0
01C0
0380
0380
0380
0700
0700
0700
0E00
0E00
0E00
1C00
1C00
1C00
3800
3800
3800
7000
7000
7000
E000
E000
E000
ENDCHAR
STARTCHAR zero
ENCODING 48
SWIDTH 574 0
DWIDTH 19 0
BBX 18 24 1 0
BITMAP
007800
01FE00
03CF00
078780
0F0780
1F07C0
3F07C0
3E07C0
7E07C0
7E0FC0
7E0FC0
7C0FC0
FC0FC0
FC0F80
FC1F80
FC1F80
F81F00
F83F00
F83E00
783C00
787C00
3CF800
1FE000
078000
ENDCHAR
STARTCHAR one
ENCODING 49
SWIDTH 574 0
DWIDTH 19 0
BBX 16 24 1 0
BITMAP
0007
000F
007E
07FE
07FE
007C
007C
00FC
00F8
00F8
00F8
01F8
01F0
01F0
01F0
03E0
03E0
03E0
07E0
07C0
07C0
0FC0
FFFC
FFFC
ENDCHAR
STARTCHAR two
ENCODING 50
SWIDTH 574 0
DWIDTH 19 0
BBX 20 24 -2 0
BITMAP
007F00
01FFC0
0387E0
0703F0
0603F0
0F81F0
0FC1F0
0FC3F0
0FC3E0
07C7E0
0387C0
000F80
001F00
003E00
007C00
00F000
01E060
038060
0E00C0
1C03C0
3FFFC0
3FFF80
7FFF80
FFFF00
ENDCHAR
STARTCHAR three
ENCODING 51
SWIDTH 574 0
DWIDTH 19 0
BBX 18 24 0 0
BITMAP
00FC00
03FF00
070F80
0E07C0
0F07C0
0F87C0
0F87C0
0F0FC0
000F80
001F00
007E00
03F000
03FC00
003E00
001F00
301F00
7C1F00
FC1F00
FC3F00
F83F00
703E00
70FC00
3FF800
0FC000
ENDCHAR
STARTCHAR four
ENCODING 52
SWIDTH 574 0
DWIDTH 19 0
BBX 19 24 -1 0
BITMAP
0000E0
0001E0
0003E0
0007E0
000FE0
001FC0
003FC0
0077C0
00EF80
01CF80
038F80
071F80
0E1F00
1C1F00
381F00
703F00
FFFFE0
FFFFE0
007E00
007C00
007C00
00FC00
0FFF80
0FFF80
ENDCHAR
STARTCHAR five
ENCODING 53
SWIDTH 574 0
DWIDTH 19 0
BBX 19 24 0 0
BITMAP
03FFE0
03FFE0
03FFC0
03FF80
067F00
060000
060000
060000
0C7C00
0DFE00
0FFF00
1C3F00
381F80
101F80
000F80
000F80
780F80
F81F80
F81F00
F83F00
703E00
707C00
3FF800
0FC000
ENDCHAR
STARTCHAR six
ENCODING 54
SWIDTH 574 0
DWIDTH 19 0
BBX 18 24 1 0
BITMAP
003E00
01FF80
03E780
07C7C0
0F87C0
1F07C0
1F0380
3F0000
3E0000
7E0000
7FF800
7FFC00
FE3E00
FC1F00
FC1F00
FC1F00
F81F00
F81F00
F83F00
F83E00
783E00
787C00
3CF800
0FE000
ENDCHAR
STARTCHAR seven
ENCODING 55
SWIDTH 574 0
DWIDTH 19 0
BBX 18 25 3 0
BITMAP
180000
1FFFC0
3FFF80
3FFF80
7FFF00
7FFE00
780600
E00C00
C01C00
803800
007800
007000
00F000
01E000
03E000
03C000
07C000
0FC000
0F8000
1F8000
1F8000
3F8000
3F0000
3F0000
1E0000
ENDCHAR
STARTCHAR eight
ENCODING 56
SWIDTH 574 0
DWIDTH 19 0
BBX 19 24 0 0
BITMAP
007E00
01FF80
0383C0
0701C0
0F01E0
0F01E0
0F01E0
0F81C0
0FC3C0
0FF780
0FFE00
07FE00
07FF00
1EFF80
3C3F80
781FC0
F00FC0
F007C0
F00780
F00780
F80F00
7C1E00
3FF800
07E000
ENDCHAR
STARTCHAR nine
ENCODING 57
SWIDTH 574 0
DWIDTH 19 0
BBX 18 24 0 0
BITMAP
007800
03FE00
078F00
0F8780
1F0780
1F07C0
3F07C0
3E07C0
3E07C0
3E0FC0
3E0FC0
3F1FC0
1F1FC0
0FFF80
07FF80
001F80
001F00
703F00
F83E00
F87C00
F87800
F9F000
7FE000
1F0000
ENDCHAR
STARTCHAR colon
ENCODING 58
SWIDTH 287 0
DWIDTH 9 0
BBX 9 16 0 0
BITMAP
0F00
1F80
1F80
1F80
0F00
0000
0000
0000
0000
0000
0000
7800
FC00
FC00
FC00
7800
ENDCHAR
STARTCHAR semicolon
ENCODING 59
SWIDTH 287 0
DWIDTH 9 0
BBX 10 22 -2 -6
BITMAP
0780
0FC0
0FC0
0FC0
0780
0000
0000
0000
0000
0000
0E00
1F00
3F00
3F00
3F00
1E00
0600
0C00
1800
3000
6000
C000
ENDCHAR
STARTCHAR less
ENCODING 60
SWIDTH 606 0
DWIDTH 20 0
BBX 17 17 1 0
BITMAP
000180
000780
001F80
00FF00
03FC00
0FE000
7F8000
FE0000
F00000
FE0000
7F8000
0FE000
03FC00
00FF00
001F80
000780
000180
ENDCHAR
STARTCHAR equal
ENCODING 61
SWIDTH 606 0
DWIDTH 20 0
BBX 17 9 1 4
BITMAP
FFFF80
FFFF80
FFFF80
000000
000000
000000
FFFF80
FFFF80
FFFF80
ENDCHAR
STARTCHAR greater
ENCODING 62
SWIDTH 606 0
DWIDTH 20 0
BBX 17 17 1 0
BITMAP
C00000
F00000
FC0000
7F8000
1FE000
03F800
00FF00
003F80
000780
003F80
00FF00
03F800
1FE000
7F8000
FC0000
F00000
C00000
ENDCHAR
STARTCHAR question
ENCODING 63
SWIDTH 481 0
DWIDTH 16 0
BBX 12 25 3 0
BITMAP
0780
1FE0
38E0
3070
6070
60F0
43F0
07F0
0FE0
1FC0
3F80
3F00
7C00
7800
7180
3980
1F00
0000
0000
0000
7800
FC00
FC00
FC00
7800
ENDCHAR
STARTCHAR at
ENCODING 64
SWIDTH 747 0
DWIDTH 25 0
BBX 23 25 1 0
BITMAP
00FF00
03FFC0
0FC3F0
1E0078
3C003C
38001C
70100E
70FDEE
E1E7CE
E3C7C6
C7C3C6
C787C6
C7878E
CF878E
CF078C
EF0F9C
E71F18
77BF30
73F7EC
38839C
3C003C
1F0078
0FF3F0
03FFC0
00FF00
ENDCHAR
STARTCHAR A
ENCODING 65
SWIDTH 741 0
DWIDTH 24 0
BBX 27 25 -3 0
BITMAP
00006000
0000F000
0001F000
0001F000
0003F000
0003F000
0007F800
000FF800
000DF800
001DF800
0019F800
0038FC00
0070FC00
0070FC00
00E0FC00
00E0FC00
01FFFE00
01FFFE00
03807E00
07007E00
0F007E00
0E003F00
3E003F00
FFC3FFE0
FFC3FFE0
ENDCHAR
STARTCHAR B
ENCODING 66
SWIDTH 759 0
DWIDTH 25 0
BBX 26 25 -2 0
BITMAP
07FFF800
07FFFF00
00FC3F80
00FC0FC0
00FC0FC0
00FC0FC0
01FC0FC0
01F80FC0
01F80FC0
01F81FC0
03F83F80
03FFFF00
03FFF800
03F0F800
07E07E00
07E03F00
07E03F80
0FE01F80
0FC03F80
0FC03F80
0FC03F80
1F807F00
1F80FF00
FFFFFC00
FFFFE000
ENDCHAR
STARTCHAR C
ENCODING 67
SWIDTH 759 0
DWIDTH 24 0
BBX 24 25 1 0
BITMAP
001F81
00FFE3
01F877
07E01F
0FC01E
1F800E
3F800E
3F000E
7F000C
7F000C
7E0000
FE0000
FE0000
FE0000
FC0000
FC0000
FC0000
FC0000
FC0018
7E0030
7E0070
3F00E0
1FC3C0
0FFF80
01FE00
ENDCHAR
STARTCHAR D
ENCODING 68
SWIDTH 833 0
DWIDTH 27 0
BBX 28 25 -2 0
BITMAP
07FFF800
07FFFF00
00FE1F80
00FC07C0
00FC07E0
00FC03E0
01F803F0
01F803F0
01F803F0
01F003F0
03F003F0
03F007F0
03F007F0
07E007F0
07E007E0
07E00FE0
07E00FE0
0FC00FC0
0FC01FC0
0FC01F80
0FC03F00
1F807E00
1F81FC00
FFFFF000
FFFF0000
ENDCHAR
STARTCHAR E
ENCODING 69
SWIDTH 741 0
DWIDTH 24 0
BBX 26 25 -1 0
BITMAP
07FFFFC0
07FFFFC0
00FC0FC0
00FC0780
00FC0380
01F80380
01F80380
01F83300
01F87300
03F06000
03F1E000
03FFE000
03FFE000
07E3C000
07E1C000
07E1C000
07E1C300
0FC18700
0FC18600
0FC00E00
0FC01E00
0F803C00
1F80FC00
FFFFFC00
FFFFFC00
ENDCHAR
STARTCHAR F
ENCODING 70
SWIDTH 704 0
DWIDTH 23 0
BBX 26 25 -1 0
BITMAP
07FFFFC0
07FFFFC0
00FE0FC0
00FC0780
00FC0380
00FC0380
01F80380
01F83300
01F83300
01F87000
03F1E000
03FFE000
03FFE000
03E3C000
07E1C000
07E1C000
07E1C000
0FC18000
0FC18000
0FC00000
0FC00000
1F800000
1F800000
FFF80000
FFF80000
ENDCHAR
STARTCHAR G
ENCODING 71
SWIDTH 815 0
DWIDTH 25 0
BBX 25 25 0 0
BITMAP
000F8080
007FF180
01F83F80
03F01F80
07E00F00
0FC00F00
1F800F00
3F800600
3F000600
7F000600
7F000600
FE000000
FE000000
FE000000
FE07FF80
FC07FF80
FC00FC00
FC00FC00
FC00FC00
7C00F800
7E01F800
3E03F800
1F87B000
07FF3000
00F83000
ENDCHAR
STARTCHAR H
ENCODING 72
SWIDTH 870 0
DWIDTH 29 0
BBX 31 25 -1 0
BITMAP
07FF9FFE
07FF9FFE
00FC03F0
00FC03F0
00F803F0
01F807E0
01F807E0
01F807E0
01F807C0
03F00FC0
03F00FC0
03FFFFC0
03FFFF80
07E01F80
07E01F80
07E01F80
07E01F00
0FC03F00
0FC03F00
0FC03F00
0F803E00
1F807E00
1F807E00
FFF3FFC0
FFF3FFC0
ENDCHAR
STARTCHAR I
ENCODING 73
SWIDTH 444 0
DWIDTH 15 0
BBX 17 25 -1 0
BITMAP
07FF80
07FF80
00FC00
00FC00
00FC00
01F800
01F800
01F800
01F800
03F000
03F000
03F000
03F000
07E000
07E000
07E000
0FC000
0FC000
0FC000
0FC000
1F8000
1F8000
1FC000
FFF000
FFF000
ENDCHAR
STARTCHAR J
ENCODING 74
SWIDTH 667 0
DWIDTH 21 0
BBX 24 25 -1 0
BITMAP
001FFF
001FFF
0001F8
0001F8
0003F0
0003F0
0003F0
0003F0
0007E0
0007E0
0007E0
0007E0
000FC0
000FC0
3C0FC0
7E0FC0
FE1F80
FE1F80
FE1F80
DC3F00
C03F00
E07E00
70FE00
3FF800
0FE000
ENDCHAR
STARTCHAR K
ENCODING 75
SWIDTH 778 0
DWIDTH 26 0
BBX 29 25 -1 0
BITMAP
07FF9FF8
07FF9FF8
00FE07C0
00FC0780
00FC0E00
01F81C00
01F83800
01F87000
01F8E000
03F1C000
03F3C000
03F7C000
03FFE000
07FFE000
07FBF000
07F3F000
07E3F800
0FC1F800
0FC1FC00
0FC0FC00
0F80FC00
1F807E00
1F807F00
FFF3FFC0
FFF3FFC0
ENDCHAR
STARTCHAR L
ENCODING 76
SWIDTH 704 0
DWIDTH 22 0
BBX 24 25 -1 0
BITMAP
07FFC0
07FFC0
00FC00
00FC00
00FC00
01F800
01F800
01F800
01F800
03F000
03F000
03F000
03F000
07E000
07E000
07E000
07E003
0FC006
0FC00E
0FC00E
0FC01C
1F803C
1F80FC
FFFFF8
FFFFF8
ENDCHAR
STARTCHAR M
ENCODING 77
SWIDTH 944 0
DWIDTH 31 0
BBX 34 25 -1 0
BITMAP
0FFE007FC0
0FFE00FFC0
01FE00FE00
01FE01FE00
01FE03FE00
01FE03FC00
01BE077C00
03BE06FC00
033E0EF800
033E1DF800
033E19F800
073E39F800
063E31F000
063E73F000
0E3E63F000
0E3FC3F000
0C3FC3E000
0C3F87E000
1C3F87E000
1C3F07E000
183E0FC000
383E0FC000
781C1FC000
FE1C7FF800
FE187FF800
ENDCHAR
STARTCHAR N
ENCODING 78
SWIDTH 852 0
DWIDTH 28 0
BBX 33 25 -2 0
BITMAP
07FC01FF80
07FE01FF80
007E003C00
007F003800
007F003800
00FF803800
00DF803000
00DFC03000
00CFC03000
01CFE07000
0187E06000
0187F06000
0183F0E000
0383F8C000
0301F8C000
0300FCC000
0700FFC000
06007F8000
06007F8000
06003F8000
0E003F8000
0E001F0000
1F001F0000
FFC00F0000
FFC00F0000
ENDCHAR
STARTCHAR O
ENCODING 79
SWIDTH 833 0
DWIDTH 27 0
BBX 26 25 0 0
BITMAP
000FC000
007FF800
01FC3E00
03F01F00
07E01F00
0FC00F80
1F800F80
3F800FC0
3F000FC0
7F000FC0
7F001FC0
FE001FC0
FE001FC0
FE001FC0
FC003F80
FC003F80
FC003F00
FC007F00
7C007E00
7C00FC00
7E01FC00
3E03F000
1F0FE000
07FF8000
00FC0000
ENDCHAR
STARTCHAR P
ENCODING 80
SWIDTH 741 0
DWIDTH 24 0
BBX 25 25 -1 0
BITMAP
07FFF000
07FFFC00
00FC3F00
00FC1F00
00F80F80
01F80F80
01F80F80
01F80F80
01F01F80
03F01F80
03F03F00
03F07F00
03E1FE00
07FFFC00
07FFE000
07E00000
07C00000
0FC00000
0FC00000
0FC00000
0F800000
1F800000
1F800000
FFF00000
FFF00000
ENDCHAR
STARTCHAR Q
ENCODING 81
SWIDTH 833 0
DWIDTH 27 0
BBX 26 31 0 -6
BITMAP
000FC000
007FF800
01FC3E00
03F01F00
0FE01F00
0FC00F80
1F800F80
3F800FC0
3F000FC0
7F000FC0
7F000FC0
FE001FC0
FE001FC0
FE001FC0
FC001F80
FC383F80
FCFE3F00
FDDF7F00
7F0FFF00
7E07FE00
7E07FC00
3E07F800
1F8FE000
07FFC000
00FFC000
000FC000
000FE200
000FE600
0007FC00
0007F800
0001E000
ENDCHAR
STARTCHAR R
ENCODING 82
SWIDTH 796 0
DWIDTH 26 0
BBX 26 25 -1 0
BITMAP
07FFF800
07FFFF00
00FC3F80
00FC1F80
00FC0FC0
01F80FC0
01F80FC0
01F80FC0
01F81FC0
03F01F80
03F03F00
03F07E00
03FFF800
07FF8000
07E1E000
07E1F000
07E1F800
0FC1F800
0FC1F800
0FC1F800
1F81F8C0
1F81F8C0
1F80FD80
FFF0FF00
FFF07E00
ENDCHAR
STARTCHAR S
ENCODING 83
SWIDTH 685 0
DWIDTH 22 0
BBX 22 25 -1 0
BITMAP
007E00
01FFCC
03C1FC
07807C
07003C
0F0038
0F0038
0F8018
0FE018
0FF800
0FFF00
07FFC0
03FFE0
01FFE0
007FF0
300FF0
3003F0
3001F0
7000F0
7800F0
7801F0
7C01E0
FF03C0
C7FF00
C0FC00
ENDCHAR
STARTCHAR T
ENCODING 84
SWIDTH 722 0
DWIDTH 23 0
BBX 23 25 1 0
BITMAP
3FFFFE
3FFFFE
7C7E3E
787E1E
707E0E
60FC0E
E0FC0C
C0FC0C
C0FC0C
C1F80C
01F800
01F800
01F800
03F000
03F000
03F000
07E000
07E000
07E000
07E000
0FC000
0FC000
0FC000
FFF800
FFF800
ENDCHAR
STARTCHAR U
ENCODING 85
SWIDTH 833 0
DWIDTH 27 0
BBX 27 25 2 0
BITMAP
7FF83FE0
7FF83FE0
1FC00F80
1FC00700
1F800600
1F800600
1F800E00
3F000C00
3F000C00
3F000C00
3F001C00
7E001800
7E001800
7E003800
7E003000
FC003000
FC003000
FC007000
FC006000
FC00E000
7C00C000
7E01C000
3F078000
1FFF0000
07F80000
ENDCHAR
STARTCHAR V
ENCODING 86
SWIDTH 741 0
DWIDTH 24 0
BBX 26 25 0 0
BITMAP
FFF0FFC0
FFF0FFC0
1F801F00
1F801E00
0F801C00
0FC03800
0FC03800
0FC07000
0FC06000
0FC0E000
07C0C000
07E1C000
07E18000
07E38000
07E70000
03E60000
03FE0000
03FC0000
03FC0000
03F80000
01F80000
01F00000
01E00000
01E00000
01C00000
ENDCHAR
STARTCHAR W
ENCODING 87
SWIDTH 944 0
DWIDTH 30 0
BBX 32 25 0 0
BITMAP
FFCFFCFF
FFCFFCFF
3F03F03C
3F01F038
1F01F030
1F03F070
1F03F060
1F07F060
1F87F0E0
1F86F0C0
0F8CF8C0
0F8CF980
0F9CF980
0FD8FB80
0FF8FF00
0FF0FF00
0FF0FE00
07E07E00
07E07E00
07C07C00
07C07C00
07807800
07807800
07807000
03003000
ENDCHAR
STARTCHAR X
ENCODING 88
SWIDTH 741 0
DWIDTH 25 0
BBX 30 25 -3 0
BITMAP
07FF9FFC
07FF9FF8
00FC07E0
00FE0780
007E0700
007E0E00
003F1C00
003F3800
003FF000
001FE000
001FC000
000FC000
000FC000
000FE000
001FE000
003FF000
0073F000
00E3F000
01C1F800
0381F800
0701FC00
0F00FC00
3F00FE00
FFE7FFC0
FFE7FFC0
ENDCHAR
STARTCHAR Y
ENCODING 89
SWIDTH 704 0
DWIDTH 23 0
BBX 25 25 1 0
BITMAP
FFF1FF80
FFF1FF80
3F803E00
1F803800
1F807000
0FC07000
0FC0E000
0FC1C000
07E18000
07E38000
03F70000
03FE0000
03FC0000
01FC0000
01F80000
01F80000
03F00000
03F00000
03F00000
03F00000
07E00000
07E00000
07E00000
7FFE0000
7FFE0000
ENDCHAR
STARTCHAR Z
ENCODING 90
SWIDTH 704 0
DWIDTH 23 0
BBX 25 25 -1 0
BITMAP
07FFFF80
07FFFF00
07E07F00
0F80FE00
0F01FC00
0E03FC00
1C07F800
1807F000
180FE000
001FC000
003F8000
007F8000
007F0000
00FE0000
01FC0000
03F80000
07F80600
07F00C00
0FE01C00
1FC03C00
3F807800
7F81F800
7F07F800
FFFFF000
FFFFF000
ENDCHAR
STARTCHAR bracketleft
ENCODING 91
SWIDTH 407 0
DWIDTH 14 0
BBX 15 28 0 -3
BITMAP
01FE
01E0
03E0
03C0
03C0
03C0
07C0
0780
0780
0780
0F00
0F00
0F00
0F00
1E00
1E00
1E00
3E00
3C00
3C00
3C00
7C00
7800
7800
7800
F800
F000
FF00
ENDCHAR
STARTCHAR backslash
ENCODING 92
SWIDTH 606 0
DWIDTH 20 0
BBX 15 25 3 0
BITMAP
E000
7000
7000
3800
3800
1C00
1C00
0E00
0E00
0700
0700
0380
0380
01C0
01C0
00E0
00E0
0070
0070
0078
0038
003C
001C
001E
000E
ENDCHAR
STARTCHAR bracketright
ENCODING 93
SWIDTH 407 0
DWIDTH 14 0
BBX 15 28 -1 -3
BITMAP
01FE
001E
003E
003C
003C
003C
007C
0078
0078
0078
00F8
00F0
00F0
00F0
01E0
01E0
01E0
03E0
03C0
03C0
03C0
07C0
0780
0780
0780
0F80
0F00
FF00
ENDCHAR
STARTCHAR asciicircum
ENCODING 94
SWIDTH 606 0
DWIDTH 20 0
BBX 17 13 2 12
BITMAP
01C000
03E000
03E000
07F000
0F7800
0E3800
1E3C00
1C1C00
3C1E00
380E00
780F00
700700
F00780
ENDCHAR
STARTCHAR underscore
ENCODING 95
SWIDTH 500 0
DWIDTH 16 0
BBX 16 2 0 -4
BITMAP
FFFF
FFFF
ENDCHAR
STARTCHAR grave
ENCODING 96
SWIDTH 333 0
DWIDTH 11 0
BBX 7 6 2 17
BITMAP
60
F0
F8
7C
1E
06
ENDCHAR
STARTCHAR a
ENCODING 97
SWIDTH 667 0
DWIDTH 21 0
BBX 20 16 0 0
BITMAP
01E3E0
07FBE0
1F8FE0
3F0FC0
3E0FC0
7E0FC0
7C0F80
FC0F80
FC0F80
F81F80
F81F10
F83F30
FC3F70
7CFFE0
7FDFC0
1F0F00
ENDCHAR
STARTCHAR b
ENCODING 98
SWIDTH 611 0
DWIDTH 18 0
BBX 17 25 0 0
BITMAP
03C000
1FC000
07C000
07C000
0F8000
0F8000
0F8000
1F0000
1F0000
1F7C00
1FFF00
3F9F00
3F0F80
3E0F80
7E0F80
7C0F80
7C1F80
FC1F80
F81F00
F81F00
F83E00
F83E00
787C00
7DF000
1FE000
ENDCHAR
STARTCHAR c
ENCODING 99
SWIDTH 537 0
DWIDTH 17 0
BBX 16 16 0 0
BITMAP
03FC
0FCE
1F0F
3F1F
7E1F
7E1F
FC0E
FC00
FC00
F800
F800
F804
FC0C
7E38
3FF0
0FC0
ENDCHAR
STARTCHAR d
ENCODING 100
SWIDTH 667 0
DWIDTH 22 0
BBX 22 25 0 0
BITMAP
00003C
0003FC
0000FC
0000FC
0000F8
0000F8
0000F8
0001F0
0001F0
01F1F0
07FFE0
1F8FE0
3F07E0
3E07E0
7E07C0
7E07C0
FC0FC0
FC0F80
FC0F80
F81F88
F81F98
FC3F30
7C6FE0
7FCFC0
1F8F80
ENDCHAR
STARTCHAR e
ENCODING 101
SWIDTH 519 0
DWIDTH 17 0
BBX 16 16 0 0
BITMAP
03FC
079E
1F0F
3E0F
3E1F
7C1F
7C3E
FCFC
FFE0
FC00
F800
F800
FC0C
7C38
3FF0
0FC0
ENDCHAR
STARTCHAR f
ENCODING 102
SWIDTH 389 0
DWIDTH 12 0
BBX 19 32 -1 -7
BITMAP
001F80
007DC0
00FBE0
01F3E0
01F3E0
01F1C0
03E000
03E000
03E000
3FFC00
3FFC00
07C000
07C000
0F8000
0F8000
0F8000
0F8000
1F0000
1F0000
1F0000
1F0000
3E0000
3E0000
3E0000
3E0000
7C0000
7C0000
7C0000
7C0000
F80000
F80000
F80000
ENDCHAR
STARTCHAR g
ENCODING 103
SWIDTH 611 0
DWIDTH 20 0
BBX 22 25 -2 -7
BITMAP
00003C
00007C
007FDC
01F3DC
03E1E0
07C1F0
07C1F0
07C1F0
07C3F0
07C3F0
03C7E0
07EFC0
0F7E00
1C0000
3E0000
3FFC00
3FFF00
1FFF80
1FFF80
7C1F80
F00780
F00780
F80F00
7F3E00
0FF000
ENDCHAR
STARTCHAR h
ENCODING 104
SWIDTH 685 0
DWIDTH 22 0
BBX 21 25 0 0
BITMAP
00F000
07F000
01F000
01F000
03E000
03E000
03E000
07C000
07C000
07C780
0F9FC0
0FBFE0
0FF3E0
1FC3E0
1F87E0
1F07C0
1F07C0
3E0FC0
3E0F80
3E0F98
7E1F18
7C1F70
7C1FE0
FC0FC0
FC0700
ENDCHAR
STARTCHAR i
ENCODING 105
SWIDTH 389 0
DWIDTH 12 0
BBX 10 25 1 0
BITMAP
0300
0780
0FC0
0FC0
0780
0300
0000
0000
0000
1F00
FF00
3F00
3F00
3E00
3E00
7E00
7C00
7C00
7C00
FCC0
F8C0
F980
FB00
FE00
7C00
ENDCHAR
STARTCHAR j
ENCODING 106
SWIDTH 370 0
DWIDTH 11 0
BBX 19 32 -7 -7
BITMAP
000180
0003C0
0007E0
0007E0
0003C0
000180
000000
000000
000000
0007C0
003FC0
000F80
000F80
001F80
001F00
001F00
001F00
003F00
003E00
003E00
003E00
007C00
007C00
007C00
007C00
00F800
70F800
F8F000
F9F000
79E000
7FC000
3F8000
ENDCHAR
STARTCHAR k
ENCODING 107
SWIDTH 648 0
DWIDTH 20 0
BBX 19 25 0 0
BITMAP
01F000
0FF000
03F000
03E000
03E000
07E000
07C000
07C000
07C000
0FC780
0F9FE0
0FBFE0
1FE3E0
1FC1E0
1F83C0
3F0780
3FFF00
3EF800
7C3C00
7C3E00
7C3E60
7C3E60
F83FC0
F83F80
F80E00
ENDCHAR
STARTCHAR l
ENCODING 108
SWIDTH 389 0
DWIDTH 12 0
BBX 11 25 1 0
BITMAP
03E0
1FE0
07E0
07C0
07C0
07C0
0FC0
0F80
0F80
1F80
1F00
1F00
3F00
3E00
3E00
3E00
7E00
7C00
7C00
FC40
F8C0
F9C0
FB80
FF00
7C00
ENDCHAR
STARTCHAR m
ENCODING 109
SWIDTH 944 0
DWIDTH 30 0
BBX 29 16 0 0
BITMAP
0F870380
7F9F8FC0
1F7FDFE0
1FE7F3E0
1FC7E3E0
1F87C3E0
3F0FC7C0
3F0F87C0
3E0F87C0
7E1F07C0
7C1F0F98
7C1F0F98
7C1F0FB0
F83E0FE0
F83E0FC0
F83E0700
ENDCHAR
STARTCHAR n
ENCODING 110
SWIDTH 685 0
DWIDTH 22 0
BBX 21 16 0 0
BITMAP
0F8780
7F9FC0
0FBFE0
0FF3E0
0FC3E0
1FC3E0
1F87E0
1F07C0
3F0FC0
3E0F80
3E0F88
7E0F98
7C1F30
7C1FE0
F81FC0
F80F00
ENDCHAR
STARTCHAR o
ENCODING 111
SWIDTH 574 0
DWIDTH 19 0
BBX 18 16 0 0
BITMAP
03FC00
0FCF00
1F0F80
3F07C0
7E07C0
7E07C0
FC0FC0
FC0FC0
FC0FC0
FC0FC0
F81F80
F81F80
F83F00
7C3E00
3CF800
0FE000
ENDCHAR
STARTCHAR p
ENCODING 112
SWIDTH 648 0
DWIDTH 20 0
BBX 23 23 -4 -7
BITMAP
00F9F0
07FFFC
01FC7C
01F87E
01F83E
01F03E
03F07E
03E07E
03E07E
07E07C
07E0FC
07C0F8
07E1F8
0FE3F0
0FBFC0
0F9F00
1F8000
1F0000
1F0000
1F0000
3F0000
FFC000
FFC000
ENDCHAR
STARTCHAR q
ENCODING 113
SWIDTH 630 0
DWIDTH 20 0
BBX 19 23 0 -7
BITMAP
01E060
07F9E0
1F8FE0
3F0FC0
3E07C0
7E0FC0
7C0FC0
FC0F80
FC0F80
FC1F80
F81F00
F83F00
FC3F00
7C7F00
7FFE00
1F3E00
007E00
007C00
007C00
007C00
00FC00
03FF00
07FF00
ENDCHAR
STARTCHAR r
ENCODING 114
SWIDTH 519 0
DWIDTH 16 0
BBX 17 16 0 0
BITMAP
0F9F00
7FBF80
1F6F80
1FCF80
1F8F00
1F8000
3F0000
3F0000
3E0000
7E0000
7C0000
7C0000
7C0000
FC0000
F80000
F80000
ENDCHAR
STARTCHAR s
ENCODING 115
SWIDTH 481 0
DWIDTH 15 0
BBX 14 16 0 0
BITMAP
07F0
1F3C
1C3C
3C3C
3E3C
3F18
3FC0
1FF0
1FF0
07F8
71F8
F8F8
F878
F070
79E0
3FC0
ENDCHAR
STARTCHAR t
ENCODING 116
SWIDTH 407 0
DWIDTH 12 0
BBX 13 22 0 0
BITMAP
03E0
03E0
07C0
07C0
07C0
0F80
7FF8
7FF0
1F00
1F00
1F00
3E00
3E00
3E00
7E00
7C00
7C40
FCC0
F980
FF00
7E00
3800
ENDCHAR
STARTCHAR u
ENCODING 117
SWIDTH 685 0
DWIDTH 21 0
BBX 20 16 0 0
BITMAP
1F83E0
7F87E0
1F07C0
1F07C0
3F0FC0
3E0F80
3E0F80
7E1F80
7C1F00
7C3F00
7C3F30
F87E70
F9FEE0
FFBFC0
7F3F80
3C1E00
ENDCHAR
STARTCHAR v
ENCODING 118
SWIDTH 556 0
DWIDTH 17 0
BBX 15 16 1 0
BITMAP
FF1C
FF3E
3F3E
3E1E
3E0E
7E06
7C06
7C0C
7C0C
F80C
F818
F838
F830
7CE0
7FC0
1F00
ENDCHAR
STARTCHAR w
ENCODING 119
SWIDTH 833 0
DWIDTH 27 0
BBX 25 16 1 0
BITMAP
FF07CF00
FF078F80
1F0F8F80
3E0F8780
3E0F8380
3E1F0300
7C1F0300
7C1F0300
7C3F0200
F83E0600
F87E0E00
F87E0C00
F8DF1800
FF9FF000
7F1FE000
3C07C000
ENDCHAR
STARTCHAR x
ENCODING 120
SWIDTH 574 0
DWIDTH 19 0
BBX 21 16 -2 0
BITMAP
03E0F0
07E1F8
0FF378
1DF670
19FC00
10F800
00F800
00F800
00F800
00FC00
01FC40
637CC0
F37FC0
FE3F80
FC3F00
701C00
ENDCHAR
STARTCHAR y
ENCODING 121
SWIDTH 519 0
DWIDTH 18 0
BBX 19 23 -2 -7
BITMAP
0781C0
0FC3E0
0FE3E0
1FE1E0
1BE1C0
33F1C0
31F180
01F180
01F100
00FB00
00FA00
00FE00
00FC00
007C00
007800
007800
003000
006000
70C000
F9C000
FB8000
7F0000
3C0000
ENDCHAR
STARTCHAR z
ENCODING 122
SWIDTH 519 0
DWIDTH 16 0
BBX 15 16 0 0
BITMAP
0FC6
1FFE
3FFE
3FFC
63D8
6070
00E0
03C0
0780
0E00
1C06
3786
7FFC
FFFC
CFF8
C3E0
ENDCHAR
STARTCHAR braceleft
ENCODING 123
SWIDTH 407 0
DWIDTH 14 0
BBX 11 31 2 -5
BITMAP
00E0
0180
0380
0780
0700
0700
0F00
0F00
0E00
0E00
0E00
1E00
1C00
1C00
3800
E000
7000
3800
3800
7800
7800
7000
7000
7000
F000
E000
E000
E000
E000
6000
3000
ENDCHAR
STARTCHAR bar
ENCODING 124
SWIDTH 606 0
DWIDTH 20 0
BBX 3 25 9 0
BITMAP
E0
E0
E0
E0
E0
E0
E0
E0
E0
E0
E0
E0
E0
E0
E0
E0
E0
E0
E0
E0
E0
E0
E0
E0
E0
ENDCHAR
STARTCHAR braceright
ENCODING 125
SWIDTH 407 0
DWIDTH 14 0
BBX 11 31 -1 -5
BITMAP
0300
01C0
00E0
00E0
00E0
00E0
01E0
01E0
01C0
01C0
01C0
03C0
0380
0380
03E0
00C0
0380
0780
0700
0700
0F00
0E00
0E00
0E00
1E00
1C00
1C00
3C00
3800
7000
C000
ENDCHAR
STARTCHAR asciitilde
ENCODING 126
SWIDTH 606 0
DWIDTH 19 0
BBX 17 6 1 6
BITMAP
1E0300
3FC780
7FFF80
FFFF00
F1FE00
603C00
ENDCHAR
STARTCHAR space
ENCODING 160
SWIDTH 287 0
DWIDTH 10 0
BBX 1 1 1 0
BITMAP
00
ENDCHAR
STARTCHAR exclamdown
ENCODING 161
SWIDTH 333 0
DWIDTH 11 0
BBX 11 25 -1 -7
BITMAP
01C0
03E0
03E0
03E0
01C0
0000
0000
0300
0300
0700
0700
0F00
0E00
0E00
1E00
1E00
3E00
3E00
7C00
7C00
FC00
FC00
FC00
FC00
7800
ENDCHAR
STARTCHAR cent
ENCODING 162
SWIDTH 574 0
DWIDTH 19 0
BBX 16 24 1 -4
BITMAP
0002
0006
0006
00FC
07FE
0F8E
1F1F
3E1F
7E3F
7C3E
FC6C
FC60
FCC0
F8C0
F880
F98C
FD9C
7F38
3FE0
0FC0
0600
0C00
0C00
0800
ENDCHAR
STARTCHAR sterling
ENCODING 163
SWIDTH 574 0
DWIDTH 19 0
BBX 19 24 0 0
BITMAP
001F00
007FC0
00F0E0
01F1E0
03E3E0
03E3E0
07C3E0
07C1C0
07C000
07C000
07C000
7FFE00
7FFE00
07C000
03C000
03C000
03C000
038040
7F80C0
FFC3C0
CFFF80
87FF80
CFFF00
787E00
ENDCHAR
STARTCHAR currency
ENCODING 164
SWIDTH 574 0
DWIDTH 19 0
BBX 16 16 2 4
BITMAP
47E6
FFFF
FFFF
7C3E
781E
F00F
E007
E007
E007
E007
F00F
781E
7C3E
FFFF
FFFF
47E2
ENDCHAR
STARTCHAR yen
ENCODING 165
SWIDTH 574 0
DWIDTH 19 0
BBX 20 24 1 0
BITMAP
FFCFF0
FFCFF0
3E03C0
3E0180
1F0380
1F0300
1F0600
0F8E00
0F8C00
0F9C00
079800
07F000
7FFF80
7FFF80
03E000
07C000
FFFF00
FFFF00
07C000
078000
0F8000
0F8000
7FF000
7FF000
ENDCHAR
STARTCHAR brokenbar
ENCODING 166
SWIDTH 606 0
DWIDTH 20 0
BBX 3 25 9 0
BITMAP
E0
E0
E0
E0
E0
E0
E0
E0
E0
E0
00
00
00
00
00
E0
E0
E0
E0
E0
E0
E0
E0
E0
E0
ENDCHAR
STARTCHAR section
ENCODING 167
SWIDTH 500 0
DWIDTH 17 0
BBX 19 30 -2 -5
BITMAP
003F00
0071C0
00E1C0
01E3E0
01E3E0
01E1C0
01F080
01F800
00FC00
007C00
07FE00
1C3F00
1C1F00
3C0F80
3C0780
3E0780
3F0380
3F8380
1FC700
0FFE00
07F000
03F000
01F800
00F800
787800
F87800
F83800
F07000
70E000
1FC000
ENDCHAR
STARTCHAR dieresis
ENCODING 168
SWIDTH 333 0
DWIDTH 14 0
BBX 12 5 3 18
BITMAP
70E0
F9F0
F9F0
F9F0
70E0
ENDCHAR
STARTCHAR copyright
ENCODING 169
SWIDTH 747 0
DWIDTH 25 0
BBX 23 25 1 0
BITMAP
01FE00
07FF80
0F87E0
1E00F0
3C0078
380038
70FF1C
71E71C
E3830E
E3830E
E7000E
C70006
C70006
C70006
C7800E
E7800E
E3C10E
63E31C
70FE1C
383838
380078
1E00F0
0F87E0
07FF80
01FE00
ENDCHAR
STARTCHAR ordfeminine
ENCODING 170
SWIDTH 412 0
DWIDTH 14 0
BBX 13 15 2 10
BITMAP
1F70
3DF0
78F0
70E0
F1E0
F1E0
E1C8
E3D8
F7F0
7DE0
0000
0000
0000
FFE0
FFE0
ENDCHAR
STARTCHAR guillemotleft
ENCODING 171
SWIDTH 481 0
DWIDTH 16 0
BBX 16 11 -1 2
BITMAP
0183
0306
0E1C
1C38
78F0
F1E0
78E0
3870
1C38
0C18
060C
ENDCHAR
STARTCHAR logicalnot
ENCODING 172
SWIDTH 606 0
DWIDTH 20 0
BBX 17 9 1 4
BITMAP
FFFF80
FFFF80
FFFF80
000380
000380
000380
000380
000380
000380
ENDCHAR
STARTCHAR hyphen
ENCODING 173
SWIDTH 333 0
DWIDTH 11 0
BBX 9 4 0 6
BITMAP
7F80
7F80
FF00
FF00
ENDCHAR
STARTCHAR registered
ENCODING 174
SWIDTH 747 0
DWIDTH 25 0
BBX 23 25 1 0
BITMAP
00FE00
03FF80
0FC7E0
1E00F0
3C0078
3BF838
71FE1C
61C70C
E1C70E
E1C30E
E1C70E
C1CE06
C1FC06
C1CE06
E1CF0E
E1C70E
E1C78E
61C38C
73F3DC
380038
3C0078
1E00F0
0FC7E0
03FF80
00FE00
ENDCHAR
STARTCHAR macron
ENCODING 175
SWIDTH 333 0
DWIDTH 11 0
BBX 10 3 2 18
BITMAP
7FC0
FFC0
FF80
ENDCHAR
STARTCHAR degree
ENCODING 176
SWIDTH 400 0
DWIDTH 13 0
BBX 10 9 2 14
BITMAP
1E00
7F80
E1C0
C0C0
C0C0
C0C0
E1C0
7F80
1E00
ENDCHAR
STARTCHAR plusminus
ENCODING 177
SWIDTH 606 0
DWIDTH 20 0
BBX 17 17 1 0
BITMAP
01C000
01C000
01C000
01C000
01C000
FFFF80
FFFF80
FFFF80
01C000
01C000
01C000
01C000
01C000
000000
FFFF80
FFFF80
FFFF80
ENDCHAR
STARTCHAR twosuperior
ENCODING 178
SWIDTH 344 0
DWIDTH 11 0
BBX 12 14 0 9
BITMAP
0FC0
19E0
30F0
38F0
3CF0
19E0
03C0
0780
0E00
1C20
3860
7FC0
FFC0
FF80
ENDCHAR
STARTCHAR threesuperior
ENCODING 179
SWIDTH 344 0
DWIDTH 11 0
BBX 11 14 0 9
BITMAP
1F80
39C0
38E0
39E0
01E0
03C0
0F00
0380
01C0
E1C0
E3C0
E3C0
E780
7E00
ENDCHAR
STARTCHAR acute
ENCODING 180
SWIDTH 333 0
DWIDTH 11 0
BBX 7 6 3 18
BITMAP
0C
1E
3E
7C
F0
C0
ENDCHAR
STARTCHAR mu
ENCODING 181
SWIDTH 576 0
DWIDTH 22 0
BBX 24 23 -3 -7
BITMAP
00F83E
07F87E
01F07C
01F07C
03F0FC
03E0F8
03E0F8
07E1F8
07C1F0
07C3F0
0FC7F3
0F87E7
1F9FEE
1FFBFC
1FF3F8
3BC1E0
380000
700000
700000
F00000
E00000
E00000
400000
ENDCHAR
STARTCHAR paragraph
ENCODING 182
SWIDTH 650 0
DWIDTH 22 0
BBX 19 25 3 0
BITMAP
0FFFE0
3F7380
7E7380
7CE700
FCE700
FCE700
FCE700
F9CE00
F9CE00
F9CE00
7FCE00
0F9C00
039C00
039C00
039C00
073800
073800
073800
073800
0E7000
0E7000
0E7000
0E7000
1CE000
7FF800
ENDCHAR
STARTCHAR periodcentered
ENCODING 183
SWIDTH 287 0
DWIDTH 9 0
BBX 6 5 1 6
BITMAP
78
FC
FC
FC
78
ENDCHAR
STARTCHAR cedilla
ENCODING 184
SWIDTH 333 0
DWIDTH 11 0
BBX 8 7 0 -7
BITMAP
08
18
3E
07
C7
7E
3C
ENDCHAR
STARTCHAR onesuperior
ENCODING 185
SWIDTH 344 0
DWIDTH 11 0
BBX 10 14 1 9
BITMAP
03C0
1FC0
0380
0780
0780
0700
0700
0F00
0E00
0E00
1E00
1E00
1E00
FF80
ENDCHAR
STARTCHAR ordmasculine
ENCODING 186
SWIDTH 356 0
DWIDTH 12 0
BBX 12 15 1 10
BITMAP
0FC0
3CE0
7870
F0F0
F0F0
F0F0
F0F0
E1E0
73C0
3F00
0000
0000
0000
FFE0
FFE0
ENDCHAR
STARTCHAR guillemotright
ENCODING 187
SWIDTH 481 0
DWIDTH 16 0
BBX 16 11 0 2
BITMAP
3060
1830
1C38
0E1C
0F1E
078F
0F1E
1C3C
3870
60C0
C180
ENDCHAR
STARTCHAR onequarter
ENCODING 188
SWIDTH 861 0
DWIDTH 29 0
BBX 26 24 1 0
BITMAP
00001800
01C01800
03C03000
1F807000
03806000
0780E000
0700C000
07018000
0F038000
0F0300C0
0E0701C0
0E0E03C0
1E0C07C0
1E1C0F80
FF981B80
00383380
00706780
0060C700
00E18700
00C3FFC0
01C00E00
03800E00
03001E00
07007F80
ENDCHAR
STARTCHAR onehalf
ENCODING 189
SWIDTH 861 0
DWIDTH 29 0
BBX 29 24 0 0
BITMAP
00000C00
01C01800
03C03800
1FC03000
03807000
03806000
0780C000
0701C000
07018000
0F038000
0F030FE0
0E061CF0
1E0E3078
1E0C3C78
FF9C3C78
00381CF0
003801E0
007003C0
00600700
00E00E10
00C01C30
01803FE0
03807FE0
0300FFC0
ENDCHAR
STARTCHAR threequarters
ENCODING 190
SWIDTH 861 0
DWIDTH 29 0
BBX 27 24 0 0
BITMAP
00000C00
1F801800
39C01800
38E03000
39E07000
01E06000
03C0C000
0F01C000
03C18000
01C38060
E1C300E0
E3C601E0
E3CE03C0
E78C07C0
7E1C0FC0
00181B80
00383380
00706380
0060C700
00E1FFE0
00C00700
01800700
03800F00
03003F80
ENDCHAR
STARTCHAR questiondown
ENCODING 191
SWIDTH 481 0
DWIDTH 16 0
BBX 12 25 1 -7
BITMAP
01E0
03F0
03F0
03F0
01E0
0000
0000
0700
0FC0
18E0
10E0
01E0
03E0
0FE0
1FC0
3F80
7F00
FE00
FC20
F020
F060
E060
F0C0
7F80
3F00
ENDCHAR
STARTCHAR Agrave
ENCODING 192
SWIDTH 741 0
DWIDTH 24 0
BBX 27 32 -3 0
BITMAP
00060000
000F0000
000F8000
0007C000
0001E000
00006000
00000000
00006000
0000F000
0001F000
0001F000
0003F000
0003F000
0007F800
000FF800
000DF800
001DF800
0019F800
0038FC00
0070FC00
0070FC00
00E0FC00
00E0FC00
01FFFE00
01FFFE00
03807E00
07007E00
0F007E00
0E003F00
3E003F00
FFC3FFE0
FFC3FFE0
ENDCHAR
STARTCHAR Aacute
ENCODING 193
SWIDTH 741 0
DWIDTH 24 0
BBX 27 32 -3 0
BITMAP
00000300
00000780
00000F80
00001F00
00003C00
00003000
00000000
00006000
0000F000
0001F000
0001F000
0003F000
0003F000
0007F800
000FF800
000DF800
001DF800
0019F800
0038FC00
0070FC00
0070FC00
00E0FC00
00E0FC00
01FFFE00
01FFFE00
03807E00
07007E00
0F007E00
0E003F00
3E003F00
FFC3FFE0
FFC3FFE0
ENDCHAR
STARTCHAR Acircumflex
ENCODING 194
SWIDTH 741 0
DWIDTH 24 0
BBX 27 32 -3 0
BITMAP
00001C00
00003C00
00007E00
0000FE00
0001C300
00030300
00000000
00006000
0000F000
0001F000
0001F000
0003F000
0003F000
0007F800
000FF800
000DF800
001DF800
0019F800
0038FC00
0070FC00
0070FC00
00E0FC00
00E0FC00
01FFFE00
01FFFE00
03807E00
07007E00
0F007E00
0E003F00
3E003F00
FFC3FFE0
FFC3FFE0
ENDCHAR
STARTCHAR Atilde
ENCODING 195
SWIDTH 741 0
DWIDTH 24 0
BBX 27 31 -3 0
BITMAP
0001C600
0003FE00
0007FC00
000E3800
00000000
00000000
00006000
0000F000
0001F000
0001F000
0003F000
0003F000
0007F800
000FF800
000DF800
001DF800
0019F800
0038FC00
0070FC00
0070FC00
00E0FC00
00E0FC00
01FFFE00
01FFFE00
03807E00
07007E00
0F007E00
0E003F00
3E003F00
FFC3FFE0
FFC3FFE0
ENDCHAR
STARTCHAR Adieresis
ENCODING 196
SWIDTH 741 0
DWIDTH 24 0
BBX 27 32 -3 0
BITMAP
00070E00
000F9F00
000F9F00
000F9F00
00070E00
00000000
00000000
00006000
0000F000
0001F000
0001F000
0003F000
0003F000
0007F800
000FF800
000DF800
001DF800
0019F800
0038FC00
0070FC00
0070FC00
00E0FC00
00E0FC00
01FFFE00
01FFFE00
03807E00
07007E00
0F007E00
0E003F00
3E003F00
FFC3FFE0
FFC3FFE0
ENDCHAR
STARTCHAR Aring
ENCODING 197
SWIDTH 741 0
DWIDTH 24 0
BBX 27 32 -3 0
BITMAP
00007000
0000F800
00018C00
00018C00
0000F800
00007000
00000000
00006000
0000F000
0001F000
0001F000
0003F000
0003F000
0007F800
000FF800
000DF800
001DF800
0019F800
0038FC00
0070FC00
0070FC00
00E0FC00
00E0FC00
01FFFE00
01FFFE00
03807E00
07007E00
0F007E00
0E003F00
3E003F00
FFC3FFE0
FFC3FFE0
ENDCHAR
STARTCHAR AE
ENCODING 198
SWIDTH 889 0
DWIDTH 30 0
BBX 33 25 -3 0
BITMAP
003FFFFF80
003FFFFF80
000FFE0F80
00077E0700
00067E0700
000E7C0300
000CFC0300
001CFC3300
0038FC7300
0030F86000
0071F8E000
00E1FFE000
00C1FFE000
01C3F3C000
01FFF1C000
03FFF1C000
0703E1C600
0607E18600
0E07E18E00
1C07E01E00
1C07C01C00
380FC07C00
780FC0FC00
FE7FFFFC00
FE7FFFF800
ENDCHAR
STARTCHAR Ccedilla
ENCODING 199
SWIDTH 759 0
DWIDTH 24 0
BBX 24 32 0 -7
BITMAP
001F80
00FFE3
01F877
07E01F
0FC01E
1F800E
3F800E
3F000E
7F000E
7F000C
7E0000
FE0000
FE0000
FE0000
FC0000
FC0000
FC0000
FC0000
FC0018
7E0030
7E0070
3F00E0
1FC3C0
0FFF80
00FE00
004000
00C000
01F000
003800
063800
03F000
01E000
ENDCHAR
STARTCHAR Egrave
ENCODING 200
SWIDTH 741 0
DWIDTH 24 0
BBX 26 32 -1 0
BITMAP
00060000
000F0000
000F8000
0007C000
0001E000
00006000
00000000
07FFFFC0
07FFFFC0
00FC0FC0
00FC0780
00FC0380
01F80380
01F80380
01F83300
01F87300
03F06000
03F1E000
03FFE000
03FFE000
07E3C000
07E1C000
07E1C000
07E1C300
0FC18700
0FC18600
0FC00E00
0FC01E00
1F803C00
3F80FC00
FFFFFC00
FFFFFC00
ENDCHAR
STARTCHAR Eacute
ENCODING 201
SWIDTH 741 0
DWIDTH 24 0
BBX 26 32 -1 0
BITMAP
00000C00
00001E00
00003E00
00007C00
0000F000
0000C000
00000000
07FFFFC0
07FFFFC0
00FC0FC0
00FC0780
00FC0380
01F80380
01F80380
01F83300
01F87300
03F06000
03F1E000
03FFE000
03FFE000
07E3C000
07E1C000
07E1C000
07E1C300
0FC18700
0FC18600
0FC00E00
0FC01E00
1F803C00
3F80FC00
FFFFFC00
FFFFFC00
ENDCHAR
STARTCHAR Ecircumflex
ENCODING 202
SWIDTH 741 0
DWIDTH 24 0
BBX 26 32 -1 0
BITMAP
00007000
0000F000
0001F800
0003F800
00070C00
000C0400
00000000
07FFFFC0
07FFFFC0
00FC0FC0
00FC0780
00FC0380
01F80380
01F80380
01F83300
01F87300
03F06000
03F1E000
03FFE000
03FFE000
07E3C000
07E1C000
07E1C000
07E1C300
0FC18700
0FC18600
0FC00E00
0FC01E00
1F803C00
3F80FC00
FFFFFC00
FFFFFC00
ENDCHAR
STARTCHAR Edieresis
ENCODING 203
SWIDTH 741 0
DWIDTH 24 0
BBX 26 32 -1 0
BITMAP
00070E00
000F9F00
000F9F00
000F9F00
00070E00
00000000
00000000
07FFFFC0
07FFFFC0
00FC0FC0
00FC0780
00FC0380
01F80380
01F80380
01F83300
01F87300
03F06000
03F1E000
03FFE000
03FFE000
07E3C000
07E1C000
07E1C000
07E1C300
0FC18700
0FC18600
0FC00E00
0FC01E00
1F803C00
3F80FC00
FFFFFC00
FFFFFC00
ENDCHAR
STARTCHAR Igrave
ENCODING 204
SWIDTH 444 0
DWIDTH 15 0
BBX 17 32 -1 0
BITMAP
00C000
01E000
01F000
00F800
003C00
000C00
000000
07FF80
07FF80
00FC00
00FC00
00FC00
01F800
01F800
01F800
01F800
03F000
03F000
03F000
03F000
07E000
07E000
07E000
0FC000
0FC000
0FC000
0FC000
1F8000
1F8000
1FC000
FFF000
FFF000
ENDCHAR
STARTCHAR Iacute
ENCODING 205
SWIDTH 444 0
DWIDTH 15 0
BBX 17 32 -1 0
BITMAP
000600
000F00
001F00
003E00
007800
006000
000000
07FF80
07FF80
00FC00
00FC00
00FC00
01F800
01F800
01F800
01F800
03F000
03F000
03F000
03F000
07E000
07E000
07E000
0FC000
0FC000
0FC000
0FC000
1F8000
1F8000
1FC000
FFF000
FFF000
ENDCHAR
STARTCHAR Icircumflex
ENCODING 206
SWIDTH 444 0
DWIDTH 15 0
BBX 17 32 -1 0
BITMAP
001C00
003C00
007E00
00FE00
01C300
030100
000000
07FF80
07FF80
00FC00
00FC00
00FC00
01F800
01F800
01F800
01F800
03F000
03F000
03F000
03F000
07E000
07E000
07E000
0FC000
0FC000
0FC000
0FC000
1F8000
1F8000
1FC000
FFF000
FFF000
ENDCHAR
STARTCHAR Idieresis
ENCODING 207
SWIDTH 444 0
DWIDTH 15 0
BBX 18 32 -1 0
BITMAP
01C380
03E7C0
03E7C0
03E7C0
01C380
000000
000000
07FF80
07FF80
00FC00
00FC00
00FC00
01F800
01F800
01F800
01F800
03F000
03F000
03F000
03F000
07E000
07E000
07E000
0FC000
0FC000
0FC000
0FC000
1F8000
1F8000
1FC000
FFF000
FFF000
ENDCHAR
STARTCHAR Eth
ENCODING 208
SWIDTH 833 0
DWIDTH 27 0
BBX 28 25 -2 0
BITMAP
07FFF800
07FFFF00
00FE1F80
00FC07C0
00FC07E0
00FC03E0
01F803F0
01F803F0
01F803F0
01F803F0
3FFF83F0
3FFF87F0
03F007F0
07E007F0
07E007E0
07E00FE0
07E00FE0
0FC00FC0
0FC01FC0
0FC01F80
0FC03F00
1F807E00
1F81FC00
FFFFF000
FFFF0000
ENDCHAR
STARTCHAR Ntilde
ENCODING 209
SWIDTH 852 0
DWIDTH 28 0
BBX 33 31 -2 0
BITMAP
0000718000
0000FF8000
0001FF0000
00038E0000
0000000000
0000000000
07FC01FF80
07FE01FF80
007E003C00
007F003800
007F003800
00FF803800
00DF803000
00DFC03000
00CFC03000
01CFE07000
0187E06000
0187F06000
0183F0E000
0383F8C000
0301F8C000
0300FCC000
0700FFC000
06007F8000
06007F8000
06003F8000
0E003F8000
0E001F0000
1F001F0000
FFC00F0000
FFC00F0000
ENDCHAR
STARTCHAR Ograve
ENCODING 210
SWIDTH 833 0
DWIDTH 27 0
BBX 26 32 0 0
BITMAP
000C0000
001E0000
001F0000
000F8000
0003C000
0000C000
00000000
000FC000
007FF800
01FC3E00
03F01F00
07E01F00
0FC00F80
1F800F80
3F800FC0
3F000FC0
7F000FC0
7F001FC0
FE001FC0
FE001FC0
FE001FC0
FC003F80
FC003F80
FC003F00
FC007F00
7C007E00
7C00FC00
7E01FC00
3E03F000
1F0FE000
07FF8000
00FC0000
ENDCHAR
STARTCHAR Oacute
ENCODING 211
SWIDTH 833 0
DWIDTH 27 0
BBX 26 32 0 0
BITMAP
00000C00
00001E00
00003E00
00007C00
0000F000
0000C000
00000000
000FC000
007FF800
01FC3E00
03F01F00
07E01F00
0FC00F80
1F800F80
3F800FC0
3F000FC0
7F000FC0
7F001FC0
FE001FC0
FE001FC0
FE001FC0
FC003F80
FC003F80
FC003F00
FC007F00
7C007E00
7C00FC00
7E01FC00
3E03F000
1F0FE000
07FF8000
00FC0000
ENDCHAR
STARTCHAR Ocircumflex
ENCODING 212
SWIDTH 833 0
DWIDTH 27 0
BBX 26 32 0 0
BITMAP
0001C000
0003C000
0007E000
000FE000
001C3000
00301000
00000000
000FC000
007FF800
01FC3E00
03F01F00
07E01F00
0FC00F80
1F800F80
3F800FC0
3F000FC0
7F000FC0
7F001FC0
FE001FC0
FE001FC0
FE001FC0
FC003F80
FC003F80
FC003F00
FC007F00
7C007E00
7C00FC00
7E01FC00
3E03F000
1F0FE000
07FF8000
00FC0000
ENDCHAR
STARTCHAR Otilde
ENCODING 213
SWIDTH 833 0
DWIDTH 27 0
BBX 26 31 0 0
BITMAP
00038C00
0007FC00
000FF800
001C7000
00000000
00000000
000FC000
007FF800
01FC3E00
03F01F00
07E01F00
0FC00F80
1F800F80
3F800FC0
3F000FC0
7F000FC0
7F001FC0
FE001FC0
FE001FC0
FE001FC0
FC003F80
FC003F80
FC003F00
FC007F00
7C007E00
7C00FC00
7E01FC00
3E03F000
1F0FE000
07FF8000
00FC0000
ENDCHAR
STARTCHAR Odieresis
ENCODING 214
SWIDTH 833 0
DWIDTH 27 0
BBX 26 32 0 0
BITMAP
001C3800
003E7C00
003E7C00
003E7C00
001C3800
00000000
00000000
000FC000
007FF800
01FC3E00
03F01F00
07E01F00
0FC00F80
1F800F80
3F800FC0
3F000FC0
7F000FC0
7F001FC0
FE001FC0
FE001FC0
FE001FC0
FC003F80
FC003F80
FC003F00
FC007F00
7C007E00
7C00FC00
7E01FC00
3E03F000
1F0FE000
07FF8000
00FC0000
ENDCHAR
STARTCHAR multiply
ENCODING 215
SWIDTH 606 0
DWIDTH 20 0
BBX 17 17 1 0
BITMAP
200200
700700
F80F80
7C1F00
3E3E00
1F7C00
0FF800
07F000
03E000
07F000
0FF800
1F7C00
3E3E00
7C1F00
F80F80
700700
200200
ENDCHAR
STARTCHAR Oslash
ENCODING 216
SWIDTH 833 0
DWIDTH 27 0
BBX 26 28 0 -2
BITMAP
00000180
000FE300
007FFE00
01F87E00
03F03F00
07E03F00
0FC03F80
1F806F80
3F80CFC0
3F01CFC0
7F038FC0
7F071FC0
FE0E1FC0
FE0C1FC0
FE181FC0
FC303F80
FC603F80
FCE03F00
FDC07F00
7F807E00
7F00FC00
7E01FC00
3E03F000
1F87E000
3FFF8000
30FC0000
60000000
C0000000
ENDCHAR
STARTCHAR Ugrave
ENCODING 217
SWIDTH 833 0
DWIDTH 27 0
BBX 27 32 2 0
BITMAP
00180000
003C0000
003E0000
001F0000
00078000
00018000
00000000
7FF83FE0
7FF83FE0
1FC00F80
1FC00700
1F800600
1F800600
1F800E00
3F000C00
3F000C00
3F000C00
3F001C00
7E001800
7E001800
7E003800
7E003000
FC003000
FC003000
FC007000
FC006000
FC00E000
7C00C000
7E01C000
3F078000
1FFF0000
07F80000
ENDCHAR
STARTCHAR Uacute
ENCODING 218
SWIDTH 833 0
DWIDTH 27 0
BBX 27 32 2 0
BITMAP
00003000
00007800
0000F800
0001F000
0003C000
00030000
00000000
7FF83FE0
7FF83FE0
1FC00F80
1FC00700
1F800600
1F800600
1F800E00
3F000C00
3F000C00
3F000C00
3F001C00
7E001800
7E001800
7E003800
7E003000
FC003000
FC003000
FC007000
FC006000
FC00E000
7C00C000
7E01C000
3F078000
1FFF0000
07F80000
ENDCHAR
STARTCHAR Ucircumflex
ENCODING 219
SWIDTH 833 0
DWIDTH 27 0
BBX 27 32 2 0
BITMAP
0001C000
0003C000
0007E000
000FE000
001C3000
00301000
00000000
7FF83FE0
7FF83FE0
1FC00F80
1FC00700
1F800600
1F800600
1F800E00
3F000C00
3F000C00
3F000C00
3F001C00
7E001800
7E001800
7E003800
7E003000
FC003000
FC003000
FC007000
FC006000
FC00E000
7C00C000
7E01C000
3F078000
1FFF0000
07F80000
ENDCHAR
STARTCHAR Udieresis
ENCODING 220
SWIDTH 833 0
DWIDTH 27 0
BBX 27 32 2 0
BITMAP
001C3800
003E7C00
003E7C00
003E7C00
001C3800
00000000
00000000
7FF83FE0
7FF83FE0
1FC00F80
1FC00700
1F800600
1F800600
1F800E00
3F000C00
3F000C00
3F000C00
3F001C00
7E001800
7E001800
7E003800
7E003000
FC003000
FC003000
FC007000
FC006000
FC00E000
7C00C000
7E01C000
3F078000
1FFF0000
07F80000
ENDCHAR
STARTCHAR Yacute
ENCODING 221
SWIDTH 704 0
DWIDTH 23 0
BBX 25 32 1 0
BITMAP
0000C000
0001E000
0003E000
0007C000
000F0000
000C0000
00000000
FFF1FF80
FFF1FF80
3F803E00
1F803800
1F807000
0FC07000
0FC0E000
0FC1C000
07E18000
07E38000
03F70000
03FE0000
03FC0000
01FC0000
01F80000
01F80000
03F00000
03F00000
03F00000
03F00000
07E00000
07E00000
07E00000
7FFE0000
7FFE0000
ENDCHAR
STARTCHAR Thorn
ENCODING 222
SWIDTH 741 0
DWIDTH 24 0
BBX 24 25 -1 0
BITMAP
07FF80
07FF80
00FE00
00FC00
00FC00
00FC00
01FFF0
01FFFC
01F87E
03F83E
03F03F
03F03F
03F03F
07E03F
07E07E
07E07E
07E0FC
0FC1F8
0FFFF0
0FFF80
0FC000
1F8000
1F8000
FFF000
FFF000
ENDCHAR
STARTCHAR germandbls
ENCODING 223
SWIDTH 574 0
DWIDTH 19 0
BBX 20 31 -2 -6
BITMAP
003F80
007BC0
00F1E0
00E1F0
01E1F0
01E1F0
03E1F0
03C1E0
03C3E0
03C3C0
07CF00
07C700
07C380
0783C0
0783E0
0F83E0
0F83E0
0F83E0
0F83E0
0F03E0
1F07E0
1F07C0
1F07C0
1F0F80
1E7E00
3E0000
3E0000
7E0000
7C0000
7C0000
FC0000
ENDCHAR
STARTCHAR agrave
ENCODING 224
SWIDTH 667 0
DWIDTH 21 0
BBX 20 23 0 0
BITMAP
018000
03C000
03E000
01F000
007800
001800
000000
01E3E0
07FBE0
1F8FE0
3F0FC0
3E0FC0
7E0FC0
7C0F80
FC0F80
FC0F80
F81F80
F81F10
F83F30
FC3F70
7CFFE0
7FDFC0
1F0F00
ENDCHAR
STARTCHAR aacute
ENCODING 225
SWIDTH 667 0
DWIDTH 21 0
BBX 20 23 0 0
BITMAP
000600
000F00
001F00
003E00
007800
006000
000000
01E3E0
07FBE0
1F8FE0
3F0FC0
3E0FC0
7E0FC0
7C0F80
FC0F80
FC0F80
F81F80
F81F10
F83F30
FC3F70
7CFFE0
7FDFC0
1F0F00
ENDCHAR
STARTCHAR acircumflex
ENCODING 226
SWIDTH 667 0
DWIDTH 21 0
BBX 20 23 0 0
BITMAP
000E00
001E00
003F00
007F00
00E180
018080
000000
01E3E0
07FBE0
1F8FE0
3F0FC0
3E0FC0
7E0FC0
7C0F80
FC0F80
FC0F80
F81F80
F81F10
F83F30
FC3F70
7CFFE0
7FDFC0
1F0F00
ENDCHAR
STARTCHAR atilde
ENCODING 227
SWIDTH 667 0
DWIDTH 21 0
BBX 20 22 0 0
BITMAP
007180
00FF80
01FF00
038E00
000000
000000
01E3E0
07FBE0
1F8FE0
3F0FC0
3E0FC0
7E0FC0
7C0F80
FC0F80
FC0F80
F81F80
F81F10
F83F30
FC3F70
7CFFE0
7FDFC0
1F0F00
ENDCHAR
STARTCHAR adieresis
ENCODING 228
SWIDTH 667 0
DWIDTH 21 0
BBX 20 23 0 0
BITMAP
01C380
03E7C0
03E7C0
03E7C0
01C380
000000
000000
01E3E0
07FBE0
1F8FE0
3F0FC0
3E0FC0
7E0FC0
7C0F80
FC0F80
FC0F80
F81F80
F81F10
F83F30
FC3F70
7CFFE0
7FDFC0
1F0F00
ENDCHAR
STARTCHAR aring
ENCODING 229
SWIDTH 667 0
DWIDTH 21 0
BBX 20 23 0 0
BITMAP
003800
007C00
00C600
00C600
007C00
003800
000000
01E3E0
07FBE0
1F8FE0
3F0FC0
3E0FC0
7E0FC0
7C0F80
FC0F80
FC0F80
F81F80
F81F10
F83F30
FC3F70
7CFFE0
7FDFC0
1F0F00
ENDCHAR
STARTCHAR ae
ENCODING 230
SWIDTH 815 0
DWIDTH 27 0
BBX 27 16 -1 0
BITMAP
07F83F80
0F3EF3C0
1F0FE1E0
1F07C1E0
1F0FC3E0
0F0FC3E0
000F8F80
00FFFF00
0FFFF000
3E1F0000
7C1F0000
F83F0000
FC3F8180
FCEF8380
FFC7FE00
7F03F800
ENDCHAR
STARTCHAR ccedilla
ENCODING 231
SWIDTH 537 0
DWIDTH 17 0
BBX 16 23 0 -7
BITMAP
03FC
0FCE
1F0F
3F1F
7E1F
7E1F
FC0E
FC00
FC00
F800
F800
F804
FC0C
7E38
3FF0
0FC0
0200
0600
0F80
01C0
31C0
1F80
0F00
ENDCHAR
STARTCHAR egrave
ENCODING 232
SWIDTH 519 0
DWIDTH 17 0
BBX 16 23 0 0
BITMAP
0180
03C0
03E0
01F0
0078
0018
0000
03FC
079E
1F0F
3E0F
3E1F
7C1F
7C3E
FCFC
FFE0
FC00
F800
F800
FC0C
7C38
3FF0
0FC0
ENDCHAR
STARTCHAR eacute
ENCODING 233
SWIDTH 519 0
DWIDTH 17 0
BBX 16 23 0 0
BITMAP
000C
001E
003E
007C
00F0
00C0
0000
03FC
079E
1F0F
3E0F
3E1F
7C1F
7C3E
FCFC
FFE0
FC00
F800
F800
FC0C
7C38
3FF0
0FC0
ENDCHAR
STARTCHAR ecircumflex
ENCODING 234
SWIDTH 519 0
DWIDTH 17 0
BBX 16 23 0 0
BITMAP
0038
0078
00FC
01FC
0386
0602
0000
03FC
079E
1F0F
3E0F
3E1F
7C1F
7C3E
FCFC
FFE0
FC00
F800
F800
FC0C
7C38
3FF0
0FC0
ENDCHAR
STARTCHAR edieresis
ENCODING 235
SWIDTH 519 0
DWIDTH 17 0
BBX 16 23 0 0
BITMAP
070E
0F9F
0F9F
0F9F
070E
0000
0000
03FC
079E
1F0F
3E0F
3E1F
7C1F
7C3E
FCFC
FFE0
FC00
F800
F800
FC0C
7C38
3FF0
0FC0
ENDCHAR
STARTCHAR igrave
ENCODING 236
SWIDTH 389 0
DWIDTH 13 0
BBX 10 23 1 0
BITMAP
3000
7800
7C00
3E00
0F00
0300
0000
0F80
7F80
1F80
1F00
3F00
3F00
3E00
3E00
7E00
7C00
7C40
FCC0
F980
FB80
FF00
7C00
ENDCHAR
STARTCHAR iacute
ENCODING 237
SWIDTH 389 0
DWIDTH 13 0
BBX 11 23 1 0
BITMAP
00C0
01E0
03E0
07C0
0F00
0C00
0000
0F80
7F80
1F80
1F00
3F00
3F00
3E00
3E00
7E00
7C00
7C40
FCC0
F980
FB80
FF00
7C00
ENDCHAR
STARTCHAR icircumflex
ENCODING 238
SWIDTH 389 0
DWIDTH 13 0
BBX 11 23 1 0
BITMAP
0380
0780
0FC0
1FC0
3860
6020
0000
0F80
7F80
1F80
1F00
3F00
3F00
3E00
3E00
7E00
7C00
7C40
FCC0
F980
FB80
FF00
7C00
ENDCHAR
STARTCHAR idieresis
ENCODING 239
SWIDTH 389 0
DWIDTH 13 0
BBX 13 23 1 0
BITMAP
3870
7CF8
7CF8
7CF8
3870
0000
0000
0F80
7F80
1F80
1F00
3F00
3F00
3E00
3E00
7E00
7C00
7C40
FCC0
F980
FB80
FF00
7C00
ENDCHAR
STARTCHAR eth
ENCODING 240
SWIDTH 574 0
DWIDTH 19 0
BBX 18 25 0 0
BITMAP
018300
01E700
007E00
003800
00FC00
01DE00
008F00
000F00
000780
03FF80
0FCF80
1F07C0
3F07C0
3E07C0
7E07C0
7C07C0
FC07C0
FC0FC0
F80FC0
F80F80
F81F80
781F00
7C3E00
3CF800
0FE000
ENDCHAR
STARTCHAR ntilde
ENCODING 241
SWIDTH 685 0
DWIDTH 22 0
BBX 21 22 0 0
BITMAP
001C60
003FE0
007FC0
00E380
000000
000000
0F8780
7F9FC0
0FBFE0
0FF3E0
0FC3E0
1FC3E0
1F87E0
1F07C0
3F0FC0
3E0F80
3E0F88
7E0F98
7C1F30
7C1FE0
F81FC0
F80F00
ENDCHAR
STARTCHAR ograve
ENCODING 242
SWIDTH 574 0
DWIDTH 19 0
BBX 18 23 0 0
BITMAP
00C000
01E000
01F000
00F800
003C00
000C00
000000
03FC00
0FCF00
1F0F80
3F07C0
7E07C0
7E07C0
FC0FC0
FC0FC0
FC0FC0
FC0FC0
F81F80
F81F80
F83F00
7C3E00
3CF800
0FE000
ENDCHAR
STARTCHAR oacute
ENCODING 243
SWIDTH 574 0
DWIDTH 19 0
BBX 18 23 0 0
BITMAP
000600
000F00
001F00
003E00
007800
006000
000000
03FC00
0FCF00
1F0F80
3F07C0
7E07C0
7E07C0
FC0FC0
FC0FC0
FC0FC0
FC0FC0
F81F80
F81F80
F83F00
7C3E00
3CF800
0FE000
ENDCHAR
STARTCHAR ocircumflex
ENCODING 244
SWIDTH 574 0
DWIDTH 19 0
BBX 18 23 0 0
BITMAP
001C00
003C00
007E00
00FE00
01C300
030100
000000
03FC00
0FCF00
1F0F80
3F07C0
7E07C0
7E07C0
FC0FC0
FC0FC0
FC0FC0
FC0FC0
F81F80
F81F80
F83F00
7C3E00
3CF800
0FE000
ENDCHAR
STARTCHAR otilde
ENCODING 245
SWIDTH 574 0
DWIDTH 19 0
BBX 18 22 0 0
BITMAP
007180
00FF80
01FF00
038E00
000000
000000
03FC00
0FCF00
1F0F80
3F07C0
7E07C0
7E07C0
FC0FC0
FC0FC0
FC0FC0
FC0FC0
F81F80
F81F80
F83F00
7C3E00
3CF800
0FE000
ENDCHAR
STARTCHAR odieresis
ENCODING 246
SWIDTH 574 0
DWIDTH 19 0
BBX 18 23 0 0
BITMAP
038700
07CF80
07CF80
07CF80
038700
000000
000000
03FC00
0FCF00
1F0F80
3F07C0
7E07C0
7E07C0
FC0FC0
FC0FC0
FC0FC0
FC0FC0
F81F80
F81F80
F83F00
7C3E00
3CF800
0FE000
ENDCHAR
STARTCHAR divide
ENCODING 247
SWIDTH 606 0
DWIDTH 20 0
BBX 17 17 1 0
BITMAP
00C000
01E000
03F000
01E000
00C000
000000
000000
FFFF80
FFFF80
FFFF80
000000
000000
00C000
01E000
03F000
01E000
00C000
ENDCHAR
STARTCHAR oslash
ENCODING 248
SWIDTH 574 0
DWIDTH 19 0
BBX 18 24 0 -4
BITMAP
000100
000300
000300
000600
01FE00
07DF00
1F1F80
3F17C0
3E37C0
7C67C0
7C67C0
FCCFC0
F8CFC0
F98FC0
FB9F80
FB1F80
7A3F00
7E3E00
3EFC00
0FF000
180000
300000
300000
200000
ENDCHAR
STARTCHAR ugrave
ENCODING 249
SWIDTH 685 0
DWIDTH 21 0
BBX 20 23 0 0
BITMAP
018000
03C000
03E000
01F000
007800
001800
000000
1F83E0
7F87E0
1F07C0
1F07C0
3F0FC0
3E0F80
3E0F80
7E1F80
7C1F00
7C3F00
7C3F30
F87E70
F9FEE0
FFBFC0
7F3F80
3C1E00
ENDCHAR
STARTCHAR uacute
ENCODING 250
SWIDTH 685 0
DWIDTH 21 0
BBX 20 23 0 0
BITMAP
000600
000F00
001F00
003E00
007800
006000
000000
1F83E0
7F87E0
1F07C0
1F07C0
3F0FC0
3E0F80
3E0F80
7E1F80
7C1F00
7C3F00
7C3F30
F87E70
F9FEE0
FFBFC0
7F3F80
3C1E00
ENDCHAR
STARTCHAR ucircumflex
ENCODING 251
SWIDTH 685 0
DWIDTH 21 0
BBX 20 23 0 0
BITMAP
001C00
003C00
007E00
00FE00
01C300
030100
000000
1F83E0
7F87E0
1F07C0
1F07C0
3F0FC0
3E0F80
3E0F80
7E1F80
7C1F00
7C3F00
7C3F30
F87E70
F9FEE0
FFBFC0
7F3F80
3C1E00
ENDCHAR
STARTCHAR udieresis
ENCODING 252
SWIDTH 685 0
DWIDTH 21 0
BBX 20 23 0 0
BITMAP
038700
07CF80
07CF80
07CF80
038700
000000
000000
1F83E0
7F87E0
1F07C0
1F07C0
3F0FC0
3E0F80
3E0F80
7E1F80
7C1F00
7C3F00
7C3F30
F87E70
F9FEE0
FFBFC0
7F3F80
3C1E00
ENDCHAR
STARTCHAR yacute
ENCODING 253
SWIDTH 519 0
DWIDTH 17 0
BBX 19 30 -2 -7
BITMAP
000300
000780
000F80
001F00
003C00
003000
000000
0781C0
0FC3E0
0FE3E0
1FE1E0
1BE1C0
33F1C0
31F180
01F180
01F100
00FB00
00FA00
00FE00
00FC00
007C00
007800
007800
003000
006000
70C000
F9C000
FB8000
7F0000
3C0000
ENDCHAR
STARTCHAR thorn
ENCODING 254
SWIDTH 648 0
DWIDTH 20 0
BBX 23 29 -4 -7
BITMAP
003E00
01FE00
007C00
007C00
007C00
00F800
00F9F0
00F7FC
00FC7C
01F87E
01F83E
01F03E
03F03E
03E07E
03E07E
03C07C
07C0FC
07C0F8
07C1F8
0FE3F0
0FBFC0
0F9F00
1F8000
1F0000
1F0000
1F0000
3F0000
FFC000
FFC000
ENDCHAR
STARTCHAR ydieresis
ENCODING 255
SWIDTH 519 0
DWIDTH 18 0
BBX 19 30 -2 -7
BITMAP
01C380
03E7C0
03E7C0
03E7C0
01C380
000000
000000
0781C0
0FC3E0
0FE3E0
1FE1E0
1BE1C0
33F1C0
31F180
01F180
01F100
00FB00
00FA00
00FE00
00FC00
007C00
007800
007800
003000
006000
70C000
F9C000
FB8000
7F0000
3C0000
ENDCHAR
ENDFONT
