STARTFONT 2.1
COMMENT AUTOMATICALLY GENERATED FILE. DO NOT EDIT!
COMMENT Generated with 'ucs2any.pl ncenI18.bdf ../../../fonts/util/map-ISO8859-1 ISO8859-1'
COMMENT from an ISO10646-1 encoded source BDF font.
COMMENT ucs2any.pl by Markus Kuhn <mkuhn@acm.org>, 2000.
FONT -Adobe-New Century Schoolbook-Medium-I-Normal--25-180-100-100-P-136-ISO8859-1
SIZE 18 100 100
FONTBOUNDINGBOX 29 28 -4 -5
COMMENT $Xorg: $
COMMENT ISO10646-1 extension by Markus Kuhn <mkuhn@acm.org>, 2001-03-20
COMMENT 
COMMENT +
COMMENT  Copyright 1984-1989, 1994 Adobe Systems Incorporated.
COMMENT  Copyright 1988, 1994 Digital Equipment Corporation.
COMMENT
COMMENT  Adobe is a trademark of Adobe Systems Incorporated which may be
COMMENT  registered in certain jurisdictions.
COMMENT  Permission to use these trademarks is hereby granted only in
COMMENT  association with the images described in this file.
COMMENT
COMMENT  Permission to use, copy, modify, distribute and sell this software
COMMENT  and its documentation for any purpose and without fee is hereby
COMMENT  granted, provided that the above copyright notices appear in all
COMMENT  copies and that both those copyright notices and this permission
COMMENT  notice appear in supporting documentation, and that the names of
COMMENT  Adobe Systems and Digital Equipment Corporation not be used in
COMMENT  advertising or publicity pertaining to distribution of the software
COMMENT  without specific, written prior permission.  Adobe Systems and
COMMENT  Digital Equipment Corporation make no representations about the
COMMENT  suitability of this software for any purpose.  It is provided "as
COMMENT  is" without express or implied warranty.
COMMENT -
STARTPROPERTIES 26
FOUNDRY "Adobe"
FAMILY_NAME "New Century Schoolbook"
WEIGHT_NAME "Medium"
SLANT "I"
SETWIDTH_NAME "Normal"
ADD_STYLE_NAME ""
PIXEL_SIZE 25
POINT_SIZE 180
RESOLUTION_X 100
RESOLUTION_Y 100
SPACING "P"
AVERAGE_WIDTH 136
CHARSET_REGISTRY "ISO8859"
CHARSET_ENCODING "1"
CAP_HEIGHT 18
X_HEIGHT 12
FONT_ASCENT 21
FONT_DESCENT 5
FACE_NAME "New Century Schoolbook Italic"
COPYRIGHT "Copyright (c) 1984, 1987 Adobe Systems Incorporated. All Rights Reserved. Copyright (c) 1988, 1991 Digital Equipment Corporation. All Rights Reserved."
NOTICE "New Century Schoolbook is a trademark of Linotype-Hell AG and/or its subsidiaries."
_DEC_DEVICE_FONTNAMES "PS=NewCenturySchlbk-Italic"
DEFAULT_CHAR 0
RELATIVE_SETWIDTH 50
RELATIVE_WEIGHT 50
FULL_NAME "New Century Schoolbook Italic"
ENDPROPERTIES
CHARS 192
STARTCHAR defaultchar
ENCODING 0
SWIDTH 833 0
DWIDTH 21 0
BBX 19 17 1 0
BITMAP
AAAAA0
000000
800020
000000
800020
000000
800020
000000
800020
000000
800020
000000
800020
000000
800020
000000
AAAAA0
ENDCHAR
STARTCHAR space
ENCODING 32
SWIDTH 278 0
DWIDTH 7 0
BBX 1 1 0 0
BITMAP
00
ENDCHAR
STARTCHAR exclam
ENCODING 33
SWIDTH 333 0
DWIDTH 7 0
BBX 6 18 0 0
BITMAP
0C
0C
0C
0C
18
18
18
18
30
30
30
20
20
00
00
C0
C0
C0
ENDCHAR
STARTCHAR quotedbl
ENCODING 34
SWIDTH 400 0
DWIDTH 8 0
BBX 5 6 2 12
BITMAP
48
48
48
90
90
90
ENDCHAR
STARTCHAR numbersign
ENCODING 35
SWIDTH 606 0
DWIDTH 15 0
BBX 13 16 1 1
BITMAP
0440
0440
0440
0440
0440
7FF8
0880
0880
0880
0880
FFF0
1100
1100
1100
1100
1100
ENDCHAR
STARTCHAR dollar
ENCODING 36
SWIDTH 556 0
DWIDTH 13 0
BBX 12 23 0 -3
BITMAP
0080
0080
07E0
1D70
1130
3130
3200
3200
3A00
1E00
0F80
03C0
02C0
0260
0260
4460
E460
E4C0
65C0
3F00
0800
0800
0800
ENDCHAR
STARTCHAR percent
ENCODING 37
SWIDTH 833 0
DWIDTH 19 0
BBX 17 19 1 -1
BITMAP
0E3800
31C800
611800
611000
C13000
C22000
C26000
444000
38C000
008700
019880
013080
033080
026080
066100
046100
0C2200
081C00
080000
ENDCHAR
STARTCHAR ampersand
ENCODING 38
SWIDTH 852 0
DWIDTH 19 0
BBX 17 18 1 0
BITMAP
01F000
031800
061800
061800
063000
066000
038000
070000
1B1F80
718600
618400
C0C400
C0C800
C06800
C07000
C07080
61B900
3E1E00
ENDCHAR
STARTCHAR quotesingle
ENCODING 39
SWIDTH 278 0
DWIDTH 5 0
BBX 1 6 2 12
BITMAP
80
80
80
80
80
80
ENDCHAR
STARTCHAR parenleft
ENCODING 40
SWIDTH 333 0
DWIDTH 8 0
BBX 8 20 1 -2
BITMAP
03
06
0C
18
30
30
60
60
60
C0
C0
C0
C0
C0
C0
60
60
60
30
18
ENDCHAR
STARTCHAR parenright
ENCODING 41
SWIDTH 333 0
DWIDTH 8 0
BBX 8 20 -1 -2
BITMAP
18
0C
06
06
06
03
03
03
03
03
03
06
06
06
0C
0C
18
30
60
C0
ENDCHAR
STARTCHAR asterisk
ENCODING 42
SWIDTH 500 0
DWIDTH 11 0
BBX 9 11 1 7
BITMAP
0C00
0C00
C980
C980
2A00
1C00
2A00
C980
C980
1800
1800
ENDCHAR
STARTCHAR plus
ENCODING 43
SWIDTH 606 0
DWIDTH 13 0
BBX 11 11 1 2
BITMAP
0400
0400
0400
0400
0400
FFE0
0400
0400
0400
0400
0400
ENDCHAR
STARTCHAR comma
ENCODING 44
SWIDTH 278 0
DWIDTH 7 0
BBX 4 6 0 -3
BITMAP
60
70
30
20
40
80
ENDCHAR
STARTCHAR hyphen
ENCODING 45
SWIDTH 333 0
DWIDTH 8 0
BBX 5 2 1 5
BITMAP
F8
F8
ENDCHAR
STARTCHAR period
ENCODING 46
SWIDTH 278 0
DWIDTH 7 0
BBX 2 3 1 0
BITMAP
C0
C0
C0
ENDCHAR
STARTCHAR slash
ENCODING 47
SWIDTH 606 0
DWIDTH 14 0
BBX 8 18 3 0
BITMAP
03
02
02
06
04
04
0C
08
08
18
10
10
30
20
20
60
40
C0
ENDCHAR
STARTCHAR zero
ENCODING 48
SWIDTH 556 0
DWIDTH 13 0
BBX 11 18 1 0
BITMAP
0380
0CC0
1860
3060
3060
6060
6060
6060
C060
C060
C0C0
C0C0
C0C0
C180
C180
C300
6600
3800
ENDCHAR
STARTCHAR one
ENCODING 49
SWIDTH 556 0
DWIDTH 13 0
BBX 8 18 2 0
BITMAP
01
07
3F
03
06
06
06
06
0C
0C
0C
0C
0C
18
18
18
18
FF
ENDCHAR
STARTCHAR two
ENCODING 50
SWIDTH 556 0
DWIDTH 13 0
BBX 11 18 1 0
BITMAP
0780
18C0
3060
3060
3860
1860
0060
00C0
00C0
0180
0300
0600
0C00
1820
3020
6040
FFC0
FFC0
ENDCHAR
STARTCHAR three
ENCODING 51
SWIDTH 556 0
DWIDTH 13 0
BBX 11 18 1 0
BITMAP
0780
18C0
3060
3860
1860
0060
00C0
0180
0F00
0180
00C0
00C0
00C0
60C0
E180
C180
4300
3C00
ENDCHAR
STARTCHAR four
ENCODING 52
SWIDTH 556 0
DWIDTH 13 0
BBX 11 18 1 0
BITMAP
00E0
0160
0160
0260
0460
04C0
08C0
10C0
10C0
2180
4180
4180
8180
FFE0
0300
0300
0300
0FC0
ENDCHAR
STARTCHAR five
ENCODING 53
SWIDTH 556 0
DWIDTH 13 0
BBX 12 18 1 0
BITMAP
0FF0
0FE0
0800
0800
1000
1000
1000
1F80
30C0
2060
0060
0060
0060
6060
E0C0
C0C0
4380
3E00
ENDCHAR
STARTCHAR six
ENCODING 54
SWIDTH 556 0
DWIDTH 13 0
BBX 11 18 1 0
BITMAP
03C0
0C60
1860
3060
3000
6000
6000
6F80
D0C0
E060
C060
C060
C060
C0C0
C0C0
C180
6300
3C00
ENDCHAR
STARTCHAR seven
ENCODING 55
SWIDTH 556 0
DWIDTH 13 0
BBX 11 18 1 0
BITMAP
7FE0
7FE0
4040
80C0
8080
0180
0100
0300
0200
0600
0400
0C00
0800
1800
1000
3000
3000
3000
ENDCHAR
STARTCHAR eight
ENCODING 56
SWIDTH 556 0
DWIDTH 13 0
BBX 11 18 1 0
BITMAP
0F80
1840
3020
3020
3020
3040
18C0
0D00
0F00
3380
4180
C0C0
80C0
80C0
80C0
8180
4380
3E00
ENDCHAR
STARTCHAR nine
ENCODING 57
SWIDTH 556 0
DWIDTH 13 0
BBX 11 18 1 0
BITMAP
0780
18C0
3060
6060
6060
C060
C060
C060
C0E0
6160
3EC0
00C0
00C0
0180
C180
C300
C600
7800
ENDCHAR
STARTCHAR colon
ENCODING 58
SWIDTH 278 0
DWIDTH 7 0
BBX 4 12 1 0
BITMAP
30
30
30
00
00
00
00
00
00
C0
C0
C0
ENDCHAR
STARTCHAR semicolon
ENCODING 59
SWIDTH 278 0
DWIDTH 7 0
BBX 5 15 0 -3
BITMAP
18
18
18
00
00
00
00
00
00
60
70
30
20
40
80
ENDCHAR
STARTCHAR less
ENCODING 60
SWIDTH 606 0
DWIDTH 14 0
BBX 12 11 1 2
BITMAP
0030
00C0
0300
0C00
3000
C000
3000
0C00
0300
00C0
0030
ENDCHAR
STARTCHAR equal
ENCODING 61
SWIDTH 606 0
DWIDTH 15 0
BBX 13 5 1 5
BITMAP
FFF8
0000
0000
0000
FFF8
ENDCHAR
STARTCHAR greater
ENCODING 62
SWIDTH 606 0
DWIDTH 14 0
BBX 12 11 1 2
BITMAP
C000
3000
0C00
0300
00C0
0030
00C0
0300
0C00
3000
C000
ENDCHAR
STARTCHAR question
ENCODING 63
SWIDTH 444 0
DWIDTH 10 0
BBX 8 18 2 0
BITMAP
3C
46
83
83
03
07
0E
3C
70
C0
80
88
70
00
00
C0
C0
C0
ENDCHAR
STARTCHAR at
ENCODING 64
SWIDTH 747 0
DWIDTH 19 0
BBX 17 17 1 0
BITMAP
03F000
0C0C00
100200
200100
21D900
463880
461880
8C1880
8C1880
8C3080
8C3100
8C3100
445200
438C00
200000
180C00
07F000
ENDCHAR
STARTCHAR A
ENCODING 65
SWIDTH 704 0
DWIDTH 18 0
BBX 18 18 -1 0
BITMAP
003000
003000
007800
005800
00D800
009800
018C00
010C00
030C00
020C00
060600
07FE00
0C0600
080600
180300
100300
300300
FC0FC0
ENDCHAR
STARTCHAR B
ENCODING 66
SWIDTH 722 0
DWIDTH 17 0
BBX 16 18 0 0
BITMAP
1FFC
0607
0603
0603
0603
0C06
0C06
0C0C
0FF0
180C
1806
1806
1806
3006
300C
300C
3018
FFE0
ENDCHAR
STARTCHAR C
ENCODING 67
SWIDTH 722 0
DWIDTH 18 0
BBX 16 18 1 0
BITMAP
03F9
0E0F
1807
3002
3002
6002
6000
6000
C000
C000
C000
C000
C004
C004
C008
6008
7030
1FC0
ENDCHAR
STARTCHAR D
ENCODING 68
SWIDTH 778 0
DWIDTH 19 0
BBX 17 18 0 0
BITMAP
1FFC00
060700
060300
060180
060180
0C0180
0C0180
0C0180
0C0180
180180
180300
180300
180300
300600
300600
300C00
303800
FFE000
ENDCHAR
STARTCHAR E
ENCODING 69
SWIDTH 722 0
DWIDTH 16 0
BBX 16 18 0 0
BITMAP
1FFF
0603
0602
0602
0602
0C10
0C10
0C20
0FE0
1860
1820
1820
1800
3002
3002
3004
300C
FFFC
ENDCHAR
STARTCHAR F
ENCODING 70
SWIDTH 667 0
DWIDTH 16 0
BBX 16 18 0 0
BITMAP
1FFF
0603
0602
0602
0602
0C10
0C10
0C20
0FE0
1860
1820
1820
1800
3000
3000
3000
3000
FC00
ENDCHAR
STARTCHAR G
ENCODING 71
SWIDTH 778 0
DWIDTH 18 0
BBX 16 18 1 0
BITMAP
03F9
0E0F
1807
3002
3002
6002
6000
6000
C000
C000
C03F
C00C
C00C
C00C
C018
6018
7078
1F88
ENDCHAR
STARTCHAR H
ENCODING 72
SWIDTH 833 0
DWIDTH 21 0
BBX 19 18 1 0
BITMAP
1F87E0
060180
060180
060180
060180
0C0300
0C0300
0C0300
0FFF00
180600
180600
180600
180600
300C00
300C00
300C00
300C00
FC3F00
ENDCHAR
STARTCHAR I
ENCODING 73
SWIDTH 407 0
DWIDTH 11 0
BBX 9 18 1 0
BITMAP
1F80
0600
0600
0600
0600
0C00
0C00
0C00
0C00
1800
1800
1800
1800
3000
3000
3000
3000
FC00
ENDCHAR
STARTCHAR J
ENCODING 74
SWIDTH 611 0
DWIDTH 14 0
BBX 13 18 0 0
BITMAP
01F8
0060
0060
0060
0060
00C0
00C0
00C0
00C0
0180
0180
0180
6180
E300
E300
8300
C600
7C00
ENDCHAR
STARTCHAR K
ENCODING 75
SWIDTH 741 0
DWIDTH 19 0
BBX 18 18 1 0
BITMAP
1F8FC0
060300
060600
060C00
061800
0C3000
0C6000
0CC000
0DC000
1F6000
1C6000
183000
183000
301800
301800
300C00
300C00
FC1F00
ENDCHAR
STARTCHAR L
ENCODING 76
SWIDTH 667 0
DWIDTH 16 0
BBX 14 18 1 0
BITMAP
1F80
0600
0600
0600
0600
0C00
0C00
0C00
0C00
1800
1800
1800
1800
3004
3004
3008
3018
FFF8
ENDCHAR
STARTCHAR M
ENCODING 77
SWIDTH 944 0
DWIDTH 23 0
BBX 24 18 -1 0
BITMAP
0F001F
03001C
03003C
03803C
078058
058058
058098
058118
0CC130
08C230
08C230
08C430
18C430
106860
106860
107060
307060
FC61F8
ENDCHAR
STARTCHAR N
ENCODING 78
SWIDTH 815 0
DWIDTH 21 0
BBX 21 18 0 0
BITMAP
1E01F8
070060
070040
058040
058040
04C0C0
0CC080
086080
086080
083180
183100
101900
101900
100D00
300E00
200600
200600
FC0200
ENDCHAR
STARTCHAR O
ENCODING 79
SWIDTH 778 0
DWIDTH 18 0
BBX 16 18 1 0
BITMAP
03F8
0E0E
1806
3003
3003
6003
6003
6003
C003
C003
C006
C006
C006
C00C
C00C
6018
7070
1FC0
ENDCHAR
STARTCHAR P
ENCODING 80
SWIDTH 667 0
DWIDTH 17 0
BBX 16 18 1 0
BITMAP
1FF8
0606
0603
0603
0603
0C03
0C06
0C06
0C18
1FE0
1800
1800
1800
3000
3000
3000
3000
FC00
ENDCHAR
STARTCHAR Q
ENCODING 81
SWIDTH 778 0
DWIDTH 18 0
BBX 16 22 1 -4
BITMAP
03F8
0E0E
1806
3003
3003
6003
6003
6003
C003
C003
C006
C706
CF86
D18C
E0CC
60D8
70F0
1FC0
0060
0064
0078
0030
ENDCHAR
STARTCHAR R
ENCODING 82
SWIDTH 741 0
DWIDTH 19 0
BBX 16 18 1 0
BITMAP
1FF8
0606
0603
0603
0603
0C06
0C06
0C0C
0FF0
1830
1818
1818
1818
3018
3018
3019
3019
FC0E
ENDCHAR
STARTCHAR S
ENCODING 83
SWIDTH 667 0
DWIDTH 16 0
BBX 14 18 1 0
BITMAP
03E4
0C3C
181C
3008
3008
3008
3800
1E00
0F80
03E0
00F0
0038
4018
4018
4018
E030
F060
9F80
ENDCHAR
STARTCHAR T
ENCODING 84
SWIDTH 685 0
DWIDTH 17 0
BBX 15 18 1 0
BITMAP
7FFE
6186
4182
8182
8182
0300
0300
0300
0300
0600
0600
0600
0600
0C00
0C00
0C00
0C00
3F00
ENDCHAR
STARTCHAR U
ENCODING 85
SWIDTH 815 0
DWIDTH 19 0
BBX 18 18 1 0
BITMAP
7E07C0
180100
180100
180100
180300
300200
300200
300200
300600
600400
600400
600400
600C00
C00800
C00800
C01800
603000
3FC000
ENDCHAR
STARTCHAR V
ENCODING 86
SWIDTH 704 0
DWIDTH 17 0
BBX 17 18 1 0
BITMAP
FC1F80
300600
300400
300C00
300800
181800
181000
183000
182000
0C6000
0C4000
0CC000
0C8000
058000
070000
070000
060000
060000
ENDCHAR
STARTCHAR W
ENCODING 87
SWIDTH 926 0
DWIDTH 24 0
BBX 24 18 1 0
BITMAP
FC7E3F
30180C
301808
303818
303810
182C10
184C30
184C20
184C20
188C60
0C8640
0C8640
0D0680
0D0680
0D0680
060300
060300
040200
ENDCHAR
STARTCHAR X
ENCODING 88
SWIDTH 704 0
DWIDTH 18 0
BBX 20 18 -1 0
BITMAP
0FC3F0
0300C0
030180
018300
018600
00CC00
00D800
007000
006000
007000
00F000
019800
031800
060C00
0C0C00
180600
300600
FC1F80
ENDCHAR
STARTCHAR Y
ENCODING 89
SWIDTH 685 0
DWIDTH 17 0
BBX 17 18 1 0
BITMAP
FC1F80
300600
300C00
181800
181000
0C3000
0C2000
064000
06C000
038000
030000
030000
030000
060000
060000
060000
060000
1F8000
ENDCHAR
STARTCHAR Z
ENCODING 90
SWIDTH 667 0
DWIDTH 16 0
BBX 16 18 0 0
BITMAP
1FFF
1807
100E
201C
2038
0070
0060
00C0
01C0
0380
0700
0600
0C00
1C04
3804
7008
E018
FFF8
ENDCHAR
STARTCHAR bracketleft
ENCODING 91
SWIDTH 333 0
DWIDTH 9 0
BBX 9 20 1 -2
BITMAP
0F80
0C00
0C00
0C00
1800
1800
1800
1800
3000
3000
3000
3000
6000
6000
6000
6000
C000
C000
C000
F800
ENDCHAR
STARTCHAR backslash
ENCODING 92
SWIDTH 606 0
DWIDTH 13 0
BBX 10 18 1 0
BITMAP
C000
4000
6000
2000
3000
1000
1800
0800
0C00
0400
0600
0200
0300
0100
0180
0080
00C0
0040
ENDCHAR
STARTCHAR bracketright
ENCODING 93
SWIDTH 333 0
DWIDTH 9 0
BBX 9 20 -1 -2
BITMAP
0F80
0180
0180
0180
0300
0300
0300
0300
0600
0600
0600
0600
0C00
0C00
0C00
0C00
1800
1800
1800
F800
ENDCHAR
STARTCHAR asciicircum
ENCODING 94
SWIDTH 606 0
DWIDTH 14 0
BBX 9 10 2 8
BITMAP
0800
0800
1400
1400
2200
2200
4100
4100
8080
8080
ENDCHAR
STARTCHAR underscore
ENCODING 95
SWIDTH 500 0
DWIDTH 12 0
BBX 12 1 -1 -2
BITMAP
FFF0
ENDCHAR
STARTCHAR grave
ENCODING 96
SWIDTH 333 0
DWIDTH 7 0
BBX 5 4 1 13
BITMAP
C0
60
10
08
ENDCHAR
STARTCHAR a
ENCODING 97
SWIDTH 574 0
DWIDTH 15 0
BBX 13 12 1 0
BITMAP
0F30
38B0
6070
6030
C060
C060
C060
C060
C0C0
C1C8
62D0
3CE0
ENDCHAR
STARTCHAR b
ENCODING 98
SWIDTH 556 0
DWIDTH 13 0
BBX 11 18 1 0
BITMAP
7800
1800
1800
1800
3000
3000
3780
38C0
6060
6060
6060
6060
C060
C060
C0C0
C0C0
6180
3E00
ENDCHAR
STARTCHAR c
ENCODING 99
SWIDTH 444 0
DWIDTH 12 0
BBX 10 12 1 0
BITMAP
0F80
30C0
61C0
6180
C000
C000
C000
C000
C000
C080
6300
3C00
ENDCHAR
STARTCHAR d
ENCODING 100
SWIDTH 611 0
DWIDTH 15 0
BBX 13 18 1 0
BITMAP
0078
0018
0018
0018
0030
0030
0F30
38B0
6070
6060
C060
C060
C060
C0C0
C0C0
C1C8
62D0
3CE0
ENDCHAR
STARTCHAR e
ENCODING 101
SWIDTH 444 0
DWIDTH 12 0
BBX 10 12 1 0
BITMAP
0F80
38C0
60C0
60C0
C180
C300
FC00
C000
C000
C040
6180
3E00
ENDCHAR
STARTCHAR f
ENCODING 102
SWIDTH 333 0
DWIDTH 7 0
BBX 11 23 0 -5
BITMAP
01C0
0660
0660
0C00
0C00
0C00
7F00
1800
1800
1800
1800
3000
3000
3000
3000
6000
6000
6000
6000
C000
C000
C000
C000
ENDCHAR
STARTCHAR g
ENCODING 103
SWIDTH 537 0
DWIDTH 12 0
BBX 13 19 -1 -5
BITMAP
0018
0038
07C0
1860
3030
3030
3030
3030
1860
0F80
3000
6000
7FC0
1FE0
6030
C030
C030
E060
3F80
ENDCHAR
STARTCHAR h
ENCODING 104
SWIDTH 611 0
DWIDTH 15 0
BBX 13 18 1 0
BITMAP
7800
1800
1800
1800
3000
3000
30E0
3370
3430
7830
6030
6060
6060
C060
C0C0
C0C8
C0D0
C0E0
ENDCHAR
STARTCHAR i
ENCODING 105
SWIDTH 333 0
DWIDTH 7 0
BBX 5 18 1 0
BITMAP
18
18
18
00
00
00
F0
30
30
30
60
60
60
60
C0
C8
C8
70
ENDCHAR
STARTCHAR j
ENCODING 106
SWIDTH 315 0
DWIDTH 7 0
BBX 10 23 -4 -5
BITMAP
00C0
00C0
00C0
0000
0000
0000
0780
0180
0180
0180
0180
0300
0300
0300
0300
0300
0600
0600
0600
0600
C400
CC00
F000
ENDCHAR
STARTCHAR k
ENCODING 107
SWIDTH 556 0
DWIDTH 13 0
BBX 12 18 1 0
BITMAP
7800
1800
1800
1800
3000
3000
31C0
3660
3860
6060
60C0
6300
7E00
C300
C300
C190
C190
C0E0
ENDCHAR
STARTCHAR l
ENCODING 108
SWIDTH 333 0
DWIDTH 7 0
BBX 5 18 1 0
BITMAP
78
18
18
18
30
30
30
30
30
60
60
60
60
C0
C0
C8
C8
70
ENDCHAR
STARTCHAR m
ENCODING 109
SWIDTH 889 0
DWIDTH 23 0
BBX 21 12 1 0
BITMAP
F0E0E0
337370
343430
383830
603030
606060
606060
606060
C0C0C0
C0C0C8
C0C0C8
C0C070
ENDCHAR
STARTCHAR n
ENCODING 110
SWIDTH 611 0
DWIDTH 15 0
BBX 13 12 1 0
BITMAP
F0E0
3370
3430
3830
6030
6060
6060
6060
C0C0
C0C8
C0D0
C0E0
ENDCHAR
STARTCHAR o
ENCODING 111
SWIDTH 500 0
DWIDTH 13 0
BBX 11 12 1 0
BITMAP
0F80
38C0
6060
6060
C060
C060
C060
C060
C0C0
C0C0
6380
3E00
ENDCHAR
STARTCHAR p
ENCODING 112
SWIDTH 574 0
DWIDTH 14 0
BBX 14 17 -1 -5
BITMAP
3CF0
0F18
0C0C
0C0C
180C
180C
180C
180C
3818
3818
3430
33C0
6000
6000
6000
6000
F000
ENDCHAR
STARTCHAR q
ENCODING 113
SWIDTH 556 0
DWIDTH 14 0
BBX 12 17 1 -5
BITMAP
0F30
30B0
6070
6030
C060
C060
C060
C060
C0C0
C1C0
62C0
3CC0
0180
0180
0180
0180
03C0
ENDCHAR
STARTCHAR r
ENCODING 114
SWIDTH 444 0
DWIDTH 11 0
BBX 10 12 1 0
BITMAP
F180
37C0
38C0
3000
6000
6000
6000
6000
C000
C000
C000
C000
ENDCHAR
STARTCHAR s
ENCODING 115
SWIDTH 444 0
DWIDTH 12 0
BBX 10 12 1 0
BITMAP
0F80
30C0
21C0
6180
7800
3E00
0F00
0380
6180
E180
C300
7C00
ENDCHAR
STARTCHAR t
ENCODING 116
SWIDTH 352 0
DWIDTH 8 0
BBX 7 16 1 0
BITMAP
18
18
18
18
FE
30
30
30
60
60
60
60
C0
C4
C8
70
ENDCHAR
STARTCHAR u
ENCODING 117
SWIDTH 611 0
DWIDTH 15 0
BBX 13 12 1 0
BITMAP
F030
3030
3030
3030
6060
6060
6060
C0C0
C1C0
C2C8
ECD0
70E0
ENDCHAR
STARTCHAR v
ENCODING 118
SWIDTH 519 0
DWIDTH 13 0
BBX 11 12 1 0
BITMAP
F0C0
30E0
3060
3020
3020
6020
6020
6040
6040
6080
3100
1E00
ENDCHAR
STARTCHAR w
ENCODING 119
SWIDTH 778 0
DWIDTH 20 0
BBX 18 12 1 0
BITMAP
F06180
3061C0
3060C0
306040
306040
60C040
60C040
60C080
60C080
60C100
316200
1E3C00
ENDCHAR
STARTCHAR x
ENCODING 120
SWIDTH 500 0
DWIDTH 13 0
BBX 12 12 0 0
BITMAP
1830
3870
5C80
0D00
0E00
0600
0700
0B00
0B80
1190
E1E0
C0C0
ENDCHAR
STARTCHAR y
ENCODING 121
SWIDTH 500 0
DWIDTH 13 0
BBX 13 17 -1 -5
BITMAP
1818
3C18
4C08
0C10
0610
0620
0620
0340
0340
0380
0100
0100
0200
0200
C400
C800
7000
ENDCHAR
STARTCHAR z
ENCODING 122
SWIDTH 463 0
DWIDTH 13 0
BBX 11 12 1 0
BITMAP
1E20
3FE0
40C0
4180
0300
0E00
1800
3000
6040
C040
FF80
9F00
ENDCHAR
STARTCHAR braceleft
ENCODING 123
SWIDTH 333 0
DWIDTH 7 0
BBX 7 20 0 -2
BITMAP
06
08
18
18
18
30
30
30
20
C0
60
60
60
60
C0
C0
C0
C0
40
30
ENDCHAR
STARTCHAR bar
ENCODING 124
SWIDTH 606 0
DWIDTH 15 0
BBX 1 18 7 0
BITMAP
80
80
80
80
80
80
80
80
80
80
80
80
80
80
80
80
80
80
ENDCHAR
STARTCHAR braceright
ENCODING 125
SWIDTH 333 0
DWIDTH 7 0
BBX 7 20 0 -2
BITMAP
18
04
06
06
06
06
0C
0C
0C
0C
06
08
18
18
18
30
30
30
20
C0
ENDCHAR
STARTCHAR asciitilde
ENCODING 126
SWIDTH 606 0
DWIDTH 14 0
BBX 12 4 1 6
BITMAP
1800
7E30
C7E0
0180
ENDCHAR
STARTCHAR space
ENCODING 160
SWIDTH 278 0
DWIDTH 7 0
BBX 1 1 0 0
BITMAP
00
ENDCHAR
STARTCHAR exclamdown
ENCODING 161
SWIDTH 333 0
DWIDTH 6 0
BBX 6 18 0 -5
BITMAP
0C
0C
0C
00
00
10
10
30
30
30
60
60
60
60
C0
C0
C0
C0
ENDCHAR
STARTCHAR cent
ENCODING 162
SWIDTH 556 0
DWIDTH 14 0
BBX 10 17 2 -2
BITMAP
0040
0040
0080
0F80
31C0
63C0
62C0
C400
C400
C800
C800
C800
D080
7300
3C00
2000
4000
ENDCHAR
STARTCHAR sterling
ENCODING 163
SWIDTH 556 0
DWIDTH 15 0
BBX 14 18 0 0
BITMAP
00F0
0318
0638
0630
0C00
0C00
0C00
0C00
3FE0
0600
0600
0600
0600
0600
7600
8C04
8FF8
F3F0
ENDCHAR
STARTCHAR currency
ENCODING 164
SWIDTH 606 0
DWIDTH 14 0
BBX 10 10 2 3
BITMAP
DEC0
6180
4080
8040
8040
8040
8040
4080
E1C0
9E40
ENDCHAR
STARTCHAR yen
ENCODING 165
SWIDTH 556 0
DWIDTH 15 0
BBX 16 18 1 0
BITMAP
FC3F
300C
3018
1810
1820
0C60
0C40
0680
0780
1FF0
0300
0300
3FE0
0600
0600
0600
0600
1F80
ENDCHAR
STARTCHAR brokenbar
ENCODING 166
SWIDTH 606 0
DWIDTH 15 0
BBX 1 18 7 0
BITMAP
80
80
80
80
80
80
80
00
00
00
00
80
80
80
80
80
80
80
ENDCHAR
STARTCHAR section
ENCODING 167
SWIDTH 500 0
DWIDTH 13 0
BBX 11 21 1 -3
BITMAP
03C0
0C60
18E0
18C0
1800
0C00
0E00
1700
2380
61C0
60C0
70C0
3880
1D00
0E00
0700
0300
6300
E300
C600
7800
ENDCHAR
STARTCHAR dieresis
ENCODING 168
SWIDTH 333 0
DWIDTH 8 0
BBX 6 2 2 14
BITMAP
CC
CC
ENDCHAR
STARTCHAR copyright
ENCODING 169
SWIDTH 747 0
DWIDTH 19 0
BBX 17 18 1 0
BITMAP
03E000
0C1800
100400
200200
43F100
463100
8C1080
8C0080
8C0080
8C0080
8C0080
8C0080
461100
43E100
200200
100400
0C1800
03E000
ENDCHAR
STARTCHAR ordfeminine
ENCODING 170
SWIDTH 422 0
DWIDTH 11 0
BBX 9 10 1 8
BITMAP
3B00
6700
C300
C600
C600
CE80
7700
0000
0000
FF00
ENDCHAR
STARTCHAR guillemotleft
ENCODING 171
SWIDTH 426 0
DWIDTH 11 0
BBX 9 6 1 3
BITMAP
1980
3300
6600
CC00
6600
3300
ENDCHAR
STARTCHAR logicalnot
ENCODING 172
SWIDTH 606 0
DWIDTH 13 0
BBX 11 6 1 4
BITMAP
FFE0
0020
0020
0020
0020
0020
ENDCHAR
STARTCHAR hyphen
ENCODING 173
SWIDTH 333 0
DWIDTH 8 0
BBX 5 2 1 5
BITMAP
F8
F8
ENDCHAR
STARTCHAR registered
ENCODING 174
SWIDTH 747 0
DWIDTH 19 0
BBX 17 18 1 0
BITMAP
03E000
0C1800
100400
200200
4FE100
463100
863080
863080
866080
878080
86C080
866080
463100
4F3900
200200
100400
0C1800
03E000
ENDCHAR
STARTCHAR macron
ENCODING 175
SWIDTH 333 0
DWIDTH 9 0
BBX 7 1 2 14
BITMAP
FE
ENDCHAR
STARTCHAR degree
ENCODING 176
SWIDTH 400 0
DWIDTH 9 0
BBX 8 7 1 11
BITMAP
3C
66
C3
C3
C3
66
3C
ENDCHAR
STARTCHAR plusminus
ENCODING 177
SWIDTH 606 0
DWIDTH 13 0
BBX 11 11 1 2
BITMAP
0400
0400
0400
0400
FFE0
0400
0400
0400
0400
0000
FFE0
ENDCHAR
STARTCHAR twosuperior
ENCODING 178
SWIDTH 333 0
DWIDTH 8 0
BBX 8 11 0 7
BITMAP
3E
63
63
03
06
0C
18
30
60
C3
FE
ENDCHAR
STARTCHAR threesuperior
ENCODING 179
SWIDTH 333 0
DWIDTH 8 0
BBX 8 11 0 7
BITMAP
3E
63
63
02
1C
06
03
03
C3
C6
78
ENDCHAR
STARTCHAR acute
ENCODING 180
SWIDTH 333 0
DWIDTH 7 0
BBX 5 4 2 14
BITMAP
18
30
40
80
ENDCHAR
STARTCHAR mu
ENCODING 181
SWIDTH 611 0
DWIDTH 15 0
BBX 15 17 -1 -5
BITMAP
3C0C
0C0C
0C0C
0C0C
1818
1818
1818
3030
3070
30B2
3B34
6C38
6000
4000
C000
E000
4000
ENDCHAR
STARTCHAR paragraph
ENCODING 182
SWIDTH 650 0
DWIDTH 14 0
BBX 12 18 1 0
BITMAP
1FF0
7240
7240
E240
E240
E480
E480
6480
3C80
0900
0900
0900
0900
1200
1200
1200
1200
7F80
ENDCHAR
STARTCHAR periodcentered
ENCODING 183
SWIDTH 278 0
DWIDTH 7 0
BBX 3 3 2 6
BITMAP
E0
E0
E0
ENDCHAR
STARTCHAR cedilla
ENCODING 184
SWIDTH 333 0
DWIDTH 7 0
BBX 4 4 2 -4
BITMAP
20
70
10
E0
ENDCHAR
STARTCHAR onesuperior
ENCODING 185
SWIDTH 333 0
DWIDTH 8 0
BBX 6 11 1 7
BITMAP
04
3C
0C
0C
18
18
18
30
30
30
FC
ENDCHAR
STARTCHAR ordmasculine
ENCODING 186
SWIDTH 372 0
DWIDTH 9 0
BBX 7 10 1 8
BITMAP
1C
66
C6
C6
C6
CC
70
00
00
FC
ENDCHAR
STARTCHAR guillemotright
ENCODING 187
SWIDTH 426 0
DWIDTH 11 0
BBX 9 6 1 3
BITMAP
6600
3300
1980
3300
6600
CC00
ENDCHAR
STARTCHAR onequarter
ENCODING 188
SWIDTH 834 0
DWIDTH 19 0
BBX 17 18 1 0
BITMAP
040C00
3C0800
0C1800
0C1000
183000
182000
186000
304180
30C380
318580
FD0900
031300
022300
064200
04C600
0CFF80
080600
180F00
ENDCHAR
STARTCHAR onehalf
ENCODING 189
SWIDTH 834 0
DWIDTH 19 0
BBX 18 18 1 0
BITMAP
040C00
3C0800
0C1800
0C1000
183000
182000
186000
304F80
30D8C0
3198C0
FD00C0
030180
020300
060600
040C00
0C1800
0830C0
183F80
ENDCHAR
STARTCHAR threequarters
ENCODING 190
SWIDTH 834 0
DWIDTH 19 0
BBX 18 18 0 0
BITMAP
3E0600
630400
630C00
060800
1C1800
061000
033000
0320C0
C261C0
C6C2C0
788480
018980
011180
032100
026300
067FC0
040300
0C0780
ENDCHAR
STARTCHAR questiondown
ENCODING 191
SWIDTH 444 0
DWIDTH 9 0
BBX 8 18 0 -5
BITMAP
03
03
03
00
00
0E
11
01
03
0E
3C
70
E0
C0
C1
C1
62
3C
ENDCHAR
STARTCHAR Agrave
ENCODING 192
SWIDTH 704 0
DWIDTH 18 0
BBX 18 23 -1 0
BITMAP
00C000
006000
001000
000800
000000
003000
003000
007800
005800
00D800
009800
018C00
010C00
030C00
020C00
060600
07FE00
0C0600
080600
180300
100300
300300
FC0FC0
ENDCHAR
STARTCHAR Aacute
ENCODING 193
SWIDTH 704 0
DWIDTH 18 0
BBX 18 23 -1 0
BITMAP
000600
000C00
001000
002000
000000
003000
003000
007800
005800
00D800
009800
018C00
010C00
030C00
020C00
060600
07FE00
0C0600
080600
180300
100300
300300
FC0FC0
ENDCHAR
STARTCHAR Acircumflex
ENCODING 194
SWIDTH 704 0
DWIDTH 18 0
BBX 18 23 -1 0
BITMAP
001000
003000
004800
008800
000000
003000
003000
007800
005800
00D800
009800
018C00
010C00
030C00
020C00
060600
07FE00
0C0600
080600
180300
100300
300300
FC0FC0
ENDCHAR
STARTCHAR Atilde
ENCODING 195
SWIDTH 704 0
DWIDTH 18 0
BBX 18 22 -1 0
BITMAP
006100
00FE00
010C00
000000
003000
003000
007800
005800
00D800
009800
018C00
010C00
030C00
020C00
060600
07FE00
0C0600
080600
180300
100300
300300
FC0FC0
ENDCHAR
STARTCHAR Adieresis
ENCODING 196
SWIDTH 704 0
DWIDTH 18 0
BBX 18 22 -1 0
BITMAP
00CC00
00CC00
000000
000000
003000
003000
007800
005800
00D800
009800
018C00
010C00
030C00
020C00
060600
07FE00
0C0600
080600
180300
100300
300300
FC0FC0
ENDCHAR
STARTCHAR Aring
ENCODING 197
SWIDTH 704 0
DWIDTH 18 0
BBX 18 23 -1 0
BITMAP
003000
004800
004800
003000
000000
003000
003000
007800
005800
00D800
009800
018C00
010C00
030C00
020C00
060600
07FE00
0C0600
080600
180300
100300
300300
FC0FC0
ENDCHAR
STARTCHAR AE
ENCODING 198
SWIDTH 870 0
DWIDTH 24 0
BBX 25 18 -2 0
BITMAP
007FFF80
000B0180
00130100
00130100
00230100
00460800
00460800
00861000
0107F000
010C3000
03FC1000
040C1000
040C0000
08180100
10180100
10180200
30180600
FC7FFE00
ENDCHAR
STARTCHAR Ccedilla
ENCODING 199
SWIDTH 722 0
DWIDTH 18 0
BBX 16 22 1 -4
BITMAP
03F9
0E0F
1807
3002
3002
6002
6000
6000
C000
C000
C000
C000
C004
C004
C008
6008
7030
1FC0
0200
0700
0100
0E00
ENDCHAR
STARTCHAR Egrave
ENCODING 200
SWIDTH 722 0
DWIDTH 16 0
BBX 16 23 0 0
BITMAP
0300
0180
0040
0020
0000
1FFF
0603
0602
0602
0602
0C10
0C10
0C20
0FE0
1860
1820
1820
1800
3002
3002
3004
300C
FFFC
ENDCHAR
STARTCHAR Eacute
ENCODING 201
SWIDTH 722 0
DWIDTH 16 0
BBX 16 23 0 0
BITMAP
000C
0018
0020
0040
0000
1FFF
0603
0602
0602
0602
0C10
0C10
0C20
0FE0
1860
1820
1820
1800
3002
3002
3004
300C
FFFC
ENDCHAR
STARTCHAR Ecircumflex
ENCODING 202
SWIDTH 722 0
DWIDTH 16 0
BBX 16 23 0 0
BITMAP
0010
0030
0048
0088
0000
1FFF
0603
0602
0602
0602
0C10
0C10
0C20
0FE0
1860
1820
1820
1800
3002
3002
3004
300C
FFFC
ENDCHAR
STARTCHAR Edieresis
ENCODING 203
SWIDTH 722 0
DWIDTH 16 0
BBX 16 22 0 0
BITMAP
018C
018C
0000
0000
1FFF
0603
0602
0602
0602
0C10
0C10
0C20
0FE0
1860
1820
1820
1800
3002
3002
3004
300C
FFFC
ENDCHAR
STARTCHAR Igrave
ENCODING 204
SWIDTH 407 0
DWIDTH 11 0
BBX 9 23 1 0
BITMAP
1800
0C00
0200
0100
0000
1F80
0600
0600
0600
0600
0C00
0C00
0C00
0C00
1800
1800
1800
1800
3000
3000
3000
3000
FC00
ENDCHAR
STARTCHAR Iacute
ENCODING 205
SWIDTH 407 0
DWIDTH 11 0
BBX 10 23 1 0
BITMAP
00C0
0180
0200
0400
0000
1F80
0600
0600
0600
0600
0C00
0C00
0C00
0C00
1800
1800
1800
1800
3000
3000
3000
3000
FC00
ENDCHAR
STARTCHAR Icircumflex
ENCODING 206
SWIDTH 407 0
DWIDTH 11 0
BBX 9 23 1 0
BITMAP
0100
0300
0480
0880
0000
1F80
0600
0600
0600
0600
0C00
0C00
0C00
0C00
1800
1800
1800
1800
3000
3000
3000
3000
FC00
ENDCHAR
STARTCHAR Idieresis
ENCODING 207
SWIDTH 407 0
DWIDTH 11 0
BBX 9 22 1 0
BITMAP
1980
1980
0000
0000
1F80
0600
0600
0600
0600
0C00
0C00
0C00
0C00
1800
1800
1800
1800
3000
3000
3000
3000
FC00
ENDCHAR
STARTCHAR Eth
ENCODING 208
SWIDTH 778 0
DWIDTH 19 0
BBX 17 18 0 0
BITMAP
1FFC00
060700
060300
060180
060180
0C0180
0C0180
0C0180
7F8180
180180
180300
180300
180300
300600
300600
300C00
303800
FFE000
ENDCHAR
STARTCHAR Ntilde
ENCODING 209
SWIDTH 815 0
DWIDTH 21 0
BBX 21 22 0 0
BITMAP
003080
007F00
008600
000000
1E01F8
070060
070040
058040
058040
04C0C0
0CC080
086080
086080
083180
183100
101900
101900
100D00
300E00
200600
200600
FC0200
ENDCHAR
STARTCHAR Ograve
ENCODING 210
SWIDTH 778 0
DWIDTH 18 0
BBX 16 23 1 0
BITMAP
0300
0180
0040
0020
0000
03F8
0E0E
1806
3003
3003
6003
6003
6003
C003
C003
C006
C006
C006
C00C
C00C
6018
7070
1FC0
ENDCHAR
STARTCHAR Oacute
ENCODING 211
SWIDTH 778 0
DWIDTH 18 0
BBX 16 23 1 0
BITMAP
0018
0030
0040
0080
0000
03F8
0E0E
1806
3003
3003
6003
6003
6003
C003
C003
C006
C006
C006
C00C
C00C
6018
7070
1FC0
ENDCHAR
STARTCHAR Ocircumflex
ENCODING 212
SWIDTH 778 0
DWIDTH 18 0
BBX 16 23 1 0
BITMAP
0020
0060
0090
0110
0000
03F8
0E0E
1806
3003
3003
6003
6003
6003
C003
C003
C006
C006
C006
C00C
C00C
6018
7070
1FC0
ENDCHAR
STARTCHAR Otilde
ENCODING 213
SWIDTH 778 0
DWIDTH 18 0
BBX 16 22 1 0
BITMAP
00C2
01FC
0218
0000
03F8
0E0E
1806
3003
3003
6003
6003
6003
C003
C003
C006
C006
C006
C00C
C00C
6018
7070
1FC0
ENDCHAR
STARTCHAR Odieresis
ENCODING 214
SWIDTH 778 0
DWIDTH 18 0
BBX 16 22 1 0
BITMAP
0198
0198
0000
0000
03F8
0E0E
1806
3003
3003
6003
6003
6003
C003
C003
C006
C006
C006
C00C
C00C
6018
7070
1FC0
ENDCHAR
STARTCHAR multiply
ENCODING 215
SWIDTH 606 0
DWIDTH 13 0
BBX 12 11 1 2
BITMAP
C030
6060
30C0
1980
0F00
0600
0F00
1980
30C0
6060
C030
ENDCHAR
STARTCHAR Oslash
ENCODING 216
SWIDTH 778 0
DWIDTH 18 0
BBX 16 22 1 -2
BITMAP
0008
0008
03F8
0E1E
1826
3023
3043
6043
6083
6083
C103
C103
C206
C206
C406
C40C
C80C
6818
7870
1FC0
1000
1000
ENDCHAR
STARTCHAR Ugrave
ENCODING 217
SWIDTH 815 0
DWIDTH 19 0
BBX 18 23 1 0
BITMAP
030000
018000
004000
002000
000000
7E07C0
180100
180100
180100
180300
300200
300200
300200
300600
600400
600400
600400
600C00
C00800
C00800
C01800
603000
3FC000
ENDCHAR
STARTCHAR Uacute
ENCODING 218
SWIDTH 815 0
DWIDTH 19 0
BBX 18 23 1 0
BITMAP
000C00
001800
002000
004000
000000
7E07C0
180100
180100
180100
180300
300200
300200
300200
300600
600400
600400
600400
600C00
C00800
C00800
C01800
603000
3FC000
ENDCHAR
STARTCHAR Ucircumflex
ENCODING 219
SWIDTH 815 0
DWIDTH 19 0
BBX 18 23 1 0
BITMAP
001000
003000
004800
008800
000000
7E07C0
180100
180100
180100
180300
300200
300200
300200
300600
600400
600400
600400
600C00
C00800
C00800
C01800
603000
3FC000
ENDCHAR
STARTCHAR Udieresis
ENCODING 220
SWIDTH 815 0
DWIDTH 19 0
BBX 18 22 1 0
BITMAP
018C00
018C00
000000
000000
7E07C0
180100
180100
180100
180300
300200
300200
300200
300600
600400
600400
600400
600C00
C00800
C00800
C01800
603000
3FC000
ENDCHAR
STARTCHAR Yacute
ENCODING 221
SWIDTH 685 0
DWIDTH 17 0
BBX 17 23 1 0
BITMAP
003000
006000
008000
010000
000000
FC1F80
300600
300C00
181800
181000
0C3000
0C2000
064000
06C000
038000
030000
030000
030000
060000
060000
060000
060000
1F8000
ENDCHAR
STARTCHAR Thorn
ENCODING 222
SWIDTH 667 0
DWIDTH 17 0
BBX 15 18 1 0
BITMAP
1F80
0600
0600
0600
07F0
0C0C
0C06
0C06
0C06
1806
180C
180C
1830
3FC0
3000
3000
3000
FC00
ENDCHAR
STARTCHAR germandbls
ENCODING 223
SWIDTH 556 0
DWIDTH 14 0
BBX 13 23 0 -5
BITMAP
01E0
0638
0618
0C18
0C18
0C18
0C30
19C0
1860
1830
1830
3030
3030
3030
3060
6C60
6CC0
6700
6000
C000
C000
C000
C000
ENDCHAR
STARTCHAR agrave
ENCODING 224
SWIDTH 574 0
DWIDTH 15 0
BBX 13 17 1 0
BITMAP
0C00
0600
0100
0080
0000
0F30
38B0
6070
6030
C060
C060
C060
C060
C0C0
C1C8
62D0
3CE0
ENDCHAR
STARTCHAR aacute
ENCODING 225
SWIDTH 574 0
DWIDTH 15 0
BBX 13 17 1 0
BITMAP
0060
00C0
0100
0200
0000
0F30
38B0
6070
6030
C060
C060
C060
C060
C0C0
C1C8
62D0
3CE0
ENDCHAR
STARTCHAR acircumflex
ENCODING 226
SWIDTH 574 0
DWIDTH 15 0
BBX 13 17 1 0
BITMAP
0100
0300
0480
0880
0000
0F30
38B0
6070
6030
C060
C060
C060
C060
C0C0
C1C8
62D0
3CE0
ENDCHAR
STARTCHAR atilde
ENCODING 227
SWIDTH 574 0
DWIDTH 15 0
BBX 13 16 1 0
BITMAP
0790
09E0
0000
0000
0F30
38B0
6070
6030
C060
C060
C060
C060
C0C0
C1C8
62D0
3CE0
ENDCHAR
STARTCHAR adieresis
ENCODING 228
SWIDTH 574 0
DWIDTH 15 0
BBX 13 16 1 0
BITMAP
0CC0
0CC0
0000
0000
0F30
38B0
6070
6030
C060
C060
C060
C060
C0C0
C1C8
62D0
3CE0
ENDCHAR
STARTCHAR aring
ENCODING 229
SWIDTH 574 0
DWIDTH 15 0
BBX 13 18 1 0
BITMAP
0380
0440
0440
0440
0380
0000
0F30
38B0
6070
6030
C060
C060
C060
C060
C0C0
C1C8
62D0
3CE0
ENDCHAR
STARTCHAR ae
ENCODING 230
SWIDTH 722 0
DWIDTH 19 0
BBX 17 12 1 0
BITMAP
0F1F00
31E180
70C180
60C180
018300
078600
39F800
618000
C18000
C38080
ECC300
707C00
ENDCHAR
STARTCHAR ccedilla
ENCODING 231
SWIDTH 444 0
DWIDTH 12 0
BBX 10 16 1 -4
BITMAP
0F80
30C0
61C0
6180
C000
C000
C000
C000
C000
C080
6300
3C00
0800
1C00
0400
3800
ENDCHAR
STARTCHAR egrave
ENCODING 232
SWIDTH 444 0
DWIDTH 12 0
BBX 10 17 1 0
BITMAP
3000
1800
0400
0200
0000
0F80
38C0
60C0
60C0
C180
C300
FC00
C000
C000
C040
6180
3E00
ENDCHAR
STARTCHAR eacute
ENCODING 233
SWIDTH 444 0
DWIDTH 12 0
BBX 10 17 1 0
BITMAP
00C0
0180
0200
0400
0000
0F80
38C0
60C0
60C0
C180
C300
FC00
C000
C000
C040
6180
3E00
ENDCHAR
STARTCHAR ecircumflex
ENCODING 234
SWIDTH 444 0
DWIDTH 12 0
BBX 10 17 1 0
BITMAP
0100
0300
0480
0880
0000
0F80
38C0
60C0
60C0
C180
C300
FC00
C000
C000
C040
6180
3E00
ENDCHAR
STARTCHAR edieresis
ENCODING 235
SWIDTH 444 0
DWIDTH 12 0
BBX 10 16 1 0
BITMAP
1980
1980
0000
0000
0F80
38C0
60C0
60C0
C180
C300
FC00
C000
C000
C040
6180
3E00
ENDCHAR
STARTCHAR igrave
ENCODING 236
SWIDTH 333 0
DWIDTH 8 0
BBX 5 17 1 0
BITMAP
C0
60
10
08
00
F0
30
30
30
60
60
60
60
C0
C8
C8
70
ENDCHAR
STARTCHAR iacute
ENCODING 237
SWIDTH 333 0
DWIDTH 8 0
BBX 6 17 1 0
BITMAP
0C
18
20
40
00
F0
30
30
30
60
60
60
60
C0
C8
C8
70
ENDCHAR
STARTCHAR icircumflex
ENCODING 238
SWIDTH 333 0
DWIDTH 8 0
BBX 5 17 1 0
BITMAP
10
30
48
88
00
F0
30
30
30
60
60
60
60
C0
C8
C8
70
ENDCHAR
STARTCHAR idieresis
ENCODING 239
SWIDTH 333 0
DWIDTH 8 0
BBX 6 16 1 0
BITMAP
CC
CC
00
00
F0
30
30
30
60
60
60
60
C0
C8
C8
70
ENDCHAR
STARTCHAR eth
ENCODING 240
SWIDTH 500 0
DWIDTH 13 0
BBX 11 17 1 0
BITMAP
6000
1B00
1E00
6300
0180
0FC0
38C0
6060
6060
C060
C060
C060
C060
C0C0
C0C0
6380
3E00
ENDCHAR
STARTCHAR ntilde
ENCODING 241
SWIDTH 611 0
DWIDTH 15 0
BBX 13 16 1 0
BITMAP
0790
09E0
0000
0000
F0E0
3370
3430
3830
6030
6060
6060
6060
C0C0
C0C8
C0D0
C0E0
ENDCHAR
STARTCHAR ograve
ENCODING 242
SWIDTH 500 0
DWIDTH 13 0
BBX 11 17 1 0
BITMAP
1800
0C00
0200
0100
0000
0F80
38C0
6060
6060
C060
C060
C060
C060
C0C0
C0C0
6380
3E00
ENDCHAR
STARTCHAR oacute
ENCODING 243
SWIDTH 500 0
DWIDTH 13 0
BBX 11 17 1 0
BITMAP
00C0
0180
0200
0400
0000
0F80
38C0
6060
6060
C060
C060
C060
C060
C0C0
C0C0
6380
3E00
ENDCHAR
STARTCHAR ocircumflex
ENCODING 244
SWIDTH 500 0
DWIDTH 13 0
BBX 11 17 1 0
BITMAP
0100
0300
0480
0880
0000
0F80
38C0
6060
6060
C060
C060
C060
C060
C0C0
C0C0
6380
3E00
ENDCHAR
STARTCHAR otilde
ENCODING 245
SWIDTH 500 0
DWIDTH 13 0
BBX 11 16 1 0
BITMAP
0F20
13C0
0000
0000
0F80
38C0
6060
6060
C060
C060
C060
C060
C0C0
C0C0
6380
3E00
ENDCHAR
STARTCHAR odieresis
ENCODING 246
SWIDTH 500 0
DWIDTH 13 0
BBX 11 16 1 0
BITMAP
0CC0
0CC0
0000
0000
0F80
38C0
6060
6060
C060
C060
C060
C060
C0C0
C0C0
6380
3E00
ENDCHAR
STARTCHAR divide
ENCODING 247
SWIDTH 606 0
DWIDTH 13 0
BBX 10 9 1 3
BITMAP
0C00
0C00
0000
0000
FFC0
0000
0000
0C00
0C00
ENDCHAR
STARTCHAR oslash
ENCODING 248
SWIDTH 500 0
DWIDTH 12 0
BBX 11 16 0 -2
BITMAP
0040
0040
0F80
31C0
6160
6260
C260
C460
C460
C860
C8C0
D0C0
7180
3E00
4000
4000
ENDCHAR
STARTCHAR ugrave
ENCODING 249
SWIDTH 611 0
DWIDTH 15 0
BBX 13 17 1 0
BITMAP
0C00
0600
0100
0080
0000
F030
3030
3030
3030
6060
6060
6060
C0C0
C1C0
C2C8
ECD0
70E0
ENDCHAR
STARTCHAR uacute
ENCODING 250
SWIDTH 611 0
DWIDTH 15 0
BBX 13 17 1 0
BITMAP
0060
00C0
0100
0200
0000
F030
3030
3030
3030
6060
6060
6060
C0C0
C1C0
C2C8
ECD0
70E0
ENDCHAR
STARTCHAR ucircumflex
ENCODING 251
SWIDTH 611 0
DWIDTH 15 0
BBX 13 17 1 0
BITMAP
0080
0180
0240
0440
0000
F030
3030
3030
3030
6060
6060
6060
C0C0
C1C0
C2C8
ECD0
70E0
ENDCHAR
STARTCHAR udieresis
ENCODING 252
SWIDTH 611 0
DWIDTH 15 0
BBX 13 16 1 0
BITMAP
0CC0
0CC0
0000
0000
F030
3030
3030
3030
6060
6060
6060
C0C0
C1C0
C2C8
ECD0
70E0
ENDCHAR
STARTCHAR yacute
ENCODING 253
SWIDTH 500 0
DWIDTH 13 0
BBX 13 22 -1 -5
BITMAP
0030
0060
0080
0100
0000
1818
3C18
4C08
0C10
0610
0620
0620
0340
0340
0380
0100
0100
0200
0200
C400
C800
7000
ENDCHAR
STARTCHAR thorn
ENCODING 254
SWIDTH 574 0
DWIDTH 14 0
BBX 14 23 -1 -5
BITMAP
1E00
0600
0600
0600
0C00
0C00
0CF0
0F18
0C0C
0C0C
180C
180C
180C
180C
3818
3818
3430
33C0
6000
6000
6000
6000
F000
ENDCHAR
STARTCHAR ydieresis
ENCODING 255
SWIDTH 500 0
DWIDTH 13 0
BBX 13 21 -1 -5
BITMAP
0630
0630
0000
0000
1818
3C18
4C08
0C10
0610
0620
0620
0340
0340
0380
0100
0100
0200
0200
C400
C800
7000
ENDCHAR
ENDFONT
