STARTFONT 2.1
COMMENT AUTOMATICALLY GENERATED FILE. DO NOT EDIT!
COMMENT Generated with 'ucs2any.pl UTB___14.bdf ../../../fonts/util/map-ISO8859-1 ISO8859-1'
COMMENT from an ISO10646-1 encoded source BDF font.
COMMENT ucs2any.pl by Markus Kuhn <mkuhn@acm.org>, 2000.
FONT -Adobe-Utopia-Bold-R-Normal--19-140-100-100-P-108-ISO8859-1
SIZE 14 100 100
FONTBOUNDINGBOX 20 23 -1 -5
COMMENT $Xorg: $
COMMENT ISO10646-1 extension by Markus Kuhn <mkuhn@acm.org>, 2001-03-20
STARTPROPERTIES 28
FOUNDRY "Adobe"
FAMILY_NAME "Utopia"
WEIGHT_NAME "Bold"
SLANT "R"
SETWIDTH_NAME "Normal"
ADD_STYLE_NAME ""
PIXEL_SIZE 19
POINT_SIZE 140
RESOLUTION_X 100
RESOLUTION_Y 100
SPACING "P"
AVERAGE_WIDTH 108
CHARSET_REGISTRY "ISO8859"
CHARSET_ENCODING "1"
CAP_HEIGHT 13
X_HEIGHT 10
RELATIVE_SETWIDTH 50
RELATIVE_WEIGHT 70
WEIGHT 218
FACE_NAME "Utopia Bold"
COPYRIGHT "Copyright (c) 1989, 1991 Adobe Systems Incorporated.  All Rights Reserved."
NOTICE "Utopia is a registered trademark of Adobe Systems Incorporated."
DESTINATION 0
FONT_ASCENT 18
FONT_DESCENT 5
DEFAULT_CHAR 0
_ADOBE_PSFONT "Utopia-Bold"
_DEC_DEVICE_FONTNAMES "PS=Utopia-Bold"
ENDPROPERTIES
CHARS 192
STARTCHAR defaultchar
ENCODING 0
SWIDTH 807 0
DWIDTH 16 0
BBX 13 13 1 0
BITMAP
AAA8
0000
8008
0000
8008
0000
8008
0000
8008
0000
8008
0000
AAA8
ENDCHAR
STARTCHAR space
ENCODING 32
SWIDTH 210 0
DWIDTH 4 0
BBX 0 0 0 0
BITMAP
ENDCHAR
STARTCHAR exclam
ENCODING 33
SWIDTH 278 0
DWIDTH 5 0
BBX 4 14 1 0
BITMAP
60
F0
F0
60
60
60
60
60
60
00
40
F0
F0
60
ENDCHAR
STARTCHAR quotedbl
ENCODING 34
SWIDTH 473 0
DWIDTH 9 0
BBX 6 6 2 8
BITMAP
CC
CC
CC
CC
48
48
ENDCHAR
STARTCHAR numbersign
ENCODING 35
SWIDTH 560 0
DWIDTH 11 0
BBX 10 13 0 0
BITMAP
0C80
0980
0980
1900
7FC0
1300
1200
3200
FF80
2600
6400
6400
4C00
ENDCHAR
STARTCHAR dollar
ENCODING 36
SWIDTH 560 0
DWIDTH 11 0
BBX 9 16 1 -2
BITMAP
0800
3C00
6B00
CB00
C800
F800
7C00
3F00
0F00
0B80
4B80
CB00
EB00
3E00
0800
0800
ENDCHAR
STARTCHAR percent
ENCODING 37
SWIDTH 887 0
DWIDTH 17 0
BBX 15 14 1 -1
BITMAP
3818
47F0
C620
C660
C640
44C0
38BC
0124
0366
0266
0666
0424
083C
0800
ENDCHAR
STARTCHAR ampersand
ENCODING 38
SWIDTH 748 0
DWIDTH 15 0
BBX 13 13 1 0
BITMAP
0C00
1300
3300
3200
3A38
1C38
1E30
6F30
E7E0
E3C0
E1E0
70F8
3F18
ENDCHAR
STARTCHAR quotesingle
ENCODING 39
SWIDTH 252 0
DWIDTH 5 0
BBX 3 6 1 8
BITMAP
E0
E0
E0
40
40
40
ENDCHAR
STARTCHAR parenleft
ENCODING 40
SWIDTH 365 0
DWIDTH 7 0
BBX 5 17 2 -3
BITMAP
18
30
60
60
40
C0
C0
C0
C0
C0
C0
C0
40
60
60
30
18
ENDCHAR
STARTCHAR parenright
ENCODING 41
SWIDTH 365 0
DWIDTH 7 0
BBX 5 17 0 -3
BITMAP
C0
60
30
30
10
18
18
18
18
18
18
18
10
30
30
60
C0
ENDCHAR
STARTCHAR asterisk
ENCODING 42
SWIDTH 442 0
DWIDTH 9 0
BBX 7 8 1 6
BITMAP
10
92
D6
38
7C
D6
92
10
ENDCHAR
STARTCHAR plus
ENCODING 43
SWIDTH 600 0
DWIDTH 12 0
BBX 10 10 1 0
BITMAP
0C00
0C00
0C00
0C00
FFC0
FFC0
0C00
0C00
0C00
0C00
ENDCHAR
STARTCHAR comma
ENCODING 44
SWIDTH 280 0
DWIDTH 5 0
BBX 3 7 1 -3
BITMAP
40
E0
60
60
40
C0
80
ENDCHAR
STARTCHAR hyphen
ENCODING 45
SWIDTH 392 0
DWIDTH 8 0
BBX 5 2 1 4
BITMAP
F8
F8
ENDCHAR
STARTCHAR period
ENCODING 46
SWIDTH 280 0
DWIDTH 5 0
BBX 4 4 1 0
BITMAP
60
F0
F0
60
ENDCHAR
STARTCHAR slash
ENCODING 47
SWIDTH 378 0
DWIDTH 7 0
BBX 6 14 1 0
BITMAP
0C
0C
18
18
18
30
30
30
30
60
60
60
C0
C0
ENDCHAR
STARTCHAR zero
ENCODING 48
SWIDTH 560 0
DWIDTH 11 0
BBX 9 13 1 0
BITMAP
1C00
3600
6300
E380
E380
E380
E380
E380
E380
E380
6300
3600
1C00
ENDCHAR
STARTCHAR one
ENCODING 49
SWIDTH 560 0
DWIDTH 11 0
BBX 7 13 2 0
BITMAP
18
F8
38
38
38
38
38
38
38
38
38
38
FE
ENDCHAR
STARTCHAR two
ENCODING 50
SWIDTH 560 0
DWIDTH 11 0
BBX 11 13 0 0
BITMAP
1F00
3980
71C0
71C0
01C0
01C0
0380
0600
0C00
3800
7060
FFC0
FFC0
ENDCHAR
STARTCHAR three
ENCODING 51
SWIDTH 560 0
DWIDTH 11 0
BBX 9 13 1 0
BITMAP
1E00
7300
E380
6380
0380
0300
3C00
0300
0380
4380
C380
E700
3E00
ENDCHAR
STARTCHAR four
ENCODING 52
SWIDTH 560 0
DWIDTH 11 0
BBX 10 13 1 0
BITMAP
0700
0700
0F00
1F00
1700
2700
6700
4700
FFC0
0700
0700
0700
1F80
ENDCHAR
STARTCHAR five
ENCODING 53
SWIDTH 560 0
DWIDTH 11 0
BBX 9 13 1 0
BITMAP
7F80
7F00
4000
4000
4000
7E00
4700
0380
0380
4380
E380
6700
3E00
ENDCHAR
STARTCHAR six
ENCODING 54
SWIDTH 560 0
DWIDTH 11 0
BBX 9 13 1 0
BITMAP
0E00
3380
6180
6100
EE00
FF00
E380
E380
E380
E380
6300
3700
1E00
ENDCHAR
STARTCHAR seven
ENCODING 55
SWIDTH 560 0
DWIDTH 11 0
BBX 9 13 1 0
BITMAP
FF80
FF80
8100
8300
0200
0600
0C00
0C00
1800
1800
3800
3800
3800
ENDCHAR
STARTCHAR eight
ENCODING 56
SWIDTH 560 0
DWIDTH 11 0
BBX 9 13 1 0
BITMAP
3E00
7300
E380
E380
E380
7200
7F00
6300
E380
E380
E380
6300
3E00
ENDCHAR
STARTCHAR nine
ENCODING 57
SWIDTH 560 0
DWIDTH 11 0
BBX 9 13 1 0
BITMAP
3C00
7700
6300
E380
E380
E380
7380
3F80
0380
4380
E300
6700
3C00
ENDCHAR
STARTCHAR colon
ENCODING 58
SWIDTH 280 0
DWIDTH 5 0
BBX 4 10 1 0
BITMAP
60
F0
F0
60
00
00
60
F0
F0
60
ENDCHAR
STARTCHAR semicolon
ENCODING 59
SWIDTH 280 0
DWIDTH 5 0
BBX 4 13 1 -3
BITMAP
60
F0
70
60
00
00
40
E0
60
60
40
40
80
ENDCHAR
STARTCHAR less
ENCODING 60
SWIDTH 600 0
DWIDTH 12 0
BBX 9 10 1 0
BITMAP
0080
0380
0F80
3C00
F000
C000
7800
1E00
0780
0080
ENDCHAR
STARTCHAR equal
ENCODING 61
SWIDTH 600 0
DWIDTH 12 0
BBX 9 6 1 2
BITMAP
FF80
FF80
0000
0000
FF80
FF80
ENDCHAR
STARTCHAR greater
ENCODING 62
SWIDTH 600 0
DWIDTH 12 0
BBX 9 10 1 0
BITMAP
8000
E000
F800
1E00
0780
0180
0F00
3C00
F000
8000
ENDCHAR
STARTCHAR question
ENCODING 63
SWIDTH 456 0
DWIDTH 9 0
BBX 8 14 0 0
BITMAP
3C
77
E7
67
0E
1C
38
38
1E
00
10
38
3C
18
ENDCHAR
STARTCHAR at
ENCODING 64
SWIDTH 833 0
DWIDTH 16 0
BBX 14 14 1 0
BITMAP
03E0
0C30
3808
31FC
6364
4664
C6E4
CCC4
CDC8
CDC8
6EF0
6000
3820
0FC0
ENDCHAR
STARTCHAR A
ENCODING 65
SWIDTH 644 0
DWIDTH 13 0
BBX 13 14 0 0
BITMAP
0700
0700
0780
0B80
0B80
0B80
19C0
11C0
1FC0
30E0
20E0
20E0
60F0
F1F8
ENDCHAR
STARTCHAR B
ENCODING 66
SWIDTH 683 0
DWIDTH 13 0
BBX 11 14 1 0
BITMAP
FF80
71C0
70E0
70E0
70E0
71C0
7F00
7180
70C0
70E0
70E0
70E0
71C0
FF80
ENDCHAR
STARTCHAR C
ENCODING 67
SWIDTH 689 0
DWIDTH 13 0
BBX 12 14 1 0
BITMAP
0FE0
3870
7030
7010
E000
E000
E000
E000
E000
E010
7010
7030
3870
0FC0
ENDCHAR
STARTCHAR D
ENCODING 68
SWIDTH 777 0
DWIDTH 15 0
BBX 13 14 1 0
BITMAP
FFC0
70E0
7070
7070
7038
7038
7038
7038
7038
7030
7070
7070
70E0
FF80
ENDCHAR
STARTCHAR E
ENCODING 69
SWIDTH 629 0
DWIDTH 12 0
BBX 11 14 1 0
BITMAP
FFC0
70C0
7040
7040
7080
7080
7F80
7080
7080
7000
7060
7040
70C0
FFC0
ENDCHAR
STARTCHAR F
ENCODING 70
SWIDTH 593 0
DWIDTH 12 0
BBX 10 14 1 0
BITMAP
FFC0
70C0
7040
7040
7000
7080
7080
7F80
7080
7080
7000
7000
7000
FC00
ENDCHAR
STARTCHAR G
ENCODING 71
SWIDTH 726 0
DWIDTH 14 0
BBX 13 14 1 0
BITMAP
07E0
3870
7030
7010
E000
E000
E000
E000
E1F8
E070
6070
7070
3870
0FC0
ENDCHAR
STARTCHAR H
ENCODING 72
SWIDTH 807 0
DWIDTH 16 0
BBX 13 14 1 0
BITMAP
F8F8
7070
7070
7070
7070
7070
7FF0
7070
7070
7070
7070
7070
7070
F8F8
ENDCHAR
STARTCHAR I
ENCODING 73
SWIDTH 384 0
DWIDTH 7 0
BBX 5 14 1 0
BITMAP
F8
70
70
70
70
70
70
70
70
70
70
70
70
F8
ENDCHAR
STARTCHAR J
ENCODING 74
SWIDTH 386 0
DWIDTH 8 0
BBX 6 16 0 -2
BITMAP
7C
38
38
38
38
38
38
38
38
38
38
38
38
38
70
C0
ENDCHAR
STARTCHAR K
ENCODING 75
SWIDTH 707 0
DWIDTH 14 0
BBX 13 14 1 0
BITMAP
FCF8
7060
70C0
7180
7300
7600
7F00
7F00
7780
77C0
73C0
71E0
70F0
F838
ENDCHAR
STARTCHAR L
ENCODING 76
SWIDTH 585 0
DWIDTH 11 0
BBX 10 14 1 0
BITMAP
FC00
7000
7000
7000
7000
7000
7000
7000
7000
7000
7040
7040
70C0
FFC0
ENDCHAR
STARTCHAR M
ENCODING 77
SWIDTH 918 0
DWIDTH 18 0
BBX 16 14 1 0
BITMAP
F81F
781E
781E
5C2E
5C2E
5E6E
4E4E
4E4E
4FCE
478E
478E
430E
430E
F33F
ENDCHAR
STARTCHAR N
ENCODING 78
SWIDTH 739 0
DWIDTH 14 0
BBX 12 14 1 0
BITMAP
F0F0
7820
7820
7C20
5E20
4E20
4F20
47A0
43A0
43E0
41E0
40E0
40E0
F060
ENDCHAR
STARTCHAR O
ENCODING 79
SWIDTH 768 0
DWIDTH 15 0
BBX 13 14 1 0
BITMAP
0F80
38E0
7070
6030
E038
E038
E038
E038
E038
E038
6030
7070
38E0
0F80
ENDCHAR
STARTCHAR P
ENCODING 80
SWIDTH 650 0
DWIDTH 13 0
BBX 11 14 1 0
BITMAP
FF80
71C0
70E0
70E0
70E0
70E0
70E0
71C0
7F00
7000
7000
7000
7000
FC00
ENDCHAR
STARTCHAR Q
ENCODING 81
SWIDTH 768 0
DWIDTH 15 0
BBX 13 18 1 -4
BITMAP
0F80
38E0
7070
6030
E038
E038
E038
E038
E038
E038
6030
7070
38E0
1FC0
0780
03C0
01E0
0070
ENDCHAR
STARTCHAR R
ENCODING 82
SWIDTH 684 0
DWIDTH 13 0
BBX 12 14 1 0
BITMAP
FF80
71C0
70E0
70E0
70E0
70E0
71C0
7F00
73C0
71C0
71C0
70E0
70E0
F870
ENDCHAR
STARTCHAR S
ENCODING 83
SWIDTH 561 0
DWIDTH 11 0
BBX 9 14 1 0
BITMAP
1F00
6180
E180
E080
F000
F800
7E00
1F00
0F80
8380
8380
C380
E300
3E00
ENDCHAR
STARTCHAR T
ENCODING 84
SWIDTH 624 0
DWIDTH 12 0
BBX 11 14 0 0
BITMAP
FFE0
CE60
8E20
8E20
0E00
0E00
0E00
0E00
0E00
0E00
0E00
0E00
0E00
3F80
ENDCHAR
STARTCHAR U
ENCODING 85
SWIDTH 786 0
DWIDTH 15 0
BBX 13 14 1 0
BITMAP
F8F8
7070
7070
7070
7070
7070
7070
7070
7070
7070
7070
7070
38E0
0F80
ENDCHAR
STARTCHAR V
ENCODING 86
SWIDTH 645 0
DWIDTH 13 0
BBX 14 14 -1 0
BITMAP
FC7C
7818
3830
3830
1C20
1C20
1C60
0E40
0E40
0EC0
0F80
0780
0780
0700
ENDCHAR
STARTCHAR W
ENCODING 87
SWIDTH 933 0
DWIDTH 18 0
BBX 19 14 0 0
BITMAP
F803E0
7060C0
70E080
30F080
38F080
38F180
39B900
193900
1D3900
1D3A00
1D1E00
0E1E00
0E1E00
0E0C00
ENDCHAR
STARTCHAR X
ENCODING 88
SWIDTH 634 0
DWIDTH 12 0
BBX 14 14 -1 0
BITMAP
7E78
3C30
1C60
0E40
0F80
0780
0380
0380
07C0
05E0
0CE0
18F0
3878
FCFC
ENDCHAR
STARTCHAR Y
ENCODING 89
SWIDTH 617 0
DWIDTH 12 0
BBX 13 14 0 0
BITMAP
FCF8
7830
3820
1C60
1C40
0E80
0E80
0700
0700
0700
0700
0700
0700
1FC0
ENDCHAR
STARTCHAR Z
ENCODING 90
SWIDTH 614 0
DWIDTH 12 0
BBX 12 14 0 0
BITMAP
7FF0
60E0
41E0
43C0
0380
0780
0F00
0F00
1E00
3C00
3C10
7830
F070
FFF0
ENDCHAR
STARTCHAR bracketleft
ENCODING 91
SWIDTH 335 0
DWIDTH 7 0
BBX 4 17 2 -3
BITMAP
F0
C0
C0
C0
C0
C0
C0
C0
C0
C0
C0
C0
C0
C0
C0
C0
F0
ENDCHAR
STARTCHAR backslash
ENCODING 92
SWIDTH 379 0
DWIDTH 7 0
BBX 6 14 1 0
BITMAP
C0
C0
60
60
60
30
30
30
30
18
18
18
0C
0C
ENDCHAR
STARTCHAR bracketright
ENCODING 93
SWIDTH 335 0
DWIDTH 7 0
BBX 4 17 0 -3
BITMAP
F0
30
30
30
30
30
30
30
30
30
30
30
30
30
30
30
F0
ENDCHAR
STARTCHAR asciicircum
ENCODING 94
SWIDTH 600 0
DWIDTH 12 0
BBX 9 9 1 4
BITMAP
1C00
1C00
1400
3600
3200
6300
6300
4100
C180
ENDCHAR
STARTCHAR underscore
ENCODING 95
SWIDTH 500 0
DWIDTH 10 0
BBX 10 1 0 -2
BITMAP
FFC0
ENDCHAR
STARTCHAR grave
ENCODING 96
SWIDTH 430 0
DWIDTH 8 0
BBX 5 4 1 10
BITMAP
C0
E0
30
08
ENDCHAR
STARTCHAR a
ENCODING 97
SWIDTH 544 0
DWIDTH 11 0
BBX 10 10 1 0
BITMAP
1E00
6700
E700
4700
3F00
6700
E700
E700
7FC0
3300
ENDCHAR
STARTCHAR b
ENCODING 98
SWIDTH 605 0
DWIDTH 12 0
BBX 11 14 0 0
BITMAP
3000
F000
7000
7000
7780
79C0
70E0
70E0
70E0
70E0
70E0
70C0
71C0
4F00
ENDCHAR
STARTCHAR c
ENCODING 99
SWIDTH 494 0
DWIDTH 10 0
BBX 9 10 1 0
BITMAP
1E00
7700
6300
E200
E000
E000
E000
E080
7100
3E00
ENDCHAR
STARTCHAR d
ENCODING 100
SWIDTH 605 0
DWIDTH 12 0
BBX 10 14 1 0
BITMAP
0180
0780
0380
0380
1F80
7380
6380
E380
E380
E380
E380
E380
7380
3FC0
ENDCHAR
STARTCHAR e
ENCODING 101
SWIDTH 519 0
DWIDTH 10 0
BBX 9 10 1 0
BITMAP
3E00
7300
6380
E380
FF80
E000
E000
E080
7100
3E00
ENDCHAR
STARTCHAR f
ENCODING 102
SWIDTH 342 0
DWIDTH 7 0
BBX 7 14 1 0
BITMAP
1C
36
72
70
FC
70
70
70
70
70
70
70
70
F8
ENDCHAR
STARTCHAR g
ENCODING 103
SWIDTH 533 0
DWIDTH 10 0
BBX 10 14 0 -4
BITMAP
1EC0
33C0
7380
7380
7380
3300
3E00
6000
7F80
3FC0
60C0
E0C0
7180
1F00
ENDCHAR
STARTCHAR h
ENCODING 104
SWIDTH 631 0
DWIDTH 12 0
BBX 11 14 1 0
BITMAP
3000
F000
7000
7000
7780
79C0
71C0
71C0
71C0
71C0
71C0
71C0
71C0
FBE0
ENDCHAR
STARTCHAR i
ENCODING 105
SWIDTH 316 0
DWIDTH 6 0
BBX 5 14 1 0
BITMAP
60
70
70
00
30
F0
70
70
70
70
70
70
70
F8
ENDCHAR
STARTCHAR j
ENCODING 106
SWIDTH 316 0
DWIDTH 6 0
BBX 5 19 0 -4
BITMAP
30
38
38
10
00
18
78
38
38
38
38
38
38
38
38
38
38
70
C0
ENDCHAR
STARTCHAR k
ENCODING 107
SWIDTH 582 0
DWIDTH 11 0
BBX 11 14 1 0
BITMAP
3000
F000
7000
7000
71E0
7380
7600
7C00
7E00
7F00
7700
7380
73C0
F9E0
ENDCHAR
STARTCHAR l
ENCODING 108
SWIDTH 309 0
DWIDTH 6 0
BBX 5 14 1 0
BITMAP
30
F0
70
70
70
70
70
70
70
70
70
70
70
F8
ENDCHAR
STARTCHAR m
ENCODING 109
SWIDTH 948 0
DWIDTH 18 0
BBX 17 10 1 0
BITMAP
379E00
F9E700
71C700
71C700
71C700
71C700
71C700
71C700
71C700
FBEF80
ENDCHAR
STARTCHAR n
ENCODING 110
SWIDTH 638 0
DWIDTH 12 0
BBX 11 10 1 0
BITMAP
3780
F9C0
71C0
71C0
71C0
71C0
71C0
71C0
71C0
FBE0
ENDCHAR
STARTCHAR o
ENCODING 111
SWIDTH 585 0
DWIDTH 11 0
BBX 10 10 1 0
BITMAP
1E00
7380
6180
E1C0
E1C0
E1C0
E1C0
6180
7380
1E00
ENDCHAR
STARTCHAR p
ENCODING 112
SWIDTH 615 0
DWIDTH 12 0
BBX 10 14 1 -4
BITMAP
6F00
F380
71C0
71C0
71C0
71C0
71C0
7180
7380
7E00
7000
7000
7000
FC00
ENDCHAR
STARTCHAR q
ENCODING 113
SWIDTH 597 0
DWIDTH 12 0
BBX 10 14 1 -4
BITMAP
1F80
7380
6380
E380
E380
E380
E380
E380
7380
3F80
0380
0380
0380
07C0
ENDCHAR
STARTCHAR r
ENCODING 114
SWIDTH 440 0
DWIDTH 9 0
BBX 8 10 1 0
BITMAP
36
FF
76
70
70
70
70
70
70
FC
ENDCHAR
STARTCHAR s
ENCODING 115
SWIDTH 446 0
DWIDTH 9 0
BBX 8 10 0 0
BITMAP
1E
33
71
78
3C
1F
8F
47
46
3C
ENDCHAR
STARTCHAR t
ENCODING 116
SWIDTH 370 0
DWIDTH 7 0
BBX 7 12 1 0
BITMAP
30
30
FC
70
70
70
70
70
70
70
70
3E
ENDCHAR
STARTCHAR u
ENCODING 117
SWIDTH 629 0
DWIDTH 12 0
BBX 11 10 1 0
BITMAP
30C0
F3C0
71C0
71C0
71C0
71C0
71C0
71C0
7FC0
19E0
ENDCHAR
STARTCHAR v
ENCODING 118
SWIDTH 520 0
DWIDTH 10 0
BBX 11 10 0 0
BITMAP
F9E0
70C0
3880
3980
3900
1D00
1F00
1E00
0E00
0E00
ENDCHAR
STARTCHAR w
ENCODING 119
SWIDTH 774 0
DWIDTH 15 0
BBX 16 10 0 0
BITMAP
F9CF
71C6
39C4
39E4
3BEC
1AE8
1E68
1E78
1C70
0C30
ENDCHAR
STARTCHAR x
ENCODING 120
SWIDTH 522 0
DWIDTH 10 0
BBX 10 10 0 0
BITMAP
FBC0
7100
3A00
1E00
1C00
0E00
1600
3700
6380
F7C0
ENDCHAR
STARTCHAR y
ENCODING 121
SWIDTH 524 0
DWIDTH 10 0
BBX 11 14 0 -4
BITMAP
F9E0
70C0
3080
3980
3900
1D00
1F00
1E00
0E00
0C00
0C00
2800
7800
3000
ENDCHAR
STARTCHAR z
ENCODING 122
SWIDTH 483 0
DWIDTH 9 0
BBX 10 10 0 0
BITMAP
7FC0
6380
4780
0F00
1E00
1C00
3C40
78C0
70C0
FF80
ENDCHAR
STARTCHAR braceleft
ENCODING 123
SWIDTH 365 0
DWIDTH 7 0
BBX 5 17 1 -3
BITMAP
18
30
30
30
30
30
30
20
E0
30
30
30
30
30
30
30
18
ENDCHAR
STARTCHAR bar
ENCODING 124
SWIDTH 284 0
DWIDTH 6 0
BBX 2 14 2 0
BITMAP
C0
C0
C0
C0
C0
C0
C0
C0
C0
C0
C0
C0
C0
C0
ENDCHAR
STARTCHAR braceright
ENCODING 125
SWIDTH 365 0
DWIDTH 7 0
BBX 5 17 1 -3
BITMAP
C0
60
60
60
60
60
60
60
38
20
60
60
60
60
60
60
C0
ENDCHAR
STARTCHAR asciitilde
ENCODING 126
SWIDTH 600 0
DWIDTH 12 0
BBX 10 4 1 3
BITMAP
1040
7F80
4F80
8000
ENDCHAR
STARTCHAR space
ENCODING 160
SWIDTH 210 0
DWIDTH 4 0
BBX 0 0 0 0
BITMAP
ENDCHAR
STARTCHAR exclamdown
ENCODING 161
SWIDTH 278 0
DWIDTH 5 0
BBX 4 14 1 -4
BITMAP
60
F0
F0
40
00
60
60
60
60
60
60
F0
F0
60
ENDCHAR
STARTCHAR cent
ENCODING 162
SWIDTH 560 0
DWIDTH 11 0
BBX 10 13 1 0
BITMAP
0400
1F00
7580
65C0
E400
E400
E400
E400
6440
7480
1F00
0400
0400
ENDCHAR
STARTCHAR sterling
ENCODING 163
SWIDTH 560 0
DWIDTH 11 0
BBX 10 13 0 0
BITMAP
1F00
3380
7180
7000
7800
3800
FF00
1C00
1C00
1800
7840
FFC0
FF80
ENDCHAR
STARTCHAR currency
ENCODING 164
SWIDTH 560 0
DWIDTH 11 0
BBX 9 9 1 2
BITMAP
DD80
FF80
6300
C180
C180
C180
6300
FF80
DD80
ENDCHAR
STARTCHAR yen
ENCODING 165
SWIDTH 560 0
DWIDTH 11 0
BBX 11 13 0 0
BITMAP
F9E0
70C0
3880
3900
1F00
7FC0
0E00
0E00
7FC0
0E00
0E00
0E00
1F80
ENDCHAR
STARTCHAR brokenbar
ENCODING 166
SWIDTH 284 0
DWIDTH 6 0
BBX 2 14 2 0
BITMAP
C0
C0
C0
C0
C0
00
00
00
C0
C0
C0
C0
C0
C0
ENDCHAR
STARTCHAR section
ENCODING 167
SWIDTH 566 0
DWIDTH 11 0
BBX 9 16 1 -2
BITMAP
1E00
2700
6200
7000
FC00
9E00
8F00
C380
E180
7880
3C80
0F00
0700
6300
7200
3C00
ENDCHAR
STARTCHAR dieresis
ENCODING 168
SWIDTH 430 0
DWIDTH 8 0
BBX 8 3 0 11
BITMAP
66
E7
66
ENDCHAR
STARTCHAR copyright
ENCODING 169
SWIDTH 800 0
DWIDTH 16 0
BBX 14 14 1 0
BITMAP
0F80
1060
2030
6798
4CC8
D84C
D80C
D80C
D84C
4CC8
6718
2030
1060
0F80
ENDCHAR
STARTCHAR ordfeminine
ENCODING 170
SWIDTH 405 0
DWIDTH 8 0
BBX 7 7 1 5
BITMAP
78
CC
4C
7C
CC
CC
7E
ENDCHAR
STARTCHAR guillemotleft
ENCODING 171
SWIDTH 487 0
DWIDTH 9 0
BBX 8 8 1 1
BITMAP
11
32
66
EE
EE
66
32
11
ENDCHAR
STARTCHAR logicalnot
ENCODING 172
SWIDTH 600 0
DWIDTH 12 0
BBX 9 6 2 2
BITMAP
FF80
FF80
0180
0180
0180
0180
ENDCHAR
STARTCHAR hyphen
ENCODING 173
SWIDTH 392 0
DWIDTH 8 0
BBX 5 2 1 4
BITMAP
F8
F8
ENDCHAR
STARTCHAR registered
ENCODING 174
SWIDTH 800 0
DWIDTH 16 0
BBX 14 14 1 0
BITMAP
0780
1860
3030
7F98
4CC8
CCC8
CCCC
CF0C
CD8C
4CC8
7EF8
2030
1860
0F80
ENDCHAR
STARTCHAR macron
ENCODING 175
SWIDTH 430 0
DWIDTH 8 0
BBX 6 2 1 11
BITMAP
FC
FC
ENDCHAR
STARTCHAR degree
ENCODING 176
SWIDTH 396 0
DWIDTH 8 0
BBX 6 6 1 7
BITMAP
78
CC
84
84
CC
78
ENDCHAR
STARTCHAR plusminus
ENCODING 177
SWIDTH 600 0
DWIDTH 12 0
BBX 10 11 1 0
BITMAP
0C00
0C00
0C00
FFC0
FFC0
0C00
0C00
0C00
0000
FFC0
FFC0
ENDCHAR
STARTCHAR twosuperior
ENCODING 178
SWIDTH 402 0
DWIDTH 8 0
BBX 6 8 1 5
BITMAP
38
6C
CC
1C
38
60
7C
FC
ENDCHAR
STARTCHAR threesuperior
ENCODING 179
SWIDTH 402 0
DWIDTH 8 0
BBX 6 8 1 5
BITMAP
38
EC
0C
78
0C
CC
CC
78
ENDCHAR
STARTCHAR acute
ENCODING 180
SWIDTH 430 0
DWIDTH 8 0
BBX 5 4 2 10
BITMAP
18
38
60
80
ENDCHAR
STARTCHAR mu
ENCODING 181
SWIDTH 629 0
DWIDTH 12 0
BBX 11 14 1 -4
BITMAP
30C0
F3C0
71C0
71C0
71C0
71C0
71C0
71C0
7FC0
69E0
6000
6000
7000
4000
ENDCHAR
STARTCHAR paragraph
ENCODING 182
SWIDTH 552 0
DWIDTH 11 0
BBX 10 16 1 -2
BITMAP
1BC0
7B00
7B00
FB00
FB00
FB00
FB00
7B00
3B00
0300
0300
0300
0300
0300
0300
0F00
ENDCHAR
STARTCHAR periodcentered
ENCODING 183
SWIDTH 280 0
DWIDTH 5 0
BBX 4 4 1 3
BITMAP
60
F0
F0
60
ENDCHAR
STARTCHAR cedilla
ENCODING 184
SWIDTH 430 0
DWIDTH 8 0
BBX 4 6 2 -5
BITMAP
20
40
70
30
30
E0
ENDCHAR
STARTCHAR onesuperior
ENCODING 185
SWIDTH 402 0
DWIDTH 8 0
BBX 4 8 2 5
BITMAP
60
E0
60
60
60
60
60
F0
ENDCHAR
STARTCHAR ordmasculine
ENCODING 186
SWIDTH 427 0
DWIDTH 8 0
BBX 7 7 1 5
BITMAP
38
44
C6
C6
C6
44
38
ENDCHAR
STARTCHAR guillemotright
ENCODING 187
SWIDTH 487 0
DWIDTH 9 0
BBX 8 8 1 1
BITMAP
88
4C
66
77
77
66
4C
88
ENDCHAR
STARTCHAR onequarter
ENCODING 188
SWIDTH 900 0
DWIDTH 17 0
BBX 13 14 2 0
BITMAP
0040
E040
60C0
6080
6180
6100
6330
6270
F670
04B0
0D30
09F8
1830
1078
ENDCHAR
STARTCHAR onehalf
ENCODING 189
SWIDTH 900 0
DWIDTH 17 0
BBX 15 15 1 -1
BITMAP
0020
E030
6060
6040
60C0
6080
611C
6136
F266
020E
041C
0430
083E
087E
1000
ENDCHAR
STARTCHAR threequarters
ENCODING 190
SWIDTH 900 0
DWIDTH 17 0
BBX 15 14 1 0
BITMAP
0010
3810
EC30
0C20
7860
0C40
CCCC
CC9C
799C
012C
024C
02FE
040C
0C1E
ENDCHAR
STARTCHAR questiondown
ENCODING 191
SWIDTH 456 0
DWIDTH 9 0
BBX 8 14 1 -4
BITMAP
30
78
70
20
00
78
1C
1C
38
70
E6
E7
EE
3C
ENDCHAR
STARTCHAR Agrave
ENCODING 192
SWIDTH 644 0
DWIDTH 13 0
BBX 13 18 0 0
BITMAP
0800
1E00
0700
0080
0700
0700
0780
0B80
0B80
0B80
19C0
11C0
1FC0
30E0
20E0
20E0
60F0
F1F8
ENDCHAR
STARTCHAR Aacute
ENCODING 193
SWIDTH 644 0
DWIDTH 13 0
BBX 13 18 0 0
BITMAP
00C0
01C0
0700
0400
0700
0700
0780
0B80
0B80
0B80
19C0
11C0
1FC0
30E0
20E0
20E0
60F0
F1F8
ENDCHAR
STARTCHAR Acircumflex
ENCODING 194
SWIDTH 644 0
DWIDTH 13 0
BBX 13 18 0 0
BITMAP
0300
0780
08C0
1000
0700
0700
0780
0B80
0B80
0B80
19C0
11C0
1FC0
30E0
20E0
20E0
60F0
F1F8
ENDCHAR
STARTCHAR Atilde
ENCODING 195
SWIDTH 644 0
DWIDTH 13 0
BBX 13 17 0 0
BITMAP
0C40
1FC0
2180
0700
0700
0780
0B80
0B80
0B80
19C0
11C0
1FC0
30E0
20E0
20E0
60F0
F1F8
ENDCHAR
STARTCHAR Adieresis
ENCODING 196
SWIDTH 644 0
DWIDTH 13 0
BBX 14 17 -1 0
BITMAP
1CE0
1CE0
1CE0
0380
0780
0780
07C0
0DC0
09C0
09C0
18E0
1FE0
10E0
3070
2070
6078
F8FC
ENDCHAR
STARTCHAR Aring
ENCODING 197
SWIDTH 644 0
DWIDTH 13 0
BBX 14 17 -1 0
BITMAP
0300
0480
0480
0780
0300
0780
0780
07C0
05C0
09C0
09E0
1FE0
10E0
3070
2070
6078
F8FC
ENDCHAR
STARTCHAR AE
ENCODING 198
SWIDTH 879 0
DWIDTH 17 0
BBX 18 14 -1 0
BITMAP
07FF80
01E180
02E080
02E080
04E100
04E100
0FFF00
08E100
10E100
10E000
30E0C0
20E080
60E180
F9FF80
ENDCHAR
STARTCHAR Ccedilla
ENCODING 199
SWIDTH 689 0
DWIDTH 13 0
BBX 12 19 1 -5
BITMAP
0FE0
3870
7030
7010
E000
E000
E000
E000
E000
E010
7010
7030
3C70
0FC0
0200
0780
0180
0180
0700
ENDCHAR
STARTCHAR Egrave
ENCODING 200
SWIDTH 629 0
DWIDTH 12 0
BBX 11 18 1 0
BITMAP
2000
7800
1C00
0200
FFC0
70C0
7040
7040
7080
7080
7F80
7080
7080
7000
7060
7040
70C0
FFC0
ENDCHAR
STARTCHAR Eacute
ENCODING 201
SWIDTH 629 0
DWIDTH 12 0
BBX 11 18 1 0
BITMAP
0180
0780
0E00
1000
FFC0
70C0
7040
7040
7080
7080
7F80
7080
7080
7000
7060
7040
70C0
FFC0
ENDCHAR
STARTCHAR Ecircumflex
ENCODING 202
SWIDTH 629 0
DWIDTH 12 0
BBX 11 18 1 0
BITMAP
0C00
1E00
3180
0000
FFC0
70C0
7040
7040
7080
7080
7F80
7080
7080
7000
7060
7040
70C0
FFC0
ENDCHAR
STARTCHAR Edieresis
ENCODING 203
SWIDTH 629 0
DWIDTH 12 0
BBX 11 17 1 0
BITMAP
7380
7380
7380
FFC0
70C0
7040
7040
7080
7080
7F80
7080
7080
7000
7060
7040
70C0
FFC0
ENDCHAR
STARTCHAR Igrave
ENCODING 204
SWIDTH 384 0
DWIDTH 7 0
BBX 6 18 0 0
BITMAP
C0
F0
38
04
7C
38
38
38
38
38
38
38
38
38
38
38
38
7C
ENDCHAR
STARTCHAR Iacute
ENCODING 205
SWIDTH 384 0
DWIDTH 7 0
BBX 6 18 1 0
BITMAP
0C
3C
70
80
F8
70
70
70
70
70
70
70
70
70
70
70
70
F8
ENDCHAR
STARTCHAR Icircumflex
ENCODING 206
SWIDTH 384 0
DWIDTH 7 0
BBX 7 18 0 0
BITMAP
10
3C
C6
00
7C
38
38
38
38
38
38
38
38
38
38
38
38
7C
ENDCHAR
STARTCHAR Idieresis
ENCODING 207
SWIDTH 384 0
DWIDTH 7 0
BBX 8 17 0 0
BITMAP
E7
E7
E7
7C
38
38
38
38
38
38
38
38
38
38
38
38
7C
ENDCHAR
STARTCHAR Eth
ENCODING 208
SWIDTH 783 0
DWIDTH 15 0
BBX 14 14 0 0
BITMAP
7FE0
3870
3838
3838
381C
381C
FF1C
381C
381C
381C
3838
3838
3870
7FC0
ENDCHAR
STARTCHAR Ntilde
ENCODING 209
SWIDTH 739 0
DWIDTH 14 0
BBX 12 17 1 0
BITMAP
0C40
1FC0
2180
F0F0
7820
7820
7C20
5E20
4E20
4F20
47A0
43A0
43E0
41E0
40E0
40E0
F060
ENDCHAR
STARTCHAR Ograve
ENCODING 210
SWIDTH 768 0
DWIDTH 15 0
BBX 13 18 1 0
BITMAP
1000
1C00
0F00
0180
0F80
38E0
7070
6030
E038
E038
E038
E038
E038
E038
6030
7070
38E0
0F80
ENDCHAR
STARTCHAR Oacute
ENCODING 211
SWIDTH 768 0
DWIDTH 15 0
BBX 13 18 1 0
BITMAP
0040
01C0
0780
0C00
0F80
38E0
7070
6030
E038
E038
E038
E038
E038
E038
6030
7070
38E0
0F80
ENDCHAR
STARTCHAR Ocircumflex
ENCODING 212
SWIDTH 768 0
DWIDTH 15 0
BBX 13 18 1 0
BITMAP
0700
0F80
18C0
2020
0F80
38E0
7070
6030
E038
E038
E038
E038
E038
E038
6030
7070
38E0
0F80
ENDCHAR
STARTCHAR Otilde
ENCODING 213
SWIDTH 768 0
DWIDTH 15 0
BBX 13 17 1 0
BITMAP
0C20
1FC0
1180
0F80
38E0
7070
6030
E038
E038
E038
E038
E038
E038
6030
7070
38E0
0F80
ENDCHAR
STARTCHAR Odieresis
ENCODING 214
SWIDTH 768 0
DWIDTH 15 0
BBX 13 17 1 0
BITMAP
1DC0
1DC0
1DC0
0F80
38E0
7070
6030
E038
E038
E038
E038
E038
E038
6030
7070
38E0
0F80
ENDCHAR
STARTCHAR multiply
ENCODING 215
SWIDTH 600 0
DWIDTH 12 0
BBX 9 9 1 0
BITMAP
4100
E380
7700
3E00
1C00
3E00
7700
E380
4100
ENDCHAR
STARTCHAR Oslash
ENCODING 216
SWIDTH 768 0
DWIDTH 15 0
BBX 13 16 1 -1
BITMAP
0020
0FA0
38E0
7070
60B0
E1B8
E138
E238
E638
E438
EC38
6830
7070
38E0
2F80
2000
ENDCHAR
STARTCHAR Ugrave
ENCODING 217
SWIDTH 786 0
DWIDTH 15 0
BBX 13 18 1 0
BITMAP
1800
1C00
0700
0080
F8F8
7070
7070
7070
7070
7070
7070
7070
7070
7070
7070
7070
38E0
0F80
ENDCHAR
STARTCHAR Uacute
ENCODING 218
SWIDTH 786 0
DWIDTH 15 0
BBX 13 18 1 0
BITMAP
00C0
01C0
0700
0800
F8F8
7070
7070
7070
7070
7070
7070
7070
7070
7070
7070
7070
38E0
0F80
ENDCHAR
STARTCHAR Ucircumflex
ENCODING 219
SWIDTH 786 0
DWIDTH 15 0
BBX 13 18 1 0
BITMAP
0200
0F80
18C0
0000
F8F8
7070
7070
7070
7070
7070
7070
7070
7070
7070
7070
7070
38E0
0F80
ENDCHAR
STARTCHAR Udieresis
ENCODING 220
SWIDTH 786 0
DWIDTH 15 0
BBX 13 17 1 0
BITMAP
1CE0
1CE0
1CE0
F8F8
7070
7070
7070
7070
7070
7070
7070
7070
7070
7070
7070
38E0
0F80
ENDCHAR
STARTCHAR Yacute
ENCODING 221
SWIDTH 617 0
DWIDTH 12 0
BBX 13 18 0 0
BITMAP
00C0
01E0
0700
0400
FCF8
7830
3820
1C60
1C40
0E80
0E80
0700
0700
0700
0700
0700
0700
1FC0
ENDCHAR
STARTCHAR Thorn
ENCODING 222
SWIDTH 640 0
DWIDTH 12 0
BBX 11 14 1 0
BITMAP
FC00
7000
7000
7F80
71C0
70E0
70E0
70E0
70E0
71C0
7F00
7000
7000
FC00
ENDCHAR
STARTCHAR germandbls
ENCODING 223
SWIDTH 662 0
DWIDTH 13 0
BBX 11 14 1 0
BITMAP
1F00
3980
71C0
71C0
7100
7300
7700
7780
73C0
71C0
70E0
7060
7760
FBC0
ENDCHAR
STARTCHAR agrave
ENCODING 224
SWIDTH 544 0
DWIDTH 11 0
BBX 10 15 1 0
BITMAP
2000
7000
3000
1800
0400
1E00
6700
E700
4700
3F00
6700
E700
E700
7FC0
3300
ENDCHAR
STARTCHAR aacute
ENCODING 225
SWIDTH 544 0
DWIDTH 11 0
BBX 10 15 1 0
BITMAP
0200
0700
0E00
0800
1000
1E00
6700
E700
4700
3F00
6700
E700
E700
7FC0
3300
ENDCHAR
STARTCHAR acircumflex
ENCODING 226
SWIDTH 544 0
DWIDTH 11 0
BBX 10 14 1 0
BITMAP
0800
1C00
2600
4100
1E00
6700
E700
4700
3F00
6700
E700
E700
7FC0
3300
ENDCHAR
STARTCHAR atilde
ENCODING 227
SWIDTH 544 0
DWIDTH 11 0
BBX 10 14 1 0
BITMAP
7100
FF00
8600
0000
1E00
6700
E700
4700
3F00
6700
E700
E700
7FC0
3300
ENDCHAR
STARTCHAR adieresis
ENCODING 228
SWIDTH 544 0
DWIDTH 11 0
BBX 10 14 1 0
BITMAP
7700
7700
7700
0000
1E00
6700
E700
4700
3F00
6700
E700
E700
7FC0
3300
ENDCHAR
STARTCHAR aring
ENCODING 229
SWIDTH 544 0
DWIDTH 11 0
BBX 10 15 1 0
BITMAP
1800
2400
2400
2400
1800
3E00
E700
E700
4F00
3700
E700
E700
E700
7FC0
3300
ENDCHAR
STARTCHAR ae
ENCODING 230
SWIDTH 806 0
DWIDTH 16 0
BBX 14 10 1 0
BITMAP
1CF0
6798
E71C
471C
1FFC
6700
E700
E704
E788
79F0
ENDCHAR
STARTCHAR ccedilla
ENCODING 231
SWIDTH 494 0
DWIDTH 10 0
BBX 8 15 1 -5
BITMAP
1C
77
67
E2
E0
E0
E0
E1
71
3E
10
1C
0C
0C
18
ENDCHAR
STARTCHAR egrave
ENCODING 232
SWIDTH 519 0
DWIDTH 10 0
BBX 9 15 1 0
BITMAP
2000
7000
3800
0C00
0600
3E00
7300
6380
E380
FF80
E000
E000
E080
7100
3E00
ENDCHAR
STARTCHAR eacute
ENCODING 233
SWIDTH 519 0
DWIDTH 10 0
BBX 9 15 1 0
BITMAP
0100
0300
0600
0C00
1000
3E00
7300
6380
E380
FF80
E000
E000
E080
7100
3E00
ENDCHAR
STARTCHAR ecircumflex
ENCODING 234
SWIDTH 519 0
DWIDTH 10 0
BBX 9 14 1 0
BITMAP
0800
1C00
2200
4100
3E00
7300
6380
E380
FF80
E000
E000
E080
7100
3E00
ENDCHAR
STARTCHAR edieresis
ENCODING 235
SWIDTH 519 0
DWIDTH 10 0
BBX 9 14 1 0
BITMAP
E700
E700
E700
0000
3E00
7300
6380
E380
FF80
E000
E000
E180
7100
3E00
ENDCHAR
STARTCHAR igrave
ENCODING 236
SWIDTH 316 0
DWIDTH 6 0
BBX 6 15 0 0
BITMAP
80
E0
70
18
08
18
78
38
38
38
38
38
38
38
7C
ENDCHAR
STARTCHAR iacute
ENCODING 237
SWIDTH 316 0
DWIDTH 6 0
BBX 6 15 1 0
BITMAP
08
1C
38
60
80
30
F0
70
70
70
70
70
70
70
F8
ENDCHAR
STARTCHAR icircumflex
ENCODING 238
SWIDTH 316 0
DWIDTH 6 0
BBX 7 14 0 0
BITMAP
10
38
44
82
18
78
38
38
38
38
38
38
38
7C
ENDCHAR
STARTCHAR idieresis
ENCODING 239
SWIDTH 316 0
DWIDTH 6 0
BBX 8 14 -1 0
BITMAP
E7
E7
E7
00
0C
3C
1C
1C
1C
1C
1C
1C
1C
3E
ENDCHAR
STARTCHAR eth
ENCODING 240
SWIDTH 585 0
DWIDTH 11 0
BBX 10 14 1 0
BITMAP
6080
1100
3E00
4700
1F80
7380
61C0
E1C0
E1C0
E1C0
E1C0
6180
7380
1E00
ENDCHAR
STARTCHAR ntilde
ENCODING 241
SWIDTH 638 0
DWIDTH 12 0
BBX 11 14 1 0
BITMAP
1880
3F80
4300
0000
3780
F9C0
71C0
71C0
71C0
71C0
71C0
71C0
71C0
FBE0
ENDCHAR
STARTCHAR ograve
ENCODING 242
SWIDTH 585 0
DWIDTH 11 0
BBX 10 15 1 0
BITMAP
2000
7000
3800
0C00
0200
1E00
7380
6180
E1C0
E1C0
E1C0
E1C0
6180
7380
1E00
ENDCHAR
STARTCHAR oacute
ENCODING 243
SWIDTH 585 0
DWIDTH 11 0
BBX 10 15 1 0
BITMAP
0100
0380
0700
0C00
1000
1E00
7380
6180
E1C0
E1C0
E1C0
E1C0
6180
7380
1E00
ENDCHAR
STARTCHAR ocircumflex
ENCODING 244
SWIDTH 585 0
DWIDTH 11 0
BBX 10 14 1 0
BITMAP
0C00
1E00
3300
4080
1E00
7380
6180
E1C0
E1C0
E1C0
E1C0
6180
7380
1E00
ENDCHAR
STARTCHAR otilde
ENCODING 245
SWIDTH 585 0
DWIDTH 11 0
BBX 10 14 1 0
BITMAP
3880
3F80
4300
0000
1E00
7380
6180
E1C0
E1C0
E1C0
E1C0
6180
7380
1E00
ENDCHAR
STARTCHAR odieresis
ENCODING 246
SWIDTH 585 0
DWIDTH 11 0
BBX 10 14 1 0
BITMAP
7380
7380
7380
0000
1E00
7380
6180
E1C0
E1C0
E1C0
E1C0
6180
7380
1E00
ENDCHAR
STARTCHAR divide
ENCODING 247
SWIDTH 600 0
DWIDTH 12 0
BBX 9 10 1 0
BITMAP
0800
1C00
0800
0000
FF80
FF80
0000
0800
1C00
0800
ENDCHAR
STARTCHAR oslash
ENCODING 248
SWIDTH 585 0
DWIDTH 11 0
BBX 10 12 1 -1
BITMAP
0100
1F80
7300
6380
E5C0
E5C0
E9C0
F9C0
F180
7380
3E00
4000
ENDCHAR
STARTCHAR ugrave
ENCODING 249
SWIDTH 629 0
DWIDTH 12 0
BBX 11 15 1 0
BITMAP
2000
3000
3800
0C00
0200
30C0
F3C0
71C0
71C0
71C0
71C0
71C0
71C0
7FC0
19E0
ENDCHAR
STARTCHAR uacute
ENCODING 250
SWIDTH 629 0
DWIDTH 12 0
BBX 11 15 1 0
BITMAP
0080
0180
0300
0600
0800
30C0
F3C0
71C0
71C0
71C0
71C0
71C0
71C0
7FC0
19E0
ENDCHAR
STARTCHAR ucircumflex
ENCODING 251
SWIDTH 629 0
DWIDTH 12 0
BBX 11 14 1 0
BITMAP
0400
0E00
1100
2080
30C0
F3C0
71C0
71C0
71C0
71C0
71C0
71C0
7FC0
19E0
ENDCHAR
STARTCHAR udieresis
ENCODING 252
SWIDTH 629 0
DWIDTH 12 0
BBX 11 14 1 0
BITMAP
7380
7380
7380
0000
30C0
F3C0
71C0
71C0
71C0
71C0
71C0
71C0
7FC0
19E0
ENDCHAR
STARTCHAR yacute
ENCODING 253
SWIDTH 524 0
DWIDTH 10 0
BBX 11 19 0 -4
BITMAP
0080
01C0
0380
0600
0800
F9E0
70C0
3080
3980
3900
1D00
1F00
1E00
0E00
0C00
0C00
2800
7800
3000
ENDCHAR
STARTCHAR thorn
ENCODING 254
SWIDTH 609 0
DWIDTH 12 0
BBX 11 18 0 -4
BITMAP
F000
7000
7000
7000
7780
79C0
70E0
70E0
70E0
70E0
70E0
70C0
71C0
7F00
7000
7000
7000
FC00
ENDCHAR
STARTCHAR ydieresis
ENCODING 255
SWIDTH 524 0
DWIDTH 10 0
BBX 11 18 0 -4
BITMAP
3B80
3B80
3B80
0000
F9E0
70C0
3080
3980
3900
1D00
1F00
1E00
0E00
0C00
0C00
2800
7800
2000
ENDCHAR
ENDFONT
