STARTFONT 2.1
COMMENT AUTOMATICALLY GENERATED FILE. DO NOT EDIT!
COMMENT Generated with 'ucs2any.pl UTB___10.bdf ../../../fonts/util/map-ISO8859-1 ISO8859-1'
COMMENT from an ISO10646-1 encoded source BDF font.
COMMENT ucs2any.pl by Markus Kuhn <mkuhn@acm.org>, 2000.
FONT -Adobe-Utopia-Bold-R-Normal--14-100-100-100-P-78-ISO8859-1
SIZE 10 100 100
FONTBOUNDINGBOX 14 17 -1 -4
COMMENT $Xorg: $
COMMENT ISO10646-1 extension by Markus Kuhn <mkuhn@acm.org>, 2001-03-20
STARTPROPERTIES 28
FOUNDRY "Adobe"
FAMILY_NAME "Utopia"
WEIGHT_NAME "Bold"
SLANT "R"
SETWIDTH_NAME "Normal"
ADD_STYLE_NAME ""
PIXEL_SIZE 14
POINT_SIZE 100
RESOLUTION_X 100
RESOLUTION_Y 100
SPACING "P"
AVERAGE_WIDTH 78
CHARSET_REGISTRY "ISO8859"
CHARSET_ENCODING "1"
CAP_HEIGHT 10
X_HEIGHT 7
RELATIVE_SETWIDTH 50
RELATIVE_WEIGHT 70
WEIGHT 218
FACE_NAME "Utopia Bold"
COPYRIGHT "Copyright (c) 1989, 1991 Adobe Systems Incorporated.  All Rights Reserved."
NOTICE "Utopia is a registered trademark of Adobe Systems Incorporated."
DESTINATION 0
FONT_ASCENT 13
FONT_DESCENT 4
DEFAULT_CHAR 0
_ADOBE_PSFONT "Utopia-Bold"
_DEC_DEVICE_FONTNAMES "PS=Utopia-Bold"
ENDPROPERTIES
CHARS 192
STARTCHAR defaultchar
ENCODING 0
SWIDTH 807 0
DWIDTH 11 0
BBX 9 9 1 0
BITMAP
AA80
0000
8080
0000
8080
0000
8080
0000
AA80
ENDCHAR
STARTCHAR space
ENCODING 32
SWIDTH 210 0
DWIDTH 3 0
BBX 0 0 0 0
BITMAP
ENDCHAR
STARTCHAR exclam
ENCODING 33
SWIDTH 278 0
DWIDTH 4 0
BBX 3 10 0 0
BITMAP
E0
E0
E0
40
40
40
00
40
E0
C0
ENDCHAR
STARTCHAR quotedbl
ENCODING 34
SWIDTH 473 0
DWIDTH 7 0
BBX 5 4 1 6
BITMAP
D8
D8
50
50
ENDCHAR
STARTCHAR numbersign
ENCODING 35
SWIDTH 560 0
DWIDTH 8 0
BBX 7 10 0 0
BITMAP
14
14
24
7E
28
28
FC
48
50
D0
ENDCHAR
STARTCHAR dollar
ENCODING 36
SWIDTH 560 0
DWIDTH 8 0
BBX 7 11 0 -1
BITMAP
10
38
D6
D0
F0
3C
1E
D6
D4
78
10
ENDCHAR
STARTCHAR percent
ENCODING 37
SWIDTH 887 0
DWIDTH 12 0
BBX 12 11 0 -1
BITMAP
00C0
7F80
CC80
CD00
C900
7260
04B0
05B0
09B0
10E0
1000
ENDCHAR
STARTCHAR ampersand
ENCODING 38
SWIDTH 748 0
DWIDTH 10 0
BBX 9 9 1 0
BITMAP
3800
6C00
6980
6980
3980
DD00
CE00
E780
7980
ENDCHAR
STARTCHAR quotesingle
ENCODING 39
SWIDTH 252 0
DWIDTH 3 0
BBX 2 4 1 6
BITMAP
C0
C0
C0
80
ENDCHAR
STARTCHAR parenleft
ENCODING 40
SWIDTH 365 0
DWIDTH 5 0
BBX 3 12 2 -2
BITMAP
20
40
C0
80
80
80
80
80
80
C0
40
20
ENDCHAR
STARTCHAR parenright
ENCODING 41
SWIDTH 365 0
DWIDTH 5 0
BBX 3 12 0 -2
BITMAP
80
40
60
20
20
20
20
20
20
60
40
80
ENDCHAR
STARTCHAR asterisk
ENCODING 42
SWIDTH 442 0
DWIDTH 6 0
BBX 5 5 1 5
BITMAP
20
F8
20
F8
20
ENDCHAR
STARTCHAR plus
ENCODING 43
SWIDTH 600 0
DWIDTH 8 0
BBX 7 7 1 0
BITMAP
10
10
10
FE
10
10
10
ENDCHAR
STARTCHAR comma
ENCODING 44
SWIDTH 280 0
DWIDTH 4 0
BBX 3 5 0 -2
BITMAP
40
60
60
40
80
ENDCHAR
STARTCHAR hyphen
ENCODING 45
SWIDTH 392 0
DWIDTH 5 0
BBX 4 1 1 3
BITMAP
F0
ENDCHAR
STARTCHAR period
ENCODING 46
SWIDTH 280 0
DWIDTH 4 0
BBX 3 3 0 0
BITMAP
40
E0
40
ENDCHAR
STARTCHAR slash
ENCODING 47
SWIDTH 378 0
DWIDTH 5 0
BBX 4 10 1 0
BITMAP
10
30
20
20
20
40
40
40
C0
80
ENDCHAR
STARTCHAR zero
ENCODING 48
SWIDTH 560 0
DWIDTH 8 0
BBX 6 9 1 0
BITMAP
30
48
CC
CC
CC
CC
CC
48
30
ENDCHAR
STARTCHAR one
ENCODING 49
SWIDTH 560 0
DWIDTH 8 0
BBX 4 9 2 0
BITMAP
20
E0
60
60
60
60
60
60
F0
ENDCHAR
STARTCHAR two
ENCODING 50
SWIDTH 560 0
DWIDTH 8 0
BBX 8 9 0 0
BITMAP
3C
66
66
06
0C
10
61
FE
FE
ENDCHAR
STARTCHAR three
ENCODING 51
SWIDTH 560 0
DWIDTH 8 0
BBX 7 9 0 0
BITMAP
3C
66
66
06
38
06
46
E6
3C
ENDCHAR
STARTCHAR four
ENCODING 52
SWIDTH 560 0
DWIDTH 8 0
BBX 7 9 0 0
BITMAP
0C
1C
1C
2C
2C
4C
FE
0C
1E
ENDCHAR
STARTCHAR five
ENCODING 53
SWIDTH 560 0
DWIDTH 8 0
BBX 7 9 0 0
BITMAP
7E
7C
40
7C
46
06
46
E4
38
ENDCHAR
STARTCHAR six
ENCODING 54
SWIDTH 560 0
DWIDTH 8 0
BBX 7 9 0 0
BITMAP
3C
66
C2
F8
C6
C6
C6
64
38
ENDCHAR
STARTCHAR seven
ENCODING 55
SWIDTH 560 0
DWIDTH 8 0
BBX 7 9 0 0
BITMAP
7E
7E
84
08
08
10
30
30
30
ENDCHAR
STARTCHAR eight
ENCODING 56
SWIDTH 560 0
DWIDTH 8 0
BBX 7 9 0 0
BITMAP
3C
66
66
66
3E
C6
C6
44
38
ENDCHAR
STARTCHAR nine
ENCODING 57
SWIDTH 560 0
DWIDTH 8 0
BBX 6 9 1 0
BITMAP
70
C8
CC
CC
7C
0C
CC
C8
70
ENDCHAR
STARTCHAR colon
ENCODING 58
SWIDTH 280 0
DWIDTH 4 0
BBX 3 7 0 0
BITMAP
E0
E0
40
00
40
E0
C0
ENDCHAR
STARTCHAR semicolon
ENCODING 59
SWIDTH 280 0
DWIDTH 4 0
BBX 3 10 0 -3
BITMAP
60
E0
40
00
00
60
60
40
40
80
ENDCHAR
STARTCHAR less
ENCODING 60
SWIDTH 600 0
DWIDTH 8 0
BBX 7 7 1 0
BITMAP
02
0E
38
E0
E0
38
06
ENDCHAR
STARTCHAR equal
ENCODING 61
SWIDTH 600 0
DWIDTH 8 0
BBX 7 4 1 1
BITMAP
FE
00
00
FE
ENDCHAR
STARTCHAR greater
ENCODING 62
SWIDTH 600 0
DWIDTH 8 0
BBX 7 7 1 0
BITMAP
80
E0
38
0E
0E
38
C0
ENDCHAR
STARTCHAR question
ENCODING 63
SWIDTH 456 0
DWIDTH 6 0
BBX 5 10 1 0
BITMAP
70
D8
98
30
40
C0
F0
00
60
60
ENDCHAR
STARTCHAR at
ENCODING 64
SWIDTH 833 0
DWIDTH 12 0
BBX 11 10 0 0
BITMAP
0F80
3840
6320
6DA0
CD20
D920
DB40
5D80
2000
1F80
ENDCHAR
STARTCHAR A
ENCODING 65
SWIDTH 644 0
DWIDTH 9 0
BBX 10 10 -1 0
BITMAP
0C00
0C00
1600
1600
1600
2700
3F00
2300
4380
E7C0
ENDCHAR
STARTCHAR B
ENCODING 66
SWIDTH 683 0
DWIDTH 9 0
BBX 8 10 1 0
BITMAP
FC
66
66
66
7C
66
63
63
63
FE
ENDCHAR
STARTCHAR C
ENCODING 67
SWIDTH 689 0
DWIDTH 10 0
BBX 8 10 1 0
BITMAP
1E
63
41
C0
C0
C0
C0
41
63
3E
ENDCHAR
STARTCHAR D
ENCODING 68
SWIDTH 777 0
DWIDTH 11 0
BBX 9 10 1 0
BITMAP
FE00
6300
6180
6180
6180
6180
6180
6100
6300
FC00
ENDCHAR
STARTCHAR E
ENCODING 69
SWIDTH 629 0
DWIDTH 9 0
BBX 7 10 1 0
BITMAP
FE
62
60
64
7C
64
60
62
62
FE
ENDCHAR
STARTCHAR F
ENCODING 70
SWIDTH 593 0
DWIDTH 8 0
BBX 7 10 1 0
BITMAP
FE
66
62
60
64
7C
64
60
60
F0
ENDCHAR
STARTCHAR G
ENCODING 71
SWIDTH 726 0
DWIDTH 10 0
BBX 9 10 1 0
BITMAP
1E00
6300
4100
C000
C000
C780
C300
E300
6300
3E00
ENDCHAR
STARTCHAR H
ENCODING 72
SWIDTH 807 0
DWIDTH 11 0
BBX 10 10 1 0
BITMAP
F3C0
6180
6180
6180
7F80
6180
6180
6180
6180
F3C0
ENDCHAR
STARTCHAR I
ENCODING 73
SWIDTH 384 0
DWIDTH 5 0
BBX 4 10 1 0
BITMAP
F0
60
60
60
60
60
60
60
60
F0
ENDCHAR
STARTCHAR J
ENCODING 74
SWIDTH 386 0
DWIDTH 5 0
BBX 5 12 0 -2
BITMAP
78
30
30
30
30
30
30
30
30
30
60
80
ENDCHAR
STARTCHAR K
ENCODING 75
SWIDTH 707 0
DWIDTH 10 0
BBX 9 10 1 0
BITMAP
F780
6200
6400
6800
7800
7C00
6E00
6600
6700
F180
ENDCHAR
STARTCHAR L
ENCODING 76
SWIDTH 585 0
DWIDTH 8 0
BBX 7 10 1 0
BITMAP
F0
60
60
60
60
60
60
62
62
FE
ENDCHAR
STARTCHAR M
ENCODING 77
SWIDTH 918 0
DWIDTH 13 0
BBX 12 10 0 0
BITMAP
F0F0
70E0
78E0
5960
5960
5D60
4E60
4E60
4460
E4F0
ENDCHAR
STARTCHAR N
ENCODING 78
SWIDTH 739 0
DWIDTH 10 0
BBX 10 10 0 0
BITMAP
F1C0
7080
7880
5C80
4C80
4E80
4780
4380
4380
E180
ENDCHAR
STARTCHAR O
ENCODING 79
SWIDTH 768 0
DWIDTH 11 0
BBX 9 10 1 0
BITMAP
3E00
6300
4100
C180
C180
C180
C180
4100
6300
3E00
ENDCHAR
STARTCHAR P
ENCODING 80
SWIDTH 650 0
DWIDTH 9 0
BBX 7 10 1 0
BITMAP
FC
66
66
66
64
78
60
60
60
F0
ENDCHAR
STARTCHAR Q
ENCODING 81
SWIDTH 768 0
DWIDTH 11 0
BBX 9 13 1 -3
BITMAP
3E00
6300
4100
C180
C180
C180
C180
4100
6300
3E00
0E00
0700
0380
ENDCHAR
STARTCHAR R
ENCODING 82
SWIDTH 684 0
DWIDTH 9 0
BBX 8 10 1 0
BITMAP
FC
66
66
66
64
78
6C
66
66
F3
ENDCHAR
STARTCHAR S
ENCODING 83
SWIDTH 561 0
DWIDTH 8 0
BBX 6 10 1 0
BITMAP
38
CC
C4
E0
70
3C
0C
8C
C8
70
ENDCHAR
STARTCHAR T
ENCODING 84
SWIDTH 624 0
DWIDTH 9 0
BBX 8 10 0 0
BITMAP
FF
99
99
18
18
18
18
18
18
3C
ENDCHAR
STARTCHAR U
ENCODING 85
SWIDTH 786 0
DWIDTH 11 0
BBX 9 10 1 0
BITMAP
F780
6300
6300
6300
6300
6300
6300
6300
2200
1C00
ENDCHAR
STARTCHAR V
ENCODING 86
SWIDTH 645 0
DWIDTH 9 0
BBX 10 10 0 0
BITMAP
F1C0
6080
3100
3100
3100
1A00
1A00
1A00
0C00
0C00
ENDCHAR
STARTCHAR W
ENCODING 87
SWIDTH 933 0
DWIDTH 13 0
BBX 13 10 0 0
BITMAP
F038
6310
6310
6310
35A0
35A0
35A0
35A0
18C0
18C0
ENDCHAR
STARTCHAR X
ENCODING 88
SWIDTH 634 0
DWIDTH 9 0
BBX 10 10 0 0
BITMAP
F380
6100
3200
3C00
1C00
1E00
3600
2700
6380
F7C0
ENDCHAR
STARTCHAR Y
ENCODING 89
SWIDTH 617 0
DWIDTH 9 0
BBX 9 10 0 0
BITMAP
F780
6100
6200
3600
3400
1800
1800
1800
1800
3E00
ENDCHAR
STARTCHAR Z
ENCODING 90
SWIDTH 614 0
DWIDTH 9 0
BBX 9 10 0 0
BITMAP
7F80
6380
4700
0E00
0E00
1C00
3800
7080
7080
FF80
ENDCHAR
STARTCHAR bracketleft
ENCODING 91
SWIDTH 335 0
DWIDTH 5 0
BBX 2 12 2 -2
BITMAP
C0
80
80
80
80
80
80
80
80
80
80
C0
ENDCHAR
STARTCHAR backslash
ENCODING 92
SWIDTH 379 0
DWIDTH 5 0
BBX 4 10 1 0
BITMAP
80
C0
40
40
40
20
20
20
30
10
ENDCHAR
STARTCHAR bracketright
ENCODING 93
SWIDTH 335 0
DWIDTH 5 0
BBX 2 12 1 -2
BITMAP
C0
40
40
40
40
40
40
40
40
40
40
C0
ENDCHAR
STARTCHAR asciicircum
ENCODING 94
SWIDTH 600 0
DWIDTH 8 0
BBX 7 7 1 2
BITMAP
10
38
28
6C
44
44
C6
ENDCHAR
STARTCHAR underscore
ENCODING 95
SWIDTH 500 0
DWIDTH 7 0
BBX 7 1 0 -2
BITMAP
FE
ENDCHAR
STARTCHAR grave
ENCODING 96
SWIDTH 430 0
DWIDTH 6 0
BBX 4 3 0 7
BITMAP
C0
60
10
ENDCHAR
STARTCHAR a
ENCODING 97
SWIDTH 544 0
DWIDTH 8 0
BBX 7 7 1 0
BITMAP
78
CC
0C
7C
CC
CC
7E
ENDCHAR
STARTCHAR b
ENCODING 98
SWIDTH 605 0
DWIDTH 8 0
BBX 8 10 0 0
BITMAP
20
E0
60
7E
63
63
63
63
62
5C
ENDCHAR
STARTCHAR c
ENCODING 99
SWIDTH 494 0
DWIDTH 7 0
BBX 6 7 1 0
BITMAP
38
4C
C8
C0
C0
C4
78
ENDCHAR
STARTCHAR d
ENCODING 100
SWIDTH 605 0
DWIDTH 8 0
BBX 7 10 1 0
BITMAP
04
1C
0C
3C
4C
CC
CC
CC
CC
7E
ENDCHAR
STARTCHAR e
ENCODING 101
SWIDTH 519 0
DWIDTH 7 0
BBX 6 7 1 0
BITMAP
38
4C
CC
FC
C0
C4
78
ENDCHAR
STARTCHAR f
ENCODING 102
SWIDTH 342 0
DWIDTH 5 0
BBX 5 10 0 0
BITMAP
38
68
60
F0
60
60
60
60
60
F0
ENDCHAR
STARTCHAR g
ENCODING 103
SWIDTH 533 0
DWIDTH 7 0
BBX 8 10 0 -3
BITMAP
3F
66
66
26
7C
7C
3F
C3
C2
7C
ENDCHAR
STARTCHAR h
ENCODING 104
SWIDTH 631 0
DWIDTH 9 0
BBX 9 10 0 0
BITMAP
2000
E000
6000
7E00
6300
6300
6300
6300
6300
F780
ENDCHAR
STARTCHAR i
ENCODING 105
SWIDTH 316 0
DWIDTH 4 0
BBX 4 10 0 0
BITMAP
60
60
00
20
E0
60
60
60
60
F0
ENDCHAR
STARTCHAR j
ENCODING 106
SWIDTH 316 0
DWIDTH 4 0
BBX 4 13 0 -3
BITMAP
30
70
00
20
E0
60
60
60
60
60
60
40
80
ENDCHAR
STARTCHAR k
ENCODING 107
SWIDTH 582 0
DWIDTH 8 0
BBX 8 10 0 0
BITMAP
20
E0
60
67
6C
78
78
7C
6E
E7
ENDCHAR
STARTCHAR l
ENCODING 108
SWIDTH 309 0
DWIDTH 4 0
BBX 4 10 0 0
BITMAP
20
E0
60
60
60
60
60
60
60
F0
ENDCHAR
STARTCHAR m
ENCODING 109
SWIDTH 948 0
DWIDTH 13 0
BBX 12 7 0 0
BITMAP
3DC0
E660
6660
6660
6660
6660
F770
ENDCHAR
STARTCHAR n
ENCODING 110
SWIDTH 638 0
DWIDTH 9 0
BBX 9 7 0 0
BITMAP
3E00
E300
6300
6300
6300
6300
F780
ENDCHAR
STARTCHAR o
ENCODING 111
SWIDTH 585 0
DWIDTH 8 0
BBX 7 7 1 0
BITMAP
38
44
C6
C6
C6
44
38
ENDCHAR
STARTCHAR p
ENCODING 112
SWIDTH 615 0
DWIDTH 9 0
BBX 8 10 0 -3
BITMAP
2E
F3
63
63
63
62
7C
60
60
F0
ENDCHAR
STARTCHAR q
ENCODING 113
SWIDTH 597 0
DWIDTH 8 0
BBX 7 10 1 -3
BITMAP
34
4C
CC
CC
CC
CC
7C
0C
0C
1E
ENDCHAR
STARTCHAR r
ENCODING 114
SWIDTH 440 0
DWIDTH 6 0
BBX 6 7 0 0
BITMAP
6C
FC
60
60
60
60
F0
ENDCHAR
STARTCHAR s
ENCODING 115
SWIDTH 446 0
DWIDTH 6 0
BBX 5 7 1 0
BITMAP
70
C8
E0
70
38
98
70
ENDCHAR
STARTCHAR t
ENCODING 116
SWIDTH 370 0
DWIDTH 5 0
BBX 5 9 0 0
BITMAP
20
60
F0
60
60
60
60
60
38
ENDCHAR
STARTCHAR u
ENCODING 117
SWIDTH 629 0
DWIDTH 9 0
BBX 9 7 0 0
BITMAP
2300
E700
6300
6300
6300
6300
3F80
ENDCHAR
STARTCHAR v
ENCODING 118
SWIDTH 520 0
DWIDTH 7 0
BBX 8 7 0 0
BITMAP
F7
62
74
34
34
18
18
ENDCHAR
STARTCHAR w
ENCODING 119
SWIDTH 774 0
DWIDTH 11 0
BBX 11 7 0 0
BITMAP
F6E0
6640
6640
2B40
3B80
3B80
1100
ENDCHAR
STARTCHAR x
ENCODING 120
SWIDTH 522 0
DWIDTH 7 0
BBX 8 7 0 0
BITMAP
F6
7C
38
18
2C
4E
EF
ENDCHAR
STARTCHAR y
ENCODING 121
SWIDTH 524 0
DWIDTH 7 0
BBX 8 10 0 -3
BITMAP
F7
62
66
34
34
18
18
10
50
60
ENDCHAR
STARTCHAR z
ENCODING 122
SWIDTH 483 0
DWIDTH 7 0
BBX 8 7 -1 0
BITMAP
7E
4E
5C
18
39
72
FE
ENDCHAR
STARTCHAR braceleft
ENCODING 123
SWIDTH 365 0
DWIDTH 5 0
BBX 3 12 1 -2
BITMAP
60
40
40
40
40
C0
40
40
40
40
40
20
ENDCHAR
STARTCHAR bar
ENCODING 124
SWIDTH 284 0
DWIDTH 4 0
BBX 1 10 1 0
BITMAP
80
80
80
80
80
80
80
80
80
80
ENDCHAR
STARTCHAR braceright
ENCODING 125
SWIDTH 365 0
DWIDTH 5 0
BBX 3 12 1 -2
BITMAP
80
40
40
40
40
60
40
40
40
40
40
80
ENDCHAR
STARTCHAR asciitilde
ENCODING 126
SWIDTH 600 0
DWIDTH 8 0
BBX 7 3 1 2
BITMAP
22
7C
88
ENDCHAR
STARTCHAR space
ENCODING 160
SWIDTH 210 0
DWIDTH 3 0
BBX 0 0 0 0
BITMAP
ENDCHAR
STARTCHAR exclamdown
ENCODING 161
SWIDTH 278 0
DWIDTH 4 0
BBX 3 10 0 -3
BITMAP
E0
E0
40
00
40
40
40
E0
E0
E0
ENDCHAR
STARTCHAR cent
ENCODING 162
SWIDTH 560 0
DWIDTH 8 0
BBX 7 9 1 0
BITMAP
10
10
7C
D6
D0
D2
7C
10
10
ENDCHAR
STARTCHAR sterling
ENCODING 163
SWIDTH 560 0
DWIDTH 8 0
BBX 8 9 0 0
BITMAP
3C
66
60
70
FE
18
11
7E
7E
ENDCHAR
STARTCHAR currency
ENCODING 164
SWIDTH 560 0
DWIDTH 8 0
BBX 6 7 1 1
BITMAP
FC
CC
84
84
84
CC
FC
ENDCHAR
STARTCHAR yen
ENCODING 165
SWIDTH 560 0
DWIDTH 8 0
BBX 8 9 0 0
BITMAP
F7
62
34
7E
18
7E
18
18
3C
ENDCHAR
STARTCHAR brokenbar
ENCODING 166
SWIDTH 284 0
DWIDTH 4 0
BBX 1 10 1 0
BITMAP
80
80
80
80
00
00
80
80
80
80
ENDCHAR
STARTCHAR section
ENCODING 167
SWIDTH 566 0
DWIDTH 8 0
BBX 7 12 0 -2
BITMAP
18
2C
20
78
BC
8E
E6
72
1A
04
64
38
ENDCHAR
STARTCHAR dieresis
ENCODING 168
SWIDTH 430 0
DWIDTH 6 0
BBX 6 2 0 8
BITMAP
CC
CC
ENDCHAR
STARTCHAR copyright
ENCODING 169
SWIDTH 800 0
DWIDTH 11 0
BBX 10 10 1 0
BITMAP
3E00
4100
5C80
9240
B040
B040
9240
5C80
4100
3E00
ENDCHAR
STARTCHAR ordfeminine
ENCODING 170
SWIDTH 405 0
DWIDTH 6 0
BBX 6 4 0 4
BITMAP
F0
38
D8
7C
ENDCHAR
STARTCHAR guillemotleft
ENCODING 171
SWIDTH 487 0
DWIDTH 7 0
BBX 6 6 0 0
BITMAP
24
48
D8
D8
48
24
ENDCHAR
STARTCHAR logicalnot
ENCODING 172
SWIDTH 600 0
DWIDTH 8 0
BBX 6 4 1 1
BITMAP
FC
04
04
04
ENDCHAR
STARTCHAR hyphen
ENCODING 173
SWIDTH 392 0
DWIDTH 5 0
BBX 4 1 1 3
BITMAP
F0
ENDCHAR
STARTCHAR registered
ENCODING 174
SWIDTH 800 0
DWIDTH 11 0
BBX 10 10 1 0
BITMAP
3E00
4100
5C80
9240
9240
9C40
9240
5A80
4080
3F00
ENDCHAR
STARTCHAR macron
ENCODING 175
SWIDTH 430 0
DWIDTH 6 0
BBX 4 1 1 8
BITMAP
F0
ENDCHAR
STARTCHAR degree
ENCODING 176
SWIDTH 396 0
DWIDTH 5 0
BBX 4 4 1 5
BITMAP
60
90
90
60
ENDCHAR
STARTCHAR plusminus
ENCODING 177
SWIDTH 600 0
DWIDTH 8 0
BBX 7 7 1 0
BITMAP
10
10
FE
10
10
00
FE
ENDCHAR
STARTCHAR twosuperior
ENCODING 178
SWIDTH 402 0
DWIDTH 6 0
BBX 5 5 0 4
BITMAP
70
D8
18
60
F8
ENDCHAR
STARTCHAR threesuperior
ENCODING 179
SWIDTH 402 0
DWIDTH 6 0
BBX 5 5 0 4
BITMAP
70
18
30
D8
70
ENDCHAR
STARTCHAR acute
ENCODING 180
SWIDTH 430 0
DWIDTH 6 0
BBX 4 3 2 7
BITMAP
30
60
80
ENDCHAR
STARTCHAR mu
ENCODING 181
SWIDTH 629 0
DWIDTH 9 0
BBX 9 10 0 -3
BITMAP
2300
E700
6300
6300
6300
6300
7F80
4000
6000
4000
ENDCHAR
STARTCHAR paragraph
ENCODING 182
SWIDTH 552 0
DWIDTH 8 0
BBX 6 12 1 -2
BITMAP
2C
68
E8
E8
E8
68
28
08
08
08
08
18
ENDCHAR
STARTCHAR periodcentered
ENCODING 183
SWIDTH 280 0
DWIDTH 4 0
BBX 3 3 0 2
BITMAP
40
E0
40
ENDCHAR
STARTCHAR cedilla
ENCODING 184
SWIDTH 430 0
DWIDTH 6 0
BBX 2 4 2 -4
BITMAP
80
C0
40
C0
ENDCHAR
STARTCHAR onesuperior
ENCODING 185
SWIDTH 402 0
DWIDTH 6 0
BBX 4 5 1 4
BITMAP
E0
60
60
60
F0
ENDCHAR
STARTCHAR ordmasculine
ENCODING 186
SWIDTH 427 0
DWIDTH 6 0
BBX 6 4 0 4
BITMAP
78
CC
CC
78
ENDCHAR
STARTCHAR guillemotright
ENCODING 187
SWIDTH 487 0
DWIDTH 7 0
BBX 6 6 0 0
BITMAP
90
48
6C
6C
48
90
ENDCHAR
STARTCHAR onequarter
ENCODING 188
SWIDTH 900 0
DWIDTH 12 0
BBX 11 10 1 0
BITMAP
0100
E100
6300
6200
6600
F4C0
01C0
0AC0
13E0
11E0
ENDCHAR
STARTCHAR onehalf
ENCODING 189
SWIDTH 900 0
DWIDTH 12 0
BBX 12 10 0 0
BITMAP
0080
E080
6100
6200
62E0
F4B0
0430
0860
0880
11F0
ENDCHAR
STARTCHAR threequarters
ENCODING 190
SWIDTH 900 0
DWIDTH 12 0
BBX 12 10 0 0
BITMAP
0080
7080
1980
3100
DB00
7260
04E0
0560
09F0
08F0
ENDCHAR
STARTCHAR questiondown
ENCODING 191
SWIDTH 456 0
DWIDTH 6 0
BBX 5 10 0 -3
BITMAP
30
30
00
70
18
18
60
C8
D8
70
ENDCHAR
STARTCHAR Agrave
ENCODING 192
SWIDTH 644 0
DWIDTH 9 0
BBX 10 13 -1 0
BITMAP
1000
1E00
0000
0C00
0C00
1600
1600
1600
2700
3F00
2300
4380
E7C0
ENDCHAR
STARTCHAR Aacute
ENCODING 193
SWIDTH 644 0
DWIDTH 9 0
BBX 10 13 -1 0
BITMAP
0300
0E00
0000
0C00
0C00
1600
1600
1600
2700
3F00
2300
4380
E7C0
ENDCHAR
STARTCHAR Acircumflex
ENCODING 194
SWIDTH 644 0
DWIDTH 9 0
BBX 10 12 -1 0
BITMAP
1E00
2100
0C00
0C00
1600
1600
1600
2700
3F00
2300
4380
E7C0
ENDCHAR
STARTCHAR Atilde
ENCODING 195
SWIDTH 644 0
DWIDTH 9 0
BBX 10 12 -1 0
BITMAP
1E80
2100
0C00
0C00
1600
1600
1600
2700
3F00
2300
4380
E7C0
ENDCHAR
STARTCHAR Adieresis
ENCODING 196
SWIDTH 644 0
DWIDTH 9 0
BBX 9 12 0 0
BITMAP
3600
3200
0400
1C00
1C00
2E00
2600
2600
3E00
4300
4300
E780
ENDCHAR
STARTCHAR Aring
ENCODING 197
SWIDTH 644 0
DWIDTH 9 0
BBX 9 12 0 0
BITMAP
0800
1400
1400
0800
1C00
1C00
2E00
2600
3E00
4300
4300
E780
ENDCHAR
STARTCHAR AE
ENCODING 198
SWIDTH 879 0
DWIDTH 12 0
BBX 13 10 -1 0
BITMAP
1FF8
0F08
0B00
1310
1FF0
2310
2300
4308
4308
E7F8
ENDCHAR
STARTCHAR Ccedilla
ENCODING 199
SWIDTH 689 0
DWIDTH 10 0
BBX 8 14 1 -4
BITMAP
1E
63
41
C0
C0
C0
C0
41
63
3E
10
1C
0C
18
ENDCHAR
STARTCHAR Egrave
ENCODING 200
SWIDTH 629 0
DWIDTH 9 0
BBX 7 13 1 0
BITMAP
60
38
00
FE
62
60
64
7C
64
60
62
62
FE
ENDCHAR
STARTCHAR Eacute
ENCODING 201
SWIDTH 629 0
DWIDTH 9 0
BBX 7 13 1 0
BITMAP
04
3C
00
FE
62
60
64
7C
64
60
62
62
FE
ENDCHAR
STARTCHAR Ecircumflex
ENCODING 202
SWIDTH 629 0
DWIDTH 9 0
BBX 7 12 1 0
BITMAP
18
66
FE
62
60
64
7C
64
60
62
62
FE
ENDCHAR
STARTCHAR Edieresis
ENCODING 203
SWIDTH 629 0
DWIDTH 9 0
BBX 7 12 1 0
BITMAP
6C
6C
FE
62
60
64
7C
64
60
62
62
FE
ENDCHAR
STARTCHAR Igrave
ENCODING 204
SWIDTH 384 0
DWIDTH 5 0
BBX 4 13 1 0
BITMAP
80
E0
00
F0
60
60
60
60
60
60
60
60
F0
ENDCHAR
STARTCHAR Iacute
ENCODING 205
SWIDTH 384 0
DWIDTH 5 0
BBX 4 13 1 0
BITMAP
10
70
00
F0
60
60
60
60
60
60
60
60
F0
ENDCHAR
STARTCHAR Icircumflex
ENCODING 206
SWIDTH 384 0
DWIDTH 5 0
BBX 4 12 1 0
BITMAP
F0
00
F0
60
60
60
60
60
60
60
60
F0
ENDCHAR
STARTCHAR Idieresis
ENCODING 207
SWIDTH 384 0
DWIDTH 5 0
BBX 5 12 0 0
BITMAP
D8
98
38
30
30
30
30
30
30
30
30
78
ENDCHAR
STARTCHAR Eth
ENCODING 208
SWIDTH 783 0
DWIDTH 11 0
BBX 9 10 1 0
BITMAP
FE00
6300
6180
6180
F980
6180
6180
6100
6300
FC00
ENDCHAR
STARTCHAR Ntilde
ENCODING 209
SWIDTH 739 0
DWIDTH 10 0
BBX 10 12 0 0
BITMAP
3900
0600
F0C0
7080
7880
5C80
4C80
4E80
4780
4380
4380
E180
ENDCHAR
STARTCHAR Ograve
ENCODING 210
SWIDTH 768 0
DWIDTH 11 0
BBX 9 13 1 0
BITMAP
2000
3C00
0000
3E00
6300
4100
C180
C180
C180
C180
4100
6300
3E00
ENDCHAR
STARTCHAR Oacute
ENCODING 211
SWIDTH 768 0
DWIDTH 11 0
BBX 9 13 1 0
BITMAP
0200
1E00
0000
3E00
6300
4100
C180
C180
C180
C180
4100
6300
3E00
ENDCHAR
STARTCHAR Ocircumflex
ENCODING 212
SWIDTH 768 0
DWIDTH 11 0
BBX 9 12 1 0
BITMAP
3E00
0000
3E00
6300
4100
C180
C180
C180
C180
4100
6300
3E00
ENDCHAR
STARTCHAR Otilde
ENCODING 213
SWIDTH 768 0
DWIDTH 11 0
BBX 9 12 1 0
BITMAP
3900
0600
3E00
6300
4100
C180
C180
C180
C180
4100
6300
3E00
ENDCHAR
STARTCHAR Odieresis
ENCODING 214
SWIDTH 768 0
DWIDTH 11 0
BBX 9 12 1 0
BITMAP
3600
3600
3E00
6300
4100
C180
C180
C180
C180
4100
6300
3E00
ENDCHAR
STARTCHAR multiply
ENCODING 215
SWIDTH 600 0
DWIDTH 8 0
BBX 6 6 1 0
BITMAP
84
48
30
30
48
84
ENDCHAR
STARTCHAR Oslash
ENCODING 216
SWIDTH 768 0
DWIDTH 11 0
BBX 9 11 1 -1
BITMAP
3D00
6300
4300
C580
C980
C980
D180
E100
6300
7E00
4000
ENDCHAR
STARTCHAR Ugrave
ENCODING 217
SWIDTH 786 0
DWIDTH 11 0
BBX 9 13 1 0
BITMAP
2000
3C00
0000
F780
6300
6300
6300
6300
6300
6300
6300
2200
1C00
ENDCHAR
STARTCHAR Uacute
ENCODING 218
SWIDTH 786 0
DWIDTH 11 0
BBX 9 13 1 0
BITMAP
0200
1E00
0000
F780
6300
6300
6300
6300
6300
6300
6300
2200
1C00
ENDCHAR
STARTCHAR Ucircumflex
ENCODING 219
SWIDTH 786 0
DWIDTH 11 0
BBX 9 12 1 0
BITMAP
3E00
0000
F780
6300
6300
6300
6300
6300
6300
6300
2200
1C00
ENDCHAR
STARTCHAR Udieresis
ENCODING 220
SWIDTH 786 0
DWIDTH 11 0
BBX 9 12 1 0
BITMAP
3600
3600
F780
6300
6300
6300
6300
6300
6300
6300
2200
1C00
ENDCHAR
STARTCHAR Yacute
ENCODING 221
SWIDTH 617 0
DWIDTH 9 0
BBX 9 13 0 0
BITMAP
0600
1E00
0000
F780
6100
6200
3600
3400
1800
1800
1800
1800
3E00
ENDCHAR
STARTCHAR Thorn
ENCODING 222
SWIDTH 640 0
DWIDTH 9 0
BBX 7 10 1 0
BITMAP
F0
60
7C
66
66
66
66
7C
60
F0
ENDCHAR
STARTCHAR germandbls
ENCODING 223
SWIDTH 662 0
DWIDTH 9 0
BBX 9 10 0 0
BITMAP
1E00
2300
6300
6C00
6C00
6F00
6780
6180
6D80
E700
ENDCHAR
STARTCHAR agrave
ENCODING 224
SWIDTH 544 0
DWIDTH 8 0
BBX 7 10 1 0
BITMAP
60
38
00
78
CC
0C
7C
CC
CC
7E
ENDCHAR
STARTCHAR aacute
ENCODING 225
SWIDTH 544 0
DWIDTH 8 0
BBX 7 10 1 0
BITMAP
0C
38
00
78
CC
0C
7C
CC
CC
7E
ENDCHAR
STARTCHAR acircumflex
ENCODING 226
SWIDTH 544 0
DWIDTH 8 0
BBX 7 11 1 0
BITMAP
10
38
48
00
78
CC
0C
7C
CC
CC
7E
ENDCHAR
STARTCHAR atilde
ENCODING 227
SWIDTH 544 0
DWIDTH 8 0
BBX 7 10 1 0
BITMAP
64
9C
00
78
CC
0C
7C
CC
CC
7E
ENDCHAR
STARTCHAR adieresis
ENCODING 228
SWIDTH 544 0
DWIDTH 8 0
BBX 7 10 1 0
BITMAP
CC
CC
00
78
CC
0C
7C
CC
CC
7E
ENDCHAR
STARTCHAR aring
ENCODING 229
SWIDTH 544 0
DWIDTH 8 0
BBX 7 11 1 0
BITMAP
20
50
50
20
78
CC
8C
3C
CC
CC
7E
ENDCHAR
STARTCHAR ae
ENCODING 230
SWIDTH 806 0
DWIDTH 11 0
BBX 10 7 1 0
BITMAP
7B80
CCC0
0CC0
3FC0
CC00
CC40
7780
ENDCHAR
STARTCHAR ccedilla
ENCODING 231
SWIDTH 494 0
DWIDTH 7 0
BBX 6 11 1 -4
BITMAP
38
48
C8
C0
C0
EC
70
20
30
10
30
ENDCHAR
STARTCHAR egrave
ENCODING 232
SWIDTH 519 0
DWIDTH 7 0
BBX 6 10 1 0
BITMAP
60
20
00
38
4C
CC
FC
C0
C4
78
ENDCHAR
STARTCHAR eacute
ENCODING 233
SWIDTH 519 0
DWIDTH 7 0
BBX 6 10 1 0
BITMAP
08
38
00
38
4C
CC
FC
C0
C4
78
ENDCHAR
STARTCHAR ecircumflex
ENCODING 234
SWIDTH 519 0
DWIDTH 7 0
BBX 6 11 1 0
BITMAP
10
30
4C
00
38
4C
CC
FC
C0
C4
78
ENDCHAR
STARTCHAR edieresis
ENCODING 235
SWIDTH 519 0
DWIDTH 7 0
BBX 6 10 1 0
BITMAP
D8
D8
00
38
4C
CC
FC
C0
CC
78
ENDCHAR
STARTCHAR igrave
ENCODING 236
SWIDTH 316 0
DWIDTH 4 0
BBX 4 10 0 0
BITMAP
80
60
00
20
E0
60
60
60
60
F0
ENDCHAR
STARTCHAR iacute
ENCODING 237
SWIDTH 316 0
DWIDTH 4 0
BBX 4 10 0 0
BITMAP
30
60
40
00
E0
60
60
60
60
F0
ENDCHAR
STARTCHAR icircumflex
ENCODING 238
SWIDTH 316 0
DWIDTH 4 0
BBX 6 11 -1 0
BITMAP
20
30
48
84
10
70
30
30
30
30
78
ENDCHAR
STARTCHAR idieresis
ENCODING 239
SWIDTH 316 0
DWIDTH 4 0
BBX 5 10 0 0
BITMAP
D8
D8
00
20
E0
60
60
60
60
F0
ENDCHAR
STARTCHAR eth
ENCODING 240
SWIDTH 585 0
DWIDTH 8 0
BBX 7 10 1 0
BITMAP
40
2C
58
3C
46
C6
C6
C6
44
38
ENDCHAR
STARTCHAR ntilde
ENCODING 241
SWIDTH 638 0
DWIDTH 9 0
BBX 9 10 0 0
BITMAP
1900
2600
0000
3E00
E300
6300
6300
6300
6300
F780
ENDCHAR
STARTCHAR ograve
ENCODING 242
SWIDTH 585 0
DWIDTH 8 0
BBX 7 10 1 0
BITMAP
60
38
00
38
44
C6
C6
C6
44
38
ENDCHAR
STARTCHAR oacute
ENCODING 243
SWIDTH 585 0
DWIDTH 8 0
BBX 7 10 1 0
BITMAP
0C
38
00
38
44
C6
C6
C6
44
38
ENDCHAR
STARTCHAR ocircumflex
ENCODING 244
SWIDTH 585 0
DWIDTH 8 0
BBX 7 11 1 0
BITMAP
10
38
6C
00
38
44
C6
C6
C6
44
38
ENDCHAR
STARTCHAR otilde
ENCODING 245
SWIDTH 585 0
DWIDTH 8 0
BBX 7 10 1 0
BITMAP
72
4C
00
38
44
C6
C6
C6
44
38
ENDCHAR
STARTCHAR odieresis
ENCODING 246
SWIDTH 585 0
DWIDTH 8 0
BBX 7 10 1 0
BITMAP
CC
CC
00
38
44
C6
C6
C6
44
38
ENDCHAR
STARTCHAR divide
ENCODING 247
SWIDTH 600 0
DWIDTH 8 0
BBX 6 7 1 0
BITMAP
30
30
00
FC
00
30
30
ENDCHAR
STARTCHAR oslash
ENCODING 248
SWIDTH 585 0
DWIDTH 8 0
BBX 7 7 1 0
BITMAP
3C
44
CE
D6
E6
44
78
ENDCHAR
STARTCHAR ugrave
ENCODING 249
SWIDTH 629 0
DWIDTH 9 0
BBX 9 10 0 0
BITMAP
6000
3000
0800
2300
E700
6300
6300
6300
6300
3F80
ENDCHAR
STARTCHAR uacute
ENCODING 250
SWIDTH 629 0
DWIDTH 9 0
BBX 9 10 0 0
BITMAP
0600
1C00
0000
2300
E700
6300
6300
6300
6300
3F80
ENDCHAR
STARTCHAR ucircumflex
ENCODING 251
SWIDTH 629 0
DWIDTH 9 0
BBX 9 11 0 0
BITMAP
0800
1800
6600
0000
2300
E700
6300
6300
6300
6300
3F80
ENDCHAR
STARTCHAR udieresis
ENCODING 252
SWIDTH 629 0
DWIDTH 9 0
BBX 9 10 0 0
BITMAP
3600
3600
0000
2300
E700
6300
6300
6300
6300
3F80
ENDCHAR
STARTCHAR yacute
ENCODING 253
SWIDTH 524 0
DWIDTH 7 0
BBX 8 13 0 -3
BITMAP
06
1C
00
F7
62
66
34
34
18
18
10
50
60
ENDCHAR
STARTCHAR thorn
ENCODING 254
SWIDTH 609 0
DWIDTH 8 0
BBX 8 13 0 -3
BITMAP
E0
60
60
7E
63
63
63
63
62
7C
60
60
F0
ENDCHAR
STARTCHAR ydieresis
ENCODING 255
SWIDTH 524 0
DWIDTH 7 0
BBX 8 13 0 -3
BITMAP
66
66
00
F7
62
62
34
34
38
18
10
50
60
ENDCHAR
ENDFONT
