STARTFONT 2.1
COMMENT AUTOMATICALLY GENERATED FILE. DO NOT EDIT!
COMMENT Generated with 'ucs2any.pl UTBI__18.bdf ../../../fonts/util/map-ISO8859-1 ISO8859-1'
COMMENT from an ISO10646-1 encoded source BDF font.
COMMENT ucs2any.pl by Markus Kuhn <mkuhn@acm.org>, 2000.
FONT -Adobe-Utopia-Bold-I-Normal--25-180-100-100-P-139-ISO8859-1
SIZE 18 100 100
FONTBOUNDINGBOX 29 29 -2 -6
COMMENT $Xorg: $
COMMENT ISO10646-1 extension by Markus Kuhn <mkuhn@acm.org>, 2001-03-20
STARTPROPERTIES 28
FOUNDRY "Adobe"
FAMILY_NAME "Utopia"
WEIGHT_NAME "Bold"
SLANT "I"
SETWIDTH_NAME "Normal"
ADD_STYLE_NAME ""
PIXEL_SIZE 25
POINT_SIZE 180
RESOLUTION_X 100
RESOLUTION_Y 100
SPACING "P"
AVERAGE_WIDTH 139
CHARSET_REGISTRY "ISO8859"
CHARSET_ENCODING "1"
CAP_HEIGHT 17
X_HEIGHT 12
RELATIVE_SETWIDTH 50
RELATIVE_WEIGHT 70
WEIGHT 208
FACE_NAME "Utopia Bold Italic"
COPYRIGHT "Copyright (c) 1989, 1991 Adobe Systems Incorporated.  All Rights Reserved."
NOTICE "Utopia is a registered trademark of Adobe Systems Incorporated."
DESTINATION 0
FONT_ASCENT 23
FONT_DESCENT 6
DEFAULT_CHAR 0
_ADOBE_PSFONT "Utopia-BoldItalic"
_DEC_DEVICE_FONTNAMES "PS=Utopia-BoldItalic"
ENDPROPERTIES
CHARS 192
STARTCHAR defaultchar
ENCODING 0
SWIDTH 800 0
DWIDTH 20 0
BBX 21 17 1 0
BITMAP
AAAAA8
000000
800008
000000
800008
000000
800008
000000
800008
000000
800008
000000
800008
000000
800008
000000
AAAAA8
ENDCHAR
STARTCHAR space
ENCODING 32
SWIDTH 210 0
DWIDTH 5 0
BBX 0 0 0 0
BITMAP
ENDCHAR
STARTCHAR exclam
ENCODING 33
SWIDTH 285 0
DWIDTH 7 0
BBX 8 18 2 0
BITMAP
07
0F
1E
1E
1E
1C
1C
1C
18
18
18
10
20
00
70
F8
F0
60
ENDCHAR
STARTCHAR quotedbl
ENCODING 34
SWIDTH 455 0
DWIDTH 11 0
BBX 9 7 4 11
BITMAP
7380
F780
E700
E700
C600
C600
8600
ENDCHAR
STARTCHAR numbersign
ENCODING 35
SWIDTH 560 0
DWIDTH 14 0
BBX 14 18 2 -1
BITMAP
0318
0318
0330
0630
0620
3FFC
3FF8
0C40
0CC0
18C0
7FF0
FFF0
3180
3180
3300
6300
6300
0400
ENDCHAR
STARTCHAR dollar
ENCODING 36
SWIDTH 560 0
DWIDTH 14 0
BBX 14 22 2 -3
BITMAP
0040
00C0
07E0
0CB8
199C
3998
3900
3F00
1F80
1FC0
07E0
03F0
02F0
0670
6670
E670
F460
74C0
1F80
0C00
0C00
0800
ENDCHAR
STARTCHAR percent
ENCODING 37
SWIDTH 896 0
DWIDTH 22 0
BBX 20 18 3 0
BITMAP
000080
1F00C0
39FF80
71C300
61C600
E1CC00
E18C00
E39800
673000
3C67C0
00CE60
019C70
019870
033870
063860
0C38E0
1819C0
100F00
ENDCHAR
STARTCHAR ampersand
ENCODING 38
SWIDTH 752 0
DWIDTH 19 0
BBX 18 17 2 0
BITMAP
01C000
073000
063800
0E3800
0E3000
0F7180
0FC3C0
078380
1F8380
73C700
73E600
F1FC00
F0F800
F07C00
787E00
3FDF00
1F0380
ENDCHAR
STARTCHAR quotesingle
ENCODING 39
SWIDTH 246 0
DWIDTH 6 0
BBX 4 8 4 10
BITMAP
70
70
E0
E0
E0
C0
C0
80
ENDCHAR
STARTCHAR parenleft
ENCODING 40
SWIDTH 350 0
DWIDTH 9 0
BBX 8 21 3 -3
BITMAP
03
0E
1C
38
38
30
70
60
60
60
E0
C0
C0
C0
C0
C0
C0
C0
40
60
30
ENDCHAR
STARTCHAR parenright
ENCODING 41
SWIDTH 350 0
DWIDTH 9 0
BBX 8 21 1 -3
BITMAP
0C
06
06
02
03
03
03
03
03
03
03
06
06
06
0E
0C
1C
1C
38
70
C0
ENDCHAR
STARTCHAR asterisk
ENCODING 42
SWIDTH 500 0
DWIDTH 12 0
BBX 10 10 4 8
BITMAP
0600
0600
64C0
75C0
0E00
3E00
EB80
C980
1800
1800
ENDCHAR
STARTCHAR plus
ENCODING 43
SWIDTH 600 0
DWIDTH 15 0
BBX 12 13 3 0
BITMAP
0600
0600
0600
0600
0600
0600
FFF0
FFF0
0600
0600
0600
0600
0600
ENDCHAR
STARTCHAR comma
ENCODING 44
SWIDTH 280 0
DWIDTH 7 0
BBX 5 9 1 -4
BITMAP
30
78
78
78
30
70
60
C0
80
ENDCHAR
STARTCHAR hyphen
ENCODING 45
SWIDTH 392 0
DWIDTH 10 0
BBX 7 2 3 5
BITMAP
FE
FE
ENDCHAR
STARTCHAR period
ENCODING 46
SWIDTH 280 0
DWIDTH 7 0
BBX 4 4 2 0
BITMAP
60
F0
F0
60
ENDCHAR
STARTCHAR slash
ENCODING 47
SWIDTH 260 0
DWIDTH 6 0
BBX 10 18 0 0
BITMAP
01C0
0180
0380
0300
0300
0700
0600
0E00
0C00
0C00
1C00
1800
3800
3000
3000
7000
6000
E000
ENDCHAR
STARTCHAR zero
ENCODING 48
SWIDTH 560 0
DWIDTH 14 0
BBX 14 17 2 0
BITMAP
03E0
0E30
1E38
3C3C
3C3C
783C
783C
787C
F87C
F078
F078
F078
F0F0
F0F0
71E0
31C0
1F00
ENDCHAR
STARTCHAR one
ENCODING 49
SWIDTH 560 0
DWIDTH 14 0
BBX 10 17 3 0
BITMAP
00C0
0FC0
1780
0380
0780
0780
0780
0700
0700
0F00
0F00
0E00
0E00
1E00
1E00
1E00
FF80
ENDCHAR
STARTCHAR two
ENCODING 50
SWIDTH 560 0
DWIDTH 14 0
BBX 14 17 1 0
BITMAP
03E0
0E38
1E3C
1C3C
1C3C
007C
0078
00F8
01F0
03C0
0700
1C00
3800
7018
FFF0
FFF0
FFE0
ENDCHAR
STARTCHAR three
ENCODING 51
SWIDTH 560 0
DWIDTH 14 0
BBX 14 17 1 0
BITMAP
03E0
0E38
1E3C
1C3C
083C
0078
00F0
0FC0
00F0
0070
0078
0078
6078
F078
70F0
79E0
1F80
ENDCHAR
STARTCHAR four
ENCODING 52
SWIDTH 560 0
DWIDTH 14 0
BBX 13 17 2 0
BITMAP
0038
0078
00F0
01F0
0370
02F0
06F0
0CE0
18E0
30E0
61E0
7FF8
FFF8
01C0
03C0
03C0
0FE0
ENDCHAR
STARTCHAR five
ENCODING 53
SWIDTH 560 0
DWIDTH 14 0
BBX 15 17 1 0
BITMAP
0FFE
0FFC
0FF8
0800
1800
1800
13C0
1FF0
18F0
0078
0078
0078
6078
7070
F0F0
79E0
1F80
ENDCHAR
STARTCHAR six
ENCODING 54
SWIDTH 560 0
DWIDTH 14 0
BBX 14 17 2 0
BITMAP
03F0
0F38
1E1C
3C1C
3C00
7C00
79C0
7FF0
78F0
F878
F078
F078
F078
F0F0
70F0
39E0
1F80
ENDCHAR
STARTCHAR seven
ENCODING 55
SWIDTH 560 0
DWIDTH 14 0
BBX 13 17 4 0
BITMAP
7FF8
7FF0
7FF0
8060
0040
00C0
0180
0300
0600
0E00
1C00
3C00
3800
7800
7800
7800
3000
ENDCHAR
STARTCHAR eight
ENCODING 56
SWIDTH 560 0
DWIDTH 14 0
BBX 14 17 2 0
BITMAP
07E0
1E38
1E38
3C3C
3C3C
3C3C
1C78
1C70
0FC0
3CF0
7870
F078
F078
F0F8
F0F0
79E0
1F80
ENDCHAR
STARTCHAR nine
ENCODING 57
SWIDTH 560 0
DWIDTH 14 0
BBX 13 17 2 0
BITMAP
07C0
1CE0
3C70
3870
7878
7878
7878
7878
3CF8
3F70
0EF0
00F0
00E0
E0E0
E1C0
7380
1E00
ENDCHAR
STARTCHAR colon
ENCODING 58
SWIDTH 280 0
DWIDTH 7 0
BBX 6 13 2 0
BITMAP
18
3C
3C
38
10
00
00
00
20
70
F0
F0
60
ENDCHAR
STARTCHAR semicolon
ENCODING 59
SWIDTH 280 0
DWIDTH 7 0
BBX 7 16 1 -3
BITMAP
0C
1E
1E
1C
00
00
00
30
78
78
78
30
70
60
C0
80
ENDCHAR
STARTCHAR less
ENCODING 60
SWIDTH 600 0
DWIDTH 15 0
BBX 12 13 2 0
BITMAP
0010
0070
01F0
0FC0
3F00
F800
E000
F800
3E00
07C0
01F0
0070
0010
ENDCHAR
STARTCHAR equal
ENCODING 61
SWIDTH 600 0
DWIDTH 15 0
BBX 12 7 3 3
BITMAP
FFF0
FFF0
0000
0000
0000
FFF0
FFF0
ENDCHAR
STARTCHAR greater
ENCODING 62
SWIDTH 600 0
DWIDTH 15 0
BBX 12 13 3 0
BITMAP
8000
E000
F800
3F00
0FC0
01F0
0070
01F0
07C0
3E00
F800
E000
8000
ENDCHAR
STARTCHAR question
ENCODING 63
SWIDTH 454 0
DWIDTH 11 0
BBX 10 18 4 0
BITMAP
3E00
7380
F3C0
E3C0
47C0
0780
1F00
3C00
7800
F000
F000
7C00
3000
0000
7000
F800
F000
6000
ENDCHAR
STARTCHAR at
ENCODING 64
SWIDTH 828 0
DWIDTH 21 0
BBX 19 18 3 0
BITMAP
00FC00
038300
0E0180
1C00C0
387EC0
70EE60
71CE60
638E60
639E60
E39C60
E72C40
E73CC0
675D80
738E00
700000
380000
0E0600
03F800
ENDCHAR
STARTCHAR A
ENCODING 65
SWIDTH 634 0
DWIDTH 16 0
BBX 17 18 0 0
BITMAP
001C00
003C00
003C00
007C00
007C00
00DC00
009C00
019C00
011C00
031E00
021E00
07FE00
0C1E00
0C1E00
181E00
181E00
301E00
FC7F80
ENDCHAR
STARTCHAR B
ENCODING 66
SWIDTH 680 0
DWIDTH 17 0
BBX 17 18 1 0
BITMAP
0FFC00
078F00
078780
078780
078780
078780
0F0F00
0F1E00
0FF800
0F1800
0E0E00
1E0F00
1E0F00
1E0F00
1E0F00
1C1E00
3C3E00
FFF800
ENDCHAR
STARTCHAR C
ENCODING 67
SWIDTH 672 0
DWIDTH 17 0
BBX 16 18 3 0
BITMAP
01FC
0707
1E07
3C02
3C02
7802
7800
F800
F000
F000
F000
F000
F004
700C
700C
7818
1C38
07E0
ENDCHAR
STARTCHAR D
ENCODING 68
SWIDTH 774 0
DWIDTH 19 0
BBX 19 18 1 0
BITMAP
1FFC00
078780
078380
0781C0
0701C0
0F01E0
0F01E0
0F01E0
0F01E0
1E01E0
1E03C0
1E03C0
1E03C0
1E0780
3C0780
3C0F00
3C3C00
FFF000
ENDCHAR
STARTCHAR E
ENCODING 69
SWIDTH 622 0
DWIDTH 16 0
BBX 17 18 1 0
BITMAP
1FFF80
078380
078180
078100
078100
070000
0F0400
0F0C00
0FF800
0F1800
0E0800
1E0000
1E0000
1E0200
1E0600
3C0C00
3C1C00
FFFC00
ENDCHAR
STARTCHAR F
ENCODING 70
SWIDTH 585 0
DWIDTH 15 0
BBX 17 18 1 0
BITMAP
1FFF80
078300
078300
078100
070000
0F0000
0F0400
0F0400
0F0C00
1FF800
1E0800
1E0800
1E0000
1C0000
3C0000
3C0000
3C0000
FF0000
ENDCHAR
STARTCHAR G
ENCODING 71
SWIDTH 726 0
DWIDTH 18 0
BBX 17 18 3 0
BITMAP
01FC00
070700
1E0300
3C0300
3C0300
780200
780000
780000
F00000
F00000
F07F80
F01E00
F01E00
F03C00
703C00
383C00
3C7C00
0FE000
ENDCHAR
STARTCHAR H
ENCODING 72
SWIDTH 800 0
DWIDTH 20 0
BBX 22 18 1 0
BITMAP
0FF3FC
0780F0
0780E0
0781E0
0781E0
0781E0
0F01E0
0F01C0
0FFFC0
0F03C0
0E03C0
1E03C0
1E0780
1E0780
1E0780
1C0780
3C0780
FF3FC0
ENDCHAR
STARTCHAR I
ENCODING 73
SWIDTH 386 0
DWIDTH 10 0
BBX 12 18 1 0
BITMAP
0FF0
03C0
0780
0780
0780
0780
0700
0F00
0F00
0F00
0F00
0E00
1E00
1E00
1E00
1E00
3C00
FF00
ENDCHAR
STARTCHAR J
ENCODING 74
SWIDTH 388 0
DWIDTH 10 0
BBX 13 21 0 -3
BITMAP
07F8
01E0
01E0
01C0
03C0
03C0
03C0
0380
0780
0780
0780
0780
0700
0F00
0F00
0F00
0E00
1E00
1E00
3C00
F000
ENDCHAR
STARTCHAR K
ENCODING 75
SWIDTH 688 0
DWIDTH 17 0
BBX 20 18 1 0
BITMAP
1FF3F0
0781C0
078300
078600
078C00
071800
0F3000
0F6000
0FE000
0EF000
0EF000
1EF800
1E7800
1E7C00
1C3C00
3C3E00
3C1F00
FF0380
ENDCHAR
STARTCHAR L
ENCODING 76
SWIDTH 586 0
DWIDTH 15 0
BBX 15 18 1 0
BITMAP
0FF0
07C0
0780
0780
0780
0780
0F00
0F00
0F00
0F00
0F00
1E00
1E00
1E02
1E04
3E0C
3E1C
FFFC
ENDCHAR
STARTCHAR M
ENCODING 77
SWIDTH 921 0
DWIDTH 23 0
BBX 25 18 1 0
BITMAP
1FC03F80
07C03E00
07C07C00
05C05C00
05C0FC00
0DC0BC00
0DE1BC00
09E13800
09E27800
08E67800
18E47800
18EC7000
10F87000
10F8F000
30F0F000
30F0F000
3060F000
FC63F800
ENDCHAR
STARTCHAR N
ENCODING 78
SWIDTH 741 0
DWIDTH 19 0
BBX 21 18 1 0
BITMAP
0F81F8
07C060
07C060
07E040
05E0C0
04E0C0
0CF0C0
0CF080
0C7880
087980
083980
183D80
183D00
181F00
101F00
300F00
300E00
FC0E00
ENDCHAR
STARTCHAR O
ENCODING 79
SWIDTH 761 0
DWIDTH 19 0
BBX 17 18 3 0
BITMAP
01F800
0F0E00
1E0600
3E0700
3C0780
780780
780780
780780
F80780
F00F80
F00F00
F00F00
F00F00
F01E00
703E00
383C00
187800
0FE000
ENDCHAR
STARTCHAR P
ENCODING 80
SWIDTH 660 0
DWIDTH 16 0
BBX 17 18 1 0
BITMAP
1FFC00
078F00
078700
078780
070780
0F0780
0F0780
0F0F00
0F0F00
0F1E00
1FF000
1E0000
1E0000
1E0000
3C0000
3C0000
3C0000
FF0000
ENDCHAR
STARTCHAR Q
ENCODING 81
SWIDTH 761 0
DWIDTH 19 0
BBX 17 23 3 -5
BITMAP
01F800
0F0E00
1E0700
3E0700
3C0780
780780
780780
780780
F80780
F00F80
F00F00
F00F00
F00F00
F01E00
703E00
783C00
1CF800
0FE000
03C000
03E000
01F000
00F800
003E00
ENDCHAR
STARTCHAR R
ENCODING 82
SWIDTH 681 0
DWIDTH 17 0
BBX 17 18 1 0
BITMAP
1FFC00
078F00
078780
078780
070780
0F0780
0F0F00
0F0F00
0F1E00
1FF000
1E1C00
1E1E00
1E1E00
1C1E00
3C1E00
3C1E00
3C0F00
FF0F80
ENDCHAR
STARTCHAR S
ENCODING 83
SWIDTH 551 0
DWIDTH 14 0
BBX 13 18 2 0
BITMAP
03E0
0E38
1C30
3C10
3C10
3C00
3E00
1F80
0FC0
03E0
01E0
01F0
C0F0
C0F0
C0E0
E0E0
71C0
1F00
ENDCHAR
STARTCHAR T
ENCODING 84
SWIDTH 616 0
DWIDTH 15 0
BBX 16 18 3 0
BITMAP
7FFF
63C7
43C2
C3C2
83C2
0780
0780
0780
0780
0700
0F00
0F00
0F00
0F00
0E00
1E00
1E00
7F80
ENDCHAR
STARTCHAR U
ENCODING 85
SWIDTH 776 0
DWIDTH 19 0
BBX 19 18 4 0
BITMAP
7F9FE0
3C0780
3C0700
3C0F00
3C0F00
380F00
780F00
780E00
781E00
781E00
701E00
F01C00
F03C00
F03C00
F03800
707800
78F000
1FC000
ENDCHAR
STARTCHAR V
ENCODING 86
SWIDTH 630 0
DWIDTH 16 0
BBX 17 18 3 0
BITMAP
FE1F80
780600
380C00
380C00
3C1800
3C1800
3C3000
3C3000
3C6000
3C6000
1CC000
1C8000
1D8000
1D0000
1F0000
1E0000
1E0000
1C0000
ENDCHAR
STARTCHAR W
ENCODING 87
SWIDTH 920 0
DWIDTH 23 0
BBX 24 18 3 0
BITMAP
FF003F
7C0E0C
3C1E0C
3C1E18
3C3E18
3C3E10
3C7E30
3C5E20
3C5E60
3C8E60
3C8E40
3D0EC0
3D0E80
3F0F80
3E0F00
3E0F00
3C0E00
3C0E00
ENDCHAR
STARTCHAR X
ENCODING 88
SWIDTH 630 0
DWIDTH 16 0
BBX 20 18 -1 0
BITMAP
0FF3F0
07C1C0
03C380
03C300
01E600
01EC00
00F800
00F000
00F000
00F800
00F800
01F800
033C00
063C00
0C1E00
1C1E00
381F00
FE7F80
ENDCHAR
STARTCHAR Y
ENCODING 89
SWIDTH 622 0
DWIDTH 16 0
BBX 17 18 3 0
BITMAP
FF3F80
3C0E00
3C0C00
3C1800
1C3800
1E3000
1E6000
1E4000
0EC000
0F8000
0F0000
0F0000
0F0000
0F0000
1E0000
1E0000
1E0000
FF8000
ENDCHAR
STARTCHAR Z
ENCODING 90
SWIDTH 618 0
DWIDTH 15 0
BBX 19 18 0 0
BITMAP
07FFE0
0607C0
040F80
0C1F80
081F00
003E00
007C00
00F800
01F000
01F000
03E000
07C000
0F8000
1F0100
1E0300
3E0300
7C0600
FFFE00
ENDCHAR
STARTCHAR bracketleft
ENCODING 91
SWIDTH 350 0
DWIDTH 9 0
BBX 9 21 2 -3
BITMAP
0F80
0E00
0C00
0C00
0C00
1C00
1800
1800
1800
3800
3800
3000
3000
3000
7000
7000
6000
6000
6000
E000
F800
ENDCHAR
STARTCHAR backslash
ENCODING 92
SWIDTH 460 0
DWIDTH 11 0
BBX 8 18 4 0
BITMAP
E0
60
60
70
70
30
38
38
18
18
1C
1C
0C
0E
0E
06
06
07
ENDCHAR
STARTCHAR bracketright
ENCODING 93
SWIDTH 350 0
DWIDTH 9 0
BBX 9 21 0 -3
BITMAP
0F80
0380
0300
0300
0300
0700
0700
0600
0600
0600
0E00
0E00
0C00
0C00
0C00
1C00
1800
1800
1800
3800
F800
ENDCHAR
STARTCHAR asciicircum
ENCODING 94
SWIDTH 600 0
DWIDTH 15 0
BBX 12 11 3 6
BITMAP
0600
0F00
0F00
1F80
1980
1980
39C0
30C0
70E0
6060
E070
ENDCHAR
STARTCHAR underscore
ENCODING 95
SWIDTH 500 0
DWIDTH 12 0
BBX 12 1 0 -3
BITMAP
FFF0
ENDCHAR
STARTCHAR grave
ENCODING 96
SWIDTH 400 0
DWIDTH 10 0
BBX 7 6 3 13
BITMAP
40
E0
70
38
0C
02
ENDCHAR
STARTCHAR a
ENCODING 97
SWIDTH 596 0
DWIDTH 15 0
BBX 15 13 1 0
BITMAP
03DC
073C
1E3C
3C38
3878
7878
78F8
70F0
F170
F1F2
F2F4
FCF8
7070
ENDCHAR
STARTCHAR b
ENCODING 98
SWIDTH 586 0
DWIDTH 15 0
BBX 14 19 2 0
BITMAP
0700
3E00
0E00
1E00
1E00
1C00
1C78
1CF8
3D3C
3A3C
3C3C
3C3C
7878
7878
7870
78F0
F0E0
F9C0
DF00
ENDCHAR
STARTCHAR c
ENCODING 99
SWIDTH 456 0
DWIDTH 11 0
BBX 11 13 2 0
BITMAP
03C0
0CE0
38E0
38C0
7800
7000
F000
F000
F040
F080
F180
7F00
3800
ENDCHAR
STARTCHAR d
ENCODING 100
SWIDTH 609 0
DWIDTH 15 0
BBX 16 19 2 0
BITMAP
0007
003E
001E
001E
001E
001C
03DC
0F3C
1C3C
3C38
3878
7878
78F8
F0F0
F170
F172
F2F4
7CF8
7870
ENDCHAR
STARTCHAR e
ENCODING 101
SWIDTH 476 0
DWIDTH 12 0
BBX 11 13 2 0
BITMAP
0380
0CE0
38E0
38E0
79C0
73C0
FF00
F800
F040
F080
F180
7F00
1800
ENDCHAR
STARTCHAR f
ENCODING 102
SWIDTH 348 0
DWIDTH 9 0
BBX 17 25 -2 -6
BITMAP
001E00
007380
007380
00F000
00E000
00E000
07FC00
01E000
01E000
01C000
01C000
03C000
03C000
038000
038000
038000
078000
078000
070000
070000
070000
0E0000
CE0000
EC0000
780000
ENDCHAR
STARTCHAR g
ENCODING 103
SWIDTH 522 0
DWIDTH 13 0
BBX 16 19 0 -6
BITMAP
03E7
0F3E
0F38
1E3C
1E3C
1E3C
1E38
0E70
0FC0
3C00
3F00
1FE0
0FF0
78F8
F038
F038
F038
7870
0FC0
ENDCHAR
STARTCHAR h
ENCODING 104
SWIDTH 629 0
DWIDTH 16 0
BBX 15 19 2 0
BITMAP
0700
3F00
0E00
0E00
1E00
1E00
1C38
1CFC
1D3C
3D3C
3A38
3C38
3C78
7878
7870
78F2
70F4
70F8
F070
ENDCHAR
STARTCHAR i
ENCODING 105
SWIDTH 339 0
DWIDTH 8 0
BBX 8 18 2 0
BITMAP
06
0F
0F
06
00
0E
FC
3C
3C
38
38
78
78
70
72
F4
F8
70
ENDCHAR
STARTCHAR j
ENCODING 106
SWIDTH 333 0
DWIDTH 8 0
BBX 12 24 -2 -6
BITMAP
0060
00F0
00F0
00E0
0000
0060
07E0
01E0
01E0
01C0
01C0
01C0
03C0
03C0
0380
0380
0780
0780
0700
0700
0700
4E00
EE00
7800
ENDCHAR
STARTCHAR k
ENCODING 107
SWIDTH 570 0
DWIDTH 14 0
BBX 14 19 2 0
BITMAP
0700
3E00
0E00
0E00
1E00
1E00
1C18
1C7C
3C9C
3D08
3900
3B00
3F80
7F80
7B80
73C8
73C8
F1F0
F0C0
ENDCHAR
STARTCHAR l
ENCODING 108
SWIDTH 327 0
DWIDTH 8 0
BBX 8 19 2 0
BITMAP
07
3E
0E
1E
1E
1C
1C
3C
3C
38
38
78
78
70
70
F2
F4
F8
70
ENDCHAR
STARTCHAR m
ENCODING 109
SWIDTH 914 0
DWIDTH 23 0
BBX 22 13 2 0
BITMAP
0E3070
7CF9F8
1D3A78
1D3E78
3A3470
3C78F0
3C78F0
7870F0
7870E0
78F1E4
70E1E8
F0E1F0
F1E0E0
ENDCHAR
STARTCHAR n
ENCODING 110
SWIDTH 635 0
DWIDTH 16 0
BBX 15 13 2 0
BITMAP
0E38
7CFC
1D3C
3D3C
3A38
3C78
3C78
7878
7870
78F2
70F4
F0F8
F070
ENDCHAR
STARTCHAR o
ENCODING 111
SWIDTH 562 0
DWIDTH 14 0
BBX 13 13 2 0
BITMAP
03C0
1E70
3C70
3878
7878
7878
F8F8
F0F0
F0F0
F0E0
71E0
73C0
1E00
ENDCHAR
STARTCHAR p
ENCODING 112
SWIDTH 606 0
DWIDTH 15 0
BBX 15 19 1 -6
BITMAP
0E38
7E7C
1E9E
1D1E
1E1E
1E1E
3C3C
3C3C
3C38
3878
7870
78E0
7780
7000
7000
F000
F000
E000
E000
ENDCHAR
STARTCHAR q
ENCODING 113
SWIDTH 584 0
DWIDTH 15 0
BBX 14 19 2 -6
BITMAP
03EC
0F3C
1E3C
3C3C
3838
7878
7878
F0F8
F170
F170
F2F0
7CF0
78E0
00E0
01E0
01E0
01C0
01C0
0300
ENDCHAR
STARTCHAR r
ENCODING 114
SWIDTH 440 0
DWIDTH 11 0
BBX 11 13 2 0
BITMAP
1C60
7DE0
3DE0
3A40
3C00
3C00
3800
7800
7000
7000
7000
F000
E000
ENDCHAR
STARTCHAR s
ENCODING 115
SWIDTH 417 0
DWIDTH 10 0
BBX 10 13 1 0
BITMAP
0F00
19C0
39C0
3880
3C00
1E00
1F00
0F00
0780
E380
E380
F300
3E00
ENDCHAR
STARTCHAR t
ENCODING 116
SWIDTH 359 0
DWIDTH 9 0
BBX 9 17 2 0
BITMAP
0200
0600
1E00
1C00
FF80
3C00
3C00
3800
3800
7800
7800
7000
7200
F200
F400
F800
7000
ENDCHAR
STARTCHAR u
ENCODING 117
SWIDTH 634 0
DWIDTH 16 0
BBX 15 13 2 0
BITMAP
0E1C
FC1C
3C3C
3C3C
3878
7878
7878
78F8
7170
F172
F2F4
FCF8
7070
ENDCHAR
STARTCHAR v
ENCODING 118
SWIDTH 518 0
DWIDTH 13 0
BBX 11 13 3 0
BITMAP
1C40
F8E0
38E0
38E0
38C0
78C0
70C0
7180
7180
F300
F200
FC00
7800
ENDCHAR
STARTCHAR w
ENCODING 119
SWIDTH 795 0
DWIDTH 20 0
BBX 19 13 3 0
BITMAP
1C38C0
FC78E0
3C70E0
3870E0
3870C0
78F0C0
78F080
71E180
71E100
F2E200
F2E400
FCF800
707000
ENDCHAR
STARTCHAR x
ENCODING 120
SWIDTH 516 0
DWIDTH 13 0
BBX 15 13 0 0
BITMAP
011C
0F3E
1FBC
07C0
0780
0380
0380
03C0
05C4
45C8
F9C8
F9F0
60E0
ENDCHAR
STARTCHAR y
ENCODING 121
SWIDTH 489 0
DWIDTH 12 0
BBX 14 19 0 -6
BITMAP
020C
1E1C
7E1C
0E18
0E18
0E30
0F30
0F20
0F60
0740
07C0
0780
0700
0700
0600
4400
EC00
F800
7000
ENDCHAR
STARTCHAR z
ENCODING 122
SWIDTH 466 0
DWIDTH 12 0
BBX 14 13 0 0
BITMAP
1FFC
1FF8
30F0
21E0
0380
0300
0600
0C10
1810
3E30
7FE0
EFE0
C1C0
ENDCHAR
STARTCHAR braceleft
ENCODING 123
SWIDTH 340 0
DWIDTH 8 0
BBX 9 21 3 -3
BITMAP
0380
0600
0400
0C00
0C00
0C00
0C00
1C00
1800
1800
E000
3000
3800
3800
3000
7000
7000
6000
6000
6000
3800
ENDCHAR
STARTCHAR bar
ENCODING 124
SWIDTH 265 0
DWIDTH 7 0
BBX 3 18 4 0
BITMAP
E0
E0
E0
E0
E0
E0
E0
E0
E0
E0
E0
E0
E0
E0
E0
E0
E0
E0
ENDCHAR
STARTCHAR braceright
ENCODING 125
SWIDTH 340 0
DWIDTH 8 0
BBX 9 21 0 -3
BITMAP
0E00
0300
0300
0300
0700
0700
0600
0E00
0E00
0600
0380
0C00
0C00
1C00
1800
1800
1800
1800
3000
3000
E000
ENDCHAR
STARTCHAR asciitilde
ENCODING 126
SWIDTH 600 0
DWIDTH 15 0
BBX 13 5 2 4
BITMAP
0010
3F18
7FF0
C3E0
4000
ENDCHAR
STARTCHAR space
ENCODING 160
SWIDTH 210 0
DWIDTH 5 0
BBX 0 0 0 0
BITMAP
ENDCHAR
STARTCHAR exclamdown
ENCODING 161
SWIDTH 285 0
DWIDTH 7 0
BBX 8 18 0 -5
BITMAP
06
0F
1F
0E
00
04
08
18
18
18
38
38
38
78
78
78
F0
E0
ENDCHAR
STARTCHAR cent
ENCODING 162
SWIDTH 560 0
DWIDTH 14 0
BBX 13 18 3 -1
BITMAP
0080
0080
03E0
1DF8
3D38
3930
7900
7100
F300
F200
F200
F200
7220
7E40
1F80
0400
0400
0C00
ENDCHAR
STARTCHAR sterling
ENCODING 163
SWIDTH 560 0
DWIDTH 14 0
BBX 15 17 1 0
BITMAP
00F8
039C
071E
070E
0F00
0F00
0F00
0F00
0780
3FF0
0780
0780
0700
0E0C
7FF8
FFF8
FFF0
ENDCHAR
STARTCHAR currency
ENCODING 164
SWIDTH 560 0
DWIDTH 14 0
BBX 12 13 3 2
BITMAP
4020
CF30
FFF0
70E0
70E0
E070
E070
E070
70E0
70E0
FFF0
CF30
4020
ENDCHAR
STARTCHAR yen
ENCODING 165
SWIDTH 560 0
DWIDTH 14 0
BBX 15 17 3 0
BITMAP
7F7E
3C18
1C30
1C30
1E60
1E40
0EC0
0E80
7FF0
0E00
0E00
FFE0
1C00
3C00
3C00
3C00
FF00
ENDCHAR
STARTCHAR brokenbar
ENCODING 166
SWIDTH 265 0
DWIDTH 7 0
BBX 3 18 4 0
BITMAP
E0
E0
E0
E0
E0
E0
E0
00
00
00
E0
E0
E0
E0
E0
E0
E0
E0
ENDCHAR
STARTCHAR section
ENCODING 167
SWIDTH 568 0
DWIDTH 14 0
BBX 13 21 2 -3
BITMAP
01E0
0238
0638
0600
1F00
3780
27C0
63E0
61F0
7070
3838
3C38
1E18
0F10
0730
03E0
01C0
6180
E180
7100
1E00
ENDCHAR
STARTCHAR dieresis
ENCODING 168
SWIDTH 400 0
DWIDTH 10 0
BBX 10 4 3 14
BITMAP
6180
F3C0
F3C0
6180
ENDCHAR
STARTCHAR copyright
ENCODING 169
SWIDTH 824 0
DWIDTH 21 0
BBX 18 18 3 0
BITMAP
01E000
0FF800
1C0E00
380700
71E380
671980
460880
CE00C0
CE00C0
CE00C0
CE08C0
460880
671980
61E380
300700
1C0E00
0FF800
01E000
ENDCHAR
STARTCHAR ordfeminine
ENCODING 170
SWIDTH 444 0
DWIDTH 11 0
BBX 11 8 2 7
BITMAP
07E0
19C0
31C0
73C0
6380
E5A0
EBA0
73C0
ENDCHAR
STARTCHAR guillemotleft
ENCODING 171
SWIDTH 560 0
DWIDTH 14 0
BBX 11 11 3 1
BITMAP
0420
0840
18C0
3180
7380
E700
6700
7300
3180
1080
1080
ENDCHAR
STARTCHAR logicalnot
ENCODING 172
SWIDTH 600 0
DWIDTH 15 0
BBX 12 7 3 3
BITMAP
FFF0
FFF0
0030
0030
0030
0030
0030
ENDCHAR
STARTCHAR hyphen
ENCODING 173
SWIDTH 392 0
DWIDTH 10 0
BBX 7 2 3 5
BITMAP
FE
FE
ENDCHAR
STARTCHAR registered
ENCODING 174
SWIDTH 824 0
DWIDTH 21 0
BBX 18 18 3 0
BITMAP
01E000
0FF800
1C0E00
380700
37E300
633180
633880
C338C0
C330C0
C3E0C0
C370C0
C330C0
633980
779F80
300700
1C0E00
0FFC00
01E000
ENDCHAR
STARTCHAR macron
ENCODING 175
SWIDTH 400 0
DWIDTH 10 0
BBX 8 2 4 15
BITMAP
FF
FF
ENDCHAR
STARTCHAR degree
ENCODING 176
SWIDTH 375 0
DWIDTH 9 0
BBX 9 8 3 9
BITMAP
3E00
6300
C180
C180
C180
C180
6300
3E00
ENDCHAR
STARTCHAR plusminus
ENCODING 177
SWIDTH 600 0
DWIDTH 15 0
BBX 12 13 3 0
BITMAP
0600
0600
0600
0600
FFF0
FFF0
0600
0600
0600
0600
0000
FFF0
FFF0
ENDCHAR
STARTCHAR twosuperior
ENCODING 178
SWIDTH 402 0
DWIDTH 10 0
BBX 10 10 1 7
BITMAP
0700
1D80
39C0
11C0
0380
0700
0C00
3080
7F80
FF00
ENDCHAR
STARTCHAR threesuperior
ENCODING 179
SWIDTH 402 0
DWIDTH 10 0
BBX 8 10 3 7
BITMAP
3C
E7
47
0E
7C
06
07
C7
E6
38
ENDCHAR
STARTCHAR acute
ENCODING 180
SWIDTH 400 0
DWIDTH 10 0
BBX 7 6 5 13
BITMAP
04
0E
1C
38
60
80
ENDCHAR
STARTCHAR mu
ENCODING 181
SWIDTH 634 0
DWIDTH 16 0
BBX 16 19 1 -6
BITMAP
070E
3E0E
0E1E
0E1E
1E3C
1E3C
1C3C
1C7C
3CB8
3CB9
397A
3E7C
7C38
6000
6000
6000
E000
E000
C000
ENDCHAR
STARTCHAR paragraph
ENCODING 182
SWIDTH 580 0
DWIDTH 14 0
BBX 14 21 3 -3
BITMAP
077C
1E60
3E60
7E60
7EE0
FEC0
FCC0
FCC0
FCC0
7DC0
7980
1980
0180
0380
0380
0300
0300
0300
0700
0600
3E00
ENDCHAR
STARTCHAR periodcentered
ENCODING 183
SWIDTH 280 0
DWIDTH 7 0
BBX 4 4 3 4
BITMAP
60
F0
F0
60
ENDCHAR
STARTCHAR cedilla
ENCODING 184
SWIDTH 400 0
DWIDTH 10 0
BBX 5 7 3 -6
BITMAP
10
20
60
78
38
38
E0
ENDCHAR
STARTCHAR onesuperior
ENCODING 185
SWIDTH 402 0
DWIDTH 10 0
BBX 7 10 3 7
BITMAP
0E
3E
1C
1C
1C
1C
38
38
38
FC
ENDCHAR
STARTCHAR ordmasculine
ENCODING 186
SWIDTH 412 0
DWIDTH 10 0
BBX 9 8 3 7
BITMAP
1E00
3300
7380
E380
E380
E700
6600
3C00
ENDCHAR
STARTCHAR guillemotright
ENCODING 187
SWIDTH 560 0
DWIDTH 14 0
BBX 11 11 2 1
BITMAP
2100
2100
3180
19C0
1CC0
1CE0
39C0
3180
6300
4200
8400
ENDCHAR
STARTCHAR onequarter
ENCODING 188
SWIDTH 940 0
DWIDTH 23 0
BBX 18 18 4 0
BITMAP
000100
1E0300
3C0700
1C0600
1C0C00
1C1C00
1C1800
383000
3861C0
38E380
FCC780
018B80
039380
032380
067FC0
0C0700
1C0700
181F80
ENDCHAR
STARTCHAR onehalf
ENCODING 189
SWIDTH 940 0
DWIDTH 23 0
BBX 20 19 3 -1
BITMAP
000100
1E0300
3C0300
1C0600
1C0C00
1C1C00
1C1800
183000
3863C0
386670
FCCE70
0180F0
0300E0
0301C0
060700
0C0C20
081FE0
183FC0
100000
ENDCHAR
STARTCHAR threequarters
ENCODING 190
SWIDTH 940 0
DWIDTH 23 0
BBX 19 19 4 -1
BITMAP
000080
3C0180
E70180
470300
0E0600
7C0E00
060C00
071800
C738E0
E631C0
3863C0
00C5C0
01C9C0
0191C0
033FE0
060380
060380
0C0FC0
040000
ENDCHAR
STARTCHAR questiondown
ENCODING 191
SWIDTH 454 0
DWIDTH 11 0
BBX 11 18 0 -5
BITMAP
00C0
01E0
01E0
01C0
0000
0000
0380
0FC0
01E0
01C0
0380
1E00
3C00
7880
F1C0
F1C0
7380
1F00
ENDCHAR
STARTCHAR Agrave
ENCODING 192
SWIDTH 634 0
DWIDTH 16 0
BBX 17 23 0 0
BITMAP
00E000
00F000
007800
000E00
000000
001C00
003C00
003C00
007C00
007C00
00DC00
009C00
019C00
011C00
031E00
021E00
07FE00
0C1E00
0C1E00
181E00
181E00
301E00
FC7F80
ENDCHAR
STARTCHAR Aacute
ENCODING 193
SWIDTH 634 0
DWIDTH 16 0
BBX 17 23 0 0
BITMAP
000300
000F80
001F00
003800
000000
001C00
003C00
003C00
007C00
007C00
00DC00
009C00
019C00
011C00
031E00
021E00
07FE00
0C1E00
0C1E00
181E00
181E00
301E00
FC7F80
ENDCHAR
STARTCHAR Acircumflex
ENCODING 194
SWIDTH 634 0
DWIDTH 16 0
BBX 17 23 0 0
BITMAP
000C00
001E00
007F00
00E380
000000
001C00
003C00
003C00
007C00
007C00
00DC00
009C00
019C00
011C00
031E00
021E00
07FE00
0C1E00
0C1E00
181E00
181E00
301E00
FC7F80
ENDCHAR
STARTCHAR Atilde
ENCODING 195
SWIDTH 634 0
DWIDTH 16 0
BBX 18 22 -1 0
BITMAP
007000
00F840
018F80
000300
001C00
003C00
003C00
007C00
005C00
00DE00
009E00
019E00
011E00
031E00
021E00
07FE00
041E00
0C0E00
180E00
180F00
300F00
FC3F80
ENDCHAR
STARTCHAR Adieresis
ENCODING 196
SWIDTH 634 0
DWIDTH 16 0
BBX 17 22 0 0
BITMAP
00C300
01E780
01E780
00C300
003800
003C00
007C00
007C00
00FC00
00BC00
01BC00
013C00
031C00
021C00
061C00
07FC00
0C1E00
081E00
181E00
101E00
301E00
FC7F80
ENDCHAR
STARTCHAR Aring
ENCODING 197
SWIDTH 634 0
DWIDTH 16 0
BBX 17 22 0 0
BITMAP
001E00
002300
006300
006600
003C00
003C00
007C00
007C00
00FC00
00BC00
01BC00
011C00
031C00
021C00
061C00
07FC00
0C1E00
081E00
181E00
101E00
301E00
FC7F80
ENDCHAR
STARTCHAR AE
ENCODING 198
SWIDTH 890 0
DWIDTH 22 0
BBX 27 18 -2 0
BITMAP
001FFFE0
0007E0E0
000DE0C0
0009E040
0019C040
0033C000
0063C300
0063C200
00FFFE00
01878600
01078600
03078000
06078000
0E070180
0C0F0100
180F0300
380F0700
FE3FFF00
ENDCHAR
STARTCHAR Ccedilla
ENCODING 199
SWIDTH 672 0
DWIDTH 17 0
BBX 16 24 3 -6
BITMAP
01FC
0787
1E07
3E02
3C02
7802
7800
F800
F000
F000
F000
F000
F004
7004
700C
3818
1C38
07F0
0300
0380
07C0
01C0
01C0
0F00
ENDCHAR
STARTCHAR Egrave
ENCODING 200
SWIDTH 622 0
DWIDTH 16 0
BBX 17 23 1 0
BITMAP
018000
01E000
00F000
001C00
000000
1FFF80
078380
078180
078100
078100
070000
0F0400
0F0C00
0FF800
0F1800
0E0800
1E0000
1E0000
1E0200
1E0600
3C0C00
3C1C00
FFFC00
ENDCHAR
STARTCHAR Eacute
ENCODING 201
SWIDTH 622 0
DWIDTH 16 0
BBX 17 23 1 0
BITMAP
000700
000F00
003E00
007000
000000
1FFF80
078380
078180
078100
078100
070000
0F0400
0F0C00
0FF800
0F1800
0E0800
1E0000
1E0000
1E0200
1E0600
3C0C00
3C1C00
FFFC00
ENDCHAR
STARTCHAR Ecircumflex
ENCODING 202
SWIDTH 622 0
DWIDTH 16 0
BBX 17 23 1 0
BITMAP
001000
003C00
00FE00
038700
000000
1FFF80
078380
078180
078100
078100
070000
0F0400
0F0C00
0FF800
0F1800
0E0800
1E0000
1E0000
1E0200
1E0600
3C0C00
3C1C00
FFFC00
ENDCHAR
STARTCHAR Edieresis
ENCODING 203
SWIDTH 622 0
DWIDTH 16 0
BBX 17 22 1 0
BITMAP
018600
03CF00
03CF00
018600
0FFF80
078300
078300
078100
078100
070000
0F0C00
0F0800
0FF800
0F1800
0E0800
1E0000
1E0000
1E0200
1E0400
1C0C00
3E1C00
FFFC00
ENDCHAR
STARTCHAR Igrave
ENCODING 204
SWIDTH 386 0
DWIDTH 10 0
BBX 12 23 1 0
BITMAP
0E00
0F00
07C0
00E0
0000
0FF0
03C0
0780
0780
0780
0780
0700
0F00
0F00
0F00
0F00
0E00
1E00
1E00
1E00
1E00
3C00
FF00
ENDCHAR
STARTCHAR Iacute
ENCODING 205
SWIDTH 386 0
DWIDTH 10 0
BBX 12 23 1 0
BITMAP
0070
00F0
03E0
0700
0000
1FE0
0780
0780
0780
0700
0F00
0F00
0F00
0F00
0E00
1E00
1E00
1E00
1E00
1C00
3C00
3C00
FF00
ENDCHAR
STARTCHAR Icircumflex
ENCODING 206
SWIDTH 386 0
DWIDTH 10 0
BBX 13 23 1 0
BITMAP
0080
01E0
07F0
1C38
0000
0FF0
03C0
0780
0780
0780
0780
0700
0F00
0F00
0F00
0F00
0E00
1E00
1E00
1E00
1E00
3C00
FF00
ENDCHAR
STARTCHAR Idieresis
ENCODING 207
SWIDTH 386 0
DWIDTH 10 0
BBX 13 22 1 0
BITMAP
0C30
1E78
1E78
0C30
0FE0
0780
0780
0780
0780
0700
0F00
0F00
0F00
0F00
0E00
1E00
1E00
1E00
1E00
1C00
3C00
FF00
ENDCHAR
STARTCHAR Eth
ENCODING 208
SWIDTH 780 0
DWIDTH 19 0
BBX 20 18 1 0
BITMAP
1FFE00
0783C0
0781C0
0780E0
0700E0
0F00F0
0F00F0
0F00F0
7FF0F0
1E00F0
1E01E0
1E01E0
1E03E0
1C03C0
3C07C0
3C0F80
3C3E00
FFF000
ENDCHAR
STARTCHAR Ntilde
ENCODING 209
SWIDTH 741 0
DWIDTH 19 0
BBX 21 22 1 0
BITMAP
007000
00F840
008780
000300
0F81F8
07C060
07C060
07E040
05E0C0
04E0C0
0CF0C0
0CF080
0C7880
087980
083980
183D80
183D00
181F00
101F00
300F00
300E00
FC0E00
ENDCHAR
STARTCHAR Ograve
ENCODING 210
SWIDTH 761 0
DWIDTH 19 0
BBX 17 23 3 0
BITMAP
060000
078000
07C000
00E000
001000
01F800
0F0E00
1E0600
3E0700
3C0780
780780
780780
780780
F80780
F00F80
F00F00
F00F00
F00F00
F01E00
703E00
383C00
187800
0FE000
ENDCHAR
STARTCHAR Oacute
ENCODING 211
SWIDTH 761 0
DWIDTH 19 0
BBX 17 23 3 0
BITMAP
000400
001E00
003C00
00F000
008000
01F800
0F0E00
1E0600
3E0700
3C0780
780780
780780
780780
F80780
F00F80
F00F00
F00F00
F00F00
F01E00
703E00
383C00
187800
0FE000
ENDCHAR
STARTCHAR Ocircumflex
ENCODING 212
SWIDTH 761 0
DWIDTH 19 0
BBX 17 23 3 0
BITMAP
001000
007800
00FC00
038600
020200
01F800
0F0E00
1E0600
3E0700
3C0780
780780
780780
780780
F80780
F00F80
F00F00
F00F00
F00F00
F01E00
703E00
383C00
187800
0FE000
ENDCHAR
STARTCHAR Otilde
ENCODING 213
SWIDTH 761 0
DWIDTH 19 0
BBX 17 22 3 0
BITMAP
01C000
03E300
063E00
021C00
01F800
0F0E00
1E0600
3E0700
3C0780
780780
780780
780780
F80780
F00F80
F00F00
F00F00
F00F00
F01E00
703E00
383C00
187800
0FE000
ENDCHAR
STARTCHAR Odieresis
ENCODING 214
SWIDTH 761 0
DWIDTH 19 0
BBX 17 22 3 0
BITMAP
030600
078F00
078F00
030600
01F800
0F0E00
1E0600
3E0700
3C0780
780780
780780
780780
F80780
F00F80
F00F00
F00F00
F00F00
F01E00
703E00
383C00
187800
0FE000
ENDCHAR
STARTCHAR multiply
ENCODING 215
SWIDTH 600 0
DWIDTH 15 0
BBX 11 11 4 1
BITMAP
4040
E0E0
71C0
3B80
1F00
0E00
1F00
3B80
71C0
E0E0
4040
ENDCHAR
STARTCHAR Oslash
ENCODING 216
SWIDTH 761 0
DWIDTH 19 0
BBX 17 20 3 -1
BITMAP
000100
01F300
0F0E00
1E0600
3E0F00
3C1F00
783780
782780
784780
F8C780
F18F80
F10F00
F20F00
F60F00
FC1E00
783E00
703C00
387800
67E000
400000
ENDCHAR
STARTCHAR Ugrave
ENCODING 217
SWIDTH 776 0
DWIDTH 19 0
BBX 19 23 4 0
BITMAP
0E0000
0F0000
07C000
00E000
000000
7F9FE0
3C0780
3C0700
3C0F00
3C0F00
380F00
780F00
780E00
781E00
781E00
701E00
F01C00
F03C00
F03C00
F03800
707800
78F000
1FC000
ENDCHAR
STARTCHAR Uacute
ENCODING 218
SWIDTH 776 0
DWIDTH 19 0
BBX 19 23 4 0
BITMAP
000300
000F80
001E00
007000
000000
7F9FE0
3C0780
3C0700
3C0F00
3C0F00
380F00
780F00
780E00
781E00
781E00
701E00
F01C00
F03C00
F03C00
F03800
707800
78F000
1FC000
ENDCHAR
STARTCHAR Ucircumflex
ENCODING 219
SWIDTH 776 0
DWIDTH 19 0
BBX 19 23 4 0
BITMAP
002000
00F000
01F800
070E00
000000
7F9FE0
3C0780
3C0700
3C0F00
3C0F00
380F00
780F00
780E00
781E00
781E00
701E00
F01C00
F03C00
F03C00
F03800
707800
78F000
1FC000
ENDCHAR
STARTCHAR Udieresis
ENCODING 220
SWIDTH 776 0
DWIDTH 19 0
BBX 19 22 4 0
BITMAP
030C00
079E00
079E00
030C00
7F9FE0
3E0F80
3C0F00
3C0F00
3C0F00
3C0F00
780E00
781E00
781E00
781E00
701C00
F01C00
F03C00
F03C00
F03800
707800
78F000
1FC000
ENDCHAR
STARTCHAR Yacute
ENCODING 221
SWIDTH 622 0
DWIDTH 16 0
BBX 17 23 3 0
BITMAP
000700
000F00
003E00
007000
000000
FF3F80
3C0E00
3C0C00
3C1800
1C3800
1E3000
1E6000
1E4000
0EC000
0F8000
0F0000
0F0000
0F0000
0F0000
1E0000
1E0000
1E0000
FF8000
ENDCHAR
STARTCHAR Thorn
ENCODING 222
SWIDTH 629 0
DWIDTH 16 0
BBX 16 18 1 0
BITMAP
1FE0
0780
0780
0780
07F8
0F1E
0F0F
0F0F
0F0F
1E0F
1E1F
1E1E
1E3C
1FF0
3C00
3C00
3C00
FF00
ENDCHAR
STARTCHAR germandbls
ENCODING 223
SWIDTH 628 0
DWIDTH 16 0
BBX 20 25 -2 -6
BITMAP
0007C0
0038E0
007870
00F070
00F070
00E0E0
07E1E0
01C780
01C700
03CF00
03CF00
03CF80
038780
0383C0
0783C0
0781C0
0711C0
073980
071F00
070000
0E0000
0E0000
CE0000
EC0000
F80000
ENDCHAR
STARTCHAR agrave
ENCODING 224
SWIDTH 596 0
DWIDTH 15 0
BBX 15 19 1 0
BITMAP
0600
0F00
0780
01C0
0060
0020
03DC
073C
1E3C
3C38
3878
7878
78F8
70F0
F170
F1F2
F2F4
FCF8
7070
ENDCHAR
STARTCHAR aacute
ENCODING 225
SWIDTH 596 0
DWIDTH 15 0
BBX 15 19 1 0
BITMAP
000C
003C
0078
00E0
00C0
0100
03DC
073C
1E3C
3C38
3878
7878
78F8
70F0
F170
F1F2
F2F4
FCF8
7070
ENDCHAR
STARTCHAR acircumflex
ENCODING 226
SWIDTH 596 0
DWIDTH 15 0
BBX 15 19 1 0
BITMAP
0020
00F0
01F0
0398
060C
0404
03DC
073C
1E3C
3C38
3878
7878
78F8
70F0
F170
F1F2
F2F4
FCF8
7070
ENDCHAR
STARTCHAR atilde
ENCODING 227
SWIDTH 596 0
DWIDTH 15 0
BBX 15 18 1 0
BITMAP
0002
03E6
07FC
0C38
0000
03DC
073C
1E3C
3C38
3878
7878
78F8
70F0
F170
F1F2
F2F4
FCF8
7070
ENDCHAR
STARTCHAR adieresis
ENCODING 228
SWIDTH 596 0
DWIDTH 15 0
BBX 15 18 1 0
BITMAP
030C
079E
079E
030C
0000
03DC
073C
1E3C
3C38
3878
7878
78F8
70F0
F170
F1F2
F2F4
FCF8
7070
ENDCHAR
STARTCHAR aring
ENCODING 229
SWIDTH 596 0
DWIDTH 15 0
BBX 15 19 1 0
BITMAP
00E0
0190
0318
0318
0130
00E0
03DC
073C
1E3C
3C38
3878
7878
78F8
70F0
F170
F1F2
F2F4
FCF8
7070
ENDCHAR
STARTCHAR ae
ENCODING 230
SWIDTH 789 0
DWIDTH 20 0
BBX 20 13 1 0
BITMAP
01E9C0
071E70
1E1C70
3C3C70
3838E0
7878E0
787B80
F0FC00
F1F820
F17840
F238C0
7C3F80
700C00
ENDCHAR
STARTCHAR ccedilla
ENCODING 231
SWIDTH 456 0
DWIDTH 11 0
BBX 11 19 2 -6
BITMAP
03C0
0CE0
38E0
38C0
7800
7000
F000
F000
F0C0
F080
F180
7F00
3C00
1000
3000
3C00
1C00
1C00
7000
ENDCHAR
STARTCHAR egrave
ENCODING 232
SWIDTH 476 0
DWIDTH 12 0
BBX 11 19 2 0
BITMAP
0800
1C00
0E00
0700
0180
0080
0380
0CE0
38E0
38E0
79C0
73C0
FF00
F800
F040
F080
F180
7F00
1800
ENDCHAR
STARTCHAR eacute
ENCODING 233
SWIDTH 476 0
DWIDTH 12 0
BBX 12 19 2 0
BITMAP
0020
0070
00E0
01C0
0300
0200
0380
0CE0
38E0
38E0
79C0
73C0
FF00
F800
F040
F080
F180
7F00
1800
ENDCHAR
STARTCHAR ecircumflex
ENCODING 234
SWIDTH 476 0
DWIDTH 12 0
BBX 12 19 2 0
BITMAP
0180
0380
07C0
0E60
1830
1020
0380
0CE0
38E0
38E0
79C0
73C0
FF00
F800
F040
F080
F180
7F00
1800
ENDCHAR
STARTCHAR edieresis
ENCODING 235
SWIDTH 476 0
DWIDTH 12 0
BBX 12 18 2 0
BITMAP
1860
3CF0
3CF0
1860
0000
0380
0CE0
38E0
38E0
79C0
73C0
FF00
F800
F040
F080
F180
7F00
1800
ENDCHAR
STARTCHAR igrave
ENCODING 236
SWIDTH 339 0
DWIDTH 8 0
BBX 7 19 2 0
BITMAP
40
F0
78
3C
0C
02
0E
FC
3C
3C
38
38
78
78
70
72
F4
F8
70
ENDCHAR
STARTCHAR iacute
ENCODING 237
SWIDTH 339 0
DWIDTH 8 0
BBX 9 19 2 0
BITMAP
0100
0780
0F00
1E00
3800
2000
0E00
FC00
3C00
3C00
3800
3800
7800
7800
7000
7200
F400
F800
7000
ENDCHAR
STARTCHAR icircumflex
ENCODING 238
SWIDTH 339 0
DWIDTH 8 0
BBX 10 19 1 0
BITMAP
0600
0F00
1F00
3180
E0C0
4040
0700
7E00
1E00
1E00
1C00
1C00
3C00
3C00
3800
3900
7A00
7C00
3800
ENDCHAR
STARTCHAR idieresis
ENCODING 239
SWIDTH 339 0
DWIDTH 8 0
BBX 10 18 2 0
BITMAP
6180
F3C0
F3C0
6180
0000
0E00
FE00
3C00
3C00
3C00
3800
7800
7800
7000
7200
F400
FC00
7000
ENDCHAR
STARTCHAR eth
ENCODING 240
SWIDTH 562 0
DWIDTH 14 0
BBX 13 19 2 0
BITMAP
0C00
0618
0370
01C0
1EC0
00E0
03F0
1E70
3C78
7878
7878
7878
F8F8
F0F0
F0F0
F0E0
71E0
73C0
1E00
ENDCHAR
STARTCHAR ntilde
ENCODING 241
SWIDTH 635 0
DWIDTH 16 0
BBX 15 18 2 0
BITMAP
0004
07CC
0FF8
0870
0000
0E38
7CFC
1D3C
3D3C
3A38
3C78
3C78
7878
7870
78F2
70F4
F0F8
F070
ENDCHAR
STARTCHAR ograve
ENCODING 242
SWIDTH 562 0
DWIDTH 14 0
BBX 13 19 2 0
BITMAP
0800
0E00
0F00
0380
01C0
0040
03C0
1E70
3C70
3878
7878
7878
F8F8
F0F0
F0F0
F0E0
71E0
73C0
1E00
ENDCHAR
STARTCHAR oacute
ENCODING 243
SWIDTH 562 0
DWIDTH 14 0
BBX 13 19 2 0
BITMAP
0010
0078
0070
00E0
0180
0200
03C0
1E70
3C70
3878
7878
7878
F8F8
F0F0
F0F0
F0E0
71E0
73C0
1E00
ENDCHAR
STARTCHAR ocircumflex
ENCODING 244
SWIDTH 562 0
DWIDTH 14 0
BBX 13 19 2 0
BITMAP
0080
01C0
03E0
0660
0830
1010
03C0
1E70
3C70
3878
7878
7878
F8F8
F0F0
F0F0
F0E0
71E0
73C0
1E00
ENDCHAR
STARTCHAR otilde
ENCODING 245
SWIDTH 562 0
DWIDTH 14 0
BBX 14 18 2 0
BITMAP
0008
078C
0FF8
10F0
0000
03C0
1E70
3C70
3878
7878
7878
F8F8
F0F0
F0F0
F0E0
71E0
73C0
1E00
ENDCHAR
STARTCHAR odieresis
ENCODING 246
SWIDTH 562 0
DWIDTH 14 0
BBX 14 18 2 0
BITMAP
0618
0F3C
0F3C
0618
0000
03C0
1E70
3C70
3878
7878
7878
F8F8
F0F0
F0F0
F0E0
71E0
73C0
1E00
ENDCHAR
STARTCHAR divide
ENCODING 247
SWIDTH 600 0
DWIDTH 15 0
BBX 12 12 3 0
BITMAP
0600
0F00
0F00
0600
0000
FFF0
FFF0
0000
0600
0F00
0F00
0600
ENDCHAR
STARTCHAR oslash
ENCODING 248
SWIDTH 562 0
DWIDTH 14 0
BBX 13 16 2 -2
BITMAP
0030
03A0
1E60
3CF0
38F0
7978
7978
FA78
F6F0
F4F0
F8E0
79E0
33C0
3E00
6000
2000
ENDCHAR
STARTCHAR ugrave
ENCODING 249
SWIDTH 634 0
DWIDTH 16 0
BBX 15 19 2 0
BITMAP
1800
1C00
1E00
0700
0180
0040
0E1C
FC1C
3C3C
3C3C
3878
7878
7878
78F8
7170
F172
F2F4
FCF8
7070
ENDCHAR
STARTCHAR uacute
ENCODING 250
SWIDTH 634 0
DWIDTH 16 0
BBX 15 19 2 0
BITMAP
0004
001E
003C
0078
00E0
0080
0E1C
FC1C
3C3C
3C3C
3878
7878
7878
78F8
7170
F172
F2F4
FCF8
7070
ENDCHAR
STARTCHAR ucircumflex
ENCODING 251
SWIDTH 634 0
DWIDTH 16 0
BBX 15 19 2 0
BITMAP
00C0
01E0
03E0
0630
0C18
1008
0E1C
FC1C
3C3C
3C3C
3878
7878
7878
78F8
7170
F172
F2F4
FCF8
7070
ENDCHAR
STARTCHAR udieresis
ENCODING 252
SWIDTH 634 0
DWIDTH 16 0
BBX 15 18 2 0
BITMAP
0618
0F3C
0F3C
0618
0000
0E1C
FC1C
3C3C
3C3C
3878
7878
7878
78F8
7170
F172
F2F4
FCF8
7070
ENDCHAR
STARTCHAR yacute
ENCODING 253
SWIDTH 489 0
DWIDTH 12 0
BBX 14 25 0 -6
BITMAP
0008
001C
0038
0070
00C0
0100
020C
1E1C
7E1C
0E18
0E18
0E30
0F30
0F20
0F60
0740
07C0
0780
0700
0700
0600
4400
EC00
F800
7000
ENDCHAR
STARTCHAR thorn
ENCODING 254
SWIDTH 600 0
DWIDTH 15 0
BBX 15 24 1 -6
BITMAP
0300
3F00
0F00
0F00
0E00
0E38
1E7C
1E9E
1D1E
1E1E
1E1E
3C3C
3C3C
3C38
3878
7870
78E0
7780
7000
7000
F000
F000
E000
E000
ENDCHAR
STARTCHAR ydieresis
ENCODING 255
SWIDTH 489 0
DWIDTH 12 0
BBX 14 24 0 -6
BITMAP
0618
0F3C
0F3C
0618
0000
020C
1E1C
7E1C
0E18
0E18
0E30
0F30
0F20
0F60
0740
07C0
0780
0700
0700
0600
4400
EC00
F800
7000
ENDCHAR
ENDFONT
