STARTFONT 2.1
COMMENT AUTOMATICALLY GENERATED FILE. DO NOT EDIT!
COMMENT Generated with 'ucs2any.pl courO12.bdf ../../../fonts/util/map-ISO8859-1 ISO8859-1'
COMMENT from an ISO10646-1 encoded source BDF font.
COMMENT ucs2any.pl by Markus Kuhn <mkuhn@acm.org>, 2000.
FONT -Adobe-Courier-Medium-O-Normal--12-120-75-75-M-70-ISO8859-1
SIZE 12 75 75
FONTBOUNDINGBOX 11 14 -2 -3
COMMENT $Xorg: $
COMMENT ISO10646-1 extension by Markus Kuhn <mkuhn@acm.org>, 2001-03-20
COMMENT 
COMMENT +
COMMENT  Copyright 1984-1989, 1994 Adobe Systems Incorporated.
COMMENT  Copyright 1988, 1994 Digital Equipment Corporation.
COMMENT
COMMENT  Adobe is a trademark of Adobe Systems Incorporated which may be
COMMENT  registered in certain jurisdictions.
COMMENT  Permission to use these trademarks is hereby granted only in
COMMENT  association with the images described in this file.
COMMENT
COMMENT  Permission to use, copy, modify, distribute and sell this software
COMMENT  and its documentation for any purpose and without fee is hereby
COMMENT  granted, provided that the above copyright notices appear in all
COMMENT  copies and that both those copyright notices and this permission
COMMENT  notice appear in supporting documentation, and that the names of
COMMENT  Adobe Systems and Digital Equipment Corporation not be used in
COMMENT  advertising or publicity pertaining to distribution of the software
COMMENT  without specific, written prior permission.  Adobe Systems and
COMMENT  Digital Equipment Corporation make no representations about the
COMMENT  suitability of this software for any purpose.  It is provided "as
COMMENT  is" without express or implied warranty.
COMMENT -
STARTPROPERTIES 26
FOUNDRY "Adobe"
FAMILY_NAME "Courier"
WEIGHT_NAME "Medium"
SLANT "O"
SETWIDTH_NAME "Normal"
ADD_STYLE_NAME ""
PIXEL_SIZE 12
POINT_SIZE 120
RESOLUTION_X 75
RESOLUTION_Y 75
SPACING "M"
AVERAGE_WIDTH 70
CHARSET_REGISTRY "ISO8859"
CHARSET_ENCODING "1"
CAP_HEIGHT 8
X_HEIGHT 6
FONT_ASCENT 10
FONT_DESCENT 3
FACE_NAME "Courier Oblique"
COPYRIGHT "Copyright (c) 1984, 1987 Adobe Systems Incorporated. All Rights Reserved. Copyright (c) 1988, 1991 Digital Equipment Corporation. All Rights Reserved."
NOTICE "No mark"
_DEC_DEVICE_FONTNAMES "PS=Courier-Oblique"
DEFAULT_CHAR 0
RELATIVE_SETWIDTH 50
RELATIVE_WEIGHT 50
FULL_NAME "Courier Oblique"
ENDPROPERTIES
CHARS 192
STARTCHAR defaultchar
ENCODING 0
SWIDTH 600 0
DWIDTH 7 0
BBX 9 7 -1 0
BITMAP
AA80
0000
8080
0000
8080
0000
AA80
ENDCHAR
STARTCHAR space
ENCODING 32
SWIDTH 600 0
DWIDTH 7 0
BBX 1 1 0 0
BITMAP
00
ENDCHAR
STARTCHAR exclam
ENCODING 33
SWIDTH 600 0
DWIDTH 7 0
BBX 3 8 2 0
BITMAP
20
20
40
40
40
80
00
80
ENDCHAR
STARTCHAR quotedbl
ENCODING 34
SWIDTH 600 0
DWIDTH 7 0
BBX 4 3 2 5
BITMAP
50
50
A0
ENDCHAR
STARTCHAR numbersign
ENCODING 35
SWIDTH 600 0
DWIDTH 7 0
BBX 7 8 0 0
BITMAP
14
14
7E
28
28
FC
50
50
ENDCHAR
STARTCHAR dollar
ENCODING 36
SWIDTH 600 0
DWIDTH 7 0
BBX 6 11 0 -1
BITMAP
08
08
3C
44
24
10
88
88
70
20
20
ENDCHAR
STARTCHAR percent
ENCODING 37
SWIDTH 600 0
DWIDTH 7 0
BBX 6 8 1 0
BITMAP
60
A0
C4
18
60
98
28
30
ENDCHAR
STARTCHAR ampersand
ENCODING 38
SWIDTH 600 0
DWIDTH 7 0
BBX 6 8 0 0
BITMAP
18
24
20
20
54
88
98
64
ENDCHAR
STARTCHAR quotesingle
ENCODING 39
SWIDTH 600 0
DWIDTH 7 0
BBX 2 3 4 5
BITMAP
40
40
80
ENDCHAR
STARTCHAR parenleft
ENCODING 40
SWIDTH 600 0
DWIDTH 7 0
BBX 5 11 1 -2
BITMAP
08
10
20
20
40
40
80
80
80
80
40
ENDCHAR
STARTCHAR parenright
ENCODING 41
SWIDTH 600 0
DWIDTH 7 0
BBX 5 11 0 -2
BITMAP
10
08
08
08
08
10
10
20
20
40
80
ENDCHAR
STARTCHAR asterisk
ENCODING 42
SWIDTH 600 0
DWIDTH 7 0
BBX 4 5 2 3
BITMAP
20
20
F0
40
A0
ENDCHAR
STARTCHAR plus
ENCODING 43
SWIDTH 600 0
DWIDTH 7 0
BBX 4 5 1 1
BITMAP
20
20
F0
40
40
ENDCHAR
STARTCHAR comma
ENCODING 44
SWIDTH 600 0
DWIDTH 7 0
BBX 2 3 1 -1
BITMAP
40
40
80
ENDCHAR
STARTCHAR hyphen
ENCODING 45
SWIDTH 600 0
DWIDTH 7 0
BBX 4 1 1 3
BITMAP
F0
ENDCHAR
STARTCHAR period
ENCODING 46
SWIDTH 600 0
DWIDTH 7 0
BBX 1 1 2 0
BITMAP
80
ENDCHAR
STARTCHAR slash
ENCODING 47
SWIDTH 600 0
DWIDTH 7 0
BBX 7 9 0 -1
BITMAP
02
04
08
08
10
20
20
40
80
ENDCHAR
STARTCHAR zero
ENCODING 48
SWIDTH 600 0
DWIDTH 7 0
BBX 5 9 1 0
BITMAP
30
48
48
88
88
88
90
90
60
ENDCHAR
STARTCHAR one
ENCODING 49
SWIDTH 600 0
DWIDTH 7 0
BBX 5 9 0 0
BITMAP
08
38
10
10
10
20
20
20
F8
ENDCHAR
STARTCHAR two
ENCODING 50
SWIDTH 600 0
DWIDTH 7 0
BBX 6 9 0 0
BITMAP
38
44
04
08
10
20
40
88
F8
ENDCHAR
STARTCHAR three
ENCODING 51
SWIDTH 600 0
DWIDTH 7 0
BBX 6 9 0 0
BITMAP
38
44
04
04
38
08
08
88
70
ENDCHAR
STARTCHAR four
ENCODING 52
SWIDTH 600 0
DWIDTH 7 0
BBX 6 9 0 0
BITMAP
04
0C
14
24
48
88
FC
10
38
ENDCHAR
STARTCHAR five
ENCODING 53
SWIDTH 600 0
DWIDTH 7 0
BBX 6 9 0 0
BITMAP
3C
20
40
78
04
04
04
88
70
ENDCHAR
STARTCHAR six
ENCODING 54
SWIDTH 600 0
DWIDTH 7 0
BBX 6 9 1 0
BITMAP
0C
30
40
40
B8
C4
84
88
70
ENDCHAR
STARTCHAR seven
ENCODING 55
SWIDTH 600 0
DWIDTH 7 0
BBX 5 9 2 0
BITMAP
F8
88
10
10
20
20
40
40
80
ENDCHAR
STARTCHAR eight
ENCODING 56
SWIDTH 600 0
DWIDTH 7 0
BBX 6 9 0 0
BITMAP
18
24
44
44
38
44
84
88
70
ENDCHAR
STARTCHAR nine
ENCODING 57
SWIDTH 600 0
DWIDTH 7 0
BBX 6 9 0 0
BITMAP
38
44
44
44
4C
34
08
10
E0
ENDCHAR
STARTCHAR colon
ENCODING 58
SWIDTH 600 0
DWIDTH 7 0
BBX 2 5 2 0
BITMAP
40
00
00
00
80
ENDCHAR
STARTCHAR semicolon
ENCODING 59
SWIDTH 600 0
DWIDTH 7 0
BBX 3 6 1 -1
BITMAP
20
00
00
40
40
80
ENDCHAR
STARTCHAR less
ENCODING 60
SWIDTH 600 0
DWIDTH 7 0
BBX 4 7 1 0
BITMAP
10
20
40
80
80
40
20
ENDCHAR
STARTCHAR equal
ENCODING 61
SWIDTH 600 0
DWIDTH 7 0
BBX 6 3 0 2
BITMAP
7C
00
F8
ENDCHAR
STARTCHAR greater
ENCODING 62
SWIDTH 600 0
DWIDTH 7 0
BBX 4 7 1 0
BITMAP
40
20
10
10
20
40
80
ENDCHAR
STARTCHAR question
ENCODING 63
SWIDTH 600 0
DWIDTH 7 0
BBX 5 8 2 0
BITMAP
70
88
08
30
40
40
00
80
ENDCHAR
STARTCHAR at
ENCODING 64
SWIDTH 600 0
DWIDTH 7 0
BBX 6 8 0 0
BITMAP
38
44
9C
A4
A8
98
C0
78
ENDCHAR
STARTCHAR A
ENCODING 65
SWIDTH 600 0
DWIDTH 7 0
BBX 8 8 -1 0
BITMAP
1E
06
0A
12
1E
22
42
E7
ENDCHAR
STARTCHAR B
ENCODING 66
SWIDTH 600 0
DWIDTH 7 0
BBX 8 8 -1 0
BITMAP
3E
11
22
3C
22
42
44
F8
ENDCHAR
STARTCHAR C
ENCODING 67
SWIDTH 600 0
DWIDTH 7 0
BBX 7 8 0 0
BITMAP
1E
22
40
40
80
80
8C
70
ENDCHAR
STARTCHAR D
ENCODING 68
SWIDTH 600 0
DWIDTH 7 0
BBX 8 8 -1 0
BITMAP
3E
11
21
21
22
42
44
F8
ENDCHAR
STARTCHAR E
ENCODING 69
SWIDTH 600 0
DWIDTH 7 0
BBX 8 8 0 0
BITMAP
3F
11
24
38
28
40
44
FC
ENDCHAR
STARTCHAR F
ENCODING 70
SWIDTH 600 0
DWIDTH 7 0
BBX 8 8 0 0
BITMAP
3F
11
24
38
28
40
40
F0
ENDCHAR
STARTCHAR G
ENCODING 71
SWIDTH 600 0
DWIDTH 7 0
BBX 7 8 0 0
BITMAP
1E
22
40
40
8E
84
8C
70
ENDCHAR
STARTCHAR H
ENCODING 72
SWIDTH 600 0
DWIDTH 7 0
BBX 9 8 -1 0
BITMAP
3B80
1100
2200
3E00
2200
4400
4400
EE00
ENDCHAR
STARTCHAR I
ENCODING 73
SWIDTH 600 0
DWIDTH 7 0
BBX 7 8 0 0
BITMAP
3E
08
10
10
10
20
20
F8
ENDCHAR
STARTCHAR J
ENCODING 74
SWIDTH 600 0
DWIDTH 7 0
BBX 7 8 0 0
BITMAP
1E
04
08
08
08
90
90
60
ENDCHAR
STARTCHAR K
ENCODING 75
SWIDTH 600 0
DWIDTH 7 0
BBX 8 8 -1 0
BITMAP
3B
12
2C
30
38
48
44
E6
ENDCHAR
STARTCHAR L
ENCODING 76
SWIDTH 600 0
DWIDTH 7 0
BBX 7 8 0 0
BITMAP
38
10
20
20
20
42
44
FC
ENDCHAR
STARTCHAR M
ENCODING 77
SWIDTH 600 0
DWIDTH 7 0
BBX 9 8 -1 0
BITMAP
3180
1B00
3500
2A00
2A00
4200
4400
EE00
ENDCHAR
STARTCHAR N
ENCODING 78
SWIDTH 600 0
DWIDTH 7 0
BBX 9 8 -1 0
BITMAP
3380
1100
3200
2A00
2A00
4C00
4400
E400
ENDCHAR
STARTCHAR O
ENCODING 79
SWIDTH 600 0
DWIDTH 7 0
BBX 7 8 0 0
BITMAP
1C
22
42
42
84
84
88
70
ENDCHAR
STARTCHAR P
ENCODING 80
SWIDTH 600 0
DWIDTH 7 0
BBX 8 8 -1 0
BITMAP
3E
11
21
22
3C
40
40
F0
ENDCHAR
STARTCHAR Q
ENCODING 81
SWIDTH 600 0
DWIDTH 7 0
BBX 7 10 0 -2
BITMAP
1C
22
42
42
84
84
88
70
24
58
ENDCHAR
STARTCHAR R
ENCODING 82
SWIDTH 600 0
DWIDTH 7 0
BBX 8 8 -1 0
BITMAP
3E
11
21
3E
24
44
42
E7
ENDCHAR
STARTCHAR S
ENCODING 83
SWIDTH 600 0
DWIDTH 7 0
BBX 7 8 0 0
BITMAP
1E
22
40
38
0C
04
88
F0
ENDCHAR
STARTCHAR T
ENCODING 84
SWIDTH 600 0
DWIDTH 7 0
BBX 8 8 0 0
BITMAP
7F
49
8A
10
10
20
20
F8
ENDCHAR
STARTCHAR U
ENCODING 85
SWIDTH 600 0
DWIDTH 7 0
BBX 8 8 0 0
BITMAP
77
22
44
44
44
88
88
70
ENDCHAR
STARTCHAR V
ENCODING 86
SWIDTH 600 0
DWIDTH 7 0
BBX 8 8 0 0
BITMAP
E7
42
44
48
28
30
20
20
ENDCHAR
STARTCHAR W
ENCODING 87
SWIDTH 600 0
DWIDTH 7 0
BBX 9 8 0 0
BITMAP
F380
4100
4A00
4A00
5400
5400
6800
4800
ENDCHAR
STARTCHAR X
ENCODING 88
SWIDTH 600 0
DWIDTH 7 0
BBX 9 8 0 0
BITMAP
3B80
1200
1400
0800
1400
2400
4200
E600
ENDCHAR
STARTCHAR Y
ENCODING 89
SWIDTH 600 0
DWIDTH 7 0
BBX 8 8 0 0
BITMAP
E7
42
44
28
30
20
20
F0
ENDCHAR
STARTCHAR Z
ENCODING 90
SWIDTH 600 0
DWIDTH 7 0
BBX 7 8 0 0
BITMAP
3E
44
48
10
20
44
84
F8
ENDCHAR
STARTCHAR bracketleft
ENCODING 91
SWIDTH 600 0
DWIDTH 7 0
BBX 6 11 1 -2
BITMAP
1C
10
10
20
20
20
40
40
80
80
E0
ENDCHAR
STARTCHAR backslash
ENCODING 92
SWIDTH 600 0
DWIDTH 7 0
BBX 4 9 2 -1
BITMAP
80
80
40
40
40
20
20
20
10
ENDCHAR
STARTCHAR bracketright
ENCODING 93
SWIDTH 600 0
DWIDTH 7 0
BBX 6 11 0 -2
BITMAP
1C
04
04
08
08
10
10
10
20
20
E0
ENDCHAR
STARTCHAR asciicircum
ENCODING 94
SWIDTH 600 0
DWIDTH 7 0
BBX 4 3 1 5
BITMAP
20
50
90
ENDCHAR
STARTCHAR underscore
ENCODING 95
SWIDTH 600 0
DWIDTH 7 0
BBX 7 1 -2 -3
BITMAP
FE
ENDCHAR
STARTCHAR grave
ENCODING 96
SWIDTH 600 0
DWIDTH 7 0
BBX 2 2 3 7
BITMAP
80
40
ENDCHAR
STARTCHAR a
ENCODING 97
SWIDTH 600 0
DWIDTH 7 0
BBX 6 6 0 0
BITMAP
78
04
7C
88
88
74
ENDCHAR
STARTCHAR b
ENCODING 98
SWIDTH 600 0
DWIDTH 7 0
BBX 7 9 -1 0
BITMAP
18
08
10
3C
22
22
42
44
B8
ENDCHAR
STARTCHAR c
ENCODING 99
SWIDTH 600 0
DWIDTH 7 0
BBX 6 6 0 0
BITMAP
38
44
80
80
88
70
ENDCHAR
STARTCHAR d
ENCODING 100
SWIDTH 600 0
DWIDTH 7 0
BBX 8 9 0 0
BITMAP
03
01
02
34
4C
84
88
88
74
ENDCHAR
STARTCHAR e
ENCODING 101
SWIDTH 600 0
DWIDTH 7 0
BBX 6 6 0 0
BITMAP
38
44
FC
80
88
70
ENDCHAR
STARTCHAR f
ENCODING 102
SWIDTH 600 0
DWIDTH 7 0
BBX 7 9 0 0
BITMAP
0E
10
10
7C
20
20
40
40
F0
ENDCHAR
STARTCHAR g
ENCODING 103
SWIDTH 600 0
DWIDTH 7 0
BBX 7 9 0 -3
BITMAP
3A
44
84
84
88
78
08
10
E0
ENDCHAR
STARTCHAR h
ENCODING 104
SWIDTH 600 0
DWIDTH 7 0
BBX 7 9 -1 0
BITMAP
18
08
10
1C
22
22
42
44
E6
ENDCHAR
STARTCHAR i
ENCODING 105
SWIDTH 600 0
DWIDTH 7 0
BBX 5 9 0 0
BITMAP
08
00
00
38
10
10
20
20
F8
ENDCHAR
STARTCHAR j
ENCODING 106
SWIDTH 600 0
DWIDTH 7 0
BBX 7 12 -1 -3
BITMAP
02
00
00
3C
04
04
08
08
08
10
10
E0
ENDCHAR
STARTCHAR k
ENCODING 107
SWIDTH 600 0
DWIDTH 7 0
BBX 7 9 0 0
BITMAP
30
10
10
26
28
30
50
48
CC
ENDCHAR
STARTCHAR l
ENCODING 108
SWIDTH 600 0
DWIDTH 7 0
BBX 5 9 0 0
BITMAP
38
08
08
10
10
10
20
20
F8
ENDCHAR
STARTCHAR m
ENCODING 109
SWIDTH 600 0
DWIDTH 7 0
BBX 7 6 -1 0
BITMAP
54
2A
2A
4A
54
D6
ENDCHAR
STARTCHAR n
ENCODING 110
SWIDTH 600 0
DWIDTH 7 0
BBX 7 6 -1 0
BITMAP
5C
22
22
42
44
E6
ENDCHAR
STARTCHAR o
ENCODING 111
SWIDTH 600 0
DWIDTH 7 0
BBX 6 6 0 0
BITMAP
38
44
84
84
88
70
ENDCHAR
STARTCHAR p
ENCODING 112
SWIDTH 600 0
DWIDTH 7 0
BBX 8 9 -2 -3
BITMAP
2E
11
11
21
22
3C
20
40
E0
ENDCHAR
STARTCHAR q
ENCODING 113
SWIDTH 600 0
DWIDTH 7 0
BBX 7 9 0 -3
BITMAP
3A
44
84
88
88
78
08
10
38
ENDCHAR
STARTCHAR r
ENCODING 114
SWIDTH 600 0
DWIDTH 7 0
BBX 6 6 0 0
BITMAP
5C
24
20
40
40
F0
ENDCHAR
STARTCHAR s
ENCODING 115
SWIDTH 600 0
DWIDTH 7 0
BBX 6 6 0 0
BITMAP
38
44
30
08
88
70
ENDCHAR
STARTCHAR t
ENCODING 116
SWIDTH 600 0
DWIDTH 7 0
BBX 5 8 1 0
BITMAP
20
20
F8
40
40
80
88
70
ENDCHAR
STARTCHAR u
ENCODING 117
SWIDTH 600 0
DWIDTH 7 0
BBX 6 6 0 0
BITMAP
CC
44
48
88
88
74
ENDCHAR
STARTCHAR v
ENCODING 118
SWIDTH 600 0
DWIDTH 7 0
BBX 7 6 0 0
BITMAP
EE
44
48
50
20
20
ENDCHAR
STARTCHAR w
ENCODING 119
SWIDTH 600 0
DWIDTH 7 0
BBX 7 6 0 0
BITMAP
EE
44
54
68
50
50
ENDCHAR
STARTCHAR x
ENCODING 120
SWIDTH 600 0
DWIDTH 7 0
BBX 8 6 -1 0
BITMAP
77
14
18
28
44
C6
ENDCHAR
STARTCHAR y
ENCODING 121
SWIDTH 600 0
DWIDTH 7 0
BBX 8 9 -1 -3
BITMAP
77
22
24
24
18
10
10
20
F0
ENDCHAR
STARTCHAR z
ENCODING 122
SWIDTH 600 0
DWIDTH 7 0
BBX 6 6 0 0
BITMAP
7C
48
10
20
48
F8
ENDCHAR
STARTCHAR braceleft
ENCODING 123
SWIDTH 600 0
DWIDTH 7 0
BBX 6 11 0 -2
BITMAP
0C
10
10
20
20
C0
20
40
40
40
30
ENDCHAR
STARTCHAR bar
ENCODING 124
SWIDTH 600 0
DWIDTH 7 0
BBX 4 9 1 -1
BITMAP
10
10
20
20
20
40
40
80
80
ENDCHAR
STARTCHAR braceright
ENCODING 125
SWIDTH 600 0
DWIDTH 7 0
BBX 6 11 0 -2
BITMAP
30
08
08
08
10
0C
10
10
20
20
C0
ENDCHAR
STARTCHAR asciitilde
ENCODING 126
SWIDTH 600 0
DWIDTH 7 0
BBX 6 2 0 2
BITMAP
64
98
ENDCHAR
STARTCHAR space
ENCODING 160
SWIDTH 600 0
DWIDTH 7 0
BBX 1 1 0 0
BITMAP
00
ENDCHAR
STARTCHAR exclamdown
ENCODING 161
SWIDTH 600 0
DWIDTH 7 0
BBX 4 9 1 -3
BITMAP
10
00
00
20
40
40
40
80
80
ENDCHAR
STARTCHAR cent
ENCODING 162
SWIDTH 600 0
DWIDTH 7 0
BBX 6 9 0 -1
BITMAP
10
10
3C
44
80
88
70
40
40
ENDCHAR
STARTCHAR sterling
ENCODING 163
SWIDTH 600 0
DWIDTH 7 0
BBX 6 8 0 0
BITMAP
18
24
20
70
20
20
44
F8
ENDCHAR
STARTCHAR currency
ENCODING 164
SWIDTH 600 0
DWIDTH 7 0
BBX 6 6 0 1
BITMAP
44
38
48
48
74
80
ENDCHAR
STARTCHAR yen
ENCODING 165
SWIDTH 600 0
DWIDTH 7 0
BBX 7 8 0 0
BITMAP
E6
44
28
7C
10
7C
20
70
ENDCHAR
STARTCHAR brokenbar
ENCODING 166
SWIDTH 600 0
DWIDTH 7 0
BBX 4 10 1 -2
BITMAP
10
10
20
20
00
00
40
40
80
80
ENDCHAR
STARTCHAR section
ENCODING 167
SWIDTH 600 0
DWIDTH 7 0
BBX 7 10 0 -1
BITMAP
1E
22
20
F0
88
44
3C
08
88
F0
ENDCHAR
STARTCHAR dieresis
ENCODING 168
SWIDTH 600 0
DWIDTH 7 0
BBX 3 1 3 7
BITMAP
A0
ENDCHAR
STARTCHAR copyright
ENCODING 169
SWIDTH 600 0
DWIDTH 7 0
BBX 8 8 0 0
BITMAP
1C
62
5D
A5
A1
9A
46
38
ENDCHAR
STARTCHAR ordfeminine
ENCODING 170
SWIDTH 600 0
DWIDTH 7 0
BBX 5 5 1 3
BITMAP
38
08
68
00
F0
ENDCHAR
STARTCHAR guillemotleft
ENCODING 171
SWIDTH 600 0
DWIDTH 7 0
BBX 6 5 0 1
BITMAP
24
48
90
90
48
ENDCHAR
STARTCHAR logicalnot
ENCODING 172
SWIDTH 600 0
DWIDTH 7 0
BBX 5 3 1 2
BITMAP
F8
10
10
ENDCHAR
STARTCHAR hyphen
ENCODING 173
SWIDTH 600 0
DWIDTH 7 0
BBX 4 1 1 3
BITMAP
F0
ENDCHAR
STARTCHAR registered
ENCODING 174
SWIDTH 600 0
DWIDTH 7 0
BBX 8 8 0 0
BITMAP
1C
62
59
95
B9
AA
46
38
ENDCHAR
STARTCHAR macron
ENCODING 175
SWIDTH 600 0
DWIDTH 7 0
BBX 4 1 2 7
BITMAP
F0
ENDCHAR
STARTCHAR degree
ENCODING 176
SWIDTH 600 0
DWIDTH 7 0
BBX 4 4 1 4
BITMAP
60
90
90
60
ENDCHAR
STARTCHAR plusminus
ENCODING 177
SWIDTH 600 0
DWIDTH 7 0
BBX 5 5 0 1
BITMAP
10
78
20
00
F0
ENDCHAR
STARTCHAR twosuperior
ENCODING 178
SWIDTH 600 0
DWIDTH 7 0
BBX 5 5 1 3
BITMAP
70
08
30
40
F0
ENDCHAR
STARTCHAR threesuperior
ENCODING 179
SWIDTH 600 0
DWIDTH 7 0
BBX 5 5 1 3
BITMAP
70
08
70
10
E0
ENDCHAR
STARTCHAR acute
ENCODING 180
SWIDTH 600 0
DWIDTH 7 0
BBX 2 2 4 7
BITMAP
40
80
ENDCHAR
STARTCHAR mu
ENCODING 181
SWIDTH 600 0
DWIDTH 7 0
BBX 7 9 -1 -3
BITMAP
66
22
24
44
44
7A
80
80
80
ENDCHAR
STARTCHAR paragraph
ENCODING 182
SWIDTH 600 0
DWIDTH 7 0
BBX 8 10 0 -1
BITMAP
1F
2A
54
54
68
28
28
50
50
D8
ENDCHAR
STARTCHAR periodcentered
ENCODING 183
SWIDTH 600 0
DWIDTH 7 0
BBX 1 1 2 3
BITMAP
80
ENDCHAR
STARTCHAR cedilla
ENCODING 184
SWIDTH 600 0
DWIDTH 7 0
BBX 3 3 2 -3
BITMAP
40
20
C0
ENDCHAR
STARTCHAR onesuperior
ENCODING 185
SWIDTH 600 0
DWIDTH 7 0
BBX 3 5 2 3
BITMAP
60
20
40
40
E0
ENDCHAR
STARTCHAR ordmasculine
ENCODING 186
SWIDTH 600 0
DWIDTH 7 0
BBX 5 5 1 3
BITMAP
38
48
70
00
F0
ENDCHAR
STARTCHAR guillemotright
ENCODING 187
SWIDTH 600 0
DWIDTH 7 0
BBX 6 5 0 1
BITMAP
48
24
24
48
90
ENDCHAR
STARTCHAR onequarter
ENCODING 188
SWIDTH 600 0
DWIDTH 7 0
BBX 8 10 0 -1
BITMAP
60
21
42
44
E8
12
26
4A
9F
04
ENDCHAR
STARTCHAR onehalf
ENCODING 189
SWIDTH 600 0
DWIDTH 7 0
BBX 8 10 0 -1
BITMAP
60
21
42
44
E8
1E
21
4E
90
1E
ENDCHAR
STARTCHAR threequarters
ENCODING 190
SWIDTH 600 0
DWIDTH 7 0
BBX 8 10 -1 -1
BITMAP
70
09
72
14
E8
12
26
4A
9F
04
ENDCHAR
STARTCHAR questiondown
ENCODING 191
SWIDTH 600 0
DWIDTH 7 0
BBX 5 8 0 -2
BITMAP
08
00
10
10
60
80
88
70
ENDCHAR
STARTCHAR Agrave
ENCODING 192
SWIDTH 600 0
DWIDTH 7 0
BBX 8 11 -1 0
BITMAP
04
02
00
1E
06
0A
12
1E
22
42
E7
ENDCHAR
STARTCHAR Aacute
ENCODING 193
SWIDTH 600 0
DWIDTH 7 0
BBX 8 11 -1 0
BITMAP
01
02
00
1E
06
0A
12
1E
22
42
E7
ENDCHAR
STARTCHAR Acircumflex
ENCODING 194
SWIDTH 600 0
DWIDTH 7 0
BBX 8 11 -1 0
BITMAP
02
05
00
1E
06
0A
12
1E
22
42
E7
ENDCHAR
STARTCHAR Atilde
ENCODING 195
SWIDTH 600 0
DWIDTH 7 0
BBX 8 11 -1 0
BITMAP
05
0A
00
1E
06
0A
12
1E
22
42
E7
ENDCHAR
STARTCHAR Adieresis
ENCODING 196
SWIDTH 600 0
DWIDTH 7 0
BBX 8 10 -1 0
BITMAP
05
00
1E
06
0A
12
1E
22
42
E7
ENDCHAR
STARTCHAR Aring
ENCODING 197
SWIDTH 600 0
DWIDTH 7 0
BBX 8 11 -1 0
BITMAP
02
05
02
1E
06
0A
12
1E
22
42
E7
ENDCHAR
STARTCHAR AE
ENCODING 198
SWIDTH 600 0
DWIDTH 7 0
BBX 10 8 -2 0
BITMAP
0FC0
0A40
1280
1700
2500
3800
4900
EF00
ENDCHAR
STARTCHAR Ccedilla
ENCODING 199
SWIDTH 600 0
DWIDTH 7 0
BBX 8 11 0 -3
BITMAP
1E
23
40
40
80
80
8C
70
20
10
60
ENDCHAR
STARTCHAR Egrave
ENCODING 200
SWIDTH 600 0
DWIDTH 7 0
BBX 8 11 0 0
BITMAP
08
04
00
3F
11
24
38
28
44
44
FC
ENDCHAR
STARTCHAR Eacute
ENCODING 201
SWIDTH 600 0
DWIDTH 7 0
BBX 8 11 0 0
BITMAP
02
04
00
3F
11
24
38
28
44
44
FC
ENDCHAR
STARTCHAR Ecircumflex
ENCODING 202
SWIDTH 600 0
DWIDTH 7 0
BBX 8 11 0 0
BITMAP
04
0A
00
3F
11
24
38
28
44
44
FC
ENDCHAR
STARTCHAR Edieresis
ENCODING 203
SWIDTH 600 0
DWIDTH 7 0
BBX 8 10 0 0
BITMAP
0A
00
3F
11
24
38
28
44
44
FC
ENDCHAR
STARTCHAR Igrave
ENCODING 204
SWIDTH 600 0
DWIDTH 7 0
BBX 7 11 0 0
BITMAP
10
08
00
3E
08
10
10
10
20
20
F8
ENDCHAR
STARTCHAR Iacute
ENCODING 205
SWIDTH 600 0
DWIDTH 7 0
BBX 7 11 0 0
BITMAP
02
04
00
3E
08
10
10
10
20
20
F8
ENDCHAR
STARTCHAR Icircumflex
ENCODING 206
SWIDTH 600 0
DWIDTH 7 0
BBX 7 11 0 0
BITMAP
04
0A
00
3E
08
10
10
10
20
20
F8
ENDCHAR
STARTCHAR Idieresis
ENCODING 207
SWIDTH 600 0
DWIDTH 7 0
BBX 7 10 0 0
BITMAP
0A
00
3E
08
10
10
10
20
20
F8
ENDCHAR
STARTCHAR Eth
ENCODING 208
SWIDTH 600 0
DWIDTH 7 0
BBX 8 8 -1 0
BITMAP
3E
11
21
79
22
42
44
F8
ENDCHAR
STARTCHAR Ntilde
ENCODING 209
SWIDTH 600 0
DWIDTH 7 0
BBX 9 11 -1 0
BITMAP
0500
0A00
0000
3380
1100
3100
2A00
2A00
4C00
4400
E400
ENDCHAR
STARTCHAR Ograve
ENCODING 210
SWIDTH 600 0
DWIDTH 7 0
BBX 7 11 0 0
BITMAP
10
08
00
1C
22
42
42
84
84
88
70
ENDCHAR
STARTCHAR Oacute
ENCODING 211
SWIDTH 600 0
DWIDTH 7 0
BBX 7 11 0 0
BITMAP
02
04
00
1C
22
42
42
84
84
88
70
ENDCHAR
STARTCHAR Ocircumflex
ENCODING 212
SWIDTH 600 0
DWIDTH 7 0
BBX 7 11 0 0
BITMAP
04
0A
00
1C
22
42
42
84
84
88
70
ENDCHAR
STARTCHAR Otilde
ENCODING 213
SWIDTH 600 0
DWIDTH 7 0
BBX 7 11 0 0
BITMAP
0A
14
00
1C
22
42
42
84
84
88
70
ENDCHAR
STARTCHAR Odieresis
ENCODING 214
SWIDTH 600 0
DWIDTH 7 0
BBX 7 10 0 0
BITMAP
0A
00
1C
22
42
42
84
84
88
70
ENDCHAR
STARTCHAR multiply
ENCODING 215
SWIDTH 600 0
DWIDTH 7 0
BBX 6 5 0 1
BITMAP
44
28
30
50
88
ENDCHAR
STARTCHAR Oslash
ENCODING 216
SWIDTH 600 0
DWIDTH 7 0
BBX 9 8 -1 0
BITMAP
0E80
1300
2500
2900
5200
6200
4400
B800
ENDCHAR
STARTCHAR Ugrave
ENCODING 217
SWIDTH 600 0
DWIDTH 7 0
BBX 8 11 0 0
BITMAP
10
08
00
77
22
44
44
44
88
88
70
ENDCHAR
STARTCHAR Uacute
ENCODING 218
SWIDTH 600 0
DWIDTH 7 0
BBX 8 11 0 0
BITMAP
02
04
00
77
22
44
44
44
88
88
70
ENDCHAR
STARTCHAR Ucircumflex
ENCODING 219
SWIDTH 600 0
DWIDTH 7 0
BBX 8 11 0 0
BITMAP
08
14
00
77
22
44
44
44
88
88
70
ENDCHAR
STARTCHAR Udieresis
ENCODING 220
SWIDTH 600 0
DWIDTH 7 0
BBX 8 10 0 0
BITMAP
14
00
77
22
44
44
44
88
88
70
ENDCHAR
STARTCHAR Yacute
ENCODING 221
SWIDTH 600 0
DWIDTH 7 0
BBX 8 11 0 0
BITMAP
04
08
00
E7
42
44
28
30
20
20
F0
ENDCHAR
STARTCHAR Thorn
ENCODING 222
SWIDTH 600 0
DWIDTH 7 0
BBX 8 8 -1 0
BITMAP
38
10
3E
21
22
7C
40
E0
ENDCHAR
STARTCHAR germandbls
ENCODING 223
SWIDTH 600 0
DWIDTH 7 0
BBX 7 9 -1 0
BITMAP
0C
12
12
22
2C
22
42
54
C8
ENDCHAR
STARTCHAR agrave
ENCODING 224
SWIDTH 600 0
DWIDTH 7 0
BBX 6 9 0 0
BITMAP
20
10
00
78
04
7C
88
88
74
ENDCHAR
STARTCHAR aacute
ENCODING 225
SWIDTH 600 0
DWIDTH 7 0
BBX 6 9 0 0
BITMAP
08
10
00
78
04
7C
88
88
74
ENDCHAR
STARTCHAR acircumflex
ENCODING 226
SWIDTH 600 0
DWIDTH 7 0
BBX 6 9 0 0
BITMAP
10
28
00
78
04
7C
88
88
74
ENDCHAR
STARTCHAR atilde
ENCODING 227
SWIDTH 600 0
DWIDTH 7 0
BBX 6 9 0 0
BITMAP
14
28
00
78
04
7C
88
88
74
ENDCHAR
STARTCHAR adieresis
ENCODING 228
SWIDTH 600 0
DWIDTH 7 0
BBX 6 8 0 0
BITMAP
28
00
78
04
7C
88
88
74
ENDCHAR
STARTCHAR aring
ENCODING 229
SWIDTH 600 0
DWIDTH 7 0
BBX 6 10 0 0
BITMAP
10
28
10
00
78
04
7C
88
88
74
ENDCHAR
STARTCHAR ae
ENCODING 230
SWIDTH 600 0
DWIDTH 7 0
BBX 8 6 -1 0
BITMAP
76
09
7F
90
92
6C
ENDCHAR
STARTCHAR ccedilla
ENCODING 231
SWIDTH 600 0
DWIDTH 7 0
BBX 6 9 0 -3
BITMAP
38
44
80
80
88
70
20
10
60
ENDCHAR
STARTCHAR egrave
ENCODING 232
SWIDTH 600 0
DWIDTH 7 0
BBX 6 9 0 0
BITMAP
20
10
00
38
44
FC
80
88
70
ENDCHAR
STARTCHAR eacute
ENCODING 233
SWIDTH 600 0
DWIDTH 7 0
BBX 6 9 0 0
BITMAP
08
10
00
38
44
FC
80
88
70
ENDCHAR
STARTCHAR ecircumflex
ENCODING 234
SWIDTH 600 0
DWIDTH 7 0
BBX 6 9 0 0
BITMAP
10
28
00
38
44
FC
80
88
70
ENDCHAR
STARTCHAR edieresis
ENCODING 235
SWIDTH 600 0
DWIDTH 7 0
BBX 6 8 0 0
BITMAP
28
00
38
44
FC
80
88
70
ENDCHAR
STARTCHAR igrave
ENCODING 236
SWIDTH 600 0
DWIDTH 7 0
BBX 5 9 0 0
BITMAP
20
10
00
38
10
10
20
20
F8
ENDCHAR
STARTCHAR iacute
ENCODING 237
SWIDTH 600 0
DWIDTH 7 0
BBX 5 9 0 0
BITMAP
08
10
00
38
10
10
20
20
F8
ENDCHAR
STARTCHAR icircumflex
ENCODING 238
SWIDTH 600 0
DWIDTH 7 0
BBX 5 9 0 0
BITMAP
10
28
00
38
10
10
20
20
F8
ENDCHAR
STARTCHAR idieresis
ENCODING 239
SWIDTH 600 0
DWIDTH 7 0
BBX 5 8 0 0
BITMAP
28
00
38
10
10
20
20
F8
ENDCHAR
STARTCHAR eth
ENCODING 240
SWIDTH 600 0
DWIDTH 7 0
BBX 6 10 0 0
BITMAP
60
14
38
48
3C
44
84
84
88
70
ENDCHAR
STARTCHAR ntilde
ENCODING 241
SWIDTH 600 0
DWIDTH 7 0
BBX 7 9 -1 0
BITMAP
0A
14
00
5C
22
22
42
44
E6
ENDCHAR
STARTCHAR ograve
ENCODING 242
SWIDTH 600 0
DWIDTH 7 0
BBX 6 9 0 0
BITMAP
20
10
00
38
44
84
84
88
70
ENDCHAR
STARTCHAR oacute
ENCODING 243
SWIDTH 600 0
DWIDTH 7 0
BBX 6 9 0 0
BITMAP
08
10
00
38
44
84
84
88
70
ENDCHAR
STARTCHAR ocircumflex
ENCODING 244
SWIDTH 600 0
DWIDTH 7 0
BBX 6 9 0 0
BITMAP
10
28
00
38
44
84
84
88
70
ENDCHAR
STARTCHAR otilde
ENCODING 245
SWIDTH 600 0
DWIDTH 7 0
BBX 6 9 0 0
BITMAP
14
28
00
38
44
84
84
88
70
ENDCHAR
STARTCHAR odieresis
ENCODING 246
SWIDTH 600 0
DWIDTH 7 0
BBX 6 8 0 0
BITMAP
28
00
38
44
84
84
88
70
ENDCHAR
STARTCHAR divide
ENCODING 247
SWIDTH 600 0
DWIDTH 7 0
BBX 4 5 1 1
BITMAP
20
00
F0
00
40
ENDCHAR
STARTCHAR oslash
ENCODING 248
SWIDTH 600 0
DWIDTH 7 0
BBX 6 8 0 -1
BITMAP
04
38
4C
94
A4
C8
70
80
ENDCHAR
STARTCHAR ugrave
ENCODING 249
SWIDTH 600 0
DWIDTH 7 0
BBX 6 9 0 0
BITMAP
20
10
00
CC
44
48
88
88
74
ENDCHAR
STARTCHAR uacute
ENCODING 250
SWIDTH 600 0
DWIDTH 7 0
BBX 6 9 0 0
BITMAP
08
10
00
CC
44
48
88
88
74
ENDCHAR
STARTCHAR ucircumflex
ENCODING 251
SWIDTH 600 0
DWIDTH 7 0
BBX 6 9 0 0
BITMAP
10
28
00
CC
44
48
88
88
74
ENDCHAR
STARTCHAR udieresis
ENCODING 252
SWIDTH 600 0
DWIDTH 7 0
BBX 6 8 0 0
BITMAP
28
00
CC
44
48
88
88
74
ENDCHAR
STARTCHAR yacute
ENCODING 253
SWIDTH 600 0
DWIDTH 7 0
BBX 8 12 -1 -3
BITMAP
04
08
00
77
22
24
24
18
10
10
20
F0
ENDCHAR
STARTCHAR thorn
ENCODING 254
SWIDTH 600 0
DWIDTH 7 0
BBX 8 12 -2 -3
BITMAP
18
08
08
1E
11
11
21
22
3C
40
40
E0
ENDCHAR
STARTCHAR ydieresis
ENCODING 255
SWIDTH 600 0
DWIDTH 7 0
BBX 8 11 -1 -3
BITMAP
14
00
77
22
24
24
18
10
10
20
F0
ENDCHAR
ENDFONT
