STARTFONT 2.1
COMMENT AUTOMATICALLY GENERATED FILE. DO NOT EDIT!
COMMENT Generated with 'ucs2any.pl courBO14.bdf ../../../fonts/util/map-ISO8859-1 ISO8859-1'
COMMENT from an ISO10646-1 encoded source BDF font.
COMMENT ucs2any.pl by Markus Kuhn <mkuhn@acm.org>, 2000.
FONT -Adobe-Courier-Bold-O-Normal--14-140-75-75-M-90-ISO8859-1
SIZE 14 75 75
FONTBOUNDINGBOX 12 16 -1 -4
COMMENT $Xorg: $
COMMENT ISO10646-1 extension by Markus Kuhn <mkuhn@acm.org>, 2001-03-20
COMMENT 
COMMENT +
COMMENT  Copyright 1984-1989, 1994 Adobe Systems Incorporated.
COMMENT  Copyright 1988, 1994 Digital Equipment Corporation.
COMMENT
COMMENT  Adobe is a trademark of Adobe Systems Incorporated which may be
COMMENT  registered in certain jurisdictions.
COMMENT  Permission to use these trademarks is hereby granted only in
COMMENT  association with the images described in this file.
COMMENT
COMMENT  Permission to use, copy, modify, distribute and sell this software
COMMENT  and its documentation for any purpose and without fee is hereby
COMMENT  granted, provided that the above copyright notices appear in all
COMMENT  copies and that both those copyright notices and this permission
COMMENT  notice appear in supporting documentation, and that the names of
COMMENT  Adobe Systems and Digital Equipment Corporation not be used in
COMMENT  advertising or publicity pertaining to distribution of the software
COMMENT  without specific, written prior permission.  Adobe Systems and
COMMENT  Digital Equipment Corporation make no representations about the
COMMENT  suitability of this software for any purpose.  It is provided "as
COMMENT  is" without express or implied warranty.
COMMENT -
STARTPROPERTIES 26
FOUNDRY "Adobe"
FAMILY_NAME "Courier"
WEIGHT_NAME "Bold"
SLANT "O"
SETWIDTH_NAME "Normal"
ADD_STYLE_NAME ""
PIXEL_SIZE 14
POINT_SIZE 140
RESOLUTION_X 75
RESOLUTION_Y 75
SPACING "M"
AVERAGE_WIDTH 90
CHARSET_REGISTRY "ISO8859"
CHARSET_ENCODING "1"
CAP_HEIGHT 9
X_HEIGHT 7
FONT_ASCENT 12
FONT_DESCENT 3
FACE_NAME "Courier Bold Oblique"
COPYRIGHT "Copyright (c) 1984, 1987 Adobe Systems Incorporated. All Rights Reserved. Copyright (c) 1988, 1991 Digital Equipment Corporation. All Rights Reserved."
NOTICE "No mark"
_DEC_DEVICE_FONTNAMES "PS=Courier-BoldOblique"
DEFAULT_CHAR 0
RELATIVE_SETWIDTH 50
RELATIVE_WEIGHT 70
FULL_NAME "Courier Bold Oblique"
ENDPROPERTIES
CHARS 192
STARTCHAR defaultchar
ENCODING 0
SWIDTH 600 0
DWIDTH 9 0
BBX 11 9 0 0
BITMAP
AAA0
0000
8020
0000
8020
0000
8020
0000
AAA0
ENDCHAR
STARTCHAR space
ENCODING 32
SWIDTH 600 0
DWIDTH 9 0
BBX 1 1 0 0
BITMAP
00
ENDCHAR
STARTCHAR exclam
ENCODING 33
SWIDTH 600 0
DWIDTH 9 0
BBX 4 10 3 0
BITMAP
30
30
30
30
60
60
40
00
C0
C0
ENDCHAR
STARTCHAR quotedbl
ENCODING 34
SWIDTH 600 0
DWIDTH 9 0
BBX 6 4 3 5
BITMAP
6C
6C
D8
90
ENDCHAR
STARTCHAR numbersign
ENCODING 35
SWIDTH 600 0
DWIDTH 9 0
BBX 7 9 2 0
BITMAP
14
14
7E
28
28
FC
50
50
50
ENDCHAR
STARTCHAR dollar
ENCODING 36
SWIDTH 600 0
DWIDTH 9 0
BBX 8 12 1 -2
BITMAP
0C
0D
1F
33
31
18
0C
C6
C6
BC
30
30
ENDCHAR
STARTCHAR percent
ENCODING 37
SWIDTH 600 0
DWIDTH 9 0
BBX 7 10 2 0
BITMAP
60
90
90
66
18
20
CC
12
12
0C
ENDCHAR
STARTCHAR ampersand
ENCODING 38
SWIDTH 600 0
DWIDTH 9 0
BBX 8 9 1 0
BITMAP
1E
32
30
30
78
DB
CC
CC
73
ENDCHAR
STARTCHAR quotesingle
ENCODING 39
SWIDTH 600 0
DWIDTH 9 0
BBX 3 4 4 5
BITMAP
60
60
C0
C0
ENDCHAR
STARTCHAR parenleft
ENCODING 40
SWIDTH 600 0
DWIDTH 9 0
BBX 6 12 4 -2
BITMAP
0C
18
30
60
60
C0
C0
C0
C0
C0
C0
60
ENDCHAR
STARTCHAR parenright
ENCODING 41
SWIDTH 600 0
DWIDTH 9 0
BBX 6 12 1 -2
BITMAP
18
0C
0C
0C
0C
0C
0C
18
18
30
60
C0
ENDCHAR
STARTCHAR asterisk
ENCODING 42
SWIDTH 600 0
DWIDTH 9 0
BBX 6 5 3 4
BITMAP
10
54
7C
30
D8
ENDCHAR
STARTCHAR plus
ENCODING 43
SWIDTH 600 0
DWIDTH 9 0
BBX 7 7 2 1
BITMAP
08
08
10
FE
10
20
20
ENDCHAR
STARTCHAR comma
ENCODING 44
SWIDTH 600 0
DWIDTH 9 0
BBX 3 4 2 -2
BITMAP
60
60
C0
80
ENDCHAR
STARTCHAR hyphen
ENCODING 45
SWIDTH 600 0
DWIDTH 9 0
BBX 6 1 2 4
BITMAP
FC
ENDCHAR
STARTCHAR period
ENCODING 46
SWIDTH 600 0
DWIDTH 9 0
BBX 2 2 3 0
BITMAP
C0
C0
ENDCHAR
STARTCHAR slash
ENCODING 47
SWIDTH 600 0
DWIDTH 9 0
BBX 11 12 -1 -2
BITMAP
0060
00C0
0180
0300
0300
0600
0C00
1800
1800
3000
6000
C000
ENDCHAR
STARTCHAR zero
ENCODING 48
SWIDTH 600 0
DWIDTH 9 0
BBX 7 10 2 0
BITMAP
1C
3E
66
46
C6
C6
CC
CC
F8
70
ENDCHAR
STARTCHAR one
ENCODING 49
SWIDTH 600 0
DWIDTH 9 0
BBX 6 10 2 0
BITMAP
0C
3C
0C
18
18
18
18
30
30
FC
ENDCHAR
STARTCHAR two
ENCODING 50
SWIDTH 600 0
DWIDTH 9 0
BBX 8 10 1 0
BITMAP
1E
33
33
07
0E
3C
70
E0
C0
FC
ENDCHAR
STARTCHAR three
ENCODING 51
SWIDTH 600 0
DWIDTH 9 0
BBX 8 10 1 0
BITMAP
1E
33
03
06
3C
0E
06
06
CC
78
ENDCHAR
STARTCHAR four
ENCODING 52
SWIDTH 600 0
DWIDTH 9 0
BBX 8 10 1 0
BITMAP
03
07
0F
1A
36
66
FF
0C
0C
1E
ENDCHAR
STARTCHAR five
ENCODING 53
SWIDTH 600 0
DWIDTH 9 0
BBX 8 10 2 0
BITMAP
1F
18
30
3C
66
06
06
06
CC
78
ENDCHAR
STARTCHAR six
ENCODING 54
SWIDTH 600 0
DWIDTH 9 0
BBX 8 10 2 0
BITMAP
0F
18
30
6C
76
C6
C6
C6
CC
78
ENDCHAR
STARTCHAR seven
ENCODING 55
SWIDTH 600 0
DWIDTH 9 0
BBX 6 10 3 0
BITMAP
FC
FC
8C
18
30
30
60
60
C0
C0
ENDCHAR
STARTCHAR eight
ENCODING 56
SWIDTH 600 0
DWIDTH 9 0
BBX 8 10 2 0
BITMAP
1E
33
63
66
3C
66
C6
C6
CC
78
ENDCHAR
STARTCHAR nine
ENCODING 57
SWIDTH 600 0
DWIDTH 9 0
BBX 8 10 1 0
BITMAP
1E
33
63
63
67
3E
0C
0C
38
E0
ENDCHAR
STARTCHAR colon
ENCODING 58
SWIDTH 600 0
DWIDTH 9 0
BBX 3 7 3 0
BITMAP
60
60
00
00
00
C0
C0
ENDCHAR
STARTCHAR semicolon
ENCODING 59
SWIDTH 600 0
DWIDTH 9 0
BBX 4 9 2 -2
BITMAP
30
30
00
00
00
60
60
C0
80
ENDCHAR
STARTCHAR less
ENCODING 60
SWIDTH 600 0
DWIDTH 9 0
BBX 8 7 1 1
BITMAP
07
1C
70
C0
70
1C
06
ENDCHAR
STARTCHAR equal
ENCODING 61
SWIDTH 600 0
DWIDTH 9 0
BBX 8 4 1 2
BITMAP
7F
00
00
FE
ENDCHAR
STARTCHAR greater
ENCODING 62
SWIDTH 600 0
DWIDTH 9 0
BBX 8 7 1 1
BITMAP
60
38
0E
03
0E
38
E0
ENDCHAR
STARTCHAR question
ENCODING 63
SWIDTH 600 0
DWIDTH 9 0
BBX 6 9 3 0
BITMAP
78
CC
8C
18
30
60
00
C0
C0
ENDCHAR
STARTCHAR at
ENCODING 64
SWIDTH 600 0
DWIDTH 9 0
BBX 8 9 2 0
BITMAP
0E
31
27
4A
52
94
9E
C0
78
ENDCHAR
STARTCHAR A
ENCODING 65
SWIDTH 600 0
DWIDTH 9 0
BBX 9 9 0 0
BITMAP
0F00
0700
0F00
1B00
1B00
3300
7F00
6300
F780
ENDCHAR
STARTCHAR B
ENCODING 66
SWIDTH 600 0
DWIDTH 9 0
BBX 10 9 0 0
BITMAP
3F80
18C0
18C0
3180
3F00
3180
6180
6300
FE00
ENDCHAR
STARTCHAR C
ENCODING 67
SWIDTH 600 0
DWIDTH 9 0
BBX 8 9 1 0
BITMAP
1D
37
63
60
C0
C0
C0
CC
78
ENDCHAR
STARTCHAR D
ENCODING 68
SWIDTH 600 0
DWIDTH 9 0
BBX 10 9 0 0
BITMAP
3F80
18C0
18C0
30C0
30C0
3180
6180
6700
FE00
ENDCHAR
STARTCHAR E
ENCODING 69
SWIDTH 600 0
DWIDTH 9 0
BBX 10 9 0 0
BITMAP
3FC0
18C0
18C0
3400
3C00
3400
6300
6300
FF00
ENDCHAR
STARTCHAR F
ENCODING 70
SWIDTH 600 0
DWIDTH 9 0
BBX 10 9 0 0
BITMAP
3FC0
18C0
18C0
3400
3C00
3400
6000
6000
F800
ENDCHAR
STARTCHAR G
ENCODING 71
SWIDTH 600 0
DWIDTH 9 0
BBX 9 9 1 0
BITMAP
1E80
3380
6180
6000
C000
CF80
C600
CE00
7C00
ENDCHAR
STARTCHAR H
ENCODING 72
SWIDTH 600 0
DWIDTH 9 0
BBX 11 9 0 0
BITMAP
3DE0
18C0
18C0
3180
3F80
3180
6300
6300
F780
ENDCHAR
STARTCHAR I
ENCODING 73
SWIDTH 600 0
DWIDTH 9 0
BBX 8 9 1 0
BITMAP
3F
0C
0C
18
18
18
30
30
FC
ENDCHAR
STARTCHAR J
ENCODING 74
SWIDTH 600 0
DWIDTH 9 0
BBX 10 9 0 0
BITMAP
03C0
0180
0180
0300
0300
6300
C600
C600
7C00
ENDCHAR
STARTCHAR K
ENCODING 75
SWIDTH 600 0
DWIDTH 9 0
BBX 10 9 0 0
BITMAP
3DC0
1980
1B00
3600
3C00
3600
6600
6300
F380
ENDCHAR
STARTCHAR L
ENCODING 76
SWIDTH 600 0
DWIDTH 9 0
BBX 9 9 0 0
BITMAP
3E00
1800
1800
3000
3000
3180
6180
6300
FF00
ENDCHAR
STARTCHAR M
ENCODING 77
SWIDTH 600 0
DWIDTH 9 0
BBX 11 9 0 0
BITMAP
38E0
18C0
19C0
3B80
3580
3580
6300
6300
F780
ENDCHAR
STARTCHAR N
ENCODING 78
SWIDTH 600 0
DWIDTH 9 0
BBX 11 9 0 0
BITMAP
39E0
18C0
18C0
3580
3580
3580
6300
6300
F300
ENDCHAR
STARTCHAR O
ENCODING 79
SWIDTH 600 0
DWIDTH 9 0
BBX 9 9 1 0
BITMAP
1F00
3180
6180
6180
C180
C300
C300
C600
7C00
ENDCHAR
STARTCHAR P
ENCODING 80
SWIDTH 600 0
DWIDTH 9 0
BBX 10 9 0 0
BITMAP
3F80
18C0
18C0
30C0
3180
3F00
6000
6000
F800
ENDCHAR
STARTCHAR Q
ENCODING 81
SWIDTH 600 0
DWIDTH 9 0
BBX 10 11 0 -2
BITMAP
0F80
18C0
30C0
30C0
60C0
6180
6180
6300
3E00
7900
DE00
ENDCHAR
STARTCHAR R
ENCODING 82
SWIDTH 600 0
DWIDTH 9 0
BBX 10 9 0 0
BITMAP
3F80
18C0
18C0
30C0
3180
3F00
6600
6300
F380
ENDCHAR
STARTCHAR S
ENCODING 83
SWIDTH 600 0
DWIDTH 9 0
BBX 9 9 1 0
BITMAP
1E80
3380
3180
3800
1E00
0700
C300
E600
BC00
ENDCHAR
STARTCHAR T
ENCODING 84
SWIDTH 600 0
DWIDTH 9 0
BBX 8 9 2 0
BITMAP
FF
DB
DB
30
30
30
60
60
F0
ENDCHAR
STARTCHAR U
ENCODING 85
SWIDTH 600 0
DWIDTH 9 0
BBX 10 9 1 0
BITMAP
7BC0
3180
3180
6300
6300
6300
C600
C600
7C00
ENDCHAR
STARTCHAR V
ENCODING 86
SWIDTH 600 0
DWIDTH 9 0
BBX 9 9 2 0
BITMAP
F780
6300
6600
6600
6C00
6C00
6800
7800
7000
ENDCHAR
STARTCHAR W
ENCODING 87
SWIDTH 600 0
DWIDTH 9 0
BBX 10 9 1 0
BITMAP
7BC0
3180
3580
6B00
6B00
7700
E600
C600
C600
ENDCHAR
STARTCHAR X
ENCODING 88
SWIDTH 600 0
DWIDTH 9 0
BBX 10 9 0 0
BITMAP
39C0
1980
1B00
0E00
0C00
1C00
3600
6600
E700
ENDCHAR
STARTCHAR Y
ENCODING 89
SWIDTH 600 0
DWIDTH 9 0
BBX 10 9 1 0
BITMAP
F3C0
6180
6300
3600
3C00
1800
3000
3000
FC00
ENDCHAR
STARTCHAR Z
ENCODING 90
SWIDTH 600 0
DWIDTH 9 0
BBX 9 9 0 0
BITMAP
3F80
3180
3300
0600
0C00
1800
3300
6300
FF00
ENDCHAR
STARTCHAR bracketleft
ENCODING 91
SWIDTH 600 0
DWIDTH 9 0
BBX 7 12 2 -2
BITMAP
1E
18
18
30
30
30
30
60
60
60
C0
F0
ENDCHAR
STARTCHAR backslash
ENCODING 92
SWIDTH 600 0
DWIDTH 9 0
BBX 5 12 4 -2
BITMAP
C0
C0
40
60
60
20
30
30
10
10
18
18
ENDCHAR
STARTCHAR bracketright
ENCODING 93
SWIDTH 600 0
DWIDTH 9 0
BBX 7 12 1 -2
BITMAP
1E
06
06
0C
0C
0C
0C
18
18
18
30
F0
ENDCHAR
STARTCHAR asciicircum
ENCODING 94
SWIDTH 600 0
DWIDTH 9 0
BBX 5 4 3 5
BITMAP
18
38
68
C8
ENDCHAR
STARTCHAR underscore
ENCODING 95
SWIDTH 600 0
DWIDTH 9 0
BBX 9 1 0 -3
BITMAP
FF80
ENDCHAR
STARTCHAR grave
ENCODING 96
SWIDTH 600 0
DWIDTH 9 0
BBX 3 2 4 7
BITMAP
C0
60
ENDCHAR
STARTCHAR a
ENCODING 97
SWIDTH 600 0
DWIDTH 9 0
BBX 8 7 0 0
BITMAP
3E
03
03
7F
C6
CE
77
ENDCHAR
STARTCHAR b
ENCODING 98
SWIDTH 600 0
DWIDTH 9 0
BBX 9 10 0 0
BITMAP
1C00
0C00
1800
1F00
3980
3180
3180
6300
7300
EE00
ENDCHAR
STARTCHAR c
ENCODING 99
SWIDTH 600 0
DWIDTH 9 0
BBX 9 7 1 0
BITMAP
1E80
7300
6300
C000
C000
C600
7C00
ENDCHAR
STARTCHAR d
ENCODING 100
SWIDTH 600 0
DWIDTH 9 0
BBX 10 10 1 0
BITMAP
01C0
00C0
0180
1D80
7700
6300
C300
C600
CE00
7700
ENDCHAR
STARTCHAR e
ENCODING 101
SWIDTH 600 0
DWIDTH 9 0
BBX 8 7 1 0
BITMAP
1E
73
63
FF
C0
C6
7C
ENDCHAR
STARTCHAR f
ENCODING 102
SWIDTH 600 0
DWIDTH 9 0
BBX 8 10 2 0
BITMAP
0F
18
18
7E
30
30
30
60
60
F8
ENDCHAR
STARTCHAR g
ENCODING 103
SWIDTH 600 0
DWIDTH 9 0
BBX 10 10 1 -3
BITMAP
1DC0
7700
6300
C300
C600
CE00
7600
0C00
0C00
7800
ENDCHAR
STARTCHAR h
ENCODING 104
SWIDTH 600 0
DWIDTH 9 0
BBX 9 10 0 0
BITMAP
1C00
0C00
1800
1F00
3980
3180
3180
6300
6300
F780
ENDCHAR
STARTCHAR i
ENCODING 105
SWIDTH 600 0
DWIDTH 9 0
BBX 6 10 1 0
BITMAP
0C
0C
00
3C
18
18
18
30
30
FC
ENDCHAR
STARTCHAR j
ENCODING 106
SWIDTH 600 0
DWIDTH 9 0
BBX 8 13 -1 -3
BITMAP
03
03
00
1F
06
06
06
0C
0C
0C
18
18
F0
ENDCHAR
STARTCHAR k
ENCODING 107
SWIDTH 600 0
DWIDTH 9 0
BBX 9 10 0 0
BITMAP
3800
1800
1800
3380
3600
3C00
3800
6C00
6600
E700
ENDCHAR
STARTCHAR l
ENCODING 108
SWIDTH 600 0
DWIDTH 9 0
BBX 7 10 1 0
BITMAP
1E
06
0C
0C
18
18
18
30
30
FC
ENDCHAR
STARTCHAR m
ENCODING 109
SWIDTH 600 0
DWIDTH 9 0
BBX 10 7 -1 0
BITMAP
76C0
3B40
36C0
24C0
6480
6D80
EDC0
ENDCHAR
STARTCHAR n
ENCODING 110
SWIDTH 600 0
DWIDTH 9 0
BBX 9 7 0 0
BITMAP
7700
3980
3180
3180
6300
6300
F780
ENDCHAR
STARTCHAR o
ENCODING 111
SWIDTH 600 0
DWIDTH 9 0
BBX 8 7 1 0
BITMAP
1E
63
63
C3
C6
C6
78
ENDCHAR
STARTCHAR p
ENCODING 112
SWIDTH 600 0
DWIDTH 9 0
BBX 10 10 -1 -3
BITMAP
3B80
1CC0
18C0
18C0
3180
3980
3700
6000
6000
F000
ENDCHAR
STARTCHAR q
ENCODING 113
SWIDTH 600 0
DWIDTH 9 0
BBX 10 10 1 -3
BITMAP
1DC0
7700
6300
C300
C600
CE00
7600
0C00
0C00
1E00
ENDCHAR
STARTCHAR r
ENCODING 114
SWIDTH 600 0
DWIDTH 9 0
BBX 8 7 1 0
BITMAP
77
3B
30
30
60
60
F8
ENDCHAR
STARTCHAR s
ENCODING 115
SWIDTH 600 0
DWIDTH 9 0
BBX 8 7 1 0
BITMAP
3F
63
70
1C
C6
C6
BC
ENDCHAR
STARTCHAR t
ENCODING 116
SWIDTH 600 0
DWIDTH 9 0
BBX 7 10 2 0
BITMAP
30
30
30
FE
60
60
60
C0
CC
78
ENDCHAR
STARTCHAR u
ENCODING 117
SWIDTH 600 0
DWIDTH 9 0
BBX 9 7 1 0
BITMAP
7380
6300
6300
6300
C600
CE00
7700
ENDCHAR
STARTCHAR v
ENCODING 118
SWIDTH 600 0
DWIDTH 9 0
BBX 10 7 0 0
BITMAP
F3C0
6180
6300
3600
3400
1C00
1800
ENDCHAR
STARTCHAR w
ENCODING 119
SWIDTH 600 0
DWIDTH 9 0
BBX 11 7 0 0
BITMAP
F1E0
6CC0
6D80
6D80
7700
6600
6600
ENDCHAR
STARTCHAR x
ENCODING 120
SWIDTH 600 0
DWIDTH 9 0
BBX 10 7 0 0
BITMAP
79C0
3300
1E00
1C00
3400
6600
E700
ENDCHAR
STARTCHAR y
ENCODING 121
SWIDTH 600 0
DWIDTH 9 0
BBX 10 10 0 -3
BITMAP
79C0
3180
3300
3600
1C00
1800
1800
3000
3000
F800
ENDCHAR
STARTCHAR z
ENCODING 122
SWIDTH 600 0
DWIDTH 9 0
BBX 8 7 1 0
BITMAP
3F
46
0C
18
30
64
FC
ENDCHAR
STARTCHAR braceleft
ENCODING 123
SWIDTH 600 0
DWIDTH 9 0
BBX 6 12 4 -2
BITMAP
0C
18
30
30
60
C0
60
60
C0
C0
C0
60
ENDCHAR
STARTCHAR bar
ENCODING 124
SWIDTH 600 0
DWIDTH 9 0
BBX 6 12 2 -2
BITMAP
0C
0C
18
18
18
30
30
60
60
60
C0
C0
ENDCHAR
STARTCHAR braceright
ENCODING 125
SWIDTH 600 0
DWIDTH 9 0
BBX 6 12 1 -2
BITMAP
18
0C
0C
0C
18
18
0C
18
30
30
60
C0
ENDCHAR
STARTCHAR asciitilde
ENCODING 126
SWIDTH 600 0
DWIDTH 9 0
BBX 6 3 2 3
BITMAP
64
FC
98
ENDCHAR
STARTCHAR space
ENCODING 160
SWIDTH 600 0
DWIDTH 9 0
BBX 1 1 0 0
BITMAP
00
ENDCHAR
STARTCHAR exclamdown
ENCODING 161
SWIDTH 600 0
DWIDTH 9 0
BBX 4 10 2 -3
BITMAP
30
30
00
20
60
60
60
C0
C0
C0
ENDCHAR
STARTCHAR cent
ENCODING 162
SWIDTH 600 0
DWIDTH 9 0
BBX 8 10 2 -1
BITMAP
18
18
3D
66
C6
C0
CC
78
30
30
ENDCHAR
STARTCHAR sterling
ENCODING 163
SWIDTH 600 0
DWIDTH 9 0
BBX 9 9 1 0
BITMAP
0F00
1980
1800
1800
7C00
3000
3000
6600
FC00
ENDCHAR
STARTCHAR currency
ENCODING 164
SWIDTH 600 0
DWIDTH 9 0
BBX 9 6 1 1
BITMAP
3180
3F00
6300
6300
7E00
C600
ENDCHAR
STARTCHAR yen
ENCODING 165
SWIDTH 600 0
DWIDTH 9 0
BBX 10 9 1 0
BITMAP
F3C0
6180
3300
3600
7F00
1800
FC00
3000
FC00
ENDCHAR
STARTCHAR brokenbar
ENCODING 166
SWIDTH 600 0
DWIDTH 9 0
BBX 6 12 2 -2
BITMAP
0C
0C
18
18
18
00
00
60
60
60
C0
C0
ENDCHAR
STARTCHAR section
ENCODING 167
SWIDTH 600 0
DWIDTH 9 0
BBX 10 11 0 -1
BITMAP
0FC0
1880
1800
3C00
2600
3300
1900
0D00
0700
4600
FC00
ENDCHAR
STARTCHAR dieresis
ENCODING 168
SWIDTH 600 0
DWIDTH 9 0
BBX 5 1 4 8
BITMAP
D8
ENDCHAR
STARTCHAR copyright
ENCODING 169
SWIDTH 600 0
DWIDTH 9 0
BBX 10 9 0 0
BITMAP
0F00
3180
6EC0
72C0
D0C0
D380
DD80
6300
3C00
ENDCHAR
STARTCHAR ordfeminine
ENCODING 170
SWIDTH 600 0
DWIDTH 9 0
BBX 7 7 2 2
BITMAP
1C
06
1E
6C
74
00
F8
ENDCHAR
STARTCHAR guillemotleft
ENCODING 171
SWIDTH 600 0
DWIDTH 9 0
BBX 7 5 2 1
BITMAP
36
6C
D8
D8
6C
ENDCHAR
STARTCHAR logicalnot
ENCODING 172
SWIDTH 600 0
DWIDTH 9 0
BBX 7 3 1 3
BITMAP
FE
02
02
ENDCHAR
STARTCHAR hyphen
ENCODING 173
SWIDTH 600 0
DWIDTH 9 0
BBX 6 1 2 4
BITMAP
FC
ENDCHAR
STARTCHAR registered
ENCODING 174
SWIDTH 600 0
DWIDTH 9 0
BBX 10 9 0 0
BITMAP
0F00
3180
6EC0
6AC0
DCC0
D580
D580
6300
3C00
ENDCHAR
STARTCHAR macron
ENCODING 175
SWIDTH 600 0
DWIDTH 9 0
BBX 4 1 4 8
BITMAP
F0
ENDCHAR
STARTCHAR degree
ENCODING 176
SWIDTH 600 0
DWIDTH 9 0
BBX 4 4 3 5
BITMAP
70
90
90
E0
ENDCHAR
STARTCHAR plusminus
ENCODING 177
SWIDTH 600 0
DWIDTH 9 0
BBX 7 7 1 1
BITMAP
08
08
7E
10
10
00
FC
ENDCHAR
STARTCHAR twosuperior
ENCODING 178
SWIDTH 600 0
DWIDTH 9 0
BBX 6 6 2 3
BITMAP
38
6C
0C
38
60
F8
ENDCHAR
STARTCHAR threesuperior
ENCODING 179
SWIDTH 600 0
DWIDTH 9 0
BBX 6 6 2 3
BITMAP
38
4C
30
18
D8
70
ENDCHAR
STARTCHAR acute
ENCODING 180
SWIDTH 600 0
DWIDTH 9 0
BBX 3 2 5 7
BITMAP
60
C0
ENDCHAR
STARTCHAR mu
ENCODING 181
SWIDTH 600 0
DWIDTH 9 0
BBX 10 10 0 -3
BITMAP
39C0
3180
3180
3180
6300
6700
7B80
C000
C000
C000
ENDCHAR
STARTCHAR paragraph
ENCODING 182
SWIDTH 600 0
DWIDTH 9 0
BBX 9 11 2 -1
BITMAP
3F80
6A00
CA00
CA00
D400
7400
1400
2800
2800
2800
FC00
ENDCHAR
STARTCHAR periodcentered
ENCODING 183
SWIDTH 600 0
DWIDTH 9 0
BBX 2 2 4 3
BITMAP
C0
C0
ENDCHAR
STARTCHAR cedilla
ENCODING 184
SWIDTH 600 0
DWIDTH 9 0
BBX 3 4 1 -3
BITMAP
20
60
20
E0
ENDCHAR
STARTCHAR onesuperior
ENCODING 185
SWIDTH 600 0
DWIDTH 9 0
BBX 4 6 3 3
BITMAP
30
F0
20
60
60
F0
ENDCHAR
STARTCHAR ordmasculine
ENCODING 186
SWIDTH 600 0
DWIDTH 9 0
BBX 7 7 2 2
BITMAP
1C
26
66
64
38
00
F8
ENDCHAR
STARTCHAR guillemotright
ENCODING 187
SWIDTH 600 0
DWIDTH 9 0
BBX 8 5 1 1
BITMAP
6C
36
1B
6C
D8
ENDCHAR
STARTCHAR onequarter
ENCODING 188
SWIDTH 600 0
DWIDTH 9 0
BBX 10 11 0 -1
BITMAP
3000
F040
2080
6100
6200
F480
0980
1380
2500
4F80
0300
ENDCHAR
STARTCHAR onehalf
ENCODING 189
SWIDTH 600 0
DWIDTH 9 0
BBX 10 11 0 -1
BITMAP
3000
F040
2080
6100
6200
F580
0AC0
10C0
2380
4600
0F80
ENDCHAR
STARTCHAR threequarters
ENCODING 190
SWIDTH 600 0
DWIDTH 9 0
BBX 10 11 0 -1
BITMAP
3800
4C40
3080
1900
DA00
7480
0980
1380
2500
4F80
0300
ENDCHAR
STARTCHAR questiondown
ENCODING 191
SWIDTH 600 0
DWIDTH 9 0
BBX 7 9 1 -2
BITMAP
06
06
00
0C
38
60
C6
CC
78
ENDCHAR
STARTCHAR Agrave
ENCODING 192
SWIDTH 600 0
DWIDTH 9 0
BBX 9 12 0 0
BITMAP
0600
0300
0000
1F00
0700
0F00
1B00
1B00
3300
7F00
6300
F780
ENDCHAR
STARTCHAR Aacute
ENCODING 193
SWIDTH 600 0
DWIDTH 9 0
BBX 9 12 0 0
BITMAP
0180
0300
0000
1F00
0700
0F00
1B00
1B00
3300
7F00
6300
F780
ENDCHAR
STARTCHAR Acircumflex
ENCODING 194
SWIDTH 600 0
DWIDTH 9 0
BBX 9 12 0 0
BITMAP
0300
0680
0000
1F00
0700
0F00
1B00
1B00
3300
7F00
6300
F780
ENDCHAR
STARTCHAR Atilde
ENCODING 195
SWIDTH 600 0
DWIDTH 9 0
BBX 10 12 0 0
BITMAP
0340
0580
0000
1F00
0700
0F00
1B00
1B00
3300
7F00
6300
F780
ENDCHAR
STARTCHAR Adieresis
ENCODING 196
SWIDTH 600 0
DWIDTH 9 0
BBX 10 11 0 0
BITMAP
0CC0
0000
1F00
0700
0F00
1B00
1B00
3300
7F00
6300
F780
ENDCHAR
STARTCHAR Aring
ENCODING 197
SWIDTH 600 0
DWIDTH 9 0
BBX 9 12 0 0
BITMAP
0300
0500
0200
0F00
0700
0F00
1B00
1B00
3300
7F00
6300
F780
ENDCHAR
STARTCHAR AE
ENCODING 198
SWIDTH 600 0
DWIDTH 9 0
BBX 12 9 -1 0
BITMAP
0FF0
07B0
0F80
0B40
1BC0
3340
3E00
66C0
EFC0
ENDCHAR
STARTCHAR Ccedilla
ENCODING 199
SWIDTH 600 0
DWIDTH 9 0
BBX 8 13 2 -4
BITMAP
1D
37
63
60
C0
C0
C0
CC
78
40
60
20
E0
ENDCHAR
STARTCHAR Egrave
ENCODING 200
SWIDTH 600 0
DWIDTH 9 0
BBX 10 12 0 0
BITMAP
0600
0300
0000
3FC0
18C0
18C0
3400
3C00
3400
6300
6300
FF00
ENDCHAR
STARTCHAR Eacute
ENCODING 201
SWIDTH 600 0
DWIDTH 9 0
BBX 10 12 0 0
BITMAP
0300
0600
0000
3FC0
18C0
18C0
3400
3C00
3400
6300
6300
FF00
ENDCHAR
STARTCHAR Ecircumflex
ENCODING 202
SWIDTH 600 0
DWIDTH 9 0
BBX 10 12 0 0
BITMAP
0300
0680
0000
3FC0
18C0
18C0
3400
3C00
3400
6300
6300
FF00
ENDCHAR
STARTCHAR Edieresis
ENCODING 203
SWIDTH 600 0
DWIDTH 9 0
BBX 10 11 0 0
BITMAP
0D80
0000
3FC0
18C0
18C0
3400
3C00
3400
6300
6300
FF00
ENDCHAR
STARTCHAR Igrave
ENCODING 204
SWIDTH 600 0
DWIDTH 9 0
BBX 8 12 1 0
BITMAP
0C
06
00
3F
0C
0C
18
18
18
30
30
FC
ENDCHAR
STARTCHAR Iacute
ENCODING 205
SWIDTH 600 0
DWIDTH 9 0
BBX 8 12 1 0
BITMAP
03
06
00
3F
0C
0C
18
18
18
30
30
FC
ENDCHAR
STARTCHAR Icircumflex
ENCODING 206
SWIDTH 600 0
DWIDTH 9 0
BBX 8 12 1 0
BITMAP
06
0D
00
3F
0C
0C
18
18
18
30
30
FC
ENDCHAR
STARTCHAR Idieresis
ENCODING 207
SWIDTH 600 0
DWIDTH 9 0
BBX 9 11 1 0
BITMAP
1980
0000
3F00
0C00
0C00
1800
1800
1800
3000
3000
FC00
ENDCHAR
STARTCHAR Eth
ENCODING 208
SWIDTH 600 0
DWIDTH 9 0
BBX 10 9 0 0
BITMAP
3F80
18C0
18C0
30C0
7CC0
3180
6180
6700
FE00
ENDCHAR
STARTCHAR Ntilde
ENCODING 209
SWIDTH 600 0
DWIDTH 9 0
BBX 11 12 0 0
BITMAP
0340
0580
0000
39E0
18C0
18C0
3580
3580
3580
6300
6300
F300
ENDCHAR
STARTCHAR Ograve
ENCODING 210
SWIDTH 600 0
DWIDTH 9 0
BBX 9 12 1 0
BITMAP
0600
0300
0000
1F00
3180
6180
6180
C180
C300
C300
C600
7C00
ENDCHAR
STARTCHAR Oacute
ENCODING 211
SWIDTH 600 0
DWIDTH 9 0
BBX 9 12 1 0
BITMAP
0300
0600
0000
1F00
3180
6180
6180
C180
C300
C300
C600
7C00
ENDCHAR
STARTCHAR Ocircumflex
ENCODING 212
SWIDTH 600 0
DWIDTH 9 0
BBX 9 12 1 0
BITMAP
0600
0D00
0000
1F00
3180
6180
6180
C180
C300
C300
C600
7C00
ENDCHAR
STARTCHAR Otilde
ENCODING 213
SWIDTH 600 0
DWIDTH 9 0
BBX 9 12 1 0
BITMAP
0680
0B00
0000
1F00
3180
6180
6180
C180
C300
C300
C600
7C00
ENDCHAR
STARTCHAR Odieresis
ENCODING 214
SWIDTH 600 0
DWIDTH 9 0
BBX 9 11 1 0
BITMAP
1980
0000
1F00
3180
6180
6180
C180
C300
C300
C600
7C00
ENDCHAR
STARTCHAR multiply
ENCODING 215
SWIDTH 600 0
DWIDTH 9 0
BBX 7 7 2 1
BITMAP
42
66
3C
10
78
CC
84
ENDCHAR
STARTCHAR Oslash
ENCODING 216
SWIDTH 600 0
DWIDTH 9 0
BBX 11 9 0 0
BITMAP
0FA0
18C0
31C0
32C0
64C0
6980
7180
6300
BE00
ENDCHAR
STARTCHAR Ugrave
ENCODING 217
SWIDTH 600 0
DWIDTH 9 0
BBX 10 12 1 0
BITMAP
0C00
0600
0000
7BC0
3180
3180
6300
6300
6300
C600
C600
7C00
ENDCHAR
STARTCHAR Uacute
ENCODING 218
SWIDTH 600 0
DWIDTH 9 0
BBX 10 12 1 0
BITMAP
0300
0600
0000
7BC0
3180
3180
6300
6300
6300
C600
C600
7C00
ENDCHAR
STARTCHAR Ucircumflex
ENCODING 219
SWIDTH 600 0
DWIDTH 9 0
BBX 10 12 1 0
BITMAP
0600
0D00
0000
7BC0
3180
3180
6300
6300
6300
C600
C600
7C00
ENDCHAR
STARTCHAR Udieresis
ENCODING 220
SWIDTH 600 0
DWIDTH 9 0
BBX 10 11 1 0
BITMAP
1980
0000
7BC0
3180
3180
6300
6300
6300
C600
C600
7C00
ENDCHAR
STARTCHAR Yacute
ENCODING 221
SWIDTH 600 0
DWIDTH 9 0
BBX 10 12 1 0
BITMAP
0600
0C00
0000
F3C0
6180
6300
3600
3C00
1800
3000
3000
FC00
ENDCHAR
STARTCHAR Thorn
ENCODING 222
SWIDTH 600 0
DWIDTH 9 0
BBX 10 9 0 0
BITMAP
3C00
1800
1F80
30C0
30C0
3180
7F00
6000
F000
ENDCHAR
STARTCHAR germandbls
ENCODING 223
SWIDTH 600 0
DWIDTH 9 0
BBX 9 10 0 0
BITMAP
0F00
1980
1980
3180
3700
3300
3180
6180
6B00
EE00
ENDCHAR
STARTCHAR agrave
ENCODING 224
SWIDTH 600 0
DWIDTH 9 0
BBX 8 10 1 0
BITMAP
0C
06
00
3E
03
03
7F
C6
CE
77
ENDCHAR
STARTCHAR aacute
ENCODING 225
SWIDTH 600 0
DWIDTH 9 0
BBX 8 10 1 0
BITMAP
03
06
00
3E
03
03
7F
C6
CE
77
ENDCHAR
STARTCHAR acircumflex
ENCODING 226
SWIDTH 600 0
DWIDTH 9 0
BBX 8 11 1 0
BITMAP
06
0D
19
00
3E
03
03
7F
C6
CE
77
ENDCHAR
STARTCHAR atilde
ENCODING 227
SWIDTH 600 0
DWIDTH 9 0
BBX 8 10 1 0
BITMAP
0D
16
00
3E
03
03
7F
C6
CE
77
ENDCHAR
STARTCHAR adieresis
ENCODING 228
SWIDTH 600 0
DWIDTH 9 0
BBX 8 9 1 0
BITMAP
1B
00
3E
03
03
7F
C6
CE
77
ENDCHAR
STARTCHAR aring
ENCODING 229
SWIDTH 600 0
DWIDTH 9 0
BBX 8 11 1 0
BITMAP
06
0A
04
00
3E
03
03
7F
C6
CE
77
ENDCHAR
STARTCHAR ae
ENCODING 230
SWIDTH 600 0
DWIDTH 9 0
BBX 9 7 0 0
BITMAP
7B00
0D80
0D80
7F80
D800
DB00
EE00
ENDCHAR
STARTCHAR ccedilla
ENCODING 231
SWIDTH 600 0
DWIDTH 9 0
BBX 9 11 1 -4
BITMAP
1E80
7300
6300
C000
C000
C600
7C00
4000
6000
2000
E000
ENDCHAR
STARTCHAR egrave
ENCODING 232
SWIDTH 600 0
DWIDTH 9 0
BBX 8 10 1 0
BITMAP
0C
06
00
1E
73
63
FF
C0
C6
7C
ENDCHAR
STARTCHAR eacute
ENCODING 233
SWIDTH 600 0
DWIDTH 9 0
BBX 8 10 1 0
BITMAP
03
06
00
1E
73
63
FF
C0
C6
7C
ENDCHAR
STARTCHAR ecircumflex
ENCODING 234
SWIDTH 600 0
DWIDTH 9 0
BBX 8 11 1 0
BITMAP
06
0D
19
00
1E
73
63
FF
C0
C6
7C
ENDCHAR
STARTCHAR edieresis
ENCODING 235
SWIDTH 600 0
DWIDTH 9 0
BBX 8 9 1 0
BITMAP
1B
00
1E
73
63
FF
C0
C6
7C
ENDCHAR
STARTCHAR igrave
ENCODING 236
SWIDTH 600 0
DWIDTH 9 0
BBX 6 10 2 0
BITMAP
18
0C
00
3C
18
18
18
30
30
FC
ENDCHAR
STARTCHAR iacute
ENCODING 237
SWIDTH 600 0
DWIDTH 9 0
BBX 7 10 2 0
BITMAP
06
0C
00
3C
18
18
18
30
30
FC
ENDCHAR
STARTCHAR icircumflex
ENCODING 238
SWIDTH 600 0
DWIDTH 9 0
BBX 7 11 2 0
BITMAP
0C
1A
32
00
3C
18
18
18
30
30
FC
ENDCHAR
STARTCHAR idieresis
ENCODING 239
SWIDTH 600 0
DWIDTH 9 0
BBX 7 9 2 0
BITMAP
36
00
3C
18
18
18
30
30
FC
ENDCHAR
STARTCHAR eth
ENCODING 240
SWIDTH 600 0
DWIDTH 9 0
BBX 8 10 1 0
BITMAP
76
1C
66
1F
63
63
C3
C6
C6
78
ENDCHAR
STARTCHAR ntilde
ENCODING 241
SWIDTH 600 0
DWIDTH 9 0
BBX 9 10 0 0
BITMAP
0680
0B00
0000
7700
3980
3180
3180
6300
6300
F780
ENDCHAR
STARTCHAR ograve
ENCODING 242
SWIDTH 600 0
DWIDTH 9 0
BBX 8 10 1 0
BITMAP
0C
06
00
1E
63
63
C3
C6
C6
78
ENDCHAR
STARTCHAR oacute
ENCODING 243
SWIDTH 600 0
DWIDTH 9 0
BBX 8 10 1 0
BITMAP
06
0C
00
1E
63
63
C3
C6
C6
78
ENDCHAR
STARTCHAR ocircumflex
ENCODING 244
SWIDTH 600 0
DWIDTH 9 0
BBX 8 11 1 0
BITMAP
06
0D
19
00
1E
63
63
C3
C6
C6
78
ENDCHAR
STARTCHAR otilde
ENCODING 245
SWIDTH 600 0
DWIDTH 9 0
BBX 8 10 1 0
BITMAP
0D
16
00
1E
63
63
C3
C6
C6
78
ENDCHAR
STARTCHAR odieresis
ENCODING 246
SWIDTH 600 0
DWIDTH 9 0
BBX 8 9 1 0
BITMAP
1B
00
1E
63
63
C3
C6
C6
78
ENDCHAR
STARTCHAR divide
ENCODING 247
SWIDTH 600 0
DWIDTH 9 0
BBX 7 7 2 1
BITMAP
18
18
00
FE
00
30
30
ENDCHAR
STARTCHAR oslash
ENCODING 248
SWIDTH 600 0
DWIDTH 9 0
BBX 9 8 0 0
BITMAP
0080
0F00
3380
3580
6980
7300
6300
BC00
ENDCHAR
STARTCHAR ugrave
ENCODING 249
SWIDTH 600 0
DWIDTH 9 0
BBX 9 10 1 0
BITMAP
1800
0C00
0000
7380
6300
6300
6300
C600
CE00
7700
ENDCHAR
STARTCHAR uacute
ENCODING 250
SWIDTH 600 0
DWIDTH 9 0
BBX 9 10 1 0
BITMAP
0600
0C00
0000
7380
6300
6300
6300
C600
CE00
7700
ENDCHAR
STARTCHAR ucircumflex
ENCODING 251
SWIDTH 600 0
DWIDTH 9 0
BBX 9 11 1 0
BITMAP
0600
0D00
1900
0000
7380
6300
6300
6300
C600
CE00
7700
ENDCHAR
STARTCHAR udieresis
ENCODING 252
SWIDTH 600 0
DWIDTH 9 0
BBX 9 9 1 0
BITMAP
1B00
0000
7380
6300
6300
6300
C600
CE00
7700
ENDCHAR
STARTCHAR yacute
ENCODING 253
SWIDTH 600 0
DWIDTH 9 0
BBX 10 13 1 -3
BITMAP
0300
0600
0000
79C0
3180
3300
3600
1C00
1800
1800
3000
3000
F800
ENDCHAR
STARTCHAR thorn
ENCODING 254
SWIDTH 600 0
DWIDTH 9 0
BBX 10 12 -1 -3
BITMAP
1C00
0C00
0F80
1CC0
18C0
18C0
3180
3980
3700
6000
6000
F000
ENDCHAR
STARTCHAR ydieresis
ENCODING 255
SWIDTH 600 0
DWIDTH 9 0
BBX 10 12 1 -3
BITMAP
1980
0000
79C0
3180
3300
3600
1C00
1800
1800
3000
3000
F800
ENDCHAR
ENDFONT
