STARTFONT 2.1
COMMENT AUTOMATICALLY GENERATED FILE. DO NOT EDIT!
COMMENT Generated with 'ucs2any.pl courO08.bdf ../../../fonts/util/map-ISO8859-1 ISO8859-1'
COMMENT from an ISO10646-1 encoded source BDF font.
COMMENT ucs2any.pl by Markus Kuhn <mkuhn@acm.org>, 2000.
FONT -Adobe-Courier-Medium-O-Normal--8-80-75-75-M-50-ISO8859-1
SIZE 8 75 75
FONTBOUNDINGBOX 6 9 0 -1
COMMENT $Xorg: $
COMMENT ISO10646-1 extension by Markus Kuhn <mkuhn@acm.org>, 2001-03-20
COMMENT 
COMMENT +
COMMENT  Copyright 1984-1989, 1994 Adobe Systems Incorporated.
COMMENT  Copyright 1988, 1994 Digital Equipment Corporation.
COMMENT
COMMENT  Adobe is a trademark of Adobe Systems Incorporated which may be
COMMENT  registered in certain jurisdictions.
COMMENT  Permission to use these trademarks is hereby granted only in
COMMENT  association with the images described in this file.
COMMENT
COMMENT  Permission to use, copy, modify, distribute and sell this software
COMMENT  and its documentation for any purpose and without fee is hereby
COMMENT  granted, provided that the above copyright notices appear in all
COMMENT  copies and that both those copyright notices and this permission
COMMENT  notice appear in supporting documentation, and that the names of
COMMENT  Adobe Systems and Digital Equipment Corporation not be used in
COMMENT  advertising or publicity pertaining to distribution of the software
COMMENT  without specific, written prior permission.  Adobe Systems and
COMMENT  Digital Equipment Corporation make no representations about the
COMMENT  suitability of this software for any purpose.  It is provided "as
COMMENT  is" without express or implied warranty.
COMMENT -
STARTPROPERTIES 26
FOUNDRY "Adobe"
FAMILY_NAME "Courier"
WEIGHT_NAME "Medium"
SLANT "O"
SETWIDTH_NAME "Normal"
ADD_STYLE_NAME ""
PIXEL_SIZE 8
POINT_SIZE 80
RESOLUTION_X 75
RESOLUTION_Y 75
SPACING "M"
AVERAGE_WIDTH 50
CHARSET_REGISTRY "ISO8859"
CHARSET_ENCODING "1"
CAP_HEIGHT 5
X_HEIGHT 4
FONT_ASCENT 7
FONT_DESCENT 2
FACE_NAME "Courier Oblique"
COPYRIGHT "Copyright (c) 1984, 1987 Adobe Systems Incorporated. All Rights Reserved. Copyright (c) 1988, 1991 Digital Equipment Corporation. All Rights Reserved."
NOTICE "No mark"
_DEC_DEVICE_FONTNAMES "PS=Courier-Oblique"
DEFAULT_CHAR 0
RELATIVE_SETWIDTH 50
RELATIVE_WEIGHT 50
FULL_NAME "Courier Oblique"
ENDPROPERTIES
CHARS 192
STARTCHAR defaultchar
ENCODING 0
SWIDTH 600 0
DWIDTH 5 0
BBX 5 5 0 0
BITMAP
A8
00
88
00
A8
ENDCHAR
STARTCHAR space
ENCODING 32
SWIDTH 600 0
DWIDTH 5 0
BBX 1 1 0 1
BITMAP
00
ENDCHAR
STARTCHAR exclam
ENCODING 33
SWIDTH 600 0
DWIDTH 5 0
BBX 2 6 2 0
BITMAP
40
40
80
80
00
80
ENDCHAR
STARTCHAR quotedbl
ENCODING 34
SWIDTH 600 0
DWIDTH 5 0
BBX 4 3 1 3
BITMAP
50
50
A0
ENDCHAR
STARTCHAR numbersign
ENCODING 35
SWIDTH 600 0
DWIDTH 5 0
BBX 6 6 0 0
BITMAP
28
7C
28
F8
50
50
ENDCHAR
STARTCHAR dollar
ENCODING 36
SWIDTH 600 0
DWIDTH 5 0
BBX 5 7 0 -1
BITMAP
10
38
40
70
10
E0
40
ENDCHAR
STARTCHAR percent
ENCODING 37
SWIDTH 600 0
DWIDTH 5 0
BBX 4 6 1 0
BITMAP
40
D0
A0
50
B0
20
ENDCHAR
STARTCHAR ampersand
ENCODING 38
SWIDTH 600 0
DWIDTH 5 0
BBX 4 5 1 0
BITMAP
30
40
70
A0
D0
ENDCHAR
STARTCHAR quotesingle
ENCODING 39
SWIDTH 600 0
DWIDTH 6 0
BBX 2 3 3 4
BITMAP
40
40
80
ENDCHAR
STARTCHAR parenleft
ENCODING 40
SWIDTH 600 0
DWIDTH 5 0
BBX 3 6 2 0
BITMAP
20
40
80
80
80
40
ENDCHAR
STARTCHAR parenright
ENCODING 41
SWIDTH 600 0
DWIDTH 5 0
BBX 3 6 1 0
BITMAP
40
20
20
20
40
80
ENDCHAR
STARTCHAR asterisk
ENCODING 42
SWIDTH 600 0
DWIDTH 5 0
BBX 3 3 2 3
BITMAP
40
E0
C0
ENDCHAR
STARTCHAR plus
ENCODING 43
SWIDTH 600 0
DWIDTH 5 0
BBX 4 5 1 0
BITMAP
20
20
F0
40
40
ENDCHAR
STARTCHAR comma
ENCODING 44
SWIDTH 600 0
DWIDTH 5 0
BBX 2 2 1 -1
BITMAP
40
80
ENDCHAR
STARTCHAR hyphen
ENCODING 45
SWIDTH 600 0
DWIDTH 5 0
BBX 3 1 1 2
BITMAP
E0
ENDCHAR
STARTCHAR period
ENCODING 46
SWIDTH 600 0
DWIDTH 5 0
BBX 1 1 2 0
BITMAP
80
ENDCHAR
STARTCHAR slash
ENCODING 47
SWIDTH 600 0
DWIDTH 5 0
BBX 4 6 1 0
BITMAP
10
20
20
40
40
80
ENDCHAR
STARTCHAR zero
ENCODING 48
SWIDTH 600 0
DWIDTH 5 0
BBX 4 6 1 0
BITMAP
30
50
90
90
A0
C0
ENDCHAR
STARTCHAR one
ENCODING 49
SWIDTH 600 0
DWIDTH 5 0
BBX 4 6 0 0
BITMAP
10
70
10
20
20
F0
ENDCHAR
STARTCHAR two
ENCODING 50
SWIDTH 600 0
DWIDTH 5 0
BBX 5 6 0 0
BITMAP
38
48
10
20
40
F0
ENDCHAR
STARTCHAR three
ENCODING 51
SWIDTH 600 0
DWIDTH 5 0
BBX 5 6 0 0
BITMAP
30
08
38
10
90
60
ENDCHAR
STARTCHAR four
ENCODING 52
SWIDTH 600 0
DWIDTH 5 0
BBX 5 6 0 0
BITMAP
10
30
50
F8
20
20
ENDCHAR
STARTCHAR five
ENCODING 53
SWIDTH 600 0
DWIDTH 5 0
BBX 4 6 1 0
BITMAP
70
40
C0
20
20
C0
ENDCHAR
STARTCHAR six
ENCODING 54
SWIDTH 600 0
DWIDTH 5 0
BBX 4 6 1 0
BITMAP
30
40
60
90
90
60
ENDCHAR
STARTCHAR seven
ENCODING 55
SWIDTH 600 0
DWIDTH 5 0
BBX 4 6 1 0
BITMAP
70
90
20
40
40
40
ENDCHAR
STARTCHAR eight
ENCODING 56
SWIDTH 600 0
DWIDTH 5 0
BBX 4 6 1 0
BITMAP
30
50
60
90
90
E0
ENDCHAR
STARTCHAR nine
ENCODING 57
SWIDTH 600 0
DWIDTH 5 0
BBX 5 6 0 0
BITMAP
30
48
48
30
20
C0
ENDCHAR
STARTCHAR colon
ENCODING 58
SWIDTH 600 0
DWIDTH 5 0
BBX 2 4 2 0
BITMAP
40
00
00
80
ENDCHAR
STARTCHAR semicolon
ENCODING 59
SWIDTH 600 0
DWIDTH 5 0
BBX 2 5 1 -1
BITMAP
40
00
00
40
80
ENDCHAR
STARTCHAR less
ENCODING 60
SWIDTH 600 0
DWIDTH 5 0
BBX 3 4 1 1
BITMAP
20
40
80
40
ENDCHAR
STARTCHAR equal
ENCODING 61
SWIDTH 600 0
DWIDTH 5 0
BBX 5 3 0 1
BITMAP
78
00
F0
ENDCHAR
STARTCHAR greater
ENCODING 62
SWIDTH 600 0
DWIDTH 5 0
BBX 3 4 1 1
BITMAP
40
20
40
80
ENDCHAR
STARTCHAR question
ENCODING 63
SWIDTH 600 0
DWIDTH 5 0
BBX 3 6 2 0
BITMAP
40
A0
20
40
00
80
ENDCHAR
STARTCHAR at
ENCODING 64
SWIDTH 600 0
DWIDTH 5 0
BBX 5 6 0 0
BITMAP
30
50
B0
B8
80
60
ENDCHAR
STARTCHAR A
ENCODING 65
SWIDTH 600 0
DWIDTH 5 0
BBX 5 5 0 0
BITMAP
78
28
78
50
D0
ENDCHAR
STARTCHAR B
ENCODING 66
SWIDTH 600 0
DWIDTH 5 0
BBX 5 5 0 0
BITMAP
78
28
70
50
F0
ENDCHAR
STARTCHAR C
ENCODING 67
SWIDTH 600 0
DWIDTH 5 0
BBX 4 5 1 0
BITMAP
70
D0
80
90
60
ENDCHAR
STARTCHAR D
ENCODING 68
SWIDTH 600 0
DWIDTH 5 0
BBX 5 5 0 0
BITMAP
70
28
48
50
E0
ENDCHAR
STARTCHAR E
ENCODING 69
SWIDTH 600 0
DWIDTH 5 0
BBX 5 5 0 0
BITMAP
78
20
70
40
F0
ENDCHAR
STARTCHAR F
ENCODING 70
SWIDTH 600 0
DWIDTH 5 0
BBX 5 5 0 0
BITMAP
78
20
70
40
C0
ENDCHAR
STARTCHAR G
ENCODING 71
SWIDTH 600 0
DWIDTH 5 0
BBX 4 5 1 0
BITMAP
70
C0
B0
90
60
ENDCHAR
STARTCHAR H
ENCODING 72
SWIDTH 600 0
DWIDTH 5 0
BBX 5 5 0 0
BITMAP
68
28
70
50
D0
ENDCHAR
STARTCHAR I
ENCODING 73
SWIDTH 600 0
DWIDTH 5 0
BBX 4 5 1 0
BITMAP
70
20
40
40
E0
ENDCHAR
STARTCHAR J
ENCODING 74
SWIDTH 600 0
DWIDTH 5 0
BBX 4 5 0 0
BITMAP
70
10
20
A0
C0
ENDCHAR
STARTCHAR K
ENCODING 75
SWIDTH 600 0
DWIDTH 5 0
BBX 5 5 0 0
BITMAP
68
30
60
50
C8
ENDCHAR
STARTCHAR L
ENCODING 76
SWIDTH 600 0
DWIDTH 5 0
BBX 5 5 0 0
BITMAP
70
20
40
48
F0
ENDCHAR
STARTCHAR M
ENCODING 77
SWIDTH 600 0
DWIDTH 5 0
BBX 5 5 0 0
BITMAP
48
58
68
90
B0
ENDCHAR
STARTCHAR N
ENCODING 78
SWIDTH 600 0
DWIDTH 5 0
BBX 5 5 0 0
BITMAP
68
28
50
50
D0
ENDCHAR
STARTCHAR O
ENCODING 79
SWIDTH 600 0
DWIDTH 5 0
BBX 4 5 1 0
BITMAP
60
D0
90
B0
60
ENDCHAR
STARTCHAR P
ENCODING 80
SWIDTH 600 0
DWIDTH 5 0
BBX 5 5 0 0
BITMAP
70
28
70
40
C0
ENDCHAR
STARTCHAR Q
ENCODING 81
SWIDTH 600 0
DWIDTH 5 0
BBX 4 6 1 -1
BITMAP
60
D0
90
B0
40
E0
ENDCHAR
STARTCHAR R
ENCODING 82
SWIDTH 600 0
DWIDTH 5 0
BBX 5 5 0 0
BITMAP
70
28
70
50
D0
ENDCHAR
STARTCHAR S
ENCODING 83
SWIDTH 600 0
DWIDTH 5 0
BBX 5 5 0 0
BITMAP
38
48
20
90
E0
ENDCHAR
STARTCHAR T
ENCODING 84
SWIDTH 600 0
DWIDTH 5 0
BBX 5 5 0 0
BITMAP
78
A8
20
40
E0
ENDCHAR
STARTCHAR U
ENCODING 85
SWIDTH 600 0
DWIDTH 5 0
BBX 5 5 0 0
BITMAP
48
48
90
90
E0
ENDCHAR
STARTCHAR V
ENCODING 86
SWIDTH 600 0
DWIDTH 5 0
BBX 5 5 1 0
BITMAP
D8
50
60
40
40
ENDCHAR
STARTCHAR W
ENCODING 87
SWIDTH 600 0
DWIDTH 5 0
BBX 5 5 1 0
BITMAP
98
D0
D0
E0
A0
ENDCHAR
STARTCHAR X
ENCODING 88
SWIDTH 600 0
DWIDTH 5 0
BBX 5 5 0 0
BITMAP
58
50
20
50
90
ENDCHAR
STARTCHAR Y
ENCODING 89
SWIDTH 600 0
DWIDTH 5 0
BBX 4 5 1 0
BITMAP
D0
50
60
40
C0
ENDCHAR
STARTCHAR Z
ENCODING 90
SWIDTH 600 0
DWIDTH 5 0
BBX 4 5 0 0
BITMAP
70
10
20
40
F0
ENDCHAR
STARTCHAR bracketleft
ENCODING 91
SWIDTH 600 0
DWIDTH 5 0
BBX 3 6 2 0
BITMAP
60
40
40
80
80
C0
ENDCHAR
STARTCHAR backslash
ENCODING 92
SWIDTH 600 0
DWIDTH 5 0
BBX 2 6 2 0
BITMAP
80
80
80
40
40
40
ENDCHAR
STARTCHAR bracketright
ENCODING 93
SWIDTH 600 0
DWIDTH 5 0
BBX 3 6 1 0
BITMAP
60
20
20
40
40
C0
ENDCHAR
STARTCHAR asciicircum
ENCODING 94
SWIDTH 600 0
DWIDTH 5 0
BBX 3 3 1 3
BITMAP
40
60
A0
ENDCHAR
STARTCHAR underscore
ENCODING 95
SWIDTH 600 0
DWIDTH 5 0
BBX 5 1 0 -1
BITMAP
F8
ENDCHAR
STARTCHAR grave
ENCODING 96
SWIDTH 600 0
DWIDTH 6 0
BBX 3 2 3 6
BITMAP
C0
20
ENDCHAR
STARTCHAR a
ENCODING 97
SWIDTH 600 0
DWIDTH 5 0
BBX 4 4 1 0
BITMAP
60
30
E0
A0
ENDCHAR
STARTCHAR b
ENCODING 98
SWIDTH 600 0
DWIDTH 5 0
BBX 5 6 0 0
BITMAP
60
20
30
48
48
F0
ENDCHAR
STARTCHAR c
ENCODING 99
SWIDTH 600 0
DWIDTH 5 0
BBX 4 4 1 0
BITMAP
70
80
90
60
ENDCHAR
STARTCHAR d
ENCODING 100
SWIDTH 600 0
DWIDTH 5 0
BBX 5 6 1 0
BITMAP
18
08
70
90
A0
50
ENDCHAR
STARTCHAR e
ENCODING 101
SWIDTH 600 0
DWIDTH 5 0
BBX 4 4 1 0
BITMAP
70
F0
80
60
ENDCHAR
STARTCHAR f
ENCODING 102
SWIDTH 600 0
DWIDTH 5 0
BBX 5 6 1 0
BITMAP
18
20
F0
40
40
C0
ENDCHAR
STARTCHAR g
ENCODING 103
SWIDTH 600 0
DWIDTH 5 0
BBX 4 5 1 -1
BITMAP
70
90
E0
20
C0
ENDCHAR
STARTCHAR h
ENCODING 104
SWIDTH 600 0
DWIDTH 5 0
BBX 5 6 0 0
BITMAP
60
20
38
48
50
D0
ENDCHAR
STARTCHAR i
ENCODING 105
SWIDTH 600 0
DWIDTH 5 0
BBX 4 6 1 0
BITMAP
10
00
60
20
40
E0
ENDCHAR
STARTCHAR j
ENCODING 106
SWIDTH 600 0
DWIDTH 5 0
BBX 4 7 0 -1
BITMAP
10
00
70
20
20
20
C0
ENDCHAR
STARTCHAR k
ENCODING 107
SWIDTH 600 0
DWIDTH 5 0
BBX 5 6 0 0
BITMAP
60
20
28
70
50
D0
ENDCHAR
STARTCHAR l
ENCODING 108
SWIDTH 600 0
DWIDTH 5 0
BBX 4 6 0 0
BITMAP
30
10
10
20
20
F0
ENDCHAR
STARTCHAR m
ENCODING 109
SWIDTH 600 0
DWIDTH 5 0
BBX 5 4 0 0
BITMAP
48
78
A8
88
ENDCHAR
STARTCHAR n
ENCODING 110
SWIDTH 600 0
DWIDTH 5 0
BBX 5 4 0 0
BITMAP
58
68
48
D8
ENDCHAR
STARTCHAR o
ENCODING 111
SWIDTH 600 0
DWIDTH 5 0
BBX 4 4 1 0
BITMAP
70
90
90
E0
ENDCHAR
STARTCHAR p
ENCODING 112
SWIDTH 600 0
DWIDTH 5 0
BBX 5 5 0 -1
BITMAP
70
28
48
70
C0
ENDCHAR
STARTCHAR q
ENCODING 113
SWIDTH 600 0
DWIDTH 5 0
BBX 4 5 1 -1
BITMAP
70
90
A0
40
E0
ENDCHAR
STARTCHAR r
ENCODING 114
SWIDTH 600 0
DWIDTH 5 0
BBX 5 4 1 0
BITMAP
58
60
40
C0
ENDCHAR
STARTCHAR s
ENCODING 115
SWIDTH 600 0
DWIDTH 5 0
BBX 4 4 1 0
BITMAP
30
40
20
E0
ENDCHAR
STARTCHAR t
ENCODING 116
SWIDTH 600 0
DWIDTH 5 0
BBX 4 6 1 0
BITMAP
20
20
F0
40
80
E0
ENDCHAR
STARTCHAR u
ENCODING 117
SWIDTH 600 0
DWIDTH 5 0
BBX 4 4 1 0
BITMAP
D0
50
B0
D0
ENDCHAR
STARTCHAR v
ENCODING 118
SWIDTH 600 0
DWIDTH 5 0
BBX 4 4 1 0
BITMAP
D0
50
60
40
ENDCHAR
STARTCHAR w
ENCODING 119
SWIDTH 600 0
DWIDTH 5 0
BBX 4 4 1 0
BITMAP
90
D0
E0
A0
ENDCHAR
STARTCHAR x
ENCODING 120
SWIDTH 600 0
DWIDTH 5 0
BBX 5 4 0 0
BITMAP
58
20
60
90
ENDCHAR
STARTCHAR y
ENCODING 121
SWIDTH 600 0
DWIDTH 5 0
BBX 5 5 0 -1
BITMAP
48
48
50
20
C0
ENDCHAR
STARTCHAR z
ENCODING 122
SWIDTH 600 0
DWIDTH 5 0
BBX 4 4 1 0
BITMAP
70
20
40
E0
ENDCHAR
STARTCHAR braceleft
ENCODING 123
SWIDTH 600 0
DWIDTH 5 0
BBX 3 6 2 0
BITMAP
60
40
C0
40
80
C0
ENDCHAR
STARTCHAR bar
ENCODING 124
SWIDTH 600 0
DWIDTH 5 0
BBX 2 6 2 0
BITMAP
40
40
40
80
80
80
ENDCHAR
STARTCHAR braceright
ENCODING 125
SWIDTH 600 0
DWIDTH 5 0
BBX 3 6 1 0
BITMAP
60
20
40
60
40
C0
ENDCHAR
STARTCHAR asciitilde
ENCODING 126
SWIDTH 600 0
DWIDTH 5 0
BBX 4 2 1 2
BITMAP
50
A0
ENDCHAR
STARTCHAR space
ENCODING 160
SWIDTH 600 0
DWIDTH 5 0
BBX 1 1 0 1
BITMAP
00
ENDCHAR
STARTCHAR exclamdown
ENCODING 161
SWIDTH 600 0
DWIDTH 5 0
BBX 2 6 2 -1
BITMAP
40
00
40
40
80
80
ENDCHAR
STARTCHAR cent
ENCODING 162
SWIDTH 600 0
DWIDTH 5 0
BBX 3 5 1 0
BITMAP
20
60
80
E0
40
ENDCHAR
STARTCHAR sterling
ENCODING 163
SWIDTH 600 0
DWIDTH 5 0
BBX 5 6 0 0
BITMAP
18
20
F0
40
50
E0
ENDCHAR
STARTCHAR currency
ENCODING 164
SWIDTH 600 0
DWIDTH 5 0
BBX 4 4 1 1
BITMAP
90
60
60
90
ENDCHAR
STARTCHAR yen
ENCODING 165
SWIDTH 600 0
DWIDTH 5 0
BBX 5 6 1 0
BITMAP
50
D8
60
F0
40
C0
ENDCHAR
STARTCHAR brokenbar
ENCODING 166
SWIDTH 600 0
DWIDTH 5 0
BBX 2 7 2 -1
BITMAP
40
40
40
00
80
80
80
ENDCHAR
STARTCHAR section
ENCODING 167
SWIDTH 600 0
DWIDTH 5 0
BBX 5 7 1 -1
BITMAP
38
40
70
50
70
10
E0
ENDCHAR
STARTCHAR dieresis
ENCODING 168
SWIDTH 600 0
DWIDTH 5 0
BBX 3 1 2 5
BITMAP
A0
ENDCHAR
STARTCHAR copyright
ENCODING 169
SWIDTH 600 0
DWIDTH 5 0
BBX 6 7 0 -1
BITMAP
30
48
B4
A4
B4
48
30
ENDCHAR
STARTCHAR ordfeminine
ENCODING 170
SWIDTH 600 0
DWIDTH 5 0
BBX 3 5 1 1
BITMAP
60
20
60
00
E0
ENDCHAR
STARTCHAR guillemotleft
ENCODING 171
SWIDTH 600 0
DWIDTH 5 0
BBX 4 3 0 0
BITMAP
50
A0
50
ENDCHAR
STARTCHAR logicalnot
ENCODING 172
SWIDTH 600 0
DWIDTH 5 0
BBX 4 2 1 2
BITMAP
F0
20
ENDCHAR
STARTCHAR hyphen
ENCODING 173
SWIDTH 600 0
DWIDTH 5 0
BBX 3 1 1 2
BITMAP
E0
ENDCHAR
STARTCHAR registered
ENCODING 174
SWIDTH 600 0
DWIDTH 5 0
BBX 6 7 0 -1
BITMAP
30
48
B4
B4
AC
48
30
ENDCHAR
STARTCHAR macron
ENCODING 175
SWIDTH 600 0
DWIDTH 5 0
BBX 3 1 2 5
BITMAP
E0
ENDCHAR
STARTCHAR degree
ENCODING 176
SWIDTH 600 0
DWIDTH 5 0
BBX 3 3 1 3
BITMAP
E0
A0
E0
ENDCHAR
STARTCHAR plusminus
ENCODING 177
SWIDTH 600 0
DWIDTH 5 0
BBX 4 5 1 0
BITMAP
20
F0
40
00
E0
ENDCHAR
STARTCHAR twosuperior
ENCODING 178
SWIDTH 600 0
DWIDTH 5 0
BBX 3 4 2 2
BITMAP
60
20
40
E0
ENDCHAR
STARTCHAR threesuperior
ENCODING 179
SWIDTH 600 0
DWIDTH 5 0
BBX 3 4 2 2
BITMAP
E0
60
20
C0
ENDCHAR
STARTCHAR acute
ENCODING 180
SWIDTH 600 0
DWIDTH 5 0
BBX 2 2 3 5
BITMAP
40
80
ENDCHAR
STARTCHAR mu
ENCODING 181
SWIDTH 600 0
DWIDTH 5 0
BBX 5 5 0 -1
BITMAP
50
50
50
F8
80
ENDCHAR
STARTCHAR paragraph
ENCODING 182
SWIDTH 600 0
DWIDTH 5 0
BBX 5 7 1 -1
BITMAP
78
D0
D0
50
A0
A0
A0
ENDCHAR
STARTCHAR periodcentered
ENCODING 183
SWIDTH 600 0
DWIDTH 5 0
BBX 1 1 2 3
BITMAP
80
ENDCHAR
STARTCHAR cedilla
ENCODING 184
SWIDTH 600 0
DWIDTH 5 0
BBX 2 2 1 -1
BITMAP
40
C0
ENDCHAR
STARTCHAR onesuperior
ENCODING 185
SWIDTH 600 0
DWIDTH 5 0
BBX 3 4 2 2
BITMAP
C0
40
40
E0
ENDCHAR
STARTCHAR ordmasculine
ENCODING 186
SWIDTH 600 0
DWIDTH 5 0
BBX 4 5 1 1
BITMAP
30
50
60
00
E0
ENDCHAR
STARTCHAR guillemotright
ENCODING 187
SWIDTH 600 0
DWIDTH 5 0
BBX 4 3 1 0
BITMAP
A0
50
A0
ENDCHAR
STARTCHAR onequarter
ENCODING 188
SWIDTH 600 0
DWIDTH 5 0
BBX 5 7 0 -1
BITMAP
40
C8
50
20
50
B8
10
ENDCHAR
STARTCHAR onehalf
ENCODING 189
SWIDTH 600 0
DWIDTH 5 0
BBX 6 7 0 -1
BITMAP
40
C8
50
20
58
88
1C
ENDCHAR
STARTCHAR threequarters
ENCODING 190
SWIDTH 600 0
DWIDTH 5 0
BBX 5 7 0 -1
BITMAP
C0
68
D0
20
50
B8
10
ENDCHAR
STARTCHAR questiondown
ENCODING 191
SWIDTH 600 0
DWIDTH 5 0
BBX 3 6 0 -1
BITMAP
20
00
20
40
A0
40
ENDCHAR
STARTCHAR Agrave
ENCODING 192
SWIDTH 600 0
DWIDTH 5 0
BBX 5 8 0 0
BITMAP
20
10
00
78
28
78
50
D0
ENDCHAR
STARTCHAR Aacute
ENCODING 193
SWIDTH 600 0
DWIDTH 5 0
BBX 5 8 0 0
BITMAP
08
10
00
78
28
78
50
D0
ENDCHAR
STARTCHAR Acircumflex
ENCODING 194
SWIDTH 600 0
DWIDTH 5 0
BBX 5 8 0 0
BITMAP
18
28
00
78
28
78
50
D0
ENDCHAR
STARTCHAR Atilde
ENCODING 195
SWIDTH 600 0
DWIDTH 5 0
BBX 6 8 0 0
BITMAP
14
28
00
78
28
78
50
D0
ENDCHAR
STARTCHAR Adieresis
ENCODING 196
SWIDTH 600 0
DWIDTH 5 0
BBX 5 7 0 0
BITMAP
28
00
78
28
78
50
D0
ENDCHAR
STARTCHAR Aring
ENCODING 197
SWIDTH 600 0
DWIDTH 5 0
BBX 5 8 0 0
BITMAP
10
28
10
78
28
78
50
D0
ENDCHAR
STARTCHAR AE
ENCODING 198
SWIDTH 600 0
DWIDTH 5 0
BBX 5 5 0 0
BITMAP
78
50
78
A0
B0
ENDCHAR
STARTCHAR Ccedilla
ENCODING 199
SWIDTH 600 0
DWIDTH 5 0
BBX 4 6 1 -1
BITMAP
70
D0
80
90
60
C0
ENDCHAR
STARTCHAR Egrave
ENCODING 200
SWIDTH 600 0
DWIDTH 5 0
BBX 5 8 0 0
BITMAP
20
10
00
78
20
70
40
F0
ENDCHAR
STARTCHAR Eacute
ENCODING 201
SWIDTH 600 0
DWIDTH 5 0
BBX 5 8 0 0
BITMAP
08
10
00
78
20
70
40
F0
ENDCHAR
STARTCHAR Ecircumflex
ENCODING 202
SWIDTH 600 0
DWIDTH 5 0
BBX 5 8 0 0
BITMAP
18
28
00
78
20
70
40
F0
ENDCHAR
STARTCHAR Edieresis
ENCODING 203
SWIDTH 600 0
DWIDTH 5 0
BBX 5 7 0 0
BITMAP
28
00
78
20
70
40
F0
ENDCHAR
STARTCHAR Igrave
ENCODING 204
SWIDTH 600 0
DWIDTH 5 0
BBX 4 8 1 0
BITMAP
20
10
00
70
20
40
40
E0
ENDCHAR
STARTCHAR Iacute
ENCODING 205
SWIDTH 600 0
DWIDTH 5 0
BBX 5 8 1 0
BITMAP
08
10
00
70
20
40
40
E0
ENDCHAR
STARTCHAR Icircumflex
ENCODING 206
SWIDTH 600 0
DWIDTH 5 0
BBX 5 8 1 0
BITMAP
18
28
00
70
20
40
40
E0
ENDCHAR
STARTCHAR Idieresis
ENCODING 207
SWIDTH 600 0
DWIDTH 5 0
BBX 5 7 1 0
BITMAP
28
00
70
20
40
40
E0
ENDCHAR
STARTCHAR Eth
ENCODING 208
SWIDTH 600 0
DWIDTH 5 0
BBX 5 5 0 0
BITMAP
70
28
E8
50
E0
ENDCHAR
STARTCHAR Ntilde
ENCODING 209
SWIDTH 600 0
DWIDTH 5 0
BBX 6 8 0 0
BITMAP
14
28
00
68
28
50
50
D0
ENDCHAR
STARTCHAR Ograve
ENCODING 210
SWIDTH 600 0
DWIDTH 5 0
BBX 4 8 1 0
BITMAP
40
20
00
60
D0
90
B0
60
ENDCHAR
STARTCHAR Oacute
ENCODING 211
SWIDTH 600 0
DWIDTH 5 0
BBX 4 8 1 0
BITMAP
10
20
00
60
D0
90
B0
60
ENDCHAR
STARTCHAR Ocircumflex
ENCODING 212
SWIDTH 600 0
DWIDTH 5 0
BBX 4 8 1 0
BITMAP
30
50
00
60
D0
90
B0
60
ENDCHAR
STARTCHAR Otilde
ENCODING 213
SWIDTH 600 0
DWIDTH 5 0
BBX 5 8 1 0
BITMAP
28
50
00
60
D0
90
B0
60
ENDCHAR
STARTCHAR Odieresis
ENCODING 214
SWIDTH 600 0
DWIDTH 5 0
BBX 4 7 1 0
BITMAP
50
00
60
D0
90
B0
60
ENDCHAR
STARTCHAR multiply
ENCODING 215
SWIDTH 600 0
DWIDTH 5 0
BBX 5 4 0 0
BITMAP
48
30
60
90
ENDCHAR
STARTCHAR Oslash
ENCODING 216
SWIDTH 600 0
DWIDTH 5 0
BBX 6 7 0 -1
BITMAP
04
38
68
48
58
70
80
ENDCHAR
STARTCHAR Ugrave
ENCODING 217
SWIDTH 600 0
DWIDTH 5 0
BBX 5 8 0 0
BITMAP
20
10
00
48
48
90
90
E0
ENDCHAR
STARTCHAR Uacute
ENCODING 218
SWIDTH 600 0
DWIDTH 5 0
BBX 5 8 0 0
BITMAP
08
10
00
48
48
90
90
E0
ENDCHAR
STARTCHAR Ucircumflex
ENCODING 219
SWIDTH 600 0
DWIDTH 5 0
BBX 5 8 0 0
BITMAP
18
28
00
48
48
90
90
E0
ENDCHAR
STARTCHAR Udieresis
ENCODING 220
SWIDTH 600 0
DWIDTH 5 0
BBX 5 7 0 0
BITMAP
28
00
48
48
90
90
E0
ENDCHAR
STARTCHAR Yacute
ENCODING 221
SWIDTH 600 0
DWIDTH 5 0
BBX 4 8 1 0
BITMAP
10
20
00
D0
50
60
40
C0
ENDCHAR
STARTCHAR Thorn
ENCODING 222
SWIDTH 600 0
DWIDTH 5 0
BBX 5 5 0 0
BITMAP
60
38
48
70
C0
ENDCHAR
STARTCHAR germandbls
ENCODING 223
SWIDTH 600 0
DWIDTH 5 0
BBX 4 6 0 0
BITMAP
20
50
50
A0
90
A0
ENDCHAR
STARTCHAR agrave
ENCODING 224
SWIDTH 600 0
DWIDTH 5 0
BBX 4 7 1 0
BITMAP
40
20
00
60
30
E0
A0
ENDCHAR
STARTCHAR aacute
ENCODING 225
SWIDTH 600 0
DWIDTH 5 0
BBX 4 7 1 0
BITMAP
10
20
00
60
30
E0
A0
ENDCHAR
STARTCHAR acircumflex
ENCODING 226
SWIDTH 600 0
DWIDTH 5 0
BBX 4 7 1 0
BITMAP
30
50
00
60
30
E0
A0
ENDCHAR
STARTCHAR atilde
ENCODING 227
SWIDTH 600 0
DWIDTH 5 0
BBX 5 7 1 0
BITMAP
28
50
00
60
30
E0
A0
ENDCHAR
STARTCHAR adieresis
ENCODING 228
SWIDTH 600 0
DWIDTH 5 0
BBX 4 6 1 0
BITMAP
50
00
60
30
E0
A0
ENDCHAR
STARTCHAR aring
ENCODING 229
SWIDTH 600 0
DWIDTH 5 0
BBX 4 7 1 0
BITMAP
20
50
20
60
30
E0
A0
ENDCHAR
STARTCHAR ae
ENCODING 230
SWIDTH 600 0
DWIDTH 5 0
BBX 5 4 0 0
BITMAP
70
38
E0
B0
ENDCHAR
STARTCHAR ccedilla
ENCODING 231
SWIDTH 600 0
DWIDTH 5 0
BBX 4 5 1 -1
BITMAP
70
80
A0
40
C0
ENDCHAR
STARTCHAR egrave
ENCODING 232
SWIDTH 600 0
DWIDTH 5 0
BBX 4 7 1 0
BITMAP
40
20
00
70
F0
80
60
ENDCHAR
STARTCHAR eacute
ENCODING 233
SWIDTH 600 0
DWIDTH 5 0
BBX 4 7 1 0
BITMAP
10
20
00
70
F0
80
60
ENDCHAR
STARTCHAR ecircumflex
ENCODING 234
SWIDTH 600 0
DWIDTH 5 0
BBX 4 7 1 0
BITMAP
30
50
00
70
F0
80
60
ENDCHAR
STARTCHAR edieresis
ENCODING 235
SWIDTH 600 0
DWIDTH 5 0
BBX 4 6 1 0
BITMAP
50
00
70
F0
80
60
ENDCHAR
STARTCHAR igrave
ENCODING 236
SWIDTH 600 0
DWIDTH 5 0
BBX 3 7 1 0
BITMAP
40
20
00
60
40
40
E0
ENDCHAR
STARTCHAR iacute
ENCODING 237
SWIDTH 600 0
DWIDTH 5 0
BBX 4 7 1 0
BITMAP
10
20
00
60
40
40
E0
ENDCHAR
STARTCHAR icircumflex
ENCODING 238
SWIDTH 600 0
DWIDTH 5 0
BBX 4 7 1 0
BITMAP
30
50
00
60
40
40
E0
ENDCHAR
STARTCHAR idieresis
ENCODING 239
SWIDTH 600 0
DWIDTH 5 0
BBX 4 6 1 0
BITMAP
50
00
60
40
40
E0
ENDCHAR
STARTCHAR eth
ENCODING 240
SWIDTH 600 0
DWIDTH 5 0
BBX 4 7 1 0
BITMAP
D0
60
A0
70
90
90
60
ENDCHAR
STARTCHAR ntilde
ENCODING 241
SWIDTH 600 0
DWIDTH 5 0
BBX 6 7 0 0
BITMAP
14
28
00
58
68
48
D8
ENDCHAR
STARTCHAR ograve
ENCODING 242
SWIDTH 600 0
DWIDTH 5 0
BBX 4 7 1 0
BITMAP
40
20
00
70
90
90
E0
ENDCHAR
STARTCHAR oacute
ENCODING 243
SWIDTH 600 0
DWIDTH 5 0
BBX 4 7 1 0
BITMAP
10
20
00
70
90
90
E0
ENDCHAR
STARTCHAR ocircumflex
ENCODING 244
SWIDTH 600 0
DWIDTH 5 0
BBX 4 7 1 0
BITMAP
30
50
00
70
90
90
E0
ENDCHAR
STARTCHAR otilde
ENCODING 245
SWIDTH 600 0
DWIDTH 5 0
BBX 5 7 1 0
BITMAP
28
50
00
70
90
90
E0
ENDCHAR
STARTCHAR odieresis
ENCODING 246
SWIDTH 600 0
DWIDTH 5 0
BBX 4 6 1 0
BITMAP
50
00
70
90
90
E0
ENDCHAR
STARTCHAR divide
ENCODING 247
SWIDTH 600 0
DWIDTH 5 0
BBX 4 5 1 0
BITMAP
20
00
F0
00
40
ENDCHAR
STARTCHAR oslash
ENCODING 248
SWIDTH 600 0
DWIDTH 5 0
BBX 6 6 0 -1
BITMAP
04
38
48
48
70
80
ENDCHAR
STARTCHAR ugrave
ENCODING 249
SWIDTH 600 0
DWIDTH 5 0
BBX 4 7 1 0
BITMAP
40
20
00
D0
50
B0
D0
ENDCHAR
STARTCHAR uacute
ENCODING 250
SWIDTH 600 0
DWIDTH 5 0
BBX 4 7 1 0
BITMAP
10
20
00
D0
50
B0
D0
ENDCHAR
STARTCHAR ucircumflex
ENCODING 251
SWIDTH 600 0
DWIDTH 5 0
BBX 4 7 1 0
BITMAP
30
50
00
D0
50
B0
D0
ENDCHAR
STARTCHAR udieresis
ENCODING 252
SWIDTH 600 0
DWIDTH 5 0
BBX 4 6 1 0
BITMAP
50
00
D0
50
B0
D0
ENDCHAR
STARTCHAR yacute
ENCODING 253
SWIDTH 600 0
DWIDTH 5 0
BBX 5 8 0 -1
BITMAP
08
10
00
48
48
50
20
C0
ENDCHAR
STARTCHAR thorn
ENCODING 254
SWIDTH 600 0
DWIDTH 5 0
BBX 5 7 0 -1
BITMAP
30
10
30
28
48
70
C0
ENDCHAR
STARTCHAR ydieresis
ENCODING 255
SWIDTH 600 0
DWIDTH 5 0
BBX 5 7 0 -1
BITMAP
28
00
48
48
50
20
C0
ENDCHAR
ENDFONT
