STARTFONT 2.1
COMMENT AUTOMATICALLY GENERATED FILE. DO NOT EDIT!
COMMENT Generated with 'ucs2any.pl lubBI18.bdf ../../../fonts/util/map-ISO8859-1 ISO8859-1'
COMMENT from an ISO10646-1 encoded source BDF font.
COMMENT ucs2any.pl by Markus Kuhn <mkuhn@acm.org>, 2000.
COMMENT $Xorg: $
COMMENT ISO10646-1 extension by Markus Kuhn <mkuhn@acm.org>, 2001-03-20
COMMENT  (c) Copyright Bigelow & Holmes 1986, 1985. Lucida is a registered
COMMENT  trademark of Bigelow & Holmes. See LEGAL NOTICE file for terms 
COMMENT  of the license. 
FONT -B&H-LucidaBright-DemiBold-I-Normal--18-180-75-75-P-107-ISO8859-1
SIZE 18 72 72
FONTBOUNDINGBOX 30 21 -11 -4
STARTPROPERTIES 22
COMMENT Begin LogicalFontDescription
FONTNAME_REGISTRY ""
FOUNDRY "B&H"
FAMILY_NAME "LucidaBright"
WEIGHT_NAME "DemiBold"
SLANT "I"
SETWIDTH_NAME "Normal"
ADD_STYLE_NAME ""
PIXEL_SIZE 18
POINT_SIZE 180
RESOLUTION_X 75
RESOLUTION_Y 75
SPACING "P"
AVERAGE_WIDTH 107
CHARSET_REGISTRY "ISO8859"
CHARSET_ENCODING "1"
COMMENT END LogicalFontDescription
FONT_ASCENT 16
FONT_DESCENT 4
DEFAULT_CHAR 0
COPYRIGHT "Copyright Bigelow & Holmes 1986, 1985."
FACE_NAME "Lucida Bright Demibold Italic"
X_HEIGHT 9
CAP_HEIGHT 13
ENDPROPERTIES
CHARS 192
STARTCHAR defaultchar
ENCODING 0
SWIDTH 827 0
DWIDTH 15 0
BBX 15 13 1 0
BITMAP
AAAA
0000
8002
0000
8002
0000
8002
0000
8002
0000
8002
0000
AAAA
ENDCHAR
STARTCHAR space
ENCODING 32
SWIDTH 333 0
DWIDTH 6 0
BBX 1 1 0 0
BITMAP
00
ENDCHAR
STARTCHAR exclam
ENCODING 33
SWIDTH 265 0
DWIDTH 5 0
BBX 5 13 1 0
BITMAP
38
38
38
30
30
30
20
60
60
00
00
E0
E0
ENDCHAR
STARTCHAR quotedbl
ENCODING 34
SWIDTH 451 0
DWIDTH 8 0
BBX 7 5 3 8
BITMAP
EE
CC
CC
4C
44
ENDCHAR
STARTCHAR numbersign
ENCODING 35
SWIDTH 636 0
DWIDTH 12 0
BBX 11 13 2 0
BITMAP
0220
0240
0440
0480
7FE0
0900
1100
1200
FFC0
2400
4400
4800
C800
ENDCHAR
STARTCHAR dollar
ENCODING 36
SWIDTH 636 0
DWIDTH 11 0
BBX 10 15 2 -1
BITMAP
0200
0FC0
1AC0
32C0
3400
3C00
1C00
0E00
0F00
0B80
0B80
CB00
CF00
FC00
1000
ENDCHAR
STARTCHAR percent
ENCODING 37
SWIDTH 772 0
DWIDTH 14 0
BBX 12 13 2 0
BITMAP
3830
6C60
CC40
CC80
CD80
7300
06E0
0DB0
0B30
1330
3330
6360
C1C0
ENDCHAR
STARTCHAR ampersand
ENCODING 38
SWIDTH 773 0
DWIDTH 14 0
BBX 13 13 2 0
BITMAP
0780
0CC0
0CC0
0CC0
0D80
0E00
3678
6630
E720
E340
E380
61C0
3EE0
ENDCHAR
STARTCHAR quotesingle
ENCODING 39
SWIDTH 247 0
DWIDTH 4 0
BBX 3 5 3 8
BITMAP
E0
E0
C0
40
40
ENDCHAR
STARTCHAR parenleft
ENCODING 40
SWIDTH 336 0
DWIDTH 6 0
BBX 7 16 2 -3
BITMAP
06
0C
18
30
30
60
60
E0
E0
C0
C0
C0
C0
60
20
20
ENDCHAR
STARTCHAR parenright
ENCODING 41
SWIDTH 336 0
DWIDTH 6 0
BBX 7 16 0 -3
BITMAP
10
08
0C
0C
0C
0E
0C
0C
0C
0C
18
18
30
20
40
80
ENDCHAR
STARTCHAR asterisk
ENCODING 42
SWIDTH 434 0
DWIDTH 8 0
BBX 7 7 3 6
BITMAP
18
5A
D6
6C
38
EC
48
ENDCHAR
STARTCHAR plus
ENCODING 43
SWIDTH 636 0
DWIDTH 11 0
BBX 11 11 1 0
BITMAP
0200
0200
0600
0600
0400
FFE0
0400
0C00
0C00
0800
0800
ENDCHAR
STARTCHAR comma
ENCODING 44
SWIDTH 265 0
DWIDTH 5 0
BBX 4 6 0 -3
BITMAP
70
70
70
20
60
C0
ENDCHAR
STARTCHAR hyphen
ENCODING 45
SWIDTH 289 0
DWIDTH 5 0
BBX 4 1 2 5
BITMAP
F0
ENDCHAR
STARTCHAR period
ENCODING 46
SWIDTH 265 0
DWIDTH 5 0
BBX 3 3 1 0
BITMAP
E0
E0
E0
ENDCHAR
STARTCHAR slash
ENCODING 47
SWIDTH 515 0
DWIDTH 9 0
BBX 12 16 0 -3
BITMAP
0030
0020
0040
00C0
0080
0100
0300
0200
0400
0C00
0800
1000
3000
2000
4000
C000
ENDCHAR
STARTCHAR zero
ENCODING 48
SWIDTH 623 0
DWIDTH 11 0
BBX 11 13 2 0
BITMAP
0F80
19C0
30C0
70C0
60E0
E0C0
E0C0
E1C0
E1C0
E180
E300
6700
3C00
ENDCHAR
STARTCHAR one
ENCODING 49
SWIDTH 636 0
DWIDTH 11 0
BBX 7 13 3 0
BITMAP
3E
0E
0E
0C
0C
1C
1C
1C
18
18
18
38
FE
ENDCHAR
STARTCHAR two
ENCODING 50
SWIDTH 636 0
DWIDTH 11 0
BBX 11 13 1 0
BITMAP
0F80
11E0
30E0
00E0
00E0
01C0
0300
0C00
1000
2000
6000
FF80
FF80
ENDCHAR
STARTCHAR three
ENCODING 51
SWIDTH 636 0
DWIDTH 11 0
BBX 10 13 2 0
BITMAP
1F80
11C0
31C0
01C0
0180
0300
3F00
0380
0380
0380
C380
C700
FC00
ENDCHAR
STARTCHAR four
ENCODING 52
SWIDTH 636 0
DWIDTH 11 0
BBX 10 13 1 0
BITMAP
01C0
03C0
0780
0D80
1980
3180
6380
C300
FFC0
0300
0300
0700
0F80
ENDCHAR
STARTCHAR five
ENCODING 53
SWIDTH 636 0
DWIDTH 11 0
BBX 11 13 2 0
BITMAP
1FE0
1FC0
2000
2000
2000
3C00
0700
0380
0380
0380
C300
C700
FC00
ENDCHAR
STARTCHAR six
ENCODING 54
SWIDTH 636 0
DWIDTH 11 0
BBX 11 13 2 0
BITMAP
07C0
1C60
3840
7000
7000
EF00
F380
E1C0
E1C0
E180
E180
6300
3E00
ENDCHAR
STARTCHAR seven
ENCODING 55
SWIDTH 636 0
DWIDTH 11 0
BBX 10 13 3 0
BITMAP
7FC0
7FC0
0080
0100
0200
0600
0C00
1800
3000
7000
6000
E000
E000
ENDCHAR
STARTCHAR eight
ENCODING 56
SWIDTH 636 0
DWIDTH 11 0
BBX 11 13 2 0
BITMAP
0F80
18C0
38E0
38C0
38C0
1F00
1F80
63C0
E1C0
E1C0
E180
F100
3E00
ENDCHAR
STARTCHAR nine
ENCODING 57
SWIDTH 636 0
DWIDTH 11 0
BBX 11 13 1 0
BITMAP
0F00
19C0
30C0
70E0
60E0
70E0
71C0
3FC0
01C0
0180
C300
C600
FC00
ENDCHAR
STARTCHAR colon
ENCODING 58
SWIDTH 265 0
DWIDTH 5 0
BBX 5 9 1 0
BITMAP
38
38
38
00
00
00
E0
E0
E0
ENDCHAR
STARTCHAR semicolon
ENCODING 59
SWIDTH 265 0
DWIDTH 5 0
BBX 5 12 0 -3
BITMAP
38
38
38
00
00
00
70
60
60
60
60
C0
ENDCHAR
STARTCHAR less
ENCODING 60
SWIDTH 636 0
DWIDTH 11 0
BBX 11 11 2 0
BITMAP
0020
00E0
0380
0E00
3800
E000
3000
1C00
0700
0180
0080
ENDCHAR
STARTCHAR equal
ENCODING 61
SWIDTH 636 0
DWIDTH 11 0
BBX 11 4 1 3
BITMAP
7FE0
0000
0000
FFC0
ENDCHAR
STARTCHAR greater
ENCODING 62
SWIDTH 636 0
DWIDTH 11 0
BBX 11 11 1 0
BITMAP
2000
3000
1C00
0700
0180
00E0
0380
0E00
3800
E000
8000
ENDCHAR
STARTCHAR question
ENCODING 63
SWIDTH 493 0
DWIDTH 9 0
BBX 8 13 2 0
BITMAP
7E
47
C7
07
06
0C
18
30
70
00
00
E0
E0
ENDCHAR
STARTCHAR at
ENCODING 64
SWIDTH 861 0
DWIDTH 16 0
BBX 13 13 2 0
BITMAP
07C0
1830
2018
4708
4CC8
8888
9988
9188
9A90
9DE0
4000
2080
1F00
ENDCHAR
STARTCHAR A
ENCODING 65
SWIDTH 765 0
DWIDTH 14 0
BBX 14 13 0 0
BITMAP
00C0
00E0
01E0
01E0
0260
0460
0470
0870
1FF0
1030
2038
6038
F07C
ENDCHAR
STARTCHAR B
ENCODING 66
SWIDTH 651 0
DWIDTH 12 0
BBX 12 13 1 0
BITMAP
3FE0
0C70
0C70
1C70
1C60
1CC0
1F80
18E0
3860
3860
38E0
31C0
FF80
ENDCHAR
STARTCHAR C
ENCODING 67
SWIDTH 740 0
DWIDTH 13 0
BBX 13 13 2 0
BITMAP
03F8
0C18
1818
3010
7000
6000
E000
E000
E000
E000
7000
7860
1F80
ENDCHAR
STARTCHAR D
ENCODING 68
SWIDTH 822 0
DWIDTH 15 0
BBX 15 13 0 0
BITMAP
3FF8
0E1C
0C0E
1C0E
1C0E
1C0E
1C0E
180E
381C
381C
3838
7870
FFC0
ENDCHAR
STARTCHAR E
ENCODING 69
SWIDTH 630 0
DWIDTH 11 0
BBX 12 13 1 0
BITMAP
3FF0
0C30
1C00
1C00
1C00
1C40
1F80
3880
3800
3800
3840
70C0
FFC0
ENDCHAR
STARTCHAR F
ENCODING 70
SWIDTH 602 0
DWIDTH 11 0
BBX 12 13 1 0
BITMAP
3FF0
0C30
1C30
1C00
1C00
1C40
1F80
3880
3800
3800
3800
7000
FC00
ENDCHAR
STARTCHAR G
ENCODING 71
SWIDTH 780 0
DWIDTH 14 0
BBX 13 13 2 0
BITMAP
03F8
0E18
1818
3000
7000
6000
E000
E1F8
E070
E0E0
60E0
70E0
1F80
ENDCHAR
STARTCHAR H
ENCODING 72
SWIDTH 827 0
DWIDTH 15 0
BBX 16 13 1 0
BITMAP
3F3F
0E0E
1C1C
1C1C
1C1C
1C1C
1FF8
3838
3838
3838
3838
7070
FCFC
ENDCHAR
STARTCHAR I
ENCODING 73
SWIDTH 372 0
DWIDTH 7 0
BBX 8 13 1 0
BITMAP
3F
0E
1C
1C
1C
1C
18
38
38
38
38
70
FC
ENDCHAR
STARTCHAR J
ENCODING 74
SWIDTH 478 0
DWIDTH 9 0
BBX 11 16 0 -3
BITMAP
07E0
03C0
0380
0380
0380
0380
0300
0700
0700
0700
0700
0600
0E00
CE00
CC00
F000
ENDCHAR
STARTCHAR K
ENCODING 75
SWIDTH 746 0
DWIDTH 13 0
BBX 14 13 1 0
BITMAP
3F3C
0E10
0C20
1C40
1D80
1A00
1F00
1B80
3BC0
39C0
30E0
70F0
F9F8
ENDCHAR
STARTCHAR L
ENCODING 76
SWIDTH 611 0
DWIDTH 11 0
BBX 11 13 0 0
BITMAP
1F00
0E00
0C00
1C00
1C00
1C00
1C00
1800
3800
3800
3820
3860
FFC0
ENDCHAR
STARTCHAR M
ENCODING 77
SWIDTH 926 0
DWIDTH 17 0
BBX 18 13 1 0
BITMAP
3C03C0
0E0780
0E0700
1E0F00
161700
131600
132600
134600
334E00
218E00
210C00
600C00
F03F00
ENDCHAR
STARTCHAR N
ENCODING 78
SWIDTH 797 0
DWIDTH 14 0
BBX 16 13 0 0
BITMAP
3C0F
0E06
0E04
1F04
1B0C
1388
11C8
11C8
30E8
20F8
2070
6030
F030
ENDCHAR
STARTCHAR O
ENCODING 79
SWIDTH 831 0
DWIDTH 15 0
BBX 14 13 2 0
BITMAP
03E0
0C30
1818
301C
701C
601C
E018
E038
E038
E070
E060
71C0
1F00
ENDCHAR
STARTCHAR P
ENCODING 80
SWIDTH 628 0
DWIDTH 11 0
BBX 12 13 1 0
BITMAP
3FE0
0C70
1C70
1C70
1C70
1860
18C0
3F80
3800
3800
3000
7000
FC00
ENDCHAR
STARTCHAR Q
ENCODING 81
SWIDTH 835 0
DWIDTH 15 0
BBX 15 16 2 -3
BITMAP
03E0
0C30
1818
3018
701C
601C
E018
E038
E038
E070
E070
71E0
1F80
0100
00C0
003E
ENDCHAR
STARTCHAR R
ENCODING 82
SWIDTH 711 0
DWIDTH 13 0
BBX 12 13 1 0
BITMAP
3FE0
0C70
1C70
1C70
1C60
18E0
1F80
3B80
3980
39C0
30C0
70E0
F8F0
ENDCHAR
STARTCHAR S
ENCODING 83
SWIDTH 587 0
DWIDTH 11 0
BBX 10 13 2 0
BITMAP
0FC0
18C0
38C0
3000
3800
3C00
1F00
0700
0380
0380
C380
C700
FC00
ENDCHAR
STARTCHAR T
ENCODING 84
SWIDTH 716 0
DWIDTH 13 0
BBX 13 13 2 0
BITMAP
FFF8
C718
8718
0600
0E00
0E00
0E00
0E00
0C00
1C00
1C00
1C00
7E00
ENDCHAR
STARTCHAR U
ENCODING 85
SWIDTH 775 0
DWIDTH 14 0
BBX 13 13 3 0
BITMAP
FC78
7030
7020
7020
7020
6020
E020
E040
E040
E040
E080
7180
3E00
ENDCHAR
STARTCHAR V
ENCODING 86
SWIDTH 741 0
DWIDTH 13 0
BBX 14 13 2 0
BITMAP
F83C
7018
7010
3020
3820
3840
3880
1880
1D00
1F00
1E00
1C00
0C00
ENDCHAR
STARTCHAR W
ENCODING 87
SWIDTH 922 0
DWIDTH 17 0
BBX 17 13 2 0
BITMAP
F8C380
70C100
71C200
71C200
72C400
72C400
74C800
74D800
78D000
38F000
30E000
30C000
20C000
ENDCHAR
STARTCHAR X
ENCODING 88
SWIDTH 672 0
DWIDTH 12 0
BBX 14 13 0 0
BITMAP
1F1C
0E18
0E30
0720
0740
0380
0380
0780
0DC0
19C0
30E0
60E0
E1F0
ENDCHAR
STARTCHAR Y
ENCODING 89
SWIDTH 669 0
DWIDTH 12 0
BBX 12 13 3 0
BITMAP
F870
7060
7040
3880
3900
1A00
1E00
1C00
1C00
1C00
1800
3800
7E00
ENDCHAR
STARTCHAR Z
ENCODING 90
SWIDTH 684 0
DWIDTH 12 0
BBX 12 13 1 0
BITMAP
1FF0
10E0
11E0
01C0
0380
0700
0F00
0E00
1C00
3800
7040
70C0
FFC0
ENDCHAR
STARTCHAR bracketleft
ENCODING 91
SWIDTH 336 0
DWIDTH 6 0
BBX 7 16 1 -3
BITMAP
1E
18
18
38
30
30
30
30
70
60
60
60
60
E0
C0
F0
ENDCHAR
STARTCHAR backslash
ENCODING 92
SWIDTH 515 0
DWIDTH 9 0
BBX 5 16 3 -3
BITMAP
80
80
40
40
40
40
20
20
20
20
10
10
10
10
08
08
ENDCHAR
STARTCHAR bracketright
ENCODING 93
SWIDTH 336 0
DWIDTH 6 0
BBX 7 16 0 -3
BITMAP
1E
06
0E
0C
0C
0C
0C
1C
18
18
18
18
38
30
30
F0
ENDCHAR
STARTCHAR asciicircum
ENCODING 94
SWIDTH 636 0
DWIDTH 11 0
BBX 10 11 1 2
BITMAP
0200
0200
0700
0700
0D00
1980
1180
3080
2080
40C0
C0C0
ENDCHAR
STARTCHAR underscore
ENCODING 95
SWIDTH 500 0
DWIDTH 9 0
BBX 8 1 0 -1
BITMAP
FF
ENDCHAR
STARTCHAR grave
ENCODING 96
SWIDTH 599 0
DWIDTH 11 0
BBX 4 3 6 10
BITMAP
E0
60
30
ENDCHAR
STARTCHAR a
ENCODING 97
SWIDTH 634 0
DWIDTH 11 0
BBX 11 9 1 0
BITMAP
07E0
18E0
30C0
61C0
61C0
E3C0
E5C0
F980
73E0
ENDCHAR
STARTCHAR b
ENCODING 98
SWIDTH 633 0
DWIDTH 11 0
BBX 11 13 1 0
BITMAP
7C00
1800
3800
3800
39C0
33E0
74E0
78E0
70C0
60C0
6180
E300
FC00
ENDCHAR
STARTCHAR c
ENCODING 99
SWIDTH 524 0
DWIDTH 9 0
BBX 9 9 1 0
BITMAP
0F80
3980
7180
6000
E000
E000
E000
E100
7E00
ENDCHAR
STARTCHAR d
ENCODING 100
SWIDTH 634 0
DWIDTH 11 0
BBX 11 13 1 0
BITMAP
01E0
00E0
00C0
00C0
0FC0
11C0
31C0
6180
6380
E580
EF80
FB80
73C0
ENDCHAR
STARTCHAR e
ENCODING 101
SWIDTH 548 0
DWIDTH 10 0
BBX 9 9 1 0
BITMAP
0F00
3380
6380
6300
E700
FC00
E000
E180
7E00
ENDCHAR
STARTCHAR f
ENCODING 102
SWIDTH 415 0
DWIDTH 7 0
BBX 10 17 1 -3
BITMAP
07C0
0CC0
0CC0
1C00
1800
7F00
3800
3800
3800
3000
7000
7000
7000
6000
6000
E000
E000
ENDCHAR
STARTCHAR g
ENCODING 103
SWIDTH 628 0
DWIDTH 11 0
BBX 11 12 1 -3
BITMAP
07E0
18E0
30E0
30C0
71C0
63C0
67C0
7D80
7380
8380
C300
7C00
ENDCHAR
STARTCHAR h
ENCODING 104
SWIDTH 656 0
DWIDTH 12 0
BBX 10 13 2 0
BITMAP
7800
3800
3800
3800
3180
37C0
75C0
79C0
7180
6180
6380
E380
E3C0
ENDCHAR
STARTCHAR i
ENCODING 105
SWIDTH 319 0
DWIDTH 6 0
BBX 5 13 2 0
BITMAP
38
38
00
00
F0
70
70
70
60
60
E0
E0
F0
ENDCHAR
STARTCHAR j
ENCODING 106
SWIDTH 381 0
DWIDTH 7 0
BBX 10 17 -1 -4
BITMAP
01C0
01C0
0000
0000
0780
0380
0380
0300
0700
0700
0700
0700
0600
0E00
CC00
CC00
F000
ENDCHAR
STARTCHAR k
ENCODING 107
SWIDTH 626 0
DWIDTH 11 0
BBX 10 13 2 0
BITMAP
7800
3800
3800
3800
31C0
31C0
7380
7E00
7C00
6E00
6700
E380
E3C0
ENDCHAR
STARTCHAR l
ENCODING 108
SWIDTH 319 0
DWIDTH 6 0
BBX 5 13 2 0
BITMAP
78
38
38
30
30
70
70
70
60
60
E0
E0
F0
ENDCHAR
STARTCHAR m
ENCODING 109
SWIDTH 969 0
DWIDTH 17 0
BBX 16 9 2 0
BITMAP
F9CE
37DF
75F7
79E7
71C6
6186
618E
E38E
E38F
ENDCHAR
STARTCHAR n
ENCODING 110
SWIDTH 656 0
DWIDTH 12 0
BBX 10 9 2 0
BITMAP
F180
37C0
7DC0
79C0
7180
6180
6380
E380
E3C0
ENDCHAR
STARTCHAR o
ENCODING 111
SWIDTH 599 0
DWIDTH 11 0
BBX 10 9 1 0
BITMAP
0F80
39C0
71C0
61C0
E1C0
E180
E380
E300
7C00
ENDCHAR
STARTCHAR p
ENCODING 112
SWIDTH 639 0
DWIDTH 11 0
BBX 11 12 1 -3
BITMAP
79C0
3BE0
3EE0
3CE0
38E0
70C0
7180
7100
7E00
E000
E000
E000
ENDCHAR
STARTCHAR q
ENCODING 113
SWIDTH 630 0
DWIDTH 11 0
BBX 11 12 1 -3
BITMAP
07E0
18E0
30C0
61C0
61C0
E3C0
E5C0
F980
7380
0380
0380
0300
ENDCHAR
STARTCHAR r
ENCODING 114
SWIDTH 496 0
DWIDTH 9 0
BBX 9 9 2 0
BITMAP
F180
3700
7C00
7800
7000
6000
6000
E000
E000
ENDCHAR
STARTCHAR s
ENCODING 115
SWIDTH 479 0
DWIDTH 9 0
BBX 8 9 1 0
BITMAP
1F
31
31
38
1C
0E
C6
CE
FC
ENDCHAR
STARTCHAR t
ENCODING 116
SWIDTH 375 0
DWIDTH 7 0
BBX 6 12 2 0
BITMAP
30
30
30
FC
70
60
60
60
E0
E0
E0
70
ENDCHAR
STARTCHAR u
ENCODING 117
SWIDTH 655 0
DWIDTH 12 0
BBX 10 9 2 0
BITMAP
F3C0
71C0
7180
6180
6380
E780
EB80
FB00
E3C0
ENDCHAR
STARTCHAR v
ENCODING 118
SWIDTH 584 0
DWIDTH 11 0
BBX 10 9 2 0
BITMAP
F1C0
70C0
7180
3180
3B00
3A00
3C00
1800
1000
ENDCHAR
STARTCHAR w
ENCODING 119
SWIDTH 822 0
DWIDTH 15 0
BBX 15 9 1 0
BITMAP
E18E
7186
318C
33C8
3FD8
3CF0
38E0
18C0
1080
ENDCHAR
STARTCHAR x
ENCODING 120
SWIDTH 534 0
DWIDTH 10 0
BBX 9 9 1 0
BITMAP
7180
3980
1B00
1E00
1C00
3E00
6E00
C700
C780
ENDCHAR
STARTCHAR y
ENCODING 121
SWIDTH 586 0
DWIDTH 11 0
BBX 12 12 0 -3
BITMAP
3870
1C30
1C20
0C60
0CC0
0F80
0F00
0600
0400
0800
1000
F000
ENDCHAR
STARTCHAR z
ENCODING 122
SWIDTH 567 0
DWIDTH 10 0
BBX 10 9 1 0
BITMAP
3FC0
2380
2700
0E00
0E00
1C00
3880
7180
FF80
ENDCHAR
STARTCHAR braceleft
ENCODING 123
SWIDTH 361 0
DWIDTH 6 0
BBX 7 16 1 -3
BITMAP
0E
1C
18
18
18
18
18
30
E0
30
70
70
E0
E0
C0
70
ENDCHAR
STARTCHAR bar
ENCODING 124
SWIDTH 253 0
DWIDTH 5 0
BBX 5 16 1 -3
BITMAP
18
18
10
10
10
30
30
20
20
60
60
40
40
40
C0
C0
ENDCHAR
STARTCHAR braceright
ENCODING 125
SWIDTH 361 0
DWIDTH 6 0
BBX 7 16 0 -3
BITMAP
1C
0E
0E
0E
1C
18
18
0E
08
30
30
30
30
30
70
E0
ENDCHAR
STARTCHAR asciitilde
ENCODING 126
SWIDTH 636 0
DWIDTH 11 0
BBX 11 4 1 3
BITMAP
3820
4C20
8640
8380
ENDCHAR
STARTCHAR space
ENCODING 160
SWIDTH 333 0
DWIDTH 6 0
BBX 1 1 0 0
BITMAP
00
ENDCHAR
STARTCHAR exclamdown
ENCODING 161
SWIDTH 265 0
DWIDTH 5 0
BBX 5 12 0 -3
BITMAP
38
38
00
30
30
30
60
60
60
E0
E0
E0
ENDCHAR
STARTCHAR cent
ENCODING 162
SWIDTH 636 0
DWIDTH 11 0
BBX 9 13 2 0
BITMAP
0200
0200
1F80
3C80
7480
6400
E400
E400
E800
E900
7E00
0800
1800
ENDCHAR
STARTCHAR sterling
ENCODING 163
SWIDTH 636 0
DWIDTH 11 0
BBX 11 13 2 0
BITMAP
03E0
0660
0E60
0C00
0C00
1C00
3F00
1C00
1800
3800
2000
FF80
FF00
ENDCHAR
STARTCHAR currency
ENCODING 164
SWIDTH 636 0
DWIDTH 12 0
BBX 13 13 1 0
BITMAP
2008
1010
1F20
0CC0
1840
1040
1040
1040
10C0
1980
2FC0
4040
8020
ENDCHAR
STARTCHAR yen
ENCODING 165
SWIDTH 636 0
DWIDTH 11 0
BBX 12 13 2 0
BITMAP
F870
7060
3040
3880
3900
1E00
1E00
7F00
1C00
7F00
1800
3800
7C00
ENDCHAR
STARTCHAR brokenbar
ENCODING 166
SWIDTH 253 0
DWIDTH 5 0
BBX 5 16 1 -3
BITMAP
18
18
10
10
10
30
30
00
00
60
60
40
40
40
C0
C0
ENDCHAR
STARTCHAR section
ENCODING 167
SWIDTH 636 0
DWIDTH 11 0
BBX 10 16 2 -3
BITMAP
0FC0
18C0
30C0
3800
3C00
1F00
3780
6380
7180
7D00
3E00
0F00
0300
C300
C700
FC00
ENDCHAR
STARTCHAR dieresis
ENCODING 168
SWIDTH 599 0
DWIDTH 11 0
BBX 6 1 5 12
BITMAP
CC
ENDCHAR
STARTCHAR copyright
ENCODING 169
SWIDTH 853 0
DWIDTH 15 0
BBX 13 13 2 0
BITMAP
0F80
1060
2030
47D0
8C48
9808
9808
9008
9808
4F90
2030
1060
0F80
ENDCHAR
STARTCHAR ordfeminine
ENCODING 170
SWIDTH 468 0
DWIDTH 8 0
BBX 8 7 2 6
BITMAP
1F
66
66
CE
D6
FE
EF
ENDCHAR
STARTCHAR guillemotleft
ENCODING 171
SWIDTH 527 0
DWIDTH 9 0
BBX 9 9 1 0
BITMAP
0880
1980
3300
6600
EC00
6E00
6600
3200
2300
ENDCHAR
STARTCHAR logicalnot
ENCODING 172
SWIDTH 636 0
DWIDTH 11 0
BBX 11 4 1 3
BITMAP
FFE0
0060
0040
0040
ENDCHAR
STARTCHAR hyphen
ENCODING 173
SWIDTH 289 0
DWIDTH 5 0
BBX 4 1 2 5
BITMAP
F0
ENDCHAR
STARTCHAR registered
ENCODING 174
SWIDTH 636 0
DWIDTH 11 0
BBX 8 9 3 4
BITMAP
3C
42
BD
97
BD
A9
A5
42
3C
ENDCHAR
STARTCHAR macron
ENCODING 175
SWIDTH 599 0
DWIDTH 11 0
BBX 6 1 5 12
BITMAP
FC
ENDCHAR
STARTCHAR degree
ENCODING 176
SWIDTH 259 0
DWIDTH 5 0
BBX 3 3 4 10
BITMAP
E0
A0
E0
ENDCHAR
STARTCHAR plusminus
ENCODING 177
SWIDTH 636 0
DWIDTH 11 0
BBX 12 11 0 0
BITMAP
0100
0300
0300
0200
7FF0
0200
0200
0600
0400
0000
FFE0
ENDCHAR
STARTCHAR twosuperior
ENCODING 178
SWIDTH 381 0
DWIDTH 7 0
BBX 6 9 -10 4
BITMAP
38
4C
0C
0C
18
20
40
C0
F8
ENDCHAR
STARTCHAR threesuperior
ENCODING 179
SWIDTH 381 0
DWIDTH 7 0
BBX 6 9 -10 4
BITMAP
38
4C
0C
08
78
08
08
98
F0
ENDCHAR
STARTCHAR acute
ENCODING 180
SWIDTH 599 0
DWIDTH 11 0
BBX 5 3 6 10
BITMAP
38
60
C0
ENDCHAR
STARTCHAR mu
ENCODING 181
SWIDTH 687 0
DWIDTH 12 0
BBX 11 12 1 -3
BITMAP
79E0
38E0
38C0
30C0
31C0
71C0
73C0
75C0
79E0
6000
E000
E000
ENDCHAR
STARTCHAR paragraph
ENCODING 182
SWIDTH 636 0
DWIDTH 11 0
BBX 8 16 3 -3
BITMAP
7F
F9
FA
F2
F2
72
32
14
24
24
24
24
24
28
48
48
ENDCHAR
STARTCHAR periodcentered
ENCODING 183
SWIDTH 636 0
DWIDTH 11 0
BBX 3 2 5 4
BITMAP
E0
E0
ENDCHAR
STARTCHAR cedilla
ENCODING 184
SWIDTH 599 0
DWIDTH 11 0
BBX 3 3 3 -3
BITMAP
60
20
E0
ENDCHAR
STARTCHAR onesuperior
ENCODING 185
SWIDTH 381 0
DWIDTH 7 0
BBX 4 9 -11 4
BITMAP
70
30
30
20
20
20
20
60
F0
ENDCHAR
STARTCHAR ordmasculine
ENCODING 186
SWIDTH 468 0
DWIDTH 8 0
BBX 8 7 2 6
BITMAP
1E
33
63
C3
C6
C4
78
ENDCHAR
STARTCHAR guillemotright
ENCODING 187
SWIDTH 527 0
DWIDTH 9 0
BBX 9 9 1 0
BITMAP
6200
2600
3300
3B00
1B80
3300
6600
CC00
8800
ENDCHAR
STARTCHAR onequarter
ENCODING 188
SWIDTH 818 0
DWIDTH 15 0
BBX 14 13 4 0
BITMAP
700C
3010
3030
2060
20D8
21B8
2370
66D0
FD90
19F8
3030
6030
C070
ENDCHAR
STARTCHAR onehalf
ENCODING 189
SWIDTH 818 0
DWIDTH 15 0
BBX 14 13 4 0
BITMAP
700C
3010
3030
2060
20F0
2198
2318
6618
FC30
1840
3080
6180
C1F0
ENDCHAR
STARTCHAR threequarters
ENCODING 190
SWIDTH 818 0
DWIDTH 15 0
BBX 14 13 4 0
BITMAP
380C
4C10
0C30
0860
78D8
09B8
0B70
9ED0
FD90
19F8
3030
6030
C070
ENDCHAR
STARTCHAR questiondown
ENCODING 191
SWIDTH 493 0
DWIDTH 9 0
BBX 8 12 0 -3
BITMAP
07
07
00
06
0E
0C
10
60
E0
E3
E3
7E
ENDCHAR
STARTCHAR Agrave
ENCODING 192
SWIDTH 765 0
DWIDTH 14 0
BBX 14 17 0 0
BITMAP
00E0
0060
0030
0000
00C0
00E0
01E0
01E0
0260
0460
0470
0870
1FF0
1030
2038
6038
F07C
ENDCHAR
STARTCHAR Aacute
ENCODING 193
SWIDTH 765 0
DWIDTH 14 0
BBX 14 17 0 0
BITMAP
0038
0060
00C0
0000
00C0
00E0
01E0
01E0
0260
0460
0470
0870
1FF0
1030
2038
6038
F07C
ENDCHAR
STARTCHAR Acircumflex
ENCODING 194
SWIDTH 765 0
DWIDTH 14 0
BBX 14 17 0 0
BITMAP
0070
00F0
0198
0000
00C0
00E0
01E0
01E0
0260
0460
0470
0870
1FF0
1030
2038
6038
F07C
ENDCHAR
STARTCHAR Atilde
ENCODING 195
SWIDTH 765 0
DWIDTH 14 0
BBX 14 16 0 0
BITMAP
00E8
0170
0000
00C0
00E0
01E0
01E0
0260
0460
0470
0870
1FF0
1030
2038
6038
F07C
ENDCHAR
STARTCHAR Adieresis
ENCODING 196
SWIDTH 765 0
DWIDTH 14 0
BBX 14 15 0 0
BITMAP
0198
0000
00C0
00E0
01E0
01E0
0260
0460
0470
0870
1FF0
1030
2038
6038
F07C
ENDCHAR
STARTCHAR Aring
ENCODING 197
SWIDTH 765 0
DWIDTH 14 0
BBX 14 17 0 0
BITMAP
0070
0050
0070
0000
00C0
00E0
01E0
01E0
0260
0460
0470
0870
1FF0
1030
2038
6038
F07C
ENDCHAR
STARTCHAR AE
ENCODING 198
SWIDTH 958 0
DWIDTH 17 0
BBX 19 13 0 0
BITMAP
003FE0
007860
007800
00B800
013080
023F80
067180
047000
0FF000
106000
206000
60E080
E1FF80
ENDCHAR
STARTCHAR Ccedilla
ENCODING 199
SWIDTH 740 0
DWIDTH 13 0
BBX 13 16 2 -3
BITMAP
03F8
0C18
1818
3010
7000
6000
E000
E000
E000
E000
7000
7860
1F80
0800
0400
1C00
ENDCHAR
STARTCHAR Egrave
ENCODING 200
SWIDTH 630 0
DWIDTH 11 0
BBX 12 17 1 0
BITMAP
0380
0180
00C0
0000
3FF0
0C30
1C00
1C00
1C00
1C40
1F80
3880
3800
3800
3840
70C0
FFC0
ENDCHAR
STARTCHAR Eacute
ENCODING 201
SWIDTH 630 0
DWIDTH 11 0
BBX 12 17 1 0
BITMAP
00E0
0180
0300
0000
3FF0
0C30
1C00
1C00
1C00
1C40
1F80
3880
3800
3800
3840
70C0
FFC0
ENDCHAR
STARTCHAR Ecircumflex
ENCODING 202
SWIDTH 630 0
DWIDTH 11 0
BBX 12 17 1 0
BITMAP
01C0
03C0
0660
0000
3FF0
0C30
1C00
1C00
1C00
1C40
1F80
3880
3800
3800
3840
70C0
FFC0
ENDCHAR
STARTCHAR Edieresis
ENCODING 203
SWIDTH 630 0
DWIDTH 11 0
BBX 12 15 1 0
BITMAP
0660
0000
3FF0
0C30
1C00
1C00
1C00
1C40
1F80
3880
3800
3800
3840
70C0
FFC0
ENDCHAR
STARTCHAR Igrave
ENCODING 204
SWIDTH 372 0
DWIDTH 7 0
BBX 8 17 1 0
BITMAP
1C
0C
06
00
3F
0E
1C
1C
1C
1C
18
38
38
38
38
70
FC
ENDCHAR
STARTCHAR Iacute
ENCODING 205
SWIDTH 372 0
DWIDTH 7 0
BBX 9 17 1 0
BITMAP
0380
0600
0C00
0000
3F00
0E00
1C00
1C00
1C00
1C00
1800
3800
3800
3800
3800
7000
FC00
ENDCHAR
STARTCHAR Icircumflex
ENCODING 206
SWIDTH 372 0
DWIDTH 7 0
BBX 8 17 1 0
BITMAP
0E
1E
33
00
3F
0E
1C
1C
1C
1C
18
38
38
38
38
70
FC
ENDCHAR
STARTCHAR Idieresis
ENCODING 207
SWIDTH 372 0
DWIDTH 7 0
BBX 9 15 1 0
BITMAP
1980
0000
3F00
0E00
1C00
1C00
1C00
1C00
1800
3800
3800
3800
3800
7000
FC00
ENDCHAR
STARTCHAR Eth
ENCODING 208
SWIDTH 822 0
DWIDTH 15 0
BBX 15 13 0 0
BITMAP
3FF8
0E1C
0C0E
1C0E
1C0E
1C0E
7F8E
180E
381C
381C
3838
78F0
FFC0
ENDCHAR
STARTCHAR Ntilde
ENCODING 209
SWIDTH 797 0
DWIDTH 14 0
BBX 16 16 0 0
BITMAP
00E8
0170
0000
3C0F
0E06
0E04
1F04
1B0C
1388
11C8
11C8
30E8
20F8
2070
6030
F030
ENDCHAR
STARTCHAR Ograve
ENCODING 210
SWIDTH 831 0
DWIDTH 15 0
BBX 14 17 2 0
BITMAP
0380
0180
00C0
0000
03E0
0C30
1818
301C
701C
601C
E018
E038
E038
E070
E060
71C0
1F00
ENDCHAR
STARTCHAR Oacute
ENCODING 211
SWIDTH 831 0
DWIDTH 15 0
BBX 14 17 2 0
BITMAP
0070
00C0
0180
0000
03E0
0C30
1818
301C
701C
601C
E018
E038
E038
E070
E060
71C0
1F00
ENDCHAR
STARTCHAR Ocircumflex
ENCODING 212
SWIDTH 831 0
DWIDTH 15 0
BBX 14 17 2 0
BITMAP
01C0
03C0
0660
0000
03E0
0C30
1818
301C
701C
601C
E018
E038
E038
E070
E060
71C0
1F00
ENDCHAR
STARTCHAR Otilde
ENCODING 213
SWIDTH 831 0
DWIDTH 15 0
BBX 14 16 2 0
BITMAP
01D0
02E0
0000
03E0
0C30
1818
301C
701C
601C
E018
E038
E038
E070
E060
71C0
1F00
ENDCHAR
STARTCHAR Odieresis
ENCODING 214
SWIDTH 831 0
DWIDTH 15 0
BBX 14 15 2 0
BITMAP
0660
0000
03E0
0C30
1818
301C
701C
601C
E018
E038
E038
E070
E060
71C0
1F00
ENDCHAR
STARTCHAR multiply
ENCODING 215
SWIDTH 636 0
DWIDTH 11 0
BBX 12 11 1 0
BITMAP
2010
3020
1840
0980
0F00
0600
0F00
1900
2180
40C0
8040
ENDCHAR
STARTCHAR Oslash
ENCODING 216
SWIDTH 831 0
DWIDTH 15 0
BBX 16 13 1 0
BITMAP
01F3
061C
0C0C
181E
382E
30CE
718E
731C
761C
7818
7030
3860
CF80
ENDCHAR
STARTCHAR Ugrave
ENCODING 217
SWIDTH 775 0
DWIDTH 14 0
BBX 13 17 3 0
BITMAP
0700
0300
0180
0000
FC78
7030
7020
7020
7020
6020
E020
E040
E040
E040
E080
7180
3E00
ENDCHAR
STARTCHAR Uacute
ENCODING 218
SWIDTH 775 0
DWIDTH 14 0
BBX 13 17 3 0
BITMAP
01C0
0300
0600
0000
FC78
7030
7020
7020
7020
6020
E020
E040
E040
E040
E080
7180
3E00
ENDCHAR
STARTCHAR Ucircumflex
ENCODING 219
SWIDTH 775 0
DWIDTH 14 0
BBX 13 17 3 0
BITMAP
0380
0780
0CC0
0000
FC78
7030
7020
7020
7020
6020
E020
E040
E040
E040
E080
7180
3E00
ENDCHAR
STARTCHAR Udieresis
ENCODING 220
SWIDTH 775 0
DWIDTH 14 0
BBX 13 15 3 0
BITMAP
0CC0
0000
FC78
7030
7020
7020
7020
6020
E020
E040
E040
E040
E080
7180
3E00
ENDCHAR
STARTCHAR Yacute
ENCODING 221
SWIDTH 669 0
DWIDTH 12 0
BBX 12 17 3 0
BITMAP
01C0
0300
0600
0000
F870
7060
7040
3880
3900
1A00
1E00
1C00
1C00
1C00
1800
3800
7E00
ENDCHAR
STARTCHAR Thorn
ENCODING 222
SWIDTH 628 0
DWIDTH 11 0
BBX 12 13 0 0
BITMAP
3F00
0E00
0C00
1FE0
1C70
1C70
1C70
1860
38E0
3F80
3800
3800
FC00
ENDCHAR
STARTCHAR germandbls
ENCODING 223
SWIDTH 656 0
DWIDTH 12 0
BBX 11 17 1 -3
BITMAP
07C0
0CC0
1CE0
18C0
1880
3900
3B00
3B80
31C0
30E0
7060
7460
74E0
6780
6000
E000
E000
ENDCHAR
STARTCHAR agrave
ENCODING 224
SWIDTH 634 0
DWIDTH 11 0
BBX 11 13 1 0
BITMAP
0700
0300
0180
0000
07E0
18E0
30C0
61C0
61C0
E3C0
E5C0
F980
73E0
ENDCHAR
STARTCHAR aacute
ENCODING 225
SWIDTH 634 0
DWIDTH 11 0
BBX 11 13 1 0
BITMAP
00E0
0180
0300
0000
07E0
18E0
30C0
61C0
61C0
E3C0
E5C0
F980
73E0
ENDCHAR
STARTCHAR acircumflex
ENCODING 226
SWIDTH 634 0
DWIDTH 11 0
BBX 11 13 1 0
BITMAP
0380
0780
0CC0
0000
07E0
18E0
30C0
61C0
61C0
E3C0
E5C0
F980
73E0
ENDCHAR
STARTCHAR atilde
ENCODING 227
SWIDTH 634 0
DWIDTH 11 0
BBX 11 12 1 0
BITMAP
03A0
05C0
0000
07E0
18E0
30C0
61C0
61C0
E3C0
E5C0
F980
73E0
ENDCHAR
STARTCHAR adieresis
ENCODING 228
SWIDTH 634 0
DWIDTH 11 0
BBX 11 11 1 0
BITMAP
0660
0000
07E0
18E0
30C0
61C0
61C0
E3C0
E5C0
F980
73E0
ENDCHAR
STARTCHAR aring
ENCODING 229
SWIDTH 634 0
DWIDTH 11 0
BBX 11 13 1 0
BITMAP
0380
0280
0380
0000
07E0
18E0
30C0
61C0
61C0
E3C0
E5C0
F980
73E0
ENDCHAR
STARTCHAR ae
ENCODING 230
SWIDTH 905 0
DWIDTH 16 0
BBX 15 9 1 0
BITMAP
0FDC
11EE
31C6
618E
619C
E3F0
E580
E9C6
70F8
ENDCHAR
STARTCHAR ccedilla
ENCODING 231
SWIDTH 524 0
DWIDTH 9 0
BBX 9 12 1 -3
BITMAP
0F80
3980
7180
6000
E000
E000
E000
E100
7E00
2000
1000
7000
ENDCHAR
STARTCHAR egrave
ENCODING 232
SWIDTH 548 0
DWIDTH 10 0
BBX 9 13 1 0
BITMAP
0E00
0600
0300
0000
0F00
3380
6380
6300
E700
FC00
E000
E180
7E00
ENDCHAR
STARTCHAR eacute
ENCODING 233
SWIDTH 548 0
DWIDTH 10 0
BBX 10 13 1 0
BITMAP
01C0
0300
0600
0000
0F00
3380
6380
6300
E700
FC00
E000
E180
7E00
ENDCHAR
STARTCHAR ecircumflex
ENCODING 234
SWIDTH 548 0
DWIDTH 10 0
BBX 9 13 1 0
BITMAP
0700
0F00
1980
0000
0F00
3380
6380
6300
E700
FC00
E000
E180
7E00
ENDCHAR
STARTCHAR edieresis
ENCODING 235
SWIDTH 548 0
DWIDTH 10 0
BBX 9 11 1 0
BITMAP
1980
0000
0F00
3380
6380
6300
E700
FC00
E000
E180
7E00
ENDCHAR
STARTCHAR igrave
ENCODING 236
SWIDTH 319 0
DWIDTH 6 0
BBX 6 13 1 0
BITMAP
38
18
0C
00
F8
38
30
70
70
70
60
E0
F8
ENDCHAR
STARTCHAR iacute
ENCODING 237
SWIDTH 319 0
DWIDTH 6 0
BBX 7 13 1 0
BITMAP
0E
18
30
00
F8
38
30
70
70
70
60
E0
F8
ENDCHAR
STARTCHAR icircumflex
ENCODING 238
SWIDTH 319 0
DWIDTH 6 0
BBX 7 13 1 0
BITMAP
1C
3C
66
00
F8
38
30
70
70
70
60
E0
F8
ENDCHAR
STARTCHAR idieresis
ENCODING 239
SWIDTH 319 0
DWIDTH 6 0
BBX 7 11 1 0
BITMAP
66
00
F8
38
30
70
70
70
60
E0
F8
ENDCHAR
STARTCHAR eth
ENCODING 240
SWIDTH 617 0
DWIDTH 11 0
BBX 10 14 2 0
BITMAP
0080
3F00
0F00
1F80
1180
0FC0
31C0
61C0
61C0
E180
E180
E300
E200
7C00
ENDCHAR
STARTCHAR ntilde
ENCODING 241
SWIDTH 656 0
DWIDTH 12 0
BBX 10 12 2 0
BITMAP
0740
0B80
0000
F180
37C0
7DC0
79C0
7180
6180
6380
E380
E3C0
ENDCHAR
STARTCHAR ograve
ENCODING 242
SWIDTH 599 0
DWIDTH 11 0
BBX 10 13 1 0
BITMAP
0E00
0600
0300
0000
0F80
39C0
71C0
61C0
E1C0
E180
E380
E300
7C00
ENDCHAR
STARTCHAR oacute
ENCODING 243
SWIDTH 599 0
DWIDTH 11 0
BBX 10 13 1 0
BITMAP
01C0
0300
0600
0000
0F80
39C0
71C0
61C0
E1C0
E180
E380
E300
7C00
ENDCHAR
STARTCHAR ocircumflex
ENCODING 244
SWIDTH 599 0
DWIDTH 11 0
BBX 10 13 1 0
BITMAP
0380
0780
0CC0
0000
0F80
39C0
71C0
61C0
E1C0
E180
E380
E300
7C00
ENDCHAR
STARTCHAR otilde
ENCODING 245
SWIDTH 599 0
DWIDTH 11 0
BBX 10 12 1 0
BITMAP
0740
0B80
0000
0F80
39C0
71C0
61C0
E1C0
E180
E380
E300
7C00
ENDCHAR
STARTCHAR odieresis
ENCODING 246
SWIDTH 599 0
DWIDTH 11 0
BBX 10 11 1 0
BITMAP
0CC0
0000
0F80
39C0
71C0
61C0
E1C0
E180
E380
E300
7C00
ENDCHAR
STARTCHAR divide
ENCODING 247
SWIDTH 636 0
DWIDTH 11 0
BBX 11 9 1 0
BITMAP
0600
0600
0000
0000
FFE0
0000
0000
0C00
0C00
ENDCHAR
STARTCHAR oslash
ENCODING 248
SWIDTH 599 0
DWIDTH 11 0
BBX 12 9 1 0
BITMAP
07B0
18C0
30E0
73E0
74C0
78C0
7180
7300
FE00
ENDCHAR
STARTCHAR ugrave
ENCODING 249
SWIDTH 655 0
DWIDTH 12 0
BBX 10 13 2 0
BITMAP
0E00
0600
0300
0000
F3C0
71C0
7180
6180
6380
E780
EB80
FB00
E3C0
ENDCHAR
STARTCHAR uacute
ENCODING 250
SWIDTH 655 0
DWIDTH 12 0
BBX 10 13 2 0
BITMAP
01C0
0300
0600
0000
F3C0
71C0
7180
6180
6380
E780
EB80
FB00
E3C0
ENDCHAR
STARTCHAR ucircumflex
ENCODING 251
SWIDTH 655 0
DWIDTH 12 0
BBX 10 13 2 0
BITMAP
0380
0780
0CC0
0000
F3C0
71C0
7180
6180
6380
E780
EB80
FB00
E3C0
ENDCHAR
STARTCHAR udieresis
ENCODING 252
SWIDTH 655 0
DWIDTH 12 0
BBX 10 11 2 0
BITMAP
0CC0
0000
F3C0
71C0
7180
6180
6380
E780
EB80
FB00
E3C0
ENDCHAR
STARTCHAR yacute
ENCODING 253
SWIDTH 586 0
DWIDTH 11 0
BBX 12 16 0 -3
BITMAP
0070
00C0
0180
0000
3870
1C30
1C20
0C60
0CC0
0F80
0F00
0600
0400
0800
1000
F000
ENDCHAR
STARTCHAR thorn
ENCODING 254
SWIDTH 639 0
DWIDTH 11 0
BBX 11 16 1 -3
BITMAP
7C00
3800
1800
1800
39C0
3BE0
3EE0
3CE0
38E0
70C0
7180
7100
7E00
6000
E000
E000
ENDCHAR
STARTCHAR ydieresis
ENCODING 255
SWIDTH 586 0
DWIDTH 11 0
BBX 12 14 0 -3
BITMAP
0660
0000
3870
1C30
1C20
0C60
0CC0
0F80
0F00
0600
0400
0800
1000
F000
ENDCHAR
ENDFONT
