STARTFONT 2.1
COMMENT AUTOMATICALLY GENERATED FILE. DO NOT EDIT!
COMMENT Generated with 'ucs2any.pl lubI24.bdf ../../../fonts/util/map-ISO8859-1 ISO8859-1'
COMMENT from an ISO10646-1 encoded source BDF font.
COMMENT ucs2any.pl by Markus Kuhn <mkuhn@acm.org>, 2000.
COMMENT $Xorg: $
COMMENT ISO10646-1 extension by Markus Kuhn <mkuhn@acm.org>, 2001-03-20
COMMENT  (c) Copyright Bigelow & Holmes 1986, 1985. Lucida is a registered
COMMENT  trademark of Bigelow & Holmes. See LEGAL NOTICE file for terms 
COMMENT  of the license. 
FONT -B&H-LucidaBright-Medium-I-Normal--24-240-75-75-P-136-ISO8859-1
SIZE 24 72 72
FONTBOUNDINGBOX 38 27 -13 -5
STARTPROPERTIES 22
COMMENT Begin LogicalFontDescription
FONTNAME_REGISTRY ""
FOUNDRY "B&H"
FAMILY_NAME "LucidaBright"
WEIGHT_NAME "Medium"
SLANT "I"
SETWIDTH_NAME "Normal"
ADD_STYLE_NAME ""
PIXEL_SIZE 24
POINT_SIZE 240
RESOLUTION_X 75
RESOLUTION_Y 75
SPACING "P"
AVERAGE_WIDTH 136
CHARSET_REGISTRY "ISO8859"
CHARSET_ENCODING "1"
COMMENT END LogicalFontDescription
FONT_ASCENT 22
FONT_DESCENT 6
DEFAULT_CHAR 0
COPYRIGHT "Copyright Bigelow & Holmes 1986, 1985."
FACE_NAME "Lucida Bright Italic"
X_HEIGHT 13
CAP_HEIGHT 17
ENDPROPERTIES
CHARS 192
STARTCHAR defaultchar
ENCODING 0
SWIDTH 776 0
DWIDTH 19 0
BBX 21 17 1 0
BITMAP
AAAAA8
000000
800008
000000
800008
000000
800008
000000
800008
000000
800008
000000
800008
000000
800008
000000
AAAAA8
ENDCHAR
STARTCHAR space
ENCODING 32
SWIDTH 333 0
DWIDTH 7 0
BBX 1 1 0 0
BITMAP
00
ENDCHAR
STARTCHAR exclam
ENCODING 33
SWIDTH 265 0
DWIDTH 6 0
BBX 6 17 2 0
BITMAP
0C
1C
18
18
18
18
10
30
30
20
20
20
00
00
00
E0
C0
ENDCHAR
STARTCHAR quotedbl
ENCODING 34
SWIDTH 377 0
DWIDTH 9 0
BBX 6 5 5 12
BITMAP
CC
CC
CC
4C
48
ENDCHAR
STARTCHAR numbersign
ENCODING 35
SWIDTH 608 0
DWIDTH 15 0
BBX 15 17 2 0
BITMAP
00C6
0084
0188
0108
0310
7FFE
0620
0460
0C40
08C0
FFFC
1180
3100
2100
6200
4200
C600
ENDCHAR
STARTCHAR dollar
ENCODING 36
SWIDTH 608 0
DWIDTH 15 0
BBX 11 21 4 -2
BITMAP
0200
0200
0FC0
1A60
3240
3440
3400
3400
3C00
1C00
0E00
0F00
0B80
0980
0980
C980
C900
D300
FC00
1000
1000
ENDCHAR
STARTCHAR percent
ENCODING 37
SWIDTH 759 0
DWIDTH 18 0
BBX 17 17 2 0
BITMAP
0E0180
310300
310600
618C00
611800
633000
222000
3C4000
009E00
013200
026300
066300
0C4300
184300
304600
606400
C03800
ENDCHAR
STARTCHAR ampersand
ENCODING 38
SWIDTH 727 0
DWIDTH 17 0
BBX 18 17 2 0
BITMAP
00F000
019800
030C00
030C00
071800
033000
03E000
0F0000
338FC0
618300
E1C200
C0C600
C0E400
E07800
E07000
707800
1F9F00
ENDCHAR
STARTCHAR quotesingle
ENCODING 39
SWIDTH 231 0
DWIDTH 6 0
BBX 3 5 4 12
BITMAP
E0
E0
40
40
40
ENDCHAR
STARTCHAR parenleft
ENCODING 40
SWIDTH 310 0
DWIDTH 7 0
BBX 8 21 2 -4
BITMAP
01
02
04
08
18
30
30
60
60
E0
E0
C0
C0
C0
C0
C0
C0
40
40
20
10
ENDCHAR
STARTCHAR parenright
ENCODING 41
SWIDTH 310 0
DWIDTH 7 0
BBX 8 21 0 -4
BITMAP
08
04
02
02
02
03
03
03
03
07
07
06
06
06
0C
0C
18
10
20
40
80
ENDCHAR
STARTCHAR asterisk
ENCODING 42
SWIDTH 458 0
DWIDTH 11 0
BBX 9 9 4 8
BITMAP
0C00
0C00
4800
EB80
3600
1800
2400
E600
4400
ENDCHAR
STARTCHAR plus
ENCODING 43
SWIDTH 608 0
DWIDTH 15 0
BBX 14 14 2 0
BITMAP
0080
0080
0180
0180
0100
0100
0100
FFFC
0200
0200
0200
0200
0600
0400
ENDCHAR
STARTCHAR comma
ENCODING 44
SWIDTH 265 0
DWIDTH 6 0
BBX 4 9 1 -5
BITMAP
70
70
70
70
20
20
60
40
C0
ENDCHAR
STARTCHAR hyphen
ENCODING 45
SWIDTH 313 0
DWIDTH 8 0
BBX 6 2 2 7
BITMAP
FC
FC
ENDCHAR
STARTCHAR period
ENCODING 46
SWIDTH 265 0
DWIDTH 6 0
BBX 3 3 2 0
BITMAP
E0
E0
E0
ENDCHAR
STARTCHAR slash
ENCODING 47
SWIDTH 458 0
DWIDTH 11 0
BBX 15 21 0 -4
BITMAP
0006
000C
0008
0018
0010
0020
0060
0040
00C0
0180
0100
0300
0600
0400
0C00
0800
1000
3000
2000
4000
C000
ENDCHAR
STARTCHAR zero
ENCODING 48
SWIDTH 608 0
DWIDTH 15 0
BBX 13 17 3 0
BITMAP
03C0
0C70
1830
3038
3038
7038
6038
6038
E038
E030
C030
C070
C060
E0E0
60C0
7180
1E00
ENDCHAR
STARTCHAR one
ENCODING 49
SWIDTH 608 0
DWIDTH 15 0
BBX 9 17 3 0
BITMAP
1F80
0380
0300
0300
0300
0300
0700
0600
0600
0600
0600
0E00
0C00
0C00
0C00
1C00
FF80
ENDCHAR
STARTCHAR two
ENCODING 50
SWIDTH 608 0
DWIDTH 15 0
BBX 13 17 2 0
BITMAP
07E0
1C70
1838
1018
0018
0038
0030
0060
00C0
0300
0600
0800
1000
2000
6000
FFE0
FFC0
ENDCHAR
STARTCHAR three
ENCODING 51
SWIDTH 608 0
DWIDTH 15 0
BBX 12 17 3 0
BITMAP
0FC0
0870
1830
1030
0030
0060
01C0
1F00
0180
00E0
0060
0060
0060
C0E0
C0C0
C380
FE00
ENDCHAR
STARTCHAR four
ENCODING 52
SWIDTH 608 0
DWIDTH 15 0
BBX 13 17 1 0
BITMAP
0018
0030
0070
00B0
0130
0260
0460
1860
2060
6060
FFF8
FFF8
00C0
00C0
01C0
01C0
07F0
ENDCHAR
STARTCHAR five
ENCODING 53
SWIDTH 608 0
DWIDTH 15 0
BBX 13 17 3 0
BITMAP
0FF8
1FF8
1000
1000
1000
1000
3F00
01C0
00C0
00E0
0060
0060
00E0
C0C0
C1C0
C380
FE00
ENDCHAR
STARTCHAR six
ENCODING 54
SWIDTH 608 0
DWIDTH 15 0
BBX 13 17 3 0
BITMAP
03F0
0618
1C18
1800
3000
7000
77C0
78E0
E070
E070
C070
C070
C060
C060
60C0
7180
1E00
ENDCHAR
STARTCHAR seven
ENCODING 55
SWIDTH 608 0
DWIDTH 15 0
BBX 13 17 4 0
BITMAP
3FF8
3FF8
0010
0020
0040
0080
0100
0300
0600
0400
0800
1800
3000
7000
6000
E000
E000
ENDCHAR
STARTCHAR eight
ENCODING 56
SWIDTH 608 0
DWIDTH 15 0
BBX 12 17 3 0
BITMAP
07C0
0C70
1830
3830
3830
3860
1CC0
0F80
1F80
21C0
60E0
C0E0
C0E0
C0E0
E0C0
6180
3E00
ENDCHAR
STARTCHAR nine
ENCODING 57
SWIDTH 608 0
DWIDTH 15 0
BBX 13 17 3 0
BITMAP
03C0
0C70
1830
3038
3018
7018
7038
7038
7038
38F0
1F70
0070
0060
00C0
C180
C300
7E00
ENDCHAR
STARTCHAR colon
ENCODING 58
SWIDTH 265 0
DWIDTH 6 0
BBX 5 13 2 0
BITMAP
38
38
38
00
00
00
00
00
00
00
E0
E0
E0
ENDCHAR
STARTCHAR semicolon
ENCODING 59
SWIDTH 265 0
DWIDTH 6 0
BBX 6 18 1 -5
BITMAP
1C
1C
1C
00
00
00
00
00
00
00
00
70
70
30
20
60
60
C0
ENDCHAR
STARTCHAR less
ENCODING 60
SWIDTH 608 0
DWIDTH 15 0
BBX 15 14 2 0
BITMAP
0002
000C
0030
01C0
0700
1C00
F000
7000
1800
0E00
0380
00E0
0030
0018
ENDCHAR
STARTCHAR equal
ENCODING 61
SWIDTH 608 0
DWIDTH 15 0
BBX 15 7 1 4
BITMAP
7FFE
0000
0000
0000
0000
0000
FFFC
ENDCHAR
STARTCHAR greater
ENCODING 62
SWIDTH 608 0
DWIDTH 15 0
BBX 15 14 0 0
BITMAP
3000
1800
0E00
0380
00E0
0030
001C
001E
0070
01C0
0700
1800
6000
8000
ENDCHAR
STARTCHAR question
ENCODING 63
SWIDTH 471 0
DWIDTH 11 0
BBX 9 17 4 0
BITMAP
3F00
6380
4180
C180
0180
0380
0300
0400
0800
3000
3000
6000
6000
0000
0000
E000
C000
ENDCHAR
STARTCHAR at
ENCODING 64
SWIDTH 861 0
DWIDTH 21 0
BBX 19 17 3 0
BITMAP
00FC00
030300
0C00C0
100040
20FC20
410C20
420C20
820820
861820
842820
843840
865880
838F00
400000
200000
181000
07E000
ENDCHAR
STARTCHAR A
ENCODING 65
SWIDTH 747 0
DWIDTH 18 0
BBX 18 17 0 0
BITMAP
000800
001800
001C00
003C00
005C00
004C00
008C00
010E00
010E00
020E00
060600
07FE00
080700
100700
200700
200780
F81FC0
ENDCHAR
STARTCHAR B
ENCODING 66
SWIDTH 606 0
DWIDTH 15 0
BBX 15 17 0 0
BITMAP
1FF8
070E
070E
0706
0606
060C
0E18
0E30
0FE0
0C38
0C1C
1C0C
1C0C
181C
1818
3878
FFE0
ENDCHAR
STARTCHAR C
ENCODING 67
SWIDTH 714 0
DWIDTH 17 0
BBX 16 17 3 0
BITMAP
01FF
0707
0E03
1C02
3800
7000
7000
6000
E000
E000
E000
E000
E000
6000
7000
3818
0FE0
ENDCHAR
STARTCHAR D
ENCODING 68
SWIDTH 770 0
DWIDTH 18 0
BBX 19 17 0 0
BITMAP
1FFE00
070380
0701C0
0600E0
0600E0
0600E0
0E00E0
0E00E0
0C00E0
0C00C0
0C00C0
1C01C0
1C0380
180300
180600
381C00
FFF000
ENDCHAR
STARTCHAR E
ENCODING 69
SWIDTH 569 0
DWIDTH 14 0
BBX 15 17 1 0
BITMAP
1FFE
0706
0606
0600
0600
0E00
0E00
0C10
0FF0
0C10
1C00
1C00
1800
1800
1818
3818
FFF0
ENDCHAR
STARTCHAR F
ENCODING 70
SWIDTH 551 0
DWIDTH 13 0
BBX 15 17 1 0
BITMAP
1FFE
0706
0606
0600
0600
0E00
0E00
0C10
0FF0
0C10
1C00
1C00
1800
1800
1800
3800
FE00
ENDCHAR
STARTCHAR G
ENCODING 71
SWIDTH 756 0
DWIDTH 18 0
BBX 16 17 3 0
BITMAP
01FE
0707
0C02
1802
3800
7000
7000
6000
E000
E000
E07F
E01C
E018
E018
7018
3838
0FE0
ENDCHAR
STARTCHAR H
ENCODING 72
SWIDTH 776 0
DWIDTH 19 0
BBX 21 17 1 0
BITMAP
1FC3F8
0700E0
0700C0
0600C0
0601C0
0601C0
0E01C0
0E0180
0FFF80
0C0380
0C0380
1C0300
1C0300
180300
180700
380700
FE1FC0
ENDCHAR
STARTCHAR I
ENCODING 73
SWIDTH 325 0
DWIDTH 8 0
BBX 10 17 1 0
BITMAP
1FC0
0700
0700
0600
0600
0E00
0E00
0C00
0C00
0C00
1C00
1C00
1800
1800
1800
3800
FE00
ENDCHAR
STARTCHAR J
ENCODING 74
SWIDTH 422 0
DWIDTH 10 0
BBX 14 21 0 -4
BITMAP
01FC
0070
0060
0060
00E0
00E0
00C0
00C0
00C0
01C0
01C0
01C0
0180
0180
0380
0380
0300
4300
C600
C600
F800
ENDCHAR
STARTCHAR K
ENCODING 75
SWIDTH 698 0
DWIDTH 17 0
BBX 18 17 1 0
BITMAP
1FC7C0
070300
070600
060C00
061000
0E2000
0EC000
0F8000
0F8000
0DC000
1CE000
1CE000
1C7000
183800
181C00
381C00
FE7F00
ENDCHAR
STARTCHAR L
ENCODING 76
SWIDTH 572 0
DWIDTH 14 0
BBX 13 17 1 0
BITMAP
1FC0
0700
0600
0600
0600
0E00
0E00
0C00
0C00
0C00
1C00
1C00
1800
1800
1808
3818
FFF0
ENDCHAR
STARTCHAR M
ENCODING 77
SWIDTH 865 0
DWIDTH 21 0
BBX 23 17 1 0
BITMAP
1F003E
070078
070070
0780B0
0580B0
058170
0D8270
09C260
08C460
08CC60
18C8E0
18F0C0
1070C0
1060C0
1040C0
3001C0
FC07F0
ENDCHAR
STARTCHAR N
ENCODING 78
SWIDTH 762 0
DWIDTH 18 0
BBX 21 17 1 0
BITMAP
1E01F8
070060
070040
078040
05C040
05C0C0
08E080
086080
087080
083880
183900
101D00
100D00
100F00
100700
300600
FC0200
ENDCHAR
STARTCHAR O
ENCODING 79
SWIDTH 783 0
DWIDTH 19 0
BBX 17 17 3 0
BITMAP
00F800
070E00
0C0700
180300
380380
300380
600380
600380
E00380
E00300
E00300
E00600
E00E00
E00C00
701800
387000
0FC000
ENDCHAR
STARTCHAR P
ENCODING 80
SWIDTH 579 0
DWIDTH 14 0
BBX 15 17 1 0
BITMAP
1FF8
070C
060E
060E
060E
0E0E
0E0C
0C18
0C70
0FC0
1C00
1C00
1800
1800
3800
3800
FE00
ENDCHAR
STARTCHAR Q
ENCODING 81
SWIDTH 788 0
DWIDTH 19 0
BBX 19 22 3 -5
BITMAP
01F800
070E00
0C0700
180300
300380
700380
600380
600380
E00380
E00300
E00700
E00700
E00E00
E00C00
701C00
387800
0FE000
008000
004000
003800
000FE0
0003C0
ENDCHAR
STARTCHAR R
ENCODING 82
SWIDTH 686 0
DWIDTH 16 0
BBX 16 17 1 0
BITMAP
1FFC
070E
0706
0606
0606
060E
0E0C
0E38
0FE0
0CE0
0C70
1C70
1C38
1838
181C
381C
FE0F
ENDCHAR
STARTCHAR S
ENCODING 83
SWIDTH 549 0
DWIDTH 13 0
BBX 13 17 2 0
BITMAP
03E0
0E38
1C10
1810
1810
1C00
1E00
0F00
0780
03C0
00E0
00E0
00E0
40E0
C0C0
C180
7E00
ENDCHAR
STARTCHAR T
ENCODING 84
SWIDTH 663 0
DWIDTH 16 0
BBX 16 17 3 0
BITMAP
7FFF
C183
8182
0380
0380
0300
0300
0300
0700
0700
0600
0600
0E00
0E00
0C00
1C00
7F80
ENDCHAR
STARTCHAR U
ENCODING 85
SWIDTH 727 0
DWIDTH 17 0
BBX 17 17 4 0
BITMAP
FE1F80
380600
300400
300400
300400
700400
700800
600800
600800
E00800
E01800
C01000
C01000
C03000
E02000
70C000
1F8000
ENDCHAR
STARTCHAR V
ENCODING 86
SWIDTH 656 0
DWIDTH 16 0
BBX 17 17 3 0
BITMAP
FC0780
700300
300200
300400
380C00
380800
381000
183000
182000
1C4000
1C4000
1C8000
0D8000
0D0000
0E0000
0E0000
0C0000
ENDCHAR
STARTCHAR W
ENCODING 87
SWIDTH 878 0
DWIDTH 21 0
BBX 22 17 3 0
BITMAP
FC107C
703010
303030
307020
307060
30B040
30B880
313880
313900
321900
321A00
341A00
341C00
381C00
381800
301800
301000
ENDCHAR
STARTCHAR X
ENCODING 88
SWIDTH 624 0
DWIDTH 15 0
BBX 19 17 0 0
BITMAP
0FC3E0
078080
038100
018200
01C400
01C800
00D000
00E000
007000
00F000
013000
023800
041800
081C00
101C00
300E00
F83F00
ENDCHAR
STARTCHAR Y
ENCODING 89
SWIDTH 663 0
DWIDTH 16 0
BBX 16 17 3 0
BITMAP
FC1F
7804
3808
3810
1830
1C60
0C40
0E80
0700
0600
0600
0E00
0E00
0C00
0C00
1C00
7F00
ENDCHAR
STARTCHAR Z
ENCODING 90
SWIDTH 633 0
DWIDTH 15 0
BBX 16 17 1 0
BITMAP
0FFF
0C06
080C
181C
0038
0070
00E0
01C0
0180
0380
0700
0E00
1C00
3800
300C
6018
FFF8
ENDCHAR
STARTCHAR bracketleft
ENCODING 91
SWIDTH 310 0
DWIDTH 7 0
BBX 9 21 1 -4
BITMAP
0F80
0C00
0C00
0C00
1C00
1800
1800
1800
1800
3000
3000
3000
3000
3000
6000
6000
6000
6000
6000
C000
F800
ENDCHAR
STARTCHAR backslash
ENCODING 92
SWIDTH 458 0
DWIDTH 11 0
BBX 7 21 4 -4
BITMAP
C0
C0
40
40
60
20
20
20
30
10
10
10
18
08
08
08
0C
04
04
06
06
ENDCHAR
STARTCHAR bracketright
ENCODING 93
SWIDTH 310 0
DWIDTH 7 0
BBX 9 21 0 -4
BITMAP
0F80
0180
0300
0300
0300
0300
0300
0600
0600
0600
0600
0600
0C00
0C00
0C00
0C00
1C00
1800
1800
1800
F800
ENDCHAR
STARTCHAR asciicircum
ENCODING 94
SWIDTH 608 0
DWIDTH 15 0
BBX 14 14 1 3
BITMAP
0040
0040
00C0
01E0
0120
0220
0630
0410
0810
1810
3008
2008
6008
C004
ENDCHAR
STARTCHAR underscore
ENCODING 95
SWIDTH 500 0
DWIDTH 12 0
BBX 10 2 1 -3
BITMAP
FFC0
FFC0
ENDCHAR
STARTCHAR grave
ENCODING 96
SWIDTH 560 0
DWIDTH 13 0
BBX 4 3 8 14
BITMAP
E0
20
10
ENDCHAR
STARTCHAR a
ENCODING 97
SWIDTH 608 0
DWIDTH 15 0
BBX 13 13 2 0
BITMAP
03F8
0438
1830
1030
3030
6030
6070
E0E0
E160
C360
E660
FCE0
70F8
ENDCHAR
STARTCHAR b
ENCODING 98
SWIDTH 596 0
DWIDTH 14 0
BBX 13 17 2 0
BITMAP
7C00
1C00
1C00
1800
1870
19F8
3B38
3618
3438
3838
7030
7030
6060
6060
60C0
E100
FE00
ENDCHAR
STARTCHAR c
ENCODING 99
SWIDTH 487 0
DWIDTH 12 0
BBX 11 13 2 0
BITMAP
07E0
0860
1060
2040
6000
6000
E000
E000
C000
C000
E000
6080
3F00
ENDCHAR
STARTCHAR d
ENCODING 100
SWIDTH 608 0
DWIDTH 15 0
BBX 14 17 2 0
BITMAP
007C
001C
0018
0018
03F8
0438
1838
3030
3030
6070
6070
E0E0
E160
C360
E6E0
FCE0
70F8
ENDCHAR
STARTCHAR e
ENCODING 101
SWIDTH 518 0
DWIDTH 12 0
BBX 10 13 2 0
BITMAP
0780
08C0
10C0
30C0
60C0
6180
E300
FC00
C000
C000
E040
71C0
3E00
ENDCHAR
STARTCHAR f
ENCODING 102
SWIDTH 380 0
DWIDTH 9 0
BBX 12 24 2 -5
BITMAP
01F0
0230
0630
0420
0C00
0C00
3FC0
1C00
1800
1800
1800
3800
3800
3000
3000
3000
7000
7000
6000
6000
6000
E000
E000
C000
ENDCHAR
STARTCHAR g
ENCODING 103
SWIDTH 602 0
DWIDTH 14 0
BBX 14 18 1 -5
BITMAP
01FC
061C
0818
1818
1018
3038
3038
7070
60B0
61B0
7330
7E70
3860
0060
8060
C0C0
6080
7F00
ENDCHAR
STARTCHAR h
ENCODING 104
SWIDTH 631 0
DWIDTH 15 0
BBX 13 17 2 0
BITMAP
7C00
1C00
1C00
1800
1870
19F8
3B38
3638
3430
3830
7030
7070
6070
6060
6060
E060
C0F8
ENDCHAR
STARTCHAR i
ENCODING 105
SWIDTH 289 0
DWIDTH 7 0
BBX 6 17 2 0
BITMAP
0C
1C
00
00
F8
38
38
30
30
30
70
60
60
60
60
E0
F8
ENDCHAR
STARTCHAR j
ENCODING 106
SWIDTH 343 0
DWIDTH 8 0
BBX 12 22 -1 -5
BITMAP
0070
0070
0000
0000
03E0
00E0
00E0
00C0
00C0
00C0
01C0
01C0
0180
0180
0180
0380
0380
0300
4300
C600
C400
F800
ENDCHAR
STARTCHAR k
ENCODING 107
SWIDTH 560 0
DWIDTH 13 0
BBX 12 17 2 0
BITMAP
7C00
1C00
1800
1800
1870
1860
38E0
31C0
3300
3400
7C00
6E00
6700
6700
6380
E1C0
C0F0
ENDCHAR
STARTCHAR l
ENCODING 108
SWIDTH 289 0
DWIDTH 7 0
BBX 6 17 2 0
BITMAP
7C
1C
18
18
18
18
38
30
30
30
70
60
60
60
60
E0
F8
ENDCHAR
STARTCHAR m
ENCODING 109
SWIDTH 944 0
DWIDTH 23 0
BBX 20 13 3 0
BITMAP
F8E0E0
39F3F0
333770
363470
3C7C60
787860
707060
706060
6060E0
60E0C0
E0E0C0
E0C0C0
C0C1F0
ENDCHAR
STARTCHAR n
ENCODING 110
SWIDTH 631 0
DWIDTH 15 0
BBX 13 13 2 0
BITMAP
F870
39F8
3338
3638
3430
3830
7030
7070
6070
6060
6060
E060
C0F8
ENDCHAR
STARTCHAR o
ENCODING 111
SWIDTH 560 0
DWIDTH 13 0
BBX 12 13 2 0
BITMAP
07C0
0CE0
3870
3070
6070
6070
E070
E060
E060
E0C0
E180
E300
7E00
ENDCHAR
STARTCHAR p
ENCODING 112
SWIDTH 608 0
DWIDTH 15 0
BBX 14 18 1 -5
BITMAP
7C38
1CFC
199C
1B0C
1E1C
3C1C
3818
3018
3030
3020
7060
7080
7F00
6000
6000
E000
E000
C000
ENDCHAR
STARTCHAR q
ENCODING 113
SWIDTH 599 0
DWIDTH 14 0
BBX 13 18 2 -5
BITMAP
03F8
0438
1838
1030
3030
6030
6070
E0F0
E160
C360
E660
FCE0
70E0
00C0
00C0
00C0
01C0
01C0
ENDCHAR
STARTCHAR r
ENCODING 114
SWIDTH 470 0
DWIDTH 11 0
BBX 11 13 2 0
BITMAP
F860
39E0
33C0
3600
3C00
3800
7000
7000
6000
6000
6000
E000
C000
ENDCHAR
STARTCHAR s
ENCODING 115
SWIDTH 440 0
DWIDTH 11 0
BBX 10 13 1 0
BITMAP
0F80
18C0
1840
18C0
1800
1C00
0E00
0700
0380
C180
C180
C300
7E00
ENDCHAR
STARTCHAR t
ENCODING 116
SWIDTH 355 0
DWIDTH 9 0
BBX 8 16 2 0
BITMAP
18
18
38
FF
30
30
70
70
60
60
60
E0
E0
C0
E0
78
ENDCHAR
STARTCHAR u
ENCODING 117
SWIDTH 630 0
DWIDTH 15 0
BBX 13 13 2 0
BITMAP
F8F8
3038
3030
3030
7030
7030
6070
60E0
6160
E360
E660
FCE0
70F8
ENDCHAR
STARTCHAR v
ENCODING 118
SWIDTH 558 0
DWIDTH 13 0
BBX 14 13 1 0
BITMAP
F81C
381C
1818
1C18
1C10
0C30
0C20
0C40
0C80
0F00
0E00
0E00
0C00
ENDCHAR
STARTCHAR w
ENCODING 119
SWIDTH 805 0
DWIDTH 19 0
BBX 19 13 2 0
BITMAP
F020E0
302060
387060
1870C0
18F0C0
18B180
1DB900
1D3B00
0E1E00
0E1C00
0C1C00
0C1800
081000
ENDCHAR
STARTCHAR x
ENCODING 120
SWIDTH 510 0
DWIDTH 12 0
BBX 12 13 1 0
BITMAP
7870
1830
1C60
0C40
0E80
0700
0700
0B00
1380
2180
61C0
C1C0
C0F0
ENDCHAR
STARTCHAR y
ENCODING 121
SWIDTH 558 0
DWIDTH 13 0
BBX 15 18 0 -5
BITMAP
7C0E
1C06
0C06
0E0C
0608
0618
0610
0620
0740
0340
0380
0300
0200
0400
0C00
1800
3000
E000
ENDCHAR
STARTCHAR z
ENCODING 122
SWIDTH 536 0
DWIDTH 13 0
BBX 13 13 1 0
BITMAP
1FF8
1030
3060
00C0
01C0
0380
0700
0E00
1C00
3800
3030
6020
FFE0
ENDCHAR
STARTCHAR braceleft
ENCODING 123
SWIDTH 337 0
DWIDTH 8 0
BBX 8 21 2 -4
BITMAP
07
0C
0C
18
18
18
18
18
10
10
E0
20
30
30
70
60
E0
C0
C0
C0
30
ENDCHAR
STARTCHAR bar
ENCODING 124
SWIDTH 241 0
DWIDTH 6 0
BBX 6 21 1 -4
BITMAP
0C
0C
08
08
18
18
18
10
10
30
30
30
20
20
60
60
60
40
40
C0
C0
ENDCHAR
STARTCHAR braceright
ENCODING 125
SWIDTH 337 0
DWIDTH 8 0
BBX 8 21 2 -4
BITMAP
0E
03
03
03
03
06
06
06
04
06
03
04
08
18
18
18
18
18
18
30
E0
ENDCHAR
STARTCHAR asciitilde
ENCODING 126
SWIDTH 608 0
DWIDTH 15 0
BBX 15 6 1 4
BITMAP
1C00
3E02
4704
81C4
80FC
8078
ENDCHAR
STARTCHAR space
ENCODING 160
SWIDTH 333 0
DWIDTH 7 0
BBX 1 1 0 0
BITMAP
00
ENDCHAR
STARTCHAR exclamdown
ENCODING 161
SWIDTH 265 0
DWIDTH 6 0
BBX 6 18 1 -5
BITMAP
0C
1C
00
00
00
10
10
10
30
30
30
20
60
60
60
E0
E0
C0
ENDCHAR
STARTCHAR cent
ENCODING 162
SWIDTH 608 0
DWIDTH 15 0
BBX 12 17 3 0
BITMAP
0080
0080
03F0
0C90
1930
3100
6100
E200
C200
C200
C200
E200
7440
3F80
0400
0400
0400
ENDCHAR
STARTCHAR sterling
ENCODING 163
SWIDTH 608 0
DWIDTH 15 0
BBX 13 17 3 0
BITMAP
00F0
0118
0208
0618
0600
0E00
0E00
0C00
3F80
0C00
1C00
1C00
1800
1000
2000
FFC0
FFC0
ENDCHAR
STARTCHAR currency
ENCODING 164
SWIDTH 608 0
DWIDTH 15 0
BBX 16 15 1 1
BITMAP
1001
1002
0BE4
0618
0C08
0808
1008
1008
1008
1018
1810
1C70
27D0
4008
8004
ENDCHAR
STARTCHAR yen
ENCODING 165
SWIDTH 608 0
DWIDTH 15 0
BBX 16 17 3 0
BITMAP
FC1F
7004
3808
1810
1820
1C20
0C40
0E80
0700
7FE0
0600
0E00
7FC0
0C00
0C00
1C00
7F00
ENDCHAR
STARTCHAR brokenbar
ENCODING 166
SWIDTH 241 0
DWIDTH 6 0
BBX 6 21 1 -4
BITMAP
0C
0C
08
08
18
18
18
10
10
30
00
30
20
20
60
60
60
40
40
C0
C0
ENDCHAR
STARTCHAR section
ENCODING 167
SWIDTH 608 0
DWIDTH 15 0
BBX 14 22 2 -5
BITMAP
01FC
060C
0C08
0C00
1800
1C00
0F00
0FC0
19E0
1070
3030
3010
3C30
1F20
07C0
01E0
0060
0070
C060
C060
E1C0
7F00
ENDCHAR
STARTCHAR dieresis
ENCODING 168
SWIDTH 560 0
DWIDTH 13 0
BBX 7 2 7 15
BITMAP
C6
C6
ENDCHAR
STARTCHAR copyright
ENCODING 169
SWIDTH 843 0
DWIDTH 20 0
BBX 19 17 2 0
BITMAP
03F800
0E0600
100180
2000C0
40FC40
418420
820420
860020
860020
860020
860020
470820
41F040
2000C0
100180
0E0600
03F800
ENDCHAR
STARTCHAR ordfeminine
ENCODING 170
SWIDTH 458 0
DWIDTH 10 0
BBX 9 9 3 8
BITMAP
0F80
3180
6180
6380
C300
C700
DB00
F300
6780
ENDCHAR
STARTCHAR guillemotleft
ENCODING 171
SWIDTH 525 0
DWIDTH 13 0
BBX 11 11 2 1
BITMAP
0420
0C40
1880
3180
6300
C600
6600
6300
3100
1180
1080
ENDCHAR
STARTCHAR logicalnot
ENCODING 172
SWIDTH 608 0
DWIDTH 15 0
BBX 14 8 2 3
BITMAP
FFFC
000C
000C
000C
0008
0008
0008
0018
ENDCHAR
STARTCHAR hyphen
ENCODING 173
SWIDTH 313 0
DWIDTH 8 0
BBX 6 2 2 7
BITMAP
FC
FC
ENDCHAR
STARTCHAR registered
ENCODING 174
SWIDTH 608 0
DWIDTH 15 0
BBX 12 11 4 6
BITMAP
1F00
20C0
4FC0
88A0
8F10
8A10
8A10
91A0
4060
30C0
0F00
ENDCHAR
STARTCHAR macron
ENCODING 175
SWIDTH 560 0
DWIDTH 13 0
BBX 7 1 7 16
BITMAP
FE
ENDCHAR
STARTCHAR degree
ENCODING 176
SWIDTH 277 0
DWIDTH 7 0
BBX 4 4 4 13
BITMAP
60
90
90
60
ENDCHAR
STARTCHAR plusminus
ENCODING 177
SWIDTH 608 0
DWIDTH 15 0
BBX 16 14 0 0
BITMAP
0040
0040
0040
00C0
00C0
3FFF
0080
0080
0180
0180
0100
0000
0000
FFFC
ENDCHAR
STARTCHAR twosuperior
ENCODING 178
SWIDTH 365 0
DWIDTH 9 0
BBX 8 10 -12 7
BITMAP
1E
23
23
03
06
08
30
40
40
FE
ENDCHAR
STARTCHAR threesuperior
ENCODING 179
SWIDTH 365 0
DWIDTH 9 0
BBX 7 10 -13 7
BITMAP
3C
22
22
06
38
04
06
86
8C
F8
ENDCHAR
STARTCHAR acute
ENCODING 180
SWIDTH 560 0
DWIDTH 13 0
BBX 6 3 8 14
BITMAP
1C
30
C0
ENDCHAR
STARTCHAR mu
ENCODING 181
SWIDTH 663 0
DWIDTH 16 0
BBX 14 17 2 -4
BITMAP
7C7C
181C
1818
1818
3818
3818
3038
3070
3070
70B0
7330
7F70
6E7C
6000
E000
E000
C000
ENDCHAR
STARTCHAR paragraph
ENCODING 182
SWIDTH 608 0
DWIDTH 15 0
BBX 10 21 4 -4
BITMAP
3FC0
7E40
FC40
FC80
FC80
FC80
7C80
3880
1900
0900
0900
0900
1100
1200
1200
1200
1200
1200
2200
2400
2400
ENDCHAR
STARTCHAR periodcentered
ENCODING 183
SWIDTH 608 0
DWIDTH 15 0
BBX 3 2 7 7
BITMAP
E0
E0
ENDCHAR
STARTCHAR cedilla
ENCODING 184
SWIDTH 560 0
DWIDTH 13 0
BBX 4 6 4 -5
BITMAP
20
40
30
30
30
E0
ENDCHAR
STARTCHAR onesuperior
ENCODING 185
SWIDTH 365 0
DWIDTH 9 0
BBX 5 10 -13 7
BITMAP
38
18
10
10
10
10
30
20
20
F8
ENDCHAR
STARTCHAR ordmasculine
ENCODING 186
SWIDTH 458 0
DWIDTH 10 0
BBX 9 9 3 8
BITMAP
0F00
3180
6180
4180
C180
C100
C300
E600
7800
ENDCHAR
STARTCHAR guillemotright
ENCODING 187
SWIDTH 525 0
DWIDTH 13 0
BBX 11 11 2 1
BITMAP
2100
3100
1180
18C0
0CC0
0C60
18C0
3180
2300
4600
8400
ENDCHAR
STARTCHAR onequarter
ENCODING 188
SWIDTH 766 0
DWIDTH 20 0
BBX 19 17 4 0
BITMAP
380060
1800C0
100180
100300
100600
100C00
301800
203040
206180
F8C280
018480
030880
061180
0C3FC0
180100
300100
600780
ENDCHAR
STARTCHAR onehalf
ENCODING 189
SWIDTH 766 0
DWIDTH 20 0
BBX 19 17 4 0
BITMAP
380060
1800C0
100180
100300
100600
100C00
301800
203780
2068C0
F8C8C0
0180C0
030180
060200
0C0C00
181000
301000
603F80
ENDCHAR
STARTCHAR threequarters
ENCODING 190
SWIDTH 766 0
DWIDTH 20 0
BBX 19 17 4 0
BITMAP
3C0060
2200C0
220180
060300
380600
040C00
061800
863040
8C6180
F8C280
018480
030880
061180
0C3FC0
180100
300100
600780
ENDCHAR
STARTCHAR questiondown
ENCODING 191
SWIDTH 471 0
DWIDTH 11 0
BBX 9 18 1 -5
BITMAP
0180
0180
0000
0000
0000
0380
0300
0200
0400
0C00
1000
3000
6000
E000
C080
E080
6180
3F00
ENDCHAR
STARTCHAR Agrave
ENCODING 192
SWIDTH 747 0
DWIDTH 18 0
BBX 18 21 0 0
BITMAP
001C00
000400
000200
000000
000800
001800
001C00
003C00
005C00
004C00
008C00
010E00
010E00
020E00
060600
07FE00
080700
100700
200700
200780
F81FC0
ENDCHAR
STARTCHAR Aacute
ENCODING 193
SWIDTH 747 0
DWIDTH 18 0
BBX 18 21 0 0
BITMAP
000380
000600
001800
000000
000800
001800
001C00
003C00
005C00
004C00
008C00
010E00
010E00
020E00
060600
07FE00
080700
100700
200700
200780
F81FC0
ENDCHAR
STARTCHAR Acircumflex
ENCODING 194
SWIDTH 747 0
DWIDTH 18 0
BBX 18 21 0 0
BITMAP
000F00
001B00
006180
000000
000800
001800
001C00
003C00
005C00
004C00
008C00
010E00
010E00
020E00
060600
07FE00
080700
100700
200700
200780
F81FC0
ENDCHAR
STARTCHAR Atilde
ENCODING 195
SWIDTH 747 0
DWIDTH 18 0
BBX 18 21 0 0
BITMAP
003880
003F00
004700
000000
000800
001800
001C00
003C00
005C00
004C00
008C00
010E00
010E00
020E00
060600
07FE00
080700
100700
200700
200780
F81FC0
ENDCHAR
STARTCHAR Adieresis
ENCODING 196
SWIDTH 747 0
DWIDTH 18 0
BBX 18 20 0 0
BITMAP
003180
003180
000000
000800
001800
001C00
003C00
005C00
004C00
008C00
010E00
010E00
020E00
060600
07FE00
080700
100700
200700
200780
F81FC0
ENDCHAR
STARTCHAR Aring
ENCODING 197
SWIDTH 747 0
DWIDTH 18 0
BBX 18 22 0 0
BITMAP
000C00
001200
001200
000C00
000000
000800
001800
001C00
003C00
005C00
004C00
008C00
010E00
010E00
020E00
060600
07FE00
080700
100700
200700
200780
F81FC0
ENDCHAR
STARTCHAR AE
ENCODING 198
SWIDTH 907 0
DWIDTH 22 0
BBX 24 17 0 0
BITMAP
0003FF
000703
000B02
001300
001700
002700
004600
008608
0187F8
010E08
020E00
07FC00
080C00
100C00
101C0C
201C08
F87FF8
ENDCHAR
STARTCHAR Ccedilla
ENCODING 199
SWIDTH 714 0
DWIDTH 17 0
BBX 16 22 3 -5
BITMAP
01FF
0707
0E03
1C02
3800
7000
7000
6000
E000
E000
E000
E000
E000
6000
7000
3818
0FE0
0800
0600
0600
0600
1C00
ENDCHAR
STARTCHAR Egrave
ENCODING 200
SWIDTH 569 0
DWIDTH 14 0
BBX 15 21 1 0
BITMAP
00E0
0020
0010
0000
1FFE
0706
0606
0600
0600
0E00
0E00
0C10
0FF0
0C10
1C00
1C00
1800
1800
1818
3818
FFF0
ENDCHAR
STARTCHAR Eacute
ENCODING 201
SWIDTH 569 0
DWIDTH 14 0
BBX 15 21 1 0
BITMAP
001C
0030
00C0
0000
1FFE
0706
0606
0600
0600
0E00
0E00
0C10
0FF0
0C10
1C00
1C00
1800
1800
1818
3818
FFF0
ENDCHAR
STARTCHAR Ecircumflex
ENCODING 202
SWIDTH 569 0
DWIDTH 14 0
BBX 15 21 1 0
BITMAP
0078
00D8
030C
0000
1FFE
0706
0606
0600
0600
0E00
0E00
0C10
0FF0
0C10
1C00
1C00
1800
1800
1818
3818
FFF0
ENDCHAR
STARTCHAR Edieresis
ENCODING 203
SWIDTH 569 0
DWIDTH 14 0
BBX 15 20 1 0
BITMAP
018C
018C
0000
1FFE
0706
0606
0600
0600
0E00
0E00
0C10
0FF0
0C10
1C00
1C00
1800
1800
1818
3818
FFF0
ENDCHAR
STARTCHAR Igrave
ENCODING 204
SWIDTH 325 0
DWIDTH 8 0
BBX 10 21 1 0
BITMAP
0700
0100
0080
0000
1FC0
0700
0700
0600
0600
0E00
0E00
0C00
0C00
0C00
1C00
1C00
1800
1800
1800
3800
FE00
ENDCHAR
STARTCHAR Iacute
ENCODING 205
SWIDTH 325 0
DWIDTH 8 0
BBX 11 21 1 0
BITMAP
00E0
0180
0600
0000
1FC0
0700
0700
0600
0600
0E00
0E00
0C00
0C00
0C00
1C00
1C00
1800
1800
1800
3800
FE00
ENDCHAR
STARTCHAR Icircumflex
ENCODING 206
SWIDTH 325 0
DWIDTH 8 0
BBX 11 21 1 0
BITMAP
03C0
06C0
1860
0000
1FC0
0700
0700
0600
0600
0E00
0E00
0C00
0C00
0C00
1C00
1C00
1800
1800
1800
3800
FE00
ENDCHAR
STARTCHAR Idieresis
ENCODING 207
SWIDTH 325 0
DWIDTH 8 0
BBX 11 20 1 0
BITMAP
0C60
0C60
0000
1FC0
0700
0700
0600
0600
0E00
0E00
0C00
0C00
0C00
1C00
1C00
1800
1800
1800
3800
FE00
ENDCHAR
STARTCHAR Eth
ENCODING 208
SWIDTH 770 0
DWIDTH 18 0
BBX 19 17 0 0
BITMAP
1FFE00
070380
0701C0
0600E0
0600E0
0600E0
0E00E0
0E00E0
7FE0E0
0C00C0
0C00C0
1C01C0
1C0380
180300
180600
381C00
FFF000
ENDCHAR
STARTCHAR Ntilde
ENCODING 209
SWIDTH 762 0
DWIDTH 18 0
BBX 21 21 1 0
BITMAP
003880
003F00
004700
000000
1E01F8
070060
070040
078040
05C040
05C0C0
08E080
086080
087080
083880
183900
101D00
100D00
100F00
100700
300600
FC0200
ENDCHAR
STARTCHAR Ograve
ENCODING 210
SWIDTH 783 0
DWIDTH 19 0
BBX 17 21 3 0
BITMAP
00E000
002000
001000
000000
00F800
070E00
0C0700
180300
380380
300380
600380
600380
E00380
E00300
E00300
E00600
E00E00
E00C00
701800
387000
0FC000
ENDCHAR
STARTCHAR Oacute
ENCODING 211
SWIDTH 783 0
DWIDTH 19 0
BBX 17 21 3 0
BITMAP
000E00
001800
006000
000000
00F800
070E00
0C0700
180300
380380
300380
600380
600380
E00380
E00300
E00300
E00600
E00E00
E00C00
701800
387000
0FC000
ENDCHAR
STARTCHAR Ocircumflex
ENCODING 212
SWIDTH 783 0
DWIDTH 19 0
BBX 17 21 3 0
BITMAP
003C00
006C00
018600
000000
00F800
070E00
0C0700
180300
380380
300380
600380
600380
E00380
E00300
E00300
E00600
E00E00
E00C00
701800
387000
0FC000
ENDCHAR
STARTCHAR Otilde
ENCODING 213
SWIDTH 783 0
DWIDTH 19 0
BBX 17 21 3 0
BITMAP
00E200
00FC00
011C00
000000
00F800
070E00
0C0700
180300
380380
300380
600380
600380
E00380
E00300
E00300
E00600
E00E00
E00C00
701800
387000
0FC000
ENDCHAR
STARTCHAR Odieresis
ENCODING 214
SWIDTH 783 0
DWIDTH 19 0
BBX 17 20 3 0
BITMAP
018C00
018C00
000000
00F800
070E00
0C0700
180300
380380
300380
600380
600380
E00380
E00300
E00300
E00600
E00E00
E00C00
701800
387000
0FC000
ENDCHAR
STARTCHAR multiply
ENCODING 215
SWIDTH 608 0
DWIDTH 15 0
BBX 16 14 1 0
BITMAP
3001
1002
080C
0418
0630
0260
0180
0180
06C0
0C60
1820
3010
6008
8008
ENDCHAR
STARTCHAR Oslash
ENCODING 216
SWIDTH 783 0
DWIDTH 19 0
BBX 20 17 1 0
BITMAP
007E30
018340
070180
0E01C0
0C02C0
1804C0
3808C0
3810C0
3060C0
70C1C0
7101C0
720180
340300
380700
380E00
2C1800
C7E000
ENDCHAR
STARTCHAR Ugrave
ENCODING 217
SWIDTH 727 0
DWIDTH 17 0
BBX 17 21 4 0
BITMAP
01C000
004000
002000
000000
FE1F80
380600
300400
300400
300400
700400
700800
600800
600800
E00800
E01800
C01000
C01000
C03000
E02000
70C000
1F8000
ENDCHAR
STARTCHAR Uacute
ENCODING 218
SWIDTH 727 0
DWIDTH 17 0
BBX 17 21 4 0
BITMAP
003800
006000
018000
000000
FE1F80
380600
300400
300400
300400
700400
700800
600800
600800
E00800
E01800
C01000
C01000
C03000
E02000
70C000
1F8000
ENDCHAR
STARTCHAR Ucircumflex
ENCODING 219
SWIDTH 727 0
DWIDTH 17 0
BBX 17 21 4 0
BITMAP
00F000
01B000
061800
000000
FE1F80
380600
300400
300400
300400
700400
700800
600800
600800
E00800
E01800
C01000
C01000
C03000
E02000
70C000
1F8000
ENDCHAR
STARTCHAR Udieresis
ENCODING 220
SWIDTH 727 0
DWIDTH 17 0
BBX 17 20 4 0
BITMAP
031800
031800
000000
FE1F80
380600
300400
300400
300400
700400
700800
600800
600800
E00800
E01800
C01000
C01000
C03000
E02000
70C000
1F8000
ENDCHAR
STARTCHAR Yacute
ENCODING 221
SWIDTH 663 0
DWIDTH 16 0
BBX 16 21 3 0
BITMAP
0038
0060
0180
0000
FC1F
7804
3808
3810
1830
1C60
0C40
0E80
0700
0600
0600
0E00
0E00
0C00
0C00
1C00
7F00
ENDCHAR
STARTCHAR Thorn
ENCODING 222
SWIDTH 579 0
DWIDTH 14 0
BBX 15 17 0 0
BITMAP
1FC0
0700
0700
07F8
060C
060E
0E0E
0E0E
0C0E
0C0C
0C18
1C70
1FC0
1800
1800
3800
FE00
ENDCHAR
STARTCHAR germandbls
ENCODING 223
SWIDTH 603 0
DWIDTH 14 0
BBX 13 24 2 -5
BITMAP
03E0
0630
0630
0C30
0C30
0C60
1C80
1D00
1B00
1B80
19C0
38E0
3870
3038
3018
3218
7210
7630
63C0
6000
6000
E000
E000
C000
ENDCHAR
STARTCHAR agrave
ENCODING 224
SWIDTH 608 0
DWIDTH 15 0
BBX 13 17 2 0
BITMAP
01C0
0040
0020
0000
03F8
0438
1830
1030
3030
6030
6070
E0E0
E160
C360
E660
FCE0
70F8
ENDCHAR
STARTCHAR aacute
ENCODING 225
SWIDTH 608 0
DWIDTH 15 0
BBX 13 17 2 0
BITMAP
0038
0060
0180
0000
03F8
0438
1830
1030
3030
6030
6070
E0E0
E160
C360
E660
FCE0
70F8
ENDCHAR
STARTCHAR acircumflex
ENCODING 226
SWIDTH 608 0
DWIDTH 15 0
BBX 13 17 2 0
BITMAP
00F0
01B0
0618
0000
03F8
0438
1830
1030
3030
6030
6070
E0E0
E160
C360
E660
FCE0
70F8
ENDCHAR
STARTCHAR atilde
ENCODING 227
SWIDTH 608 0
DWIDTH 15 0
BBX 14 17 2 0
BITMAP
01C4
01F8
0238
0000
03F8
0438
1830
1030
3030
6030
6070
E0E0
E160
C360
E660
FCE0
70F8
ENDCHAR
STARTCHAR adieresis
ENCODING 228
SWIDTH 608 0
DWIDTH 15 0
BBX 13 16 2 0
BITMAP
0318
0318
0000
03F8
0438
1830
1030
3030
6030
6070
E0E0
E160
C360
E660
FCE0
70F8
ENDCHAR
STARTCHAR aring
ENCODING 229
SWIDTH 608 0
DWIDTH 15 0
BBX 13 18 2 0
BITMAP
00C0
0120
0120
00C0
0000
03F8
0438
1830
1030
3030
6030
6070
E0E0
E160
C360
E660
FCE0
70F8
ENDCHAR
STARTCHAR ae
ENCODING 230
SWIDTH 881 0
DWIDTH 21 0
BBX 20 13 2 0
BITMAP
03F9E0
043E70
183830
103830
303060
603060
607180
E0FE00
E0F000
E13000
E63010
FC3860
701F80
ENDCHAR
STARTCHAR ccedilla
ENCODING 231
SWIDTH 487 0
DWIDTH 12 0
BBX 11 18 2 -5
BITMAP
07E0
0860
1060
2040
6000
6000
E000
E000
C000
C000
E000
6080
3F00
2000
1800
1800
1800
7000
ENDCHAR
STARTCHAR egrave
ENCODING 232
SWIDTH 518 0
DWIDTH 12 0
BBX 10 17 2 0
BITMAP
0700
0100
0080
0000
0780
08C0
10C0
30C0
60C0
6180
E300
FC00
C000
C000
E040
71C0
3E00
ENDCHAR
STARTCHAR eacute
ENCODING 233
SWIDTH 518 0
DWIDTH 12 0
BBX 12 17 2 0
BITMAP
0070
00C0
0300
0000
0780
08C0
10C0
30C0
60C0
6180
E300
FC00
C000
C000
E040
71C0
3E00
ENDCHAR
STARTCHAR ecircumflex
ENCODING 234
SWIDTH 518 0
DWIDTH 12 0
BBX 12 17 2 0
BITMAP
01E0
0360
0C30
0000
0780
08C0
10C0
30C0
60C0
6180
E300
FC00
C000
C000
E040
71C0
3E00
ENDCHAR
STARTCHAR edieresis
ENCODING 235
SWIDTH 518 0
DWIDTH 12 0
BBX 12 16 2 0
BITMAP
0630
0630
0000
0780
08C0
10C0
30C0
60C0
6180
E300
FC00
C000
C000
E040
71C0
3E00
ENDCHAR
STARTCHAR igrave
ENCODING 236
SWIDTH 289 0
DWIDTH 7 0
BBX 6 17 2 0
BITMAP
38
08
04
00
F8
38
30
30
30
30
70
60
60
60
60
E0
F8
ENDCHAR
STARTCHAR iacute
ENCODING 237
SWIDTH 289 0
DWIDTH 7 0
BBX 9 17 2 0
BITMAP
0380
0600
1800
0000
F800
3800
3000
3000
3000
3000
7000
6000
6000
6000
6000
E000
F800
ENDCHAR
STARTCHAR icircumflex
ENCODING 238
SWIDTH 289 0
DWIDTH 7 0
BBX 9 17 2 0
BITMAP
0F00
1B00
6180
0000
F800
3800
3000
3000
3000
3000
7000
6000
6000
6000
6000
E000
F800
ENDCHAR
STARTCHAR idieresis
ENCODING 239
SWIDTH 289 0
DWIDTH 7 0
BBX 8 16 2 0
BITMAP
63
63
00
F8
38
30
30
30
30
70
60
60
60
60
E0
F8
ENDCHAR
STARTCHAR eth
ENCODING 240
SWIDTH 562 0
DWIDTH 13 0
BBX 12 19 2 0
BITMAP
0030
0040
1F80
03C0
06E0
0860
07E0
0860
3070
3070
6070
6070
C060
C060
C060
E0C0
E080
6100
3E00
ENDCHAR
STARTCHAR ntilde
ENCODING 241
SWIDTH 631 0
DWIDTH 15 0
BBX 13 17 2 0
BITMAP
0388
03F0
0470
0000
F870
39F8
3338
3638
3430
3830
7030
7070
6070
6060
6060
E060
C0F8
ENDCHAR
STARTCHAR ograve
ENCODING 242
SWIDTH 560 0
DWIDTH 13 0
BBX 12 17 2 0
BITMAP
0380
0080
0040
0000
07C0
0CE0
3870
3070
6070
6070
E070
E060
E060
E0C0
E180
E300
7E00
ENDCHAR
STARTCHAR oacute
ENCODING 243
SWIDTH 560 0
DWIDTH 13 0
BBX 12 17 2 0
BITMAP
0070
00C0
0300
0000
07C0
0CE0
3870
3070
6070
6070
E070
E060
E060
E0C0
E180
E300
7E00
ENDCHAR
STARTCHAR ocircumflex
ENCODING 244
SWIDTH 560 0
DWIDTH 13 0
BBX 12 17 2 0
BITMAP
01E0
0360
0C30
0000
07C0
0CE0
3870
3070
6070
6070
E070
E060
E060
E0C0
E180
E300
7E00
ENDCHAR
STARTCHAR otilde
ENCODING 245
SWIDTH 560 0
DWIDTH 13 0
BBX 13 17 2 0
BITMAP
0388
03F0
0470
0000
07C0
0CE0
3870
3070
6070
6070
E070
E060
E060
E0C0
E180
E300
7E00
ENDCHAR
STARTCHAR odieresis
ENCODING 246
SWIDTH 560 0
DWIDTH 13 0
BBX 12 16 2 0
BITMAP
0630
0630
0000
07C0
0CE0
3870
3070
6070
6070
E070
E060
E060
E0C0
E180
E300
7E00
ENDCHAR
STARTCHAR divide
ENCODING 247
SWIDTH 608 0
DWIDTH 15 0
BBX 14 13 2 0
BITMAP
0180
0180
0000
0000
0000
0000
FFFC
0000
0000
0000
0000
0600
0600
ENDCHAR
STARTCHAR oslash
ENCODING 248
SWIDTH 560 0
DWIDTH 13 0
BBX 14 13 1 0
BITMAP
01EC
0638
0838
1878
30F8
31B8
7338
7630
7C30
7860
7040
7980
DF00
ENDCHAR
STARTCHAR ugrave
ENCODING 249
SWIDTH 630 0
DWIDTH 15 0
BBX 13 17 2 0
BITMAP
0380
0080
0040
0000
F8F8
3038
3030
3030
7030
7030
6070
60E0
6160
E360
E660
FCE0
70F8
ENDCHAR
STARTCHAR uacute
ENCODING 250
SWIDTH 630 0
DWIDTH 15 0
BBX 13 17 2 0
BITMAP
0038
0060
0180
0000
F8F8
3038
3030
3030
7030
7030
6070
60E0
6160
E360
E660
FCE0
70F8
ENDCHAR
STARTCHAR ucircumflex
ENCODING 251
SWIDTH 630 0
DWIDTH 15 0
BBX 13 17 2 0
BITMAP
00F0
01B0
0618
0000
F8F8
3038
3030
3030
7030
7030
6070
60E0
6160
E360
E660
FCE0
70F8
ENDCHAR
STARTCHAR udieresis
ENCODING 252
SWIDTH 630 0
DWIDTH 15 0
BBX 13 16 2 0
BITMAP
0318
0318
0000
F8F8
3038
3030
3030
7030
7030
6070
60E0
6160
E360
E660
FCE0
70F8
ENDCHAR
STARTCHAR yacute
ENCODING 253
SWIDTH 558 0
DWIDTH 13 0
BBX 15 22 0 -5
BITMAP
000E
0018
0060
0000
7C0E
1C06
0C06
0E0C
0608
0618
0610
0620
0740
0340
0380
0300
0200
0400
0C00
1800
3000
E000
ENDCHAR
STARTCHAR thorn
ENCODING 254
SWIDTH 608 0
DWIDTH 15 0
BBX 14 21 1 -5
BITMAP
3E00
0C00
0C00
0C38
1CFC
199C
1B0C
1E1C
1C1C
3818
3018
3030
3020
3060
7080
7F00
6000
6000
6000
E000
C000
ENDCHAR
STARTCHAR ydieresis
ENCODING 255
SWIDTH 558 0
DWIDTH 13 0
BBX 15 21 0 -5
BITMAP
018C
018C
0000
7C0E
1C06
0C06
0E0C
0608
0618
0610
0620
0740
0340
0380
0300
0200
0400
0C00
1800
3000
E000
ENDCHAR
ENDFONT
