STARTFONT 2.1
COMMENT AUTOMATICALLY GENERATED FILE. DO NOT EDIT!
COMMENT Generated with 'ucs2any.pl lubI18.bdf ../../../fonts/util/map-ISO8859-1 ISO8859-1'
COMMENT from an ISO10646-1 encoded source BDF font.
COMMENT ucs2any.pl by Markus Kuhn <mkuhn@acm.org>, 2000.
COMMENT $Xorg: $
COMMENT ISO10646-1 extension by Markus Kuhn <mkuhn@acm.org>, 2001-03-20
COMMENT  (c) Copyright Bigelow & Holmes 1986, 1985. Lucida is a registered
COMMENT  trademark of Bigelow & Holmes. See LEGAL NOTICE file for terms 
COMMENT  of the license. 
FONT -B&H-LucidaBright-Medium-I-Normal--18-180-75-75-P-102-ISO8859-1
SIZE 18 72 72
FONTBOUNDINGBOX 28 21 -9 -4
STARTPROPERTIES 22
COMMENT Begin LogicalFontDescription
FONTNAME_REGISTRY ""
FOUNDRY "B&H"
FAMILY_NAME "LucidaBright"
WEIGHT_NAME "Medium"
SLANT "I"
SETWIDTH_NAME "Normal"
ADD_STYLE_NAME ""
PIXEL_SIZE 18
POINT_SIZE 180
RESOLUTION_X 75
RESOLUTION_Y 75
SPACING "P"
AVERAGE_WIDTH 102
CHARSET_REGISTRY "ISO8859"
CHARSET_ENCODING "1"
COMMENT END LogicalFontDescription
FONT_ASCENT 16
FONT_DESCENT 4
DEFAULT_CHAR 0
COPYRIGHT "Copyright Bigelow & Holmes 1986, 1985."
FACE_NAME "Lucida Bright Italic"
X_HEIGHT 9
CAP_HEIGHT 13
ENDPROPERTIES
CHARS 192
STARTCHAR defaultchar
ENCODING 0
SWIDTH 776 0
DWIDTH 14 0
BBX 15 13 0 0
BITMAP
AAAA
0000
8002
0000
8002
0000
8002
0000
8002
0000
8002
0000
AAAA
ENDCHAR
STARTCHAR space
ENCODING 32
SWIDTH 333 0
DWIDTH 5 0
BBX 1 1 0 0
BITMAP
00
ENDCHAR
STARTCHAR exclam
ENCODING 33
SWIDTH 265 0
DWIDTH 5 0
BBX 4 13 2 0
BITMAP
30
30
30
20
20
20
40
40
40
40
00
00
C0
ENDCHAR
STARTCHAR quotedbl
ENCODING 34
SWIDTH 377 0
DWIDTH 7 0
BBX 5 4 3 9
BITMAP
D8
D0
90
90
ENDCHAR
STARTCHAR numbersign
ENCODING 35
SWIDTH 608 0
DWIDTH 11 0
BBX 11 13 1 0
BITMAP
0220
0240
0440
0480
7FE0
0900
1100
1200
FFC0
2400
4400
4800
8800
ENDCHAR
STARTCHAR dollar
ENCODING 36
SWIDTH 608 0
DWIDTH 11 0
BBX 9 15 3 -1
BITMAP
0400
1F80
3580
6900
6800
6800
3800
1C00
1E00
1300
1300
9200
9400
F800
2000
ENDCHAR
STARTCHAR percent
ENCODING 37
SWIDTH 759 0
DWIDTH 14 0
BBX 13 13 2 0
BITMAP
3C18
2420
4460
44C0
4C80
3900
02E0
0590
0910
1310
2330
6120
C1C0
ENDCHAR
STARTCHAR ampersand
ENCODING 38
SWIDTH 727 0
DWIDTH 13 0
BBX 13 13 1 0
BITMAP
0380
04C0
0CC0
0CC0
0D80
1E00
64F8
C620
C220
C340
C1C0
6180
3EE0
ENDCHAR
STARTCHAR quotesingle
ENCODING 39
SWIDTH 231 0
DWIDTH 4 0
BBX 2 4 3 9
BITMAP
C0
C0
40
40
ENDCHAR
STARTCHAR parenleft
ENCODING 40
SWIDTH 310 0
DWIDTH 6 0
BBX 6 16 2 -3
BITMAP
04
08
10
20
20
60
40
C0
C0
C0
C0
C0
80
40
40
20
ENDCHAR
STARTCHAR parenright
ENCODING 41
SWIDTH 310 0
DWIDTH 6 0
BBX 6 16 0 -3
BITMAP
10
08
08
0C
0C
0C
0C
0C
0C
08
18
10
10
20
40
80
ENDCHAR
STARTCHAR asterisk
ENCODING 42
SWIDTH 458 0
DWIDTH 8 0
BBX 7 7 3 6
BITMAP
18
10
D6
2C
30
C8
48
ENDCHAR
STARTCHAR plus
ENCODING 43
SWIDTH 608 0
DWIDTH 11 0
BBX 11 11 1 0
BITMAP
0200
0200
0400
0400
0400
FFE0
0400
0800
0800
0800
0800
ENDCHAR
STARTCHAR comma
ENCODING 44
SWIDTH 265 0
DWIDTH 5 0
BBX 3 5 1 -3
BITMAP
60
60
60
40
C0
ENDCHAR
STARTCHAR hyphen
ENCODING 45
SWIDTH 313 0
DWIDTH 6 0
BBX 4 1 2 5
BITMAP
F0
ENDCHAR
STARTCHAR period
ENCODING 46
SWIDTH 265 0
DWIDTH 5 0
BBX 3 2 1 0
BITMAP
E0
E0
ENDCHAR
STARTCHAR slash
ENCODING 47
SWIDTH 458 0
DWIDTH 8 0
BBX 11 16 0 -3
BITMAP
0020
0040
0080
0080
0100
0300
0200
0400
0400
0800
1800
1000
2000
2000
4000
8000
ENDCHAR
STARTCHAR zero
ENCODING 48
SWIDTH 608 0
DWIDTH 11 0
BBX 10 13 2 0
BITMAP
0F00
1980
3080
60C0
60C0
C0C0
C080
C180
C180
C100
C300
6600
3C00
ENDCHAR
STARTCHAR one
ENCODING 49
SWIDTH 608 0
DWIDTH 11 0
BBX 7 13 2 0
BITMAP
1E
06
04
04
0C
0C
0C
08
18
18
18
18
FE
ENDCHAR
STARTCHAR two
ENCODING 50
SWIDTH 608 0
DWIDTH 11 0
BBX 10 13 2 0
BITMAP
0F80
11C0
20C0
00C0
00C0
0180
0300
0400
1800
2000
6000
4000
FF00
ENDCHAR
STARTCHAR three
ENCODING 51
SWIDTH 608 0
DWIDTH 11 0
BBX 9 13 2 0
BITMAP
1F00
1180
2180
0180
0180
0300
3C00
0200
0300
0300
8300
8600
FC00
ENDCHAR
STARTCHAR four
ENCODING 52
SWIDTH 608 0
DWIDTH 11 0
BBX 9 13 1 0
BITMAP
0080
0380
0500
0900
1300
2300
2300
4200
FF80
0600
0600
0600
1F00
ENDCHAR
STARTCHAR five
ENCODING 53
SWIDTH 608 0
DWIDTH 11 0
BBX 10 13 2 0
BITMAP
1FC0
2000
2000
2000
3C00
0600
0300
0300
0300
0300
8300
8600
F800
ENDCHAR
STARTCHAR six
ENCODING 54
SWIDTH 608 0
DWIDTH 11 0
BBX 10 13 2 0
BITMAP
0780
18C0
3080
6000
6000
7F00
E300
C180
C180
C180
C300
6600
3C00
ENDCHAR
STARTCHAR seven
ENCODING 55
SWIDTH 608 0
DWIDTH 11 0
BBX 10 13 3 0
BITMAP
7FC0
0080
0080
0100
0200
0400
0800
1000
3000
2000
6000
C000
C000
ENDCHAR
STARTCHAR eight
ENCODING 56
SWIDTH 608 0
DWIDTH 11 0
BBX 9 13 2 0
BITMAP
0F00
1180
3180
2180
3100
1E00
3E00
4700
C300
C300
C300
C600
7C00
ENDCHAR
STARTCHAR nine
ENCODING 57
SWIDTH 608 0
DWIDTH 11 0
BBX 10 13 2 0
BITMAP
0F00
1180
2080
60C0
60C0
60C0
6180
3F80
0180
0300
8300
8600
7800
ENDCHAR
STARTCHAR colon
ENCODING 58
SWIDTH 265 0
DWIDTH 5 0
BBX 4 9 1 0
BITMAP
30
70
00
00
00
00
00
E0
C0
ENDCHAR
STARTCHAR semicolon
ENCODING 59
SWIDTH 265 0
DWIDTH 5 0
BBX 5 12 1 -3
BITMAP
18
38
00
00
00
00
00
60
60
60
60
C0
ENDCHAR
STARTCHAR less
ENCODING 60
SWIDTH 608 0
DWIDTH 11 0
BBX 11 11 2 0
BITMAP
0020
00C0
0300
0C00
3000
C000
3000
1800
0600
0100
0080
ENDCHAR
STARTCHAR equal
ENCODING 61
SWIDTH 608 0
DWIDTH 11 0
BBX 11 4 1 3
BITMAP
7FE0
0000
0000
FFC0
ENDCHAR
STARTCHAR greater
ENCODING 62
SWIDTH 608 0
DWIDTH 11 0
BBX 11 11 0 0
BITMAP
2000
1000
0C00
0300
0180
0060
0180
0600
1800
6000
8000
ENDCHAR
STARTCHAR question
ENCODING 63
SWIDTH 471 0
DWIDTH 8 0
BBX 7 13 3 0
BITMAP
7C
C6
86
06
04
08
10
20
60
40
00
00
C0
ENDCHAR
STARTCHAR at
ENCODING 64
SWIDTH 861 0
DWIDTH 16 0
BBX 14 13 2 0
BITMAP
03E0
0C18
3004
23E4
4444
8844
88C4
88C4
89C8
8E70
4000
2080
1F00
ENDCHAR
STARTCHAR A
ENCODING 65
SWIDTH 747 0
DWIDTH 13 0
BBX 13 13 0 0
BITMAP
00C0
00C0
01C0
03C0
02C0
0460
0C60
0860
1FE0
1060
2020
4030
F0F8
ENDCHAR
STARTCHAR B
ENCODING 66
SWIDTH 606 0
DWIDTH 11 0
BBX 11 13 0 0
BITMAP
3FC0
0C60
0C60
0860
1840
1880
1F00
19C0
10C0
30C0
30C0
31C0
FF00
ENDCHAR
STARTCHAR C
ENCODING 67
SWIDTH 714 0
DWIDTH 13 0
BBX 12 13 2 0
BITMAP
07F0
1C30
3030
3000
6000
6000
C000
C000
C000
C000
E000
70C0
3F00
ENDCHAR
STARTCHAR D
ENCODING 68
SWIDTH 770 0
DWIDTH 14 0
BBX 14 13 0 0
BITMAP
3FF0
0C38
0C1C
080C
180C
180C
180C
180C
3018
3018
3030
30E0
FF80
ENDCHAR
STARTCHAR E
ENCODING 69
SWIDTH 569 0
DWIDTH 10 0
BBX 11 13 1 0
BITMAP
3FE0
1820
1820
1800
1800
1880
1F80
3100
3000
3000
3080
3080
FF80
ENDCHAR
STARTCHAR F
ENCODING 70
SWIDTH 551 0
DWIDTH 10 0
BBX 11 13 1 0
BITMAP
3FE0
1820
1820
1800
1800
1880
1F80
3100
3000
3000
3000
3000
F800
ENDCHAR
STARTCHAR G
ENCODING 71
SWIDTH 756 0
DWIDTH 14 0
BBX 12 13 2 0
BITMAP
07F0
1C30
3020
3000
6000
4000
C000
C1F0
C0C0
C0C0
E0C0
70C0
3F00
ENDCHAR
STARTCHAR H
ENCODING 72
SWIDTH 776 0
DWIDTH 14 0
BBX 16 13 0 0
BITMAP
1F1F
0C0C
0C0C
080C
1808
1818
1FF8
1818
1018
3010
3030
3030
F8F8
ENDCHAR
STARTCHAR I
ENCODING 73
SWIDTH 325 0
DWIDTH 6 0
BBX 8 13 0 0
BITMAP
1F
0C
0C
0C
08
18
18
18
10
30
30
30
F8
ENDCHAR
STARTCHAR J
ENCODING 74
SWIDTH 422 0
DWIDTH 8 0
BBX 10 16 0 -3
BITMAP
07C0
0380
0300
0300
0300
0200
0600
0600
0600
0600
0400
0C00
0C00
CC00
9800
F000
ENDCHAR
STARTCHAR K
ENCODING 75
SWIDTH 698 0
DWIDTH 13 0
BBX 14 13 0 0
BITMAP
1F3C
0C18
0C20
0CC0
1980
1A00
1E00
1B00
1380
31C0
30C0
3060
F9F0
ENDCHAR
STARTCHAR L
ENCODING 76
SWIDTH 572 0
DWIDTH 10 0
BBX 10 13 0 0
BITMAP
3F00
0C00
0C00
0800
1800
1800
1800
1800
3000
3000
3040
30C0
FFC0
ENDCHAR
STARTCHAR M
ENCODING 77
SWIDTH 865 0
DWIDTH 16 0
BBX 17 13 1 0
BITMAP
3C0780
0C0600
0C0E00
161E00
161600
162400
126C00
134C00
238C00
238800
210800
201800
F03E00
ENDCHAR
STARTCHAR N
ENCODING 78
SWIDTH 762 0
DWIDTH 14 0
BBX 16 13 0 0
BITMAP
3C1F
0C04
0E04
1608
1308
1308
1188
10C8
20D0
2070
2070
2030
F020
ENDCHAR
STARTCHAR O
ENCODING 79
SWIDTH 783 0
DWIDTH 14 0
BBX 13 13 2 0
BITMAP
07C0
0C70
3030
2018
6018
4018
C018
C030
C030
C060
C0C0
6180
3E00
ENDCHAR
STARTCHAR P
ENCODING 80
SWIDTH 579 0
DWIDTH 10 0
BBX 12 13 0 0
BITMAP
1FE0
0C30
0C30
0C30
1830
1860
18C0
1F80
1800
3000
3000
3000
FC00
ENDCHAR
STARTCHAR Q
ENCODING 81
SWIDTH 788 0
DWIDTH 14 0
BBX 14 16 2 -3
BITMAP
07C0
0C70
3030
2018
6018
4018
C010
C030
C030
C060
C0E0
61C0
3F00
0300
0080
007C
ENDCHAR
STARTCHAR R
ENCODING 82
SWIDTH 686 0
DWIDTH 12 0
BBX 12 13 0 0
BITMAP
1FE0
0C60
0C30
0820
1860
18C0
1F00
1B00
1180
3180
30C0
30E0
F870
ENDCHAR
STARTCHAR S
ENCODING 83
SWIDTH 549 0
DWIDTH 10 0
BBX 10 13 1 0
BITMAP
0F80
18C0
3040
3040
3800
1C00
0E00
0300
0180
8180
8180
C300
7C00
ENDCHAR
STARTCHAR T
ENCODING 84
SWIDTH 663 0
DWIDTH 12 0
BBX 12 13 2 0
BITMAP
FFF0
C610
8610
0400
0C00
0C00
0C00
0C00
0800
1800
1800
1800
7E00
ENDCHAR
STARTCHAR U
ENCODING 85
SWIDTH 727 0
DWIDTH 13 0
BBX 13 13 3 0
BITMAP
F878
7020
6020
6020
6040
6040
4040
C040
C040
C080
C080
6100
3E00
ENDCHAR
STARTCHAR V
ENCODING 86
SWIDTH 656 0
DWIDTH 12 0
BBX 13 13 2 0
BITMAP
F838
6010
6020
2060
3040
3080
3180
3100
1200
1A00
1C00
1800
1800
ENDCHAR
STARTCHAR W
ENCODING 87
SWIDTH 878 0
DWIDTH 16 0
BBX 17 13 2 0
BITMAP
F88780
608300
61C200
61C400
62C400
62C800
64C800
24D000
28D000
28E000
30E000
30C000
204000
ENDCHAR
STARTCHAR X
ENCODING 88
SWIDTH 624 0
DWIDTH 11 0
BBX 14 13 0 0
BITMAP
1F1C
0C18
0630
0660
02C0
0380
0380
0380
0D80
08C0
10C0
2060
F1F0
ENDCHAR
STARTCHAR Y
ENCODING 89
SWIDTH 663 0
DWIDTH 12 0
BBX 12 13 2 0
BITMAP
F870
6060
3040
3080
1900
1A00
1C00
0800
1800
1800
1800
3800
7C00
ENDCHAR
STARTCHAR Z
ENCODING 90
SWIDTH 633 0
DWIDTH 11 0
BBX 12 13 1 0
BITMAP
1FF0
1060
30C0
01C0
0180
0300
0600
0C00
1800
3800
3040
6040
FFC0
ENDCHAR
STARTCHAR bracketleft
ENCODING 91
SWIDTH 310 0
DWIDTH 6 0
BBX 7 16 1 -3
BITMAP
1E
18
18
10
30
30
30
20
20
60
60
40
40
40
C0
F0
ENDCHAR
STARTCHAR backslash
ENCODING 92
SWIDTH 458 0
DWIDTH 8 0
BBX 5 16 3 -3
BITMAP
80
80
40
40
40
40
20
20
20
20
10
10
10
10
08
08
ENDCHAR
STARTCHAR bracketright
ENCODING 93
SWIDTH 310 0
DWIDTH 6 0
BBX 7 16 0 -3
BITMAP
1E
06
04
04
04
0C
0C
08
08
18
18
18
10
30
30
F0
ENDCHAR
STARTCHAR asciicircum
ENCODING 94
SWIDTH 608 0
DWIDTH 11 0
BBX 11 11 0 2
BITMAP
0100
0100
0300
0480
0480
0880
10C0
3040
2040
4040
C020
ENDCHAR
STARTCHAR underscore
ENCODING 95
SWIDTH 500 0
DWIDTH 9 0
BBX 7 1 1 -1
BITMAP
FE
ENDCHAR
STARTCHAR grave
ENCODING 96
SWIDTH 560 0
DWIDTH 10 0
BBX 3 3 6 10
BITMAP
C0
40
20
ENDCHAR
STARTCHAR a
ENCODING 97
SWIDTH 608 0
DWIDTH 11 0
BBX 10 9 1 0
BITMAP
0FC0
10C0
2080
6180
4180
C380
C580
C900
73C0
ENDCHAR
STARTCHAR b
ENCODING 98
SWIDTH 596 0
DWIDTH 11 0
BBX 10 13 1 0
BITMAP
7800
1000
3000
3000
3380
24C0
28C0
70C0
6080
6180
4100
C200
FC00
ENDCHAR
STARTCHAR c
ENCODING 99
SWIDTH 487 0
DWIDTH 9 0
BBX 8 9 2 0
BITMAP
0F
31
61
40
C0
C0
C0
C2
7C
ENDCHAR
STARTCHAR d
ENCODING 100
SWIDTH 608 0
DWIDTH 11 0
BBX 11 13 1 0
BITMAP
01E0
0060
0040
00C0
0FC0
10C0
20C0
6080
4180
C380
C580
C900
73C0
ENDCHAR
STARTCHAR e
ENCODING 101
SWIDTH 518 0
DWIDTH 9 0
BBX 8 9 2 0
BITMAP
0E
33
63
42
FC
C0
C1
E6
7C
ENDCHAR
STARTCHAR f
ENCODING 102
SWIDTH 380 0
DWIDTH 7 0
BBX 9 17 1 -3
BITMAP
0780
0880
0880
1800
1000
7E00
3000
3000
3000
2000
6000
6000
6000
6000
4000
C000
C000
ENDCHAR
STARTCHAR g
ENCODING 103
SWIDTH 602 0
DWIDTH 11 0
BBX 10 12 1 -3
BITMAP
07C0
18C0
30C0
2080
6180
6380
6380
6500
7B00
0300
C200
7C00
ENDCHAR
STARTCHAR h
ENCODING 104
SWIDTH 631 0
DWIDTH 11 0
BBX 10 13 2 0
BITMAP
7800
1000
3000
3000
3380
24C0
68C0
7080
6180
6180
4180
C180
C3C0
ENDCHAR
STARTCHAR i
ENCODING 105
SWIDTH 289 0
DWIDTH 5 0
BBX 4 13 2 0
BITMAP
30
00
00
00
E0
60
60
60
40
40
40
C0
E0
ENDCHAR
STARTCHAR j
ENCODING 106
SWIDTH 343 0
DWIDTH 6 0
BBX 9 16 -1 -3
BITMAP
0180
0000
0000
0000
0700
0300
0300
0300
0200
0600
0600
0600
0400
8C00
8800
F000
ENDCHAR
STARTCHAR k
ENCODING 107
SWIDTH 560 0
DWIDTH 10 0
BBX 9 13 2 0
BITMAP
7000
3000
3000
3000
2180
2300
6600
7800
7800
4C00
4E00
C600
C380
ENDCHAR
STARTCHAR l
ENCODING 108
SWIDTH 289 0
DWIDTH 5 0
BBX 5 13 1 0
BITMAP
78
18
10
30
30
30
20
60
60
60
40
C0
F0
ENDCHAR
STARTCHAR m
ENCODING 109
SWIDTH 944 0
DWIDTH 17 0
BBX 15 9 2 0
BITMAP
F39C
2DB6
79E6
71C4
618C
410C
430C
C30C
C30E
ENDCHAR
STARTCHAR n
ENCODING 110
SWIDTH 631 0
DWIDTH 11 0
BBX 10 9 2 0
BITMAP
F380
24C0
68C0
7080
6180
6180
4180
C180
C3C0
ENDCHAR
STARTCHAR o
ENCODING 111
SWIDTH 560 0
DWIDTH 10 0
BBX 9 9 2 0
BITMAP
0F00
3380
6180
4180
C180
C300
C300
C600
7800
ENDCHAR
STARTCHAR p
ENCODING 112
SWIDTH 608 0
DWIDTH 11 0
BBX 10 12 1 -3
BITMAP
7380
34C0
38C0
30C0
3080
6180
6100
6200
7C00
4000
C000
C000
ENDCHAR
STARTCHAR q
ENCODING 113
SWIDTH 599 0
DWIDTH 11 0
BBX 10 12 1 -3
BITMAP
0FC0
10C0
2080
6180
4180
C380
C580
C900
7300
0300
0300
0200
ENDCHAR
STARTCHAR r
ENCODING 114
SWIDTH 470 0
DWIDTH 8 0
BBX 8 9 2 0
BITMAP
F3
2E
78
70
60
40
40
C0
C0
ENDCHAR
STARTCHAR s
ENCODING 115
SWIDTH 440 0
DWIDTH 8 0
BBX 8 9 1 0
BITMAP
1F
31
31
38
1C
06
82
C6
7C
ENDCHAR
STARTCHAR t
ENCODING 116
SWIDTH 355 0
DWIDTH 6 0
BBX 6 12 2 0
BITMAP
30
30
30
FC
60
60
60
40
C0
C0
C0
70
ENDCHAR
STARTCHAR u
ENCODING 117
SWIDTH 630 0
DWIDTH 11 0
BBX 10 9 2 0
BITMAP
F3C0
60C0
6080
6180
6180
4380
C580
C900
73C0
ENDCHAR
STARTCHAR v
ENCODING 118
SWIDTH 558 0
DWIDTH 10 0
BBX 10 9 1 0
BITMAP
E0C0
3040
30C0
1080
1900
1A00
1E00
1C00
1800
ENDCHAR
STARTCHAR w
ENCODING 119
SWIDTH 805 0
DWIDTH 14 0
BBX 14 9 1 0
BITMAP
E10C
6184
338C
3388
3690
14F0
18E0
18C0
1080
ENDCHAR
STARTCHAR x
ENCODING 120
SWIDTH 510 0
DWIDTH 9 0
BBX 9 9 1 0
BITMAP
7180
3180
1B00
1C00
0C00
3C00
6600
C700
C380
ENDCHAR
STARTCHAR y
ENCODING 121
SWIDTH 558 0
DWIDTH 10 0
BBX 11 12 0 -3
BITMAP
7060
1820
1860
0840
0C80
0D00
0E00
0C00
0800
1000
3000
E000
ENDCHAR
STARTCHAR z
ENCODING 122
SWIDTH 536 0
DWIDTH 10 0
BBX 9 9 1 0
BITMAP
3F80
2300
2600
0C00
1800
1800
3100
6100
FF00
ENDCHAR
STARTCHAR braceleft
ENCODING 123
SWIDTH 337 0
DWIDTH 6 0
BBX 6 16 2 -3
BITMAP
0C
18
10
30
10
30
30
20
C0
60
60
60
C0
C0
C0
60
ENDCHAR
STARTCHAR bar
ENCODING 124
SWIDTH 241 0
DWIDTH 4 0
BBX 4 16 1 -3
BITMAP
10
10
30
20
20
20
20
60
60
40
40
40
40
C0
80
80
ENDCHAR
STARTCHAR braceright
ENCODING 125
SWIDTH 337 0
DWIDTH 6 0
BBX 6 16 2 -3
BITMAP
18
04
04
0C
08
18
18
0C
10
10
30
30
30
30
20
C0
ENDCHAR
STARTCHAR asciitilde
ENCODING 126
SWIDTH 608 0
DWIDTH 11 0
BBX 11 4 1 3
BITMAP
7820
8C20
8640
83C0
ENDCHAR
STARTCHAR space
ENCODING 160
SWIDTH 333 0
DWIDTH 5 0
BBX 1 1 0 0
BITMAP
00
ENDCHAR
STARTCHAR exclamdown
ENCODING 161
SWIDTH 265 0
DWIDTH 5 0
BBX 4 12 1 -3
BITMAP
30
00
00
20
20
20
40
40
40
40
C0
C0
ENDCHAR
STARTCHAR cent
ENCODING 162
SWIDTH 608 0
DWIDTH 11 0
BBX 8 13 3 0
BITMAP
02
07
1D
29
48
C8
C8
C8
C8
CA
7C
10
10
ENDCHAR
STARTCHAR sterling
ENCODING 163
SWIDTH 608 0
DWIDTH 11 0
BBX 10 13 2 0
BITMAP
03C0
0440
0C40
0800
1800
1800
7E00
1800
1000
3000
2000
4000
FF00
ENDCHAR
STARTCHAR currency
ENCODING 164
SWIDTH 608 0
DWIDTH 11 0
BBX 12 11 1 1
BITMAP
2010
1720
18C0
1040
2040
2040
2040
2080
3180
6EC0
8040
ENDCHAR
STARTCHAR yen
ENCODING 165
SWIDTH 608 0
DWIDTH 11 0
BBX 12 13 2 0
BITMAP
F870
6040
3180
1900
1E00
7F00
0800
1800
7F00
1800
1800
3800
7C00
ENDCHAR
STARTCHAR brokenbar
ENCODING 166
SWIDTH 241 0
DWIDTH 4 0
BBX 4 16 1 -3
BITMAP
10
10
30
20
20
20
60
00
00
60
40
40
40
C0
80
80
ENDCHAR
STARTCHAR section
ENCODING 167
SWIDTH 608 0
DWIDTH 11 0
BBX 10 16 1 -3
BITMAP
0FC0
1840
3040
3000
3800
1E00
2700
6180
6180
3900
1E00
0300
0100
8300
C600
7C00
ENDCHAR
STARTCHAR dieresis
ENCODING 168
SWIDTH 560 0
DWIDTH 10 0
BBX 5 1 5 12
BITMAP
D8
ENDCHAR
STARTCHAR copyright
ENCODING 169
SWIDTH 843 0
DWIDTH 15 0
BBX 14 13 2 0
BITMAP
0FC0
3830
6008
43E4
8424
8804
8804
8804
8C04
4784
6008
3830
0FC0
ENDCHAR
STARTCHAR ordfeminine
ENCODING 170
SWIDTH 458 0
DWIDTH 7 0
BBX 7 7 2 6
BITMAP
3E
66
44
CC
DC
FC
EE
ENDCHAR
STARTCHAR guillemotleft
ENCODING 171
SWIDTH 525 0
DWIDTH 9 0
BBX 8 9 2 0
BITMAP
09
12
26
4C
D8
48
44
24
22
ENDCHAR
STARTCHAR logicalnot
ENCODING 172
SWIDTH 608 0
DWIDTH 11 0
BBX 11 4 1 3
BITMAP
FFE0
0020
0040
0040
ENDCHAR
STARTCHAR hyphen
ENCODING 173
SWIDTH 313 0
DWIDTH 6 0
BBX 4 1 2 5
BITMAP
F0
ENDCHAR
STARTCHAR registered
ENCODING 174
SWIDTH 608 0
DWIDTH 11 0
BBX 8 8 3 5
BITMAP
3C
46
9D
95
99
AD
46
3C
ENDCHAR
STARTCHAR macron
ENCODING 175
SWIDTH 560 0
DWIDTH 10 0
BBX 5 1 5 12
BITMAP
F8
ENDCHAR
STARTCHAR degree
ENCODING 176
SWIDTH 277 0
DWIDTH 5 0
BBX 3 3 3 10
BITMAP
E0
A0
E0
ENDCHAR
STARTCHAR plusminus
ENCODING 177
SWIDTH 608 0
DWIDTH 11 0
BBX 12 11 0 0
BITMAP
0100
0200
0200
0200
7FF0
0200
0200
0400
0000
0000
FFE0
ENDCHAR
STARTCHAR twosuperior
ENCODING 178
SWIDTH 365 0
DWIDTH 7 0
BBX 6 9 -8 4
BITMAP
38
44
04
04
18
20
60
40
F8
ENDCHAR
STARTCHAR threesuperior
ENCODING 179
SWIDTH 365 0
DWIDTH 7 0
BBX 6 9 -9 4
BITMAP
38
48
0C
08
70
08
08
98
F0
ENDCHAR
STARTCHAR acute
ENCODING 180
SWIDTH 560 0
DWIDTH 10 0
BBX 4 3 6 10
BITMAP
30
40
80
ENDCHAR
STARTCHAR mu
ENCODING 181
SWIDTH 663 0
DWIDTH 12 0
BBX 10 12 2 -3
BITMAP
71C0
30C0
3080
2080
6180
6180
6380
6500
7BC0
C000
C000
C000
ENDCHAR
STARTCHAR paragraph
ENCODING 182
SWIDTH 608 0
DWIDTH 11 0
BBX 8 16 3 -3
BITMAP
7F
FA
FA
FA
F2
72
34
14
14
24
24
28
28
28
28
68
ENDCHAR
STARTCHAR periodcentered
ENCODING 183
SWIDTH 608 0
DWIDTH 11 0
BBX 2 1 6 5
BITMAP
C0
ENDCHAR
STARTCHAR cedilla
ENCODING 184
SWIDTH 560 0
DWIDTH 10 0
BBX 3 3 3 -3
BITMAP
60
20
E0
ENDCHAR
STARTCHAR onesuperior
ENCODING 185
SWIDTH 365 0
DWIDTH 7 0
BBX 4 9 -9 4
BITMAP
70
10
10
20
20
20
20
20
F0
ENDCHAR
STARTCHAR ordmasculine
ENCODING 186
SWIDTH 458 0
DWIDTH 7 0
BBX 7 7 2 6
BITMAP
1C
66
46
C6
C4
C8
70
ENDCHAR
STARTCHAR guillemotright
ENCODING 187
SWIDTH 525 0
DWIDTH 9 0
BBX 8 9 2 0
BITMAP
44
24
22
12
1B
32
64
48
90
ENDCHAR
STARTCHAR onequarter
ENCODING 188
SWIDTH 766 0
DWIDTH 15 0
BBX 14 13 3 0
BITMAP
700C
1018
1030
2020
204C
2094
2128
2248
F488
08FC
1808
3010
6038
ENDCHAR
STARTCHAR onehalf
ENCODING 189
SWIDTH 766 0
DWIDTH 15 0
BBX 14 13 3 0
BITMAP
700C
1018
1030
2020
2078
20C4
2104
2204
F418
0820
1860
3040
60F8
ENDCHAR
STARTCHAR threequarters
ENCODING 190
SWIDTH 766 0
DWIDTH 15 0
BBX 14 13 3 0
BITMAP
380C
4818
0C30
0820
704C
0894
0928
9A48
F488
08FC
1808
3010
6038
ENDCHAR
STARTCHAR questiondown
ENCODING 191
SWIDTH 471 0
DWIDTH 8 0
BBX 7 13 1 -4
BITMAP
06
00
00
04
04
0C
18
30
60
C0
C2
C6
7C
ENDCHAR
STARTCHAR Agrave
ENCODING 192
SWIDTH 747 0
DWIDTH 13 0
BBX 13 17 0 0
BITMAP
00C0
0040
0020
0000
00C0
00C0
01C0
03C0
02C0
0460
0C60
0860
1FE0
1060
2020
4030
F0F8
ENDCHAR
STARTCHAR Aacute
ENCODING 193
SWIDTH 747 0
DWIDTH 13 0
BBX 13 17 0 0
BITMAP
0030
0040
0080
0000
00C0
00C0
01C0
03C0
02C0
0460
0C60
0860
1FE0
1060
2020
4030
F0F8
ENDCHAR
STARTCHAR Acircumflex
ENCODING 194
SWIDTH 747 0
DWIDTH 13 0
BBX 13 17 0 0
BITMAP
00E0
01A0
0210
0000
00C0
00C0
01C0
03C0
02C0
0460
0C60
0860
1FE0
1060
2020
4030
F0F8
ENDCHAR
STARTCHAR Atilde
ENCODING 195
SWIDTH 747 0
DWIDTH 13 0
BBX 13 16 0 0
BITMAP
00C8
0130
0000
00C0
00C0
01C0
03C0
02C0
0460
0C60
0860
1FE0
1060
2020
4030
F0F8
ENDCHAR
STARTCHAR Adieresis
ENCODING 196
SWIDTH 747 0
DWIDTH 13 0
BBX 13 15 0 0
BITMAP
01B0
0000
00C0
00C0
01C0
03C0
02C0
0460
0C60
0860
1FE0
1060
2020
4030
F0F8
ENDCHAR
STARTCHAR Aring
ENCODING 197
SWIDTH 747 0
DWIDTH 13 0
BBX 13 17 0 0
BITMAP
00E0
00A0
00E0
0000
00C0
00C0
01C0
03C0
02C0
0460
0C60
0860
1FE0
1060
2020
4030
F0F8
ENDCHAR
STARTCHAR AE
ENCODING 198
SWIDTH 907 0
DWIDTH 16 0
BBX 18 13 0 0
BITMAP
003FC0
007040
007040
00B000
013000
022100
047F00
046000
0FE000
106000
204000
40C100
E3FF00
ENDCHAR
STARTCHAR Ccedilla
ENCODING 199
SWIDTH 714 0
DWIDTH 13 0
BBX 12 16 2 -3
BITMAP
07F0
1C30
3030
3000
6000
6000
C000
C000
C000
C000
E000
70C0
3F00
1000
0800
3800
ENDCHAR
STARTCHAR Egrave
ENCODING 200
SWIDTH 569 0
DWIDTH 10 0
BBX 11 17 1 0
BITMAP
0300
0100
0080
0000
3FE0
1820
1820
1800
1800
1880
1F80
3100
3000
3000
3080
3080
FF80
ENDCHAR
STARTCHAR Eacute
ENCODING 201
SWIDTH 569 0
DWIDTH 10 0
BBX 11 17 1 0
BITMAP
00C0
0100
0200
0000
3FE0
1820
1820
1800
1800
1880
1F80
3100
3000
3000
3080
3080
FF80
ENDCHAR
STARTCHAR Ecircumflex
ENCODING 202
SWIDTH 569 0
DWIDTH 10 0
BBX 11 17 1 0
BITMAP
0380
0680
0840
0000
3FE0
1820
1820
1800
1800
1880
1F80
3100
3000
3000
3080
3080
FF80
ENDCHAR
STARTCHAR Edieresis
ENCODING 203
SWIDTH 569 0
DWIDTH 10 0
BBX 11 15 1 0
BITMAP
06C0
0000
3FE0
1820
1820
1800
1800
1880
1F80
3100
3000
3000
3080
3080
FF80
ENDCHAR
STARTCHAR Igrave
ENCODING 204
SWIDTH 325 0
DWIDTH 6 0
BBX 8 17 0 0
BITMAP
0C
04
02
00
1F
0C
0C
0C
08
18
18
18
10
30
30
30
F8
ENDCHAR
STARTCHAR Iacute
ENCODING 205
SWIDTH 325 0
DWIDTH 6 0
BBX 9 17 0 0
BITMAP
0180
0200
0400
0000
1F00
0C00
0C00
0C00
0800
1800
1800
1800
1000
3000
3000
3000
F800
ENDCHAR
STARTCHAR Icircumflex
ENCODING 206
SWIDTH 325 0
DWIDTH 6 0
BBX 9 17 0 0
BITMAP
0700
0D00
1080
0000
1F00
0C00
0C00
0C00
0800
1800
1800
1800
1000
3000
3000
3000
F800
ENDCHAR
STARTCHAR Idieresis
ENCODING 207
SWIDTH 325 0
DWIDTH 6 0
BBX 8 15 0 0
BITMAP
1B
00
1F
0C
0C
0C
08
18
18
18
10
30
30
30
F8
ENDCHAR
STARTCHAR Eth
ENCODING 208
SWIDTH 770 0
DWIDTH 14 0
BBX 14 13 0 0
BITMAP
3FF0
0C38
0C1C
080C
180C
180C
7F0C
180C
1018
3018
3030
30E0
FF80
ENDCHAR
STARTCHAR Ntilde
ENCODING 209
SWIDTH 762 0
DWIDTH 14 0
BBX 16 16 0 0
BITMAP
00C8
0130
0000
3C1F
0C04
0E04
1608
1308
1308
1188
10C8
20D0
2070
2070
2030
F020
ENDCHAR
STARTCHAR Ograve
ENCODING 210
SWIDTH 783 0
DWIDTH 14 0
BBX 13 17 2 0
BITMAP
0300
0100
0080
0000
07C0
0C70
3030
2018
6018
4018
C018
C030
C030
C060
C0C0
6180
3E00
ENDCHAR
STARTCHAR Oacute
ENCODING 211
SWIDTH 783 0
DWIDTH 14 0
BBX 13 17 2 0
BITMAP
0060
0080
0100
0000
07C0
0C70
3030
2018
6018
4018
C018
C030
C030
C060
C0C0
6180
3E00
ENDCHAR
STARTCHAR Ocircumflex
ENCODING 212
SWIDTH 783 0
DWIDTH 14 0
BBX 13 17 2 0
BITMAP
01C0
0340
0420
0000
07C0
0C70
3030
2018
6018
4018
C018
C030
C030
C060
C0C0
6180
3E00
ENDCHAR
STARTCHAR Otilde
ENCODING 213
SWIDTH 783 0
DWIDTH 14 0
BBX 13 16 2 0
BITMAP
0320
04C0
0000
07C0
0C70
3030
2018
6018
4018
C018
C030
C030
C060
C0C0
6180
3E00
ENDCHAR
STARTCHAR Odieresis
ENCODING 214
SWIDTH 783 0
DWIDTH 14 0
BBX 13 15 2 0
BITMAP
0360
0000
07C0
0C70
3030
2018
6018
4018
C018
C030
C030
C060
C0C0
6180
3E00
ENDCHAR
STARTCHAR multiply
ENCODING 215
SWIDTH 608 0
DWIDTH 11 0
BBX 12 11 1 0
BITMAP
2010
3020
1040
0880
0500
0600
0E00
1100
2080
40C0
8040
ENDCHAR
STARTCHAR Oslash
ENCODING 216
SWIDTH 783 0
DWIDTH 14 0
BBX 15 13 1 0
BITMAP
03E6
0638
0818
181C
306C
208C
610C
6218
6418
7830
7020
30C0
CF80
ENDCHAR
STARTCHAR Ugrave
ENCODING 217
SWIDTH 727 0
DWIDTH 13 0
BBX 13 17 3 0
BITMAP
0600
0200
0100
0000
F878
7020
6020
6020
6040
6040
4040
C040
C040
C080
C080
6100
3E00
ENDCHAR
STARTCHAR Uacute
ENCODING 218
SWIDTH 727 0
DWIDTH 13 0
BBX 13 17 3 0
BITMAP
00C0
0100
0200
0000
F878
7020
6020
6020
6040
6040
4040
C040
C040
C080
C080
6100
3E00
ENDCHAR
STARTCHAR Ucircumflex
ENCODING 219
SWIDTH 727 0
DWIDTH 13 0
BBX 13 17 3 0
BITMAP
0380
0680
0840
0000
F878
7020
6020
6020
6040
6040
4040
C040
C040
C080
C080
6100
3E00
ENDCHAR
STARTCHAR Udieresis
ENCODING 220
SWIDTH 727 0
DWIDTH 13 0
BBX 13 15 3 0
BITMAP
06C0
0000
F878
7020
6020
6020
6040
6040
4040
C040
C040
C080
C080
6100
3E00
ENDCHAR
STARTCHAR Yacute
ENCODING 221
SWIDTH 663 0
DWIDTH 12 0
BBX 12 17 2 0
BITMAP
0180
0200
0400
0000
F870
6060
3040
3080
1900
1A00
1C00
0800
1800
1800
1800
3800
7C00
ENDCHAR
STARTCHAR Thorn
ENCODING 222
SWIDTH 579 0
DWIDTH 10 0
BBX 11 13 0 0
BITMAP
3F00
0C00
0C00
0FC0
1860
1860
1860
18C0
31C0
3F00
3000
3000
F800
ENDCHAR
STARTCHAR germandbls
ENCODING 223
SWIDTH 603 0
DWIDTH 11 0
BBX 10 17 1 -3
BITMAP
0F00
0980
1880
1980
1100
3600
3400
3600
3300
2180
60C0
68C0
6880
4F00
4000
C000
C000
ENDCHAR
STARTCHAR agrave
ENCODING 224
SWIDTH 608 0
DWIDTH 11 0
BBX 10 13 1 0
BITMAP
0600
0200
0100
0000
0FC0
10C0
2080
6180
4180
C380
C580
C900
73C0
ENDCHAR
STARTCHAR aacute
ENCODING 225
SWIDTH 608 0
DWIDTH 11 0
BBX 10 13 1 0
BITMAP
00C0
0100
0200
0000
0FC0
10C0
2080
6180
4180
C380
C580
C900
73C0
ENDCHAR
STARTCHAR acircumflex
ENCODING 226
SWIDTH 608 0
DWIDTH 11 0
BBX 10 13 1 0
BITMAP
0380
0680
0840
0000
0FC0
10C0
2080
6180
4180
C380
C580
C900
73C0
ENDCHAR
STARTCHAR atilde
ENCODING 227
SWIDTH 608 0
DWIDTH 11 0
BBX 10 12 1 0
BITMAP
0640
0980
0000
0FC0
10C0
2080
6180
4180
C380
C580
C900
73C0
ENDCHAR
STARTCHAR adieresis
ENCODING 228
SWIDTH 608 0
DWIDTH 11 0
BBX 10 11 1 0
BITMAP
06C0
0000
0FC0
10C0
2080
6180
4180
C380
C580
C900
73C0
ENDCHAR
STARTCHAR aring
ENCODING 229
SWIDTH 608 0
DWIDTH 11 0
BBX 10 13 1 0
BITMAP
0380
0280
0380
0000
0FC0
10C0
2080
6180
4180
C380
C580
C900
73C0
ENDCHAR
STARTCHAR ae
ENCODING 230
SWIDTH 881 0
DWIDTH 16 0
BBX 14 9 2 0
BITMAP
0FFC
10CC
208C
618C
41F0
C300
C584
C988
70F0
ENDCHAR
STARTCHAR ccedilla
ENCODING 231
SWIDTH 487 0
DWIDTH 9 0
BBX 8 12 2 -3
BITMAP
0F
31
61
40
C0
C0
C0
C2
7C
20
10
70
ENDCHAR
STARTCHAR egrave
ENCODING 232
SWIDTH 518 0
DWIDTH 9 0
BBX 8 13 2 0
BITMAP
0C
04
02
00
0E
33
63
42
FC
C0
C1
E6
7C
ENDCHAR
STARTCHAR eacute
ENCODING 233
SWIDTH 518 0
DWIDTH 9 0
BBX 9 13 2 0
BITMAP
0180
0200
0400
0000
0E00
3300
6300
4200
FC00
C000
C100
E600
7C00
ENDCHAR
STARTCHAR ecircumflex
ENCODING 234
SWIDTH 518 0
DWIDTH 9 0
BBX 9 13 2 0
BITMAP
0700
0D00
1080
0000
0E00
3300
6300
4200
FC00
C000
C100
E600
7C00
ENDCHAR
STARTCHAR edieresis
ENCODING 235
SWIDTH 518 0
DWIDTH 9 0
BBX 9 11 2 0
BITMAP
0D80
0000
0E00
3300
6300
4200
FC00
C000
C100
E600
7C00
ENDCHAR
STARTCHAR igrave
ENCODING 236
SWIDTH 289 0
DWIDTH 5 0
BBX 5 13 2 0
BITMAP
30
10
08
00
F0
30
20
60
60
60
40
C0
F0
ENDCHAR
STARTCHAR iacute
ENCODING 237
SWIDTH 289 0
DWIDTH 5 0
BBX 7 13 2 0
BITMAP
06
08
10
00
F0
30
20
60
60
60
40
C0
F0
ENDCHAR
STARTCHAR icircumflex
ENCODING 238
SWIDTH 289 0
DWIDTH 5 0
BBX 7 13 2 0
BITMAP
1C
34
42
00
F0
30
20
60
60
60
40
C0
F0
ENDCHAR
STARTCHAR idieresis
ENCODING 239
SWIDTH 289 0
DWIDTH 5 0
BBX 6 11 2 0
BITMAP
6C
00
F0
30
20
60
60
60
40
C0
F0
ENDCHAR
STARTCHAR eth
ENCODING 240
SWIDTH 562 0
DWIDTH 10 0
BBX 9 14 2 0
BITMAP
0180
3E00
0F00
0B00
1100
1F80
3180
6180
4180
C100
C100
C300
C600
7800
ENDCHAR
STARTCHAR ntilde
ENCODING 241
SWIDTH 631 0
DWIDTH 11 0
BBX 10 12 2 0
BITMAP
0640
0980
0000
F380
24C0
68C0
7080
6180
6180
4180
C180
C3C0
ENDCHAR
STARTCHAR ograve
ENCODING 242
SWIDTH 560 0
DWIDTH 10 0
BBX 9 13 2 0
BITMAP
0C00
0400
0200
0000
0F00
3380
6180
4180
C180
C300
C300
C600
7800
ENDCHAR
STARTCHAR oacute
ENCODING 243
SWIDTH 560 0
DWIDTH 10 0
BBX 9 13 2 0
BITMAP
0180
0200
0400
0000
0F00
3380
6180
4180
C180
C300
C300
C600
7800
ENDCHAR
STARTCHAR ocircumflex
ENCODING 244
SWIDTH 560 0
DWIDTH 10 0
BBX 9 13 2 0
BITMAP
0700
0D00
1080
0000
0F00
3380
6180
4180
C180
C300
C300
C600
7800
ENDCHAR
STARTCHAR otilde
ENCODING 245
SWIDTH 560 0
DWIDTH 10 0
BBX 9 12 2 0
BITMAP
0C80
1300
0000
0F00
3380
6180
4180
C180
C300
C300
C600
7800
ENDCHAR
STARTCHAR odieresis
ENCODING 246
SWIDTH 560 0
DWIDTH 10 0
BBX 9 11 2 0
BITMAP
0D80
0000
0F00
3380
6180
4180
C180
C300
C300
C600
7800
ENDCHAR
STARTCHAR divide
ENCODING 247
SWIDTH 608 0
DWIDTH 11 0
BBX 11 9 1 0
BITMAP
0600
0000
0000
0000
FFE0
0000
0000
0000
0C00
ENDCHAR
STARTCHAR oslash
ENCODING 248
SWIDTH 560 0
DWIDTH 10 0
BBX 10 9 1 0
BITMAP
0740
1980
31C0
62C0
6480
7980
6100
6300
FC00
ENDCHAR
STARTCHAR ugrave
ENCODING 249
SWIDTH 630 0
DWIDTH 11 0
BBX 10 13 2 0
BITMAP
0600
0200
0100
0000
F3C0
60C0
6080
6180
6180
4380
C580
C900
73C0
ENDCHAR
STARTCHAR uacute
ENCODING 250
SWIDTH 630 0
DWIDTH 11 0
BBX 10 13 2 0
BITMAP
00C0
0100
0200
0000
F3C0
60C0
6080
6180
6180
4380
C580
C900
73C0
ENDCHAR
STARTCHAR ucircumflex
ENCODING 251
SWIDTH 630 0
DWIDTH 11 0
BBX 10 13 2 0
BITMAP
0380
0680
0840
0000
F3C0
60C0
6080
6180
6180
4380
C580
C900
73C0
ENDCHAR
STARTCHAR udieresis
ENCODING 252
SWIDTH 630 0
DWIDTH 11 0
BBX 10 11 2 0
BITMAP
0D80
0000
F3C0
60C0
6080
6180
6180
4380
C580
C900
73C0
ENDCHAR
STARTCHAR yacute
ENCODING 253
SWIDTH 558 0
DWIDTH 10 0
BBX 11 16 0 -3
BITMAP
0060
0080
0100
0000
7060
1820
1860
0840
0C80
0D00
0E00
0C00
0800
1000
3000
E000
ENDCHAR
STARTCHAR thorn
ENCODING 254
SWIDTH 608 0
DWIDTH 11 0
BBX 10 16 1 -3
BITMAP
7800
1000
1000
3000
3380
34C0
38C0
30C0
7080
6180
6100
6200
7C00
C000
C000
C000
ENDCHAR
STARTCHAR ydieresis
ENCODING 255
SWIDTH 558 0
DWIDTH 10 0
BBX 11 14 0 -3
BITMAP
06C0
0000
7060
1820
1860
0840
0C80
0D00
0E00
0C00
0800
1000
3000
E000
ENDCHAR
ENDFONT
