STARTFONT 2.1
COMMENT AUTOMATICALLY GENERATED FILE. DO NOT EDIT!
COMMENT Generated with 'ucs2any.pl lubI19.bdf ../../../fonts/util/map-ISO8859-1 ISO8859-1'
COMMENT from an ISO10646-1 encoded source BDF font.
COMMENT ucs2any.pl by Markus Kuhn <mkuhn@acm.org>, 2000.
COMMENT $Xorg: $
COMMENT ISO10646-1 extension by Markus Kuhn <mkuhn@acm.org>, 2001-03-20
COMMENT  (c) Copyright Bigelow & Holmes 1986, 1985. Lucida is a registered
COMMENT  trademark of Bigelow & Holmes. See LEGAL NOTICE file for terms 
COMMENT  of the license. 
FONT -B&H-LucidaBright-Medium-I-Normal--19-190-75-75-P-109-ISO8859-1
SIZE 19 72 72
FONTBOUNDINGBOX 30 22 -10 -4
STARTPROPERTIES 22
COMMENT Begin LogicalFontDescription
FONTNAME_REGISTRY ""
FOUNDRY "B&H"
FAMILY_NAME "LucidaBright"
WEIGHT_NAME "Medium"
SLANT "I"
SETWIDTH_NAME "Normal"
ADD_STYLE_NAME ""
PIXEL_SIZE 19
POINT_SIZE 190
RESOLUTION_X 100
RESOLUTION_Y 100
SPACING "P"
AVERAGE_WIDTH 109
CHARSET_REGISTRY "ISO8859"
CHARSET_ENCODING "1"
COMMENT END LogicalFontDescription
COPYRIGHT "Copyright Bigelow & Holmes 1986, 1985."
FONT_ASCENT 17
FONT_DESCENT 5
DEFAULT_CHAR 0
FACE_NAME "Lucida Bright Italic"
X_HEIGHT 10
CAP_HEIGHT 14
ENDPROPERTIES
CHARS 192
STARTCHAR defaultchar
ENCODING 0
SWIDTH 776 0
DWIDTH 15 0
BBX 17 13 0 0
BITMAP
AAAA80
000000
800080
000000
800080
000000
800080
000000
800080
000000
800080
000000
AAAA80
ENDCHAR
STARTCHAR space
ENCODING 32
SWIDTH 333 0
DWIDTH 5 0
BBX 1 1 0 0
BITMAP
00
ENDCHAR
STARTCHAR exclam
ENCODING 33
SWIDTH 265 0
DWIDTH 5 0
BBX 5 14 1 0
BITMAP
18
18
10
30
30
30
20
20
20
20
40
00
00
C0
ENDCHAR
STARTCHAR quotedbl
ENCODING 34
SWIDTH 377 0
DWIDTH 7 0
BBX 5 4 4 10
BITMAP
D8
D8
90
90
ENDCHAR
STARTCHAR numbersign
ENCODING 35
SWIDTH 608 0
DWIDTH 12 0
BBX 12 14 1 0
BITMAP
0130
0220
0240
0440
7FF0
0880
0900
1100
FFE0
2200
2600
4400
4400
C800
ENDCHAR
STARTCHAR dollar
ENCODING 36
SWIDTH 608 0
DWIDTH 12 0
BBX 9 17 3 -2
BITMAP
0200
1F80
3480
6480
6400
6400
3800
1800
0E00
1700
1300
1300
9200
D600
F800
2000
2000
ENDCHAR
STARTCHAR percent
ENCODING 37
SWIDTH 759 0
DWIDTH 14 0
BBX 13 14 2 0
BITMAP
1C08
2410
6620
4440
4480
6D00
3B00
02E0
0590
0910
1110
2110
4120
C1C0
ENDCHAR
STARTCHAR ampersand
ENCODING 38
SWIDTH 727 0
DWIDTH 14 0
BBX 13 14 2 0
BITMAP
0380
04C0
0C40
0C40
0CC0
0F00
1400
6678
C630
C320
C360
C1C0
61C0
3EF0
ENDCHAR
STARTCHAR quotesingle
ENCODING 39
SWIDTH 231 0
DWIDTH 4 0
BBX 2 5 3 9
BITMAP
C0
C0
C0
40
40
ENDCHAR
STARTCHAR parenleft
ENCODING 40
SWIDTH 310 0
DWIDTH 6 0
BBX 7 18 2 -4
BITMAP
02
0C
10
10
20
60
60
40
C0
C0
C0
C0
C0
C0
C0
40
40
20
ENDCHAR
STARTCHAR parenright
ENCODING 41
SWIDTH 310 0
DWIDTH 6 0
BBX 6 18 0 -4
BITMAP
10
08
08
04
04
04
04
04
0C
0C
0C
08
18
10
30
20
40
80
ENDCHAR
STARTCHAR asterisk
ENCODING 42
SWIDTH 458 0
DWIDTH 9 0
BBX 7 7 3 7
BITMAP
18
10
D6
2C
30
C8
48
ENDCHAR
STARTCHAR plus
ENCODING 43
SWIDTH 608 0
DWIDTH 12 0
BBX 11 12 1 0
BITMAP
0200
0200
0200
0200
0400
0400
FFE0
0400
0400
0C00
0800
0800
ENDCHAR
STARTCHAR comma
ENCODING 44
SWIDTH 265 0
DWIDTH 5 0
BBX 3 7 1 -4
BITMAP
60
60
60
60
40
40
80
ENDCHAR
STARTCHAR hyphen
ENCODING 45
SWIDTH 313 0
DWIDTH 6 0
BBX 5 1 2 6
BITMAP
F8
ENDCHAR
STARTCHAR period
ENCODING 46
SWIDTH 265 0
DWIDTH 5 0
BBX 3 2 1 0
BITMAP
E0
E0
ENDCHAR
STARTCHAR slash
ENCODING 47
SWIDTH 458 0
DWIDTH 9 0
BBX 12 18 0 -4
BITMAP
0010
0020
0040
0040
0080
0080
0100
0200
0200
0400
0400
0800
1000
1000
2000
2000
4000
8000
ENDCHAR
STARTCHAR zero
ENCODING 48
SWIDTH 608 0
DWIDTH 12 0
BBX 10 14 2 0
BITMAP
0F00
1980
30C0
60C0
60C0
40C0
C0C0
C0C0
C080
C180
C180
C300
6600
3C00
ENDCHAR
STARTCHAR one
ENCODING 49
SWIDTH 608 0
DWIDTH 12 0
BBX 7 14 2 0
BITMAP
1E
06
06
04
0C
0C
0C
0C
08
18
18
18
18
FE
ENDCHAR
STARTCHAR two
ENCODING 50
SWIDTH 608 0
DWIDTH 12 0
BBX 11 14 1 0
BITMAP
0F80
10E0
1060
0060
0060
00C0
0180
0300
0400
0800
3000
6000
4000
FF80
ENDCHAR
STARTCHAR three
ENCODING 51
SWIDTH 608 0
DWIDTH 12 0
BBX 10 14 2 0
BITMAP
1F00
1180
30C0
00C0
0180
0300
1E00
0300
0180
0180
0180
8300
8600
FC00
ENDCHAR
STARTCHAR four
ENCODING 52
SWIDTH 608 0
DWIDTH 12 0
BBX 10 14 1 0
BITMAP
00C0
0180
0380
0580
0980
1180
1180
2100
4100
FFC0
0300
0200
0600
0F80
ENDCHAR
STARTCHAR five
ENCODING 53
SWIDTH 608 0
DWIDTH 12 0
BBX 10 14 2 0
BITMAP
1FC0
2000
2000
2000
2000
3C00
0700
0300
0180
0180
0100
8300
8600
FC00
ENDCHAR
STARTCHAR six
ENCODING 54
SWIDTH 608 0
DWIDTH 12 0
BBX 10 14 2 0
BITMAP
07C0
1840
3040
3000
6000
7F00
E180
C180
C180
C180
C180
C100
6200
3C00
ENDCHAR
STARTCHAR seven
ENCODING 55
SWIDTH 608 0
DWIDTH 12 0
BBX 11 14 3 0
BITMAP
3FE0
0040
0080
0080
0100
0200
0400
0800
1800
3000
2000
6000
C000
C000
ENDCHAR
STARTCHAR eight
ENCODING 56
SWIDTH 608 0
DWIDTH 12 0
BBX 9 14 3 0
BITMAP
0F00
1180
3080
3080
3180
3B00
1C00
2700
4300
C100
C180
C300
E600
3C00
ENDCHAR
STARTCHAR nine
ENCODING 57
SWIDTH 608 0
DWIDTH 12 0
BBX 10 14 2 0
BITMAP
0F00
1980
30C0
60C0
60C0
60C0
60C0
71C0
3FC0
0180
0180
8300
8600
7800
ENDCHAR
STARTCHAR colon
ENCODING 58
SWIDTH 265 0
DWIDTH 5 0
BBX 4 10 2 0
BITMAP
30
70
00
00
00
00
00
00
E0
C0
ENDCHAR
STARTCHAR semicolon
ENCODING 59
SWIDTH 265 0
DWIDTH 5 0
BBX 5 14 1 -4
BITMAP
18
38
00
00
00
00
00
00
60
60
60
60
40
C0
ENDCHAR
STARTCHAR less
ENCODING 60
SWIDTH 608 0
DWIDTH 12 0
BBX 12 12 1 0
BITMAP
0010
0060
0180
0600
1800
E000
6000
1800
0C00
0300
01C0
0040
ENDCHAR
STARTCHAR equal
ENCODING 61
SWIDTH 608 0
DWIDTH 12 0
BBX 12 5 1 3
BITMAP
7FF0
0000
0000
0000
FFE0
ENDCHAR
STARTCHAR greater
ENCODING 62
SWIDTH 608 0
DWIDTH 12 0
BBX 12 12 0 0
BITMAP
2000
3800
0C00
0300
0180
0060
0070
0180
0600
1800
6000
8000
ENDCHAR
STARTCHAR question
ENCODING 63
SWIDTH 471 0
DWIDTH 9 0
BBX 7 14 3 0
BITMAP
7C
C6
82
02
06
0C
18
30
60
60
00
00
00
C0
ENDCHAR
STARTCHAR at
ENCODING 64
SWIDTH 861 0
DWIDTH 16 0
BBX 14 14 2 0
BITMAP
03E0
0C18
1004
23E4
4464
8444
8844
88C4
8944
8948
8E70
4000
3080
1F00
ENDCHAR
STARTCHAR A
ENCODING 65
SWIDTH 747 0
DWIDTH 14 0
BBX 14 14 0 0
BITMAP
0040
00C0
00E0
0160
0160
0260
0460
0430
0830
1FF0
2030
2030
6038
F07C
ENDCHAR
STARTCHAR B
ENCODING 66
SWIDTH 606 0
DWIDTH 12 0
BBX 12 14 0 0
BITMAP
1FE0
0C30
0C30
0C30
0C20
08E0
1F80
18C0
1860
1860
3060
3060
30C0
FF80
ENDCHAR
STARTCHAR C
ENCODING 67
SWIDTH 714 0
DWIDTH 14 0
BBX 13 14 2 0
BITMAP
03F8
0C18
1818
3018
6000
6000
C000
C000
C000
C000
C000
6000
7060
1F80
ENDCHAR
STARTCHAR D
ENCODING 68
SWIDTH 770 0
DWIDTH 15 0
BBX 15 14 0 0
BITMAP
1FF0
0C1C
0C0C
0C06
0C06
1806
1806
1806
180C
180C
3018
3038
3060
FF80
ENDCHAR
STARTCHAR E
ENCODING 69
SWIDTH 569 0
DWIDTH 11 0
BBX 12 14 1 0
BITMAP
1FF0
0C10
0C30
0C00
0800
1840
1FC0
1880
1800
1000
3000
3040
3040
FFC0
ENDCHAR
STARTCHAR F
ENCODING 70
SWIDTH 551 0
DWIDTH 10 0
BBX 12 14 1 0
BITMAP
1FF0
0C10
0C30
0C00
0800
1840
1F80
1880
1800
1000
3000
3000
3000
FC00
ENDCHAR
STARTCHAR G
ENCODING 71
SWIDTH 756 0
DWIDTH 14 0
BBX 13 14 2 0
BITMAP
03F8
0C18
1810
3000
6000
6000
C000
C000
C1F8
C060
C060
6060
70C0
1F80
ENDCHAR
STARTCHAR H
ENCODING 72
SWIDTH 776 0
DWIDTH 15 0
BBX 17 14 0 0
BITMAP
1F1F80
0E0600
0C0600
0C0600
0C0C00
180C00
1FFC00
180C00
180C00
181800
301800
301800
303800
FC7C00
ENDCHAR
STARTCHAR I
ENCODING 73
SWIDTH 325 0
DWIDTH 6 0
BBX 8 14 1 0
BITMAP
1F
0C
0C
0C
08
18
18
18
18
10
30
30
30
F8
ENDCHAR
STARTCHAR J
ENCODING 74
SWIDTH 422 0
DWIDTH 8 0
BBX 11 18 0 -4
BITMAP
07E0
0180
0180
0180
0300
0300
0300
0300
0300
0300
0600
0600
0600
0600
0400
CC00
8800
F000
ENDCHAR
STARTCHAR K
ENCODING 75
SWIDTH 698 0
DWIDTH 13 0
BBX 14 14 1 0
BITMAP
1F3C
0C18
0C20
0C40
0980
1B00
1E00
1F00
1B00
3180
31C0
30C0
3060
F9F0
ENDCHAR
STARTCHAR L
ENCODING 76
SWIDTH 572 0
DWIDTH 11 0
BBX 11 14 0 0
BITMAP
1F00
0E00
0C00
0C00
0C00
0C00
1800
1800
1800
1800
3000
3020
3060
FFE0
ENDCHAR
STARTCHAR M
ENCODING 77
SWIDTH 865 0
DWIDTH 16 0
BBX 18 14 1 0
BITMAP
1C03C0
0E0700
0E0700
0E0B00
0E0A00
121600
133600
132600
134600
114400
218C00
210C00
200C00
F03E00
ENDCHAR
STARTCHAR N
ENCODING 78
SWIDTH 762 0
DWIDTH 14 0
BBX 16 14 0 0
BITMAP
1C0F
0C02
0E04
0E04
1304
1384
1184
10C8
10C8
1068
2068
2038
2030
F010
ENDCHAR
STARTCHAR O
ENCODING 79
SWIDTH 783 0
DWIDTH 15 0
BBX 13 14 2 0
BITMAP
03E0
0C30
1818
3018
6018
6018
C018
C018
C018
C030
C030
6060
71C0
1F00
ENDCHAR
STARTCHAR P
ENCODING 80
SWIDTH 579 0
DWIDTH 11 0
BBX 12 14 1 0
BITMAP
1FE0
0C30
0C30
0C30
0830
1860
18C0
1F80
1800
3000
3000
3000
3000
FC00
ENDCHAR
STARTCHAR Q
ENCODING 81
SWIDTH 788 0
DWIDTH 15 0
BBX 15 18 2 -4
BITMAP
03E0
0C30
1818
3018
6018
6018
C018
C018
C018
C030
C030
6060
71E0
1FC0
0100
0080
00C0
003E
ENDCHAR
STARTCHAR R
ENCODING 82
SWIDTH 686 0
DWIDTH 13 0
BBX 13 14 0 0
BITMAP
1FF0
0C30
0C38
0C30
0C30
0C20
18C0
1F80
1980
18C0
30C0
3060
3060
FC38
ENDCHAR
STARTCHAR S
ENCODING 83
SWIDTH 549 0
DWIDTH 10 0
BBX 11 14 1 0
BITMAP
0FC0
1860
1040
3040
3000
1800
0E00
0700
0380
0180
C180
8180
C300
7E00
ENDCHAR
STARTCHAR T
ENCODING 84
SWIDTH 663 0
DWIDTH 13 0
BBX 12 14 3 0
BITMAP
FFF0
8610
8610
0600
0C00
0C00
0C00
0C00
0C00
1800
1800
1800
1800
7E00
ENDCHAR
STARTCHAR U
ENCODING 85
SWIDTH 727 0
DWIDTH 14 0
BBX 13 14 3 0
BITMAP
FC78
7020
6020
6020
6020
6040
6040
C040
C040
C040
C080
C080
6100
3E00
ENDCHAR
STARTCHAR V
ENCODING 86
SWIDTH 656 0
DWIDTH 12 0
BBX 14 14 2 0
BITMAP
F83C
6008
6010
3020
3020
3040
30C0
3080
1900
1B00
1A00
1C00
1C00
0800
ENDCHAR
STARTCHAR W
ENCODING 87
SWIDTH 878 0
DWIDTH 17 0
BBX 18 14 2 0
BITMAP
F843C0
60C180
60C100
61C200
61C200
22C400
22C400
244800
344800
387000
387000
306000
306000
204000
ENDCHAR
STARTCHAR X
ENCODING 88
SWIDTH 624 0
DWIDTH 12 0
BBX 15 14 0 0
BITMAP
1F1E
0E0C
0618
0630
0360
03C0
0180
0380
02C0
04C0
0860
1060
2070
F0F8
ENDCHAR
STARTCHAR Y
ENCODING 89
SWIDTH 663 0
DWIDTH 13 0
BBX 13 14 2 0
BITMAP
F878
7030
3060
30C0
1880
1900
1E00
0C00
0C00
0C00
1800
1800
1800
7E00
ENDCHAR
STARTCHAR Z
ENCODING 90
SWIDTH 633 0
DWIDTH 12 0
BBX 12 14 1 0
BITMAP
1FF0
1060
30E0
00C0
0180
0300
0600
0600
0C00
1800
3000
7040
6040
FFC0
ENDCHAR
STARTCHAR bracketleft
ENCODING 91
SWIDTH 310 0
DWIDTH 6 0
BBX 7 18 1 -4
BITMAP
1E
18
18
10
10
30
30
30
20
20
60
60
60
40
40
C0
C0
F0
ENDCHAR
STARTCHAR backslash
ENCODING 92
SWIDTH 458 0
DWIDTH 9 0
BBX 5 18 3 -4
BITMAP
80
80
40
40
40
40
40
20
20
20
20
10
10
10
10
10
08
08
ENDCHAR
STARTCHAR bracketright
ENCODING 93
SWIDTH 310 0
DWIDTH 6 0
BBX 7 18 0 -4
BITMAP
1E
06
06
04
04
0C
0C
0C
08
08
18
18
18
10
10
30
30
F0
ENDCHAR
STARTCHAR asciicircum
ENCODING 94
SWIDTH 608 0
DWIDTH 12 0
BBX 11 12 1 2
BITMAP
0100
0100
0300
0780
0480
0880
0880
1040
2040
2040
4040
C020
ENDCHAR
STARTCHAR underscore
ENCODING 95
SWIDTH 500 0
DWIDTH 9 0
BBX 8 1 1 -2
BITMAP
FF
ENDCHAR
STARTCHAR grave
ENCODING 96
SWIDTH 560 0
DWIDTH 11 0
BBX 3 3 6 11
BITMAP
C0
40
20
ENDCHAR
STARTCHAR a
ENCODING 97
SWIDTH 608 0
DWIDTH 12 0
BBX 10 10 2 0
BITMAP
0FC0
10C0
20C0
6080
6180
C180
C380
C580
C900
73C0
ENDCHAR
STARTCHAR b
ENCODING 98
SWIDTH 596 0
DWIDTH 11 0
BBX 10 14 2 0
BITMAP
7800
1000
3000
3000
3380
34C0
28C0
70C0
70C0
6080
4180
4100
C200
FC00
ENDCHAR
STARTCHAR c
ENCODING 99
SWIDTH 487 0
DWIDTH 9 0
BBX 9 10 2 0
BITMAP
0F80
1100
2100
4000
C000
C000
C000
C000
C200
7C00
ENDCHAR
STARTCHAR d
ENCODING 100
SWIDTH 608 0
DWIDTH 12 0
BBX 11 14 2 0
BITMAP
01E0
0060
0040
00C0
0FC0
10C0
20C0
6080
6180
C180
C380
C580
C900
73C0
ENDCHAR
STARTCHAR e
ENCODING 101
SWIDTH 518 0
DWIDTH 10 0
BBX 8 10 2 0
BITMAP
0F
33
63
43
C6
F8
C0
C1
E3
7C
ENDCHAR
STARTCHAR f
ENCODING 102
SWIDTH 380 0
DWIDTH 7 0
BBX 9 19 2 -4
BITMAP
0780
0880
0880
1800
1800
7E00
3000
3000
3000
3000
2000
6000
6000
6000
6000
4000
C000
C000
C000
ENDCHAR
STARTCHAR g
ENCODING 103
SWIDTH 602 0
DWIDTH 11 0
BBX 11 14 1 -4
BITMAP
07E0
0860
1060
3040
20C0
60C0
61C0
62C0
6580
3980
0180
8100
C200
7C00
ENDCHAR
STARTCHAR h
ENCODING 104
SWIDTH 631 0
DWIDTH 12 0
BBX 10 14 2 0
BITMAP
7800
1000
3000
3000
3380
24C0
28C0
7080
6180
6180
4180
4180
C180
C3C0
ENDCHAR
STARTCHAR i
ENCODING 105
SWIDTH 289 0
DWIDTH 5 0
BBX 5 14 2 0
BITMAP
18
00
00
00
F0
30
30
20
60
60
60
40
C0
F0
ENDCHAR
STARTCHAR j
ENCODING 106
SWIDTH 343 0
DWIDTH 7 0
BBX 9 18 0 -4
BITMAP
0180
0000
0000
0000
0700
0300
0300
0300
0200
0200
0600
0600
0600
0400
0C00
8C00
8800
F000
ENDCHAR
STARTCHAR k
ENCODING 107
SWIDTH 560 0
DWIDTH 11 0
BBX 10 14 1 0
BITMAP
7800
1800
1000
3000
30C0
3180
3300
6400
7800
6C00
6C00
4600
C300
C3C0
ENDCHAR
STARTCHAR l
ENCODING 108
SWIDTH 289 0
DWIDTH 5 0
BBX 5 14 2 0
BITMAP
78
18
10
30
30
30
30
60
60
60
60
40
C0
F0
ENDCHAR
STARTCHAR m
ENCODING 109
SWIDTH 944 0
DWIDTH 18 0
BBX 16 10 2 0
BITMAP
F38E
34D3
68A3
71E2
71C6
6186
6186
C186
C306
C30F
ENDCHAR
STARTCHAR n
ENCODING 110
SWIDTH 631 0
DWIDTH 12 0
BBX 10 10 2 0
BITMAP
F380
24C0
68C0
7080
6180
6180
4180
C180
C180
C3C0
ENDCHAR
STARTCHAR o
ENCODING 111
SWIDTH 560 0
DWIDTH 11 0
BBX 9 10 2 0
BITMAP
0F00
3180
6180
6180
C180
C180
C180
C300
E600
7800
ENDCHAR
STARTCHAR p
ENCODING 112
SWIDTH 608 0
DWIDTH 12 0
BBX 11 14 1 -4
BITMAP
79C0
3260
3460
3860
3060
30C0
60C0
6080
6100
7E00
4000
C000
C000
C000
ENDCHAR
STARTCHAR q
ENCODING 113
SWIDTH 599 0
DWIDTH 11 0
BBX 10 14 2 -4
BITMAP
0FC0
10C0
20C0
6080
6180
C180
C380
C580
C900
7300
0300
0300
0300
0600
ENDCHAR
STARTCHAR r
ENCODING 114
SWIDTH 470 0
DWIDTH 9 0
BBX 9 10 2 0
BITMAP
F180
3700
3C00
7800
7000
6000
6000
4000
C000
C000
ENDCHAR
STARTCHAR s
ENCODING 115
SWIDTH 440 0
DWIDTH 8 0
BBX 9 10 1 0
BITMAP
0F00
3180
3100
3800
1C00
0E00
8600
8300
C600
7C00
ENDCHAR
STARTCHAR t
ENCODING 116
SWIDTH 355 0
DWIDTH 7 0
BBX 6 13 2 0
BITMAP
30
30
30
FC
60
60
60
60
40
C0
C0
C0
70
ENDCHAR
STARTCHAR u
ENCODING 117
SWIDTH 630 0
DWIDTH 12 0
BBX 10 10 2 0
BITMAP
F3C0
60C0
60C0
6080
6180
6180
4380
C580
C900
73C0
ENDCHAR
STARTCHAR v
ENCODING 118
SWIDTH 558 0
DWIDTH 11 0
BBX 11 10 1 0
BITMAP
F0E0
3060
3060
18C0
1880
1900
1A00
1E00
1C00
1800
ENDCHAR
STARTCHAR w
ENCODING 119
SWIDTH 805 0
DWIDTH 15 0
BBX 15 10 1 0
BITMAP
E086
3186
3186
33C4
12C8
16D8
14D0
18E0
18C0
10C0
ENDCHAR
STARTCHAR x
ENCODING 120
SWIDTH 510 0
DWIDTH 10 0
BBX 10 10 1 0
BITMAP
70C0
38C0
1980
0F00
0C00
1E00
3600
6300
C300
C1C0
ENDCHAR
STARTCHAR y
ENCODING 121
SWIDTH 558 0
DWIDTH 11 0
BBX 12 14 0 -4
BITMAP
7870
1830
1820
0820
0C40
0C80
0D00
0D00
0E00
0400
0800
1000
3000
E000
ENDCHAR
STARTCHAR z
ENCODING 122
SWIDTH 536 0
DWIDTH 10 0
BBX 10 10 1 0
BITMAP
3FC0
2180
2300
0600
0C00
1C00
1800
3080
6180
FF80
ENDCHAR
STARTCHAR braceleft
ENCODING 123
SWIDTH 337 0
DWIDTH 6 0
BBX 7 18 2 -4
BITMAP
0E
18
10
10
10
10
10
30
20
C0
60
60
60
40
C0
C0
C0
60
ENDCHAR
STARTCHAR bar
ENCODING 124
SWIDTH 241 0
DWIDTH 5 0
BBX 5 18 1 -4
BITMAP
08
18
10
10
10
10
30
20
20
20
20
60
40
40
40
40
C0
80
ENDCHAR
STARTCHAR braceright
ENCODING 125
SWIDTH 337 0
DWIDTH 6 0
BBX 7 18 2 -4
BITMAP
18
04
04
0C
0C
08
08
08
0E
10
10
30
30
30
30
30
60
C0
ENDCHAR
STARTCHAR asciitilde
ENCODING 126
SWIDTH 608 0
DWIDTH 12 0
BBX 12 5 1 3
BITMAP
3810
4C10
8610
8320
81C0
ENDCHAR
STARTCHAR space
ENCODING 160
SWIDTH 333 0
DWIDTH 5 0
BBX 1 1 0 0
BITMAP
00
ENDCHAR
STARTCHAR exclamdown
ENCODING 161
SWIDTH 265 0
DWIDTH 5 0
BBX 5 14 1 -4
BITMAP
18
00
00
00
30
20
20
20
60
60
60
40
C0
C0
ENDCHAR
STARTCHAR cent
ENCODING 162
SWIDTH 608 0
DWIDTH 12 0
BBX 9 14 3 0
BITMAP
0200
0780
1D80
2500
6400
4400
C400
C800
C800
C800
E900
7E00
1000
1000
ENDCHAR
STARTCHAR sterling
ENCODING 163
SWIDTH 608 0
DWIDTH 12 0
BBX 11 14 2 0
BITMAP
01E0
0220
0420
0C00
0C00
0C00
1800
7F00
1800
1800
1000
3000
6000
FF00
ENDCHAR
STARTCHAR currency
ENCODING 164
SWIDTH 608 0
DWIDTH 12 0
BBX 13 12 1 1
BITMAP
2008
1710
18A0
1040
1040
2040
2040
2040
1080
31C0
6F40
8020
ENDCHAR
STARTCHAR yen
ENCODING 165
SWIDTH 608 0
DWIDTH 12 0
BBX 13 14 2 0
BITMAP
F878
7020
3040
1880
1900
0E00
7F80
0C00
0800
7F00
1800
1800
1800
7C00
ENDCHAR
STARTCHAR brokenbar
ENCODING 166
SWIDTH 241 0
DWIDTH 5 0
BBX 5 18 1 -4
BITMAP
08
18
10
10
10
10
30
20
00
00
20
60
40
40
40
40
C0
80
ENDCHAR
STARTCHAR section
ENCODING 167
SWIDTH 608 0
DWIDTH 12 0
BBX 10 18 2 -4
BITMAP
07C0
1840
3040
3000
3000
1C00
3F00
2380
6180
6080
3980
1F00
0700
0300
0100
8300
C700
7C00
ENDCHAR
STARTCHAR dieresis
ENCODING 168
SWIDTH 560 0
DWIDTH 11 0
BBX 6 1 5 13
BITMAP
CC
ENDCHAR
STARTCHAR copyright
ENCODING 169
SWIDTH 843 0
DWIDTH 16 0
BBX 15 14 2 0
BITMAP
0FC0
1830
2008
43E4
8424
8C22
8802
8802
8802
8C04
47C4
2008
1830
0FC0
ENDCHAR
STARTCHAR ordfeminine
ENCODING 170
SWIDTH 458 0
DWIDTH 8 0
BBX 7 8 2 6
BITMAP
1E
26
46
C6
CC
DC
D4
EE
ENDCHAR
STARTCHAR guillemotleft
ENCODING 171
SWIDTH 525 0
DWIDTH 10 0
BBX 9 9 1 0
BITMAP
0880
1100
2200
4C00
CC00
6400
2200
2200
1000
ENDCHAR
STARTCHAR logicalnot
ENCODING 172
SWIDTH 608 0
DWIDTH 12 0
BBX 11 5 2 3
BITMAP
FFE0
0020
0060
0040
0040
ENDCHAR
STARTCHAR hyphen
ENCODING 173
SWIDTH 313 0
DWIDTH 6 0
BBX 5 1 2 6
BITMAP
F8
ENDCHAR
STARTCHAR registered
ENCODING 174
SWIDTH 608 0
DWIDTH 12 0
BBX 8 9 4 5
BITMAP
3C
46
9E
95
99
99
A5
46
3C
ENDCHAR
STARTCHAR macron
ENCODING 175
SWIDTH 560 0
DWIDTH 11 0
BBX 5 1 6 13
BITMAP
F8
ENDCHAR
STARTCHAR degree
ENCODING 176
SWIDTH 277 0
DWIDTH 5 0
BBX 3 4 3 10
BITMAP
60
A0
A0
60
ENDCHAR
STARTCHAR plusminus
ENCODING 177
SWIDTH 608 0
DWIDTH 12 0
BBX 12 12 0 0
BITMAP
0100
0100
0100
0100
7FF0
0200
0200
0200
0200
0000
0000
FFE0
ENDCHAR
STARTCHAR twosuperior
ENCODING 178
SWIDTH 365 0
DWIDTH 7 0
BBX 6 9 -10 5
BITMAP
38
4C
04
04
18
20
40
40
F8
ENDCHAR
STARTCHAR threesuperior
ENCODING 179
SWIDTH 365 0
DWIDTH 7 0
BBX 6 9 -10 5
BITMAP
38
6C
04
08
30
18
08
98
F0
ENDCHAR
STARTCHAR acute
ENCODING 180
SWIDTH 560 0
DWIDTH 11 0
BBX 5 3 6 11
BITMAP
38
60
C0
ENDCHAR
STARTCHAR mu
ENCODING 181
SWIDTH 663 0
DWIDTH 13 0
BBX 11 14 2 -4
BITMAP
71E0
3060
3040
30C0
30C0
20C0
61C0
6280
6780
7DE0
4000
C000
C000
C000
ENDCHAR
STARTCHAR paragraph
ENCODING 182
SWIDTH 608 0
DWIDTH 12 0
BBX 8 18 3 -4
BITMAP
7F
79
F9
FA
FA
7A
72
12
14
14
14
24
24
24
24
24
28
28
ENDCHAR
STARTCHAR periodcentered
ENCODING 183
SWIDTH 608 0
DWIDTH 12 0
BBX 2 1 6 6
BITMAP
C0
ENDCHAR
STARTCHAR cedilla
ENCODING 184
SWIDTH 560 0
DWIDTH 11 0
BBX 3 4 3 -4
BITMAP
60
60
20
E0
ENDCHAR
STARTCHAR onesuperior
ENCODING 185
SWIDTH 365 0
DWIDTH 7 0
BBX 4 9 -10 5
BITMAP
70
10
10
20
20
20
20
60
F0
ENDCHAR
STARTCHAR ordmasculine
ENCODING 186
SWIDTH 458 0
DWIDTH 8 0
BBX 7 8 2 6
BITMAP
1C
26
42
C2
C2
C4
CC
70
ENDCHAR
STARTCHAR guillemotright
ENCODING 187
SWIDTH 525 0
DWIDTH 10 0
BBX 9 9 1 1
BITMAP
0400
2200
2200
1300
1980
1900
2200
4400
8800
ENDCHAR
STARTCHAR onequarter
ENCODING 188
SWIDTH 766 0
DWIDTH 15 0
BBX 15 14 3 0
BITMAP
7006
100C
1018
2030
2020
204C
2094
6128
F248
0488
0CFC
1808
3010
6038
ENDCHAR
STARTCHAR onehalf
ENCODING 189
SWIDTH 766 0
DWIDTH 15 0
BBX 15 14 3 0
BITMAP
7006
100C
1018
2030
2020
2078
20CC
6104
F204
0418
0C20
1840
3040
60F8
ENDCHAR
STARTCHAR threequarters
ENCODING 190
SWIDTH 766 0
DWIDTH 15 0
BBX 15 14 3 0
BITMAP
3806
6C0C
0418
0830
3020
184C
0894
9928
F248
0488
0CFC
1808
3010
6038
ENDCHAR
STARTCHAR questiondown
ENCODING 191
SWIDTH 471 0
DWIDTH 9 0
BBX 7 14 1 -4
BITMAP
06
00
00
00
06
04
08
10
60
40
C0
C2
E2
7C
ENDCHAR
STARTCHAR Agrave
ENCODING 192
SWIDTH 747 0
DWIDTH 14 0
BBX 14 18 0 0
BITMAP
00C0
0040
0020
0000
0040
00C0
00E0
0160
0160
0260
0460
0430
0830
1FF0
2030
2030
6038
F07C
ENDCHAR
STARTCHAR Aacute
ENCODING 193
SWIDTH 747 0
DWIDTH 14 0
BBX 14 18 0 0
BITMAP
001C
0030
0060
0000
0040
00C0
00E0
0160
0160
0260
0460
0430
0830
1FF0
2030
2030
6038
F07C
ENDCHAR
STARTCHAR Acircumflex
ENCODING 194
SWIDTH 747 0
DWIDTH 14 0
BBX 14 18 0 0
BITMAP
0070
00D0
0108
0000
0040
00C0
00E0
0160
0160
0260
0460
0430
0830
1FF0
2030
2030
6038
F07C
ENDCHAR
STARTCHAR Atilde
ENCODING 195
SWIDTH 747 0
DWIDTH 14 0
BBX 14 17 0 0
BITMAP
00C8
0130
0000
0040
00C0
00E0
0160
0160
0260
0460
0430
0830
1FF0
2030
2030
6038
F07C
ENDCHAR
STARTCHAR Adieresis
ENCODING 196
SWIDTH 747 0
DWIDTH 14 0
BBX 14 16 0 0
BITMAP
0198
0000
0040
00C0
00E0
0160
0160
0260
0460
0430
0830
1FF0
2030
2030
6038
F07C
ENDCHAR
STARTCHAR Aring
ENCODING 197
SWIDTH 747 0
DWIDTH 14 0
BBX 14 18 0 0
BITMAP
0070
0050
0070
0000
0040
00C0
00E0
0160
0160
0260
0460
0430
0830
1FF0
2030
2030
6038
F07C
ENDCHAR
STARTCHAR AE
ENCODING 198
SWIDTH 907 0
DWIDTH 17 0
BBX 19 14 0 0
BITMAP
001FE0
003820
005860
009800
00B000
013080
023F80
043080
043000
0FE000
106000
206080
406080
F1FF80
ENDCHAR
STARTCHAR Ccedilla
ENCODING 199
SWIDTH 714 0
DWIDTH 14 0
BBX 13 18 2 -4
BITMAP
03F8
0C18
1818
3018
6000
6000
C000
C000
C000
C000
C000
6000
7060
1F80
0800
0C00
0400
1C00
ENDCHAR
STARTCHAR Egrave
ENCODING 200
SWIDTH 569 0
DWIDTH 11 0
BBX 12 18 1 0
BITMAP
0300
0100
0080
0000
1FF0
0C10
0C30
0C00
0800
1840
1FC0
1880
1800
1000
3000
3040
3040
FFC0
ENDCHAR
STARTCHAR Eacute
ENCODING 201
SWIDTH 569 0
DWIDTH 11 0
BBX 12 18 1 0
BITMAP
00E0
0180
0300
0000
1FF0
0C10
0C30
0C00
0800
1840
1FC0
1880
1800
1000
3000
3040
3040
FFC0
ENDCHAR
STARTCHAR Ecircumflex
ENCODING 202
SWIDTH 569 0
DWIDTH 11 0
BBX 12 18 1 0
BITMAP
01C0
0340
0420
0000
1FF0
0C10
0C30
0C00
0800
1840
1FC0
1880
1800
1000
3000
3040
3040
FFC0
ENDCHAR
STARTCHAR Edieresis
ENCODING 203
SWIDTH 569 0
DWIDTH 11 0
BBX 12 16 1 0
BITMAP
0660
0000
1FF0
0C10
0C30
0C00
0800
1840
1FC0
1880
1800
1000
3000
3040
3040
FFC0
ENDCHAR
STARTCHAR Igrave
ENCODING 204
SWIDTH 325 0
DWIDTH 6 0
BBX 8 18 1 0
BITMAP
0C
04
02
00
1F
0C
0C
0C
08
18
18
18
18
10
30
30
30
F8
ENDCHAR
STARTCHAR Iacute
ENCODING 205
SWIDTH 325 0
DWIDTH 6 0
BBX 9 18 1 0
BITMAP
0380
0600
0C00
0000
1F00
0C00
0C00
0C00
0800
1800
1800
1800
1800
1000
3000
3000
3000
F800
ENDCHAR
STARTCHAR Icircumflex
ENCODING 206
SWIDTH 325 0
DWIDTH 6 0
BBX 9 18 1 0
BITMAP
0700
0D00
1080
0000
1F00
0C00
0C00
0C00
0800
1800
1800
1800
1800
1000
3000
3000
3000
F800
ENDCHAR
STARTCHAR Idieresis
ENCODING 207
SWIDTH 325 0
DWIDTH 6 0
BBX 9 16 1 0
BITMAP
1980
0000
1F00
0C00
0C00
0C00
0800
1800
1800
1800
1800
1000
3000
3000
3000
F800
ENDCHAR
STARTCHAR Eth
ENCODING 208
SWIDTH 770 0
DWIDTH 15 0
BBX 15 14 0 0
BITMAP
1FF0
0C1C
0C0C
0C06
0C06
1806
7F06
1806
180C
180C
3018
3038
3060
FF80
ENDCHAR
STARTCHAR Ntilde
ENCODING 209
SWIDTH 762 0
DWIDTH 14 0
BBX 16 17 0 0
BITMAP
00C8
0130
0000
1C0F
0C02
0E04
0E04
1304
1384
1184
10C8
10C8
1068
2068
2038
2030
F010
ENDCHAR
STARTCHAR Ograve
ENCODING 210
SWIDTH 783 0
DWIDTH 15 0
BBX 13 18 2 0
BITMAP
0180
0080
0040
0000
03E0
0C30
1818
3018
6018
6018
C018
C018
C018
C030
C030
6060
71C0
1F00
ENDCHAR
STARTCHAR Oacute
ENCODING 211
SWIDTH 783 0
DWIDTH 15 0
BBX 13 18 2 0
BITMAP
0070
00C0
0180
0000
03E0
0C30
1818
3018
6018
6018
C018
C018
C018
C030
C030
6060
71C0
1F00
ENDCHAR
STARTCHAR Ocircumflex
ENCODING 212
SWIDTH 783 0
DWIDTH 15 0
BBX 13 18 2 0
BITMAP
01C0
0340
0420
0000
03E0
0C30
1818
3018
6018
6018
C018
C018
C018
C030
C030
6060
71C0
1F00
ENDCHAR
STARTCHAR Otilde
ENCODING 213
SWIDTH 783 0
DWIDTH 15 0
BBX 13 17 2 0
BITMAP
0190
0260
0000
03E0
0C30
1818
3018
6018
6018
C018
C018
C018
C030
C030
6060
71C0
1F00
ENDCHAR
STARTCHAR Odieresis
ENCODING 214
SWIDTH 783 0
DWIDTH 15 0
BBX 13 16 2 0
BITMAP
0330
0000
03E0
0C30
1818
3018
6018
6018
C018
C018
C018
C030
C030
6060
71C0
1F00
ENDCHAR
STARTCHAR multiply
ENCODING 215
SWIDTH 608 0
DWIDTH 12 0
BBX 13 12 0 0
BITMAP
2008
3010
1020
0840
0480
0300
0700
0D00
1080
20C0
4040
8020
ENDCHAR
STARTCHAR Oslash
ENCODING 216
SWIDTH 783 0
DWIDTH 15 0
BBX 16 14 1 0
BITMAP
01F3
061C
0C0C
181C
3026
3046
7084
610C
620C
6408
7818
3030
5860
CF80
ENDCHAR
STARTCHAR Ugrave
ENCODING 217
SWIDTH 727 0
DWIDTH 14 0
BBX 13 18 3 0
BITMAP
0600
0200
0100
0000
FC78
7020
6020
6020
6020
6040
6040
C040
C040
C040
C080
C080
6100
3E00
ENDCHAR
STARTCHAR Uacute
ENCODING 218
SWIDTH 727 0
DWIDTH 14 0
BBX 13 18 3 0
BITMAP
01C0
0300
0600
0000
FC78
7020
6020
6020
6020
6040
6040
C040
C040
C040
C080
C080
6100
3E00
ENDCHAR
STARTCHAR Ucircumflex
ENCODING 219
SWIDTH 727 0
DWIDTH 14 0
BBX 13 18 3 0
BITMAP
0380
0680
0840
0000
FC78
7020
6020
6020
6020
6040
6040
C040
C040
C040
C080
C080
6100
3E00
ENDCHAR
STARTCHAR Udieresis
ENCODING 220
SWIDTH 727 0
DWIDTH 14 0
BBX 13 16 3 0
BITMAP
0CC0
0000
FC78
7020
6020
6020
6020
6040
6040
C040
C040
C040
C080
C080
6100
3E00
ENDCHAR
STARTCHAR Yacute
ENCODING 221
SWIDTH 663 0
DWIDTH 13 0
BBX 13 18 2 0
BITMAP
01C0
0300
0600
0000
F878
7030
3060
30C0
1880
1900
1E00
0C00
0C00
0C00
1800
1800
1800
7E00
ENDCHAR
STARTCHAR Thorn
ENCODING 222
SWIDTH 579 0
DWIDTH 11 0
BBX 12 14 0 0
BITMAP
1F00
0E00
0C00
0FE0
0C70
0C30
1830
1830
1860
18C0
3F00
3000
3000
FC00
ENDCHAR
STARTCHAR germandbls
ENCODING 223
SWIDTH 603 0
DWIDTH 11 0
BBX 10 19 1 -4
BITMAP
0780
0CC0
18C0
1880
1900
1A00
3600
3600
3300
3180
30C0
6040
6C40
68C0
6F00
6000
C000
C000
C000
ENDCHAR
STARTCHAR agrave
ENCODING 224
SWIDTH 608 0
DWIDTH 12 0
BBX 10 14 2 0
BITMAP
0600
0200
0100
0000
0FC0
10C0
20C0
6080
6180
C180
C380
C580
C900
73C0
ENDCHAR
STARTCHAR aacute
ENCODING 225
SWIDTH 608 0
DWIDTH 12 0
BBX 10 14 2 0
BITMAP
01C0
0300
0600
0000
0FC0
10C0
20C0
6080
6180
C180
C380
C580
C900
73C0
ENDCHAR
STARTCHAR acircumflex
ENCODING 226
SWIDTH 608 0
DWIDTH 12 0
BBX 10 14 2 0
BITMAP
0380
0680
0840
0000
0FC0
10C0
20C0
6080
6180
C180
C380
C580
C900
73C0
ENDCHAR
STARTCHAR atilde
ENCODING 227
SWIDTH 608 0
DWIDTH 12 0
BBX 10 13 2 0
BITMAP
0640
0980
0000
0FC0
10C0
20C0
6080
6180
C180
C380
C580
C900
73C0
ENDCHAR
STARTCHAR adieresis
ENCODING 228
SWIDTH 608 0
DWIDTH 12 0
BBX 10 12 2 0
BITMAP
0CC0
0000
0FC0
10C0
20C0
6080
6180
C180
C380
C580
C900
73C0
ENDCHAR
STARTCHAR aring
ENCODING 229
SWIDTH 608 0
DWIDTH 12 0
BBX 10 14 2 0
BITMAP
0380
0280
0380
0000
0FC0
10C0
20C0
6080
6180
C180
C380
C580
C900
73C0
ENDCHAR
STARTCHAR ae
ENCODING 230
SWIDTH 881 0
DWIDTH 17 0
BBX 16 10 1 0
BITMAP
0FDE
10E6
20C2
6086
418C
C3F0
C380
C581
C9C6
70F8
ENDCHAR
STARTCHAR ccedilla
ENCODING 231
SWIDTH 487 0
DWIDTH 9 0
BBX 9 14 2 -4
BITMAP
0F80
1100
2100
4000
C000
C000
C000
C000
C200
7C00
2000
3000
1000
7000
ENDCHAR
STARTCHAR egrave
ENCODING 232
SWIDTH 518 0
DWIDTH 10 0
BBX 8 14 2 0
BITMAP
0C
04
02
00
0F
33
63
43
C6
F8
C0
C1
E3
7C
ENDCHAR
STARTCHAR eacute
ENCODING 233
SWIDTH 518 0
DWIDTH 10 0
BBX 10 14 2 0
BITMAP
01C0
0300
0600
0000
0F00
3300
6300
4300
C600
F800
C000
C100
E300
7C00
ENDCHAR
STARTCHAR ecircumflex
ENCODING 234
SWIDTH 518 0
DWIDTH 10 0
BBX 9 14 2 0
BITMAP
0700
0D00
1080
0000
0F00
3300
6300
4300
C600
F800
C000
C100
E300
7C00
ENDCHAR
STARTCHAR edieresis
ENCODING 235
SWIDTH 518 0
DWIDTH 10 0
BBX 9 12 2 0
BITMAP
1980
0000
0F00
3300
6300
4300
C600
F800
C000
C100
E300
7C00
ENDCHAR
STARTCHAR igrave
ENCODING 236
SWIDTH 289 0
DWIDTH 5 0
BBX 5 14 2 0
BITMAP
30
10
08
00
F0
30
20
60
60
60
60
40
C0
F0
ENDCHAR
STARTCHAR iacute
ENCODING 237
SWIDTH 289 0
DWIDTH 5 0
BBX 7 14 2 0
BITMAP
0E
18
30
00
F0
30
20
60
60
60
60
40
C0
F0
ENDCHAR
STARTCHAR icircumflex
ENCODING 238
SWIDTH 289 0
DWIDTH 5 0
BBX 7 14 2 0
BITMAP
1C
34
42
00
F0
30
20
60
60
60
60
40
C0
F0
ENDCHAR
STARTCHAR idieresis
ENCODING 239
SWIDTH 289 0
DWIDTH 5 0
BBX 7 12 2 0
BITMAP
66
00
F0
30
20
60
60
60
60
40
C0
F0
ENDCHAR
STARTCHAR eth
ENCODING 240
SWIDTH 562 0
DWIDTH 11 0
BBX 9 15 2 0
BITMAP
0180
3F00
0700
0F00
1180
0F80
3180
6180
4180
C180
C180
C100
C300
C600
7800
ENDCHAR
STARTCHAR ntilde
ENCODING 241
SWIDTH 631 0
DWIDTH 12 0
BBX 10 13 2 0
BITMAP
0640
0980
0000
F380
24C0
68C0
7080
6180
6180
4180
C180
C180
C3C0
ENDCHAR
STARTCHAR ograve
ENCODING 242
SWIDTH 560 0
DWIDTH 11 0
BBX 9 14 2 0
BITMAP
0600
0200
0100
0000
0F00
3180
6180
6180
C180
C180
C180
C300
E600
7800
ENDCHAR
STARTCHAR oacute
ENCODING 243
SWIDTH 560 0
DWIDTH 11 0
BBX 10 14 2 0
BITMAP
01C0
0300
0600
0000
0F00
3180
6180
6180
C180
C180
C180
C300
E600
7800
ENDCHAR
STARTCHAR ocircumflex
ENCODING 244
SWIDTH 560 0
DWIDTH 11 0
BBX 9 14 2 0
BITMAP
0700
0D00
1080
0000
0F00
3180
6180
6180
C180
C180
C180
C300
E600
7800
ENDCHAR
STARTCHAR otilde
ENCODING 245
SWIDTH 560 0
DWIDTH 11 0
BBX 10 13 2 0
BITMAP
0640
0980
0000
0F00
3180
6180
6180
C180
C180
C180
C300
E600
7800
ENDCHAR
STARTCHAR odieresis
ENCODING 246
SWIDTH 560 0
DWIDTH 11 0
BBX 10 12 2 0
BITMAP
0CC0
0000
0F00
3180
6180
6180
C180
C180
C180
C300
E600
7800
ENDCHAR
STARTCHAR divide
ENCODING 247
SWIDTH 608 0
DWIDTH 12 0
BBX 11 10 1 0
BITMAP
0600
0000
0000
0000
0000
FFE0
0000
0000
0000
0C00
ENDCHAR
STARTCHAR oslash
ENCODING 248
SWIDTH 560 0
DWIDTH 11 0
BBX 11 10 1 0
BITMAP
07A0
18C0
30C0
21C0
62C0
6CC0
7080
6180
7300
FC00
ENDCHAR
STARTCHAR ugrave
ENCODING 249
SWIDTH 630 0
DWIDTH 12 0
BBX 10 14 2 0
BITMAP
0600
0200
0100
0000
F3C0
60C0
60C0
6080
6180
6180
4380
C580
C900
73C0
ENDCHAR
STARTCHAR uacute
ENCODING 250
SWIDTH 630 0
DWIDTH 12 0
BBX 10 14 2 0
BITMAP
01C0
0300
0600
0000
F3C0
60C0
60C0
6080
6180
6180
4380
C580
C900
73C0
ENDCHAR
STARTCHAR ucircumflex
ENCODING 251
SWIDTH 630 0
DWIDTH 12 0
BBX 10 14 2 0
BITMAP
0380
0680
0840
0000
F3C0
60C0
60C0
6080
6180
6180
4380
C580
C900
73C0
ENDCHAR
STARTCHAR udieresis
ENCODING 252
SWIDTH 630 0
DWIDTH 12 0
BBX 10 12 2 0
BITMAP
0CC0
0000
F3C0
60C0
60C0
6080
6180
6180
4380
C580
C900
73C0
ENDCHAR
STARTCHAR yacute
ENCODING 253
SWIDTH 558 0
DWIDTH 11 0
BBX 12 18 0 -4
BITMAP
0070
00C0
0180
0000
7870
1830
1820
0820
0C40
0C80
0D00
0D00
0E00
0400
0800
1000
3000
E000
ENDCHAR
STARTCHAR thorn
ENCODING 254
SWIDTH 608 0
DWIDTH 12 0
BBX 11 18 1 -4
BITMAP
7800
1800
1800
1800
11C0
3260
3460
3860
3060
30C0
60C0
6080
6100
7E00
4000
C000
C000
C000
ENDCHAR
STARTCHAR ydieresis
ENCODING 255
SWIDTH 558 0
DWIDTH 11 0
BBX 12 16 0 -4
BITMAP
0660
0000
7870
1830
1820
0820
0C40
0C80
0D00
0D00
0E00
0400
0800
1000
3000
E000
ENDCHAR
ENDFONT
