STARTFONT 2.1
COMMENT AUTOMATICALLY GENERATED FILE. DO NOT EDIT!
COMMENT Generated with 'ucs2any.pl lubI12.bdf ../../../fonts/util/map-ISO8859-1 ISO8859-1'
COMMENT from an ISO10646-1 encoded source BDF font.
COMMENT ucs2any.pl by Markus Kuhn <mkuhn@acm.org>, 2000.
COMMENT $Xorg: $
COMMENT ISO10646-1 extension by Markus Kuhn <mkuhn@acm.org>, 2001-03-20
COMMENT  (c) Copyright Bigelow & Holmes 1986, 1985. Lucida is a registered
COMMENT  trademark of Bigelow & Holmes. See LEGAL NOTICE file for terms 
COMMENT  of the license. 
FONT -B&H-LucidaBright-Medium-I-Normal--12-120-75-75-P-67-ISO8859-1
SIZE 12 72 72
FONTBOUNDINGBOX 18 15 -6 -3
STARTPROPERTIES 22
COMMENT Begin LogicalFontDescription
FONTNAME_REGISTRY ""
FOUNDRY "B&H"
FAMILY_NAME "LucidaBright"
WEIGHT_NAME "Medium"
SLANT "I"
SETWIDTH_NAME "Normal"
ADD_STYLE_NAME ""
PIXEL_SIZE 12
POINT_SIZE 120
RESOLUTION_X 75
RESOLUTION_Y 75
SPACING "P"
AVERAGE_WIDTH 67
CHARSET_REGISTRY "ISO8859"
CHARSET_ENCODING "1"
COMMENT END LogicalFontDescription
FONT_ASCENT 11
FONT_DESCENT 3
DEFAULT_CHAR 0
COPYRIGHT "Copyright Bigelow & Holmes 1986, 1985."
FACE_NAME "Lucida Bright Italic"
X_HEIGHT 6
CAP_HEIGHT 9
ENDPROPERTIES
CHARS 192
STARTCHAR defaultchar
ENCODING 0
SWIDTH 776 0
DWIDTH 9 0
BBX 9 9 1 0
BITMAP
AA80
0000
8080
0000
8080
0000
8080
0000
AA80
ENDCHAR
STARTCHAR space
ENCODING 32
SWIDTH 333 0
DWIDTH 3 0
BBX 1 1 0 0
BITMAP
00
ENDCHAR
STARTCHAR exclam
ENCODING 33
SWIDTH 265 0
DWIDTH 3 0
BBX 3 9 1 0
BITMAP
20
20
40
40
40
40
40
00
80
ENDCHAR
STARTCHAR quotedbl
ENCODING 34
SWIDTH 377 0
DWIDTH 5 0
BBX 3 3 2 6
BITMAP
A0
A0
A0
ENDCHAR
STARTCHAR numbersign
ENCODING 35
SWIDTH 608 0
DWIDTH 7 0
BBX 7 9 1 0
BITMAP
1A
14
7E
28
28
FC
50
90
B0
ENDCHAR
STARTCHAR dollar
ENCODING 36
SWIDTH 608 0
DWIDTH 7 0
BBX 6 10 2 -1
BITMAP
3C
54
50
70
10
28
28
A8
F0
40
ENDCHAR
STARTCHAR percent
ENCODING 37
SWIDTH 759 0
DWIDTH 9 0
BBX 9 9 1 0
BITMAP
7180
5200
5600
6800
0E00
1500
2900
4900
8600
ENDCHAR
STARTCHAR ampersand
ENCODING 38
SWIDTH 727 0
DWIDTH 9 0
BBX 8 9 1 0
BITMAP
1C
34
24
38
57
9A
8E
CC
76
ENDCHAR
STARTCHAR quotesingle
ENCODING 39
SWIDTH 231 0
DWIDTH 3 0
BBX 1 3 2 6
BITMAP
80
80
80
ENDCHAR
STARTCHAR parenleft
ENCODING 40
SWIDTH 310 0
DWIDTH 4 0
BBX 4 11 1 -2
BITMAP
10
20
40
40
C0
80
80
80
80
80
40
ENDCHAR
STARTCHAR parenright
ENCODING 41
SWIDTH 310 0
DWIDTH 4 0
BBX 4 11 0 -2
BITMAP
20
10
10
10
10
10
20
20
20
40
80
ENDCHAR
STARTCHAR asterisk
ENCODING 42
SWIDTH 458 0
DWIDTH 5 0
BBX 4 4 2 5
BITMAP
20
F0
60
A0
ENDCHAR
STARTCHAR plus
ENCODING 43
SWIDTH 608 0
DWIDTH 7 0
BBX 7 8 1 0
BITMAP
18
10
10
10
FE
10
10
10
ENDCHAR
STARTCHAR comma
ENCODING 44
SWIDTH 265 0
DWIDTH 3 0
BBX 2 3 1 -2
BITMAP
C0
40
80
ENDCHAR
STARTCHAR hyphen
ENCODING 45
SWIDTH 313 0
DWIDTH 4 0
BBX 3 1 1 3
BITMAP
E0
ENDCHAR
STARTCHAR period
ENCODING 46
SWIDTH 265 0
DWIDTH 3 0
BBX 2 1 1 0
BITMAP
C0
ENDCHAR
STARTCHAR slash
ENCODING 47
SWIDTH 458 0
DWIDTH 5 0
BBX 8 11 0 -2
BITMAP
01
02
04
04
08
10
10
20
40
40
80
ENDCHAR
STARTCHAR zero
ENCODING 48
SWIDTH 608 0
DWIDTH 7 0
BBX 6 9 1 0
BITMAP
18
64
44
C4
84
84
8C
C8
70
ENDCHAR
STARTCHAR one
ENCODING 49
SWIDTH 608 0
DWIDTH 7 0
BBX 5 9 1 0
BITMAP
38
18
10
10
10
10
30
20
F8
ENDCHAR
STARTCHAR two
ENCODING 50
SWIDTH 608 0
DWIDTH 7 0
BBX 7 9 1 0
BITMAP
3C
26
22
06
08
30
40
40
FC
ENDCHAR
STARTCHAR three
ENCODING 51
SWIDTH 608 0
DWIDTH 7 0
BBX 6 9 1 0
BITMAP
38
24
04
0C
38
08
0C
88
F0
ENDCHAR
STARTCHAR four
ENCODING 52
SWIDTH 608 0
DWIDTH 7 0
BBX 6 9 1 0
BITMAP
0C
14
28
48
88
FC
08
10
38
ENDCHAR
STARTCHAR five
ENCODING 53
SWIDTH 608 0
DWIDTH 7 0
BBX 6 9 1 0
BITMAP
3C
20
40
70
08
08
08
98
F0
ENDCHAR
STARTCHAR six
ENCODING 54
SWIDTH 608 0
DWIDTH 7 0
BBX 6 9 1 0
BITMAP
1C
24
40
F8
CC
84
8C
C8
70
ENDCHAR
STARTCHAR seven
ENCODING 55
SWIDTH 608 0
DWIDTH 7 0
BBX 7 9 2 0
BITMAP
7E
02
04
18
10
20
40
40
80
ENDCHAR
STARTCHAR eight
ENCODING 56
SWIDTH 608 0
DWIDTH 7 0
BBX 6 9 2 0
BITMAP
38
64
44
68
38
C8
88
88
70
ENDCHAR
STARTCHAR nine
ENCODING 57
SWIDTH 608 0
DWIDTH 7 0
BBX 6 9 1 0
BITMAP
38
64
44
44
44
7C
0C
98
F0
ENDCHAR
STARTCHAR colon
ENCODING 58
SWIDTH 265 0
DWIDTH 3 0
BBX 3 6 1 0
BITMAP
60
00
00
00
00
C0
ENDCHAR
STARTCHAR semicolon
ENCODING 59
SWIDTH 265 0
DWIDTH 3 0
BBX 3 8 1 -2
BITMAP
60
00
00
00
40
C0
40
80
ENDCHAR
STARTCHAR less
ENCODING 60
SWIDTH 608 0
DWIDTH 7 0
BBX 8 8 1 0
BITMAP
01
06
18
E0
60
10
0C
02
ENDCHAR
STARTCHAR equal
ENCODING 61
SWIDTH 608 0
DWIDTH 7 0
BBX 7 3 1 2
BITMAP
FE
00
FE
ENDCHAR
STARTCHAR greater
ENCODING 62
SWIDTH 608 0
DWIDTH 7 0
BBX 8 8 0 0
BITMAP
60
10
0C
02
03
0C
70
80
ENDCHAR
STARTCHAR question
ENCODING 63
SWIDTH 471 0
DWIDTH 6 0
BBX 5 9 2 0
BITMAP
70
98
98
10
20
40
C0
00
80
ENDCHAR
STARTCHAR at
ENCODING 64
SWIDTH 861 0
DWIDTH 10 0
BBX 10 9 1 0
BITMAP
1F00
2080
4E40
9240
A240
AE80
9B00
4000
3C00
ENDCHAR
STARTCHAR A
ENCODING 65
SWIDTH 747 0
DWIDTH 9 0
BBX 9 9 0 0
BITMAP
0600
0600
0A00
1A00
1200
3F00
4100
4100
E380
ENDCHAR
STARTCHAR B
ENCODING 66
SWIDTH 606 0
DWIDTH 7 0
BBX 7 9 0 0
BITMAP
3E
32
22
24
38
24
66
44
F8
ENDCHAR
STARTCHAR C
ENCODING 67
SWIDTH 714 0
DWIDTH 9 0
BBX 8 9 1 0
BITMAP
1F
31
41
C0
80
80
80
C2
7C
ENDCHAR
STARTCHAR D
ENCODING 68
SWIDTH 770 0
DWIDTH 9 0
BBX 9 9 0 0
BITMAP
3F00
3180
3080
2080
2080
2180
6100
6200
FC00
ENDCHAR
STARTCHAR E
ENCODING 69
SWIDTH 569 0
DWIDTH 7 0
BBX 8 9 0 0
BITMAP
3F
11
10
32
3C
24
20
62
FE
ENDCHAR
STARTCHAR F
ENCODING 70
SWIDTH 551 0
DWIDTH 7 0
BBX 8 9 0 0
BITMAP
3F
11
10
32
3C
24
20
60
F0
ENDCHAR
STARTCHAR G
ENCODING 71
SWIDTH 756 0
DWIDTH 9 0
BBX 8 9 1 0
BITMAP
1F
31
40
C0
80
87
82
C6
7C
ENDCHAR
STARTCHAR H
ENCODING 72
SWIDTH 776 0
DWIDTH 9 0
BBX 10 9 1 0
BITMAP
39C0
3080
3180
2100
3F00
2100
6300
4300
E700
ENDCHAR
STARTCHAR I
ENCODING 73
SWIDTH 325 0
DWIDTH 4 0
BBX 5 9 0 0
BITMAP
38
30
30
20
20
20
60
60
E0
ENDCHAR
STARTCHAR J
ENCODING 74
SWIDTH 422 0
DWIDTH 5 0
BBX 7 11 0 -2
BITMAP
1E
0C
08
08
08
08
18
10
10
90
E0
ENDCHAR
STARTCHAR K
ENCODING 75
SWIDTH 698 0
DWIDTH 8 0
BBX 9 9 0 0
BITMAP
3B80
1300
3600
2800
3800
2800
6400
6600
E700
ENDCHAR
STARTCHAR L
ENCODING 76
SWIDTH 572 0
DWIDTH 7 0
BBX 7 9 0 0
BITMAP
38
10
10
20
20
20
20
62
FE
ENDCHAR
STARTCHAR M
ENCODING 77
SWIDTH 865 0
DWIDTH 10 0
BBX 12 9 0 0
BITMAP
3070
10E0
38C0
2940
2B40
2A40
2480
4080
E1C0
ENDCHAR
STARTCHAR N
ENCODING 78
SWIDTH 762 0
DWIDTH 9 0
BBX 10 9 0 0
BITMAP
30C0
1080
3880
2880
2480
2680
4300
4300
E100
ENDCHAR
STARTCHAR O
ENCODING 79
SWIDTH 783 0
DWIDTH 9 0
BBX 8 9 1 0
BITMAP
1E
23
41
41
81
81
82
C6
78
ENDCHAR
STARTCHAR P
ENCODING 80
SWIDTH 579 0
DWIDTH 7 0
BBX 8 9 0 0
BITMAP
3E
11
31
22
3C
20
60
60
F0
ENDCHAR
STARTCHAR Q
ENCODING 81
SWIDTH 788 0
DWIDTH 9 0
BBX 10 11 1 -2
BITMAP
1E00
2300
4100
4100
8100
8100
8200
C600
7800
0C00
03C0
ENDCHAR
STARTCHAR R
ENCODING 82
SWIDTH 686 0
DWIDTH 8 0
BBX 8 9 0 0
BITMAP
3E
13
32
22
3C
2C
64
66
F3
ENDCHAR
STARTCHAR S
ENCODING 83
SWIDTH 549 0
DWIDTH 7 0
BBX 7 9 1 0
BITMAP
3C
22
62
20
18
0C
84
8C
F8
ENDCHAR
STARTCHAR T
ENCODING 84
SWIDTH 663 0
DWIDTH 8 0
BBX 8 9 2 0
BITMAP
FF
99
10
10
10
30
20
20
F0
ENDCHAR
STARTCHAR U
ENCODING 85
SWIDTH 727 0
DWIDTH 9 0
BBX 9 9 2 0
BITMAP
F380
4100
4200
4200
C200
8200
8200
C400
7800
ENDCHAR
STARTCHAR V
ENCODING 86
SWIDTH 656 0
DWIDTH 8 0
BBX 9 9 1 0
BITMAP
E180
4100
4300
6200
6400
2C00
2800
3000
3000
ENDCHAR
STARTCHAR W
ENCODING 87
SWIDTH 878 0
DWIDTH 11 0
BBX 11 9 1 0
BITMAP
E460
4440
4C40
4C80
5580
5500
6700
6600
4600
ENDCHAR
STARTCHAR X
ENCODING 88
SWIDTH 624 0
DWIDTH 7 0
BBX 10 9 0 0
BITMAP
38C0
1080
0900
0E00
0400
0E00
1200
6300
E700
ENDCHAR
STARTCHAR Y
ENCODING 89
SWIDTH 663 0
DWIDTH 8 0
BBX 8 9 2 0
BITMAP
E3
42
64
28
30
30
20
20
70
ENDCHAR
STARTCHAR Z
ENCODING 90
SWIDTH 633 0
DWIDTH 8 0
BBX 8 9 1 0
BITMAP
3F
22
04
0C
18
30
20
42
FE
ENDCHAR
STARTCHAR bracketleft
ENCODING 91
SWIDTH 310 0
DWIDTH 4 0
BBX 5 11 0 -2
BITMAP
38
20
20
20
60
40
40
40
40
80
E0
ENDCHAR
STARTCHAR backslash
ENCODING 92
SWIDTH 458 0
DWIDTH 5 0
BBX 3 11 2 -2
BITMAP
80
80
40
40
40
40
40
40
40
20
20
ENDCHAR
STARTCHAR bracketright
ENCODING 93
SWIDTH 310 0
DWIDTH 4 0
BBX 4 11 0 -2
BITMAP
30
10
10
20
20
20
20
20
20
40
C0
ENDCHAR
STARTCHAR asciicircum
ENCODING 94
SWIDTH 608 0
DWIDTH 7 0
BBX 7 8 0 1
BITMAP
08
08
14
24
24
44
42
82
ENDCHAR
STARTCHAR underscore
ENCODING 95
SWIDTH 500 0
DWIDTH 6 0
BBX 5 1 1 -1
BITMAP
F8
ENDCHAR
STARTCHAR grave
ENCODING 96
SWIDTH 560 0
DWIDTH 7 0
BBX 2 2 4 7
BITMAP
80
40
ENDCHAR
STARTCHAR a
ENCODING 97
SWIDTH 608 0
DWIDTH 7 0
BBX 6 6 1 0
BITMAP
3C
44
48
88
98
EC
ENDCHAR
STARTCHAR b
ENCODING 98
SWIDTH 596 0
DWIDTH 7 0
BBX 6 9 1 0
BITMAP
60
40
40
5C
64
64
48
88
F0
ENDCHAR
STARTCHAR c
ENCODING 99
SWIDTH 487 0
DWIDTH 6 0
BBX 5 6 1 0
BITMAP
38
48
80
80
88
70
ENDCHAR
STARTCHAR d
ENCODING 100
SWIDTH 608 0
DWIDTH 7 0
BBX 7 9 1 0
BITMAP
06
02
04
3C
44
44
8C
98
EC
ENDCHAR
STARTCHAR e
ENCODING 101
SWIDTH 518 0
DWIDTH 6 0
BBX 5 6 1 0
BITMAP
38
48
88
F0
88
70
ENDCHAR
STARTCHAR f
ENCODING 102
SWIDTH 380 0
DWIDTH 5 0
BBX 6 11 1 -2
BITMAP
1C
24
20
78
20
40
40
40
40
C0
80
ENDCHAR
STARTCHAR g
ENCODING 103
SWIDTH 602 0
DWIDTH 7 0
BBX 7 8 0 -2
BITMAP
1E
22
44
44
DC
74
88
F0
ENDCHAR
STARTCHAR h
ENCODING 104
SWIDTH 631 0
DWIDTH 8 0
BBX 6 9 1 0
BITMAP
60
20
40
5C
74
4C
48
88
8C
ENDCHAR
STARTCHAR i
ENCODING 105
SWIDTH 289 0
DWIDTH 3 0
BBX 3 9 1 0
BITMAP
20
00
00
E0
40
40
40
80
C0
ENDCHAR
STARTCHAR j
ENCODING 106
SWIDTH 343 0
DWIDTH 4 0
BBX 6 11 0 -2
BITMAP
04
00
00
1C
08
08
08
18
10
90
E0
ENDCHAR
STARTCHAR k
ENCODING 107
SWIDTH 560 0
DWIDTH 7 0
BBX 6 9 1 0
BITMAP
60
20
40
44
58
60
70
98
8C
ENDCHAR
STARTCHAR l
ENCODING 108
SWIDTH 289 0
DWIDTH 3 0
BBX 3 9 1 0
BITMAP
60
20
40
40
40
40
40
80
C0
ENDCHAR
STARTCHAR m
ENCODING 109
SWIDTH 944 0
DWIDTH 11 0
BBX 10 6 1 0
BITMAP
DDC0
7740
66C0
4C80
C880
88C0
ENDCHAR
STARTCHAR n
ENCODING 110
SWIDTH 631 0
DWIDTH 8 0
BBX 6 6 1 0
BITMAP
DC
54
6C
48
88
8C
ENDCHAR
STARTCHAR o
ENCODING 111
SWIDTH 560 0
DWIDTH 7 0
BBX 6 6 1 0
BITMAP
38
44
C4
8C
88
F0
ENDCHAR
STARTCHAR p
ENCODING 112
SWIDTH 608 0
DWIDTH 7 0
BBX 7 8 1 -2
BITMAP
6E
72
62
44
44
78
C0
80
ENDCHAR
STARTCHAR q
ENCODING 113
SWIDTH 599 0
DWIDTH 7 0
BBX 6 8 1 -2
BITMAP
3C
44
48
88
98
E8
08
10
ENDCHAR
STARTCHAR r
ENCODING 114
SWIDTH 470 0
DWIDTH 6 0
BBX 5 6 1 0
BITMAP
D8
68
60
40
80
80
ENDCHAR
STARTCHAR s
ENCODING 115
SWIDTH 440 0
DWIDTH 5 0
BBX 5 6 1 0
BITMAP
78
50
60
B0
90
E0
ENDCHAR
STARTCHAR t
ENCODING 116
SWIDTH 355 0
DWIDTH 4 0
BBX 4 9 1 0
BITMAP
20
40
40
F0
40
40
C0
80
E0
ENDCHAR
STARTCHAR u
ENCODING 117
SWIDTH 630 0
DWIDTH 8 0
BBX 6 6 1 0
BITMAP
CC
44
4C
D8
98
EC
ENDCHAR
STARTCHAR v
ENCODING 118
SWIDTH 558 0
DWIDTH 7 0
BBX 7 6 1 0
BITMAP
C6
62
24
28
30
30
ENDCHAR
STARTCHAR w
ENCODING 119
SWIDTH 805 0
DWIDTH 10 0
BBX 9 6 1 0
BITMAP
C480
4C80
2D80
3500
3600
2600
ENDCHAR
STARTCHAR x
ENCODING 120
SWIDTH 510 0
DWIDTH 6 0
BBX 6 6 1 0
BITMAP
E4
28
30
30
D8
8C
ENDCHAR
STARTCHAR y
ENCODING 121
SWIDTH 558 0
DWIDTH 7 0
BBX 8 8 0 -2
BITMAP
63
22
36
14
18
10
20
C0
ENDCHAR
STARTCHAR z
ENCODING 122
SWIDTH 536 0
DWIDTH 6 0
BBX 6 6 1 0
BITMAP
7C
48
10
20
48
F8
ENDCHAR
STARTCHAR braceleft
ENCODING 123
SWIDTH 337 0
DWIDTH 4 0
BBX 4 11 1 -2
BITMAP
30
20
20
20
40
80
40
40
80
80
40
ENDCHAR
STARTCHAR bar
ENCODING 124
SWIDTH 241 0
DWIDTH 3 0
BBX 3 11 1 -2
BITMAP
20
20
20
40
40
40
40
40
80
80
80
ENDCHAR
STARTCHAR braceright
ENCODING 125
SWIDTH 337 0
DWIDTH 4 0
BBX 4 11 1 -2
BITMAP
30
10
10
20
20
10
20
40
40
40
C0
ENDCHAR
STARTCHAR asciitilde
ENCODING 126
SWIDTH 608 0
DWIDTH 7 0
BBX 7 3 1 2
BITMAP
62
92
8C
ENDCHAR
STARTCHAR space
ENCODING 160
SWIDTH 333 0
DWIDTH 3 0
BBX 1 1 0 0
BITMAP
00
ENDCHAR
STARTCHAR exclamdown
ENCODING 161
SWIDTH 265 0
DWIDTH 3 0
BBX 3 8 0 -2
BITMAP
20
00
40
40
40
40
80
80
ENDCHAR
STARTCHAR cent
ENCODING 162
SWIDTH 608 0
DWIDTH 7 0
BBX 6 9 2 0
BITMAP
08
3C
58
50
90
90
A8
F0
40
ENDCHAR
STARTCHAR sterling
ENCODING 163
SWIDTH 608 0
DWIDTH 7 0
BBX 7 9 1 0
BITMAP
0E
12
10
20
78
20
20
40
F8
ENDCHAR
STARTCHAR currency
ENCODING 164
SWIDTH 608 0
DWIDTH 7 0
BBX 8 8 0 0
BITMAP
41
3E
22
22
42
24
5C
82
ENDCHAR
STARTCHAR yen
ENCODING 165
SWIDTH 608 0
DWIDTH 7 0
BBX 8 9 1 0
BITMAP
E3
46
24
38
78
20
F8
20
70
ENDCHAR
STARTCHAR brokenbar
ENCODING 166
SWIDTH 241 0
DWIDTH 3 0
BBX 3 11 1 -2
BITMAP
20
20
20
40
40
00
40
40
80
80
80
ENDCHAR
STARTCHAR section
ENCODING 167
SWIDTH 608 0
DWIDTH 7 0
BBX 6 11 1 -2
BITMAP
1C
24
20
30
5C
44
34
08
04
8C
F8
ENDCHAR
STARTCHAR dieresis
ENCODING 168
SWIDTH 560 0
DWIDTH 7 0
BBX 4 1 3 8
BITMAP
90
ENDCHAR
STARTCHAR copyright
ENCODING 169
SWIDTH 843 0
DWIDTH 10 0
BBX 10 9 1 0
BITMAP
3E00
6180
8E80
9240
A040
A040
9C80
6180
3E00
ENDCHAR
STARTCHAR ordfeminine
ENCODING 170
SWIDTH 458 0
DWIDTH 5 0
BBX 5 5 1 4
BITMAP
78
50
90
B0
D8
ENDCHAR
STARTCHAR guillemotleft
ENCODING 171
SWIDTH 525 0
DWIDTH 6 0
BBX 6 6 1 0
BITMAP
14
68
50
90
50
48
ENDCHAR
STARTCHAR logicalnot
ENCODING 172
SWIDTH 608 0
DWIDTH 7 0
BBX 7 3 1 2
BITMAP
FE
02
02
ENDCHAR
STARTCHAR hyphen
ENCODING 173
SWIDTH 313 0
DWIDTH 4 0
BBX 3 1 1 3
BITMAP
E0
ENDCHAR
STARTCHAR registered
ENCODING 174
SWIDTH 608 0
DWIDTH 7 0
BBX 5 6 2 3
BITMAP
70
E8
C8
E8
E8
70
ENDCHAR
STARTCHAR macron
ENCODING 175
SWIDTH 560 0
DWIDTH 7 0
BBX 3 1 4 8
BITMAP
E0
ENDCHAR
STARTCHAR degree
ENCODING 176
SWIDTH 277 0
DWIDTH 3 0
BBX 2 2 2 7
BITMAP
C0
C0
ENDCHAR
STARTCHAR plusminus
ENCODING 177
SWIDTH 608 0
DWIDTH 7 0
BBX 8 8 0 0
BITMAP
08
08
7F
08
08
18
00
FE
ENDCHAR
STARTCHAR twosuperior
ENCODING 178
SWIDTH 365 0
DWIDTH 4 0
BBX 4 5 -6 4
BITMAP
70
50
60
80
E0
ENDCHAR
STARTCHAR threesuperior
ENCODING 179
SWIDTH 365 0
DWIDTH 4 0
BBX 4 5 -6 4
BITMAP
60
50
60
A0
E0
ENDCHAR
STARTCHAR acute
ENCODING 180
SWIDTH 560 0
DWIDTH 7 0
BBX 3 2 4 7
BITMAP
60
80
ENDCHAR
STARTCHAR mu
ENCODING 181
SWIDTH 663 0
DWIDTH 8 0
BBX 7 8 1 -2
BITMAP
E6
42
44
44
5C
76
80
80
ENDCHAR
STARTCHAR paragraph
ENCODING 182
SWIDTH 608 0
DWIDTH 7 0
BBX 5 11 2 -2
BITMAP
78
E8
E8
F0
70
30
50
50
50
50
50
ENDCHAR
STARTCHAR periodcentered
ENCODING 183
SWIDTH 608 0
DWIDTH 7 0
BBX 1 1 4 3
BITMAP
80
ENDCHAR
STARTCHAR cedilla
ENCODING 184
SWIDTH 560 0
DWIDTH 7 0
BBX 2 2 2 -2
BITMAP
40
C0
ENDCHAR
STARTCHAR onesuperior
ENCODING 185
SWIDTH 365 0
DWIDTH 4 0
BBX 3 5 -6 4
BITMAP
60
20
40
40
E0
ENDCHAR
STARTCHAR ordmasculine
ENCODING 186
SWIDTH 458 0
DWIDTH 5 0
BBX 5 5 1 4
BITMAP
30
58
90
90
E0
ENDCHAR
STARTCHAR guillemotright
ENCODING 187
SWIDTH 525 0
DWIDTH 6 0
BBX 6 6 1 0
BITMAP
48
28
24
28
48
B0
ENDCHAR
STARTCHAR onequarter
ENCODING 188
SWIDTH 766 0
DWIDTH 10 0
BBX 9 9 1 0
BITMAP
6080
2100
4200
4400
E880
1380
2780
4100
8380
ENDCHAR
STARTCHAR onehalf
ENCODING 189
SWIDTH 766 0
DWIDTH 10 0
BBX 9 9 1 0
BITMAP
6080
2100
4200
4400
EB80
1280
2300
4400
8700
ENDCHAR
STARTCHAR threequarters
ENCODING 190
SWIDTH 766 0
DWIDTH 10 0
BBX 9 9 1 0
BITMAP
6080
5100
6200
A400
E880
1380
2780
4100
8380
ENDCHAR
STARTCHAR questiondown
ENCODING 191
SWIDTH 471 0
DWIDTH 6 0
BBX 5 9 0 -3
BITMAP
18
00
10
10
20
40
88
C8
70
ENDCHAR
STARTCHAR Agrave
ENCODING 192
SWIDTH 747 0
DWIDTH 9 0
BBX 9 12 0 0
BITMAP
0400
0200
0000
0600
0600
0A00
1A00
1200
3F00
4100
4100
E380
ENDCHAR
STARTCHAR Aacute
ENCODING 193
SWIDTH 747 0
DWIDTH 9 0
BBX 9 12 0 0
BITMAP
0180
0200
0000
0600
0600
0A00
1A00
1200
3F00
4100
4100
E380
ENDCHAR
STARTCHAR Acircumflex
ENCODING 194
SWIDTH 747 0
DWIDTH 9 0
BBX 9 12 0 0
BITMAP
0600
0900
0000
0600
0600
0A00
1A00
1200
3F00
4100
4100
E380
ENDCHAR
STARTCHAR Atilde
ENCODING 195
SWIDTH 747 0
DWIDTH 9 0
BBX 9 11 0 0
BITMAP
0780
0000
0600
0600
0A00
1A00
1200
3F00
4100
4100
E380
ENDCHAR
STARTCHAR Adieresis
ENCODING 196
SWIDTH 747 0
DWIDTH 9 0
BBX 9 11 0 0
BITMAP
0480
0000
0600
0600
0A00
1A00
1200
3F00
4100
4100
E380
ENDCHAR
STARTCHAR Aring
ENCODING 197
SWIDTH 747 0
DWIDTH 9 0
BBX 9 12 0 0
BITMAP
0300
0300
0000
0600
0600
0A00
1A00
1200
3F00
4100
4100
E380
ENDCHAR
STARTCHAR AE
ENCODING 198
SWIDTH 907 0
DWIDTH 11 0
BBX 12 9 0 0
BITMAP
01F0
0310
0520
0BE0
1240
3E00
4200
4220
CFE0
ENDCHAR
STARTCHAR Ccedilla
ENCODING 199
SWIDTH 714 0
DWIDTH 9 0
BBX 8 11 1 -2
BITMAP
1F
31
41
C0
80
80
80
C2
7C
10
30
ENDCHAR
STARTCHAR Egrave
ENCODING 200
SWIDTH 569 0
DWIDTH 7 0
BBX 8 12 0 0
BITMAP
08
04
00
3F
11
10
32
3C
24
20
62
FE
ENDCHAR
STARTCHAR Eacute
ENCODING 201
SWIDTH 569 0
DWIDTH 7 0
BBX 8 12 0 0
BITMAP
06
08
00
3F
11
10
32
3C
24
20
62
FE
ENDCHAR
STARTCHAR Ecircumflex
ENCODING 202
SWIDTH 569 0
DWIDTH 7 0
BBX 8 12 0 0
BITMAP
0C
12
00
3F
11
10
32
3C
24
20
62
FE
ENDCHAR
STARTCHAR Edieresis
ENCODING 203
SWIDTH 569 0
DWIDTH 7 0
BBX 8 11 0 0
BITMAP
12
00
3F
11
10
32
3C
24
20
62
FE
ENDCHAR
STARTCHAR Igrave
ENCODING 204
SWIDTH 325 0
DWIDTH 4 0
BBX 5 12 0 0
BITMAP
20
10
00
38
30
30
20
20
20
60
60
E0
ENDCHAR
STARTCHAR Iacute
ENCODING 205
SWIDTH 325 0
DWIDTH 4 0
BBX 6 12 0 0
BITMAP
0C
10
00
38
30
30
20
20
20
60
60
E0
ENDCHAR
STARTCHAR Icircumflex
ENCODING 206
SWIDTH 325 0
DWIDTH 4 0
BBX 6 12 0 0
BITMAP
18
24
00
38
30
30
20
20
20
60
60
E0
ENDCHAR
STARTCHAR Idieresis
ENCODING 207
SWIDTH 325 0
DWIDTH 4 0
BBX 6 11 0 0
BITMAP
24
00
38
30
30
20
20
20
60
60
E0
ENDCHAR
STARTCHAR Eth
ENCODING 208
SWIDTH 770 0
DWIDTH 9 0
BBX 9 9 0 0
BITMAP
3F00
3180
3080
2080
7880
2180
2100
6200
FC00
ENDCHAR
STARTCHAR Ntilde
ENCODING 209
SWIDTH 762 0
DWIDTH 9 0
BBX 10 11 0 0
BITMAP
0F00
0000
30C0
1080
3880
2880
2480
2680
4300
4300
E100
ENDCHAR
STARTCHAR Ograve
ENCODING 210
SWIDTH 783 0
DWIDTH 9 0
BBX 8 12 1 0
BITMAP
08
04
00
1E
23
41
41
81
81
82
C6
78
ENDCHAR
STARTCHAR Oacute
ENCODING 211
SWIDTH 783 0
DWIDTH 9 0
BBX 8 12 1 0
BITMAP
06
08
00
1E
23
41
41
81
81
82
C6
78
ENDCHAR
STARTCHAR Ocircumflex
ENCODING 212
SWIDTH 783 0
DWIDTH 9 0
BBX 8 12 1 0
BITMAP
0C
12
00
1E
23
41
41
81
81
82
C6
78
ENDCHAR
STARTCHAR Otilde
ENCODING 213
SWIDTH 783 0
DWIDTH 9 0
BBX 8 11 1 0
BITMAP
0F
00
1E
23
41
41
81
81
82
C6
78
ENDCHAR
STARTCHAR Odieresis
ENCODING 214
SWIDTH 783 0
DWIDTH 9 0
BBX 8 11 1 0
BITMAP
12
00
1E
23
41
41
81
81
82
C6
78
ENDCHAR
STARTCHAR multiply
ENCODING 215
SWIDTH 608 0
DWIDTH 7 0
BBX 8 8 0 0
BITMAP
41
22
34
18
18
2C
44
82
ENDCHAR
STARTCHAR Oslash
ENCODING 216
SWIDTH 783 0
DWIDTH 9 0
BBX 10 9 1 0
BITMAP
0F40
1180
2180
6680
4880
5980
6100
6200
BC00
ENDCHAR
STARTCHAR Ugrave
ENCODING 217
SWIDTH 727 0
DWIDTH 9 0
BBX 9 12 2 0
BITMAP
0800
0400
0000
F380
4100
4200
4200
C200
8200
8200
C400
7800
ENDCHAR
STARTCHAR Uacute
ENCODING 218
SWIDTH 727 0
DWIDTH 9 0
BBX 9 12 2 0
BITMAP
0600
0800
0000
F380
4100
4200
4200
C200
8200
8200
C400
7800
ENDCHAR
STARTCHAR Ucircumflex
ENCODING 219
SWIDTH 727 0
DWIDTH 9 0
BBX 9 12 2 0
BITMAP
0C00
1200
0000
F380
4100
4200
4200
C200
8200
8200
C400
7800
ENDCHAR
STARTCHAR Udieresis
ENCODING 220
SWIDTH 727 0
DWIDTH 9 0
BBX 9 11 2 0
BITMAP
1200
0000
F380
4100
4200
4200
C200
8200
8200
C400
7800
ENDCHAR
STARTCHAR Yacute
ENCODING 221
SWIDTH 663 0
DWIDTH 8 0
BBX 8 12 2 0
BITMAP
0C
10
00
E3
42
64
28
30
30
20
20
70
ENDCHAR
STARTCHAR Thorn
ENCODING 222
SWIDTH 579 0
DWIDTH 7 0
BBX 7 9 0 0
BITMAP
38
30
3E
22
22
24
78
40
E0
ENDCHAR
STARTCHAR germandbls
ENCODING 223
SWIDTH 603 0
DWIDTH 7 0
BBX 6 11 1 -2
BITMAP
1C
24
2C
30
78
4C
44
54
5C
C0
80
ENDCHAR
STARTCHAR agrave
ENCODING 224
SWIDTH 608 0
DWIDTH 7 0
BBX 6 9 1 0
BITMAP
10
08
00
3C
44
48
88
98
EC
ENDCHAR
STARTCHAR aacute
ENCODING 225
SWIDTH 608 0
DWIDTH 7 0
BBX 6 9 1 0
BITMAP
0C
10
00
3C
44
48
88
98
EC
ENDCHAR
STARTCHAR acircumflex
ENCODING 226
SWIDTH 608 0
DWIDTH 7 0
BBX 6 9 1 0
BITMAP
18
24
00
3C
44
48
88
98
EC
ENDCHAR
STARTCHAR atilde
ENCODING 227
SWIDTH 608 0
DWIDTH 7 0
BBX 7 8 1 0
BITMAP
1E
00
3C
44
48
88
98
EC
ENDCHAR
STARTCHAR adieresis
ENCODING 228
SWIDTH 608 0
DWIDTH 7 0
BBX 6 8 1 0
BITMAP
24
00
3C
44
48
88
98
EC
ENDCHAR
STARTCHAR aring
ENCODING 229
SWIDTH 608 0
DWIDTH 7 0
BBX 6 9 1 0
BITMAP
18
18
00
3C
44
48
88
98
EC
ENDCHAR
STARTCHAR ae
ENCODING 230
SWIDTH 881 0
DWIDTH 11 0
BBX 10 6 1 0
BITMAP
3F80
4480
4C80
9F00
9C40
E780
ENDCHAR
STARTCHAR ccedilla
ENCODING 231
SWIDTH 487 0
DWIDTH 6 0
BBX 5 8 1 -2
BITMAP
38
48
80
80
88
70
20
60
ENDCHAR
STARTCHAR egrave
ENCODING 232
SWIDTH 518 0
DWIDTH 6 0
BBX 5 9 1 0
BITMAP
10
08
00
38
48
88
F0
88
70
ENDCHAR
STARTCHAR eacute
ENCODING 233
SWIDTH 518 0
DWIDTH 6 0
BBX 6 9 1 0
BITMAP
0C
10
00
38
48
88
F0
88
70
ENDCHAR
STARTCHAR ecircumflex
ENCODING 234
SWIDTH 518 0
DWIDTH 6 0
BBX 6 9 1 0
BITMAP
18
24
00
38
48
88
F0
88
70
ENDCHAR
STARTCHAR edieresis
ENCODING 235
SWIDTH 518 0
DWIDTH 6 0
BBX 6 8 1 0
BITMAP
24
00
38
48
88
F0
88
70
ENDCHAR
STARTCHAR igrave
ENCODING 236
SWIDTH 289 0
DWIDTH 3 0
BBX 3 9 1 0
BITMAP
40
20
00
C0
40
40
40
80
C0
ENDCHAR
STARTCHAR iacute
ENCODING 237
SWIDTH 289 0
DWIDTH 3 0
BBX 4 9 1 0
BITMAP
30
40
00
C0
40
40
40
80
C0
ENDCHAR
STARTCHAR icircumflex
ENCODING 238
SWIDTH 289 0
DWIDTH 3 0
BBX 4 9 1 0
BITMAP
60
90
00
C0
40
40
40
80
C0
ENDCHAR
STARTCHAR idieresis
ENCODING 239
SWIDTH 289 0
DWIDTH 3 0
BBX 4 8 1 0
BITMAP
90
00
C0
40
40
40
80
C0
ENDCHAR
STARTCHAR eth
ENCODING 240
SWIDTH 562 0
DWIDTH 7 0
BBX 6 9 1 0
BITMAP
7C
18
3C
3C
44
84
8C
88
70
ENDCHAR
STARTCHAR ntilde
ENCODING 241
SWIDTH 631 0
DWIDTH 8 0
BBX 6 8 1 0
BITMAP
3C
00
DC
54
6C
48
88
8C
ENDCHAR
STARTCHAR ograve
ENCODING 242
SWIDTH 560 0
DWIDTH 7 0
BBX 6 9 1 0
BITMAP
10
08
00
38
44
C4
8C
88
F0
ENDCHAR
STARTCHAR oacute
ENCODING 243
SWIDTH 560 0
DWIDTH 7 0
BBX 6 9 1 0
BITMAP
0C
10
00
38
44
C4
8C
88
F0
ENDCHAR
STARTCHAR ocircumflex
ENCODING 244
SWIDTH 560 0
DWIDTH 7 0
BBX 6 9 1 0
BITMAP
18
24
00
38
44
C4
8C
88
F0
ENDCHAR
STARTCHAR otilde
ENCODING 245
SWIDTH 560 0
DWIDTH 7 0
BBX 6 8 1 0
BITMAP
3C
00
38
44
C4
8C
88
F0
ENDCHAR
STARTCHAR odieresis
ENCODING 246
SWIDTH 560 0
DWIDTH 7 0
BBX 6 8 1 0
BITMAP
24
00
38
44
C4
8C
88
F0
ENDCHAR
STARTCHAR divide
ENCODING 247
SWIDTH 608 0
DWIDTH 7 0
BBX 7 6 1 0
BITMAP
18
00
FE
00
00
30
ENDCHAR
STARTCHAR oslash
ENCODING 248
SWIDTH 560 0
DWIDTH 7 0
BBX 7 6 1 0
BITMAP
1E
24
5C
64
4C
F0
ENDCHAR
STARTCHAR ugrave
ENCODING 249
SWIDTH 630 0
DWIDTH 8 0
BBX 6 9 1 0
BITMAP
10
08
00
CC
44
4C
D8
98
EC
ENDCHAR
STARTCHAR uacute
ENCODING 250
SWIDTH 630 0
DWIDTH 8 0
BBX 6 9 1 0
BITMAP
0C
10
00
CC
44
4C
D8
98
EC
ENDCHAR
STARTCHAR ucircumflex
ENCODING 251
SWIDTH 630 0
DWIDTH 8 0
BBX 6 9 1 0
BITMAP
18
24
00
CC
44
4C
D8
98
EC
ENDCHAR
STARTCHAR udieresis
ENCODING 252
SWIDTH 630 0
DWIDTH 8 0
BBX 6 8 1 0
BITMAP
24
00
CC
44
4C
D8
98
EC
ENDCHAR
STARTCHAR yacute
ENCODING 253
SWIDTH 558 0
DWIDTH 7 0
BBX 8 11 0 -2
BITMAP
06
08
00
63
22
36
14
18
10
20
C0
ENDCHAR
STARTCHAR thorn
ENCODING 254
SWIDTH 608 0
DWIDTH 7 0
BBX 7 11 1 -2
BITMAP
60
20
20
2E
72
62
44
44
78
C0
80
ENDCHAR
STARTCHAR ydieresis
ENCODING 255
SWIDTH 558 0
DWIDTH 7 0
BBX 8 10 0 -2
BITMAP
12
00
63
22
36
14
18
10
20
C0
ENDCHAR
ENDFONT
