STARTFONT 2.1
COMMENT AUTOMATICALLY GENERATED FILE. DO NOT EDIT!
COMMENT Generated with 'ucs2any.pl lubR19.bdf ../../../fonts/util/map-ISO8859-1 ISO8859-1'
COMMENT from an ISO10646-1 encoded source BDF font.
COMMENT ucs2any.pl by Markus Kuhn <mkuhn@acm.org>, 2000.
COMMENT $Xorg: $
COMMENT ISO10646-1 extension by Markus Kuhn <mkuhn@acm.org>, 2001-03-20
COMMENT  (c) Copyright Bigelow & Holmes 1986, 1985. Lucida is a registered
COMMENT  trademark of Bigelow & Holmes. See LEGAL NOTICE file for terms 
COMMENT  of the license. 
FONT -B&H-LucidaBright-Medium-R-Normal--19-190-75-75-P-109-ISO8859-1
SIZE 19 72 72
FONTBOUNDINGBOX 30 22 -12 -4
STARTPROPERTIES 22
COMMENT Begin LogicalFontDescription
FONTNAME_REGISTRY ""
FOUNDRY "B&H"
FAMILY_NAME "LucidaBright"
WEIGHT_NAME "Medium"
SLANT "R"
SETWIDTH_NAME "Normal"
ADD_STYLE_NAME ""
PIXEL_SIZE 19
POINT_SIZE 190
RESOLUTION_X 100
RESOLUTION_Y 100
SPACING "P"
AVERAGE_WIDTH "109"
CHARSET_REGISTRY "ISO8859"
CHARSET_ENCODING "1"
COMMENT END LogicalFontDescription
COPYRIGHT "Copyright Bigelow & Holmes 1986, 1985."
FONT_ASCENT 17
FONT_DESCENT 5
DEFAULT_CHAR 0
FACE_NAME "Lucida Bright"
X_HEIGHT 10
CAP_HEIGHT 14
ENDPROPERTIES
CHARS 192
STARTCHAR defaultchar
ENCODING 0
SWIDTH 771 0
DWIDTH 15 0
BBX 13 13 0 0
BITMAP
AAA8
0000
8008
0000
8008
0000
8008
0000
8008
0000
8008
0000
AAA8
ENDCHAR
STARTCHAR space
ENCODING 32
SWIDTH 333 0
DWIDTH 6 0
BBX 1 1 0 0
BITMAP
00
ENDCHAR
STARTCHAR exclam
ENCODING 33
SWIDTH 265 0
DWIDTH 5 0
BBX 2 14 2 0
BITMAP
C0
C0
C0
C0
C0
C0
C0
80
80
80
00
00
C0
C0
ENDCHAR
STARTCHAR quotedbl
ENCODING 34
SWIDTH 386 0
DWIDTH 7 0
BBX 6 4 1 10
BITMAP
CC
CC
48
48
ENDCHAR
STARTCHAR numbersign
ENCODING 35
SWIDTH 608 0
DWIDTH 12 0
BBX 12 14 0 0
BITMAP
0440
0440
0480
0880
7FF0
0880
0900
1100
FFE0
1100
1200
2200
2200
2200
ENDCHAR
STARTCHAR dollar
ENCODING 36
SWIDTH 608 0
DWIDTH 12 0
BBX 7 17 2 -2
BITMAP
10
3E
D2
D2
D0
D0
F0
78
1C
1E
16
16
96
9C
F8
10
10
ENDCHAR
STARTCHAR percent
ENCODING 37
SWIDTH 675 0
DWIDTH 13 0
BBX 13 14 0 0
BITMAP
7818
C430
8420
8440
8480
8500
7B00
06F0
0588
0908
1108
2108
6108
C0F0
ENDCHAR
STARTCHAR ampersand
ENCODING 38
SWIDTH 690 0
DWIDTH 13 0
BBX 13 14 0 0
BITMAP
0F80
1CC0
18C0
18C0
1880
0D00
3E00
6738
C310
C390
C1D0
E0E0
70E0
3F78
ENDCHAR
STARTCHAR quotesingle
ENCODING 39
SWIDTH 241 0
DWIDTH 5 0
BBX 3 5 1 9
BITMAP
E0
E0
E0
40
40
ENDCHAR
STARTCHAR parenleft
ENCODING 40
SWIDTH 316 0
DWIDTH 6 0
BBX 4 18 1 -4
BITMAP
10
20
20
60
40
C0
C0
C0
C0
C0
C0
C0
C0
40
60
20
20
10
ENDCHAR
STARTCHAR parenright
ENCODING 41
SWIDTH 316 0
DWIDTH 6 0
BBX 4 18 1 -4
BITMAP
80
40
40
60
20
30
30
30
30
30
30
30
30
20
60
40
40
80
ENDCHAR
STARTCHAR asterisk
ENCODING 42
SWIDTH 470 0
DWIDTH 9 0
BBX 7 7 1 7
BITMAP
10
10
D6
28
28
28
44
ENDCHAR
STARTCHAR plus
ENCODING 43
SWIDTH 608 0
DWIDTH 12 0
BBX 11 12 0 0
BITMAP
0400
0400
0400
0400
0400
0400
FFE0
0400
0400
0400
0400
0400
ENDCHAR
STARTCHAR comma
ENCODING 44
SWIDTH 265 0
DWIDTH 5 0
BBX 2 7 2 -4
BITMAP
C0
C0
C0
40
40
40
80
ENDCHAR
STARTCHAR hyphen
ENCODING 45
SWIDTH 325 0
DWIDTH 6 0
BBX 4 1 1 6
BITMAP
F0
ENDCHAR
STARTCHAR period
ENCODING 46
SWIDTH 265 0
DWIDTH 5 0
BBX 2 2 2 0
BITMAP
C0
C0
ENDCHAR
STARTCHAR slash
ENCODING 47
SWIDTH 512 0
DWIDTH 10 0
BBX 10 18 0 -4
BITMAP
0040
0080
0080
0100
0100
0200
0200
0400
0400
0800
0800
1000
1000
2000
2000
4000
4000
8000
ENDCHAR
STARTCHAR zero
ENCODING 48
SWIDTH 608 0
DWIDTH 12 0
BBX 10 14 1 0
BITMAP
1E00
2100
6180
4080
C0C0
C0C0
C0C0
C0C0
C0C0
C0C0
4080
6180
2100
1E00
ENDCHAR
STARTCHAR one
ENCODING 49
SWIDTH 608 0
DWIDTH 12 0
BBX 8 14 2 0
BITMAP
F8
18
18
18
18
18
18
18
18
18
18
18
18
FF
ENDCHAR
STARTCHAR two
ENCODING 50
SWIDTH 608 0
DWIDTH 12 0
BBX 8 14 2 0
BITMAP
7C
C6
83
83
03
03
06
0C
10
20
40
40
FF
FF
ENDCHAR
STARTCHAR three
ENCODING 51
SWIDTH 608 0
DWIDTH 12 0
BBX 8 14 2 0
BITMAP
FC
86
83
03
03
06
78
06
03
03
03
83
C6
FC
ENDCHAR
STARTCHAR four
ENCODING 52
SWIDTH 608 0
DWIDTH 12 0
BBX 10 14 0 0
BITMAP
0300
0700
0700
0B00
1300
3300
2300
4300
C300
FFC0
0300
0300
0300
0FC0
ENDCHAR
STARTCHAR five
ENCODING 53
SWIDTH 608 0
DWIDTH 12 0
BBX 7 14 2 0
BITMAP
FE
FE
80
80
80
F0
1C
06
06
06
06
86
8C
F8
ENDCHAR
STARTCHAR six
ENCODING 54
SWIDTH 608 0
DWIDTH 12 0
BBX 9 14 1 0
BITMAP
1F00
2100
6100
4000
C000
DE00
E300
C180
C180
C180
C180
6180
2300
1E00
ENDCHAR
STARTCHAR seven
ENCODING 55
SWIDTH 608 0
DWIDTH 12 0
BBX 9 14 2 0
BITMAP
FF80
FF80
0100
0300
0200
0400
0C00
0800
1800
3000
3000
2000
6000
6000
ENDCHAR
STARTCHAR eight
ENCODING 56
SWIDTH 608 0
DWIDTH 12 0
BBX 9 14 1 0
BITMAP
3E00
6380
C180
C180
E180
7200
1C00
6F00
4300
C180
C180
C180
6300
3E00
ENDCHAR
STARTCHAR nine
ENCODING 57
SWIDTH 608 0
DWIDTH 12 0
BBX 9 14 1 0
BITMAP
3C00
6300
C300
C180
C180
C180
C180
6380
3D80
0180
0100
4300
4200
7C00
ENDCHAR
STARTCHAR colon
ENCODING 58
SWIDTH 265 0
DWIDTH 5 0
BBX 2 10 2 0
BITMAP
C0
C0
00
00
00
00
00
00
C0
C0
ENDCHAR
STARTCHAR semicolon
ENCODING 59
SWIDTH 265 0
DWIDTH 5 0
BBX 2 14 2 -4
BITMAP
C0
C0
00
00
00
00
00
00
C0
C0
40
40
40
80
ENDCHAR
STARTCHAR less
ENCODING 60
SWIDTH 608 0
DWIDTH 12 0
BBX 11 12 0 0
BITMAP
0020
00C0
0180
0600
1800
E000
6000
1800
0600
0180
00C0
0020
ENDCHAR
STARTCHAR equal
ENCODING 61
SWIDTH 608 0
DWIDTH 12 0
BBX 11 5 0 3
BITMAP
FFE0
0000
0000
0000
FFE0
ENDCHAR
STARTCHAR greater
ENCODING 62
SWIDTH 608 0
DWIDTH 12 0
BBX 11 12 0 0
BITMAP
8000
6000
3000
0C00
0300
00C0
00E0
0300
0C00
3000
6000
8000
ENDCHAR
STARTCHAR question
ENCODING 63
SWIDTH 480 0
DWIDTH 9 0
BBX 7 14 1 0
BITMAP
78
CE
86
86
06
0C
08
10
30
30
00
00
30
30
ENDCHAR
STARTCHAR at
ENCODING 64
SWIDTH 873 0
DWIDTH 17 0
BBX 15 14 1 0
BITMAP
03F0
0C18
1004
23E6
4442
4442
8842
88C2
88C4
894C
C670
4000
3080
1F00
ENDCHAR
STARTCHAR A
ENCODING 65
SWIDTH 744 0
DWIDTH 14 0
BBX 14 14 0 0
BITMAP
0200
0300
0300
0580
0580
0980
08C0
10C0
1060
1FE0
2030
2030
4038
F07C
ENDCHAR
STARTCHAR B
ENCODING 66
SWIDTH 609 0
DWIDTH 12 0
BBX 10 14 0 0
BITMAP
FF00
3380
3180
3180
3180
3200
3F00
3380
31C0
30C0
30C0
30C0
3180
FF00
ENDCHAR
STARTCHAR C
ENCODING 67
SWIDTH 695 0
DWIDTH 13 0
BBX 11 14 1 0
BITMAP
0FC0
3860
6020
6020
C000
C000
C000
C000
C000
C000
6000
6000
3820
0FC0
ENDCHAR
STARTCHAR D
ENCODING 68
SWIDTH 768 0
DWIDTH 15 0
BBX 13 14 0 0
BITMAP
FF80
3060
3030
3030
3018
3018
3018
3018
3018
3018
3030
3030
3060
FF80
ENDCHAR
STARTCHAR E
ENCODING 69
SWIDTH 566 0
DWIDTH 11 0
BBX 11 14 0 0
BITMAP
FFC0
3040
3040
3000
3000
3080
3F80
3080
3000
3000
3000
3020
3020
FFE0
ENDCHAR
STARTCHAR F
ENCODING 70
SWIDTH 548 0
DWIDTH 10 0
BBX 9 14 1 0
BITMAP
FF80
3080
3080
3000
3000
3100
3F00
3100
3000
3000
3000
3000
3000
F800
ENDCHAR
STARTCHAR G
ENCODING 71
SWIDTH 732 0
DWIDTH 14 0
BBX 13 14 1 0
BITMAP
0FC0
3860
6020
6020
C000
C000
C000
C000
C1F8
C060
6060
6060
3860
0FC0
ENDCHAR
STARTCHAR H
ENCODING 72
SWIDTH 771 0
DWIDTH 15 0
BBX 14 14 0 0
BITMAP
FCFC
3030
3030
3030
3030
3030
3FF0
3030
3030
3030
3030
3030
3030
FCFC
ENDCHAR
STARTCHAR I
ENCODING 73
SWIDTH 325 0
DWIDTH 6 0
BBX 6 14 0 0
BITMAP
FC
30
30
30
30
30
30
30
30
30
30
30
30
FC
ENDCHAR
STARTCHAR J
ENCODING 74
SWIDTH 422 0
DWIDTH 8 0
BBX 8 18 0 -4
BITMAP
3F
0C
0C
0C
0C
0C
0C
0C
0C
0C
0C
0C
0C
0C
0C
8C
98
F0
ENDCHAR
STARTCHAR K
ENCODING 75
SWIDTH 708 0
DWIDTH 13 0
BBX 13 14 0 0
BITMAP
FCF0
3040
3080
3100
3200
3400
3C00
3E00
3700
3380
31C0
30C0
3070
F8F8
ENDCHAR
STARTCHAR L
ENCODING 76
SWIDTH 557 0
DWIDTH 11 0
BBX 10 14 0 0
BITMAP
FC00
3000
3000
3000
3000
3000
3000
3000
3000
3000
3000
3040
3040
FFC0
ENDCHAR
STARTCHAR M
ENCODING 77
SWIDTH 860 0
DWIDTH 16 0
BBX 16 14 0 0
BITMAP
F00F
380C
381C
3C1C
2C2C
2C2C
266C
264C
274C
238C
238C
210C
210C
F83F
ENDCHAR
STARTCHAR N
ENCODING 78
SWIDTH 751 0
DWIDTH 14 0
BBX 14 14 0 0
BITMAP
F07C
3010
3810
3C10
2E10
2610
2310
2390
21D0
20D0
2070
2070
2030
F810
ENDCHAR
STARTCHAR O
ENCODING 79
SWIDTH 777 0
DWIDTH 15 0
BBX 13 14 1 0
BITMAP
0F80
3060
6030
6030
C018
C018
C018
C018
C018
C018
6030
6030
3060
0F80
ENDCHAR
STARTCHAR P
ENCODING 80
SWIDTH 573 0
DWIDTH 11 0
BBX 10 14 0 0
BITMAP
FF00
3180
30C0
30C0
30C0
30C0
3380
3F00
3000
3000
3000
3000
3000
FC00
ENDCHAR
STARTCHAR Q
ENCODING 81
SWIDTH 778 0
DWIDTH 15 0
BBX 16 18 1 -4
BITMAP
0F80
3060
6030
6030
C018
C018
C018
C018
C018
C018
6030
6030
3060
0FC0
00C0
0070
001E
000F
ENDCHAR
STARTCHAR R
ENCODING 82
SWIDTH 679 0
DWIDTH 13 0
BBX 13 14 0 0
BITMAP
FF00
3180
30C0
30C0
30C0
3080
3100
3E00
3300
3180
31C0
30C0
30E0
F878
ENDCHAR
STARTCHAR S
ENCODING 83
SWIDTH 542 0
DWIDTH 10 0
BBX 8 14 1 0
BITMAP
3E
62
C2
C0
C0
70
38
1E
07
03
83
83
C6
7C
ENDCHAR
STARTCHAR T
ENCODING 84
SWIDTH 663 0
DWIDTH 13 0
BBX 12 14 0 0
BITMAP
FFF0
8610
0600
0600
0600
0600
0600
0600
0600
0600
0600
0600
0600
1F80
ENDCHAR
STARTCHAR U
ENCODING 85
SWIDTH 719 0
DWIDTH 14 0
BBX 14 14 0 0
BITMAP
FC7C
3010
3010
3010
3010
3010
3010
3010
3010
3010
3010
3010
1860
0FC0
ENDCHAR
STARTCHAR V
ENCODING 86
SWIDTH 699 0
DWIDTH 13 0
BBX 13 14 0 0
BITMAP
F838
6010
3010
3020
3820
1840
1840
0C40
0C80
0E80
0780
0700
0300
0200
ENDCHAR
STARTCHAR W
ENCODING 87
SWIDTH 925 0
DWIDTH 18 0
BBX 18 14 0 0
BITMAP
F843C0
60C080
30C100
30E100
31E100
316200
193200
193200
1A3400
0E1C00
0E1C00
0C1C00
0C0800
040800
ENDCHAR
STARTCHAR X
ENCODING 88
SWIDTH 657 0
DWIDTH 12 0
BBX 12 14 0 0
BITMAP
F8F0
7060
3840
1880
1D80
0D00
0600
0700
0B00
1180
31C0
20C0
40E0
F1F0
ENDCHAR
STARTCHAR Y
ENCODING 89
SWIDTH 678 0
DWIDTH 13 0
BBX 13 14 0 0
BITMAP
F878
6030
3020
3840
18C0
0C80
0F00
0700
0600
0600
0600
0600
0600
1F80
ENDCHAR
STARTCHAR Z
ENCODING 90
SWIDTH 633 0
DWIDTH 12 0
BBX 9 14 1 0
BITMAP
FF80
8380
8300
0700
0600
0C00
0C00
1800
3800
3000
7000
6080
C080
FF80
ENDCHAR
STARTCHAR bracketleft
ENCODING 91
SWIDTH 316 0
DWIDTH 6 0
BBX 4 18 1 -4
BITMAP
F0
C0
C0
C0
C0
C0
C0
C0
C0
C0
C0
C0
C0
C0
C0
C0
C0
F0
ENDCHAR
STARTCHAR backslash
ENCODING 92
SWIDTH 512 0
DWIDTH 10 0
BBX 10 18 0 -4
BITMAP
8000
4000
4000
2000
2000
1000
1000
0800
0800
0400
0400
0200
0200
0100
0100
0080
0080
0040
ENDCHAR
STARTCHAR bracketright
ENCODING 93
SWIDTH 316 0
DWIDTH 6 0
BBX 4 18 1 -4
BITMAP
F0
30
30
30
30
30
30
30
30
30
30
30
30
30
30
30
30
F0
ENDCHAR
STARTCHAR asciicircum
ENCODING 94
SWIDTH 608 0
DWIDTH 12 0
BBX 11 12 0 2
BITMAP
0400
0400
0E00
0A00
1B00
1100
1100
2080
2080
4040
4040
8020
ENDCHAR
STARTCHAR underscore
ENCODING 95
SWIDTH 500 0
DWIDTH 9 0
BBX 8 1 1 -2
BITMAP
FF
ENDCHAR
STARTCHAR grave
ENCODING 96
SWIDTH 602 0
DWIDTH 11 0
BBX 4 3 3 11
BITMAP
C0
20
10
ENDCHAR
STARTCHAR a
ENCODING 97
SWIDTH 543 0
DWIDTH 10 0
BBX 9 10 1 0
BITMAP
3E00
4700
0300
0300
3F00
6300
C300
C300
E300
7D80
ENDCHAR
STARTCHAR b
ENCODING 98
SWIDTH 611 0
DWIDTH 12 0
BBX 11 14 0 0
BITMAP
F000
3000
3000
3000
3780
38C0
3060
3060
3060
3060
3060
3040
38C0
2780
ENDCHAR
STARTCHAR c
ENCODING 99
SWIDTH 509 0
DWIDTH 10 0
BBX 8 10 1 0
BITMAP
1F
71
61
C0
C0
C0
C0
60
70
1F
ENDCHAR
STARTCHAR d
ENCODING 100
SWIDTH 642 0
DWIDTH 12 0
BBX 11 14 1 0
BITMAP
0780
0180
0180
0180
3D80
6380
4180
C180
C180
C180
C180
C180
6380
3DE0
ENDCHAR
STARTCHAR e
ENCODING 101
SWIDTH 530 0
DWIDTH 10 0
BBX 8 10 1 0
BITMAP
3C
62
C3
C3
FF
C0
C0
60
71
1E
ENDCHAR
STARTCHAR f
ENCODING 102
SWIDTH 404 0
DWIDTH 8 0
BBX 8 15 0 0
BITMAP
1F
31
31
30
30
FE
30
30
30
30
30
30
30
30
FC
ENDCHAR
STARTCHAR g
ENCODING 103
SWIDTH 571 0
DWIDTH 11 0
BBX 11 14 0 -4
BITMAP
1FE0
3300
6180
6180
6180
2180
1300
3E00
6000
3F80
40C0
C0C0
E180
3F00
ENDCHAR
STARTCHAR h
ENCODING 104
SWIDTH 633 0
DWIDTH 12 0
BBX 12 14 0 0
BITMAP
F000
3000
3000
3000
3780
38C0
30C0
30C0
30C0
30C0
30C0
30C0
30C0
FFF0
ENDCHAR
STARTCHAR i
ENCODING 105
SWIDTH 307 0
DWIDTH 6 0
BBX 6 14 0 0
BITMAP
30
30
00
00
F0
30
30
30
30
30
30
30
30
FC
ENDCHAR
STARTCHAR j
ENCODING 106
SWIDTH 346 0
DWIDTH 7 0
BBX 5 18 0 -4
BITMAP
18
18
00
00
38
18
18
18
18
18
18
18
18
18
18
98
98
F0
ENDCHAR
STARTCHAR k
ENCODING 107
SWIDTH 599 0
DWIDTH 11 0
BBX 11 14 0 0
BITMAP
F000
3000
3000
3000
31C0
3180
3300
3600
3C00
3600
3700
3380
31C0
F8E0
ENDCHAR
STARTCHAR l
ENCODING 108
SWIDTH 313 0
DWIDTH 6 0
BBX 6 14 0 0
BITMAP
F0
30
30
30
30
30
30
30
30
30
30
30
30
FC
ENDCHAR
STARTCHAR m
ENCODING 109
SWIDTH 946 0
DWIDTH 18 0
BBX 18 10 0 0
BITMAP
F79E00
38E300
30C300
30C300
30C300
30C300
30C300
30C300
30C300
FFFFC0
ENDCHAR
STARTCHAR n
ENCODING 110
SWIDTH 633 0
DWIDTH 12 0
BBX 12 10 0 0
BITMAP
F780
38C0
30C0
30C0
30C0
30C0
30C0
30C0
30C0
FFF0
ENDCHAR
STARTCHAR o
ENCODING 111
SWIDTH 602 0
DWIDTH 11 0
BBX 10 10 1 0
BITMAP
1E00
6180
6180
C0C0
C0C0
C0C0
C0C0
6180
6180
1E00
ENDCHAR
STARTCHAR p
ENCODING 112
SWIDTH 642 0
DWIDTH 12 0
BBX 11 14 0 -4
BITMAP
F780
38C0
3060
3060
3060
3060
3060
3040
38C0
3780
3000
3000
3000
FC00
ENDCHAR
STARTCHAR q
ENCODING 113
SWIDTH 617 0
DWIDTH 12 0
BBX 11 14 1 -4
BITMAP
3D80
6380
4180
C180
C180
C180
C180
C180
6380
3D80
0180
0180
0180
07E0
ENDCHAR
STARTCHAR r
ENCODING 114
SWIDTH 440 0
DWIDTH 8 0
BBX 8 10 0 0
BITMAP
F7
39
31
30
30
30
30
30
30
FC
ENDCHAR
STARTCHAR s
ENCODING 115
SWIDTH 504 0
DWIDTH 10 0
BBX 7 10 1 0
BITMAP
7C
C4
C4
E0
78
3E
86
86
CE
7C
ENDCHAR
STARTCHAR t
ENCODING 116
SWIDTH 392 0
DWIDTH 7 0
BBX 7 13 0 0
BITMAP
30
30
30
FE
30
30
30
30
30
30
30
30
1E
ENDCHAR
STARTCHAR u
ENCODING 117
SWIDTH 633 0
DWIDTH 12 0
BBX 12 10 0 0
BITMAP
F3C0
30C0
30C0
30C0
30C0
30C0
30C0
30C0
31C0
1EF0
ENDCHAR
STARTCHAR v
ENCODING 118
SWIDTH 545 0
DWIDTH 10 0
BBX 10 10 0 0
BITMAP
F1C0
6080
6080
3100
3100
1B00
1A00
1E00
0C00
0C00
ENDCHAR
STARTCHAR w
ENCODING 119
SWIDTH 795 0
DWIDTH 15 0
BBX 15 10 0 0
BITMAP
F18E
6184
6184
72CC
32C8
34C8
3C70
1C70
1830
0820
ENDCHAR
STARTCHAR x
ENCODING 120
SWIDTH 557 0
DWIDTH 11 0
BBX 11 10 0 0
BITMAP
F9E0
70C0
3980
1900
0E00
0E00
1700
2380
41C0
E3E0
ENDCHAR
STARTCHAR y
ENCODING 121
SWIDTH 551 0
DWIDTH 10 0
BBX 10 14 0 -4
BITMAP
F1C0
6080
6080
3180
3100
1900
1A00
1E00
0C00
0C00
0800
0800
1800
7000
ENDCHAR
STARTCHAR z
ENCODING 122
SWIDTH 595 0
DWIDTH 11 0
BBX 8 10 2 0
BITMAP
FF
86
8E
0C
18
38
30
61
E1
FF
ENDCHAR
STARTCHAR braceleft
ENCODING 123
SWIDTH 343 0
DWIDTH 7 0
BBX 5 18 1 -4
BITMAP
18
20
20
20
20
20
20
20
20
C0
20
20
20
20
20
20
20
18
ENDCHAR
STARTCHAR bar
ENCODING 124
SWIDTH 241 0
DWIDTH 5 0
BBX 1 18 2 -4
BITMAP
80
80
80
80
80
80
80
80
80
80
80
80
80
80
80
80
80
80
ENDCHAR
STARTCHAR braceright
ENCODING 125
SWIDTH 343 0
DWIDTH 7 0
BBX 5 18 1 -4
BITMAP
C0
20
20
20
20
20
20
20
20
18
20
20
20
20
20
20
20
C0
ENDCHAR
STARTCHAR asciitilde
ENCODING 126
SWIDTH 608 0
DWIDTH 12 0
BBX 11 5 0 3
BITMAP
7020
8820
8420
8220
81C0
ENDCHAR
STARTCHAR space
ENCODING 160
SWIDTH 333 0
DWIDTH 6 0
BBX 1 1 0 0
BITMAP
00
ENDCHAR
STARTCHAR exclamdown
ENCODING 161
SWIDTH 265 0
DWIDTH 5 0
BBX 2 14 2 -4
BITMAP
C0
C0
00
00
80
80
80
C0
C0
C0
C0
C0
C0
C0
ENDCHAR
STARTCHAR cent
ENCODING 162
SWIDTH 608 0
DWIDTH 12 0
BBX 8 14 1 0
BITMAP
08
08
1F
29
49
C8
C8
C8
C8
C8
69
3F
08
08
ENDCHAR
STARTCHAR sterling
ENCODING 163
SWIDTH 608 0
DWIDTH 12 0
BBX 8 14 2 0
BITMAP
0F
11
31
30
30
30
30
FC
30
30
30
20
40
FF
ENDCHAR
STARTCHAR currency
ENCODING 164
SWIDTH 608 0
DWIDTH 12 0
BBX 10 12 1 1
BITMAP
8040
CCC0
5280
2100
4080
4080
4080
4080
2100
3300
5E80
8040
ENDCHAR
STARTCHAR yen
ENCODING 165
SWIDTH 608 0
DWIDTH 12 0
BBX 12 14 0 0
BITMAP
F8F0
7060
3840
1880
0D00
0E00
3FC0
0600
0600
3FC0
0600
0600
0600
1F80
ENDCHAR
STARTCHAR brokenbar
ENCODING 166
SWIDTH 241 0
DWIDTH 5 0
BBX 1 18 2 -4
BITMAP
80
80
80
80
80
80
80
80
00
00
80
80
80
80
80
80
80
80
ENDCHAR
STARTCHAR section
ENCODING 167
SWIDTH 608 0
DWIDTH 12 0
BBX 8 18 2 -4
BITMAP
3E
62
C2
C0
C0
70
7C
CE
C6
C2
F2
7C
1E
07
03
83
C7
7C
ENDCHAR
STARTCHAR dieresis
ENCODING 168
SWIDTH 602 0
DWIDTH 11 0
BBX 5 2 3 12
BITMAP
D8
D8
ENDCHAR
STARTCHAR copyright
ENCODING 169
SWIDTH 855 0
DWIDTH 16 0
BBX 15 14 1 0
BITMAP
07C0
1830
2008
43C4
C446
8802
8802
8802
8802
C446
43C4
2008
1830
07C0
ENDCHAR
STARTCHAR ordfeminine
ENCODING 170
SWIDTH 428 0
DWIDTH 8 0
BBX 7 8 1 6
BITMAP
78
4C
0C
7C
EC
CC
CC
76
ENDCHAR
STARTCHAR guillemotleft
ENCODING 171
SWIDTH 530 0
DWIDTH 10 0
BBX 8 8 1 1
BITMAP
11
32
64
CC
4C
24
32
11
ENDCHAR
STARTCHAR logicalnot
ENCODING 172
SWIDTH 608 0
DWIDTH 12 0
BBX 11 5 0 3
BITMAP
FFE0
0020
0020
0020
0020
ENDCHAR
STARTCHAR hyphen
ENCODING 173
SWIDTH 325 0
DWIDTH 6 0
BBX 4 1 1 6
BITMAP
F0
ENDCHAR
STARTCHAR registered
ENCODING 174
SWIDTH 608 0
DWIDTH 12 0
BBX 7 9 2 5
BITMAP
38
44
FE
AA
AA
B2
EE
44
38
ENDCHAR
STARTCHAR macron
ENCODING 175
SWIDTH 602 0
DWIDTH 11 0
BBX 5 1 3 13
BITMAP
F8
ENDCHAR
STARTCHAR degree
ENCODING 176
SWIDTH 259 0
DWIDTH 5 0
BBX 3 3 1 11
BITMAP
E0
A0
E0
ENDCHAR
STARTCHAR plusminus
ENCODING 177
SWIDTH 608 0
DWIDTH 12 0
BBX 11 12 0 0
BITMAP
0400
0400
0400
0400
FFE0
0400
0400
0400
0400
0000
0000
FFE0
ENDCHAR
STARTCHAR twosuperior
ENCODING 178
SWIDTH 365 0
DWIDTH 7 0
BBX 5 9 -12 5
BITMAP
70
88
88
08
10
20
40
80
F8
ENDCHAR
STARTCHAR threesuperior
ENCODING 179
SWIDTH 365 0
DWIDTH 7 0
BBX 5 9 -12 5
BITMAP
F0
88
08
08
70
08
08
88
F0
ENDCHAR
STARTCHAR acute
ENCODING 180
SWIDTH 602 0
DWIDTH 11 0
BBX 4 3 4 11
BITMAP
30
40
80
ENDCHAR
STARTCHAR mu
ENCODING 181
SWIDTH 626 0
DWIDTH 12 0
BBX 12 14 0 -4
BITMAP
F3C0
30C0
30C0
30C0
30C0
30C0
30C0
30C0
31C0
3EF0
3000
3000
3000
3000
ENDCHAR
STARTCHAR paragraph
ENCODING 182
SWIDTH 608 0
DWIDTH 12 0
BBX 8 18 1 -4
BITMAP
7F
F9
F9
F9
F9
79
79
09
09
09
09
09
09
09
09
09
09
09
ENDCHAR
STARTCHAR periodcentered
ENCODING 183
SWIDTH 608 0
DWIDTH 12 0
BBX 2 2 5 5
BITMAP
C0
C0
ENDCHAR
STARTCHAR cedilla
ENCODING 184
SWIDTH 602 0
DWIDTH 11 0
BBX 3 4 5 -4
BITMAP
C0
40
20
E0
ENDCHAR
STARTCHAR onesuperior
ENCODING 185
SWIDTH 365 0
DWIDTH 7 0
BBX 5 9 -12 5
BITMAP
E0
20
20
20
20
20
20
20
F8
ENDCHAR
STARTCHAR ordmasculine
ENCODING 186
SWIDTH 428 0
DWIDTH 8 0
BBX 7 8 1 6
BITMAP
38
6C
C6
C6
C6
C6
6C
38
ENDCHAR
STARTCHAR guillemotright
ENCODING 187
SWIDTH 530 0
DWIDTH 10 0
BBX 8 8 1 1
BITMAP
88
4C
24
32
33
26
4C
88
ENDCHAR
STARTCHAR onequarter
ENCODING 188
SWIDTH 766 0
DWIDTH 15 0
BBX 13 14 3 0
BITMAP
E018
2010
2020
2040
20C0
21B0
2130
2250
FE90
0D90
09F8
1010
2010
6038
ENDCHAR
STARTCHAR onehalf
ENCODING 189
SWIDTH 766 0
DWIDTH 15 0
BBX 13 14 3 0
BITMAP
E018
2010
2020
2040
20C0
21F0
2188
2288
FE08
0C10
0820
1040
2080
60F8
ENDCHAR
STARTCHAR threequarters
ENCODING 190
SWIDTH 766 0
DWIDTH 15 0
BBX 13 14 3 0
BITMAP
F018
8810
0820
0840
70C0
09B0
0930
8A50
F690
0D90
09F8
1010
2010
6038
ENDCHAR
STARTCHAR questiondown
ENCODING 191
SWIDTH 480 0
DWIDTH 9 0
BBX 7 14 1 -4
BITMAP
18
18
00
00
18
18
10
20
60
C0
C2
C2
E6
3C
ENDCHAR
STARTCHAR Agrave
ENCODING 192
SWIDTH 744 0
DWIDTH 14 0
BBX 14 18 0 0
BITMAP
0600
0100
0080
0000
0200
0300
0300
0580
0580
0980
08C0
10C0
1060
1FE0
2030
2030
4038
F07C
ENDCHAR
STARTCHAR Aacute
ENCODING 193
SWIDTH 744 0
DWIDTH 14 0
BBX 14 18 0 0
BITMAP
0180
0200
0400
0000
0200
0300
0300
0580
0580
0980
08C0
10C0
1060
1FE0
2030
2030
4038
F07C
ENDCHAR
STARTCHAR Acircumflex
ENCODING 194
SWIDTH 744 0
DWIDTH 14 0
BBX 14 18 0 0
BITMAP
0300
0480
0840
0000
0200
0300
0300
0580
0580
0980
08C0
10C0
1060
1FE0
2030
2030
4038
F07C
ENDCHAR
STARTCHAR Atilde
ENCODING 195
SWIDTH 744 0
DWIDTH 14 0
BBX 14 17 0 0
BITMAP
0640
0980
0000
0200
0300
0300
0580
0580
0980
08C0
10C0
1060
1FE0
2030
2030
4038
F07C
ENDCHAR
STARTCHAR Adieresis
ENCODING 196
SWIDTH 744 0
DWIDTH 14 0
BBX 14 17 0 0
BITMAP
0D80
0D80
0000
0200
0300
0300
0580
0580
0980
08C0
10C0
1060
1FE0
2030
2030
4038
F07C
ENDCHAR
STARTCHAR Aring
ENCODING 197
SWIDTH 744 0
DWIDTH 14 0
BBX 14 18 0 0
BITMAP
0380
0280
0380
0000
0200
0300
0300
0580
0580
0980
08C0
10C0
1060
1FE0
2030
2030
4038
F07C
ENDCHAR
STARTCHAR AE
ENCODING 198
SWIDTH 919 0
DWIDTH 17 0
BBX 17 14 0 0
BITMAP
00FF00
00E100
016100
036000
026000
066100
047F00
086100
186000
1FE000
206000
206080
406080
E1FF80
ENDCHAR
STARTCHAR Ccedilla
ENCODING 199
SWIDTH 695 0
DWIDTH 13 0
BBX 11 18 1 -4
BITMAP
0FC0
3860
6020
6020
C000
C000
C000
C000
C000
C000
6000
6000
3820
0FC0
0400
0400
0200
0E00
ENDCHAR
STARTCHAR Egrave
ENCODING 200
SWIDTH 566 0
DWIDTH 11 0
BBX 11 18 0 0
BITMAP
1800
0400
0200
0000
FFC0
3040
3040
3000
3000
3080
3F80
3080
3000
3000
3000
3020
3020
FFE0
ENDCHAR
STARTCHAR Eacute
ENCODING 201
SWIDTH 566 0
DWIDTH 11 0
BBX 11 18 0 0
BITMAP
0300
0400
0800
0000
FFC0
3040
3040
3000
3000
3080
3F80
3080
3000
3000
3000
3020
3020
FFE0
ENDCHAR
STARTCHAR Ecircumflex
ENCODING 202
SWIDTH 566 0
DWIDTH 11 0
BBX 11 18 0 0
BITMAP
0600
0900
1080
0000
FFC0
3040
3040
3000
3000
3080
3F80
3080
3000
3000
3000
3020
3020
FFE0
ENDCHAR
STARTCHAR Edieresis
ENCODING 203
SWIDTH 566 0
DWIDTH 11 0
BBX 11 17 0 0
BITMAP
1B00
1B00
0000
FFC0
3040
3040
3000
3000
3080
3F80
3080
3000
3000
3000
3020
3020
FFE0
ENDCHAR
STARTCHAR Igrave
ENCODING 204
SWIDTH 325 0
DWIDTH 6 0
BBX 6 18 0 0
BITMAP
60
10
08
00
FC
30
30
30
30
30
30
30
30
30
30
30
30
FC
ENDCHAR
STARTCHAR Iacute
ENCODING 205
SWIDTH 325 0
DWIDTH 6 0
BBX 6 18 0 0
BITMAP
18
20
40
00
FC
30
30
30
30
30
30
30
30
30
30
30
30
FC
ENDCHAR
STARTCHAR Icircumflex
ENCODING 206
SWIDTH 325 0
DWIDTH 6 0
BBX 6 18 0 0
BITMAP
30
48
84
00
FC
30
30
30
30
30
30
30
30
30
30
30
30
FC
ENDCHAR
STARTCHAR Idieresis
ENCODING 207
SWIDTH 325 0
DWIDTH 6 0
BBX 6 17 0 0
BITMAP
D8
D8
00
FC
30
30
30
30
30
30
30
30
30
30
30
30
FC
ENDCHAR
STARTCHAR Eth
ENCODING 208
SWIDTH 768 0
DWIDTH 15 0
BBX 13 14 0 0
BITMAP
FF80
3060
3030
3030
3018
3018
FE18
3018
3018
3018
3030
3030
3060
FF80
ENDCHAR
STARTCHAR Ntilde
ENCODING 209
SWIDTH 751 0
DWIDTH 14 0
BBX 14 17 0 0
BITMAP
0640
0980
0000
F07C
3010
3810
3C10
2E10
2610
2310
2390
21D0
20D0
2070
2070
2030
F810
ENDCHAR
STARTCHAR Ograve
ENCODING 210
SWIDTH 777 0
DWIDTH 15 0
BBX 13 18 1 0
BITMAP
0C00
0200
0100
0000
0F80
3060
6030
6030
C018
C018
C018
C018
C018
C018
6030
6030
3060
0F80
ENDCHAR
STARTCHAR Oacute
ENCODING 211
SWIDTH 777 0
DWIDTH 15 0
BBX 13 18 1 0
BITMAP
0180
0200
0400
0000
0F80
3060
6030
6030
C018
C018
C018
C018
C018
C018
6030
6030
3060
0F80
ENDCHAR
STARTCHAR Ocircumflex
ENCODING 212
SWIDTH 777 0
DWIDTH 15 0
BBX 13 18 1 0
BITMAP
0600
0900
1080
0000
0F80
3060
6030
6030
C018
C018
C018
C018
C018
C018
6030
6030
3060
0F80
ENDCHAR
STARTCHAR Otilde
ENCODING 213
SWIDTH 777 0
DWIDTH 15 0
BBX 13 17 1 0
BITMAP
0640
0980
0000
0F80
3060
6030
6030
C018
C018
C018
C018
C018
C018
6030
6030
3060
0F80
ENDCHAR
STARTCHAR Odieresis
ENCODING 214
SWIDTH 777 0
DWIDTH 15 0
BBX 13 17 1 0
BITMAP
0D80
0D80
0000
0F80
3060
6030
6030
C018
C018
C018
C018
C018
C018
6030
6030
3060
0F80
ENDCHAR
STARTCHAR multiply
ENCODING 215
SWIDTH 608 0
DWIDTH 12 0
BBX 11 12 0 0
BITMAP
8020
4040
2080
3180
1B00
0E00
0E00
1B00
1100
2080
4040
8020
ENDCHAR
STARTCHAR Oslash
ENCODING 216
SWIDTH 777 0
DWIDTH 15 0
BBX 13 14 1 0
BITMAP
0F88
3050
6030
6070
C0D8
C198
C318
C618
CC18
D818
7030
6030
5060
CF80
ENDCHAR
STARTCHAR Ugrave
ENCODING 217
SWIDTH 719 0
DWIDTH 14 0
BBX 14 18 0 0
BITMAP
0600
0100
0080
0000
FC7C
3010
3010
3010
3010
3010
3010
3010
3010
3010
3010
3010
1860
0FC0
ENDCHAR
STARTCHAR Uacute
ENCODING 218
SWIDTH 719 0
DWIDTH 14 0
BBX 14 18 0 0
BITMAP
0180
0200
0400
0000
FC7C
3010
3010
3010
3010
3010
3010
3010
3010
3010
3010
3010
1860
0FC0
ENDCHAR
STARTCHAR Ucircumflex
ENCODING 219
SWIDTH 719 0
DWIDTH 14 0
BBX 14 18 0 0
BITMAP
0300
0480
0840
0000
FC7C
3010
3010
3010
3010
3010
3010
3010
3010
3010
3010
3010
1860
0FC0
ENDCHAR
STARTCHAR Udieresis
ENCODING 220
SWIDTH 719 0
DWIDTH 14 0
BBX 14 17 0 0
BITMAP
06C0
06C0
0000
FC7C
3010
3010
3010
3010
3010
3010
3010
3010
3010
3010
3010
1860
0FC0
ENDCHAR
STARTCHAR Yacute
ENCODING 221
SWIDTH 678 0
DWIDTH 13 0
BBX 13 18 0 0
BITMAP
0180
0200
0400
0000
F878
6030
3020
3840
18C0
0C80
0F00
0700
0600
0600
0600
0600
0600
1F80
ENDCHAR
STARTCHAR Thorn
ENCODING 222
SWIDTH 573 0
DWIDTH 11 0
BBX 10 14 0 0
BITMAP
FC00
3000
3000
3F00
31C0
30C0
30C0
30C0
30C0
3180
3E00
3000
3000
FC00
ENDCHAR
STARTCHAR germandbls
ENCODING 223
SWIDTH 614 0
DWIDTH 12 0
BBX 10 15 1 0
BITMAP
1F00
3180
3180
3180
3100
3200
3200
3300
3380
3180
30C0
3040
3240
3240
FB80
ENDCHAR
STARTCHAR agrave
ENCODING 224
SWIDTH 543 0
DWIDTH 10 0
BBX 9 14 1 0
BITMAP
3000
0800
0400
0000
3E00
4700
0300
0300
3F00
6300
C300
C300
E300
7D80
ENDCHAR
STARTCHAR aacute
ENCODING 225
SWIDTH 543 0
DWIDTH 10 0
BBX 9 14 1 0
BITMAP
0600
0800
1000
0000
3E00
4700
0300
0300
3F00
6300
C300
C300
E300
7D80
ENDCHAR
STARTCHAR acircumflex
ENCODING 226
SWIDTH 543 0
DWIDTH 10 0
BBX 9 14 1 0
BITMAP
1800
2400
4200
0000
3E00
4700
0300
0300
3F00
6300
C300
C300
E300
7D80
ENDCHAR
STARTCHAR atilde
ENCODING 227
SWIDTH 543 0
DWIDTH 10 0
BBX 9 13 1 0
BITMAP
3200
4C00
0000
3E00
4700
0300
0300
3F00
6300
C300
C300
E300
7D80
ENDCHAR
STARTCHAR adieresis
ENCODING 228
SWIDTH 543 0
DWIDTH 10 0
BBX 9 13 1 0
BITMAP
3600
3600
0000
3E00
4700
0300
0300
3F00
6300
C300
C300
E300
7D80
ENDCHAR
STARTCHAR aring
ENCODING 229
SWIDTH 543 0
DWIDTH 10 0
BBX 9 14 1 0
BITMAP
1C00
1400
1C00
0000
3E00
4700
0300
0300
3F00
6300
C300
C300
E300
7D80
ENDCHAR
STARTCHAR ae
ENCODING 230
SWIDTH 819 0
DWIDTH 16 0
BBX 14 10 1 0
BITMAP
3CF0
4788
430C
030C
3FFC
6300
C300
C380
E5C4
78F8
ENDCHAR
STARTCHAR ccedilla
ENCODING 231
SWIDTH 509 0
DWIDTH 10 0
BBX 8 14 1 -4
BITMAP
1F
71
61
C0
C0
C0
C0
60
70
1F
08
08
04
1C
ENDCHAR
STARTCHAR egrave
ENCODING 232
SWIDTH 530 0
DWIDTH 10 0
BBX 8 14 1 0
BITMAP
30
08
04
00
3C
62
C3
C3
FF
C0
C0
60
71
1E
ENDCHAR
STARTCHAR eacute
ENCODING 233
SWIDTH 530 0
DWIDTH 10 0
BBX 8 14 1 0
BITMAP
0C
10
20
00
3C
62
C3
C3
FF
C0
C0
60
71
1E
ENDCHAR
STARTCHAR ecircumflex
ENCODING 234
SWIDTH 530 0
DWIDTH 10 0
BBX 8 14 1 0
BITMAP
18
24
42
00
3C
62
C3
C3
FF
C0
C0
60
71
1E
ENDCHAR
STARTCHAR edieresis
ENCODING 235
SWIDTH 530 0
DWIDTH 10 0
BBX 8 13 1 0
BITMAP
36
36
00
3C
62
C3
C3
FF
C0
C0
60
71
1E
ENDCHAR
STARTCHAR igrave
ENCODING 236
SWIDTH 307 0
DWIDTH 6 0
BBX 6 14 0 0
BITMAP
60
10
08
00
F0
30
30
30
30
30
30
30
30
FC
ENDCHAR
STARTCHAR iacute
ENCODING 237
SWIDTH 307 0
DWIDTH 6 0
BBX 6 14 0 0
BITMAP
18
20
40
00
F0
30
30
30
30
30
30
30
30
FC
ENDCHAR
STARTCHAR icircumflex
ENCODING 238
SWIDTH 307 0
DWIDTH 6 0
BBX 6 14 0 0
BITMAP
30
48
84
00
F0
30
30
30
30
30
30
30
30
FC
ENDCHAR
STARTCHAR idieresis
ENCODING 239
SWIDTH 307 0
DWIDTH 6 0
BBX 6 13 0 0
BITMAP
D8
D8
00
F0
30
30
30
30
30
30
30
30
FC
ENDCHAR
STARTCHAR eth
ENCODING 240
SWIDTH 596 0
DWIDTH 11 0
BBX 10 14 1 0
BITMAP
FE00
1800
3E00
4300
3F80
6180
61C0
C0C0
C0C0
C0C0
C0C0
6180
6180
1E00
ENDCHAR
STARTCHAR ntilde
ENCODING 241
SWIDTH 633 0
DWIDTH 12 0
BBX 12 13 0 0
BITMAP
0C80
1300
0000
F780
38C0
30C0
30C0
30C0
30C0
30C0
30C0
30C0
FFF0
ENDCHAR
STARTCHAR ograve
ENCODING 242
SWIDTH 602 0
DWIDTH 11 0
BBX 10 14 1 0
BITMAP
1800
0400
0200
0000
1E00
6180
6180
C0C0
C0C0
C0C0
C0C0
6180
6180
1E00
ENDCHAR
STARTCHAR oacute
ENCODING 243
SWIDTH 602 0
DWIDTH 11 0
BBX 10 14 1 0
BITMAP
0600
0800
1000
0000
1E00
6180
6180
C0C0
C0C0
C0C0
C0C0
6180
6180
1E00
ENDCHAR
STARTCHAR ocircumflex
ENCODING 244
SWIDTH 602 0
DWIDTH 11 0
BBX 10 14 1 0
BITMAP
0C00
1200
2100
0000
1E00
6180
6180
C0C0
C0C0
C0C0
C0C0
6180
6180
1E00
ENDCHAR
STARTCHAR otilde
ENCODING 245
SWIDTH 602 0
DWIDTH 11 0
BBX 10 13 1 0
BITMAP
1900
2600
0000
1E00
6180
6180
C0C0
C0C0
C0C0
C0C0
6180
6180
1E00
ENDCHAR
STARTCHAR odieresis
ENCODING 246
SWIDTH 602 0
DWIDTH 11 0
BBX 10 13 1 0
BITMAP
3600
3600
0000
1E00
6180
6180
C0C0
C0C0
C0C0
C0C0
6180
6180
1E00
ENDCHAR
STARTCHAR divide
ENCODING 247
SWIDTH 608 0
DWIDTH 12 0
BBX 12 10 0 0
BITMAP
0600
0600
0000
0000
0000
FFF0
0000
0000
0600
0600
ENDCHAR
STARTCHAR oslash
ENCODING 248
SWIDTH 602 0
DWIDTH 11 0
BBX 10 10 1 0
BITMAP
1E40
7180
6180
C2C0
C4C0
C8C0
D0C0
E180
7180
9E00
ENDCHAR
STARTCHAR ugrave
ENCODING 249
SWIDTH 633 0
DWIDTH 12 0
BBX 12 14 0 0
BITMAP
0C00
0200
0100
0000
F3C0
30C0
30C0
30C0
30C0
30C0
30C0
30C0
31C0
1EF0
ENDCHAR
STARTCHAR uacute
ENCODING 250
SWIDTH 633 0
DWIDTH 12 0
BBX 12 14 0 0
BITMAP
0300
0400
0800
0000
F3C0
30C0
30C0
30C0
30C0
30C0
30C0
30C0
31C0
1EF0
ENDCHAR
STARTCHAR ucircumflex
ENCODING 251
SWIDTH 633 0
DWIDTH 12 0
BBX 12 14 0 0
BITMAP
0600
0900
1080
0000
F3C0
30C0
30C0
30C0
30C0
30C0
30C0
30C0
31C0
1EF0
ENDCHAR
STARTCHAR udieresis
ENCODING 252
SWIDTH 633 0
DWIDTH 12 0
BBX 12 13 0 0
BITMAP
0D80
0D80
0000
F3C0
30C0
30C0
30C0
30C0
30C0
30C0
30C0
31C0
1EF0
ENDCHAR
STARTCHAR yacute
ENCODING 253
SWIDTH 551 0
DWIDTH 10 0
BBX 10 18 0 -4
BITMAP
0600
0800
1000
0000
F1C0
6080
6080
3180
3100
1900
1A00
1E00
0C00
0C00
0800
0800
1800
7000
ENDCHAR
STARTCHAR thorn
ENCODING 254
SWIDTH 642 0
DWIDTH 12 0
BBX 11 18 0 -4
BITMAP
F000
3000
3000
3000
3780
38C0
3060
3060
3060
3060
3060
3040
38C0
3780
3000
3000
3000
FC00
ENDCHAR
STARTCHAR ydieresis
ENCODING 255
SWIDTH 551 0
DWIDTH 10 0
BBX 10 17 0 -4
BITMAP
3600
3600
0000
F1C0
6080
6080
3180
3100
1900
1A00
1E00
0C00
0C00
0800
0800
1800
7000
ENDCHAR
ENDFONT
