STARTFONT 2.1
COMMENT AUTOMATICALLY GENERATED FILE. DO NOT EDIT!
COMMENT Generated with 'ucs2any.pl lubR24.bdf ../../../fonts/util/map-ISO8859-1 ISO8859-1'
COMMENT from an ISO10646-1 encoded source BDF font.
COMMENT ucs2any.pl by Markus Kuhn <mkuhn@acm.org>, 2000.
COMMENT $Xorg: $
COMMENT ISO10646-1 extension by Markus Kuhn <mkuhn@acm.org>, 2001-03-20
COMMENT  (c) Copyright Bigelow & Holmes 1986, 1985. Lucida is a registered
COMMENT  trademark of Bigelow & Holmes. See LEGAL NOTICE file for terms 
COMMENT  of the license. 
FONT -B&H-LucidaBright-Medium-R-Normal--24-240-75-75-P-137-ISO8859-1
SIZE 24 72 72
FONTBOUNDINGBOX 38 26 -15 -5
STARTPROPERTIES 22
COMMENT Begin LogicalFontDescription
FONTNAME_REGISTRY ""
FOUNDRY "B&H"
FAMILY_NAME "LucidaBright"
WEIGHT_NAME "Medium"
SLANT "R"
SETWIDTH_NAME "Normal"
ADD_STYLE_NAME ""
PIXEL_SIZE 24
POINT_SIZE 240
RESOLUTION_X 75
RESOLUTION_Y 75
SPACING "P"
AVERAGE_WIDTH 137
CHARSET_REGISTRY "ISO8859"
CHARSET_ENCODING "1"
COMMENT END LogicalFontDescription
FONT_ASCENT 22
FONT_DESCENT 6
DEFAULT_CHAR 0
COPYRIGHT "Copyright Bigelow & Holmes 1986, 1985."
FACE_NAME "Lucida Bright"
X_HEIGHT 13
CAP_HEIGHT 17
ENDPROPERTIES
CHARS 192
STARTCHAR defaultchar
ENCODING 0
SWIDTH 771 0
DWIDTH 19 0
BBX 17 17 1 0
BITMAP
AAAA80
000000
800080
000000
800080
000000
800080
000000
800080
000000
800080
000000
800080
000000
800080
000000
AAAA80
ENDCHAR
STARTCHAR space
ENCODING 32
SWIDTH 333 0
DWIDTH 7 0
BBX 1 1 0 0
BITMAP
00
ENDCHAR
STARTCHAR exclam
ENCODING 33
SWIDTH 265 0
DWIDTH 6 0
BBX 2 17 2 0
BITMAP
C0
C0
C0
C0
C0
C0
C0
C0
80
80
80
80
00
00
00
C0
C0
ENDCHAR
STARTCHAR quotedbl
ENCODING 34
SWIDTH 386 0
DWIDTH 9 0
BBX 7 5 1 12
BITMAP
C6
C6
C6
44
44
ENDCHAR
STARTCHAR numbersign
ENCODING 35
SWIDTH 608 0
DWIDTH 15 0
BBX 15 17 0 0
BITMAP
0118
0210
0210
0210
0220
7FFE
0420
0440
0440
0840
FFFC
0880
1880
1080
1080
1100
3100
ENDCHAR
STARTCHAR dollar
ENCODING 36
SWIDTH 608 0
DWIDTH 15 0
BBX 10 21 2 -2
BITMAP
0400
0400
1F80
34C0
6440
6440
6400
6400
3400
1C00
0F00
0780
05C0
04C0
04C0
84C0
8480
C580
7E00
0400
0400
ENDCHAR
STARTCHAR percent
ENCODING 37
SWIDTH 675 0
DWIDTH 16 0
BBX 15 17 1 0
BITMAP
3806
440C
8208
8210
8220
8240
44C0
3880
0138
0244
0682
0482
0882
1082
2082
6044
C038
ENDCHAR
STARTCHAR ampersand
ENCODING 38
SWIDTH 690 0
DWIDTH 17 0
BBX 17 17 0 0
BITMAP
07C000
0C6000
183000
183000
183000
1C6000
0EC000
1F0000
638F80
418200
C1C200
C0E200
C07200
E03400
601C00
383E00
1FCF80
ENDCHAR
STARTCHAR quotesingle
ENCODING 39
SWIDTH 241 0
DWIDTH 6 0
BBX 3 5 1 12
BITMAP
E0
E0
E0
40
40
ENDCHAR
STARTCHAR parenleft
ENCODING 40
SWIDTH 316 0
DWIDTH 8 0
BBX 5 21 1 -4
BITMAP
08
10
30
20
60
40
40
C0
C0
C0
C0
C0
C0
C0
40
40
60
20
30
10
08
ENDCHAR
STARTCHAR parenright
ENCODING 41
SWIDTH 316 0
DWIDTH 8 0
BBX 5 21 1 -4
BITMAP
80
40
60
20
30
10
10
18
18
18
18
18
18
18
10
10
30
20
60
40
80
ENDCHAR
STARTCHAR asterisk
ENCODING 42
SWIDTH 470 0
DWIDTH 11 0
BBX 9 8 1 9
BITMAP
0800
0800
8880
F780
0000
1400
6200
2300
ENDCHAR
STARTCHAR plus
ENCODING 43
SWIDTH 608 0
DWIDTH 15 0
BBX 13 14 1 0
BITMAP
0200
0200
0200
0200
0200
0200
0200
FFF8
0200
0200
0200
0200
0200
0200
ENDCHAR
STARTCHAR comma
ENCODING 44
SWIDTH 265 0
DWIDTH 6 0
BBX 3 9 2 -5
BITMAP
E0
E0
E0
E0
60
20
20
40
C0
ENDCHAR
STARTCHAR hyphen
ENCODING 45
SWIDTH 325 0
DWIDTH 8 0
BBX 5 1 1 8
BITMAP
F8
ENDCHAR
STARTCHAR period
ENCODING 46
SWIDTH 265 0
DWIDTH 6 0
BBX 3 2 2 0
BITMAP
E0
E0
ENDCHAR
STARTCHAR slash
ENCODING 47
SWIDTH 512 0
DWIDTH 12 0
BBX 12 21 0 -4
BITMAP
0030
0020
0060
0040
00C0
0080
0180
0100
0300
0200
0600
0400
0C00
0800
1800
1000
3000
2000
6000
4000
C000
ENDCHAR
STARTCHAR zero
ENCODING 48
SWIDTH 608 0
DWIDTH 15 0
BBX 12 17 1 0
BITMAP
0F00
30C0
6060
6060
4020
C030
C030
C030
C030
C030
C030
C030
4020
6060
6060
30C0
0F00
ENDCHAR
STARTCHAR one
ENCODING 49
SWIDTH 608 0
DWIDTH 15 0
BBX 8 17 3 0
BITMAP
F8
18
18
18
18
18
18
18
18
18
18
18
18
18
18
18
FF
ENDCHAR
STARTCHAR two
ENCODING 50
SWIDTH 608 0
DWIDTH 15 0
BBX 10 17 2 0
BITMAP
3E00
C380
81C0
80C0
00C0
00C0
00C0
0180
0300
0600
0800
3000
2000
4000
4000
FFC0
FFC0
ENDCHAR
STARTCHAR three
ENCODING 51
SWIDTH 608 0
DWIDTH 15 0
BBX 10 17 2 0
BITMAP
7E00
C180
80C0
80C0
00C0
00C0
0380
7E00
0300
0180
00C0
00C0
00C0
80C0
8180
C380
FE00
ENDCHAR
STARTCHAR four
ENCODING 52
SWIDTH 608 0
DWIDTH 15 0
BBX 12 17 1 0
BITMAP
00C0
01C0
01C0
02C0
04C0
08C0
18C0
10C0
20C0
40C0
C0C0
FFF0
00C0
00C0
00C0
00C0
03F0
ENDCHAR
STARTCHAR five
ENCODING 53
SWIDTH 608 0
DWIDTH 15 0
BBX 9 17 3 0
BITMAP
FF80
FF80
8000
8000
8000
8000
F800
0E00
0300
0180
0180
0180
0180
8180
8300
C600
FC00
ENDCHAR
STARTCHAR six
ENCODING 54
SWIDTH 608 0
DWIDTH 15 0
BBX 12 17 1 0
BITMAP
0FC0
1060
2020
6020
4000
C000
CF80
D060
E020
C030
C030
C030
4030
6030
6060
30C0
0F80
ENDCHAR
STARTCHAR seven
ENCODING 55
SWIDTH 608 0
DWIDTH 15 0
BBX 11 17 2 0
BITMAP
FFE0
FFE0
0040
00C0
0080
0100
0300
0200
0400
0C00
0800
1800
3000
3000
3000
6000
6000
ENDCHAR
STARTCHAR eight
ENCODING 56
SWIDTH 608 0
DWIDTH 15 0
BBX 12 17 1 0
BITMAP
0FC0
3060
6030
6030
6030
7020
3C40
1F80
3780
61E0
4060
C030
C030
C030
E060
70E0
1F80
ENDCHAR
STARTCHAR nine
ENCODING 57
SWIDTH 608 0
DWIDTH 15 0
BBX 12 17 1 0
BITMAP
1F00
30C0
6060
C060
C020
C030
C030
C030
4070
60B0
1F30
0030
0020
4060
4040
6080
3F00
ENDCHAR
STARTCHAR colon
ENCODING 58
SWIDTH 265 0
DWIDTH 6 0
BBX 2 13 2 0
BITMAP
C0
C0
00
00
00
00
00
00
00
00
00
C0
C0
ENDCHAR
STARTCHAR semicolon
ENCODING 59
SWIDTH 265 0
DWIDTH 6 0
BBX 2 18 2 -5
BITMAP
C0
C0
00
00
00
00
00
00
00
00
00
C0
C0
40
40
40
40
80
ENDCHAR
STARTCHAR less
ENCODING 60
SWIDTH 608 0
DWIDTH 15 0
BBX 14 14 0 0
BITMAP
0004
0018
0070
01C0
0700
1C00
F000
7000
1C00
0700
01C0
0070
001C
0004
ENDCHAR
STARTCHAR equal
ENCODING 61
SWIDTH 608 0
DWIDTH 15 0
BBX 14 6 0 4
BITMAP
FFFC
0000
0000
0000
0000
FFFC
ENDCHAR
STARTCHAR greater
ENCODING 62
SWIDTH 608 0
DWIDTH 15 0
BBX 14 14 0 0
BITMAP
8000
E000
3800
0E00
0380
00E0
0038
003C
00E0
0380
0E00
3800
6000
8000
ENDCHAR
STARTCHAR question
ENCODING 63
SWIDTH 480 0
DWIDTH 12 0
BBX 10 17 1 0
BITMAP
7F00
C380
80C0
80C0
00C0
0080
0180
0200
0400
0800
1800
1800
1800
0000
0000
1800
1800
ENDCHAR
STARTCHAR at
ENCODING 64
SWIDTH 873 0
DWIDTH 21 0
BBX 19 17 1 0
BITMAP
00FC00
030300
0C0080
100040
20FC20
610C20
430820
841820
841820
843840
8450C0
84D180
C31E00
400000
200000
181000
07E000
ENDCHAR
STARTCHAR A
ENCODING 65
SWIDTH 744 0
DWIDTH 18 0
BBX 18 17 0 0
BITMAP
008000
00C000
00C000
01E000
016000
026000
023000
043000
041800
081800
081C00
0FFC00
100E00
100600
200600
600700
F80FC0
ENDCHAR
STARTCHAR B
ENCODING 66
SWIDTH 609 0
DWIDTH 15 0
BBX 13 17 0 0
BITMAP
FFC0
30E0
3030
3030
3030
3030
3060
30C0
3FC0
30F0
3030
3018
3018
3018
3038
3070
FFE0
ENDCHAR
STARTCHAR C
ENCODING 67
SWIDTH 695 0
DWIDTH 17 0
BBX 14 17 1 0
BITMAP
07F8
1C1C
3004
6004
6000
C000
C000
C000
C000
C000
C000
C000
6000
6000
3000
1C04
07F8
ENDCHAR
STARTCHAR D
ENCODING 68
SWIDTH 768 0
DWIDTH 18 0
BBX 16 17 1 0
BITMAP
FFE0
3038
300C
3006
3006
3003
3003
3003
3003
3003
3003
3003
3006
3006
300C
3838
FFE0
ENDCHAR
STARTCHAR E
ENCODING 69
SWIDTH 566 0
DWIDTH 14 0
BBX 12 17 1 0
BITMAP
FFE0
3020
3020
3000
3000
3000
3000
3040
3FC0
3040
3000
3000
3000
3000
3010
3010
FFF0
ENDCHAR
STARTCHAR F
ENCODING 70
SWIDTH 548 0
DWIDTH 13 0
BBX 11 17 1 0
BITMAP
FFE0
3020
3020
3000
3000
3000
3000
3040
3FC0
3040
3000
3000
3000
3000
3000
3800
FE00
ENDCHAR
STARTCHAR G
ENCODING 71
SWIDTH 732 0
DWIDTH 18 0
BBX 16 17 1 0
BITMAP
07F0
1C1C
3004
6004
6000
C000
C000
C000
C000
C000
C03F
C00C
600C
600C
300C
1C0C
07F8
ENDCHAR
STARTCHAR H
ENCODING 72
SWIDTH 771 0
DWIDTH 19 0
BBX 17 17 1 0
BITMAP
FC1F80
300600
300600
300600
300600
300600
300600
300600
3FFE00
300600
300600
300600
300600
300600
300600
300600
FC1F80
ENDCHAR
STARTCHAR I
ENCODING 73
SWIDTH 325 0
DWIDTH 8 0
BBX 6 17 1 0
BITMAP
FC
30
30
30
30
30
30
30
30
30
30
30
30
30
30
30
FC
ENDCHAR
STARTCHAR J
ENCODING 74
SWIDTH 422 0
DWIDTH 10 0
BBX 9 21 0 -4
BITMAP
3F80
0E00
0600
0600
0600
0600
0600
0600
0600
0600
0600
0600
0600
0600
0600
0600
0600
8600
8400
8C00
F800
ENDCHAR
STARTCHAR K
ENCODING 75
SWIDTH 708 0
DWIDTH 17 0
BBX 16 17 1 0
BITMAP
FC7E
3018
3030
3040
3080
3100
3200
3400
3E00
3700
3380
31C0
30E0
3070
3038
301C
FC7F
ENDCHAR
STARTCHAR L
ENCODING 76
SWIDTH 557 0
DWIDTH 13 0
BBX 12 17 1 0
BITMAP
FC00
3000
3000
3000
3000
3000
3000
3000
3000
3000
3000
3000
3000
3000
3010
3030
FFF0
ENDCHAR
STARTCHAR M
ENCODING 77
SWIDTH 860 0
DWIDTH 21 0
BBX 19 17 1 0
BITMAP
F801E0
380380
3C0380
2C0780
2C0580
260580
260980
270980
231180
231180
219180
21A180
20E180
20C180
20C180
200180
F807E0
ENDCHAR
STARTCHAR N
ENCODING 78
SWIDTH 751 0
DWIDTH 18 0
BBX 17 17 1 0
BITMAP
F00F80
380200
3C0200
2C0200
2E0200
270200
238200
218200
20C200
20E200
207200
203200
201A00
200E00
200E00
200600
F80200
ENDCHAR
STARTCHAR O
ENCODING 79
SWIDTH 777 0
DWIDTH 19 0
BBX 16 17 1 0
BITMAP
07E0
1C38
300C
6006
6006
C003
C003
C003
C003
C003
C003
C003
6006
6006
300C
1818
07E0
ENDCHAR
STARTCHAR P
ENCODING 80
SWIDTH 573 0
DWIDTH 14 0
BBX 13 17 0 0
BITMAP
FFC0
3070
3018
3018
3018
3018
3018
3030
30E0
3F80
3000
3000
3000
3000
3000
3000
FC00
ENDCHAR
STARTCHAR Q
ENCODING 81
SWIDTH 778 0
DWIDTH 19 0
BBX 19 21 1 -4
BITMAP
07E000
1C3800
300C00
600600
600600
C00300
C00300
C00300
C00300
C00300
C00300
C00300
600600
600600
300C00
181C00
07F000
003000
000C00
000780
0001E0
ENDCHAR
STARTCHAR R
ENCODING 82
SWIDTH 679 0
DWIDTH 16 0
BBX 15 17 1 0
BITMAP
FFC0
3060
3030
3030
3030
3030
3020
3060
30C0
3F80
3180
30C0
30E0
3060
3030
3038
FC1E
ENDCHAR
STARTCHAR S
ENCODING 83
SWIDTH 542 0
DWIDTH 13 0
BBX 10 17 2 0
BITMAP
3F00
6180
C080
C080
C000
E000
7000
3C00
1E00
0780
01C0
00C0
00C0
80C0
8080
C180
7E00
ENDCHAR
STARTCHAR T
ENCODING 84
SWIDTH 663 0
DWIDTH 16 0
BBX 14 17 1 0
BITMAP
FFFC
8304
0300
0300
0300
0300
0300
0300
0300
0300
0300
0300
0300
0300
0300
0300
0FC0
ENDCHAR
STARTCHAR U
ENCODING 85
SWIDTH 719 0
DWIDTH 17 0
BBX 16 17 1 0
BITMAP
FC1F
3004
3004
3004
3004
3004
3004
3004
3004
3004
3004
3004
3004
3004
1808
1C18
07E0
ENDCHAR
STARTCHAR V
ENCODING 86
SWIDTH 699 0
DWIDTH 17 0
BBX 17 17 0 0
BITMAP
FC0F80
300300
300200
180200
180400
0C0400
0C0800
0E0800
060800
061000
031000
032000
01A000
01A000
01C000
00C000
008000
ENDCHAR
STARTCHAR W
ENCODING 87
SWIDTH 925 0
DWIDTH 22 0
BBX 22 17 0 0
BITMAP
FC107C
703018
303010
303810
183820
185820
185C20
184C40
0C8C40
0C8C40
0C8680
070680
070680
070380
060300
020300
020100
ENDCHAR
STARTCHAR X
ENCODING 88
SWIDTH 657 0
DWIDTH 16 0
BBX 16 17 0 0
BITMAP
FE1F
3804
1C08
0C18
0E10
0620
0340
03C0
01C0
02C0
0660
0470
0830
1038
3018
601C
F87F
ENDCHAR
STARTCHAR Y
ENCODING 89
SWIDTH 678 0
DWIDTH 16 0
BBX 16 17 0 0
BITMAP
FE1F
3806
180C
1C08
0C10
0610
0720
0340
01C0
0180
0180
0180
0180
0180
0180
0180
07E0
ENDCHAR
STARTCHAR Z
ENCODING 90
SWIDTH 633 0
DWIDTH 15 0
BBX 12 17 1 0
BITMAP
FFF0
C070
80E0
80C0
01C0
0180
0300
0700
0600
0C00
1C00
1800
3000
7000
6010
E030
FFF0
ENDCHAR
STARTCHAR bracketleft
ENCODING 91
SWIDTH 316 0
DWIDTH 8 0
BBX 5 21 2 -4
BITMAP
F8
C0
C0
C0
C0
C0
C0
C0
C0
C0
C0
C0
C0
C0
C0
C0
C0
C0
C0
C0
F8
ENDCHAR
STARTCHAR backslash
ENCODING 92
SWIDTH 512 0
DWIDTH 12 0
BBX 12 21 0 -4
BITMAP
C000
4000
6000
2000
3000
1000
1800
0800
0C00
0400
0600
0200
0300
0100
0180
0080
00C0
0040
0060
0020
0030
ENDCHAR
STARTCHAR bracketright
ENCODING 93
SWIDTH 316 0
DWIDTH 8 0
BBX 5 21 1 -4
BITMAP
F8
18
18
18
18
18
18
18
18
18
18
18
18
18
18
18
18
18
18
18
F8
ENDCHAR
STARTCHAR asciicircum
ENCODING 94
SWIDTH 608 0
DWIDTH 15 0
BBX 14 14 0 3
BITMAP
0100
0300
0300
0780
0480
0CC0
0840
1860
1020
3030
2010
6018
4008
C00C
ENDCHAR
STARTCHAR underscore
ENCODING 95
SWIDTH 500 0
DWIDTH 12 0
BBX 10 1 1 -2
BITMAP
FFC0
ENDCHAR
STARTCHAR grave
ENCODING 96
SWIDTH 602 0
DWIDTH 14 0
BBX 5 3 4 14
BITMAP
E0
30
18
ENDCHAR
STARTCHAR a
ENCODING 97
SWIDTH 543 0
DWIDTH 13 0
BBX 12 13 1 0
BITMAP
3F00
6180
40C0
00C0
00C0
1FC0
70C0
E0C0
C0C0
C0C0
C0C0
61C0
3E70
ENDCHAR
STARTCHAR b
ENCODING 98
SWIDTH 611 0
DWIDTH 15 0
BBX 13 17 0 0
BITMAP
F000
3000
3000
3000
33C0
3470
3830
3018
3018
3018
3018
3018
3018
3010
3030
3820
27C0
ENDCHAR
STARTCHAR c
ENCODING 99
SWIDTH 509 0
DWIDTH 12 0
BBX 10 13 1 0
BITMAP
0FC0
30C0
6040
6040
C000
C000
C000
C000
C000
6000
6000
3040
0F80
ENDCHAR
STARTCHAR d
ENCODING 100
SWIDTH 642 0
DWIDTH 15 0
BBX 14 17 1 0
BITMAP
00F0
0030
0030
0030
1FB0
30F0
6030
4030
C030
C030
C030
C030
C030
C030
6070
70B0
1F3C
ENDCHAR
STARTCHAR e
ENCODING 101
SWIDTH 530 0
DWIDTH 13 0
BBX 10 13 1 0
BITMAP
1E00
3180
6080
40C0
C0C0
FFC0
C000
C000
C000
6000
6000
3040
0F80
ENDCHAR
STARTCHAR f
ENCODING 102
SWIDTH 404 0
DWIDTH 10 0
BBX 9 19 1 0
BITMAP
0F00
1180
3080
3080
3000
3000
FF00
3000
3000
3000
3000
3000
3000
3000
3000
3000
3000
3800
FE00
ENDCHAR
STARTCHAR g
ENCODING 103
SWIDTH 571 0
DWIDTH 14 0
BBX 13 18 1 -5
BITMAP
1FF8
30C0
70E0
6060
6060
6060
6060
30C0
10C0
3F00
6000
6000
3FE0
4030
C030
C030
6060
3F80
ENDCHAR
STARTCHAR h
ENCODING 104
SWIDTH 633 0
DWIDTH 15 0
BBX 14 17 1 0
BITMAP
F000
3000
3000
3000
33C0
3460
3830
3030
3030
3030
3030
3030
3030
3030
3030
3030
FCFC
ENDCHAR
STARTCHAR i
ENCODING 105
SWIDTH 307 0
DWIDTH 7 0
BBX 6 17 1 0
BITMAP
30
30
00
00
F0
30
30
30
30
30
30
30
30
30
30
30
FC
ENDCHAR
STARTCHAR j
ENCODING 106
SWIDTH 346 0
DWIDTH 8 0
BBX 7 22 0 -5
BITMAP
06
06
00
00
3E
0E
06
06
06
06
06
06
06
06
06
06
06
06
86
86
8C
F8
ENDCHAR
STARTCHAR k
ENCODING 107
SWIDTH 599 0
DWIDTH 14 0
BBX 14 17 0 0
BITMAP
F000
3000
3000
3000
30F8
3020
30C0
3180
3300
3600
3E00
3700
3380
31C0
30E0
3070
FC3C
ENDCHAR
STARTCHAR l
ENCODING 108
SWIDTH 313 0
DWIDTH 8 0
BBX 6 17 1 0
BITMAP
F0
30
30
30
30
30
30
30
30
30
30
30
30
30
30
30
FC
ENDCHAR
STARTCHAR m
ENCODING 109
SWIDTH 946 0
DWIDTH 23 0
BBX 22 13 1 0
BITMAP
F3E3C0
347460
383830
303030
303030
303030
303030
303030
303030
303030
303030
303030
FCFCFC
ENDCHAR
STARTCHAR n
ENCODING 110
SWIDTH 633 0
DWIDTH 15 0
BBX 14 13 1 0
BITMAP
F3C0
3460
3830
3030
3030
3030
3030
3030
3030
3030
3030
3030
FCFC
ENDCHAR
STARTCHAR o
ENCODING 111
SWIDTH 602 0
DWIDTH 14 0
BBX 12 13 1 0
BITMAP
1F80
30C0
6060
6060
C030
C030
C030
C030
C030
6060
6060
30C0
1F80
ENDCHAR
STARTCHAR p
ENCODING 112
SWIDTH 642 0
DWIDTH 15 0
BBX 13 18 1 -5
BITMAP
F3C0
3470
3830
3018
3018
3018
3018
3018
3018
3010
3030
3820
37C0
3000
3000
3000
3000
FC00
ENDCHAR
STARTCHAR q
ENCODING 113
SWIDTH 617 0
DWIDTH 15 0
BBX 14 18 1 -5
BITMAP
1FB0
30F0
6030
4030
C030
C030
C030
C030
C030
C030
6070
70B0
1F30
0030
0030
0030
0030
00FC
ENDCHAR
STARTCHAR r
ENCODING 114
SWIDTH 440 0
DWIDTH 11 0
BBX 9 13 1 0
BITMAP
F780
3C80
3080
3080
3000
3000
3000
3000
3000
3000
3000
3000
FC00
ENDCHAR
STARTCHAR s
ENCODING 115
SWIDTH 504 0
DWIDTH 12 0
BBX 9 13 2 0
BITMAP
3E00
6300
C100
C100
E000
7800
3E00
0F00
0180
8180
8180
C300
7E00
ENDCHAR
STARTCHAR t
ENCODING 116
SWIDTH 392 0
DWIDTH 9 0
BBX 8 16 1 0
BITMAP
30
30
30
FF
30
30
30
30
30
30
30
30
30
30
38
1F
ENDCHAR
STARTCHAR u
ENCODING 117
SWIDTH 633 0
DWIDTH 15 0
BBX 14 13 0 0
BITMAP
F0F0
3030
3030
3030
3030
3030
3030
3030
3030
3030
3030
18F0
0F3C
ENDCHAR
STARTCHAR v
ENCODING 118
SWIDTH 545 0
DWIDTH 13 0
BBX 13 13 0 0
BITMAP
F878
7010
3030
3020
1820
1840
1C40
0C80
0C80
0700
0700
0300
0200
ENDCHAR
STARTCHAR w
ENCODING 119
SWIDTH 795 0
DWIDTH 19 0
BBX 19 13 0 0
BITMAP
FC41E0
706040
306040
30F080
30B080
39B180
191900
191900
1E1E00
0E0E00
0E0E00
0C0400
040400
ENDCHAR
STARTCHAR x
ENCODING 120
SWIDTH 557 0
DWIDTH 13 0
BBX 13 13 0 0
BITMAP
FC78
7030
3860
1840
0C80
0F00
0700
0780
0980
10C0
20E0
6070
F1F8
ENDCHAR
STARTCHAR y
ENCODING 121
SWIDTH 551 0
DWIDTH 13 0
BBX 13 18 0 -5
BITMAP
FC78
7010
3010
3020
1820
1840
1C40
0CC0
0C80
0680
0700
0700
0200
0200
0600
0C00
1C00
3800
ENDCHAR
STARTCHAR z
ENCODING 122
SWIDTH 595 0
DWIDTH 14 0
BBX 11 13 2 0
BITMAP
FFE0
80C0
81C0
0380
0300
0600
0E00
1C00
1800
3000
7020
E020
FFE0
ENDCHAR
STARTCHAR braceleft
ENCODING 123
SWIDTH 343 0
DWIDTH 8 0
BBX 6 21 1 -4
BITMAP
0C
10
20
20
30
30
10
10
10
20
C0
20
10
10
10
30
30
20
20
10
0C
ENDCHAR
STARTCHAR bar
ENCODING 124
SWIDTH 241 0
DWIDTH 6 0
BBX 1 21 2 -4
BITMAP
80
80
80
80
80
80
80
80
80
80
80
80
80
80
80
80
80
80
80
80
80
ENDCHAR
STARTCHAR braceright
ENCODING 125
SWIDTH 343 0
DWIDTH 8 0
BBX 6 21 1 -4
BITMAP
C0
20
10
10
10
30
20
20
20
10
0C
10
20
20
20
30
10
10
10
20
C0
ENDCHAR
STARTCHAR asciitilde
ENCODING 126
SWIDTH 608 0
DWIDTH 15 0
BBX 14 6 0 4
BITMAP
3804
4C04
8204
8104
8088
8070
ENDCHAR
STARTCHAR space
ENCODING 160
SWIDTH 333 0
DWIDTH 7 0
BBX 1 1 0 0
BITMAP
00
ENDCHAR
STARTCHAR exclamdown
ENCODING 161
SWIDTH 265 0
DWIDTH 6 0
BBX 2 18 2 -5
BITMAP
C0
C0
00
00
00
80
80
80
80
80
C0
C0
C0
C0
C0
C0
C0
C0
ENDCHAR
STARTCHAR cent
ENCODING 162
SWIDTH 608 0
DWIDTH 15 0
BBX 9 17 2 0
BITMAP
0400
0400
0F80
3580
6480
6480
C400
C400
C400
C400
C400
4400
6400
3480
1F80
0400
0400
ENDCHAR
STARTCHAR sterling
ENCODING 163
SWIDTH 608 0
DWIDTH 15 0
BBX 10 17 3 0
BITMAP
0F80
18C0
1040
3040
3000
3000
3000
3000
FF00
3000
3000
3000
3000
2000
6000
C000
FFC0
ENDCHAR
STARTCHAR currency
ENCODING 164
SWIDTH 608 0
DWIDTH 15 0
BBX 15 15 0 1
BITMAP
8002
4004
27C8
1830
1010
2008
2008
2008
2008
3018
1010
1C70
27C8
4004
8002
ENDCHAR
STARTCHAR yen
ENCODING 165
SWIDTH 608 0
DWIDTH 15 0
BBX 16 17 0 0
BITMAP
FE1F
3804
1808
1C08
0E10
0620
0320
03C0
0180
1FF8
0180
0180
1FF8
0180
0180
0180
07E0
ENDCHAR
STARTCHAR brokenbar
ENCODING 166
SWIDTH 241 0
DWIDTH 6 0
BBX 1 21 2 -4
BITMAP
80
80
80
80
80
80
80
80
80
80
00
80
80
80
80
80
80
80
80
80
80
ENDCHAR
STARTCHAR section
ENCODING 167
SWIDTH 608 0
DWIDTH 15 0
BBX 10 22 2 -5
BITMAP
3F00
6180
C080
C080
C000
C000
7000
3C00
4F00
C380
C180
C080
F080
7C80
1F00
0780
01C0
00C0
80C0
80C0
C180
7F00
ENDCHAR
STARTCHAR dieresis
ENCODING 168
SWIDTH 602 0
DWIDTH 14 0
BBX 7 2 4 15
BITMAP
C6
C6
ENDCHAR
STARTCHAR copyright
ENCODING 169
SWIDTH 855 0
DWIDTH 21 0
BBX 18 17 1 0
BITMAP
03F000
0C0C00
300300
200100
41F080
421080
841040
840040
840040
840040
860040
431080
41F080
200100
300300
0C0C00
03F000
ENDCHAR
STARTCHAR ordfeminine
ENCODING 170
SWIDTH 428 0
DWIDTH 10 0
BBX 9 9 1 8
BITMAP
3E00
4300
4300
0300
3F00
E300
C300
C700
7B80
ENDCHAR
STARTCHAR guillemotleft
ENCODING 171
SWIDTH 530 0
DWIDTH 13 0
BBX 10 11 1 1
BITMAP
0840
1880
1180
3300
6200
C600
6200
2100
1180
0880
0840
ENDCHAR
STARTCHAR logicalnot
ENCODING 172
SWIDTH 608 0
DWIDTH 15 0
BBX 14 6 0 4
BITMAP
FFFC
0004
0004
0004
0004
0004
ENDCHAR
STARTCHAR hyphen
ENCODING 173
SWIDTH 325 0
DWIDTH 8 0
BBX 5 1 1 8
BITMAP
F8
ENDCHAR
STARTCHAR registered
ENCODING 174
SWIDTH 608 0
DWIDTH 15 0
BBX 10 10 2 7
BITMAP
1E00
6100
4080
BE40
9240
9240
9C40
7380
2180
1E00
ENDCHAR
STARTCHAR macron
ENCODING 175
SWIDTH 602 0
DWIDTH 14 0
BBX 7 1 4 16
BITMAP
FE
ENDCHAR
STARTCHAR degree
ENCODING 176
SWIDTH 259 0
DWIDTH 6 0
BBX 4 4 1 13
BITMAP
60
90
90
60
ENDCHAR
STARTCHAR plusminus
ENCODING 177
SWIDTH 608 0
DWIDTH 15 0
BBX 13 14 1 0
BITMAP
0200
0200
0200
0200
0200
FFF8
0200
0200
0200
0200
0200
0000
0000
FFF8
ENDCHAR
STARTCHAR twosuperior
ENCODING 178
SWIDTH 365 0
DWIDTH 9 0
BBX 6 10 -14 7
BITMAP
78
8C
84
04
0C
18
20
40
80
FC
ENDCHAR
STARTCHAR threesuperior
ENCODING 179
SWIDTH 365 0
DWIDTH 9 0
BBX 6 10 -14 7
BITMAP
F8
84
84
04
78
0C
04
84
8C
F8
ENDCHAR
STARTCHAR acute
ENCODING 180
SWIDTH 602 0
DWIDTH 14 0
BBX 5 3 5 14
BITMAP
38
60
C0
ENDCHAR
STARTCHAR mu
ENCODING 181
SWIDTH 626 0
DWIDTH 15 0
BBX 14 17 0 -4
BITMAP
F0F0
3030
3030
3030
3030
3030
3030
3030
3030
3030
3030
38F0
3F3C
3000
3000
3000
3000
ENDCHAR
STARTCHAR paragraph
ENCODING 182
SWIDTH 608 0
DWIDTH 15 0
BBX 11 21 1 -4
BITMAP
3FE0
FE20
FE20
FE20
FE20
FE20
7E20
3E20
0620
0220
0220
0220
0220
0220
0220
0220
0220
0220
0220
0220
0220
ENDCHAR
STARTCHAR periodcentered
ENCODING 183
SWIDTH 608 0
DWIDTH 15 0
BBX 2 2 6 7
BITMAP
C0
C0
ENDCHAR
STARTCHAR cedilla
ENCODING 184
SWIDTH 602 0
DWIDTH 14 0
BBX 4 6 6 -5
BITMAP
60
40
20
10
10
E0
ENDCHAR
STARTCHAR onesuperior
ENCODING 185
SWIDTH 365 0
DWIDTH 9 0
BBX 5 10 -15 7
BITMAP
E0
20
20
20
20
20
20
20
20
F8
ENDCHAR
STARTCHAR ordmasculine
ENCODING 186
SWIDTH 428 0
DWIDTH 10 0
BBX 9 9 1 8
BITMAP
3E00
6300
C180
C180
C180
C180
C180
6300
3E00
ENDCHAR
STARTCHAR guillemotright
ENCODING 187
SWIDTH 530 0
DWIDTH 13 0
BBX 10 11 1 1
BITMAP
8400
4400
6200
2100
1180
18C0
1180
3300
6200
4600
8400
ENDCHAR
STARTCHAR onequarter
ENCODING 188
SWIDTH 766 0
DWIDTH 18 0
BBX 16 17 5 0
BITMAP
7006
100C
1008
1010
1020
1040
10C0
1086
1106
7E0A
0612
0C22
0862
107F
2002
6002
C007
ENDCHAR
STARTCHAR onehalf
ENCODING 189
SWIDTH 766 0
DWIDTH 18 0
BBX 16 17 5 0
BITMAP
7006
100C
1008
1010
1020
1040
10C0
109E
1123
7E21
0601
0C03
0806
1008
2010
6020
C03F
ENDCHAR
STARTCHAR threequarters
ENCODING 190
SWIDTH 766 0
DWIDTH 18 0
BBX 16 17 5 0
BITMAP
F806
840C
8408
0410
7820
0C40
04C0
8486
8D06
FA0A
0612
0C22
0862
107F
2002
6002
C007
ENDCHAR
STARTCHAR questiondown
ENCODING 191
SWIDTH 480 0
DWIDTH 12 0
BBX 10 18 1 -5
BITMAP
0600
0600
0000
0000
0000
0600
0600
0600
0C00
1800
3000
6000
4000
C000
C040
C040
70C0
1F80
ENDCHAR
STARTCHAR Agrave
ENCODING 192
SWIDTH 744 0
DWIDTH 18 0
BBX 18 21 0 0
BITMAP
038000
00C000
006000
000000
008000
00C000
00C000
01E000
016000
026000
023000
043000
041800
081800
081C00
0FFC00
100E00
100600
200600
600700
F80FC0
ENDCHAR
STARTCHAR Aacute
ENCODING 193
SWIDTH 744 0
DWIDTH 18 0
BBX 18 21 0 0
BITMAP
007000
00C000
018000
000000
008000
00C000
00C000
01E000
016000
026000
023000
043000
041800
081800
081C00
0FFC00
100E00
100600
200600
600700
F80FC0
ENDCHAR
STARTCHAR Acircumflex
ENCODING 194
SWIDTH 744 0
DWIDTH 18 0
BBX 18 21 0 0
BITMAP
01E000
033000
061800
000000
008000
00C000
00C000
01E000
016000
026000
023000
043000
041800
081800
081C00
0FFC00
100E00
100600
200600
600700
F80FC0
ENDCHAR
STARTCHAR Atilde
ENCODING 195
SWIDTH 744 0
DWIDTH 18 0
BBX 18 20 0 0
BITMAP
03C800
04F000
000000
008000
00C000
00C000
01E000
016000
026000
023000
043000
041800
081800
081C00
0FFC00
100E00
100600
200600
600700
F80FC0
ENDCHAR
STARTCHAR Adieresis
ENCODING 196
SWIDTH 744 0
DWIDTH 18 0
BBX 18 20 0 0
BITMAP
063000
063000
000000
008000
00C000
00C000
01E000
016000
026000
023000
043000
041800
081800
081C00
0FFC00
100E00
100600
200600
600700
F80FC0
ENDCHAR
STARTCHAR Aring
ENCODING 197
SWIDTH 744 0
DWIDTH 18 0
BBX 18 21 0 0
BITMAP
00C000
012000
00C000
000000
008000
00C000
00C000
01E000
016000
026000
023000
043000
041800
081800
081C00
0FFC00
100E00
100600
200600
600700
F80FC0
ENDCHAR
STARTCHAR AE
ENCODING 198
SWIDTH 919 0
DWIDTH 22 0
BBX 21 17 0 0
BITMAP
003FF0
003010
007010
00B000
00B000
013000
013000
023020
063FE0
043020
0C3000
1FF000
103000
303000
203008
603018
F0FFF8
ENDCHAR
STARTCHAR Ccedilla
ENCODING 199
SWIDTH 695 0
DWIDTH 17 0
BBX 14 22 1 -5
BITMAP
07F8
1C1C
3004
6004
6000
C000
C000
C000
C000
C000
C000
C000
6000
6000
3000
1C04
07F8
0200
0100
0080
0080
0700
ENDCHAR
STARTCHAR Egrave
ENCODING 200
SWIDTH 566 0
DWIDTH 14 0
BBX 12 21 1 0
BITMAP
1C00
0600
0300
0000
FFE0
3020
3020
3000
3000
3000
3000
3040
3FC0
3040
3000
3000
3000
3000
3010
3010
FFF0
ENDCHAR
STARTCHAR Eacute
ENCODING 201
SWIDTH 566 0
DWIDTH 14 0
BBX 12 21 1 0
BITMAP
0380
0600
0C00
0000
FFE0
3020
3020
3000
3000
3000
3000
3040
3FC0
3040
3000
3000
3000
3000
3010
3010
FFF0
ENDCHAR
STARTCHAR Ecircumflex
ENCODING 202
SWIDTH 566 0
DWIDTH 14 0
BBX 12 21 1 0
BITMAP
0F00
1980
30C0
0000
FFE0
3020
3020
3000
3000
3000
3000
3040
3FC0
3040
3000
3000
3000
3000
3010
3010
FFF0
ENDCHAR
STARTCHAR Edieresis
ENCODING 203
SWIDTH 566 0
DWIDTH 14 0
BBX 12 20 1 0
BITMAP
18C0
18C0
0000
FFE0
3020
3020
3000
3000
3000
3000
3040
3FC0
3040
3000
3000
3000
3000
3010
3010
FFF0
ENDCHAR
STARTCHAR Igrave
ENCODING 204
SWIDTH 325 0
DWIDTH 8 0
BBX 6 21 1 0
BITMAP
E0
30
18
00
FC
30
30
30
30
30
30
30
30
30
30
30
30
30
30
30
FC
ENDCHAR
STARTCHAR Iacute
ENCODING 205
SWIDTH 325 0
DWIDTH 8 0
BBX 6 21 1 0
BITMAP
1C
30
60
00
FC
30
30
30
30
30
30
30
30
30
30
30
30
30
30
30
FC
ENDCHAR
STARTCHAR Icircumflex
ENCODING 206
SWIDTH 325 0
DWIDTH 8 0
BBX 8 21 2 0
BITMAP
3C
66
C3
00
7E
18
18
18
18
18
18
18
18
18
18
18
18
18
18
18
7E
ENDCHAR
STARTCHAR Idieresis
ENCODING 207
SWIDTH 325 0
DWIDTH 8 0
BBX 7 20 2 0
BITMAP
C6
C6
00
7E
18
18
18
18
18
18
18
18
18
18
18
18
18
18
18
7E
ENDCHAR
STARTCHAR Eth
ENCODING 208
SWIDTH 768 0
DWIDTH 18 0
BBX 16 17 1 0
BITMAP
FFE0
3038
300C
3006
3006
3003
3003
3003
FF03
3003
3003
3003
3006
3006
300C
3838
FFE0
ENDCHAR
STARTCHAR Ntilde
ENCODING 209
SWIDTH 751 0
DWIDTH 18 0
BBX 17 20 1 0
BITMAP
03C800
04F000
000000
F00F80
380200
3C0200
2C0200
2E0200
270200
238200
218200
20C200
20E200
207200
203200
201A00
200E00
200E00
200600
F80200
ENDCHAR
STARTCHAR Ograve
ENCODING 210
SWIDTH 777 0
DWIDTH 19 0
BBX 16 21 1 0
BITMAP
0700
0180
00C0
0000
07E0
1C38
300C
6006
6006
C003
C003
C003
C003
C003
C003
C003
6006
6006
300C
1818
07E0
ENDCHAR
STARTCHAR Oacute
ENCODING 211
SWIDTH 777 0
DWIDTH 19 0
BBX 16 21 1 0
BITMAP
00E0
0180
0300
0000
07E0
1C38
300C
6006
6006
C003
C003
C003
C003
C003
C003
C003
6006
6006
300C
1818
07E0
ENDCHAR
STARTCHAR Ocircumflex
ENCODING 212
SWIDTH 777 0
DWIDTH 19 0
BBX 16 21 1 0
BITMAP
03C0
0660
0C30
0000
07E0
1C38
300C
6006
6006
C003
C003
C003
C003
C003
C003
C003
6006
6006
300C
1818
07E0
ENDCHAR
STARTCHAR Otilde
ENCODING 213
SWIDTH 777 0
DWIDTH 19 0
BBX 16 20 1 0
BITMAP
0790
09E0
0000
07E0
1C38
300C
6006
6006
C003
C003
C003
C003
C003
C003
C003
6006
6006
300C
1818
07E0
ENDCHAR
STARTCHAR Odieresis
ENCODING 214
SWIDTH 777 0
DWIDTH 19 0
BBX 16 20 1 0
BITMAP
0C60
0C60
0000
07E0
1C38
300C
6006
6006
C003
C003
C003
C003
C003
C003
C003
6006
6006
300C
1818
07E0
ENDCHAR
STARTCHAR multiply
ENCODING 215
SWIDTH 608 0
DWIDTH 15 0
BBX 14 14 0 0
BITMAP
8004
4008
2010
1020
0840
0480
0300
0300
0480
0840
1020
2010
4008
8004
ENDCHAR
STARTCHAR Oslash
ENCODING 216
SWIDTH 777 0
DWIDTH 19 0
BBX 16 17 1 0
BITMAP
07E1
183A
300E
6006
600E
C013
C063
C0C3
C183
C303
C603
CC03
7806
7006
700C
5C38
87E0
ENDCHAR
STARTCHAR Ugrave
ENCODING 217
SWIDTH 719 0
DWIDTH 17 0
BBX 16 21 1 0
BITMAP
0700
0180
00C0
0000
FC1F
3004
3004
3004
3004
3004
3004
3004
3004
3004
3004
3004
3004
3004
1808
1C18
07E0
ENDCHAR
STARTCHAR Uacute
ENCODING 218
SWIDTH 719 0
DWIDTH 17 0
BBX 16 21 1 0
BITMAP
00E0
0180
0300
0000
FC1F
3004
3004
3004
3004
3004
3004
3004
3004
3004
3004
3004
3004
3004
1808
1C18
07E0
ENDCHAR
STARTCHAR Ucircumflex
ENCODING 219
SWIDTH 719 0
DWIDTH 17 0
BBX 16 21 1 0
BITMAP
03C0
0660
0C30
0000
FC1F
3004
3004
3004
3004
3004
3004
3004
3004
3004
3004
3004
3004
3004
1808
1C18
07E0
ENDCHAR
STARTCHAR Udieresis
ENCODING 220
SWIDTH 719 0
DWIDTH 17 0
BBX 16 20 1 0
BITMAP
0630
0630
0000
FC1F
3004
3004
3004
3004
3004
3004
3004
3004
3004
3004
3004
3004
3004
1808
1C18
07E0
ENDCHAR
STARTCHAR Yacute
ENCODING 221
SWIDTH 678 0
DWIDTH 16 0
BBX 16 21 0 0
BITMAP
00E0
0180
0300
0000
FE1F
3806
180C
1C08
0C10
0610
0720
0340
01C0
0180
0180
0180
0180
0180
0180
0180
07E0
ENDCHAR
STARTCHAR Thorn
ENCODING 222
SWIDTH 573 0
DWIDTH 14 0
BBX 13 17 0 0
BITMAP
FC00
3000
3000
3000
3FC0
3070
3018
3018
3018
3018
3030
30E0
3F80
3000
3000
3000
FC00
ENDCHAR
STARTCHAR germandbls
ENCODING 223
SWIDTH 614 0
DWIDTH 15 0
BBX 13 19 1 0
BITMAP
0F80
18C0
3060
3060
3060
3040
3080
3100
3100
3180
31C0
30E0
3070
3038
3008
3008
3108
3110
FDE0
ENDCHAR
STARTCHAR agrave
ENCODING 224
SWIDTH 543 0
DWIDTH 13 0
BBX 12 17 1 0
BITMAP
1C00
0600
0300
0000
3F00
6180
40C0
00C0
00C0
1FC0
70C0
E0C0
C0C0
C0C0
C0C0
61C0
3E70
ENDCHAR
STARTCHAR aacute
ENCODING 225
SWIDTH 543 0
DWIDTH 13 0
BBX 12 17 1 0
BITMAP
0380
0600
0C00
0000
3F00
6180
40C0
00C0
00C0
1FC0
70C0
E0C0
C0C0
C0C0
C0C0
61C0
3E70
ENDCHAR
STARTCHAR acircumflex
ENCODING 226
SWIDTH 543 0
DWIDTH 13 0
BBX 12 17 1 0
BITMAP
0F00
1980
30C0
0000
3F00
6180
40C0
00C0
00C0
1FC0
70C0
E0C0
C0C0
C0C0
C0C0
61C0
3E70
ENDCHAR
STARTCHAR atilde
ENCODING 227
SWIDTH 543 0
DWIDTH 13 0
BBX 12 16 1 0
BITMAP
1E40
2780
0000
3F00
6180
40C0
00C0
00C0
1FC0
70C0
E0C0
C0C0
C0C0
C0C0
61C0
3E70
ENDCHAR
STARTCHAR adieresis
ENCODING 228
SWIDTH 543 0
DWIDTH 13 0
BBX 12 16 1 0
BITMAP
3180
3180
0000
3F00
6180
40C0
00C0
00C0
1FC0
70C0
E0C0
C0C0
C0C0
C0C0
61C0
3E70
ENDCHAR
STARTCHAR aring
ENCODING 229
SWIDTH 543 0
DWIDTH 13 0
BBX 12 17 1 0
BITMAP
0600
0900
0600
0000
3F00
6180
40C0
00C0
00C0
1FC0
70C0
E0C0
C0C0
C0C0
C0C0
61C0
3E70
ENDCHAR
STARTCHAR ae
ENCODING 230
SWIDTH 819 0
DWIDTH 20 0
BBX 17 13 1 0
BITMAP
3F3C00
63E300
41C100
018180
018180
1FFF80
718000
E18000
C18000
C1C000
C1C000
626080
3C3F00
ENDCHAR
STARTCHAR ccedilla
ENCODING 231
SWIDTH 509 0
DWIDTH 12 0
BBX 10 18 1 -5
BITMAP
0FC0
30C0
6040
6040
C000
C000
C000
C000
C000
6000
6000
3040
0F80
0800
0400
0200
0200
1C00
ENDCHAR
STARTCHAR egrave
ENCODING 232
SWIDTH 530 0
DWIDTH 13 0
BBX 10 17 1 0
BITMAP
3800
0C00
0600
0000
1E00
3180
6080
40C0
C0C0
FFC0
C000
C000
C000
6000
6000
3040
0F80
ENDCHAR
STARTCHAR eacute
ENCODING 233
SWIDTH 530 0
DWIDTH 13 0
BBX 10 17 1 0
BITMAP
0700
0C00
1800
0000
1E00
3180
6080
40C0
C0C0
FFC0
C000
C000
C000
6000
6000
3040
0F80
ENDCHAR
STARTCHAR ecircumflex
ENCODING 234
SWIDTH 530 0
DWIDTH 13 0
BBX 10 17 1 0
BITMAP
1E00
3300
6180
0000
1E00
3180
6080
40C0
C0C0
FFC0
C000
C000
C000
6000
6000
3040
0F80
ENDCHAR
STARTCHAR edieresis
ENCODING 235
SWIDTH 530 0
DWIDTH 13 0
BBX 10 16 1 0
BITMAP
3180
3180
0000
1E00
3180
6080
40C0
C0C0
FFC0
C000
C000
C000
6000
6000
3040
0F80
ENDCHAR
STARTCHAR igrave
ENCODING 236
SWIDTH 307 0
DWIDTH 7 0
BBX 6 17 1 0
BITMAP
E0
30
18
00
F0
30
30
30
30
30
30
30
30
30
30
30
FC
ENDCHAR
STARTCHAR iacute
ENCODING 237
SWIDTH 307 0
DWIDTH 7 0
BBX 6 17 1 0
BITMAP
1C
30
60
00
F0
30
30
30
30
30
30
30
30
30
30
30
FC
ENDCHAR
STARTCHAR icircumflex
ENCODING 238
SWIDTH 307 0
DWIDTH 7 0
BBX 8 17 2 0
BITMAP
3C
66
C3
00
78
18
18
18
18
18
18
18
18
18
18
18
7E
ENDCHAR
STARTCHAR idieresis
ENCODING 239
SWIDTH 307 0
DWIDTH 7 0
BBX 7 16 2 0
BITMAP
C6
C6
00
78
18
18
18
18
18
18
18
18
18
18
18
7E
ENDCHAR
STARTCHAR eth
ENCODING 240
SWIDTH 596 0
DWIDTH 14 0
BBX 12 17 1 0
BITMAP
FF80
0E00
1F00
6180
0FC0
30C0
6060
6060
C030
C030
C030
C030
C030
6060
6060
30C0
1F80
ENDCHAR
STARTCHAR ntilde
ENCODING 241
SWIDTH 633 0
DWIDTH 15 0
BBX 14 16 1 0
BITMAP
0F20
13C0
0000
F3C0
3460
3830
3030
3030
3030
3030
3030
3030
3030
3030
3030
FCFC
ENDCHAR
STARTCHAR ograve
ENCODING 242
SWIDTH 602 0
DWIDTH 14 0
BBX 12 17 1 0
BITMAP
1C00
0600
0300
0000
1F80
30C0
6060
6060
C030
C030
C030
C030
C030
6060
6060
30C0
1F80
ENDCHAR
STARTCHAR oacute
ENCODING 243
SWIDTH 602 0
DWIDTH 14 0
BBX 12 17 1 0
BITMAP
0380
0600
0C00
0000
1F80
30C0
6060
6060
C030
C030
C030
C030
C030
6060
6060
30C0
1F80
ENDCHAR
STARTCHAR ocircumflex
ENCODING 244
SWIDTH 602 0
DWIDTH 14 0
BBX 12 17 1 0
BITMAP
0F00
1980
30C0
0000
1F80
30C0
6060
6060
C030
C030
C030
C030
C030
6060
6060
30C0
1F80
ENDCHAR
STARTCHAR otilde
ENCODING 245
SWIDTH 602 0
DWIDTH 14 0
BBX 12 16 1 0
BITMAP
1E40
2780
0000
1F80
30C0
6060
6060
C030
C030
C030
C030
C030
6060
6060
30C0
1F80
ENDCHAR
STARTCHAR odieresis
ENCODING 246
SWIDTH 602 0
DWIDTH 14 0
BBX 12 16 1 0
BITMAP
3180
3180
0000
1F80
30C0
6060
6060
C030
C030
C030
C030
C030
6060
6060
30C0
1F80
ENDCHAR
STARTCHAR divide
ENCODING 247
SWIDTH 608 0
DWIDTH 15 0
BBX 14 12 0 1
BITMAP
0300
0300
0000
0000
0000
0000
FFFC
0000
0000
0000
0300
0300
ENDCHAR
STARTCHAR oslash
ENCODING 248
SWIDTH 602 0
DWIDTH 14 0
BBX 12 13 1 0
BITMAP
1F30
30E0
6060
60F0
C1B0
C330
C630
CC30
D830
F060
6060
70C0
9F80
ENDCHAR
STARTCHAR ugrave
ENCODING 249
SWIDTH 633 0
DWIDTH 15 0
BBX 14 17 0 0
BITMAP
0E00
0300
0180
0000
F0F0
3030
3030
3030
3030
3030
3030
3030
3030
3030
3030
18F0
0F3C
ENDCHAR
STARTCHAR uacute
ENCODING 250
SWIDTH 633 0
DWIDTH 15 0
BBX 14 17 0 0
BITMAP
01C0
0300
0600
0000
F0F0
3030
3030
3030
3030
3030
3030
3030
3030
3030
3030
18F0
0F3C
ENDCHAR
STARTCHAR ucircumflex
ENCODING 251
SWIDTH 633 0
DWIDTH 15 0
BBX 14 17 0 0
BITMAP
0780
0CC0
1860
0000
F0F0
3030
3030
3030
3030
3030
3030
3030
3030
3030
3030
18F0
0F3C
ENDCHAR
STARTCHAR udieresis
ENCODING 252
SWIDTH 633 0
DWIDTH 15 0
BBX 14 16 0 0
BITMAP
0C60
0C60
0000
F0F0
3030
3030
3030
3030
3030
3030
3030
3030
3030
3030
18F0
0F3C
ENDCHAR
STARTCHAR yacute
ENCODING 253
SWIDTH 551 0
DWIDTH 13 0
BBX 13 22 0 -5
BITMAP
0380
0600
0C00
0000
FC78
7010
3010
3020
1820
1840
1C40
0CC0
0C80
0680
0700
0700
0200
0200
0600
0C00
1C00
3800
ENDCHAR
STARTCHAR thorn
ENCODING 254
SWIDTH 642 0
DWIDTH 15 0
BBX 13 21 1 -5
BITMAP
F000
3000
3000
33C0
3470
3830
3018
3018
3018
3018
3018
3018
3010
3030
3820
37C0
3000
3000
3000
3000
FC00
ENDCHAR
STARTCHAR ydieresis
ENCODING 255
SWIDTH 551 0
DWIDTH 13 0
BBX 13 21 0 -5
BITMAP
18C0
18C0
0000
FC78
7010
3010
3020
1820
1840
1C40
0CC0
0C80
0680
0700
0700
0200
0200
0600
0C00
1C00
3800
ENDCHAR
ENDFONT
