STARTFONT 2.1
COMMENT AUTOMATICALLY GENERATED FILE. DO NOT EDIT!
COMMENT Generated with 'ucs2any.pl lutBS24.bdf ../../../fonts/util/map-ISO8859-1 ISO8859-1'
COMMENT from an ISO10646-1 encoded source BDF font.
COMMENT ucs2any.pl by Markus Kuhn <mkuhn@acm.org>, 2000.
COMMENT $Xorg: $
COMMENT ISO10646-1 extension by Markus Kuhn <mkuhn@acm.org>, 2001-03-20
FONT -B&H-LucidaTypewriter-Bold-R-Normal-Sans-24-240-75-75-M-140-ISO8859-1
SIZE 24 72 72
FONTBOUNDINGBOX 18 26 -3 -5
STARTPROPERTIES 22
FONTNAME_REGISTRY ""
FOUNDRY "B&H"
FAMILY_NAME "LucidaTypewriter"
WEIGHT_NAME "Bold"
SLANT "R"
SETWIDTH_NAME "Normal"
ADD_STYLE_NAME "Sans"
PIXEL_SIZE 24
POINT_SIZE 240
RESOLUTION_X 75
RESOLUTION_Y 75
SPACING "M"
AVERAGE_WIDTH 140
CHARSET_REGISTRY "ISO8859"
CHARSET_ENCODING "1"
FONT_ASCENT 21
FONT_DESCENT 5
DEFAULT_CHAR 0
COPYRIGHT "Copyright Bigelow & Holmes 1986, 1985."
FACE_NAME "Lucida Sans Typewriter Bold"
X_HEIGHT 13
CAP_HEIGHT 17
ENDPROPERTIES
CHARS 192
STARTCHAR defaultchar
ENCODING 0
SWIDTH 602 0
DWIDTH 14 0
BBX 11 17 1 0
BITMAP
AAA0
0000
8020
0000
8020
0000
8020
0000
8020
0000
8020
0000
8020
0000
8020
0000
AAA0
ENDCHAR
STARTCHAR space
ENCODING 32
SWIDTH 602 0
DWIDTH 14 0
BBX 1 1 0 0
BITMAP
00
ENDCHAR
STARTCHAR exclam
ENCODING 33
SWIDTH 602 0
DWIDTH 14 0
BBX 3 17 6 0
BITMAP
E0
E0
E0
E0
E0
E0
E0
E0
60
60
60
60
00
00
00
E0
E0
ENDCHAR
STARTCHAR quotedbl
ENCODING 34
SWIDTH 602 0
DWIDTH 14 0
BBX 11 7 2 11
BITMAP
F1E0
F1E0
F1E0
F1E0
60C0
60C0
60C0
ENDCHAR
STARTCHAR numbersign
ENCODING 35
SWIDTH 602 0
DWIDTH 14 0
BBX 13 17 1 0
BITMAP
0730
0660
0660
0E60
7FF8
7FF8
0CC0
18C0
1980
FFF0
FFF0
3180
3300
3300
3300
6300
6600
ENDCHAR
STARTCHAR dollar
ENCODING 36
SWIDTH 602 0
DWIDTH 14 0
BBX 10 23 2 -3
BITMAP
0C00
0C00
0C00
3F80
7F80
F080
E000
E000
F000
7800
3E00
1F00
0F80
03C0
01C0
01C0
81C0
C380
FF80
7F00
0C00
0C00
0C00
ENDCHAR
STARTCHAR percent
ENCODING 37
SWIDTH 602 0
DWIDTH 14 0
BBX 15 17 0 0
BITMAP
381C
7C18
C638
C630
C660
C6E0
7CC0
3980
03B8
037C
06C6
0EC6
0CC6
18C6
38C6
307C
7038
ENDCHAR
STARTCHAR ampersand
ENCODING 38
SWIDTH 602 0
DWIDTH 14 0
BBX 14 17 0 0
BITMAP
0F80
1FC0
38E0
38E0
38E0
1DC0
1FC0
1F1C
3F1C
771C
E79C
E398
E3F8
E1F0
70F0
7FF8
1F7C
ENDCHAR
STARTCHAR quotesingle
ENCODING 39
SWIDTH 602 0
DWIDTH 14 0
BBX 4 7 5 11
BITMAP
F0
F0
F0
F0
60
60
60
ENDCHAR
STARTCHAR parenleft
ENCODING 40
SWIDTH 602 0
DWIDTH 14 0
BBX 9 22 4 -4
BITMAP
0180
0780
1E00
3C00
3800
7000
7000
E000
E000
E000
E000
E000
E000
E000
F000
7000
7000
3800
3C00
1F00
0780
0180
ENDCHAR
STARTCHAR parenright
ENCODING 41
SWIDTH 602 0
DWIDTH 14 0
BBX 9 22 2 -4
BITMAP
C000
F000
7C00
1C00
0E00
0700
0700
0780
0380
0380
0380
0380
0380
0380
0380
0700
0700
0E00
1E00
3C00
F000
C000
ENDCHAR
STARTCHAR asterisk
ENCODING 42
SWIDTH 602 0
DWIDTH 14 0
BBX 11 11 2 6
BITMAP
0E00
0E00
4440
64C0
F1E0
F1E0
0900
1B00
7B80
31C0
1100
ENDCHAR
STARTCHAR plus
ENCODING 43
SWIDTH 602 0
DWIDTH 14 0
BBX 12 13 1 0
BITMAP
0600
0600
0600
0600
0600
FFF0
FFF0
0600
0600
0600
0600
0600
0600
ENDCHAR
STARTCHAR comma
ENCODING 44
SWIDTH 602 0
DWIDTH 14 0
BBX 4 9 5 -4
BITMAP
F0
F0
F0
F0
F0
30
30
E0
C0
ENDCHAR
STARTCHAR hyphen
ENCODING 45
SWIDTH 602 0
DWIDTH 14 0
BBX 12 2 1 4
BITMAP
FFF0
FFF0
ENDCHAR
STARTCHAR period
ENCODING 46
SWIDTH 602 0
DWIDTH 14 0
BBX 4 3 5 0
BITMAP
F0
F0
F0
ENDCHAR
STARTCHAR slash
ENCODING 47
SWIDTH 602 0
DWIDTH 14 0
BBX 14 22 0 -4
BITMAP
001C
0018
0030
0030
0060
0060
00C0
00C0
0180
0180
0300
0300
0600
0600
0C00
0C00
1800
1800
3000
3000
6000
E000
ENDCHAR
STARTCHAR zero
ENCODING 48
SWIDTH 602 0
DWIDTH 14 0
BBX 13 17 1 0
BITMAP
0F80
3FE0
38E0
7070
6030
E038
E038
E038
E038
E038
E038
E038
6030
7070
38E0
3FE0
0F80
ENDCHAR
STARTCHAR one
ENCODING 49
SWIDTH 602 0
DWIDTH 14 0
BBX 9 17 3 0
BITMAP
FC00
FC00
1C00
1C00
1C00
1C00
1C00
1C00
1C00
1C00
1C00
1C00
1C00
1C00
1C00
FF80
FF80
ENDCHAR
STARTCHAR two
ENCODING 50
SWIDTH 602 0
DWIDTH 14 0
BBX 10 17 2 0
BITMAP
7E00
7F80
4380
01C0
01C0
01C0
01C0
0380
0700
0E00
1C00
3800
3800
7000
E000
FFC0
FFC0
ENDCHAR
STARTCHAR three
ENCODING 51
SWIDTH 602 0
DWIDTH 14 0
BBX 9 17 3 0
BITMAP
7E00
FF00
8780
0380
0380
0380
0F00
7C00
7E00
0F00
0380
0380
0380
0380
8700
FF00
FC00
ENDCHAR
STARTCHAR four
ENCODING 52
SWIDTH 602 0
DWIDTH 14 0
BBX 11 17 2 0
BITMAP
0380
0780
0F80
0F80
1F80
1B80
3380
3380
6380
E380
FFE0
FFE0
FFE0
0380
0380
0380
0380
ENDCHAR
STARTCHAR five
ENCODING 53
SWIDTH 602 0
DWIDTH 14 0
BBX 9 17 3 0
BITMAP
FF80
FF80
E000
E000
E000
C000
F800
FE00
0F00
0780
0380
0380
0380
0380
8700
FE00
FC00
ENDCHAR
STARTCHAR six
ENCODING 54
SWIDTH 602 0
DWIDTH 14 0
BBX 12 17 1 0
BITMAP
07E0
1FE0
3C20
7000
7000
E000
E780
FFE0
F0E0
E070
E070
E070
E070
7070
70E0
3FC0
0F80
ENDCHAR
STARTCHAR seven
ENCODING 55
SWIDTH 602 0
DWIDTH 14 0
BBX 10 17 3 0
BITMAP
FFC0
FFC0
01C0
0180
0380
0700
0700
0E00
0C00
1C00
1800
3800
3800
3000
7000
7000
7000
ENDCHAR
STARTCHAR eight
ENCODING 56
SWIDTH 602 0
DWIDTH 14 0
BBX 12 17 1 0
BITMAP
0F80
3FC0
71E0
70E0
70E0
7DE0
3FC0
1F00
1FC0
7FE0
F1F0
E0F0
E070
E070
F0E0
7FE0
1F80
ENDCHAR
STARTCHAR nine
ENCODING 57
SWIDTH 602 0
DWIDTH 14 0
BBX 12 17 1 0
BITMAP
1F00
3FC0
70E0
E0E0
E070
E070
E070
E070
70F0
7FF0
1E70
0070
00E0
00E0
43C0
7F80
7E00
ENDCHAR
STARTCHAR colon
ENCODING 58
SWIDTH 602 0
DWIDTH 14 0
BBX 3 13 6 0
BITMAP
E0
E0
E0
00
00
00
00
00
00
00
E0
E0
E0
ENDCHAR
STARTCHAR semicolon
ENCODING 59
SWIDTH 602 0
DWIDTH 14 0
BBX 3 17 6 -4
BITMAP
E0
E0
E0
00
00
00
00
00
00
E0
E0
E0
E0
60
60
E0
C0
ENDCHAR
STARTCHAR less
ENCODING 60
SWIDTH 602 0
DWIDTH 14 0
BBX 11 13 0 0
BITMAP
0020
0060
01E0
0780
1F00
3C00
F000
3C00
1F00
0780
01E0
0060
0020
ENDCHAR
STARTCHAR equal
ENCODING 61
SWIDTH 602 0
DWIDTH 14 0
BBX 12 9 1 2
BITMAP
FFF0
FFF0
0000
0000
0000
0000
0000
FFF0
FFF0
ENDCHAR
STARTCHAR greater
ENCODING 62
SWIDTH 602 0
DWIDTH 14 0
BBX 11 13 1 0
BITMAP
8000
C000
F000
3C00
1F00
0780
01E0
0780
1F00
3C00
F000
C000
8000
ENDCHAR
STARTCHAR question
ENCODING 63
SWIDTH 602 0
DWIDTH 14 0
BBX 11 17 2 0
BITMAP
7F00
FFC0
C1E0
C0E0
C0E0
01E0
03C0
0700
0E00
1C00
3800
3800
0000
0000
0000
3800
3800
ENDCHAR
STARTCHAR at
ENCODING 64
SWIDTH 602 0
DWIDTH 14 0
BBX 14 17 0 0
BITMAP
07C0
1FF0
3C38
7018
61D8
67F8
C618
CC18
CC38
CC78
CCF8
CFDC
679C
7000
3820
1FE0
0FC0
ENDCHAR
STARTCHAR A
ENCODING 65
SWIDTH 602 0
DWIDTH 14 0
BBX 14 17 0 0
BITMAP
0380
0780
07C0
07C0
0DC0
0DC0
0CE0
18E0
18E0
18F0
3070
3FF0
3FF0
6038
6038
6038
C01C
ENDCHAR
STARTCHAR B
ENCODING 66
SWIDTH 602 0
DWIDTH 14 0
BBX 12 17 2 0
BITMAP
FF80
FFC0
E1E0
E0E0
E0E0
E0E0
E3C0
FF80
FFC0
E1E0
E0F0
E070
E070
E070
E0F0
FFE0
FF80
ENDCHAR
STARTCHAR C
ENCODING 67
SWIDTH 602 0
DWIDTH 14 0
BBX 13 17 1 0
BITMAP
07F8
1FF8
3C18
7800
7000
E000
E000
E000
E000
E000
E000
E000
7000
7800
3C08
1FF8
07F0
ENDCHAR
STARTCHAR D
ENCODING 68
SWIDTH 602 0
DWIDTH 14 0
BBX 13 17 1 0
BITMAP
FF80
FFE0
E1F0
E070
E078
E038
E038
E038
E038
E038
E038
E038
E070
E070
E1E0
FFC0
FF00
ENDCHAR
STARTCHAR E
ENCODING 69
SWIDTH 602 0
DWIDTH 14 0
BBX 11 17 2 0
BITMAP
FFC0
FFC0
E000
E000
E000
E000
E000
FF80
FF80
E000
E000
E000
E000
E000
E000
FFE0
FFE0
ENDCHAR
STARTCHAR F
ENCODING 70
SWIDTH 602 0
DWIDTH 14 0
BBX 12 17 2 0
BITMAP
FFF0
FFF0
E000
E000
E000
E000
E000
E000
FFE0
FFE0
E000
E000
E000
E000
E000
E000
E000
ENDCHAR
STARTCHAR G
ENCODING 71
SWIDTH 602 0
DWIDTH 14 0
BBX 14 17 0 0
BITMAP
07F8
1FFC
3C0C
7800
7000
F000
E000
E000
E000
E01C
E01C
F01C
701C
781C
3E1C
1FFC
07F8
ENDCHAR
STARTCHAR H
ENCODING 72
SWIDTH 602 0
DWIDTH 14 0
BBX 12 17 1 0
BITMAP
E070
E070
E070
E070
E070
E070
E070
FFF0
FFF0
E070
E070
E070
E070
E070
E070
E070
E070
ENDCHAR
STARTCHAR I
ENCODING 73
SWIDTH 602 0
DWIDTH 14 0
BBX 11 17 2 0
BITMAP
FFE0
FFE0
0E00
0E00
0E00
0E00
0E00
0E00
0E00
0E00
0E00
0E00
0E00
0E00
0E00
FFE0
FFE0
ENDCHAR
STARTCHAR J
ENCODING 74
SWIDTH 602 0
DWIDTH 14 0
BBX 10 17 2 0
BITMAP
7FC0
7FC0
01C0
01C0
01C0
01C0
01C0
01C0
01C0
01C0
01C0
01C0
01C0
01C0
8380
FF80
FE00
ENDCHAR
STARTCHAR K
ENCODING 75
SWIDTH 602 0
DWIDTH 14 0
BBX 12 17 2 0
BITMAP
E070
E0E0
E1C0
E380
E300
E600
EE00
FC00
FC00
FE00
EF00
E700
E780
E3C0
E1C0
E1E0
E0F0
ENDCHAR
STARTCHAR L
ENCODING 76
SWIDTH 602 0
DWIDTH 14 0
BBX 11 17 3 0
BITMAP
E000
E000
E000
E000
E000
E000
E000
E000
E000
E000
E000
E000
E000
E000
E000
FFE0
FFE0
ENDCHAR
STARTCHAR M
ENCODING 77
SWIDTH 602 0
DWIDTH 14 0
BBX 13 17 1 0
BITMAP
F078
F078
F0F8
F0F8
F8F8
D8F8
D8F8
D9B8
D9B8
CDB8
CDB8
CF38
CF38
CF38
C738
C638
C038
ENDCHAR
STARTCHAR N
ENCODING 78
SWIDTH 602 0
DWIDTH 14 0
BBX 12 17 1 0
BITMAP
E030
F030
F030
F830
FC30
DC30
DE30
CE30
CF30
C730
C3B0
C3B0
C1F0
C1F0
C0F0
C0F0
C070
ENDCHAR
STARTCHAR O
ENCODING 79
SWIDTH 602 0
DWIDTH 14 0
BBX 14 17 0 0
BITMAP
0FC0
1FE0
3870
7038
6018
E01C
E01C
E01C
E01C
E01C
E01C
E01C
6018
7038
3870
1FE0
0FC0
ENDCHAR
STARTCHAR P
ENCODING 80
SWIDTH 602 0
DWIDTH 14 0
BBX 12 17 2 0
BITMAP
FF80
FFE0
E0F0
E070
E070
E070
E070
E1E0
FFC0
FF80
E000
E000
E000
E000
E000
E000
E000
ENDCHAR
STARTCHAR Q
ENCODING 81
SWIDTH 602 0
DWIDTH 14 0
BBX 15 21 0 -4
BITMAP
0FC0
1FE0
3870
7038
6018
E01C
E01C
E01C
E01C
E01C
E01C
E01C
601C
7038
3878
1FF0
0FE0
00FE
007C
003C
0008
ENDCHAR
STARTCHAR R
ENCODING 82
SWIDTH 602 0
DWIDTH 14 0
BBX 12 17 2 0
BITMAP
FF80
FFC0
E1E0
E0E0
E0E0
E0E0
E1E0
E3C0
FF80
FF00
E780
E380
E3C0
E1C0
E1C0
E0E0
E0F0
ENDCHAR
STARTCHAR S
ENCODING 83
SWIDTH 602 0
DWIDTH 14 0
BBX 12 17 1 0
BITMAP
1FE0
7FE0
F020
E000
E000
F000
7C00
3F00
0FC0
07E0
01F0
0070
0070
0070
C0E0
FFC0
FF80
ENDCHAR
STARTCHAR T
ENCODING 84
SWIDTH 602 0
DWIDTH 14 0
BBX 13 17 1 0
BITMAP
FFF8
FFF8
0700
0700
0700
0700
0700
0700
0700
0700
0700
0700
0700
0700
0700
0700
0700
ENDCHAR
STARTCHAR U
ENCODING 85
SWIDTH 602 0
DWIDTH 14 0
BBX 12 17 1 0
BITMAP
E070
E070
E070
E070
E070
E070
E070
E070
E070
E070
E070
E070
E070
E070
70E0
7FE0
1F80
ENDCHAR
STARTCHAR V
ENCODING 86
SWIDTH 602 0
DWIDTH 14 0
BBX 14 17 0 0
BITMAP
F00C
7018
7018
7018
3830
3830
3830
3C60
1C60
1C60
1CC0
0EC0
0EC0
0F80
0780
0780
0700
ENDCHAR
STARTCHAR W
ENCODING 87
SWIDTH 602 0
DWIDTH 14 0
BBX 14 17 0 0
BITMAP
E00C
E38C
E38C
E38C
73D8
77D8
77D8
77D8
76D8
7ED8
7CF8
7CF8
3CF8
3CF0
3870
3870
3870
ENDCHAR
STARTCHAR X
ENCODING 88
SWIDTH 602 0
DWIDTH 14 0
BBX 14 17 0 0
BITMAP
F018
7830
3830
3C60
1CE0
0EC0
0FC0
0780
0780
0780
0FC0
0DE0
18E0
38F0
3070
6078
E03C
ENDCHAR
STARTCHAR Y
ENCODING 89
SWIDTH 602 0
DWIDTH 14 0
BBX 14 17 0 0
BITMAP
F01C
7018
3830
3870
1C60
1CE0
0EC0
0F80
0780
0700
0700
0700
0700
0700
0700
0700
0700
ENDCHAR
STARTCHAR Z
ENCODING 90
SWIDTH 602 0
DWIDTH 14 0
BBX 12 17 1 0
BITMAP
FFF0
FFF0
00E0
01E0
01C0
03C0
0780
0700
0F00
0E00
1E00
3C00
3800
7800
F000
FFF0
FFF0
ENDCHAR
STARTCHAR bracketleft
ENCODING 91
SWIDTH 602 0
DWIDTH 14 0
BBX 9 22 4 -4
BITMAP
FF80
FF80
E000
E000
E000
E000
E000
E000
E000
E000
E000
E000
E000
E000
E000
E000
E000
E000
E000
E000
FF80
FF80
ENDCHAR
STARTCHAR backslash
ENCODING 92
SWIDTH 602 0
DWIDTH 14 0
BBX 14 22 0 -4
BITMAP
E000
6000
3000
3000
1800
1800
0C00
0C00
0600
0600
0300
0300
0180
0180
00C0
00C0
0060
0060
0030
0030
0018
001C
ENDCHAR
STARTCHAR bracketright
ENCODING 93
SWIDTH 602 0
DWIDTH 14 0
BBX 9 22 1 -4
BITMAP
FF80
FF80
0380
0380
0380
0380
0380
0380
0380
0380
0380
0380
0380
0380
0380
0380
0380
0380
0380
0380
FF80
FF80
ENDCHAR
STARTCHAR asciicircum
ENCODING 94
SWIDTH 602 0
DWIDTH 14 0
BBX 12 13 1 3
BITMAP
0200
0600
0600
0F00
0F00
1F80
1980
1980
30C0
30C0
70E0
6060
E070
ENDCHAR
STARTCHAR underscore
ENCODING 95
SWIDTH 602 0
DWIDTH 14 0
BBX 14 2 0 -3
BITMAP
FFFC
FFFC
ENDCHAR
STARTCHAR grave
ENCODING 96
SWIDTH 602 0
DWIDTH 14 0
BBX 6 3 4 15
BITMAP
F0
38
1C
ENDCHAR
STARTCHAR a
ENCODING 97
SWIDTH 602 0
DWIDTH 14 0
BBX 13 13 1 0
BITMAP
3FC0
7FE0
60F0
0070
0070
1FF0
7FF0
F070
E070
E070
F1F8
7FF8
3E78
ENDCHAR
STARTCHAR b
ENCODING 98
SWIDTH 602 0
DWIDTH 14 0
BBX 12 18 2 0
BITMAP
E000
E000
E000
E000
E000
E780
EFE0
FFE0
F8F0
F070
E070
E070
E070
E070
E0E0
F1E0
FFC0
EF80
ENDCHAR
STARTCHAR c
ENCODING 99
SWIDTH 602 0
DWIDTH 14 0
BBX 12 13 1 0
BITMAP
0FF0
3FF0
7830
7000
E000
E000
E000
E000
E000
7000
7C10
3FF0
0FF0
ENDCHAR
STARTCHAR d
ENCODING 100
SWIDTH 602 0
DWIDTH 14 0
BBX 12 18 1 0
BITMAP
0070
0070
0070
0070
0070
1F70
3FF0
78F0
7070
E070
E070
E070
E070
E0F0
F1F0
7FF0
7F70
1E70
ENDCHAR
STARTCHAR e
ENCODING 101
SWIDTH 602 0
DWIDTH 14 0
BBX 13 13 1 0
BITMAP
0FC0
3FE0
7870
7038
E038
FFF8
FFF8
E000
E000
7000
7818
3FF8
0FF0
ENDCHAR
STARTCHAR f
ENCODING 102
SWIDTH 602 0
DWIDTH 14 0
BBX 11 18 3 0
BITMAP
0FE0
1FE0
3820
3800
3800
FFC0
FFC0
3800
3800
3800
3800
3800
3800
3800
3800
3800
3800
3800
ENDCHAR
STARTCHAR g
ENCODING 103
SWIDTH 602 0
DWIDTH 14 0
BBX 12 18 1 -5
BITMAP
1F70
3FF0
70F0
7070
E070
E070
E070
E070
E0F0
F1F0
7FF0
7F70
1E70
0070
0060
60E0
7FC0
1F80
ENDCHAR
STARTCHAR h
ENCODING 104
SWIDTH 602 0
DWIDTH 14 0
BBX 11 18 2 0
BITMAP
E000
E000
E000
E000
E000
E780
EFC0
FFE0
F8E0
E0E0
E0E0
E0E0
E0E0
E0E0
E0E0
E0E0
E0E0
E0E0
ENDCHAR
STARTCHAR i
ENCODING 105
SWIDTH 602 0
DWIDTH 14 0
BBX 8 18 2 0
BITMAP
07
07
07
00
00
FF
FF
07
07
07
07
07
07
07
07
07
07
07
ENDCHAR
STARTCHAR j
ENCODING 106
SWIDTH 602 0
DWIDTH 14 0
BBX 9 23 2 -5
BITMAP
0380
0380
0380
0000
0000
7F80
7F80
0380
0380
0380
0380
0380
0380
0380
0380
0380
0380
0380
0380
0380
8780
FF00
FE00
ENDCHAR
STARTCHAR k
ENCODING 107
SWIDTH 602 0
DWIDTH 14 0
BBX 12 18 2 0
BITMAP
E000
E000
E000
E000
E000
E0E0
E180
E380
E700
E600
EC00
FE00
EF00
E780
E380
E3C0
E1E0
E0F0
ENDCHAR
STARTCHAR l
ENCODING 108
SWIDTH 602 0
DWIDTH 14 0
BBX 8 18 1 0
BITMAP
FF
FF
07
07
07
07
07
07
07
07
07
07
07
07
07
07
07
07
ENDCHAR
STARTCHAR m
ENCODING 109
SWIDTH 602 0
DWIDTH 14 0
BBX 13 13 1 0
BITMAP
E670
EF78
FFF8
F7B8
E738
E738
E738
E738
E738
E738
E738
E738
E738
ENDCHAR
STARTCHAR n
ENCODING 110
SWIDTH 602 0
DWIDTH 14 0
BBX 11 13 2 0
BITMAP
E780
EFC0
FFE0
F8E0
E0E0
E0E0
E0E0
E0E0
E0E0
E0E0
E0E0
E0E0
E0E0
ENDCHAR
STARTCHAR o
ENCODING 111
SWIDTH 602 0
DWIDTH 14 0
BBX 13 13 1 0
BITMAP
0F80
3FE0
78F0
7070
E038
E038
E038
E038
E038
7070
78F0
3FE0
0F80
ENDCHAR
STARTCHAR p
ENCODING 112
SWIDTH 602 0
DWIDTH 14 0
BBX 12 18 1 -5
BITMAP
E780
EFE0
FFE0
F8F0
F070
E070
E070
E070
E070
E0E0
F1E0
FFC0
EF80
E000
E000
E000
E000
E000
ENDCHAR
STARTCHAR q
ENCODING 113
SWIDTH 602 0
DWIDTH 14 0
BBX 12 18 1 -5
BITMAP
1F70
3FF0
78F0
7070
E070
E070
E070
E070
E0F0
F1F0
7FF0
7F70
1E70
0070
0070
0070
0070
0070
ENDCHAR
STARTCHAR r
ENCODING 114
SWIDTH 602 0
DWIDTH 14 0
BBX 10 13 3 0
BITMAP
E7C0
EFC0
FFC0
F8C0
F0C0
E000
E000
E000
E000
E000
E000
E000
E000
ENDCHAR
STARTCHAR s
ENCODING 115
SWIDTH 602 0
DWIDTH 14 0
BBX 11 13 2 0
BITMAP
1FC0
7FC0
F040
F000
F800
7F00
3FC0
07E0
01E0
00E0
C1E0
FFC0
7F00
ENDCHAR
STARTCHAR t
ENCODING 116
SWIDTH 602 0
DWIDTH 14 0
BBX 11 16 2 0
BITMAP
1C00
1C00
1C00
FFE0
FFE0
1C00
1C00
1C00
1C00
1C00
1C00
1C00
1C00
1E20
0FE0
07E0
ENDCHAR
STARTCHAR u
ENCODING 117
SWIDTH 602 0
DWIDTH 14 0
BBX 11 13 2 0
BITMAP
E0E0
E0E0
E0E0
E0E0
E0E0
E0E0
E0E0
E0E0
E0E0
E3E0
FFE0
7EE0
3CE0
ENDCHAR
STARTCHAR v
ENCODING 118
SWIDTH 602 0
DWIDTH 14 0
BBX 14 13 0 0
BITMAP
F01C
7018
7018
3830
3830
3C70
1C60
1C60
0EC0
0EC0
0F80
0780
0780
ENDCHAR
STARTCHAR w
ENCODING 119
SWIDTH 602 0
DWIDTH 14 0
BBX 14 13 0 0
BITMAP
E00C
E38C
E38C
7798
77D8
77D8
7FD8
7CD8
7CF8
3CF0
38F0
3870
3870
ENDCHAR
STARTCHAR x
ENCODING 120
SWIDTH 602 0
DWIDTH 14 0
BBX 13 13 1 0
BITMAP
F030
7860
3CE0
1DC0
0F80
0F00
0700
0F80
1FC0
19C0
31E0
70F0
E078
ENDCHAR
STARTCHAR y
ENCODING 121
SWIDTH 602 0
DWIDTH 14 0
BBX 14 18 0 -5
BITMAP
F01C
7018
7838
3830
3C30
1C60
1E60
0EC0
0EC0
07C0
0780
0380
0300
0300
0600
0600
7C00
7800
ENDCHAR
STARTCHAR z
ENCODING 122
SWIDTH 602 0
DWIDTH 14 0
BBX 12 13 1 0
BITMAP
FFF0
FFF0
01E0
01C0
03C0
0780
0F00
1E00
3C00
7800
F000
FFF0
FFF0
ENDCHAR
STARTCHAR braceleft
ENCODING 123
SWIDTH 602 0
DWIDTH 14 0
BBX 10 22 3 -4
BITMAP
07C0
1FC0
1C00
1C00
1C00
0E00
0E00
0E00
0E00
0C00
F800
F800
0C00
0E00
0E00
0E00
1E00
1C00
1C00
1C00
1FC0
07C0
ENDCHAR
STARTCHAR bar
ENCODING 124
SWIDTH 602 0
DWIDTH 14 0
BBX 2 22 6 -4
BITMAP
C0
C0
C0
C0
C0
C0
C0
C0
C0
C0
C0
C0
C0
C0
C0
C0
C0
C0
C0
C0
C0
C0
ENDCHAR
STARTCHAR braceright
ENCODING 125
SWIDTH 602 0
DWIDTH 14 0
BBX 10 22 2 -4
BITMAP
F800
FE00
0E00
0E00
0E00
1E00
1C00
1C00
1C00
0C00
07C0
07C0
0C00
1C00
1C00
1C00
1C00
0E00
0E00
0E00
FE00
F800
ENDCHAR
STARTCHAR asciitilde
ENCODING 126
SWIDTH 602 0
DWIDTH 14 0
BBX 12 5 1 4
BITMAP
3830
7C30
CF30
C3E0
C1C0
ENDCHAR
STARTCHAR space
ENCODING 160
SWIDTH 602 0
DWIDTH 14 0
BBX 1 1 0 0
BITMAP
00
ENDCHAR
STARTCHAR exclamdown
ENCODING 161
SWIDTH 602 0
DWIDTH 14 0
BBX 3 18 6 -5
BITMAP
E0
E0
E0
00
00
60
60
60
60
60
E0
E0
E0
E0
E0
E0
E0
E0
ENDCHAR
STARTCHAR cent
ENCODING 162
SWIDTH 602 0
DWIDTH 14 0
BBX 11 17 2 0
BITMAP
0300
0300
07E0
1FE0
3860
7000
E000
E000
E000
E000
E000
7000
7820
3FE0
0FE0
0300
0300
ENDCHAR
STARTCHAR sterling
ENCODING 163
SWIDTH 602 0
DWIDTH 14 0
BBX 9 17 3 0
BITMAP
0F80
1F80
3800
3800
3800
3800
3800
FE00
FE00
3800
3800
3800
3800
3000
7000
FF80
FF80
ENDCHAR
STARTCHAR currency
ENCODING 164
SWIDTH 602 0
DWIDTH 14 0
BBX 13 13 1 2
BITMAP
6030
FFF8
FFF0
78E0
7070
6030
6030
6030
7070
78E0
FFF0
FFF8
6010
ENDCHAR
STARTCHAR yen
ENCODING 165
SWIDTH 602 0
DWIDTH 14 0
BBX 14 17 0 0
BITMAP
F01C
7838
3830
3C60
1EE0
0FC0
0F80
0700
3FE0
3FE0
0700
3FE0
3FE0
0700
0700
0700
0700
ENDCHAR
STARTCHAR brokenbar
ENCODING 166
SWIDTH 602 0
DWIDTH 14 0
BBX 2 22 6 -4
BITMAP
C0
C0
C0
C0
C0
C0
C0
C0
C0
00
00
00
00
C0
C0
C0
C0
C0
C0
C0
C0
C0
ENDCHAR
STARTCHAR section
ENCODING 167
SWIDTH 602 0
DWIDTH 14 0
BBX 10 22 2 -5
BITMAP
1F80
7F80
E080
E000
E000
F000
7C00
3F00
6780
C1C0
C0C0
C0C0
F0C0
7D80
3F00
1F80
07C0
01C0
01C0
C3C0
FF80
FE00
ENDCHAR
STARTCHAR dieresis
ENCODING 168
SWIDTH 602 0
DWIDTH 14 0
BBX 7 2 4 15
BITMAP
EE
EE
ENDCHAR
STARTCHAR copyright
ENCODING 169
SWIDTH 602 0
DWIDTH 14 0
BBX 13 17 1 0
BITMAP
0F80
3FE0
7070
6030
C798
CF98
D898
D818
D818
D818
D898
CF98
E7B8
6030
7070
3FE0
0F80
ENDCHAR
STARTCHAR ordfeminine
ENCODING 170
SWIDTH 602 0
DWIDTH 14 0
BBX 11 9 2 8
BITMAP
7F00
FFC0
C0C0
3FC0
7FC0
C0C0
C1C0
FFE0
7CE0
ENDCHAR
STARTCHAR guillemotleft
ENCODING 171
SWIDTH 602 0
DWIDTH 14 0
BBX 13 11 1 1
BITMAP
0410
0E38
1C70
18E0
38C0
F3C0
79E0
3CF0
1C70
0E38
0410
ENDCHAR
STARTCHAR logicalnot
ENCODING 172
SWIDTH 602 0
DWIDTH 14 0
BBX 12 6 1 2
BITMAP
FFF0
FFF0
0030
0030
0030
0030
ENDCHAR
STARTCHAR hyphen
ENCODING 173
SWIDTH 602 0
DWIDTH 14 0
BBX 10 2 2 7
BITMAP
FFC0
FFC0
ENDCHAR
STARTCHAR registered
ENCODING 174
SWIDTH 602 0
DWIDTH 14 0
BBX 13 12 1 5
BITMAP
0F80
3FE0
7070
6FB0
CD98
CD98
CF18
CD98
6DB0
7070
3FE0
0F80
ENDCHAR
STARTCHAR macron
ENCODING 175
SWIDTH 602 0
DWIDTH 14 0
BBX 7 2 4 15
BITMAP
FE
FE
ENDCHAR
STARTCHAR degree
ENCODING 176
SWIDTH 602 0
DWIDTH 14 0
BBX 4 4 5 13
BITMAP
60
90
90
60
ENDCHAR
STARTCHAR plusminus
ENCODING 177
SWIDTH 602 0
DWIDTH 14 0
BBX 12 13 1 0
BITMAP
0600
0600
0600
FFF0
FFF0
0600
0600
0600
0600
0000
0000
FFF0
FFF0
ENDCHAR
STARTCHAR twosuperior
ENCODING 178
SWIDTH 602 0
DWIDTH 14 0
BBX 5 9 -3 8
BITMAP
F0
F8
18
18
38
70
E0
F8
F8
ENDCHAR
STARTCHAR threesuperior
ENCODING 179
SWIDTH 602 0
DWIDTH 14 0
BBX 5 9 -3 8
BITMAP
F0
F8
18
70
70
18
18
F8
F0
ENDCHAR
STARTCHAR acute
ENCODING 180
SWIDTH 602 0
DWIDTH 14 0
BBX 6 3 4 15
BITMAP
3C
70
E0
ENDCHAR
STARTCHAR mu
ENCODING 181
SWIDTH 602 0
DWIDTH 14 0
BBX 11 17 2 -4
BITMAP
E0E0
E0E0
E0E0
E0E0
E0E0
E0E0
E0E0
E0E0
E0E0
F1E0
FFE0
FFE0
FEE0
E000
E000
E000
E000
ENDCHAR
STARTCHAR paragraph
ENCODING 182
SWIDTH 602 0
DWIDTH 14 0
BBX 9 21 2 -4
BITMAP
7F80
FF80
FD80
FD80
FD80
FD80
7D80
7D80
1D80
0D80
0D80
0D80
0D80
0D80
0D80
0D80
0D80
0D80
0D80
0D80
0D80
ENDCHAR
STARTCHAR periodcentered
ENCODING 183
SWIDTH 602 0
DWIDTH 14 0
BBX 3 3 6 4
BITMAP
E0
E0
E0
ENDCHAR
STARTCHAR cedilla
ENCODING 184
SWIDTH 602 0
DWIDTH 14 0
BBX 5 6 5 -5
BITMAP
60
60
F0
38
18
F0
ENDCHAR
STARTCHAR onesuperior
ENCODING 185
SWIDTH 602 0
DWIDTH 14 0
BBX 6 9 -2 8
BITMAP
F0
F0
30
30
30
30
30
FC
FC
ENDCHAR
STARTCHAR ordmasculine
ENCODING 186
SWIDTH 602 0
DWIDTH 14 0
BBX 11 9 2 8
BITMAP
1F00
7FC0
E0E0
C060
C060
C060
E0E0
7FC0
1F00
ENDCHAR
STARTCHAR guillemotright
ENCODING 187
SWIDTH 602 0
DWIDTH 14 0
BBX 13 11 1 1
BITMAP
4100
E380
71C0
79E0
3CF0
1E78
18E0
38C0
71C0
E380
4100
ENDCHAR
STARTCHAR onequarter
ENCODING 188
SWIDTH 602 0
DWIDTH 14 0
BBX 14 17 1 0
BITMAP
F01C
F018
3030
3070
3060
30C0
31C0
FF80
FF38
0738
0E78
0C78
18D8
38FC
30FC
6018
E018
ENDCHAR
STARTCHAR onehalf
ENCODING 189
SWIDTH 602 0
DWIDTH 14 0
BBX 14 17 1 0
BITMAP
F01C
F018
3030
3070
3060
30C0
31C0
FF80
FF78
077C
0E0C
0C0C
181C
3838
3070
607C
E07C
ENDCHAR
STARTCHAR threequarters
ENCODING 190
SWIDTH 602 0
DWIDTH 14 0
BBX 14 17 1 0
BITMAP
F01C
F818
1830
7070
7060
18C0
19C0
FB80
F338
0738
0E78
0C78
18D8
38FC
30FC
6018
E018
ENDCHAR
STARTCHAR questiondown
ENCODING 191
SWIDTH 602 0
DWIDTH 14 0
BBX 11 18 1 -5
BITMAP
0380
0380
0380
0000
0000
0380
0380
0380
0700
1E00
3800
7000
E000
E060
E060
F060
7FE0
1FC0
ENDCHAR
STARTCHAR Agrave
ENCODING 192
SWIDTH 602 0
DWIDTH 14 0
BBX 14 21 0 0
BITMAP
0F00
0380
01C0
0000
0380
0780
07C0
07C0
0DC0
0DC0
0CE0
18E0
18E0
18F0
3070
3FF0
3FF0
6038
6038
6038
C01C
ENDCHAR
STARTCHAR Aacute
ENCODING 193
SWIDTH 602 0
DWIDTH 14 0
BBX 14 21 0 0
BITMAP
03C0
0700
0E00
0000
0380
0780
07C0
07C0
0DC0
0DC0
0CE0
18E0
18E0
18F0
3070
3FF0
3FF0
6038
6038
6038
C01C
ENDCHAR
STARTCHAR Acircumflex
ENCODING 194
SWIDTH 602 0
DWIDTH 14 0
BBX 14 21 0 0
BITMAP
0700
0D80
1DC0
0000
0380
0780
07C0
07C0
0DC0
0DC0
0CE0
18E0
18E0
18F0
3070
3FF0
3FF0
6038
6038
6038
C01C
ENDCHAR
STARTCHAR Atilde
ENCODING 195
SWIDTH 602 0
DWIDTH 14 0
BBX 14 21 0 0
BITMAP
0760
0FE0
0DC0
0000
0380
0780
07C0
07C0
0DC0
0DC0
0CE0
18E0
18E0
18F0
3070
3FF0
3FF0
6038
6038
6038
C01C
ENDCHAR
STARTCHAR Adieresis
ENCODING 196
SWIDTH 602 0
DWIDTH 14 0
BBX 14 20 0 0
BITMAP
1DC0
1DC0
0000
0380
0780
07C0
07C0
0DC0
0DC0
0CE0
18E0
18E0
18F0
3070
3FF0
3FF0
6038
6038
6038
C01C
ENDCHAR
STARTCHAR Aring
ENCODING 197
SWIDTH 602 0
DWIDTH 14 0
BBX 14 21 0 0
BITMAP
0300
0480
0300
0000
0380
0780
07C0
07C0
0DC0
0DC0
0CE0
18E0
18E0
18F0
3070
3FF0
3FF0
6038
6038
6038
C01C
ENDCHAR
STARTCHAR AE
ENCODING 198
SWIDTH 602 0
DWIDTH 14 0
BBX 14 17 0 0
BITMAP
01FC
03FC
03C0
07C0
07C0
07C0
0DC0
0DF8
1DF8
19C0
19C0
31C0
3FC0
7FC0
61C0
61FC
C1FC
ENDCHAR
STARTCHAR Ccedilla
ENCODING 199
SWIDTH 602 0
DWIDTH 14 0
BBX 13 22 1 -5
BITMAP
07F8
1FF8
3C18
7800
7000
E000
E000
E000
E000
E000
E000
E000
7000
7800
3C08
1FF8
07F0
0300
0780
01C0
00C0
0780
ENDCHAR
STARTCHAR Egrave
ENCODING 200
SWIDTH 602 0
DWIDTH 14 0
BBX 11 21 2 0
BITMAP
3C00
0E00
0700
0000
FFC0
FFC0
E000
E000
E000
E000
E000
FF80
FF80
E000
E000
E000
E000
E000
E000
FFE0
FFE0
ENDCHAR
STARTCHAR Eacute
ENCODING 201
SWIDTH 602 0
DWIDTH 14 0
BBX 11 21 2 0
BITMAP
0F00
1C00
3800
0000
FFC0
FFC0
E000
E000
E000
E000
E000
FF80
FF80
E000
E000
E000
E000
E000
E000
FFE0
FFE0
ENDCHAR
STARTCHAR Ecircumflex
ENCODING 202
SWIDTH 602 0
DWIDTH 14 0
BBX 11 21 2 0
BITMAP
0E00
1B00
3B80
0000
FFC0
FFC0
E000
E000
E000
E000
E000
FF80
FF80
E000
E000
E000
E000
E000
E000
FFE0
FFE0
ENDCHAR
STARTCHAR Edieresis
ENCODING 203
SWIDTH 602 0
DWIDTH 14 0
BBX 11 20 2 0
BITMAP
3B80
3B80
0000
FFC0
FFC0
E000
E000
E000
E000
E000
FF80
FF80
E000
E000
E000
E000
E000
E000
FFE0
FFE0
ENDCHAR
STARTCHAR Igrave
ENCODING 204
SWIDTH 602 0
DWIDTH 14 0
BBX 11 21 2 0
BITMAP
1E00
0700
0380
0000
FFE0
FFE0
0E00
0E00
0E00
0E00
0E00
0E00
0E00
0E00
0E00
0E00
0E00
0E00
0E00
FFE0
FFE0
ENDCHAR
STARTCHAR Iacute
ENCODING 205
SWIDTH 602 0
DWIDTH 14 0
BBX 11 21 2 0
BITMAP
0F00
1C00
3800
0000
FFE0
FFE0
0E00
0E00
0E00
0E00
0E00
0E00
0E00
0E00
0E00
0E00
0E00
0E00
0E00
FFE0
FFE0
ENDCHAR
STARTCHAR Icircumflex
ENCODING 206
SWIDTH 602 0
DWIDTH 14 0
BBX 11 21 2 0
BITMAP
0E00
1B00
3B80
0000
FFE0
FFE0
0E00
0E00
0E00
0E00
0E00
0E00
0E00
0E00
0E00
0E00
0E00
0E00
0E00
FFE0
FFE0
ENDCHAR
STARTCHAR Idieresis
ENCODING 207
SWIDTH 602 0
DWIDTH 14 0
BBX 11 20 2 0
BITMAP
3B80
3B80
0000
FFE0
FFE0
0E00
0E00
0E00
0E00
0E00
0E00
0E00
0E00
0E00
0E00
0E00
0E00
0E00
FFE0
FFE0
ENDCHAR
STARTCHAR Eth
ENCODING 208
SWIDTH 602 0
DWIDTH 14 0
BBX 14 17 0 0
BITMAP
7FC0
7FF0
70F8
7038
703C
701C
701C
FF1C
FF1C
701C
701C
701C
7038
7038
70F0
7FE0
7F80
ENDCHAR
STARTCHAR Ntilde
ENCODING 209
SWIDTH 602 0
DWIDTH 14 0
BBX 12 21 1 0
BITMAP
0EC0
1FC0
1B80
0000
E030
F030
F030
F830
FC30
DC30
DE30
CE30
CF30
C730
C3B0
C3B0
C1F0
C1F0
C0F0
C0F0
C070
ENDCHAR
STARTCHAR Ograve
ENCODING 210
SWIDTH 602 0
DWIDTH 14 0
BBX 14 21 0 0
BITMAP
0F00
0380
01C0
0000
0FC0
1FE0
3870
7038
6018
E01C
E01C
E01C
E01C
E01C
E01C
E01C
6018
7038
3870
1FE0
0FC0
ENDCHAR
STARTCHAR Oacute
ENCODING 211
SWIDTH 602 0
DWIDTH 14 0
BBX 14 21 0 0
BITMAP
03C0
0700
0E00
0000
0FC0
1FE0
3870
7038
6018
E01C
E01C
E01C
E01C
E01C
E01C
E01C
6018
7038
3870
1FE0
0FC0
ENDCHAR
STARTCHAR Ocircumflex
ENCODING 212
SWIDTH 602 0
DWIDTH 14 0
BBX 14 21 0 0
BITMAP
0700
0D80
1DC0
0000
0FC0
1FE0
3870
7038
6018
E01C
E01C
E01C
E01C
E01C
E01C
E01C
6018
7038
3870
1FE0
0FC0
ENDCHAR
STARTCHAR Otilde
ENCODING 213
SWIDTH 602 0
DWIDTH 14 0
BBX 14 21 0 0
BITMAP
0EC0
1FC0
1B80
0000
0FC0
1FE0
3870
7038
6018
E01C
E01C
E01C
E01C
E01C
E01C
E01C
6018
7038
3870
1FE0
0FC0
ENDCHAR
STARTCHAR Odieresis
ENCODING 214
SWIDTH 602 0
DWIDTH 14 0
BBX 14 20 0 0
BITMAP
1DC0
1DC0
0000
0FC0
1FE0
3870
7038
6018
E01C
E01C
E01C
E01C
E01C
E01C
E01C
6018
7038
3870
1FE0
0FC0
ENDCHAR
STARTCHAR multiply
ENCODING 215
SWIDTH 602 0
DWIDTH 14 0
BBX 13 13 1 0
BITMAP
4010
E038
7070
38E0
1DC0
0F80
0700
0F80
1DC0
38E0
7070
E038
4010
ENDCHAR
STARTCHAR Oslash
ENCODING 216
SWIDTH 602 0
DWIDTH 14 0
BBX 14 17 0 0
BITMAP
0FDC
1FF8
3870
7038
6078
E0FC
E1DC
E19C
E31C
E61C
EE1C
FC1C
7818
7038
3870
7FE0
EFC0
ENDCHAR
STARTCHAR Ugrave
ENCODING 217
SWIDTH 602 0
DWIDTH 14 0
BBX 12 21 1 0
BITMAP
1E00
0700
0380
0000
E070
E070
E070
E070
E070
E070
E070
E070
E070
E070
E070
E070
E070
E070
70E0
7FE0
1F80
ENDCHAR
STARTCHAR Uacute
ENCODING 218
SWIDTH 602 0
DWIDTH 14 0
BBX 12 21 1 0
BITMAP
0780
0E00
1C00
0000
E070
E070
E070
E070
E070
E070
E070
E070
E070
E070
E070
E070
E070
E070
70E0
7FE0
1F80
ENDCHAR
STARTCHAR Ucircumflex
ENCODING 219
SWIDTH 602 0
DWIDTH 14 0
BBX 12 21 1 0
BITMAP
0700
0D80
1DC0
0000
E070
E070
E070
E070
E070
E070
E070
E070
E070
E070
E070
E070
E070
E070
70E0
7FE0
1F80
ENDCHAR
STARTCHAR Udieresis
ENCODING 220
SWIDTH 602 0
DWIDTH 14 0
BBX 12 20 1 0
BITMAP
1DC0
1DC0
0000
E070
E070
E070
E070
E070
E070
E070
E070
E070
E070
E070
E070
E070
E070
70E0
7FE0
1F80
ENDCHAR
STARTCHAR Yacute
ENCODING 221
SWIDTH 602 0
DWIDTH 14 0
BBX 14 21 0 0
BITMAP
03C0
0700
0E00
0000
F01C
7018
3830
3870
1C60
1CE0
0EC0
0F80
0780
0700
0700
0700
0700
0700
0700
0700
0700
ENDCHAR
STARTCHAR Thorn
ENCODING 222
SWIDTH 602 0
DWIDTH 14 0
BBX 12 17 2 0
BITMAP
E000
E000
E000
FF80
FFE0
E0F0
E070
E070
E070
E070
E1E0
FFC0
FF80
E000
E000
E000
E000
ENDCHAR
STARTCHAR germandbls
ENCODING 223
SWIDTH 602 0
DWIDTH 14 0
BBX 12 18 1 0
BITMAP
3F00
7FC0
73C0
E1C0
E180
E380
E700
E600
E700
E780
E3C0
E1E0
E0F0
E070
E070
E870
EFE0
EFC0
ENDCHAR
STARTCHAR agrave
ENCODING 224
SWIDTH 602 0
DWIDTH 14 0
BBX 13 17 1 0
BITMAP
1E00
0700
0380
0000
3FC0
7FE0
60F0
0070
0070
1FF0
7FF0
F070
E070
E070
F1F8
7FF8
3E78
ENDCHAR
STARTCHAR aacute
ENCODING 225
SWIDTH 602 0
DWIDTH 14 0
BBX 13 17 1 0
BITMAP
0780
0E00
1C00
0000
3FC0
7FE0
60F0
0070
0070
1FF0
7FF0
F070
E070
E070
F1F8
7FF8
3E78
ENDCHAR
STARTCHAR acircumflex
ENCODING 226
SWIDTH 602 0
DWIDTH 14 0
BBX 13 17 1 0
BITMAP
0700
0D80
1DC0
0000
3FC0
7FE0
60F0
0070
0070
1FF0
7FF0
F070
E070
E070
F1F8
7FF8
3E78
ENDCHAR
STARTCHAR atilde
ENCODING 227
SWIDTH 602 0
DWIDTH 14 0
BBX 13 17 1 0
BITMAP
0EC0
1FC0
1B80
0000
3FC0
7FE0
60F0
0070
0070
1FF0
7FF0
F070
E070
E070
F1F8
7FF8
3E78
ENDCHAR
STARTCHAR adieresis
ENCODING 228
SWIDTH 602 0
DWIDTH 14 0
BBX 13 16 1 0
BITMAP
1DC0
1DC0
0000
3FC0
7FE0
60F0
0070
0070
1FF0
7FF0
F070
E070
E070
F1F8
7FF8
3E78
ENDCHAR
STARTCHAR aring
ENCODING 229
SWIDTH 602 0
DWIDTH 14 0
BBX 13 17 1 0
BITMAP
0600
0900
0600
0000
3FC0
7FE0
60F0
0070
0070
1FF0
7FF0
F070
E070
E070
F1F8
7FF8
3E78
ENDCHAR
STARTCHAR ae
ENCODING 230
SWIDTH 602 0
DWIDTH 14 0
BBX 13 13 1 0
BITMAP
3EE0
7FF0
4330
0338
0338
1FF8
7FF8
F300
E300
E300
E788
7FF8
39F0
ENDCHAR
STARTCHAR ccedilla
ENCODING 231
SWIDTH 602 0
DWIDTH 14 0
BBX 12 18 1 -5
BITMAP
0FF0
3FF0
7830
7000
E000
E000
E000
E000
E000
7000
7C10
3FF0
0FF0
0600
0F00
0380
0180
0F00
ENDCHAR
STARTCHAR egrave
ENCODING 232
SWIDTH 602 0
DWIDTH 14 0
BBX 13 17 1 0
BITMAP
1E00
0700
0380
0000
0FC0
3FE0
7870
7038
E038
FFF8
FFF8
E000
E000
7000
7818
3FF8
0FF0
ENDCHAR
STARTCHAR eacute
ENCODING 233
SWIDTH 602 0
DWIDTH 14 0
BBX 13 17 1 0
BITMAP
0780
0E00
1C00
0000
0FC0
3FE0
7870
7038
E038
FFF8
FFF8
E000
E000
7000
7818
3FF8
0FF0
ENDCHAR
STARTCHAR ecircumflex
ENCODING 234
SWIDTH 602 0
DWIDTH 14 0
BBX 13 17 1 0
BITMAP
0700
0D80
1DC0
0000
0FC0
3FE0
7870
7038
E038
FFF8
FFF8
E000
E000
7000
7818
3FF8
0FF0
ENDCHAR
STARTCHAR edieresis
ENCODING 235
SWIDTH 602 0
DWIDTH 14 0
BBX 13 16 1 0
BITMAP
1DC0
1DC0
0000
0FC0
3FE0
7870
7038
E038
FFF8
FFF8
E000
E000
7000
7818
3FF8
0FF0
ENDCHAR
STARTCHAR igrave
ENCODING 236
SWIDTH 602 0
DWIDTH 14 0
BBX 8 17 2 0
BITMAP
3C
0E
07
00
FF
FF
07
07
07
07
07
07
07
07
07
07
07
ENDCHAR
STARTCHAR iacute
ENCODING 237
SWIDTH 602 0
DWIDTH 14 0
BBX 8 17 2 0
BITMAP
0F
1C
38
00
FF
FF
07
07
07
07
07
07
07
07
07
07
07
ENDCHAR
STARTCHAR icircumflex
ENCODING 238
SWIDTH 602 0
DWIDTH 14 0
BBX 8 17 2 0
BITMAP
1C
36
77
00
FF
FF
07
07
07
07
07
07
07
07
07
07
07
ENDCHAR
STARTCHAR idieresis
ENCODING 239
SWIDTH 602 0
DWIDTH 14 0
BBX 8 16 2 0
BITMAP
77
77
00
FF
FF
07
07
07
07
07
07
07
07
07
07
07
ENDCHAR
STARTCHAR eth
ENCODING 240
SWIDTH 602 0
DWIDTH 14 0
BBX 13 18 1 0
BITMAP
FC40
FFE0
1FC0
1FC0
11E0
0FF0
3FF0
78F8
7078
E038
E038
E038
E038
E038
7070
78F0
3FE0
0F80
ENDCHAR
STARTCHAR ntilde
ENCODING 241
SWIDTH 602 0
DWIDTH 14 0
BBX 11 17 2 0
BITMAP
1D80
3F80
3700
0000
E780
EFC0
FFE0
F8E0
E0E0
E0E0
E0E0
E0E0
E0E0
E0E0
E0E0
E0E0
E0E0
ENDCHAR
STARTCHAR ograve
ENCODING 242
SWIDTH 602 0
DWIDTH 14 0
BBX 13 17 1 0
BITMAP
0F00
0380
01C0
0000
0F80
3FE0
78F0
7070
E038
E038
E038
E038
E038
7070
78F0
3FE0
0F80
ENDCHAR
STARTCHAR oacute
ENCODING 243
SWIDTH 602 0
DWIDTH 14 0
BBX 13 17 1 0
BITMAP
0780
0E00
1C00
0000
0F80
3FE0
78F0
7070
E038
E038
E038
E038
E038
7070
78F0
3FE0
0F80
ENDCHAR
STARTCHAR ocircumflex
ENCODING 244
SWIDTH 602 0
DWIDTH 14 0
BBX 13 17 1 0
BITMAP
0700
0D80
1DC0
0000
0F80
3FE0
78F0
7070
E038
E038
E038
E038
E038
7070
78F0
3FE0
0F80
ENDCHAR
STARTCHAR otilde
ENCODING 245
SWIDTH 602 0
DWIDTH 14 0
BBX 13 17 1 0
BITMAP
0EC0
1FC0
1B80
0000
0F80
3FE0
78F0
7070
E038
E038
E038
E038
E038
7070
78F0
3FE0
0F80
ENDCHAR
STARTCHAR odieresis
ENCODING 246
SWIDTH 602 0
DWIDTH 14 0
BBX 13 16 1 0
BITMAP
1DC0
1DC0
0000
0F80
3FE0
78F0
7070
E038
E038
E038
E038
E038
7070
78F0
3FE0
0F80
ENDCHAR
STARTCHAR divide
ENCODING 247
SWIDTH 602 0
DWIDTH 14 0
BBX 12 13 1 0
BITMAP
0E00
0E00
0E00
0000
0000
FFF0
FFF0
0000
0000
0000
0E00
0E00
0E00
ENDCHAR
STARTCHAR oslash
ENCODING 248
SWIDTH 602 0
DWIDTH 14 0
BBX 13 13 1 0
BITMAP
0FF8
3FF0
7870
70F0
E1F8
E3B8
E738
EE38
FC38
7870
70F0
7FE0
FF80
ENDCHAR
STARTCHAR ugrave
ENCODING 249
SWIDTH 602 0
DWIDTH 14 0
BBX 11 17 2 0
BITMAP
1E00
0700
0380
0000
E0E0
E0E0
E0E0
E0E0
E0E0
E0E0
E0E0
E0E0
E0E0
E3E0
FFE0
7EE0
3CE0
ENDCHAR
STARTCHAR uacute
ENCODING 250
SWIDTH 602 0
DWIDTH 14 0
BBX 11 17 2 0
BITMAP
0780
0E00
1C00
0000
E0E0
E0E0
E0E0
E0E0
E0E0
E0E0
E0E0
E0E0
E0E0
E3E0
FFE0
7EE0
3CE0
ENDCHAR
STARTCHAR ucircumflex
ENCODING 251
SWIDTH 602 0
DWIDTH 14 0
BBX 11 17 2 0
BITMAP
0E00
1B00
3B80
0000
E0E0
E0E0
E0E0
E0E0
E0E0
E0E0
E0E0
E0E0
E0E0
E3E0
FFE0
7EE0
3CE0
ENDCHAR
STARTCHAR udieresis
ENCODING 252
SWIDTH 602 0
DWIDTH 14 0
BBX 11 16 2 0
BITMAP
3B80
3B80
0000
E0E0
E0E0
E0E0
E0E0
E0E0
E0E0
E0E0
E0E0
E0E0
E3E0
FFE0
7EE0
3CE0
ENDCHAR
STARTCHAR yacute
ENCODING 253
SWIDTH 602 0
DWIDTH 14 0
BBX 14 22 0 -5
BITMAP
03C0
0700
0E00
0000
F01C
7018
7838
3830
3C30
1C60
1E60
0EC0
0EC0
07C0
0780
0380
0300
0300
0600
0600
7C00
7800
ENDCHAR
STARTCHAR thorn
ENCODING 254
SWIDTH 602 0
DWIDTH 14 0
BBX 12 21 1 -5
BITMAP
E000
E000
E000
E780
EFE0
FFE0
F8F0
F070
E070
E070
E070
E070
E0E0
F1E0
FFC0
EF80
E000
E000
E000
E000
E000
ENDCHAR
STARTCHAR ydieresis
ENCODING 255
SWIDTH 602 0
DWIDTH 14 0
BBX 14 21 0 -5
BITMAP
1DC0
1DC0
0000
F01C
7018
7838
3830
3C30
1C60
1E60
0EC0
0EC0
07C0
0780
0380
0300
0300
0600
0600
7C00
7800
ENDCHAR
ENDFONT
