STARTFONT 2.1
COMMENT AUTOMATICALLY GENERATED FILE. DO NOT EDIT!
COMMENT Generated with 'ucs2any.pl lutRS24.bdf ../../../fonts/util/map-ISO8859-1 ISO8859-1'
COMMENT from an ISO10646-1 encoded source BDF font.
COMMENT ucs2any.pl by Markus Kuhn <mkuhn@acm.org>, 2000.
COMMENT $Xorg: $
COMMENT ISO10646-1 extension by Markus Kuhn <mkuhn@acm.org>, 2001-03-20
FONT -B&H-LucidaTypewriter-Medium-R-Normal-Sans-24-240-75-75-M-140-ISO8859-1
SIZE 24 72 72
FONTBOUNDINGBOX 18 27 -2 -5
STARTPROPERTIES 22
FONTNAME_REGISTRY ""
FOUNDRY "B&H"
FAMILY_NAME "LucidaTypewriter"
WEIGHT_NAME "Medium"
SLANT "R"
SETWIDTH_NAME "Normal"
ADD_STYLE_NAME "Sans"
PIXEL_SIZE 24
POINT_SIZE 240
RESOLUTION_X 75
RESOLUTION_Y 75
SPACING "M"
AVERAGE_WIDTH 140
CHARSET_REGISTRY "ISO8859"
CHARSET_ENCODING "1"
FONT_ASCENT 22
FONT_DESCENT 5
DEFAULT_CHAR 0
COPYRIGHT "Copyright Bigelow & Holmes 1986, 1985."
FACE_NAME "Lucida Sans Typewriter"
X_HEIGHT 13
CAP_HEIGHT 17
ENDPROPERTIES
CHARS 192
STARTCHAR defaultchar
ENCODING 0
SWIDTH 602 0
DWIDTH 14 0
BBX 11 17 2 0
BITMAP
AAA0
0000
8020
0000
8020
0000
8020
0000
8020
0000
8020
0000
8020
0000
8020
0000
AAA0
ENDCHAR
STARTCHAR space
ENCODING 32
SWIDTH 602 0
DWIDTH 14 0
BBX 1 1 0 0
BITMAP
00
ENDCHAR
STARTCHAR exclam
ENCODING 33
SWIDTH 602 0
DWIDTH 14 0
BBX 3 17 6 0
BITMAP
60
60
60
60
60
60
60
60
40
40
40
40
00
00
00
E0
E0
ENDCHAR
STARTCHAR quotedbl
ENCODING 34
SWIDTH 602 0
DWIDTH 14 0
BBX 10 5 2 12
BITMAP
C0C0
C0C0
C0C0
4080
4080
ENDCHAR
STARTCHAR numbersign
ENCODING 35
SWIDTH 602 0
DWIDTH 14 0
BBX 13 17 1 0
BITMAP
0220
0220
0420
0420
0440
0440
7FF8
0880
0880
0880
1880
FFF0
1100
1100
2100
2200
2200
ENDCHAR
STARTCHAR dollar
ENCODING 36
SWIDTH 602 0
DWIDTH 14 0
BBX 9 21 3 -2
BITMAP
0800
0800
3F00
6980
C800
C800
C800
E800
7800
3800
1E00
0F00
0B80
0980
0980
0980
8B80
EF00
7E00
0800
0800
ENDCHAR
STARTCHAR percent
ENCODING 37
SWIDTH 602 0
DWIDTH 14 0
BBX 14 17 0 0
BITMAP
380C
4418
8210
8220
8260
8240
4480
3900
0300
0270
0488
0904
1904
1104
2104
6088
C070
ENDCHAR
STARTCHAR ampersand
ENCODING 38
SWIDTH 602 0
DWIDTH 14 0
BBX 15 17 0 0
BITMAP
0780
0CC0
1860
1860
18E0
1CC0
0F00
0E00
3606
6706
C386
C1C4
C0EC
C07C
6038
307C
1FDE
ENDCHAR
STARTCHAR quotesingle
ENCODING 39
SWIDTH 602 0
DWIDTH 14 0
BBX 3 6 6 11
BITMAP
E0
E0
E0
40
40
40
ENDCHAR
STARTCHAR parenleft
ENCODING 40
SWIDTH 602 0
DWIDTH 14 0
BBX 8 21 4 -4
BITMAP
07
0F
3C
30
70
60
E0
C0
C0
C0
C0
C0
C0
C0
60
60
30
30
1C
0F
03
ENDCHAR
STARTCHAR parenright
ENCODING 41
SWIDTH 602 0
DWIDTH 14 0
BBX 8 21 2 -4
BITMAP
C0
F0
38
0C
0C
06
06
03
03
03
03
03
03
03
06
06
0E
0C
38
F0
C0
ENDCHAR
STARTCHAR asterisk
ENCODING 42
SWIDTH 602 0
DWIDTH 14 0
BBX 11 10 2 7
BITMAP
0E00
0E00
4420
E4E0
F1E0
0000
1B00
3B80
71C0
1100
ENDCHAR
STARTCHAR plus
ENCODING 43
SWIDTH 602 0
DWIDTH 14 0
BBX 11 13 2 0
BITMAP
0400
0400
0400
0400
0400
0400
FFE0
0400
0400
0400
0400
0400
0400
ENDCHAR
STARTCHAR comma
ENCODING 44
SWIDTH 602 0
DWIDTH 14 0
BBX 3 8 6 -4
BITMAP
E0
E0
E0
E0
20
60
40
C0
ENDCHAR
STARTCHAR hyphen
ENCODING 45
SWIDTH 602 0
DWIDTH 14 0
BBX 12 1 1 5
BITMAP
FFF0
ENDCHAR
STARTCHAR period
ENCODING 46
SWIDTH 602 0
DWIDTH 14 0
BBX 3 3 6 0
BITMAP
E0
E0
E0
ENDCHAR
STARTCHAR slash
ENCODING 47
SWIDTH 602 0
DWIDTH 14 0
BBX 13 21 1 -4
BITMAP
0018
0010
0020
0020
0040
0040
0080
0180
0100
0300
0200
0600
0400
0C00
0800
1000
1000
2000
2000
4000
C000
ENDCHAR
STARTCHAR zero
ENCODING 48
SWIDTH 602 0
DWIDTH 14 0
BBX 12 17 1 0
BITMAP
0F00
30C0
6060
6060
4020
C030
C030
C030
C030
C030
C030
C030
4020
6060
6060
30C0
0F00
ENDCHAR
STARTCHAR one
ENCODING 49
SWIDTH 602 0
DWIDTH 14 0
BBX 12 17 2 0
BITMAP
0200
1E00
F600
0600
0600
0600
0600
0600
0600
0600
0600
0600
0600
0600
0600
0600
FFF0
ENDCHAR
STARTCHAR two
ENCODING 50
SWIDTH 602 0
DWIDTH 14 0
BBX 9 17 2 0
BITMAP
7E00
C300
0180
0180
0180
0180
0100
0300
0200
0400
0800
1000
3000
6000
E000
E000
FF80
ENDCHAR
STARTCHAR three
ENCODING 51
SWIDTH 602 0
DWIDTH 14 0
BBX 9 17 3 0
BITMAP
FE00
8300
0180
0180
0180
0180
0700
7C00
0600
0300
0180
0180
0180
0180
0300
8700
FC00
ENDCHAR
STARTCHAR four
ENCODING 52
SWIDTH 602 0
DWIDTH 14 0
BBX 11 17 2 0
BITMAP
0180
0380
0380
0580
0D80
0980
1180
3180
2180
4180
C180
FFE0
0180
0180
0180
0180
0180
ENDCHAR
STARTCHAR five
ENCODING 53
SWIDTH 602 0
DWIDTH 14 0
BBX 9 17 3 0
BITMAP
FF80
8000
8000
8000
8000
8000
F800
0E00
0300
0180
0180
0180
0180
0180
0300
8600
FC00
ENDCHAR
STARTCHAR six
ENCODING 54
SWIDTH 602 0
DWIDTH 14 0
BBX 11 17 2 0
BITMAP
0FC0
1040
2000
6000
4000
C000
DF00
F1C0
E0C0
C060
C060
C060
C060
4060
60C0
3180
1F00
ENDCHAR
STARTCHAR seven
ENCODING 55
SWIDTH 602 0
DWIDTH 14 0
BBX 10 17 3 0
BITMAP
FFC0
FFC0
0080
0180
0100
0300
0200
0600
0400
0C00
0800
1800
1000
3000
3000
6000
6000
ENDCHAR
STARTCHAR eight
ENCODING 56
SWIDTH 602 0
DWIDTH 14 0
BBX 11 17 2 0
BITMAP
1F00
3080
6040
6040
6040
70C0
3D80
1F00
1F80
63C0
40E0
C060
C060
C060
E040
70C0
1F00
ENDCHAR
STARTCHAR nine
ENCODING 57
SWIDTH 602 0
DWIDTH 14 0
BBX 11 17 2 0
BITMAP
1F00
3180
60C0
C040
C060
C060
C060
C060
60E0
71E0
1F60
0060
0040
00C0
0080
4100
7E00
ENDCHAR
STARTCHAR colon
ENCODING 58
SWIDTH 602 0
DWIDTH 14 0
BBX 3 13 6 0
BITMAP
E0
E0
E0
00
00
00
00
00
00
00
E0
E0
E0
ENDCHAR
STARTCHAR semicolon
ENCODING 59
SWIDTH 602 0
DWIDTH 14 0
BBX 3 17 6 -4
BITMAP
E0
E0
E0
00
00
00
00
00
00
E0
E0
E0
E0
20
60
40
C0
ENDCHAR
STARTCHAR less
ENCODING 60
SWIDTH 602 0
DWIDTH 14 0
BBX 11 13 0 0
BITMAP
0020
0060
0180
0600
0C00
3000
C000
3000
0C00
0600
0180
0060
0020
ENDCHAR
STARTCHAR equal
ENCODING 61
SWIDTH 602 0
DWIDTH 14 0
BBX 12 7 1 3
BITMAP
FFF0
0000
0000
0000
0000
0000
FFF0
ENDCHAR
STARTCHAR greater
ENCODING 62
SWIDTH 602 0
DWIDTH 14 0
BBX 11 13 1 0
BITMAP
8000
C000
3000
0C00
0600
0180
0060
0180
0600
0C00
3000
C000
8000
ENDCHAR
STARTCHAR question
ENCODING 63
SWIDTH 602 0
DWIDTH 14 0
BBX 10 17 2 0
BITMAP
FF00
8180
80C0
00C0
00C0
0180
0300
0600
0C00
0800
1800
1800
0000
0000
0000
0C00
0C00
ENDCHAR
STARTCHAR at
ENCODING 64
SWIDTH 602 0
DWIDTH 14 0
BBX 14 17 1 0
BITMAP
07E0
1C10
3008
60F8
4108
C208
8208
8408
8408
8418
8438
8428
4268
41CC
2000
1810
07E0
ENDCHAR
STARTCHAR A
ENCODING 65
SWIDTH 602 0
DWIDTH 14 0
BBX 13 17 -1 0
BITMAP
0600
0700
0B00
0B00
0980
1180
1180
10C0
30C0
20C0
20E0
7FE0
4060
4030
8030
8030
8018
ENDCHAR
STARTCHAR B
ENCODING 66
SWIDTH 602 0
DWIDTH 14 0
BBX 11 17 2 0
BITMAP
FF00
C180
C0C0
C0C0
C0C0
C0C0
C180
C300
FF00
C3C0
C0C0
C060
C060
C060
C060
C0C0
FF80
ENDCHAR
STARTCHAR C
ENCODING 67
SWIDTH 602 0
DWIDTH 14 0
BBX 12 17 1 0
BITMAP
07F0
1830
3000
6000
6000
C000
C000
C000
C000
C000
C000
C000
6000
6000
3000
1C10
07F0
ENDCHAR
STARTCHAR D
ENCODING 68
SWIDTH 602 0
DWIDTH 14 0
BBX 12 17 2 0
BITMAP
FF00
C1C0
C0E0
C060
C030
C030
C030
C030
C030
C030
C030
C030
C060
C060
C0C0
C1C0
FF00
ENDCHAR
STARTCHAR E
ENCODING 69
SWIDTH 602 0
DWIDTH 14 0
BBX 10 17 3 0
BITMAP
FF80
C000
C000
C000
C000
C000
C000
FF00
C000
C000
C000
C000
C000
C000
C000
C000
FFC0
ENDCHAR
STARTCHAR F
ENCODING 70
SWIDTH 602 0
DWIDTH 14 0
BBX 10 17 3 0
BITMAP
FFC0
C000
C000
C000
C000
C000
C000
C000
FF80
C000
C000
C000
C000
C000
C000
C000
C000
ENDCHAR
STARTCHAR G
ENCODING 71
SWIDTH 602 0
DWIDTH 14 0
BBX 12 17 1 0
BITMAP
07F0
1810
3000
6000
6000
C000
C000
C000
C000
C000
C030
C030
6030
6030
3030
1C30
07E0
ENDCHAR
STARTCHAR H
ENCODING 72
SWIDTH 602 0
DWIDTH 14 0
BBX 11 17 2 0
BITMAP
C060
C060
C060
C060
C060
C060
C060
C060
FFE0
C060
C060
C060
C060
C060
C060
C060
C060
ENDCHAR
STARTCHAR I
ENCODING 73
SWIDTH 602 0
DWIDTH 14 0
BBX 10 17 2 0
BITMAP
FFC0
0C00
0C00
0C00
0C00
0C00
0C00
0C00
0C00
0C00
0C00
0C00
0C00
0C00
0C00
0C00
FFC0
ENDCHAR
STARTCHAR J
ENCODING 74
SWIDTH 602 0
DWIDTH 14 0
BBX 8 17 3 0
BITMAP
7F
03
03
03
03
03
03
03
03
03
03
03
03
03
03
86
FC
ENDCHAR
STARTCHAR K
ENCODING 75
SWIDTH 602 0
DWIDTH 14 0
BBX 12 17 2 0
BITMAP
C040
C080
C100
C300
C200
C400
C800
D000
F800
DC00
CC00
C600
C300
C380
C1C0
C0E0
C070
ENDCHAR
STARTCHAR L
ENCODING 76
SWIDTH 602 0
DWIDTH 14 0
BBX 10 17 3 0
BITMAP
C000
C000
C000
C000
C000
C000
C000
C000
C000
C000
C000
C000
C000
C000
C000
C000
FFC0
ENDCHAR
STARTCHAR M
ENCODING 77
SWIDTH 602 0
DWIDTH 14 0
BBX 12 17 1 0
BITMAP
C030
E070
E070
A050
A050
B0D0
9090
9090
9090
8910
8910
8910
8910
8610
8610
8610
8010
ENDCHAR
STARTCHAR N
ENCODING 78
SWIDTH 602 0
DWIDTH 14 0
BBX 11 17 2 0
BITMAP
C020
E020
E020
F020
B020
9820
9820
8C20
8E20
8620
8320
8320
81A0
81E0
80E0
8060
8060
ENDCHAR
STARTCHAR O
ENCODING 79
SWIDTH 602 0
DWIDTH 14 0
BBX 13 17 1 0
BITMAP
0F80
38E0
3060
6030
6030
C018
C018
C018
C018
C018
C018
C018
6030
6030
3060
38E0
0F80
ENDCHAR
STARTCHAR P
ENCODING 80
SWIDTH 602 0
DWIDTH 14 0
BBX 11 17 3 0
BITMAP
FF80
C0C0
C060
C060
C060
C060
C060
C0C0
C180
FE00
C000
C000
C000
C000
C000
C000
C000
ENDCHAR
STARTCHAR Q
ENCODING 81
SWIDTH 602 0
DWIDTH 14 0
BBX 14 21 1 -4
BITMAP
0F80
38C0
3060
6030
6030
C018
C018
C018
C018
C018
C018
C018
6038
6030
3070
38E0
0FE0
00C0
0070
003C
0018
ENDCHAR
STARTCHAR R
ENCODING 82
SWIDTH 602 0
DWIDTH 14 0
BBX 12 17 2 0
BITMAP
FF00
C180
C0C0
C0C0
C0C0
C0C0
C1C0
C380
FF00
C600
C700
C300
C180
C1C0
C0C0
C0E0
C070
ENDCHAR
STARTCHAR S
ENCODING 83
SWIDTH 602 0
DWIDTH 14 0
BBX 11 17 2 0
BITMAP
1FC0
6040
C000
C000
C000
E000
7000
3C00
0F00
03C0
00E0
0060
0060
0060
0040
80C0
7F00
ENDCHAR
STARTCHAR T
ENCODING 84
SWIDTH 602 0
DWIDTH 14 0
BBX 14 17 0 0
BITMAP
FFFC
0300
0300
0300
0300
0300
0300
0300
0300
0300
0300
0300
0300
0300
0300
0300
0300
ENDCHAR
STARTCHAR U
ENCODING 85
SWIDTH 602 0
DWIDTH 14 0
BBX 11 17 2 0
BITMAP
C020
C020
C020
C020
C020
C020
C020
C020
C020
C020
C020
C020
C020
C020
4040
60C0
3F80
ENDCHAR
STARTCHAR V
ENCODING 86
SWIDTH 602 0
DWIDTH 14 0
BBX 14 17 0 0
BITMAP
C00C
6008
6008
6010
3010
3010
3020
1820
1820
1840
0C40
0CC0
0E80
0680
0700
0700
0300
ENDCHAR
STARTCHAR W
ENCODING 87
SWIDTH 602 0
DWIDTH 14 0
BBX 14 17 0 0
BITMAP
8004
8604
860C
8708
CF08
CF08
CD08
C918
C998
5990
5890
5090
70F0
70F0
70E0
6060
6060
ENDCHAR
STARTCHAR X
ENCODING 88
SWIDTH 602 0
DWIDTH 14 0
BBX 13 17 -1 0
BITMAP
C010
6020
7060
3040
3880
1D80
0D00
0E00
0600
0700
0B80
1180
10C0
20E0
4060
4030
8038
ENDCHAR
STARTCHAR Y
ENCODING 89
SWIDTH 602 0
DWIDTH 14 0
BBX 13 17 0 0
BITMAP
E008
6018
3010
3820
1820
1C40
0CC0
0680
0700
0300
0300
0300
0300
0300
0300
0300
0300
ENDCHAR
STARTCHAR Z
ENCODING 90
SWIDTH 602 0
DWIDTH 14 0
BBX 12 17 1 0
BITMAP
7FF0
0070
0060
00C0
01C0
0180
0300
0700
0600
0E00
1C00
1800
3800
7000
6000
E000
FFF0
ENDCHAR
STARTCHAR bracketleft
ENCODING 91
SWIDTH 602 0
DWIDTH 14 0
BBX 6 21 6 -4
BITMAP
FC
80
80
80
80
80
80
80
80
80
80
80
80
80
80
80
80
80
80
80
FC
ENDCHAR
STARTCHAR backslash
ENCODING 92
SWIDTH 602 0
DWIDTH 14 0
BBX 13 21 1 -4
BITMAP
C000
4000
2000
2000
1000
1000
0800
0C00
0400
0600
0200
0300
0100
0180
0080
0040
0040
0020
0020
0010
0018
ENDCHAR
STARTCHAR bracketright
ENCODING 93
SWIDTH 602 0
DWIDTH 14 0
BBX 6 21 3 -4
BITMAP
FC
04
04
04
04
04
04
04
04
04
04
04
04
04
04
04
04
04
04
04
FC
ENDCHAR
STARTCHAR asciicircum
ENCODING 94
SWIDTH 602 0
DWIDTH 14 0
BBX 12 13 1 3
BITMAP
0200
0600
0600
0F00
0900
0900
1080
1080
2040
2040
6040
4020
C030
ENDCHAR
STARTCHAR underscore
ENCODING 95
SWIDTH 602 0
DWIDTH 14 0
BBX 14 1 0 -2
BITMAP
FFFC
ENDCHAR
STARTCHAR grave
ENCODING 96
SWIDTH 602 0
DWIDTH 14 0
BBX 5 3 5 14
BITMAP
E0
30
18
ENDCHAR
STARTCHAR a
ENCODING 97
SWIDTH 602 0
DWIDTH 14 0
BBX 12 13 2 0
BITMAP
3F80
41C0
00C0
00C0
00C0
1FC0
70C0
60C0
C0C0
C0C0
C0C0
63C0
3EF0
ENDCHAR
STARTCHAR b
ENCODING 98
SWIDTH 602 0
DWIDTH 14 0
BBX 11 17 2 0
BITMAP
C000
C000
C000
C000
CF00
F1C0
E0C0
C060
C060
C060
C060
C060
C060
C0C0
C0C0
F180
DF00
ENDCHAR
STARTCHAR c
ENCODING 99
SWIDTH 602 0
DWIDTH 14 0
BBX 11 13 2 0
BITMAP
0FE0
3860
6000
6000
C000
C000
C000
C000
C000
6000
6000
3820
0FE0
ENDCHAR
STARTCHAR d
ENCODING 100
SWIDTH 602 0
DWIDTH 14 0
BBX 11 17 2 0
BITMAP
0060
0060
0060
0060
1F60
31E0
6060
6060
C060
C060
C060
C060
C060
C060
60E0
71E0
1E60
ENDCHAR
STARTCHAR e
ENCODING 101
SWIDTH 602 0
DWIDTH 14 0
BBX 11 13 2 0
BITMAP
1F80
31C0
60C0
6060
C060
C060
FFE0
C000
C000
4000
6000
3020
0FE0
ENDCHAR
STARTCHAR f
ENCODING 102
SWIDTH 602 0
DWIDTH 14 0
BBX 12 19 2 0
BITMAP
07F0
0C10
1800
1800
1800
1800
FFF0
1800
1800
1800
1800
1800
1800
1800
1800
1800
1800
1800
1800
ENDCHAR
STARTCHAR g
ENCODING 103
SWIDTH 602 0
DWIDTH 14 0
BBX 11 18 2 -5
BITMAP
1FA0
31E0
60E0
4060
C060
C060
C060
C060
C060
C060
60E0
71E0
1E60
0060
0060
0040
4080
7F00
ENDCHAR
STARTCHAR h
ENCODING 104
SWIDTH 602 0
DWIDTH 14 0
BBX 10 17 2 0
BITMAP
C000
C000
C000
C000
CF00
DF80
F1C0
E0C0
C0C0
C0C0
C0C0
C0C0
C0C0
C0C0
C0C0
C0C0
C0C0
ENDCHAR
STARTCHAR i
ENCODING 105
SWIDTH 602 0
DWIDTH 14 0
BBX 7 17 2 0
BITMAP
06
06
00
00
FE
06
06
06
06
06
06
06
06
06
06
06
06
ENDCHAR
STARTCHAR j
ENCODING 106
SWIDTH 602 0
DWIDTH 14 0
BBX 8 22 2 -5
BITMAP
03
03
00
00
7F
03
03
03
03
03
03
03
03
03
03
03
03
03
03
03
86
FC
ENDCHAR
STARTCHAR k
ENCODING 107
SWIDTH 602 0
DWIDTH 14 0
BBX 11 17 3 0
BITMAP
C000
C000
C000
C000
C180
C100
C200
C400
C800
D000
F800
DC00
CE00
C700
C380
C180
C0E0
ENDCHAR
STARTCHAR l
ENCODING 108
SWIDTH 602 0
DWIDTH 14 0
BBX 7 17 2 0
BITMAP
FE
06
06
06
06
06
06
06
06
06
06
06
06
06
06
06
06
ENDCHAR
STARTCHAR m
ENCODING 109
SWIDTH 602 0
DWIDTH 14 0
BBX 13 13 1 0
BITMAP
9C70
A288
C308
8208
8208
8208
8208
8208
8208
8208
8208
8208
8208
ENDCHAR
STARTCHAR n
ENCODING 110
SWIDTH 602 0
DWIDTH 14 0
BBX 10 13 2 0
BITMAP
CF00
DF80
F1C0
E0C0
C0C0
C0C0
C0C0
C0C0
C0C0
C0C0
C0C0
C0C0
C0C0
ENDCHAR
STARTCHAR o
ENCODING 111
SWIDTH 602 0
DWIDTH 14 0
BBX 12 13 1 0
BITMAP
1F80
30C0
6060
6060
C030
C030
C030
C030
C030
6060
6060
30C0
1F80
ENDCHAR
STARTCHAR p
ENCODING 112
SWIDTH 602 0
DWIDTH 14 0
BBX 11 18 2 -5
BITMAP
CF00
F1C0
E0C0
C060
C060
C060
C060
C060
C060
C0C0
C0C0
F180
DF00
C000
C000
C000
C000
C000
ENDCHAR
STARTCHAR q
ENCODING 113
SWIDTH 602 0
DWIDTH 14 0
BBX 11 18 1 -5
BITMAP
1F60
31E0
6060
6060
C060
C060
C060
C060
C060
C060
60E0
71E0
1E60
0060
0060
0060
0060
0060
ENDCHAR
STARTCHAR r
ENCODING 114
SWIDTH 602 0
DWIDTH 14 0
BBX 9 13 4 0
BITMAP
CF80
F880
E080
C000
C000
C000
C000
C000
C000
C000
C000
C000
C000
ENDCHAR
STARTCHAR s
ENCODING 115
SWIDTH 602 0
DWIDTH 14 0
BBX 10 13 2 0
BITMAP
3F80
6080
C000
C000
E000
7C00
3F00
07C0
00C0
00C0
00C0
C180
FE00
ENDCHAR
STARTCHAR t
ENCODING 116
SWIDTH 602 0
DWIDTH 14 0
BBX 11 15 2 0
BITMAP
1800
1800
FFE0
1800
1800
1800
1800
1800
1800
1800
1800
1800
1800
0C00
07E0
ENDCHAR
STARTCHAR u
ENCODING 117
SWIDTH 602 0
DWIDTH 14 0
BBX 10 13 2 0
BITMAP
C0C0
C0C0
C0C0
C0C0
C0C0
C0C0
C0C0
C0C0
C0C0
C1C0
C3C0
7EC0
3CC0
ENDCHAR
STARTCHAR v
ENCODING 118
SWIDTH 602 0
DWIDTH 14 0
BBX 13 13 1 0
BITMAP
C018
6010
6020
3020
3020
3840
1840
1880
0C80
0D80
0F00
0700
0600
ENDCHAR
STARTCHAR w
ENCODING 119
SWIDTH 602 0
DWIDTH 14 0
BBX 14 13 0 0
BITMAP
C004
C304
C308
6308
6488
6488
6498
6490
6890
3850
3870
3870
3060
ENDCHAR
STARTCHAR x
ENCODING 120
SWIDTH 602 0
DWIDTH 14 0
BBX 12 13 1 0
BITMAP
E060
7040
3080
1880
1D00
0E00
0600
0F00
0B80
1180
30C0
20E0
4070
ENDCHAR
STARTCHAR y
ENCODING 121
SWIDTH 602 0
DWIDTH 14 0
BBX 13 18 1 -5
BITMAP
E018
6010
6030
3020
3020
3840
1840
1880
0C80
0D80
0F00
0700
0600
0200
0400
0400
0800
7000
ENDCHAR
STARTCHAR z
ENCODING 122
SWIDTH 602 0
DWIDTH 14 0
BBX 11 13 2 0
BITMAP
FFE0
0040
0080
0100
0300
0200
0400
0800
1000
3000
6000
4000
FFE0
ENDCHAR
STARTCHAR braceleft
ENCODING 123
SWIDTH 602 0
DWIDTH 14 0
BBX 9 21 3 -4
BITMAP
0780
0C00
1800
1800
1800
0C00
0C00
0400
0400
0800
F000
0800
0400
0400
0C00
0C00
1800
1800
1800
0C00
0780
ENDCHAR
STARTCHAR bar
ENCODING 124
SWIDTH 602 0
DWIDTH 14 0
BBX 1 21 7 -4
BITMAP
80
80
80
80
80
80
80
80
80
80
80
80
80
80
80
80
80
80
80
80
80
ENDCHAR
STARTCHAR braceright
ENCODING 125
SWIDTH 602 0
DWIDTH 14 0
BBX 9 21 3 -4
BITMAP
F800
0C00
0600
0600
0600
0C00
0C00
0800
0800
0C00
0780
0C00
0800
0800
0800
0C00
0600
0600
0600
0C00
F800
ENDCHAR
STARTCHAR asciitilde
ENCODING 126
SWIDTH 602 0
DWIDTH 14 0
BBX 12 5 1 4
BITMAP
3810
4C10
8610
8320
81C0
ENDCHAR
STARTCHAR space
ENCODING 160
SWIDTH 602 0
DWIDTH 14 0
BBX 1 1 0 0
BITMAP
00
ENDCHAR
STARTCHAR exclamdown
ENCODING 161
SWIDTH 602 0
DWIDTH 14 0
BBX 3 18 6 -5
BITMAP
E0
E0
00
00
00
40
40
40
40
40
60
60
60
60
60
60
60
60
ENDCHAR
STARTCHAR cent
ENCODING 162
SWIDTH 602 0
DWIDTH 14 0
BBX 10 17 2 0
BITMAP
0200
0200
0FC0
3E40
7200
6200
C200
C200
C200
C200
C200
4200
6240
3A40
0FC0
0200
0200
ENDCHAR
STARTCHAR sterling
ENCODING 163
SWIDTH 602 0
DWIDTH 14 0
BBX 9 17 3 0
BITMAP
0F80
1880
1000
3000
3000
3000
3000
3000
FC00
3000
3000
3000
3000
3000
6000
E000
FF80
ENDCHAR
STARTCHAR currency
ENCODING 164
SWIDTH 602 0
DWIDTH 14 0
BBX 11 12 2 3
BITMAP
C020
4060
7FC0
71C0
60C0
4040
4040
4040
60C0
71C0
FFE0
8000
ENDCHAR
STARTCHAR yen
ENCODING 165
SWIDTH 602 0
DWIDTH 14 0
BBX 13 17 1 0
BITMAP
E018
6010
7020
3060
3840
1880
1C80
0D00
0F00
0600
3FE0
0600
3FE0
0600
0600
0600
0600
ENDCHAR
STARTCHAR brokenbar
ENCODING 166
SWIDTH 602 0
DWIDTH 14 0
BBX 1 21 7 -4
BITMAP
80
80
80
80
80
80
80
80
00
00
00
00
00
80
80
80
80
80
80
80
80
ENDCHAR
STARTCHAR section
ENCODING 167
SWIDTH 602 0
DWIDTH 14 0
BBX 9 21 3 -4
BITMAP
3F00
4100
8000
8000
C000
F000
F800
DE00
8700
8300
8100
C100
7100
3E00
1F00
0780
0180
0180
0180
8300
FE00
ENDCHAR
STARTCHAR dieresis
ENCODING 168
SWIDTH 602 0
DWIDTH 14 0
BBX 7 1 4 16
BITMAP
C6
ENDCHAR
STARTCHAR copyright
ENCODING 169
SWIDTH 602 0
DWIDTH 14 0
BBX 13 17 1 0
BITMAP
0FC0
3060
4010
4010
87C8
9848
B008
A008
A008
A008
B008
9848
8FC8
4010
4010
3060
1F80
ENDCHAR
STARTCHAR ordfeminine
ENCODING 170
SWIDTH 602 0
DWIDTH 14 0
BBX 8 9 3 8
BITMAP
7C
C6
82
02
3E
42
82
86
7F
ENDCHAR
STARTCHAR guillemotleft
ENCODING 171
SWIDTH 602 0
DWIDTH 14 0
BBX 11 11 2 1
BITMAP
0420
0840
1080
3180
6300
C600
6300
3180
1080
0840
0C60
ENDCHAR
STARTCHAR logicalnot
ENCODING 172
SWIDTH 602 0
DWIDTH 14 0
BBX 12 7 1 3
BITMAP
FFF0
0010
0010
0010
0010
0010
0010
ENDCHAR
STARTCHAR hyphen
ENCODING 173
SWIDTH 602 0
DWIDTH 14 0
BBX 10 1 2 8
BITMAP
FFC0
ENDCHAR
STARTCHAR registered
ENCODING 174
SWIDTH 602 0
DWIDTH 14 0
BBX 10 10 2 7
BITMAP
1E00
6180
5E80
9240
9E40
9C40
9440
5280
6180
1E00
ENDCHAR
STARTCHAR macron
ENCODING 175
SWIDTH 602 0
DWIDTH 14 0
BBX 7 1 4 16
BITMAP
FE
ENDCHAR
STARTCHAR degree
ENCODING 176
SWIDTH 602 0
DWIDTH 14 0
BBX 4 3 5 14
BITMAP
60
90
60
ENDCHAR
STARTCHAR plusminus
ENCODING 177
SWIDTH 602 0
DWIDTH 14 0
BBX 11 13 2 0
BITMAP
0400
0400
0400
0400
FFE0
0400
0400
0400
0400
0400
0000
0000
FFE0
ENDCHAR
STARTCHAR twosuperior
ENCODING 178
SWIDTH 602 0
DWIDTH 14 0
BBX 5 9 -2 8
BITMAP
F0
88
08
08
10
20
40
C0
F8
ENDCHAR
STARTCHAR threesuperior
ENCODING 179
SWIDTH 602 0
DWIDTH 14 0
BBX 5 9 -2 8
BITMAP
F0
08
08
08
70
18
08
08
F0
ENDCHAR
STARTCHAR acute
ENCODING 180
SWIDTH 602 0
DWIDTH 14 0
BBX 5 3 4 14
BITMAP
38
60
C0
ENDCHAR
STARTCHAR mu
ENCODING 181
SWIDTH 602 0
DWIDTH 14 0
BBX 10 17 2 -4
BITMAP
C0C0
C0C0
C0C0
C0C0
C0C0
C0C0
C0C0
C0C0
C0C0
C1C0
C3C0
FEC0
FCC0
C000
C000
C000
C000
ENDCHAR
STARTCHAR paragraph
ENCODING 182
SWIDTH 602 0
DWIDTH 14 0
BBX 8 21 3 -4
BITMAP
7F
F9
F9
F9
F9
F9
79
79
19
09
09
09
09
09
09
09
09
09
09
09
09
ENDCHAR
STARTCHAR periodcentered
ENCODING 183
SWIDTH 602 0
DWIDTH 14 0
BBX 3 2 6 6
BITMAP
E0
E0
ENDCHAR
STARTCHAR cedilla
ENCODING 184
SWIDTH 602 0
DWIDTH 14 0
BBX 4 5 6 -5
BITMAP
E0
60
10
10
E0
ENDCHAR
STARTCHAR onesuperior
ENCODING 185
SWIDTH 602 0
DWIDTH 14 0
BBX 5 9 -2 8
BITMAP
60
E0
20
20
20
20
20
20
F8
ENDCHAR
STARTCHAR ordmasculine
ENCODING 186
SWIDTH 602 0
DWIDTH 14 0
BBX 9 9 3 8
BITMAP
3E00
6300
C180
C180
C180
C180
C180
6300
3E00
ENDCHAR
STARTCHAR guillemotright
ENCODING 187
SWIDTH 602 0
DWIDTH 14 0
BBX 11 11 2 1
BITMAP
C600
4200
2100
3180
18C0
0C60
18C0
3180
2100
4200
8400
ENDCHAR
STARTCHAR onequarter
ENCODING 188
SWIDTH 602 0
DWIDTH 14 0
BBX 14 17 2 0
BITMAP
600C
E018
2010
2020
2040
20C0
2080
2100
FB18
0218
0428
0828
0848
1088
20FC
6008
C008
ENDCHAR
STARTCHAR onehalf
ENCODING 189
SWIDTH 602 0
DWIDTH 14 0
BBX 14 17 2 0
BITMAP
600C
E018
2010
2020
2040
20C0
2080
2100
FB78
0244
0404
0804
0808
1010
2020
6060
C07C
ENDCHAR
STARTCHAR threequarters
ENCODING 190
SWIDTH 602 0
DWIDTH 14 0
BBX 14 17 2 0
BITMAP
F00C
0818
0810
0820
7040
18C0
0880
0900
F318
0218
0428
0828
0848
1088
20FC
6008
C008
ENDCHAR
STARTCHAR questiondown
ENCODING 191
SWIDTH 602 0
DWIDTH 14 0
BBX 10 18 2 -5
BITMAP
0C00
0C00
0000
0000
0000
0600
0600
0600
0400
0800
1000
6000
4000
C000
C000
C040
6040
3FC0
ENDCHAR
STARTCHAR Agrave
ENCODING 192
SWIDTH 602 0
DWIDTH 14 0
BBX 13 21 -1 0
BITMAP
0E00
0300
0180
0000
0600
0700
0B00
0B00
0980
1180
1180
10C0
30C0
20C0
20E0
7FE0
4060
4030
8030
8030
8018
ENDCHAR
STARTCHAR Aacute
ENCODING 193
SWIDTH 602 0
DWIDTH 14 0
BBX 13 21 -1 0
BITMAP
0700
0C00
1800
0000
0600
0700
0B00
0B00
0980
1180
1180
10C0
30C0
20C0
20E0
7FE0
4060
4030
8030
8030
8018
ENDCHAR
STARTCHAR Acircumflex
ENCODING 194
SWIDTH 602 0
DWIDTH 14 0
BBX 13 21 -1 0
BITMAP
0F00
1F80
39C0
0000
0600
0700
0B00
0B00
0980
1180
1180
10C0
30C0
20C0
20E0
7FE0
4060
4030
8030
8030
8018
ENDCHAR
STARTCHAR Atilde
ENCODING 195
SWIDTH 602 0
DWIDTH 14 0
BBX 13 20 -1 0
BITMAP
1EC0
3780
0000
0600
0700
0B00
0B00
0980
1180
1180
10C0
30C0
20C0
20E0
7FE0
4060
4030
8030
8030
8018
ENDCHAR
STARTCHAR Adieresis
ENCODING 196
SWIDTH 602 0
DWIDTH 14 0
BBX 13 19 -1 0
BITMAP
3180
0000
0600
0700
0B00
0B00
0980
1180
1180
10C0
30C0
20C0
20E0
7FE0
4060
4030
8030
8030
8018
ENDCHAR
STARTCHAR Aring
ENCODING 197
SWIDTH 602 0
DWIDTH 14 0
BBX 13 22 -1 0
BITMAP
0600
0900
0900
0600
0000
0600
0700
0B00
0B00
0980
1180
1180
10C0
30C0
20C0
20E0
7FE0
4060
4030
8030
8030
8018
ENDCHAR
STARTCHAR AE
ENCODING 198
SWIDTH 602 0
DWIDTH 14 0
BBX 12 17 -1 0
BITMAP
07E0
0700
0700
0B00
0B00
0B00
1300
1300
13E0
2300
2300
6300
7F00
4300
8300
8300
83F0
ENDCHAR
STARTCHAR Ccedilla
ENCODING 199
SWIDTH 602 0
DWIDTH 14 0
BBX 12 22 1 -5
BITMAP
07F0
1830
3000
6000
6000
C000
C000
C000
C000
C000
C000
C000
6000
6000
3000
1C10
07F0
0C00
0600
0100
0100
0E00
ENDCHAR
STARTCHAR Egrave
ENCODING 200
SWIDTH 602 0
DWIDTH 14 0
BBX 10 21 3 0
BITMAP
3800
0C00
0600
0000
FF80
C000
C000
C000
C000
C000
C000
FF00
C000
C000
C000
C000
C000
C000
C000
C000
FFC0
ENDCHAR
STARTCHAR Eacute
ENCODING 201
SWIDTH 602 0
DWIDTH 14 0
BBX 10 21 3 0
BITMAP
0E00
1800
3000
0000
FF80
C000
C000
C000
C000
C000
C000
FF00
C000
C000
C000
C000
C000
C000
C000
C000
FFC0
ENDCHAR
STARTCHAR Ecircumflex
ENCODING 202
SWIDTH 602 0
DWIDTH 14 0
BBX 10 21 3 0
BITMAP
1E00
3F00
7380
0000
FF80
C000
C000
C000
C000
C000
C000
FF00
C000
C000
C000
C000
C000
C000
C000
C000
FFC0
ENDCHAR
STARTCHAR Edieresis
ENCODING 203
SWIDTH 602 0
DWIDTH 14 0
BBX 10 19 3 0
BITMAP
6300
0000
FF80
C000
C000
C000
C000
C000
C000
FF00
C000
C000
C000
C000
C000
C000
C000
C000
FFC0
ENDCHAR
STARTCHAR Igrave
ENCODING 204
SWIDTH 602 0
DWIDTH 14 0
BBX 10 21 2 0
BITMAP
1C00
0600
0300
0000
FFC0
0C00
0C00
0C00
0C00
0C00
0C00
0C00
0C00
0C00
0C00
0C00
0C00
0C00
0C00
0C00
FFC0
ENDCHAR
STARTCHAR Iacute
ENCODING 205
SWIDTH 602 0
DWIDTH 14 0
BBX 10 21 2 0
BITMAP
0E00
1800
3000
0000
FFC0
0C00
0C00
0C00
0C00
0C00
0C00
0C00
0C00
0C00
0C00
0C00
0C00
0C00
0C00
0C00
FFC0
ENDCHAR
STARTCHAR Icircumflex
ENCODING 206
SWIDTH 602 0
DWIDTH 14 0
BBX 10 21 2 0
BITMAP
1E00
3F00
7380
0000
FFC0
0C00
0C00
0C00
0C00
0C00
0C00
0C00
0C00
0C00
0C00
0C00
0C00
0C00
0C00
0C00
FFC0
ENDCHAR
STARTCHAR Idieresis
ENCODING 207
SWIDTH 602 0
DWIDTH 14 0
BBX 10 19 2 0
BITMAP
6300
0000
FFC0
0C00
0C00
0C00
0C00
0C00
0C00
0C00
0C00
0C00
0C00
0C00
0C00
0C00
0C00
0C00
FFC0
ENDCHAR
STARTCHAR Eth
ENCODING 208
SWIDTH 602 0
DWIDTH 14 0
BBX 13 17 0 0
BITMAP
7F80
60E0
6070
6030
6018
6018
6018
FC18
6018
6018
6018
6018
6030
6030
6060
60E0
7F80
ENDCHAR
STARTCHAR Ntilde
ENCODING 209
SWIDTH 602 0
DWIDTH 14 0
BBX 11 20 2 0
BITMAP
1EC0
3780
0000
C020
E020
E020
F020
B020
9820
9820
8C20
8E20
8620
8320
8320
81A0
81E0
80E0
8060
8060
ENDCHAR
STARTCHAR Ograve
ENCODING 210
SWIDTH 602 0
DWIDTH 14 0
BBX 13 21 1 0
BITMAP
0E00
0300
0180
0000
0F80
38E0
3060
6030
6030
C018
C018
C018
C018
C018
C018
C018
6030
6030
3060
38E0
0F80
ENDCHAR
STARTCHAR Oacute
ENCODING 211
SWIDTH 602 0
DWIDTH 14 0
BBX 13 21 1 0
BITMAP
0380
0600
0C00
0000
0F80
38E0
3060
6030
6030
C018
C018
C018
C018
C018
C018
C018
6030
6030
3060
38E0
0F80
ENDCHAR
STARTCHAR Ocircumflex
ENCODING 212
SWIDTH 602 0
DWIDTH 14 0
BBX 13 21 1 0
BITMAP
0780
0FC0
1CE0
0000
0F80
38E0
3060
6030
6030
C018
C018
C018
C018
C018
C018
C018
6030
6030
3060
38E0
0F80
ENDCHAR
STARTCHAR Otilde
ENCODING 213
SWIDTH 602 0
DWIDTH 14 0
BBX 13 20 1 0
BITMAP
0F60
1BC0
0000
0F80
38E0
3060
6030
6030
C018
C018
C018
C018
C018
C018
C018
6030
6030
3060
38E0
0F80
ENDCHAR
STARTCHAR Odieresis
ENCODING 214
SWIDTH 602 0
DWIDTH 14 0
BBX 13 19 1 0
BITMAP
18C0
0000
0F80
38E0
3060
6030
6030
C018
C018
C018
C018
C018
C018
C018
6030
6030
3060
38E0
0F80
ENDCHAR
STARTCHAR multiply
ENCODING 215
SWIDTH 602 0
DWIDTH 14 0
BBX 12 13 1 0
BITMAP
C010
4030
2040
1080
1980
0F00
0600
0F00
1900
1080
2040
C020
8030
ENDCHAR
STARTCHAR Oslash
ENCODING 216
SWIDTH 602 0
DWIDTH 14 0
BBX 13 17 1 0
BITMAP
0FF8
3870
3030
6070
6078
C098
C118
C118
C218
C418
C418
C818
D030
7030
6060
78E0
FF80
ENDCHAR
STARTCHAR Ugrave
ENCODING 217
SWIDTH 602 0
DWIDTH 14 0
BBX 11 21 2 0
BITMAP
1C00
0600
0300
0000
C020
C020
C020
C020
C020
C020
C020
C020
C020
C020
C020
C020
C020
C020
4040
60C0
3F80
ENDCHAR
STARTCHAR Uacute
ENCODING 218
SWIDTH 602 0
DWIDTH 14 0
BBX 11 21 2 0
BITMAP
0700
0C00
1800
0000
C020
C020
C020
C020
C020
C020
C020
C020
C020
C020
C020
C020
C020
C020
4040
60C0
3F80
ENDCHAR
STARTCHAR Ucircumflex
ENCODING 219
SWIDTH 602 0
DWIDTH 14 0
BBX 11 21 2 0
BITMAP
1E00
3F00
7380
0000
C020
C020
C020
C020
C020
C020
C020
C020
C020
C020
C020
C020
C020
C020
4040
60C0
3F80
ENDCHAR
STARTCHAR Udieresis
ENCODING 220
SWIDTH 602 0
DWIDTH 14 0
BBX 11 19 2 0
BITMAP
3180
0000
C020
C020
C020
C020
C020
C020
C020
C020
C020
C020
C020
C020
C020
C020
4040
60C0
3F80
ENDCHAR
STARTCHAR Yacute
ENCODING 221
SWIDTH 602 0
DWIDTH 14 0
BBX 13 21 0 0
BITMAP
0380
0600
0C00
0000
E008
6018
3010
3820
1820
1C40
0CC0
0680
0700
0300
0300
0300
0300
0300
0300
0300
0300
ENDCHAR
STARTCHAR Thorn
ENCODING 222
SWIDTH 602 0
DWIDTH 14 0
BBX 11 17 3 0
BITMAP
C000
C000
C000
FF80
C0C0
C060
C060
C060
C060
C060
C0C0
C180
FE00
C000
C000
C000
C000
ENDCHAR
STARTCHAR germandbls
ENCODING 223
SWIDTH 602 0
DWIDTH 14 0
BBX 11 19 2 0
BITMAP
3C00
4700
C300
C300
C300
C600
C400
C800
C800
CC00
C600
C300
C1C0
C0E0
C060
C060
C060
C8C0
CF80
ENDCHAR
STARTCHAR agrave
ENCODING 224
SWIDTH 602 0
DWIDTH 14 0
BBX 12 17 2 0
BITMAP
1C00
0600
0300
0000
3F80
41C0
00C0
00C0
00C0
1FC0
70C0
60C0
C0C0
C0C0
C0C0
63C0
3EF0
ENDCHAR
STARTCHAR aacute
ENCODING 225
SWIDTH 602 0
DWIDTH 14 0
BBX 12 17 2 0
BITMAP
0700
0C00
1800
0000
3F80
41C0
00C0
00C0
00C0
1FC0
70C0
60C0
C0C0
C0C0
C0C0
63C0
3EF0
ENDCHAR
STARTCHAR acircumflex
ENCODING 226
SWIDTH 602 0
DWIDTH 14 0
BBX 12 17 2 0
BITMAP
0F00
1F80
39C0
0000
3F80
41C0
00C0
00C0
00C0
1FC0
70C0
60C0
C0C0
C0C0
C0C0
63C0
3EF0
ENDCHAR
STARTCHAR atilde
ENCODING 227
SWIDTH 602 0
DWIDTH 14 0
BBX 12 16 2 0
BITMAP
1EC0
3780
0000
3F80
41C0
00C0
00C0
00C0
1FC0
70C0
60C0
C0C0
C0C0
C0C0
63C0
3EF0
ENDCHAR
STARTCHAR adieresis
ENCODING 228
SWIDTH 602 0
DWIDTH 14 0
BBX 12 15 2 0
BITMAP
3180
0000
3F80
41C0
00C0
00C0
00C0
1FC0
70C0
60C0
C0C0
C0C0
C0C0
63C0
3EF0
ENDCHAR
STARTCHAR aring
ENCODING 229
SWIDTH 602 0
DWIDTH 14 0
BBX 12 18 2 0
BITMAP
0600
0900
0900
0600
0000
3F80
41C0
00C0
00C0
00C0
1FC0
70C0
60C0
C0C0
C0C0
C0C0
63C0
3EF0
ENDCHAR
STARTCHAR ae
ENCODING 230
SWIDTH 602 0
DWIDTH 14 0
BBX 14 13 0 0
BITMAP
7EF0
4398
030C
030C
030C
3FFC
6300
C300
C300
C300
C300
6784
3DFC
ENDCHAR
STARTCHAR ccedilla
ENCODING 231
SWIDTH 602 0
DWIDTH 14 0
BBX 11 18 2 -5
BITMAP
0FE0
3860
6000
6000
C000
C000
C000
C000
C000
6000
6000
3820
0FE0
0400
0600
0100
0100
0E00
ENDCHAR
STARTCHAR egrave
ENCODING 232
SWIDTH 602 0
DWIDTH 14 0
BBX 11 17 2 0
BITMAP
1C00
0600
0300
0000
1F80
31C0
60C0
6060
C060
C060
FFE0
C000
C000
4000
6000
3020
0FE0
ENDCHAR
STARTCHAR eacute
ENCODING 233
SWIDTH 602 0
DWIDTH 14 0
BBX 11 17 2 0
BITMAP
0700
0C00
1800
0000
1F80
31C0
60C0
6060
C060
C060
FFE0
C000
C000
4000
6000
3020
0FE0
ENDCHAR
STARTCHAR ecircumflex
ENCODING 234
SWIDTH 602 0
DWIDTH 14 0
BBX 11 17 2 0
BITMAP
1E00
3F00
7380
0000
1F80
31C0
60C0
6060
C060
C060
FFE0
C000
C000
4000
6000
3020
0FE0
ENDCHAR
STARTCHAR edieresis
ENCODING 235
SWIDTH 602 0
DWIDTH 14 0
BBX 11 15 2 0
BITMAP
3180
0000
1F80
31C0
60C0
6060
C060
C060
FFE0
C000
C000
4000
6000
3020
0FE0
ENDCHAR
STARTCHAR igrave
ENCODING 236
SWIDTH 602 0
DWIDTH 14 0
BBX 8 17 2 0
BITMAP
1C
06
03
00
FE
06
06
06
06
06
06
06
06
06
06
06
06
ENDCHAR
STARTCHAR iacute
ENCODING 237
SWIDTH 602 0
DWIDTH 14 0
BBX 7 17 2 0
BITMAP
0E
18
30
00
FE
06
06
06
06
06
06
06
06
06
06
06
06
ENDCHAR
STARTCHAR icircumflex
ENCODING 238
SWIDTH 602 0
DWIDTH 14 0
BBX 9 17 2 0
BITMAP
1E00
3F00
7380
0000
FE00
0600
0600
0600
0600
0600
0600
0600
0600
0600
0600
0600
0600
ENDCHAR
STARTCHAR idieresis
ENCODING 239
SWIDTH 602 0
DWIDTH 14 0
BBX 9 15 2 0
BITMAP
3180
0000
FE00
0600
0600
0600
0600
0600
0600
0600
0600
0600
0600
0600
0600
ENDCHAR
STARTCHAR eth
ENCODING 240
SWIDTH 602 0
DWIDTH 14 0
BBX 12 17 1 0
BITMAP
FF00
1F80
7300
0180
0FC0
30E0
6060
6070
C030
C030
C030
C030
C030
6060
6060
30C0
1F80
ENDCHAR
STARTCHAR ntilde
ENCODING 241
SWIDTH 602 0
DWIDTH 14 0
BBX 10 16 2 0
BITMAP
3D80
6F00
0000
CF00
DF80
F1C0
E0C0
C0C0
C0C0
C0C0
C0C0
C0C0
C0C0
C0C0
C0C0
C0C0
ENDCHAR
STARTCHAR ograve
ENCODING 242
SWIDTH 602 0
DWIDTH 14 0
BBX 12 17 1 0
BITMAP
0E00
0300
0180
0000
1F80
30C0
6060
6060
C030
C030
C030
C030
C030
6060
6060
30C0
1F80
ENDCHAR
STARTCHAR oacute
ENCODING 243
SWIDTH 602 0
DWIDTH 14 0
BBX 12 17 1 0
BITMAP
0700
0C00
1800
0000
1F80
30C0
6060
6060
C030
C030
C030
C030
C030
6060
6060
30C0
1F80
ENDCHAR
STARTCHAR ocircumflex
ENCODING 244
SWIDTH 602 0
DWIDTH 14 0
BBX 12 17 1 0
BITMAP
0F00
1F80
39C0
0000
1F80
30C0
6060
6060
C030
C030
C030
C030
C030
6060
6060
30C0
1F80
ENDCHAR
STARTCHAR otilde
ENCODING 245
SWIDTH 602 0
DWIDTH 14 0
BBX 12 16 1 0
BITMAP
1EC0
3780
0000
1F80
30C0
6060
6060
C030
C030
C030
C030
C030
6060
6060
30C0
1F80
ENDCHAR
STARTCHAR odieresis
ENCODING 246
SWIDTH 602 0
DWIDTH 14 0
BBX 12 15 1 0
BITMAP
3180
0000
1F80
30C0
6060
6060
C030
C030
C030
C030
C030
6060
6060
30C0
1F80
ENDCHAR
STARTCHAR divide
ENCODING 247
SWIDTH 602 0
DWIDTH 14 0
BBX 12 13 1 0
BITMAP
0600
0600
0000
0000
0000
0000
FFF0
0000
0000
0000
0000
0600
0600
ENDCHAR
STARTCHAR oslash
ENCODING 248
SWIDTH 602 0
DWIDTH 14 0
BBX 12 13 1 0
BITMAP
1FF0
30E0
60E0
60F0
C130
C230
C630
C430
C830
F060
7060
70C0
FF80
ENDCHAR
STARTCHAR ugrave
ENCODING 249
SWIDTH 602 0
DWIDTH 14 0
BBX 10 17 2 0
BITMAP
1C00
0600
0300
0000
C0C0
C0C0
C0C0
C0C0
C0C0
C0C0
C0C0
C0C0
C0C0
C1C0
C3C0
7EC0
3CC0
ENDCHAR
STARTCHAR uacute
ENCODING 250
SWIDTH 602 0
DWIDTH 14 0
BBX 10 17 2 0
BITMAP
0E00
1800
3000
0000
C0C0
C0C0
C0C0
C0C0
C0C0
C0C0
C0C0
C0C0
C0C0
C1C0
C3C0
7EC0
3CC0
ENDCHAR
STARTCHAR ucircumflex
ENCODING 251
SWIDTH 602 0
DWIDTH 14 0
BBX 10 17 2 0
BITMAP
1E00
3F00
7380
0000
C0C0
C0C0
C0C0
C0C0
C0C0
C0C0
C0C0
C0C0
C0C0
C1C0
C3C0
7EC0
3CC0
ENDCHAR
STARTCHAR udieresis
ENCODING 252
SWIDTH 602 0
DWIDTH 14 0
BBX 10 15 2 0
BITMAP
3180
0000
C0C0
C0C0
C0C0
C0C0
C0C0
C0C0
C0C0
C0C0
C0C0
C1C0
C3C0
7EC0
3CC0
ENDCHAR
STARTCHAR yacute
ENCODING 253
SWIDTH 602 0
DWIDTH 14 0
BBX 13 22 1 -5
BITMAP
0380
0600
0C00
0000
E018
6010
6030
3020
3020
3840
1840
1880
0C80
0D80
0F00
0700
0600
0200
0400
0400
0800
7000
ENDCHAR
STARTCHAR thorn
ENCODING 254
SWIDTH 602 0
DWIDTH 14 0
BBX 11 21 2 -5
BITMAP
C000
C000
C000
CF00
F1C0
E0C0
C060
C060
C060
C060
C060
C060
C0C0
C0C0
F180
DF00
C000
C000
C000
C000
C000
ENDCHAR
STARTCHAR ydieresis
ENCODING 255
SWIDTH 602 0
DWIDTH 14 0
BBX 13 20 1 -5
BITMAP
18C0
0000
E018
6010
6030
3020
3020
3840
1840
1880
0C80
0D80
0F00
0700
0600
0200
0400
0400
0800
7000
ENDCHAR
ENDFONT
