STARTFONT 2.1
COMMENT AUTOMATICALLY GENERATED FILE. DO NOT EDIT!
COMMENT Generated with 'ucs2any.pl ncenB12.bdf ../../../fonts/util/map-ISO8859-1 ISO8859-1'
COMMENT from an ISO10646-1 encoded source BDF font.
COMMENT ucs2any.pl by Markus Kuhn <mkuhn@acm.org>, 2000.
FONT -Adobe-New Century Schoolbook-Bold-R-Normal--12-120-75-75-P-77-ISO8859-1
SIZE 12 75 75
FONTBOUNDINGBOX 15 15 -2 -3
COMMENT $Xorg: $
COMMENT ISO10646-1 extension by Markus Kuhn <mkuhn@acm.org>, 2001-03-20
COMMENT 
COMMENT +
COMMENT  Copyright 1984-1989, 1994 Adobe Systems Incorporated.
COMMENT  Copyright 1988, 1994 Digital Equipment Corporation.
COMMENT
COMMENT  Adobe is a trademark of Adobe Systems Incorporated which may be
COMMENT  registered in certain jurisdictions.
COMMENT  Permission to use these trademarks is hereby granted only in
COMMENT  association with the images described in this file.
COMMENT
COMMENT  Permission to use, copy, modify, distribute and sell this software
COMMENT  and its documentation for any purpose and without fee is hereby
COMMENT  granted, provided that the above copyright notices appear in all
COMMENT  copies and that both those copyright notices and this permission
COMMENT  notice appear in supporting documentation, and that the names of
COMMENT  Adobe Systems and Digital Equipment Corporation not be used in
COMMENT  advertising or publicity pertaining to distribution of the software
COMMENT  without specific, written prior permission.  Adobe Systems and
COMMENT  Digital Equipment Corporation make no representations about the
COMMENT  suitability of this software for any purpose.  It is provided "as
COMMENT  is" without express or implied warranty.
COMMENT -
STARTPROPERTIES 26
FOUNDRY "Adobe"
FAMILY_NAME "New Century Schoolbook"
WEIGHT_NAME "Bold"
SLANT "R"
SETWIDTH_NAME "Normal"
ADD_STYLE_NAME ""
PIXEL_SIZE 12
POINT_SIZE 120
RESOLUTION_X 75
RESOLUTION_Y 75
SPACING "P"
AVERAGE_WIDTH 77
CHARSET_REGISTRY "ISO8859"
CHARSET_ENCODING "1"
CAP_HEIGHT 9
X_HEIGHT 6
FONT_ASCENT 11
FONT_DESCENT 3
FACE_NAME "New Century Schoolbook Bold"
COPYRIGHT "Copyright (c) 1984, 1987 Adobe Systems Incorporated. All Rights Reserved. Copyright (c) 1988, 1991 Digital Equipment Corporation. All Rights Reserved."
NOTICE "New Century Schoolbook is a trademark of Linotype-Hell AG and/or its subsidiaries."
_DEC_DEVICE_FONTNAMES "PS=NewCenturySchlbk-Bold"
DEFAULT_CHAR 0
RELATIVE_SETWIDTH 50
RELATIVE_WEIGHT 70
FULL_NAME "New Centuy Schoolbook Bold"
ENDPROPERTIES
CHARS 192
STARTCHAR defaultchar
ENCODING 0
SWIDTH 870 0
DWIDTH 11 0
BBX 9 9 0 0
BITMAP
AA80
0000
8080
0000
8080
0000
8080
0000
AA80
ENDCHAR
STARTCHAR space
ENCODING 32
SWIDTH 287 0
DWIDTH 4 0
BBX 1 1 0 0
BITMAP
00
ENDCHAR
STARTCHAR exclam
ENCODING 33
SWIDTH 296 0
DWIDTH 4 0
BBX 2 9 1 0
BITMAP
C0
C0
C0
C0
80
80
00
C0
C0
ENDCHAR
STARTCHAR quotedbl
ENCODING 34
SWIDTH 333 0
DWIDTH 6 0
BBX 3 3 1 6
BITMAP
A0
A0
A0
ENDCHAR
STARTCHAR numbersign
ENCODING 35
SWIDTH 574 0
DWIDTH 8 0
BBX 7 9 0 0
BITMAP
14
14
7E
28
28
FC
50
50
50
ENDCHAR
STARTCHAR dollar
ENCODING 36
SWIDTH 574 0
DWIDTH 7 0
BBX 6 11 0 -1
BITMAP
10
78
DC
90
D0
78
1C
D4
D4
78
10
ENDCHAR
STARTCHAR percent
ENCODING 37
SWIDTH 833 0
DWIDTH 13 0
BBX 12 9 0 0
BITMAP
3100
6F00
CA00
CA60
D4D0
6590
0990
09A0
10C0
ENDCHAR
STARTCHAR ampersand
ENCODING 38
SWIDTH 852 0
DWIDTH 11 0
BBX 10 9 0 0
BITMAP
1C00
3200
3400
19C0
3C80
4F00
C700
E7C0
7980
ENDCHAR
STARTCHAR quotesingle
ENCODING 39
SWIDTH 241 0
DWIDTH 4 0
BBX 2 4 0 5
BITMAP
C0
C0
C0
80
ENDCHAR
STARTCHAR parenleft
ENCODING 40
SWIDTH 389 0
DWIDTH 5 0
BBX 4 11 0 -2
BITMAP
10
20
60
40
C0
C0
C0
40
60
20
10
ENDCHAR
STARTCHAR parenright
ENCODING 41
SWIDTH 389 0
DWIDTH 5 0
BBX 4 11 0 -2
BITMAP
80
40
60
20
30
30
30
20
60
40
80
ENDCHAR
STARTCHAR asterisk
ENCODING 42
SWIDTH 500 0
DWIDTH 6 0
BBX 5 5 0 4
BITMAP
20
A8
70
A8
20
ENDCHAR
STARTCHAR plus
ENCODING 43
SWIDTH 606 0
DWIDTH 8 0
BBX 7 7 0 0
BITMAP
10
10
10
FE
10
10
10
ENDCHAR
STARTCHAR comma
ENCODING 44
SWIDTH 278 0
DWIDTH 4 0
BBX 2 4 1 -2
BITMAP
C0
C0
40
80
ENDCHAR
STARTCHAR hyphen
ENCODING 45
SWIDTH 333 0
DWIDTH 4 0
BBX 3 2 0 2
BITMAP
E0
E0
ENDCHAR
STARTCHAR period
ENCODING 46
SWIDTH 278 0
DWIDTH 4 0
BBX 2 2 1 0
BITMAP
C0
C0
ENDCHAR
STARTCHAR slash
ENCODING 47
SWIDTH 278 0
DWIDTH 4 0
BBX 3 9 0 0
BITMAP
20
20
20
60
40
C0
80
80
80
ENDCHAR
STARTCHAR zero
ENCODING 48
SWIDTH 574 0
DWIDTH 7 0
BBX 6 9 0 0
BITMAP
30
48
CC
CC
CC
CC
CC
48
30
ENDCHAR
STARTCHAR one
ENCODING 49
SWIDTH 574 0
DWIDTH 7 0
BBX 4 9 1 0
BITMAP
20
E0
60
60
60
60
60
60
F0
ENDCHAR
STARTCHAR two
ENCODING 50
SWIDTH 574 0
DWIDTH 7 0
BBX 6 9 0 0
BITMAP
78
CC
CC
0C
18
30
44
FC
FC
ENDCHAR
STARTCHAR three
ENCODING 51
SWIDTH 574 0
DWIDTH 7 0
BBX 6 9 0 0
BITMAP
78
CC
CC
0C
30
0C
CC
CC
78
ENDCHAR
STARTCHAR four
ENCODING 52
SWIDTH 574 0
DWIDTH 7 0
BBX 6 9 0 0
BITMAP
38
38
58
58
98
98
FC
18
3C
ENDCHAR
STARTCHAR five
ENCODING 53
SWIDTH 574 0
DWIDTH 7 0
BBX 6 9 0 0
BITMAP
7C
78
40
78
4C
0C
CC
CC
78
ENDCHAR
STARTCHAR six
ENCODING 54
SWIDTH 574 0
DWIDTH 7 0
BBX 6 9 0 0
BITMAP
38
4C
CC
C0
F8
CC
CC
CC
78
ENDCHAR
STARTCHAR seven
ENCODING 55
SWIDTH 574 0
DWIDTH 7 0
BBX 6 9 0 0
BITMAP
FC
FC
88
18
18
30
30
30
30
ENDCHAR
STARTCHAR eight
ENCODING 56
SWIDTH 574 0
DWIDTH 7 0
BBX 6 9 0 0
BITMAP
78
CC
C4
68
78
5C
8C
CC
78
ENDCHAR
STARTCHAR nine
ENCODING 57
SWIDTH 574 0
DWIDTH 7 0
BBX 6 9 0 0
BITMAP
78
CC
CC
CC
7C
0C
CC
C8
70
ENDCHAR
STARTCHAR colon
ENCODING 58
SWIDTH 278 0
DWIDTH 4 0
BBX 2 6 1 0
BITMAP
C0
C0
00
00
C0
C0
ENDCHAR
STARTCHAR semicolon
ENCODING 59
SWIDTH 278 0
DWIDTH 4 0
BBX 2 8 1 -2
BITMAP
C0
C0
00
00
C0
C0
40
80
ENDCHAR
STARTCHAR less
ENCODING 60
SWIDTH 606 0
DWIDTH 7 0
BBX 6 5 0 1
BITMAP
0C
38
E0
38
0C
ENDCHAR
STARTCHAR equal
ENCODING 61
SWIDTH 606 0
DWIDTH 7 0
BBX 6 3 0 2
BITMAP
FC
00
FC
ENDCHAR
STARTCHAR greater
ENCODING 62
SWIDTH 606 0
DWIDTH 7 0
BBX 6 5 0 1
BITMAP
C0
70
1C
70
C0
ENDCHAR
STARTCHAR question
ENCODING 63
SWIDTH 500 0
DWIDTH 7 0
BBX 6 9 0 0
BITMAP
78
CC
CC
0C
18
20
00
30
30
ENDCHAR
STARTCHAR at
ENCODING 64
SWIDTH 747 0
DWIDTH 11 0
BBX 10 9 0 0
BITMAP
0F00
3080
4F40
5340
B640
B680
9B00
4080
3F00
ENDCHAR
STARTCHAR A
ENCODING 65
SWIDTH 759 0
DWIDTH 11 0
BBX 10 9 0 0
BITMAP
0C00
0C00
1600
1600
2300
3F00
4180
4180
E3C0
ENDCHAR
STARTCHAR B
ENCODING 66
SWIDTH 778 0
DWIDTH 9 0
BBX 8 9 0 0
BITMAP
FC
66
66
66
7C
63
63
63
FE
ENDCHAR
STARTCHAR C
ENCODING 67
SWIDTH 778 0
DWIDTH 9 0
BBX 8 9 0 0
BITMAP
3D
63
C1
C1
C0
C0
C1
63
3E
ENDCHAR
STARTCHAR D
ENCODING 68
SWIDTH 833 0
DWIDTH 10 0
BBX 9 9 0 0
BITMAP
FE00
6300
6180
6180
6180
6180
6180
6300
FE00
ENDCHAR
STARTCHAR E
ENCODING 69
SWIDTH 759 0
DWIDTH 9 0
BBX 8 9 0 0
BITMAP
FF
63
61
64
7C
64
61
63
FF
ENDCHAR
STARTCHAR F
ENCODING 70
SWIDTH 722 0
DWIDTH 9 0
BBX 8 9 0 0
BITMAP
FF
63
61
65
7C
64
60
60
F0
ENDCHAR
STARTCHAR G
ENCODING 71
SWIDTH 833 0
DWIDTH 10 0
BBX 9 9 0 0
BITMAP
3D00
6300
C100
C100
C000
C780
C300
6300
3D00
ENDCHAR
STARTCHAR H
ENCODING 72
SWIDTH 870 0
DWIDTH 11 0
BBX 10 9 0 0
BITMAP
F3C0
6180
6180
6180
7F80
6180
6180
6180
F3C0
ENDCHAR
STARTCHAR I
ENCODING 73
SWIDTH 444 0
DWIDTH 5 0
BBX 4 9 0 0
BITMAP
F0
60
60
60
60
60
60
60
F0
ENDCHAR
STARTCHAR J
ENCODING 74
SWIDTH 648 0
DWIDTH 8 0
BBX 7 9 0 0
BITMAP
1E
0C
0C
0C
0C
0C
CC
CC
70
ENDCHAR
STARTCHAR K
ENCODING 75
SWIDTH 815 0
DWIDTH 10 0
BBX 9 9 0 0
BITMAP
F780
6200
6400
6800
7C00
6E00
6600
6700
F380
ENDCHAR
STARTCHAR L
ENCODING 76
SWIDTH 722 0
DWIDTH 9 0
BBX 8 9 0 0
BITMAP
F0
60
60
60
60
60
61
63
FF
ENDCHAR
STARTCHAR M
ENCODING 77
SWIDTH 981 0
DWIDTH 12 0
BBX 11 9 0 0
BITMAP
F1E0
71C0
71C0
5AC0
5AC0
5AC0
4CC0
4CC0
EDE0
ENDCHAR
STARTCHAR N
ENCODING 78
SWIDTH 833 0
DWIDTH 11 0
BBX 10 9 0 0
BITMAP
E1C0
7080
7880
5C80
4E80
4780
4380
4180
E080
ENDCHAR
STARTCHAR O
ENCODING 79
SWIDTH 833 0
DWIDTH 10 0
BBX 9 9 0 0
BITMAP
3E00
6300
C180
C180
C180
C180
C180
6300
3E00
ENDCHAR
STARTCHAR P
ENCODING 80
SWIDTH 759 0
DWIDTH 9 0
BBX 8 9 0 0
BITMAP
FE
63
63
63
66
7C
60
60
F0
ENDCHAR
STARTCHAR Q
ENCODING 81
SWIDTH 833 0
DWIDTH 10 0
BBX 10 11 0 -2
BITMAP
3E00
6300
C180
C180
C180
D980
E580
6700
3E00
03C0
0180
ENDCHAR
STARTCHAR R
ENCODING 82
SWIDTH 815 0
DWIDTH 10 0
BBX 9 9 0 0
BITMAP
FE00
6300
6300
6300
7C00
6600
6600
6380
F300
ENDCHAR
STARTCHAR S
ENCODING 83
SWIDTH 667 0
DWIDTH 8 0
BBX 7 9 0 0
BITMAP
7A
C6
C2
F0
7C
1E
86
C6
BC
ENDCHAR
STARTCHAR T
ENCODING 84
SWIDTH 722 0
DWIDTH 9 0
BBX 8 9 0 0
BITMAP
FF
DB
99
99
18
18
18
18
3C
ENDCHAR
STARTCHAR U
ENCODING 85
SWIDTH 833 0
DWIDTH 10 0
BBX 9 9 0 0
BITMAP
F380
6100
6100
6100
6100
6100
6100
7300
3E00
ENDCHAR
STARTCHAR V
ENCODING 86
SWIDTH 759 0
DWIDTH 11 0
BBX 10 9 0 0
BITMAP
F1C0
6080
6080
3100
3100
1A00
1A00
0C00
0C00
ENDCHAR
STARTCHAR W
ENCODING 87
SWIDTH 981 0
DWIDTH 14 0
BBX 13 9 0 0
BITMAP
F7B8
6310
6310
35A0
35A0
35A0
18C0
18C0
18C0
ENDCHAR
STARTCHAR X
ENCODING 88
SWIDTH 722 0
DWIDTH 10 0
BBX 9 9 0 0
BITMAP
F780
6200
7400
3C00
1C00
2E00
2700
4300
E780
ENDCHAR
STARTCHAR Y
ENCODING 89
SWIDTH 722 0
DWIDTH 9 0
BBX 8 9 0 0
BITMAP
F7
62
62
34
34
18
18
18
3C
ENDCHAR
STARTCHAR Z
ENCODING 90
SWIDTH 667 0
DWIDTH 9 0
BBX 8 9 0 0
BITMAP
FF
C7
8E
1C
18
38
71
E3
FF
ENDCHAR
STARTCHAR bracketleft
ENCODING 91
SWIDTH 389 0
DWIDTH 5 0
BBX 4 11 0 -2
BITMAP
F0
C0
C0
C0
C0
C0
C0
C0
C0
C0
F0
ENDCHAR
STARTCHAR backslash
ENCODING 92
SWIDTH 606 0
DWIDTH 6 0
BBX 5 9 0 0
BITMAP
80
C0
40
60
20
30
10
18
08
ENDCHAR
STARTCHAR bracketright
ENCODING 93
SWIDTH 389 0
DWIDTH 5 0
BBX 4 11 0 -2
BITMAP
F0
30
30
30
30
30
30
30
30
30
F0
ENDCHAR
STARTCHAR asciicircum
ENCODING 94
SWIDTH 606 0
DWIDTH 6 0
BBX 5 6 0 3
BITMAP
20
20
70
50
D8
88
ENDCHAR
STARTCHAR underscore
ENCODING 95
SWIDTH 500 0
DWIDTH 6 0
BBX 6 1 0 -2
BITMAP
FC
ENDCHAR
STARTCHAR grave
ENCODING 96
SWIDTH 333 0
DWIDTH 5 0
BBX 3 2 1 7
BITMAP
C0
60
ENDCHAR
STARTCHAR a
ENCODING 97
SWIDTH 611 0
DWIDTH 8 0
BBX 7 6 0 0
BITMAP
78
4C
3C
CC
DC
6E
ENDCHAR
STARTCHAR b
ENCODING 98
SWIDTH 648 0
DWIDTH 8 0
BBX 8 9 -1 0
BITMAP
E0
60
60
6C
77
63
63
67
5C
ENDCHAR
STARTCHAR c
ENCODING 99
SWIDTH 556 0
DWIDTH 7 0
BBX 6 6 0 0
BITMAP
38
EC
C0
C0
EC
38
ENDCHAR
STARTCHAR d
ENCODING 100
SWIDTH 667 0
DWIDTH 9 0
BBX 8 9 0 0
BITMAP
0E
06
06
36
EE
C6
C6
EE
37
ENDCHAR
STARTCHAR e
ENCODING 101
SWIDTH 574 0
DWIDTH 7 0
BBX 6 6 0 0
BITMAP
38
EC
FC
C0
EC
38
ENDCHAR
STARTCHAR f
ENCODING 102
SWIDTH 389 0
DWIDTH 5 0
BBX 5 9 0 0
BITMAP
38
68
60
F8
60
60
60
60
F0
ENDCHAR
STARTCHAR g
ENCODING 103
SWIDTH 611 0
DWIDTH 7 0
BBX 7 10 0 -3
BITMAP
0C
78
CC
CC
78
80
FC
7E
86
7C
ENDCHAR
STARTCHAR h
ENCODING 104
SWIDTH 685 0
DWIDTH 9 0
BBX 8 9 0 0
BITMAP
E0
60
60
6C
76
66
66
66
F7
ENDCHAR
STARTCHAR i
ENCODING 105
SWIDTH 370 0
DWIDTH 5 0
BBX 4 9 0 0
BITMAP
60
60
00
E0
60
60
60
60
F0
ENDCHAR
STARTCHAR j
ENCODING 106
SWIDTH 352 0
DWIDTH 3 0
BBX 4 12 -2 -3
BITMAP
30
30
00
70
30
30
30
30
30
30
B0
E0
ENDCHAR
STARTCHAR k
ENCODING 107
SWIDTH 667 0
DWIDTH 8 0
BBX 8 9 0 0
BITMAP
E0
60
60
6E
6C
78
6C
66
F7
ENDCHAR
STARTCHAR l
ENCODING 108
SWIDTH 352 0
DWIDTH 5 0
BBX 4 9 0 0
BITMAP
E0
60
60
60
60
60
60
60
F0
ENDCHAR
STARTCHAR m
ENCODING 109
SWIDTH 963 0
DWIDTH 13 0
BBX 12 6 0 0
BITMAP
ECC0
7760
6660
6660
6660
F770
ENDCHAR
STARTCHAR n
ENCODING 110
SWIDTH 685 0
DWIDTH 9 0
BBX 8 6 0 0
BITMAP
EC
76
66
66
66
F7
ENDCHAR
STARTCHAR o
ENCODING 111
SWIDTH 611 0
DWIDTH 8 0
BBX 7 6 0 0
BITMAP
38
EE
C6
C6
EE
38
ENDCHAR
STARTCHAR p
ENCODING 112
SWIDTH 667 0
DWIDTH 8 0
BBX 8 9 -1 -3
BITMAP
EC
77
63
63
77
6C
60
60
F0
ENDCHAR
STARTCHAR q
ENCODING 113
SWIDTH 648 0
DWIDTH 8 0
BBX 8 9 0 -3
BITMAP
36
EE
C6
C6
EE
36
06
06
0F
ENDCHAR
STARTCHAR r
ENCODING 114
SWIDTH 519 0
DWIDTH 6 0
BBX 6 6 0 0
BITMAP
EC
7C
60
60
60
F0
ENDCHAR
STARTCHAR s
ENCODING 115
SWIDTH 500 0
DWIDTH 6 0
BBX 5 6 0 0
BITMAP
78
88
F0
78
88
F0
ENDCHAR
STARTCHAR t
ENCODING 116
SWIDTH 426 0
DWIDTH 5 0
BBX 5 9 0 0
BITMAP
20
60
60
F8
60
60
60
60
30
ENDCHAR
STARTCHAR u
ENCODING 117
SWIDTH 685 0
DWIDTH 9 0
BBX 8 6 0 0
BITMAP
EE
66
66
66
6E
37
ENDCHAR
STARTCHAR v
ENCODING 118
SWIDTH 611 0
DWIDTH 7 0
BBX 8 6 -1 0
BITMAP
F7
62
34
34
18
18
ENDCHAR
STARTCHAR w
ENCODING 119
SWIDTH 889 0
DWIDTH 11 0
BBX 12 6 -1 0
BITMAP
EF70
6620
3740
3740
1980
1980
ENDCHAR
STARTCHAR x
ENCODING 120
SWIDTH 611 0
DWIDTH 8 0
BBX 7 6 0 0
BITMAP
EE
64
38
38
4C
EE
ENDCHAR
STARTCHAR y
ENCODING 121
SWIDTH 611 0
DWIDTH 7 0
BBX 8 9 -1 -3
BITMAP
F7
62
34
34
18
18
10
E0
C0
ENDCHAR
STARTCHAR z
ENCODING 122
SWIDTH 537 0
DWIDTH 7 0
BBX 6 6 0 0
BITMAP
FC
9C
38
70
E4
FC
ENDCHAR
STARTCHAR braceleft
ENCODING 123
SWIDTH 389 0
DWIDTH 5 0
BBX 4 11 0 -2
BITMAP
30
60
60
60
40
80
40
60
60
60
30
ENDCHAR
STARTCHAR bar
ENCODING 124
SWIDTH 606 0
DWIDTH 8 0
BBX 1 9 3 0
BITMAP
80
80
80
80
80
80
80
80
80
ENDCHAR
STARTCHAR braceright
ENCODING 125
SWIDTH 389 0
DWIDTH 5 0
BBX 4 11 0 -2
BITMAP
C0
60
60
60
20
10
20
60
60
60
C0
ENDCHAR
STARTCHAR asciitilde
ENCODING 126
SWIDTH 606 0
DWIDTH 7 0
BBX 6 3 0 2
BITMAP
64
FC
98
ENDCHAR
STARTCHAR space
ENCODING 160
SWIDTH 287 0
DWIDTH 4 0
BBX 1 1 0 0
BITMAP
00
ENDCHAR
STARTCHAR exclamdown
ENCODING 161
SWIDTH 296 0
DWIDTH 4 0
BBX 2 9 0 -3
BITMAP
C0
C0
00
40
40
C0
C0
C0
C0
ENDCHAR
STARTCHAR cent
ENCODING 162
SWIDTH 574 0
DWIDTH 7 0
BBX 6 8 0 -1
BITMAP
04
38
EC
D0
D0
EC
38
40
ENDCHAR
STARTCHAR sterling
ENCODING 163
SWIDTH 574 0
DWIDTH 8 0
BBX 7 9 0 0
BITMAP
38
6C
6C
60
FC
30
62
BE
DC
ENDCHAR
STARTCHAR currency
ENCODING 164
SWIDTH 606 0
DWIDTH 8 0
BBX 7 6 0 2
BITMAP
BA
6C
C6
C6
6C
BA
ENDCHAR
STARTCHAR yen
ENCODING 165
SWIDTH 722 0
DWIDTH 9 0
BBX 8 9 0 0
BITMAP
F7
62
62
34
76
18
7E
18
3C
ENDCHAR
STARTCHAR brokenbar
ENCODING 166
SWIDTH 606 0
DWIDTH 8 0
BBX 1 9 3 0
BITMAP
80
80
80
00
00
80
80
80
80
ENDCHAR
STARTCHAR section
ENCODING 167
SWIDTH 500 0
DWIDTH 6 0
BBX 5 10 0 -1
BITMAP
70
98
C0
70
98
C8
70
18
C8
70
ENDCHAR
STARTCHAR dieresis
ENCODING 168
SWIDTH 333 0
DWIDTH 5 0
BBX 3 2 1 7
BITMAP
A0
A0
ENDCHAR
STARTCHAR copyright
ENCODING 169
SWIDTH 747 0
DWIDTH 10 0
BBX 9 9 0 0
BITMAP
3E00
4100
9E80
A280
A080
B280
9C80
4100
3E00
ENDCHAR
STARTCHAR ordfeminine
ENCODING 170
SWIDTH 367 0
DWIDTH 6 0
BBX 5 7 0 2
BITMAP
E0
30
70
B0
D8
00
F8
ENDCHAR
STARTCHAR guillemotleft
ENCODING 171
SWIDTH 500 0
DWIDTH 8 0
BBX 7 5 0 1
BITMAP
36
6C
D8
6C
36
ENDCHAR
STARTCHAR logicalnot
ENCODING 172
SWIDTH 606 0
DWIDTH 7 0
BBX 6 3 0 2
BITMAP
FC
04
04
ENDCHAR
STARTCHAR hyphen
ENCODING 173
SWIDTH 333 0
DWIDTH 4 0
BBX 3 2 0 2
BITMAP
E0
E0
ENDCHAR
STARTCHAR registered
ENCODING 174
SWIDTH 747 0
DWIDTH 11 0
BBX 9 9 0 0
BITMAP
3E00
4100
BC80
9480
9880
9480
B680
4100
3E00
ENDCHAR
STARTCHAR macron
ENCODING 175
SWIDTH 333 0
DWIDTH 6 0
BBX 4 1 1 7
BITMAP
F0
ENDCHAR
STARTCHAR degree
ENCODING 176
SWIDTH 400 0
DWIDTH 5 0
BBX 4 4 0 5
BITMAP
60
90
90
60
ENDCHAR
STARTCHAR plusminus
ENCODING 177
SWIDTH 606 0
DWIDTH 8 0
BBX 7 7 0 0
BITMAP
10
10
FE
10
10
00
FE
ENDCHAR
STARTCHAR twosuperior
ENCODING 178
SWIDTH 344 0
DWIDTH 4 0
BBX 4 5 0 4
BITMAP
E0
30
60
C0
F0
ENDCHAR
STARTCHAR threesuperior
ENCODING 179
SWIDTH 344 0
DWIDTH 4 0
BBX 4 5 0 4
BITMAP
E0
30
60
30
E0
ENDCHAR
STARTCHAR acute
ENCODING 180
SWIDTH 333 0
DWIDTH 5 0
BBX 3 2 1 7
BITMAP
60
C0
ENDCHAR
STARTCHAR mu
ENCODING 181
SWIDTH 685 0
DWIDTH 9 0
BBX 8 9 0 -3
BITMAP
EE
66
66
66
6E
77
40
60
60
ENDCHAR
STARTCHAR paragraph
ENCODING 182
SWIDTH 747 0
DWIDTH 10 0
BBX 9 9 0 0
BITMAP
7F80
FB00
FB00
FB00
7B00
1B00
1B00
1B00
3F80
ENDCHAR
STARTCHAR periodcentered
ENCODING 183
SWIDTH 278 0
DWIDTH 3 0
BBX 2 2 0 3
BITMAP
C0
C0
ENDCHAR
STARTCHAR cedilla
ENCODING 184
SWIDTH 333 0
DWIDTH 5 0
BBX 3 3 1 -3
BITMAP
40
20
C0
ENDCHAR
STARTCHAR onesuperior
ENCODING 185
SWIDTH 344 0
DWIDTH 4 0
BBX 3 5 0 4
BITMAP
40
C0
40
40
E0
ENDCHAR
STARTCHAR ordmasculine
ENCODING 186
SWIDTH 367 0
DWIDTH 6 0
BBX 5 7 0 2
BITMAP
70
D8
D8
D8
70
00
F8
ENDCHAR
STARTCHAR guillemotright
ENCODING 187
SWIDTH 500 0
DWIDTH 8 0
BBX 7 5 0 1
BITMAP
D8
6C
36
6C
D8
ENDCHAR
STARTCHAR onequarter
ENCODING 188
SWIDTH 861 0
DWIDTH 10 0
BBX 9 9 0 0
BITMAP
4200
C600
4400
4C00
E900
1B00
1500
3780
2100
ENDCHAR
STARTCHAR onehalf
ENCODING 189
SWIDTH 861 0
DWIDTH 10 0
BBX 9 9 0 0
BITMAP
4200
C600
4400
4C00
EF00
1980
1300
3600
2780
ENDCHAR
STARTCHAR threequarters
ENCODING 190
SWIDTH 861 0
DWIDTH 10 0
BBX 9 9 0 0
BITMAP
E200
3600
6400
3C00
E900
1B00
1500
3780
2100
ENDCHAR
STARTCHAR questiondown
ENCODING 191
SWIDTH 500 0
DWIDTH 7 0
BBX 6 9 0 -3
BITMAP
30
30
00
10
60
C0
CC
CC
78
ENDCHAR
STARTCHAR Agrave
ENCODING 192
SWIDTH 759 0
DWIDTH 11 0
BBX 10 12 0 0
BITMAP
3800
0C00
0000
0C00
0C00
1600
1600
2300
3F00
4180
4180
E3C0
ENDCHAR
STARTCHAR Aacute
ENCODING 193
SWIDTH 759 0
DWIDTH 11 0
BBX 10 12 0 0
BITMAP
0700
0C00
0000
0C00
0C00
1600
1600
2300
3F00
4180
4180
E3C0
ENDCHAR
STARTCHAR Acircumflex
ENCODING 194
SWIDTH 759 0
DWIDTH 11 0
BBX 10 12 0 0
BITMAP
0E00
1B00
0000
0C00
0C00
1600
1600
2300
3F00
4180
4180
E3C0
ENDCHAR
STARTCHAR Atilde
ENCODING 195
SWIDTH 759 0
DWIDTH 11 0
BBX 10 12 0 0
BITMAP
0D00
1600
0000
0C00
0C00
1600
1600
2300
3F00
4180
4180
E3C0
ENDCHAR
STARTCHAR Adieresis
ENCODING 196
SWIDTH 759 0
DWIDTH 11 0
BBX 10 12 0 0
BITMAP
1200
1200
0000
0C00
0C00
1600
1600
2300
3F00
4180
4180
E3C0
ENDCHAR
STARTCHAR Aring
ENCODING 197
SWIDTH 759 0
DWIDTH 11 0
BBX 10 12 0 0
BITMAP
0E00
1300
0E00
0C00
0C00
1600
1600
2300
3F00
4180
4180
E3C0
ENDCHAR
STARTCHAR AE
ENCODING 198
SWIDTH 981 0
DWIDTH 14 0
BBX 13 9 0 0
BITMAP
1FF8
0B18
1308
1320
3FE0
2320
4308
4318
E7F8
ENDCHAR
STARTCHAR Ccedilla
ENCODING 199
SWIDTH 778 0
DWIDTH 9 0
BBX 8 12 0 -3
BITMAP
3D
63
C1
C1
C0
C0
C1
63
3E
10
08
30
ENDCHAR
STARTCHAR Egrave
ENCODING 200
SWIDTH 759 0
DWIDTH 9 0
BBX 8 12 0 0
BITMAP
70
18
00
FF
63
61
64
7C
64
61
63
FF
ENDCHAR
STARTCHAR Eacute
ENCODING 201
SWIDTH 759 0
DWIDTH 9 0
BBX 8 12 0 0
BITMAP
0E
18
00
FF
63
61
64
7C
64
61
63
FF
ENDCHAR
STARTCHAR Ecircumflex
ENCODING 202
SWIDTH 759 0
DWIDTH 9 0
BBX 8 12 0 0
BITMAP
1C
36
00
FF
63
61
64
7C
64
61
63
FF
ENDCHAR
STARTCHAR Edieresis
ENCODING 203
SWIDTH 759 0
DWIDTH 9 0
BBX 8 12 0 0
BITMAP
24
24
00
FF
63
61
64
7C
64
61
63
FF
ENDCHAR
STARTCHAR Igrave
ENCODING 204
SWIDTH 444 0
DWIDTH 5 0
BBX 4 12 0 0
BITMAP
E0
30
00
F0
60
60
60
60
60
60
60
F0
ENDCHAR
STARTCHAR Iacute
ENCODING 205
SWIDTH 444 0
DWIDTH 5 0
BBX 5 12 0 0
BITMAP
38
60
00
F0
60
60
60
60
60
60
60
F0
ENDCHAR
STARTCHAR Icircumflex
ENCODING 206
SWIDTH 444 0
DWIDTH 5 0
BBX 5 12 0 0
BITMAP
70
D8
00
F0
60
60
60
60
60
60
60
F0
ENDCHAR
STARTCHAR Idieresis
ENCODING 207
SWIDTH 444 0
DWIDTH 5 0
BBX 4 12 0 0
BITMAP
90
90
00
F0
60
60
60
60
60
60
60
F0
ENDCHAR
STARTCHAR Eth
ENCODING 208
SWIDTH 833 0
DWIDTH 10 0
BBX 9 9 0 0
BITMAP
FE00
6300
6180
6180
F180
6180
6180
6300
FE00
ENDCHAR
STARTCHAR Ntilde
ENCODING 209
SWIDTH 833 0
DWIDTH 11 0
BBX 10 12 0 0
BITMAP
1D00
2E00
0000
E1C0
7080
7880
5C80
4E80
4780
4380
4180
E080
ENDCHAR
STARTCHAR Ograve
ENCODING 210
SWIDTH 833 0
DWIDTH 10 0
BBX 9 12 0 0
BITMAP
3800
0C00
0000
3E00
6300
C180
C180
C180
C180
C180
6300
3E00
ENDCHAR
STARTCHAR Oacute
ENCODING 211
SWIDTH 833 0
DWIDTH 10 0
BBX 9 12 0 0
BITMAP
0E00
1800
0000
3E00
6300
C180
C180
C180
C180
C180
6300
3E00
ENDCHAR
STARTCHAR Ocircumflex
ENCODING 212
SWIDTH 833 0
DWIDTH 10 0
BBX 9 12 0 0
BITMAP
1C00
3600
0000
3E00
6300
C180
C180
C180
C180
C180
6300
3E00
ENDCHAR
STARTCHAR Otilde
ENCODING 213
SWIDTH 833 0
DWIDTH 10 0
BBX 9 12 0 0
BITMAP
1D00
2E00
0000
3E00
6300
C180
C180
C180
C180
C180
6300
3E00
ENDCHAR
STARTCHAR Odieresis
ENCODING 214
SWIDTH 833 0
DWIDTH 10 0
BBX 9 12 0 0
BITMAP
1200
1200
0000
3E00
6300
C180
C180
C180
C180
C180
6300
3E00
ENDCHAR
STARTCHAR multiply
ENCODING 215
SWIDTH 606 0
DWIDTH 8 0
BBX 8 7 0 0
BITMAP
C3
66
3C
18
3C
66
C3
ENDCHAR
STARTCHAR Oslash
ENCODING 216
SWIDTH 833 0
DWIDTH 10 0
BBX 9 9 0 0
BITMAP
3E80
6300
C380
C580
C980
D180
E180
6300
BE00
ENDCHAR
STARTCHAR Ugrave
ENCODING 217
SWIDTH 833 0
DWIDTH 10 0
BBX 9 12 0 0
BITMAP
3800
0C00
0000
F380
6100
6100
6100
6100
6100
6100
7300
3E00
ENDCHAR
STARTCHAR Uacute
ENCODING 218
SWIDTH 833 0
DWIDTH 10 0
BBX 9 12 0 0
BITMAP
0E00
1800
0000
F380
6100
6100
6100
6100
6100
6100
7300
3E00
ENDCHAR
STARTCHAR Ucircumflex
ENCODING 219
SWIDTH 833 0
DWIDTH 10 0
BBX 9 12 0 0
BITMAP
1C00
3600
0000
F380
6100
6100
6100
6100
6100
6100
7300
3E00
ENDCHAR
STARTCHAR Udieresis
ENCODING 220
SWIDTH 833 0
DWIDTH 10 0
BBX 9 12 0 0
BITMAP
1200
1200
0000
F380
6100
6100
6100
6100
6100
6100
7300
3E00
ENDCHAR
STARTCHAR Yacute
ENCODING 221
SWIDTH 722 0
DWIDTH 9 0
BBX 8 12 0 0
BITMAP
0E
18
00
F7
62
62
34
34
18
18
18
3C
ENDCHAR
STARTCHAR Thorn
ENCODING 222
SWIDTH 759 0
DWIDTH 9 0
BBX 8 9 0 0
BITMAP
E0
7E
63
63
63
66
7C
60
F0
ENDCHAR
STARTCHAR germandbls
ENCODING 223
SWIDTH 611 0
DWIDTH 8 0
BBX 7 9 0 0
BITMAP
3C
66
66
6C
66
66
66
66
EC
ENDCHAR
STARTCHAR agrave
ENCODING 224
SWIDTH 611 0
DWIDTH 8 0
BBX 7 9 0 0
BITMAP
30
18
00
78
4C
3C
CC
DC
6E
ENDCHAR
STARTCHAR aacute
ENCODING 225
SWIDTH 611 0
DWIDTH 8 0
BBX 7 9 0 0
BITMAP
18
30
00
78
4C
3C
CC
DC
6E
ENDCHAR
STARTCHAR acircumflex
ENCODING 226
SWIDTH 611 0
DWIDTH 8 0
BBX 7 9 0 0
BITMAP
38
6C
00
78
4C
3C
CC
DC
6E
ENDCHAR
STARTCHAR atilde
ENCODING 227
SWIDTH 611 0
DWIDTH 8 0
BBX 7 9 0 0
BITMAP
34
58
00
78
4C
3C
CC
DC
6E
ENDCHAR
STARTCHAR adieresis
ENCODING 228
SWIDTH 611 0
DWIDTH 8 0
BBX 7 9 0 0
BITMAP
28
28
00
78
4C
3C
CC
DC
6E
ENDCHAR
STARTCHAR aring
ENCODING 229
SWIDTH 611 0
DWIDTH 8 0
BBX 7 9 0 0
BITMAP
30
48
30
78
4C
3C
CC
DC
6E
ENDCHAR
STARTCHAR ae
ENCODING 230
SWIDTH 870 0
DWIDTH 11 0
BBX 10 6 0 0
BITMAP
7B80
4EC0
3FC0
CC00
DEC0
7380
ENDCHAR
STARTCHAR ccedilla
ENCODING 231
SWIDTH 556 0
DWIDTH 7 0
BBX 6 9 0 -3
BITMAP
38
EC
C0
C0
EC
38
20
10
60
ENDCHAR
STARTCHAR egrave
ENCODING 232
SWIDTH 574 0
DWIDTH 7 0
BBX 6 9 0 0
BITMAP
60
30
00
38
EC
FC
C0
EC
38
ENDCHAR
STARTCHAR eacute
ENCODING 233
SWIDTH 574 0
DWIDTH 7 0
BBX 6 9 0 0
BITMAP
18
30
00
38
EC
FC
C0
EC
38
ENDCHAR
STARTCHAR ecircumflex
ENCODING 234
SWIDTH 574 0
DWIDTH 7 0
BBX 6 9 0 0
BITMAP
38
6C
00
38
EC
FC
C0
EC
38
ENDCHAR
STARTCHAR edieresis
ENCODING 235
SWIDTH 574 0
DWIDTH 7 0
BBX 6 9 0 0
BITMAP
28
28
00
38
EC
FC
C0
EC
38
ENDCHAR
STARTCHAR igrave
ENCODING 236
SWIDTH 370 0
DWIDTH 5 0
BBX 4 9 0 0
BITMAP
C0
60
00
E0
60
60
60
60
F0
ENDCHAR
STARTCHAR iacute
ENCODING 237
SWIDTH 370 0
DWIDTH 5 0
BBX 4 9 0 0
BITMAP
60
C0
00
E0
60
60
60
60
F0
ENDCHAR
STARTCHAR icircumflex
ENCODING 238
SWIDTH 370 0
DWIDTH 5 0
BBX 5 9 0 0
BITMAP
70
D8
00
E0
60
60
60
60
F0
ENDCHAR
STARTCHAR idieresis
ENCODING 239
SWIDTH 370 0
DWIDTH 5 0
BBX 4 9 0 0
BITMAP
A0
A0
00
E0
60
60
60
60
F0
ENDCHAR
STARTCHAR eth
ENCODING 240
SWIDTH 611 0
DWIDTH 8 0
BBX 7 9 0 0
BITMAP
D8
70
98
3C
EE
C6
C6
EE
38
ENDCHAR
STARTCHAR ntilde
ENCODING 241
SWIDTH 685 0
DWIDTH 9 0
BBX 8 9 0 0
BITMAP
34
58
00
EC
76
66
66
66
F7
ENDCHAR
STARTCHAR ograve
ENCODING 242
SWIDTH 611 0
DWIDTH 8 0
BBX 7 9 0 0
BITMAP
30
18
00
38
EE
C6
C6
EE
38
ENDCHAR
STARTCHAR oacute
ENCODING 243
SWIDTH 611 0
DWIDTH 8 0
BBX 7 9 0 0
BITMAP
18
30
00
38
EE
C6
C6
EE
38
ENDCHAR
STARTCHAR ocircumflex
ENCODING 244
SWIDTH 611 0
DWIDTH 8 0
BBX 7 9 0 0
BITMAP
38
6C
00
38
EE
C6
C6
EE
38
ENDCHAR
STARTCHAR otilde
ENCODING 245
SWIDTH 611 0
DWIDTH 8 0
BBX 7 9 0 0
BITMAP
34
58
00
38
EE
C6
C6
EE
38
ENDCHAR
STARTCHAR odieresis
ENCODING 246
SWIDTH 611 0
DWIDTH 8 0
BBX 7 9 0 0
BITMAP
28
28
00
38
EE
C6
C6
EE
38
ENDCHAR
STARTCHAR divide
ENCODING 247
SWIDTH 606 0
DWIDTH 8 0
BBX 7 7 0 0
BITMAP
10
10
00
FE
00
10
10
ENDCHAR
STARTCHAR oslash
ENCODING 248
SWIDTH 611 0
DWIDTH 8 0
BBX 7 8 0 -1
BITMAP
04
38
EE
D6
D6
EE
38
40
ENDCHAR
STARTCHAR ugrave
ENCODING 249
SWIDTH 685 0
DWIDTH 9 0
BBX 8 9 0 0
BITMAP
30
18
00
EE
66
66
66
6E
37
ENDCHAR
STARTCHAR uacute
ENCODING 250
SWIDTH 685 0
DWIDTH 9 0
BBX 8 9 0 0
BITMAP
0C
18
00
EE
66
66
66
6E
37
ENDCHAR
STARTCHAR ucircumflex
ENCODING 251
SWIDTH 685 0
DWIDTH 9 0
BBX 8 9 0 0
BITMAP
38
6C
00
EE
66
66
66
6E
37
ENDCHAR
STARTCHAR udieresis
ENCODING 252
SWIDTH 685 0
DWIDTH 9 0
BBX 8 9 0 0
BITMAP
28
28
00
EE
66
66
66
6E
37
ENDCHAR
STARTCHAR yacute
ENCODING 253
SWIDTH 611 0
DWIDTH 7 0
BBX 8 12 -1 -3
BITMAP
0C
18
00
F7
62
34
34
18
18
10
E0
C0
ENDCHAR
STARTCHAR thorn
ENCODING 254
SWIDTH 667 0
DWIDTH 8 0
BBX 8 12 -1 -3
BITMAP
E0
60
60
6C
77
63
63
77
6C
60
60
F0
ENDCHAR
STARTCHAR ydieresis
ENCODING 255
SWIDTH 611 0
DWIDTH 7 0
BBX 8 12 -1 -3
BITMAP
14
14
00
F7
62
34
34
18
18
10
E0
C0
ENDCHAR
ENDFONT
