STARTFONT 2.1
COMMENT AUTOMATICALLY GENERATED FILE. DO NOT EDIT!
COMMENT Generated with 'ucs2any.pl ncenI12.bdf ../../../fonts/util/map-ISO8859-1 ISO8859-1'
COMMENT from an ISO10646-1 encoded source BDF font.
COMMENT ucs2any.pl by Markus Kuhn <mkuhn@acm.org>, 2000.
FONT -Adobe-New Century Schoolbook-Medium-I-Normal--12-120-75-75-P-70-ISO8859-1
SIZE 12 75 75
FONTBOUNDINGBOX 15 15 -2 -3
COMMENT $Xorg: $
COMMENT ISO10646-1 extension by Markus Kuhn <mkuhn@acm.org>, 2001-03-20
COMMENT 
COMMENT +
COMMENT  Copyright 1984-1989, 1994 Adobe Systems Incorporated.
COMMENT  Copyright 1988, 1994 Digital Equipment Corporation.
COMMENT
COMMENT  Adobe is a trademark of Adobe Systems Incorporated which may be
COMMENT  registered in certain jurisdictions.
COMMENT  Permission to use these trademarks is hereby granted only in
COMMENT  association with the images described in this file.
COMMENT
COMMENT  Permission to use, copy, modify, distribute and sell this software
COMMENT  and its documentation for any purpose and without fee is hereby
COMMENT  granted, provided that the above copyright notices appear in all
COMMENT  copies and that both those copyright notices and this permission
COMMENT  notice appear in supporting documentation, and that the names of
COMMENT  Adobe Systems and Digital Equipment Corporation not be used in
COMMENT  advertising or publicity pertaining to distribution of the software
COMMENT  without specific, written prior permission.  Adobe Systems and
COMMENT  Digital Equipment Corporation make no representations about the
COMMENT  suitability of this software for any purpose.  It is provided "as
COMMENT  is" without express or implied warranty.
COMMENT -
STARTPROPERTIES 26
FOUNDRY "Adobe"
FAMILY_NAME "New Century Schoolbook"
WEIGHT_NAME "Medium"
SLANT "I"
SETWIDTH_NAME "Normal"
ADD_STYLE_NAME ""
PIXEL_SIZE 12
POINT_SIZE 120
RESOLUTION_X 75
RESOLUTION_Y 75
SPACING "P"
AVERAGE_WIDTH 70
CHARSET_REGISTRY "ISO8859"
CHARSET_ENCODING "1"
CAP_HEIGHT 9
X_HEIGHT 6
FONT_ASCENT 11
FONT_DESCENT 3
FACE_NAME "New Century Schoolbook Italic"
COPYRIGHT "Copyright (c) 1984, 1987 Adobe Systems Incorporated. All Rights Reserved. Copyright (c) 1988, 1991 Digital Equipment Corporation. All Rights Reserved."
NOTICE "New Century Schoolbook is a trademark of Linotype-Hell AG and/or its subsidiaries."
_DEC_DEVICE_FONTNAMES "PS=NewCenturySchlbk-Italic"
DEFAULT_CHAR 0
RELATIVE_SETWIDTH 50
RELATIVE_WEIGHT 50
FULL_NAME "New Century Schoolbook Italic"
ENDPROPERTIES
CHARS 192
STARTCHAR defaultchar
ENCODING 0
SWIDTH 833 0
DWIDTH 10 0
BBX 9 9 0 0
BITMAP
AA80
0000
8080
0000
8080
0000
8080
0000
AA80
ENDCHAR
STARTCHAR space
ENCODING 32
SWIDTH 278 0
DWIDTH 3 0
BBX 1 1 0 0
BITMAP
00
ENDCHAR
STARTCHAR exclam
ENCODING 33
SWIDTH 333 0
DWIDTH 4 0
BBX 3 9 0 0
BITMAP
20
20
20
40
40
40
00
80
80
ENDCHAR
STARTCHAR quotedbl
ENCODING 34
SWIDTH 400 0
DWIDTH 6 0
BBX 3 3 1 6
BITMAP
A0
A0
A0
ENDCHAR
STARTCHAR numbersign
ENCODING 35
SWIDTH 606 0
DWIDTH 8 0
BBX 7 8 0 0
BITMAP
14
14
7E
28
28
FC
50
50
ENDCHAR
STARTCHAR dollar
ENCODING 36
SWIDTH 556 0
DWIDTH 6 0
BBX 7 11 -1 -1
BITMAP
08
0E
1A
28
30
18
14
14
A8
F0
20
ENDCHAR
STARTCHAR percent
ENCODING 37
SWIDTH 833 0
DWIDTH 10 0
BBX 9 9 0 0
BITMAP
3600
5A00
9400
A400
C980
0A80
1480
1500
2600
ENDCHAR
STARTCHAR ampersand
ENCODING 38
SWIDTH 852 0
DWIDTH 10 0
BBX 9 9 0 0
BITMAP
1800
2400
2400
2800
5380
9100
8A00
8C80
7700
ENDCHAR
STARTCHAR quotesingle
ENCODING 39
SWIDTH 278 0
DWIDTH 4 0
BBX 1 3 1 6
BITMAP
80
80
80
ENDCHAR
STARTCHAR parenleft
ENCODING 40
SWIDTH 333 0
DWIDTH 5 0
BBX 4 11 0 -2
BITMAP
10
20
40
40
80
80
80
80
40
40
20
ENDCHAR
STARTCHAR parenright
ENCODING 41
SWIDTH 333 0
DWIDTH 5 0
BBX 4 11 0 -2
BITMAP
40
20
20
10
10
10
10
20
20
40
80
ENDCHAR
STARTCHAR asterisk
ENCODING 42
SWIDTH 500 0
DWIDTH 7 0
BBX 6 6 0 3
BITMAP
10
54
38
70
A8
20
ENDCHAR
STARTCHAR plus
ENCODING 43
SWIDTH 606 0
DWIDTH 8 0
BBX 7 7 0 0
BITMAP
10
10
10
FE
10
10
10
ENDCHAR
STARTCHAR comma
ENCODING 44
SWIDTH 278 0
DWIDTH 2 0
BBX 2 3 -1 -1
BITMAP
40
40
80
ENDCHAR
STARTCHAR hyphen
ENCODING 45
SWIDTH 333 0
DWIDTH 4 0
BBX 3 1 0 3
BITMAP
E0
ENDCHAR
STARTCHAR period
ENCODING 46
SWIDTH 278 0
DWIDTH 2 0
BBX 1 2 0 0
BITMAP
80
80
ENDCHAR
STARTCHAR slash
ENCODING 47
SWIDTH 606 0
DWIDTH 8 0
BBX 5 10 1 -1
BITMAP
08
08
10
10
20
20
40
40
80
80
ENDCHAR
STARTCHAR zero
ENCODING 48
SWIDTH 556 0
DWIDTH 6 0
BBX 5 9 0 0
BITMAP
30
48
48
48
90
90
90
90
60
ENDCHAR
STARTCHAR one
ENCODING 49
SWIDTH 556 0
DWIDTH 6 0
BBX 3 9 1 0
BITMAP
20
E0
20
20
20
40
40
40
E0
ENDCHAR
STARTCHAR two
ENCODING 50
SWIDTH 556 0
DWIDTH 6 0
BBX 6 9 -1 0
BITMAP
38
44
04
04
08
30
40
88
F8
ENDCHAR
STARTCHAR three
ENCODING 51
SWIDTH 556 0
DWIDTH 6 0
BBX 5 9 0 0
BITMAP
30
48
08
10
30
08
08
90
E0
ENDCHAR
STARTCHAR four
ENCODING 52
SWIDTH 556 0
DWIDTH 6 0
BBX 5 9 0 0
BITMAP
18
28
28
48
48
90
F8
10
38
ENDCHAR
STARTCHAR five
ENCODING 53
SWIDTH 556 0
DWIDTH 6 0
BBX 6 9 0 0
BITMAP
3C
20
20
70
48
08
08
90
E0
ENDCHAR
STARTCHAR six
ENCODING 54
SWIDTH 556 0
DWIDTH 6 0
BBX 5 9 0 0
BITMAP
38
48
40
B0
C8
88
88
90
60
ENDCHAR
STARTCHAR seven
ENCODING 55
SWIDTH 556 0
DWIDTH 6 0
BBX 5 9 0 0
BITMAP
F8
88
90
10
20
20
40
40
40
ENDCHAR
STARTCHAR eight
ENCODING 56
SWIDTH 556 0
DWIDTH 6 0
BBX 5 9 0 0
BITMAP
30
48
48
50
30
48
88
90
60
ENDCHAR
STARTCHAR nine
ENCODING 57
SWIDTH 556 0
DWIDTH 6 0
BBX 5 9 0 0
BITMAP
30
48
88
88
98
68
10
90
E0
ENDCHAR
STARTCHAR colon
ENCODING 58
SWIDTH 278 0
DWIDTH 3 0
BBX 2 6 0 0
BITMAP
40
40
00
00
80
80
ENDCHAR
STARTCHAR semicolon
ENCODING 59
SWIDTH 278 0
DWIDTH 3 0
BBX 3 7 -1 -1
BITMAP
20
20
00
00
40
40
80
ENDCHAR
STARTCHAR less
ENCODING 60
SWIDTH 606 0
DWIDTH 7 0
BBX 6 5 0 1
BITMAP
0C
30
C0
30
0C
ENDCHAR
STARTCHAR equal
ENCODING 61
SWIDTH 606 0
DWIDTH 7 0
BBX 6 3 0 2
BITMAP
FC
00
FC
ENDCHAR
STARTCHAR greater
ENCODING 62
SWIDTH 606 0
DWIDTH 7 0
BBX 6 5 0 1
BITMAP
C0
30
0C
30
C0
ENDCHAR
STARTCHAR question
ENCODING 63
SWIDTH 444 0
DWIDTH 5 0
BBX 4 9 0 0
BITMAP
60
90
10
60
80
40
00
80
80
ENDCHAR
STARTCHAR at
ENCODING 64
SWIDTH 747 0
DWIDTH 11 0
BBX 10 9 0 0
BITMAP
1F00
2080
4E40
9240
A440
A480
9B00
4000
3E00
ENDCHAR
STARTCHAR A
ENCODING 65
SWIDTH 704 0
DWIDTH 8 0
BBX 9 9 -1 0
BITMAP
0400
0C00
0C00
1200
1200
3E00
2100
4100
E380
ENDCHAR
STARTCHAR B
ENCODING 66
SWIDTH 722 0
DWIDTH 8 0
BBX 7 9 0 0
BITMAP
7C
22
22
24
3C
42
42
44
F8
ENDCHAR
STARTCHAR C
ENCODING 67
SWIDTH 722 0
DWIDTH 9 0
BBX 8 9 0 0
BITMAP
1D
23
41
80
80
80
80
42
3C
ENDCHAR
STARTCHAR D
ENCODING 68
SWIDTH 778 0
DWIDTH 10 0
BBX 9 9 0 0
BITMAP
7E00
2100
2080
2080
4080
4080
4100
4200
FC00
ENDCHAR
STARTCHAR E
ENCODING 69
SWIDTH 722 0
DWIDTH 9 0
BBX 8 9 0 0
BITMAP
7F
21
21
24
3C
44
40
42
FE
ENDCHAR
STARTCHAR F
ENCODING 70
SWIDTH 667 0
DWIDTH 9 0
BBX 8 9 0 0
BITMAP
7F
21
21
24
3C
44
40
40
E0
ENDCHAR
STARTCHAR G
ENCODING 71
SWIDTH 778 0
DWIDTH 9 0
BBX 8 9 0 0
BITMAP
1D
23
41
80
80
87
82
46
3A
ENDCHAR
STARTCHAR H
ENCODING 72
SWIDTH 833 0
DWIDTH 10 0
BBX 9 9 0 0
BITMAP
7380
2100
2100
2100
3E00
4200
4200
4200
E700
ENDCHAR
STARTCHAR I
ENCODING 73
SWIDTH 407 0
DWIDTH 5 0
BBX 4 9 0 0
BITMAP
70
20
20
20
40
40
40
40
E0
ENDCHAR
STARTCHAR J
ENCODING 74
SWIDTH 611 0
DWIDTH 7 0
BBX 6 9 0 0
BITMAP
1C
08
08
08
08
10
90
90
60
ENDCHAR
STARTCHAR K
ENCODING 75
SWIDTH 741 0
DWIDTH 9 0
BBX 9 9 0 0
BITMAP
7380
2200
2400
2800
3000
4800
4400
4200
E700
ENDCHAR
STARTCHAR L
ENCODING 76
SWIDTH 667 0
DWIDTH 8 0
BBX 7 9 0 0
BITMAP
70
20
20
20
20
40
42
42
FE
ENDCHAR
STARTCHAR M
ENCODING 77
SWIDTH 944 0
DWIDTH 13 0
BBX 12 9 0 0
BITMAP
7070
3060
30A0
28A0
2920
4940
4A40
4640
E4E0
ENDCHAR
STARTCHAR N
ENCODING 78
SWIDTH 815 0
DWIDTH 11 0
BBX 10 9 0 0
BITMAP
71C0
3080
2880
2880
2500
4500
4300
4300
E100
ENDCHAR
STARTCHAR O
ENCODING 79
SWIDTH 778 0
DWIDTH 9 0
BBX 8 9 0 0
BITMAP
1C
22
41
81
81
81
82
44
38
ENDCHAR
STARTCHAR P
ENCODING 80
SWIDTH 667 0
DWIDTH 8 0
BBX 8 9 0 0
BITMAP
7E
21
21
22
3C
40
40
40
E0
ENDCHAR
STARTCHAR Q
ENCODING 81
SWIDTH 778 0
DWIDTH 9 0
BBX 8 11 0 -2
BITMAP
1C
22
41
81
81
B1
CA
4C
38
09
06
ENDCHAR
STARTCHAR R
ENCODING 82
SWIDTH 741 0
DWIDTH 10 0
BBX 9 9 0 0
BITMAP
7E00
2100
2100
2200
3C00
4200
4200
4280
E300
ENDCHAR
STARTCHAR S
ENCODING 83
SWIDTH 667 0
DWIDTH 9 0
BBX 8 9 0 0
BITMAP
1D
63
41
60
18
06
82
C2
BC
ENDCHAR
STARTCHAR T
ENCODING 84
SWIDTH 685 0
DWIDTH 8 0
BBX 7 9 0 0
BITMAP
FE
92
92
10
10
20
20
20
70
ENDCHAR
STARTCHAR U
ENCODING 85
SWIDTH 815 0
DWIDTH 8 0
BBX 8 9 0 0
BITMAP
E7
42
42
42
84
84
84
84
78
ENDCHAR
STARTCHAR V
ENCODING 86
SWIDTH 704 0
DWIDTH 9 0
BBX 9 9 0 0
BITMAP
E380
4100
4200
2200
2400
2400
1800
1800
1000
ENDCHAR
STARTCHAR W
ENCODING 87
SWIDTH 926 0
DWIDTH 13 0
BBX 13 9 0 0
BITMAP
E738
4210
4210
4620
2520
2940
2940
1080
1080
ENDCHAR
STARTCHAR X
ENCODING 88
SWIDTH 704 0
DWIDTH 10 0
BBX 9 9 0 0
BITMAP
3B80
1100
1200
0C00
0800
1400
2400
4200
E700
ENDCHAR
STARTCHAR Y
ENCODING 89
SWIDTH 685 0
DWIDTH 8 0
BBX 8 9 0 0
BITMAP
E7
42
24
28
10
10
20
20
70
ENDCHAR
STARTCHAR Z
ENCODING 90
SWIDTH 667 0
DWIDTH 9 0
BBX 8 9 0 0
BITMAP
7F
42
44
08
10
10
22
42
FE
ENDCHAR
STARTCHAR bracketleft
ENCODING 91
SWIDTH 333 0
DWIDTH 6 0
BBX 5 11 0 -2
BITMAP
38
20
20
40
40
40
40
80
80
80
E0
ENDCHAR
STARTCHAR backslash
ENCODING 92
SWIDTH 606 0
DWIDTH 8 0
BBX 5 9 1 0
BITMAP
80
80
40
40
20
20
10
10
08
ENDCHAR
STARTCHAR bracketright
ENCODING 93
SWIDTH 333 0
DWIDTH 6 0
BBX 5 11 0 -2
BITMAP
38
08
08
08
10
10
10
10
20
20
E0
ENDCHAR
STARTCHAR asciicircum
ENCODING 94
SWIDTH 606 0
DWIDTH 6 0
BBX 5 6 0 3
BITMAP
20
20
50
50
88
88
ENDCHAR
STARTCHAR underscore
ENCODING 95
SWIDTH 500 0
DWIDTH 6 0
BBX 6 1 0 -2
BITMAP
FC
ENDCHAR
STARTCHAR grave
ENCODING 96
SWIDTH 333 0
DWIDTH 4 0
BBX 2 2 1 7
BITMAP
80
40
ENDCHAR
STARTCHAR a
ENCODING 97
SWIDTH 574 0
DWIDTH 8 0
BBX 7 6 0 0
BITMAP
34
4C
84
88
9A
6C
ENDCHAR
STARTCHAR b
ENCODING 98
SWIDTH 556 0
DWIDTH 7 0
BBX 6 9 0 0
BITMAP
60
20
20
58
64
44
84
88
70
ENDCHAR
STARTCHAR c
ENCODING 99
SWIDTH 444 0
DWIDTH 6 0
BBX 5 6 0 0
BITMAP
38
48
80
80
90
60
ENDCHAR
STARTCHAR d
ENCODING 100
SWIDTH 611 0
DWIDTH 8 0
BBX 7 9 0 0
BITMAP
06
02
02
34
4C
84
88
9A
6C
ENDCHAR
STARTCHAR e
ENCODING 101
SWIDTH 444 0
DWIDTH 6 0
BBX 5 6 0 0
BITMAP
30
48
F0
80
90
60
ENDCHAR
STARTCHAR f
ENCODING 102
SWIDTH 333 0
DWIDTH 4 0
BBX 5 12 0 -3
BITMAP
18
20
20
F0
40
40
40
80
80
80
80
80
ENDCHAR
STARTCHAR g
ENCODING 103
SWIDTH 537 0
DWIDTH 6 0
BBX 7 10 -1 -3
BITMAP
06
18
24
28
30
40
30
48
88
70
ENDCHAR
STARTCHAR h
ENCODING 104
SWIDTH 611 0
DWIDTH 8 0
BBX 7 9 0 0
BITMAP
60
20
20
58
64
44
88
8A
8C
ENDCHAR
STARTCHAR i
ENCODING 105
SWIDTH 333 0
DWIDTH 4 0
BBX 3 9 0 0
BITMAP
20
20
00
C0
40
40
80
A0
C0
ENDCHAR
STARTCHAR j
ENCODING 106
SWIDTH 315 0
DWIDTH 3 0
BBX 5 12 -2 -3
BITMAP
08
08
00
30
10
10
10
20
20
20
20
C0
ENDCHAR
STARTCHAR k
ENCODING 107
SWIDTH 556 0
DWIDTH 7 0
BBX 6 9 0 0
BITMAP
60
20
20
58
64
48
B0
94
88
ENDCHAR
STARTCHAR l
ENCODING 108
SWIDTH 333 0
DWIDTH 4 0
BBX 3 9 0 0
BITMAP
60
20
20
40
40
40
80
A0
C0
ENDCHAR
STARTCHAR m
ENCODING 109
SWIDTH 889 0
DWIDTH 12 0
BBX 11 6 0 0
BITMAP
D980
6640
4440
8880
88A0
88C0
ENDCHAR
STARTCHAR n
ENCODING 110
SWIDTH 611 0
DWIDTH 8 0
BBX 7 6 0 0
BITMAP
D8
64
44
88
8A
8C
ENDCHAR
STARTCHAR o
ENCODING 111
SWIDTH 500 0
DWIDTH 6 0
BBX 5 6 0 0
BITMAP
30
48
88
88
90
60
ENDCHAR
STARTCHAR p
ENCODING 112
SWIDTH 574 0
DWIDTH 7 0
BBX 8 9 -2 -3
BITMAP
36
19
11
21
32
2C
40
40
E0
ENDCHAR
STARTCHAR q
ENCODING 113
SWIDTH 556 0
DWIDTH 7 0
BBX 6 9 0 -3
BITMAP
34
4C
84
88
98
68
10
10
38
ENDCHAR
STARTCHAR r
ENCODING 114
SWIDTH 444 0
DWIDTH 5 0
BBX 5 6 0 0
BITMAP
D8
68
40
80
80
80
ENDCHAR
STARTCHAR s
ENCODING 115
SWIDTH 444 0
DWIDTH 6 0
BBX 5 6 0 0
BITMAP
38
48
20
10
90
E0
ENDCHAR
STARTCHAR t
ENCODING 116
SWIDTH 352 0
DWIDTH 4 0
BBX 4 8 0 0
BITMAP
20
20
F0
40
40
80
A0
C0
ENDCHAR
STARTCHAR u
ENCODING 117
SWIDTH 611 0
DWIDTH 8 0
BBX 7 6 0 0
BITMAP
C4
44
44
88
9A
6C
ENDCHAR
STARTCHAR v
ENCODING 118
SWIDTH 519 0
DWIDTH 7 0
BBX 6 6 0 0
BITMAP
CC
44
44
88
90
60
ENDCHAR
STARTCHAR w
ENCODING 119
SWIDTH 778 0
DWIDTH 10 0
BBX 9 6 0 0
BITMAP
C980
4880
8880
8880
9900
6600
ENDCHAR
STARTCHAR x
ENCODING 120
SWIDTH 500 0
DWIDTH 6 0
BBX 7 6 -1 0
BITMAP
66
28
10
10
28
CC
ENDCHAR
STARTCHAR y
ENCODING 121
SWIDTH 500 0
DWIDTH 6 0
BBX 7 9 -1 -3
BITMAP
42
A4
24
28
10
10
20
A0
C0
ENDCHAR
STARTCHAR z
ENCODING 122
SWIDTH 463 0
DWIDTH 6 0
BBX 6 6 -1 0
BITMAP
74
48
10
20
48
B8
ENDCHAR
STARTCHAR braceleft
ENCODING 123
SWIDTH 333 0
DWIDTH 5 0
BBX 4 11 0 -2
BITMAP
10
20
20
20
40
80
40
40
40
40
20
ENDCHAR
STARTCHAR bar
ENCODING 124
SWIDTH 606 0
DWIDTH 6 0
BBX 1 9 2 0
BITMAP
80
80
80
80
80
80
80
80
80
ENDCHAR
STARTCHAR braceright
ENCODING 125
SWIDTH 333 0
DWIDTH 5 0
BBX 4 11 0 -2
BITMAP
40
20
20
20
10
20
40
40
40
40
80
ENDCHAR
STARTCHAR asciitilde
ENCODING 126
SWIDTH 606 0
DWIDTH 7 0
BBX 6 2 0 3
BITMAP
64
98
ENDCHAR
STARTCHAR space
ENCODING 160
SWIDTH 278 0
DWIDTH 3 0
BBX 1 1 0 0
BITMAP
00
ENDCHAR
STARTCHAR exclamdown
ENCODING 161
SWIDTH 333 0
DWIDTH 4 0
BBX 3 9 0 -2
BITMAP
20
20
00
40
40
40
80
80
80
ENDCHAR
STARTCHAR cent
ENCODING 162
SWIDTH 556 0
DWIDTH 6 0
BBX 5 8 0 -1
BITMAP
08
38
50
A0
A0
C8
70
80
ENDCHAR
STARTCHAR sterling
ENCODING 163
SWIDTH 556 0
DWIDTH 8 0
BBX 7 9 0 0
BITMAP
0E
12
10
10
7C
20
20
64
BC
ENDCHAR
STARTCHAR currency
ENCODING 164
SWIDTH 606 0
DWIDTH 9 0
BBX 6 6 1 2
BITMAP
B4
48
84
84
48
B4
ENDCHAR
STARTCHAR yen
ENCODING 165
SWIDTH 556 0
DWIDTH 9 0
BBX 8 9 0 0
BITMAP
E7
42
24
28
7C
10
78
20
70
ENDCHAR
STARTCHAR brokenbar
ENCODING 166
SWIDTH 606 0
DWIDTH 6 0
BBX 1 9 2 0
BITMAP
80
80
80
00
00
80
80
80
80
ENDCHAR
STARTCHAR section
ENCODING 167
SWIDTH 500 0
DWIDTH 6 0
BBX 5 11 0 -2
BITMAP
38
48
40
60
90
88
48
30
10
90
E0
ENDCHAR
STARTCHAR dieresis
ENCODING 168
SWIDTH 333 0
DWIDTH 5 0
BBX 3 2 1 7
BITMAP
A0
A0
ENDCHAR
STARTCHAR copyright
ENCODING 169
SWIDTH 747 0
DWIDTH 10 0
BBX 9 9 0 0
BITMAP
3E00
4100
9C80
A480
A080
A280
9C80
4100
3E00
ENDCHAR
STARTCHAR ordfeminine
ENCODING 170
SWIDTH 422 0
DWIDTH 5 0
BBX 4 6 0 3
BITMAP
60
A0
A0
D0
00
F0
ENDCHAR
STARTCHAR guillemotleft
ENCODING 171
SWIDTH 426 0
DWIDTH 7 0
BBX 6 4 0 1
BITMAP
24
48
90
48
ENDCHAR
STARTCHAR logicalnot
ENCODING 172
SWIDTH 606 0
DWIDTH 7 0
BBX 6 4 0 1
BITMAP
FC
04
04
04
ENDCHAR
STARTCHAR hyphen
ENCODING 173
SWIDTH 333 0
DWIDTH 4 0
BBX 3 1 0 3
BITMAP
E0
ENDCHAR
STARTCHAR registered
ENCODING 174
SWIDTH 747 0
DWIDTH 10 0
BBX 9 9 0 0
BITMAP
3E00
4100
BC80
9480
9880
9480
B680
4100
3E00
ENDCHAR
STARTCHAR macron
ENCODING 175
SWIDTH 333 0
DWIDTH 5 0
BBX 4 1 0 7
BITMAP
F0
ENDCHAR
STARTCHAR degree
ENCODING 176
SWIDTH 400 0
DWIDTH 5 0
BBX 4 4 0 5
BITMAP
60
90
90
60
ENDCHAR
STARTCHAR plusminus
ENCODING 177
SWIDTH 606 0
DWIDTH 8 0
BBX 7 7 0 0
BITMAP
10
10
FE
10
10
00
FE
ENDCHAR
STARTCHAR twosuperior
ENCODING 178
SWIDTH 333 0
DWIDTH 4 0
BBX 4 5 0 4
BITMAP
70
90
20
40
F0
ENDCHAR
STARTCHAR threesuperior
ENCODING 179
SWIDTH 333 0
DWIDTH 4 0
BBX 4 5 0 4
BITMAP
70
90
20
90
E0
ENDCHAR
STARTCHAR acute
ENCODING 180
SWIDTH 333 0
DWIDTH 4 0
BBX 2 2 1 7
BITMAP
40
80
ENDCHAR
STARTCHAR mu
ENCODING 181
SWIDTH 611 0
DWIDTH 8 0
BBX 8 9 -1 -3
BITMAP
62
22
22
44
4D
76
80
80
80
ENDCHAR
STARTCHAR paragraph
ENCODING 182
SWIDTH 650 0
DWIDTH 9 0
BBX 8 9 0 0
BITMAP
3F
4A
CA
CA
6A
14
14
14
3E
ENDCHAR
STARTCHAR periodcentered
ENCODING 183
SWIDTH 278 0
DWIDTH 5 0
BBX 2 2 1 3
BITMAP
C0
C0
ENDCHAR
STARTCHAR cedilla
ENCODING 184
SWIDTH 333 0
DWIDTH 4 0
BBX 3 3 0 -3
BITMAP
40
20
C0
ENDCHAR
STARTCHAR onesuperior
ENCODING 185
SWIDTH 333 0
DWIDTH 4 0
BBX 3 5 0 4
BITMAP
20
E0
40
40
E0
ENDCHAR
STARTCHAR ordmasculine
ENCODING 186
SWIDTH 372 0
DWIDTH 4 0
BBX 3 6 0 3
BITMAP
60
A0
A0
C0
00
E0
ENDCHAR
STARTCHAR guillemotright
ENCODING 187
SWIDTH 426 0
DWIDTH 7 0
BBX 6 4 0 1
BITMAP
48
24
48
90
ENDCHAR
STARTCHAR onequarter
ENCODING 188
SWIDTH 834 0
DWIDTH 9 0
BBX 9 9 0 0
BITMAP
2200
E200
4400
4400
E900
1300
1500
2F80
2200
ENDCHAR
STARTCHAR onehalf
ENCODING 189
SWIDTH 834 0
DWIDTH 9 0
BBX 9 9 0 0
BITMAP
2200
E200
4400
4400
EB80
1480
1100
2200
2780
ENDCHAR
STARTCHAR threequarters
ENCODING 190
SWIDTH 834 0
DWIDTH 9 0
BBX 9 9 0 0
BITMAP
7200
9200
2400
9400
E900
1300
1500
2F80
2200
ENDCHAR
STARTCHAR questiondown
ENCODING 191
SWIDTH 444 0
DWIDTH 5 0
BBX 4 9 0 -2
BITMAP
10
10
00
20
10
60
80
90
60
ENDCHAR
STARTCHAR Agrave
ENCODING 192
SWIDTH 704 0
DWIDTH 8 0
BBX 9 12 -1 0
BITMAP
1800
0400
0000
0400
0C00
0C00
1200
1200
3E00
2100
4100
E380
ENDCHAR
STARTCHAR Aacute
ENCODING 193
SWIDTH 704 0
DWIDTH 8 0
BBX 9 12 -1 0
BITMAP
0300
0400
0000
0400
0C00
0C00
1200
1200
3E00
2100
4100
E380
ENDCHAR
STARTCHAR Acircumflex
ENCODING 194
SWIDTH 704 0
DWIDTH 8 0
BBX 9 12 -1 0
BITMAP
0600
0900
0000
0400
0C00
0C00
1200
1200
3E00
2100
4100
E380
ENDCHAR
STARTCHAR Atilde
ENCODING 195
SWIDTH 704 0
DWIDTH 8 0
BBX 9 12 -1 0
BITMAP
0C80
1300
0000
0400
0C00
0C00
1200
1200
3E00
2100
4100
E380
ENDCHAR
STARTCHAR Adieresis
ENCODING 196
SWIDTH 704 0
DWIDTH 8 0
BBX 9 12 -1 0
BITMAP
1200
1200
0000
0400
0C00
0C00
1200
1200
3E00
2100
4100
E380
ENDCHAR
STARTCHAR Aring
ENCODING 197
SWIDTH 704 0
DWIDTH 8 0
BBX 9 12 -1 0
BITMAP
0400
0A00
0A00
0400
0C00
0C00
1200
1200
3E00
2100
4100
E380
ENDCHAR
STARTCHAR AE
ENCODING 198
SWIDTH 870 0
DWIDTH 13 0
BBX 12 9 0 0
BITMAP
1FF0
0A10
1210
1240
23C0
3C40
4410
4410
EFF0
ENDCHAR
STARTCHAR Ccedilla
ENCODING 199
SWIDTH 722 0
DWIDTH 9 0
BBX 8 12 0 -3
BITMAP
1D
23
41
80
80
80
80
42
3C
20
10
60
ENDCHAR
STARTCHAR Egrave
ENCODING 200
SWIDTH 722 0
DWIDTH 9 0
BBX 8 12 0 0
BITMAP
18
04
00
7F
21
21
24
3C
44
40
42
FE
ENDCHAR
STARTCHAR Eacute
ENCODING 201
SWIDTH 722 0
DWIDTH 9 0
BBX 8 12 0 0
BITMAP
06
08
00
7F
21
21
24
3C
44
40
42
FE
ENDCHAR
STARTCHAR Ecircumflex
ENCODING 202
SWIDTH 722 0
DWIDTH 9 0
BBX 8 12 0 0
BITMAP
0C
12
00
7F
21
21
24
3C
44
40
42
FE
ENDCHAR
STARTCHAR Edieresis
ENCODING 203
SWIDTH 722 0
DWIDTH 9 0
BBX 8 12 0 0
BITMAP
12
12
00
7F
21
21
24
3C
44
40
42
FE
ENDCHAR
STARTCHAR Igrave
ENCODING 204
SWIDTH 407 0
DWIDTH 5 0
BBX 4 12 0 0
BITMAP
C0
20
00
70
20
20
20
40
40
40
40
E0
ENDCHAR
STARTCHAR Iacute
ENCODING 205
SWIDTH 407 0
DWIDTH 5 0
BBX 5 12 0 0
BITMAP
18
20
00
70
20
20
20
40
40
40
40
E0
ENDCHAR
STARTCHAR Icircumflex
ENCODING 206
SWIDTH 407 0
DWIDTH 5 0
BBX 5 12 0 0
BITMAP
30
48
00
70
20
20
20
40
40
40
40
E0
ENDCHAR
STARTCHAR Idieresis
ENCODING 207
SWIDTH 407 0
DWIDTH 5 0
BBX 5 12 0 0
BITMAP
48
48
00
70
20
20
20
40
40
40
40
E0
ENDCHAR
STARTCHAR Eth
ENCODING 208
SWIDTH 778 0
DWIDTH 10 0
BBX 9 9 0 0
BITMAP
7E00
2100
2080
2080
F080
4080
4100
4200
FC00
ENDCHAR
STARTCHAR Ntilde
ENCODING 209
SWIDTH 815 0
DWIDTH 11 0
BBX 10 12 0 0
BITMAP
0C80
1300
0000
71C0
3080
2880
2880
2500
4500
4300
4300
E100
ENDCHAR
STARTCHAR Ograve
ENCODING 210
SWIDTH 778 0
DWIDTH 9 0
BBX 8 12 0 0
BITMAP
18
04
00
1C
22
41
81
81
81
82
44
38
ENDCHAR
STARTCHAR Oacute
ENCODING 211
SWIDTH 778 0
DWIDTH 9 0
BBX 8 12 0 0
BITMAP
06
08
00
1C
22
41
81
81
81
82
44
38
ENDCHAR
STARTCHAR Ocircumflex
ENCODING 212
SWIDTH 778 0
DWIDTH 9 0
BBX 8 12 0 0
BITMAP
0C
12
00
1C
22
41
81
81
81
82
44
38
ENDCHAR
STARTCHAR Otilde
ENCODING 213
SWIDTH 778 0
DWIDTH 9 0
BBX 8 12 0 0
BITMAP
19
26
00
1C
22
41
81
81
81
82
44
38
ENDCHAR
STARTCHAR Odieresis
ENCODING 214
SWIDTH 778 0
DWIDTH 9 0
BBX 8 12 0 0
BITMAP
12
12
00
1C
22
41
81
81
81
82
44
38
ENDCHAR
STARTCHAR multiply
ENCODING 215
SWIDTH 606 0
DWIDTH 8 0
BBX 7 7 0 0
BITMAP
82
44
28
10
28
44
82
ENDCHAR
STARTCHAR Oslash
ENCODING 216
SWIDTH 778 0
DWIDTH 9 0
BBX 8 9 0 0
BITMAP
1D
22
45
89
91
A1
C2
44
B8
ENDCHAR
STARTCHAR Ugrave
ENCODING 217
SWIDTH 815 0
DWIDTH 8 0
BBX 8 12 0 0
BITMAP
30
08
00
E7
42
42
42
84
84
84
84
78
ENDCHAR
STARTCHAR Uacute
ENCODING 218
SWIDTH 815 0
DWIDTH 8 0
BBX 8 12 0 0
BITMAP
06
08
00
E7
42
42
42
84
84
84
84
78
ENDCHAR
STARTCHAR Ucircumflex
ENCODING 219
SWIDTH 815 0
DWIDTH 8 0
BBX 8 12 0 0
BITMAP
0C
12
00
E7
42
42
42
84
84
84
84
78
ENDCHAR
STARTCHAR Udieresis
ENCODING 220
SWIDTH 815 0
DWIDTH 8 0
BBX 8 12 0 0
BITMAP
24
24
00
E7
42
42
42
84
84
84
84
78
ENDCHAR
STARTCHAR Yacute
ENCODING 221
SWIDTH 685 0
DWIDTH 8 0
BBX 8 12 0 0
BITMAP
06
08
00
E7
42
24
28
10
10
20
20
70
ENDCHAR
STARTCHAR Thorn
ENCODING 222
SWIDTH 667 0
DWIDTH 8 0
BBX 7 9 0 0
BITMAP
70
20
3C
22
22
44
78
40
E0
ENDCHAR
STARTCHAR germandbls
ENCODING 223
SWIDTH 556 0
DWIDTH 8 0
BBX 7 12 0 -3
BITMAP
1C
22
22
2C
42
42
42
52
9C
80
80
80
ENDCHAR
STARTCHAR agrave
ENCODING 224
SWIDTH 574 0
DWIDTH 8 0
BBX 7 9 0 0
BITMAP
10
08
00
34
4C
84
88
9A
6C
ENDCHAR
STARTCHAR aacute
ENCODING 225
SWIDTH 574 0
DWIDTH 8 0
BBX 7 9 0 0
BITMAP
08
10
00
34
4C
84
88
9A
6C
ENDCHAR
STARTCHAR acircumflex
ENCODING 226
SWIDTH 574 0
DWIDTH 8 0
BBX 7 9 0 0
BITMAP
10
28
00
34
4C
84
88
9A
6C
ENDCHAR
STARTCHAR atilde
ENCODING 227
SWIDTH 574 0
DWIDTH 8 0
BBX 7 9 0 0
BITMAP
24
58
00
34
4C
84
88
9A
6C
ENDCHAR
STARTCHAR adieresis
ENCODING 228
SWIDTH 574 0
DWIDTH 8 0
BBX 7 9 0 0
BITMAP
28
28
00
34
4C
84
88
9A
6C
ENDCHAR
STARTCHAR aring
ENCODING 229
SWIDTH 574 0
DWIDTH 8 0
BBX 7 10 0 0
BITMAP
18
24
18
00
34
4C
84
88
9A
6C
ENDCHAR
STARTCHAR ae
ENCODING 230
SWIDTH 722 0
DWIDTH 9 0
BBX 8 6 0 0
BITMAP
76
09
7E
90
B2
CC
ENDCHAR
STARTCHAR ccedilla
ENCODING 231
SWIDTH 444 0
DWIDTH 6 0
BBX 5 9 0 -3
BITMAP
38
48
80
80
90
60
40
20
C0
ENDCHAR
STARTCHAR egrave
ENCODING 232
SWIDTH 444 0
DWIDTH 6 0
BBX 5 9 0 0
BITMAP
20
10
00
30
48
F0
80
90
60
ENDCHAR
STARTCHAR eacute
ENCODING 233
SWIDTH 444 0
DWIDTH 6 0
BBX 5 9 0 0
BITMAP
08
10
00
30
48
F0
80
90
60
ENDCHAR
STARTCHAR ecircumflex
ENCODING 234
SWIDTH 444 0
DWIDTH 6 0
BBX 5 9 0 0
BITMAP
20
50
00
30
48
F0
80
90
60
ENDCHAR
STARTCHAR edieresis
ENCODING 235
SWIDTH 444 0
DWIDTH 6 0
BBX 5 9 0 0
BITMAP
50
50
00
30
48
F0
80
90
60
ENDCHAR
STARTCHAR igrave
ENCODING 236
SWIDTH 333 0
DWIDTH 4 0
BBX 3 9 0 0
BITMAP
80
40
00
C0
40
40
80
A0
C0
ENDCHAR
STARTCHAR iacute
ENCODING 237
SWIDTH 333 0
DWIDTH 4 0
BBX 3 9 0 0
BITMAP
20
40
00
C0
40
40
80
A0
C0
ENDCHAR
STARTCHAR icircumflex
ENCODING 238
SWIDTH 333 0
DWIDTH 4 0
BBX 3 9 0 0
BITMAP
40
A0
00
C0
40
40
80
A0
C0
ENDCHAR
STARTCHAR idieresis
ENCODING 239
SWIDTH 333 0
DWIDTH 4 0
BBX 3 9 0 0
BITMAP
A0
A0
00
C0
40
40
80
A0
C0
ENDCHAR
STARTCHAR eth
ENCODING 240
SWIDTH 500 0
DWIDTH 6 0
BBX 5 9 0 0
BITMAP
20
38
50
38
48
88
88
90
60
ENDCHAR
STARTCHAR ntilde
ENCODING 241
SWIDTH 611 0
DWIDTH 8 0
BBX 7 9 0 0
BITMAP
24
58
00
D8
64
44
88
8A
8C
ENDCHAR
STARTCHAR ograve
ENCODING 242
SWIDTH 500 0
DWIDTH 6 0
BBX 5 9 0 0
BITMAP
20
10
00
30
48
88
88
90
60
ENDCHAR
STARTCHAR oacute
ENCODING 243
SWIDTH 500 0
DWIDTH 6 0
BBX 5 9 0 0
BITMAP
10
20
00
30
48
88
88
90
60
ENDCHAR
STARTCHAR ocircumflex
ENCODING 244
SWIDTH 500 0
DWIDTH 6 0
BBX 5 9 0 0
BITMAP
10
28
00
30
48
88
88
90
60
ENDCHAR
STARTCHAR otilde
ENCODING 245
SWIDTH 500 0
DWIDTH 6 0
BBX 6 9 0 0
BITMAP
24
58
00
30
48
88
88
90
60
ENDCHAR
STARTCHAR odieresis
ENCODING 246
SWIDTH 500 0
DWIDTH 6 0
BBX 5 9 0 0
BITMAP
28
28
00
30
48
88
88
90
60
ENDCHAR
STARTCHAR divide
ENCODING 247
SWIDTH 606 0
DWIDTH 8 0
BBX 7 7 0 0
BITMAP
10
10
00
FE
00
10
10
ENDCHAR
STARTCHAR oslash
ENCODING 248
SWIDTH 500 0
DWIDTH 6 0
BBX 7 6 -1 0
BITMAP
1A
24
4C
54
68
B0
ENDCHAR
STARTCHAR ugrave
ENCODING 249
SWIDTH 611 0
DWIDTH 8 0
BBX 7 9 0 0
BITMAP
20
10
00
C4
44
44
88
9A
6C
ENDCHAR
STARTCHAR uacute
ENCODING 250
SWIDTH 611 0
DWIDTH 8 0
BBX 7 9 0 0
BITMAP
08
10
00
C4
44
44
88
9A
6C
ENDCHAR
STARTCHAR ucircumflex
ENCODING 251
SWIDTH 611 0
DWIDTH 8 0
BBX 7 9 0 0
BITMAP
10
28
00
C4
44
44
88
9A
6C
ENDCHAR
STARTCHAR udieresis
ENCODING 252
SWIDTH 611 0
DWIDTH 8 0
BBX 7 9 0 0
BITMAP
28
28
00
C4
44
44
88
9A
6C
ENDCHAR
STARTCHAR yacute
ENCODING 253
SWIDTH 500 0
DWIDTH 6 0
BBX 7 12 -1 -3
BITMAP
08
10
00
42
A4
24
28
10
10
20
A0
C0
ENDCHAR
STARTCHAR thorn
ENCODING 254
SWIDTH 574 0
DWIDTH 7 0
BBX 8 12 -2 -3
BITMAP
18
08
08
16
19
11
21
32
2C
40
40
E0
ENDCHAR
STARTCHAR ydieresis
ENCODING 255
SWIDTH 500 0
DWIDTH 8 0
BBX 7 12 0 -3
BITMAP
14
14
00
42
A4
24
28
10
10
20
A0
C0
ENDCHAR
ENDFONT
