STARTFONT 2.1
COMMENT AUTOMATICALLY GENERATED FILE. DO NOT EDIT!
COMMENT Generated with 'ucs2any.pl ncenR12.bdf ../../../fonts/util/map-ISO8859-1 ISO8859-1'
COMMENT from an ISO10646-1 encoded source BDF font.
COMMENT ucs2any.pl by Markus Kuhn <mkuhn@acm.org>, 2000.
FONT -Adobe-New Century Schoolbook-Medium-R-Normal--12-120-75-75-P-70-ISO8859-1
SIZE 12 75 75
FONTBOUNDINGBOX 13 15 -1 -3
COMMENT $Xorg: $
COMMENT ISO10646-1 extension by Markus Kuhn <mkuhn@acm.org>, 2001-03-20
COMMENT 
COMMENT +
COMMENT  Copyright 1984-1989, 1994 Adobe Systems Incorporated.
COMMENT  Copyright 1988, 1994 Digital Equipment Corporation.
COMMENT
COMMENT  Adobe is a trademark of Adobe Systems Incorporated which may be
COMMENT  registered in certain jurisdictions.
COMMENT  Permission to use these trademarks is hereby granted only in
COMMENT  association with the images described in this file.
COMMENT
COMMENT  Permission to use, copy, modify, distribute and sell this software
COMMENT  and its documentation for any purpose and without fee is hereby
COMMENT  granted, provided that the above copyright notices appear in all
COMMENT  copies and that both those copyright notices and this permission
COMMENT  notice appear in supporting documentation, and that the names of
COMMENT  Adobe Systems and Digital Equipment Corporation not be used in
COMMENT  advertising or publicity pertaining to distribution of the software
COMMENT  without specific, written prior permission.  Adobe Systems and
COMMENT  Digital Equipment Corporation make no representations about the
COMMENT  suitability of this software for any purpose.  It is provided "as
COMMENT  is" without express or implied warranty.
COMMENT -
STARTPROPERTIES 23
COMMENT Begin LogicalFontDescription
FONTNAME_REGISTRY ""
FAMILY_NAME "New Century Schoolbook"
FOUNDRY "Adobe"
WEIGHT_NAME "Medium"
SLANT "R"
SETWIDTH_NAME "Normal"
ADD_STYLE_NAME ""
PIXEL_SIZE 12
POINT_SIZE 120
RESOLUTION_X 75
RESOLUTION_Y 75
SPACING "P"
AVERAGE_WIDTH 70
CHARSET_REGISTRY "ISO8859"
CHARSET_ENCODING "1"
COMMENT END LogicalFontDescription
FULL_NAME "New Cenury Schoolbook Roman"
COPYRIGHT "Copyright (c) 1984,1987 Adobe Systems, Inc., Portions Copyright 1988 Digital Equipment Corp."
COMMENT ***** end of inserted font properties
FONT_ASCENT 11
FONT_DESCENT 3
CAP_HEIGHT 9
X_HEIGHT 6
_DEC_DEVICE_FONTNAMES "PS=NewCenturySchlbk-Roman"
DEFAULT_CHAR 0
ENDPROPERTIES
CHARS 192
STARTCHAR defaultchar
ENCODING 0
SWIDTH 833 0
DWIDTH 10 0
BBX 9 9 0 0
BITMAP
AA80
0000
8080
0000
8080
0000
8080
0000
AA80
ENDCHAR
STARTCHAR space
ENCODING 32
SWIDTH 278 0
DWIDTH 3 0
BBX 1 1 0 0
BITMAP
00
ENDCHAR
STARTCHAR exclam
ENCODING 33
SWIDTH 296 0
DWIDTH 4 0
BBX 1 9 1 0
BITMAP
80
80
80
80
80
80
00
80
80
ENDCHAR
STARTCHAR quotedbl
ENCODING 34
SWIDTH 389 0
DWIDTH 6 0
BBX 3 3 1 6
BITMAP
A0
A0
A0
ENDCHAR
STARTCHAR numbersign
ENCODING 35
SWIDTH 556 0
DWIDTH 8 0
BBX 7 8 0 0
BITMAP
14
14
7E
28
28
FC
50
50
ENDCHAR
STARTCHAR dollar
ENCODING 36
SWIDTH 556 0
DWIDTH 6 0
BBX 5 11 0 -1
BITMAP
20
78
A8
A0
A0
70
28
28
A8
F0
20
ENDCHAR
STARTCHAR percent
ENCODING 37
SWIDTH 833 0
DWIDTH 11 0
BBX 10 9 0 0
BITMAP
7E00
9200
9400
9400
6980
0A40
1240
1240
2180
ENDCHAR
STARTCHAR ampersand
ENCODING 38
SWIDTH 815 0
DWIDTH 9 0
BBX 8 9 0 0
BITMAP
30
48
48
30
67
92
8C
C9
76
ENDCHAR
STARTCHAR quotesingle
ENCODING 39
SWIDTH 204 0
DWIDTH 4 0
BBX 1 3 1 6
BITMAP
80
80
80
ENDCHAR
STARTCHAR parenleft
ENCODING 40
SWIDTH 333 0
DWIDTH 4 0
BBX 3 11 0 -2
BITMAP
20
40
40
80
80
80
80
80
40
40
20
ENDCHAR
STARTCHAR parenright
ENCODING 41
SWIDTH 333 0
DWIDTH 4 0
BBX 3 11 0 -2
BITMAP
80
40
40
20
20
20
20
20
40
40
80
ENDCHAR
STARTCHAR asterisk
ENCODING 42
SWIDTH 500 0
DWIDTH 6 0
BBX 5 5 0 4
BITMAP
20
A8
70
A8
20
ENDCHAR
STARTCHAR plus
ENCODING 43
SWIDTH 606 0
DWIDTH 8 0
BBX 7 7 0 0
BITMAP
10
10
10
FE
10
10
10
ENDCHAR
STARTCHAR comma
ENCODING 44
SWIDTH 278 0
DWIDTH 4 0
BBX 2 3 0 -1
BITMAP
40
40
80
ENDCHAR
STARTCHAR hyphen
ENCODING 45
SWIDTH 333 0
DWIDTH 4 0
BBX 3 1 0 3
BITMAP
E0
ENDCHAR
STARTCHAR period
ENCODING 46
SWIDTH 278 0
DWIDTH 4 0
BBX 1 2 1 0
BITMAP
80
80
ENDCHAR
STARTCHAR slash
ENCODING 47
SWIDTH 278 0
DWIDTH 4 0
BBX 3 9 0 0
BITMAP
20
20
20
40
40
40
80
80
80
ENDCHAR
STARTCHAR zero
ENCODING 48
SWIDTH 556 0
DWIDTH 6 0
BBX 5 9 0 0
BITMAP
70
88
88
88
88
88
88
88
70
ENDCHAR
STARTCHAR one
ENCODING 49
SWIDTH 556 0
DWIDTH 6 0
BBX 3 9 1 0
BITMAP
40
C0
40
40
40
40
40
40
E0
ENDCHAR
STARTCHAR two
ENCODING 50
SWIDTH 556 0
DWIDTH 6 0
BBX 5 9 0 0
BITMAP
70
88
88
08
10
20
40
88
F8
ENDCHAR
STARTCHAR three
ENCODING 51
SWIDTH 556 0
DWIDTH 6 0
BBX 5 9 0 0
BITMAP
70
88
88
18
30
08
88
88
70
ENDCHAR
STARTCHAR four
ENCODING 52
SWIDTH 556 0
DWIDTH 6 0
BBX 5 9 0 0
BITMAP
10
30
30
50
50
90
F8
10
38
ENDCHAR
STARTCHAR five
ENCODING 53
SWIDTH 556 0
DWIDTH 6 0
BBX 5 9 0 0
BITMAP
F8
80
80
F0
98
08
08
98
F0
ENDCHAR
STARTCHAR six
ENCODING 54
SWIDTH 556 0
DWIDTH 6 0
BBX 5 9 0 0
BITMAP
38
48
80
B0
D8
88
88
88
70
ENDCHAR
STARTCHAR seven
ENCODING 55
SWIDTH 556 0
DWIDTH 6 0
BBX 5 9 0 0
BITMAP
F8
88
10
10
10
20
20
20
20
ENDCHAR
STARTCHAR eight
ENCODING 56
SWIDTH 556 0
DWIDTH 6 0
BBX 5 9 0 0
BITMAP
70
88
88
50
70
88
88
88
70
ENDCHAR
STARTCHAR nine
ENCODING 57
SWIDTH 556 0
DWIDTH 6 0
BBX 5 9 0 0
BITMAP
70
88
88
88
D8
68
08
90
E0
ENDCHAR
STARTCHAR colon
ENCODING 58
SWIDTH 278 0
DWIDTH 4 0
BBX 1 6 1 0
BITMAP
80
80
00
00
80
80
ENDCHAR
STARTCHAR semicolon
ENCODING 59
SWIDTH 278 0
DWIDTH 4 0
BBX 2 7 0 -1
BITMAP
40
40
00
00
40
40
80
ENDCHAR
STARTCHAR less
ENCODING 60
SWIDTH 606 0
DWIDTH 7 0
BBX 6 5 0 1
BITMAP
0C
30
C0
30
0C
ENDCHAR
STARTCHAR equal
ENCODING 61
SWIDTH 606 0
DWIDTH 7 0
BBX 6 3 0 2
BITMAP
FC
00
FC
ENDCHAR
STARTCHAR greater
ENCODING 62
SWIDTH 606 0
DWIDTH 7 0
BBX 6 5 0 1
BITMAP
C0
30
0C
30
C0
ENDCHAR
STARTCHAR question
ENCODING 63
SWIDTH 444 0
DWIDTH 5 0
BBX 4 9 0 0
BITMAP
E0
90
10
20
40
40
00
40
40
ENDCHAR
STARTCHAR at
ENCODING 64
SWIDTH 737 0
DWIDTH 10 0
BBX 9 9 0 0
BITMAP
1E00
2100
4E80
9280
A480
AD00
9600
4000
3C00
ENDCHAR
STARTCHAR A
ENCODING 65
SWIDTH 722 0
DWIDTH 10 0
BBX 9 9 0 0
BITMAP
0800
0800
1400
1400
2200
3E00
4100
4100
E380
ENDCHAR
STARTCHAR B
ENCODING 66
SWIDTH 722 0
DWIDTH 8 0
BBX 7 9 0 0
BITMAP
F8
44
44
48
7C
42
42
46
FC
ENDCHAR
STARTCHAR C
ENCODING 67
SWIDTH 722 0
DWIDTH 9 0
BBX 8 9 0 0
BITMAP
3D
43
C1
80
80
81
C1
42
3C
ENDCHAR
STARTCHAR D
ENCODING 68
SWIDTH 778 0
DWIDTH 9 0
BBX 8 9 0 0
BITMAP
FC
42
43
41
41
41
43
42
FC
ENDCHAR
STARTCHAR E
ENCODING 69
SWIDTH 722 0
DWIDTH 8 0
BBX 7 9 0 0
BITMAP
FE
42
42
48
78
48
42
42
FE
ENDCHAR
STARTCHAR F
ENCODING 70
SWIDTH 667 0
DWIDTH 8 0
BBX 7 9 0 0
BITMAP
FE
42
42
48
78
48
40
40
E0
ENDCHAR
STARTCHAR G
ENCODING 71
SWIDTH 778 0
DWIDTH 10 0
BBX 9 9 0 0
BITMAP
3D00
4300
C100
8100
8000
8780
C100
4300
3D00
ENDCHAR
STARTCHAR H
ENCODING 72
SWIDTH 833 0
DWIDTH 10 0
BBX 9 9 0 0
BITMAP
E380
4100
4100
4100
7F00
4100
4100
4100
E380
ENDCHAR
STARTCHAR I
ENCODING 73
SWIDTH 407 0
DWIDTH 6 0
BBX 3 9 1 0
BITMAP
E0
40
40
40
40
40
40
40
E0
ENDCHAR
STARTCHAR J
ENCODING 74
SWIDTH 556 0
DWIDTH 7 0
BBX 6 9 0 0
BITMAP
1C
08
08
08
08
08
C8
88
70
ENDCHAR
STARTCHAR K
ENCODING 75
SWIDTH 778 0
DWIDTH 9 0
BBX 8 9 0 0
BITMAP
EE
44
48
50
70
48
44
42
E7
ENDCHAR
STARTCHAR L
ENCODING 76
SWIDTH 667 0
DWIDTH 8 0
BBX 7 9 0 0
BITMAP
F0
40
40
40
40
40
42
42
FE
ENDCHAR
STARTCHAR M
ENCODING 77
SWIDTH 944 0
DWIDTH 12 0
BBX 11 9 0 0
BITMAP
E0E0
60C0
60C0
5140
5140
4A40
4A40
4440
E4E0
ENDCHAR
STARTCHAR N
ENCODING 78
SWIDTH 815 0
DWIDTH 10 0
BBX 9 9 0 0
BITMAP
E380
6100
5100
5100
4900
4900
4500
4500
E300
ENDCHAR
STARTCHAR O
ENCODING 79
SWIDTH 778 0
DWIDTH 9 0
BBX 8 9 0 0
BITMAP
3C
42
C3
81
81
81
C3
42
3C
ENDCHAR
STARTCHAR P
ENCODING 80
SWIDTH 667 0
DWIDTH 8 0
BBX 7 9 0 0
BITMAP
FC
42
42
42
7C
40
40
40
E0
ENDCHAR
STARTCHAR Q
ENCODING 81
SWIDTH 778 0
DWIDTH 9 0
BBX 9 11 0 -2
BITMAP
3C00
4200
C300
8100
8100
B100
CB00
4600
3C00
0480
0300
ENDCHAR
STARTCHAR R
ENCODING 82
SWIDTH 722 0
DWIDTH 9 0
BBX 8 9 0 0
BITMAP
F8
44
44
4C
78
44
44
45
E3
ENDCHAR
STARTCHAR S
ENCODING 83
SWIDTH 630 0
DWIDTH 7 0
BBX 6 9 0 0
BITMAP
74
8C
84
C0
78
0C
84
C4
B8
ENDCHAR
STARTCHAR T
ENCODING 84
SWIDTH 667 0
DWIDTH 8 0
BBX 7 9 0 0
BITMAP
FE
92
92
10
10
10
10
10
38
ENDCHAR
STARTCHAR U
ENCODING 85
SWIDTH 815 0
DWIDTH 10 0
BBX 9 9 0 0
BITMAP
E380
4100
4100
4100
4100
4100
4100
6300
3E00
ENDCHAR
STARTCHAR V
ENCODING 86
SWIDTH 722 0
DWIDTH 10 0
BBX 9 9 0 0
BITMAP
E380
4100
4100
2200
2200
1400
1400
0800
0800
ENDCHAR
STARTCHAR W
ENCODING 87
SWIDTH 981 0
DWIDTH 12 0
BBX 11 9 0 0
BITMAP
EEE0
4440
4440
2A80
2A80
2A80
1100
1100
1100
ENDCHAR
STARTCHAR X
ENCODING 88
SWIDTH 704 0
DWIDTH 9 0
BBX 8 9 0 0
BITMAP
E7
42
24
14
18
28
24
42
E7
ENDCHAR
STARTCHAR Y
ENCODING 89
SWIDTH 704 0
DWIDTH 10 0
BBX 9 9 0 0
BITMAP
E380
4100
2200
2200
1400
0800
0800
0800
1C00
ENDCHAR
STARTCHAR Z
ENCODING 90
SWIDTH 611 0
DWIDTH 7 0
BBX 6 9 0 0
BITMAP
FC
84
08
10
10
20
40
84
FC
ENDCHAR
STARTCHAR bracketleft
ENCODING 91
SWIDTH 333 0
DWIDTH 4 0
BBX 3 11 0 -2
BITMAP
E0
80
80
80
80
80
80
80
80
80
E0
ENDCHAR
STARTCHAR backslash
ENCODING 92
SWIDTH 606 0
DWIDTH 6 0
BBX 5 9 0 0
BITMAP
80
80
40
40
20
20
10
10
08
ENDCHAR
STARTCHAR bracketright
ENCODING 93
SWIDTH 333 0
DWIDTH 4 0
BBX 3 11 0 -2
BITMAP
E0
20
20
20
20
20
20
20
20
20
E0
ENDCHAR
STARTCHAR asciicircum
ENCODING 94
SWIDTH 606 0
DWIDTH 6 0
BBX 5 6 0 3
BITMAP
20
20
50
50
88
88
ENDCHAR
STARTCHAR underscore
ENCODING 95
SWIDTH 500 0
DWIDTH 8 0
BBX 8 1 0 -2
BITMAP
FF
ENDCHAR
STARTCHAR grave
ENCODING 96
SWIDTH 333 0
DWIDTH 3 0
BBX 2 2 0 7
BITMAP
80
40
ENDCHAR
STARTCHAR a
ENCODING 97
SWIDTH 556 0
DWIDTH 7 0
BBX 6 6 0 0
BITMAP
70
88
38
C8
98
6C
ENDCHAR
STARTCHAR b
ENCODING 98
SWIDTH 556 0
DWIDTH 6 0
BBX 6 9 -1 0
BITMAP
C0
40
40
58
64
44
44
44
78
ENDCHAR
STARTCHAR c
ENCODING 99
SWIDTH 444 0
DWIDTH 6 0
BBX 5 6 0 0
BITMAP
70
88
80
80
88
70
ENDCHAR
STARTCHAR d
ENCODING 100
SWIDTH 574 0
DWIDTH 7 0
BBX 6 9 0 0
BITMAP
18
08
08
78
88
88
88
98
6C
ENDCHAR
STARTCHAR e
ENCODING 101
SWIDTH 500 0
DWIDTH 6 0
BBX 5 6 0 0
BITMAP
70
88
F8
80
88
70
ENDCHAR
STARTCHAR f
ENCODING 102
SWIDTH 333 0
DWIDTH 4 0
BBX 4 9 0 0
BITMAP
30
50
40
E0
40
40
40
40
E0
ENDCHAR
STARTCHAR g
ENCODING 103
SWIDTH 537 0
DWIDTH 7 0
BBX 6 10 0 -3
BITMAP
0C
70
88
88
70
40
78
84
84
78
ENDCHAR
STARTCHAR h
ENCODING 104
SWIDTH 611 0
DWIDTH 8 0
BBX 7 9 0 0
BITMAP
C0
40
40
58
64
44
44
44
EE
ENDCHAR
STARTCHAR i
ENCODING 105
SWIDTH 315 0
DWIDTH 4 0
BBX 3 9 0 0
BITMAP
40
40
00
C0
40
40
40
40
E0
ENDCHAR
STARTCHAR j
ENCODING 106
SWIDTH 296 0
DWIDTH 4 0
BBX 3 12 -1 -3
BITMAP
20
20
00
60
20
20
20
20
20
20
20
C0
ENDCHAR
STARTCHAR k
ENCODING 107
SWIDTH 593 0
DWIDTH 7 0
BBX 6 9 0 0
BITMAP
C0
40
40
4C
50
60
50
48
EC
ENDCHAR
STARTCHAR l
ENCODING 108
SWIDTH 315 0
DWIDTH 4 0
BBX 3 9 0 0
BITMAP
C0
40
40
40
40
40
40
40
E0
ENDCHAR
STARTCHAR m
ENCODING 109
SWIDTH 889 0
DWIDTH 12 0
BBX 11 6 0 0
BITMAP
D980
6640
4440
4440
4440
EEE0
ENDCHAR
STARTCHAR n
ENCODING 110
SWIDTH 611 0
DWIDTH 8 0
BBX 7 6 0 0
BITMAP
D8
64
44
44
44
EE
ENDCHAR
STARTCHAR o
ENCODING 111
SWIDTH 500 0
DWIDTH 6 0
BBX 5 6 0 0
BITMAP
70
88
88
88
88
70
ENDCHAR
STARTCHAR p
ENCODING 112
SWIDTH 574 0
DWIDTH 7 0
BBX 6 9 0 -3
BITMAP
D8
64
44
44
44
78
40
40
E0
ENDCHAR
STARTCHAR q
ENCODING 113
SWIDTH 556 0
DWIDTH 6 0
BBX 6 9 0 -3
BITMAP
78
88
88
88
98
68
08
08
1C
ENDCHAR
STARTCHAR r
ENCODING 114
SWIDTH 444 0
DWIDTH 6 0
BBX 5 6 0 0
BITMAP
D8
68
40
40
40
E0
ENDCHAR
STARTCHAR s
ENCODING 115
SWIDTH 463 0
DWIDTH 6 0
BBX 5 6 0 0
BITMAP
78
88
E0
38
88
F0
ENDCHAR
STARTCHAR t
ENCODING 116
SWIDTH 389 0
DWIDTH 4 0
BBX 4 8 0 0
BITMAP
40
40
E0
40
40
40
40
30
ENDCHAR
STARTCHAR u
ENCODING 117
SWIDTH 611 0
DWIDTH 8 0
BBX 7 6 0 0
BITMAP
CC
44
44
44
4C
36
ENDCHAR
STARTCHAR v
ENCODING 118
SWIDTH 537 0
DWIDTH 6 0
BBX 7 6 -1 0
BITMAP
EE
44
28
28
10
10
ENDCHAR
STARTCHAR w
ENCODING 119
SWIDTH 778 0
DWIDTH 10 0
BBX 11 6 -1 0
BITMAP
EEE0
4440
2A80
2A80
1100
1100
ENDCHAR
STARTCHAR x
ENCODING 120
SWIDTH 537 0
DWIDTH 7 0
BBX 6 6 0 0
BITMAP
CC
48
30
30
48
CC
ENDCHAR
STARTCHAR y
ENCODING 121
SWIDTH 537 0
DWIDTH 6 0
BBX 7 9 -1 -3
BITMAP
EE
44
44
28
28
10
10
A0
C0
ENDCHAR
STARTCHAR z
ENCODING 122
SWIDTH 481 0
DWIDTH 6 0
BBX 5 6 0 0
BITMAP
F8
90
20
40
88
F8
ENDCHAR
STARTCHAR braceleft
ENCODING 123
SWIDTH 333 0
DWIDTH 4 0
BBX 3 11 0 -2
BITMAP
20
40
40
40
40
80
40
40
40
40
20
ENDCHAR
STARTCHAR bar
ENCODING 124
SWIDTH 606 0
DWIDTH 8 0
BBX 1 9 3 0
BITMAP
80
80
80
80
80
80
80
80
80
ENDCHAR
STARTCHAR braceright
ENCODING 125
SWIDTH 333 0
DWIDTH 4 0
BBX 3 11 0 -2
BITMAP
80
40
40
40
40
20
40
40
40
40
80
ENDCHAR
STARTCHAR asciitilde
ENCODING 126
SWIDTH 606 0
DWIDTH 7 0
BBX 6 2 0 3
BITMAP
64
98
ENDCHAR
STARTCHAR space
ENCODING 160
SWIDTH 278 0
DWIDTH 3 0
BBX 1 1 0 0
BITMAP
00
ENDCHAR
STARTCHAR exclamdown
ENCODING 161
SWIDTH 296 0
DWIDTH 4 0
BBX 1 9 1 -2
BITMAP
80
80
00
80
80
80
80
80
80
ENDCHAR
STARTCHAR cent
ENCODING 162
SWIDTH 556 0
DWIDTH 7 0
BBX 5 8 1 -1
BITMAP
08
70
98
A0
A0
C8
70
80
ENDCHAR
STARTCHAR sterling
ENCODING 163
SWIDTH 556 0
DWIDTH 8 0
BBX 7 9 0 0
BITMAP
1C
22
26
20
7C
10
D0
A2
DE
ENDCHAR
STARTCHAR currency
ENCODING 164
SWIDTH 606 0
DWIDTH 8 0
BBX 5 7 1 1
BITMAP
88
70
88
88
88
70
88
ENDCHAR
STARTCHAR yen
ENCODING 165
SWIDTH 704 0
DWIDTH 8 0
BBX 7 9 0 0
BITMAP
EE
44
44
28
7C
10
7C
10
38
ENDCHAR
STARTCHAR brokenbar
ENCODING 166
SWIDTH 606 0
DWIDTH 8 0
BBX 1 9 3 0
BITMAP
80
80
80
00
00
80
80
80
80
ENDCHAR
STARTCHAR section
ENCODING 167
SWIDTH 500 0
DWIDTH 6 0
BBX 5 11 0 -2
BITMAP
70
90
80
60
98
88
C8
30
10
90
E0
ENDCHAR
STARTCHAR dieresis
ENCODING 168
SWIDTH 333 0
DWIDTH 4 0
BBX 3 2 0 7
BITMAP
A0
A0
ENDCHAR
STARTCHAR copyright
ENCODING 169
SWIDTH 737 0
DWIDTH 11 0
BBX 10 9 0 0
BITMAP
3F00
4080
9E40
A240
A040
A140
9E40
4080
3F00
ENDCHAR
STARTCHAR ordfeminine
ENCODING 170
SWIDTH 334 0
DWIDTH 5 0
BBX 4 6 0 3
BITMAP
C0
20
60
B0
00
F0
ENDCHAR
STARTCHAR guillemotleft
ENCODING 171
SWIDTH 426 0
DWIDTH 7 0
BBX 6 5 0 1
BITMAP
24
48
90
48
24
ENDCHAR
STARTCHAR logicalnot
ENCODING 172
SWIDTH 606 0
DWIDTH 7 0
BBX 6 3 0 2
BITMAP
FC
04
04
ENDCHAR
STARTCHAR hyphen
ENCODING 173
SWIDTH 333 0
DWIDTH 4 0
BBX 3 1 0 3
BITMAP
E0
ENDCHAR
STARTCHAR registered
ENCODING 174
SWIDTH 737 0
DWIDTH 11 0
BBX 10 9 0 0
BITMAP
3F00
4080
BE40
9240
9C40
9240
BB40
4080
3F00
ENDCHAR
STARTCHAR macron
ENCODING 175
SWIDTH 333 0
DWIDTH 5 0
BBX 4 1 0 7
BITMAP
F0
ENDCHAR
STARTCHAR degree
ENCODING 176
SWIDTH 400 0
DWIDTH 5 0
BBX 4 4 0 5
BITMAP
60
90
90
60
ENDCHAR
STARTCHAR plusminus
ENCODING 177
SWIDTH 606 0
DWIDTH 8 0
BBX 7 7 0 0
BITMAP
10
10
FE
10
10
00
FE
ENDCHAR
STARTCHAR twosuperior
ENCODING 178
SWIDTH 333 0
DWIDTH 4 0
BBX 4 5 0 4
BITMAP
60
90
20
40
F0
ENDCHAR
STARTCHAR threesuperior
ENCODING 179
SWIDTH 333 0
DWIDTH 4 0
BBX 4 5 0 4
BITMAP
60
90
20
90
60
ENDCHAR
STARTCHAR acute
ENCODING 180
SWIDTH 333 0
DWIDTH 3 0
BBX 2 2 0 7
BITMAP
40
80
ENDCHAR
STARTCHAR mu
ENCODING 181
SWIDTH 611 0
DWIDTH 8 0
BBX 7 9 0 -3
BITMAP
CC
44
44
44
4C
76
40
40
40
ENDCHAR
STARTCHAR paragraph
ENCODING 182
SWIDTH 606 0
DWIDTH 8 0
BBX 7 11 0 -2
BITMAP
7E
D4
D4
D4
74
14
14
14
14
14
3E
ENDCHAR
STARTCHAR periodcentered
ENCODING 183
SWIDTH 278 0
DWIDTH 4 0
BBX 1 2 1 3
BITMAP
80
80
ENDCHAR
STARTCHAR cedilla
ENCODING 184
SWIDTH 333 0
DWIDTH 4 0
BBX 2 3 1 -3
BITMAP
80
40
C0
ENDCHAR
STARTCHAR onesuperior
ENCODING 185
SWIDTH 333 0
DWIDTH 4 0
BBX 3 5 0 4
BITMAP
40
C0
40
40
E0
ENDCHAR
STARTCHAR ordmasculine
ENCODING 186
SWIDTH 300 0
DWIDTH 5 0
BBX 4 6 0 3
BITMAP
60
90
90
60
00
F0
ENDCHAR
STARTCHAR guillemotright
ENCODING 187
SWIDTH 426 0
DWIDTH 7 0
BBX 6 5 0 1
BITMAP
90
48
24
48
90
ENDCHAR
STARTCHAR onequarter
ENCODING 188
SWIDTH 834 0
DWIDTH 9 0
BBX 9 9 0 0
BITMAP
4200
C400
4400
4800
E900
1300
1500
2780
2100
ENDCHAR
STARTCHAR onehalf
ENCODING 189
SWIDTH 834 0
DWIDTH 9 0
BBX 9 9 0 0
BITMAP
4200
C400
4400
4800
EB00
1480
1100
2200
2780
ENDCHAR
STARTCHAR threequarters
ENCODING 190
SWIDTH 834 0
DWIDTH 9 0
BBX 9 9 0 0
BITMAP
6200
9200
2400
9400
6900
0B00
1500
1780
2100
ENDCHAR
STARTCHAR questiondown
ENCODING 191
SWIDTH 444 0
DWIDTH 5 0
BBX 4 9 0 -2
BITMAP
20
20
00
20
20
40
80
90
70
ENDCHAR
STARTCHAR Agrave
ENCODING 192
SWIDTH 722 0
DWIDTH 10 0
BBX 9 12 0 0
BITMAP
3000
0800
0000
0800
0800
1400
1400
2200
3E00
4100
4100
E380
ENDCHAR
STARTCHAR Aacute
ENCODING 193
SWIDTH 722 0
DWIDTH 10 0
BBX 9 12 0 0
BITMAP
0600
0800
0000
0800
0800
1400
1400
2200
3E00
4100
4100
E380
ENDCHAR
STARTCHAR Acircumflex
ENCODING 194
SWIDTH 722 0
DWIDTH 10 0
BBX 9 12 0 0
BITMAP
0C00
1200
0000
0800
0800
1400
1400
2200
3E00
4100
4100
E380
ENDCHAR
STARTCHAR Atilde
ENCODING 195
SWIDTH 722 0
DWIDTH 10 0
BBX 9 12 0 0
BITMAP
1900
2600
0000
0800
0800
1400
1400
2200
3E00
4100
4100
E380
ENDCHAR
STARTCHAR Adieresis
ENCODING 196
SWIDTH 722 0
DWIDTH 10 0
BBX 9 12 0 0
BITMAP
2200
2200
0000
0800
0800
1400
1400
2200
3E00
4100
4100
E380
ENDCHAR
STARTCHAR Aring
ENCODING 197
SWIDTH 722 0
DWIDTH 10 0
BBX 9 12 0 0
BITMAP
0800
1400
0800
0800
0800
1400
1400
2200
3E00
4100
4100
E380
ENDCHAR
STARTCHAR AE
ENCODING 198
SWIDTH 1000 0
DWIDTH 13 0
BBX 12 9 0 0
BITMAP
1FF0
0A10
1210
1240
23C0
3E40
4210
4210
E7F0
ENDCHAR
STARTCHAR Ccedilla
ENCODING 199
SWIDTH 722 0
DWIDTH 9 0
BBX 8 12 0 -3
BITMAP
3D
43
C1
80
80
81
C1
42
3C
10
08
18
ENDCHAR
STARTCHAR Egrave
ENCODING 200
SWIDTH 722 0
DWIDTH 8 0
BBX 7 12 0 0
BITMAP
30
08
00
FE
42
42
48
78
48
42
42
FE
ENDCHAR
STARTCHAR Eacute
ENCODING 201
SWIDTH 722 0
DWIDTH 8 0
BBX 7 12 0 0
BITMAP
0C
10
00
FE
42
42
48
78
48
42
42
FE
ENDCHAR
STARTCHAR Ecircumflex
ENCODING 202
SWIDTH 722 0
DWIDTH 8 0
BBX 7 12 0 0
BITMAP
18
24
00
FE
42
42
48
78
48
42
42
FE
ENDCHAR
STARTCHAR Edieresis
ENCODING 203
SWIDTH 722 0
DWIDTH 8 0
BBX 7 12 0 0
BITMAP
24
24
00
FE
42
42
48
78
48
42
42
FE
ENDCHAR
STARTCHAR Igrave
ENCODING 204
SWIDTH 407 0
DWIDTH 6 0
BBX 3 12 1 0
BITMAP
C0
20
00
E0
40
40
40
40
40
40
40
E0
ENDCHAR
STARTCHAR Iacute
ENCODING 205
SWIDTH 407 0
DWIDTH 6 0
BBX 3 12 1 0
BITMAP
60
80
00
E0
40
40
40
40
40
40
40
E0
ENDCHAR
STARTCHAR Icircumflex
ENCODING 206
SWIDTH 407 0
DWIDTH 6 0
BBX 3 12 1 0
BITMAP
40
A0
00
E0
40
40
40
40
40
40
40
E0
ENDCHAR
STARTCHAR Idieresis
ENCODING 207
SWIDTH 407 0
DWIDTH 6 0
BBX 3 12 1 0
BITMAP
A0
A0
00
E0
40
40
40
40
40
40
40
E0
ENDCHAR
STARTCHAR Eth
ENCODING 208
SWIDTH 778 0
DWIDTH 9 0
BBX 8 9 0 0
BITMAP
FC
42
43
41
F1
41
43
42
FC
ENDCHAR
STARTCHAR Ntilde
ENCODING 209
SWIDTH 815 0
DWIDTH 10 0
BBX 9 12 0 0
BITMAP
1900
2600
0000
E380
6100
5100
5100
4900
4900
4500
4500
E300
ENDCHAR
STARTCHAR Ograve
ENCODING 210
SWIDTH 778 0
DWIDTH 9 0
BBX 8 12 0 0
BITMAP
30
08
00
3C
42
C3
81
81
81
C3
42
3C
ENDCHAR
STARTCHAR Oacute
ENCODING 211
SWIDTH 778 0
DWIDTH 9 0
BBX 8 12 0 0
BITMAP
0C
10
00
3C
42
C3
81
81
81
C3
42
3C
ENDCHAR
STARTCHAR Ocircumflex
ENCODING 212
SWIDTH 778 0
DWIDTH 9 0
BBX 8 12 0 0
BITMAP
18
24
00
3C
42
C3
81
81
81
C3
42
3C
ENDCHAR
STARTCHAR Otilde
ENCODING 213
SWIDTH 778 0
DWIDTH 9 0
BBX 8 12 0 0
BITMAP
32
4C
00
3C
42
C3
81
81
81
C3
42
3C
ENDCHAR
STARTCHAR Odieresis
ENCODING 214
SWIDTH 778 0
DWIDTH 9 0
BBX 8 12 0 0
BITMAP
24
24
00
3C
42
C3
81
81
81
C3
42
3C
ENDCHAR
STARTCHAR multiply
ENCODING 215
SWIDTH 606 0
DWIDTH 8 0
BBX 7 7 0 0
BITMAP
82
44
28
10
28
44
82
ENDCHAR
STARTCHAR Oslash
ENCODING 216
SWIDTH 778 0
DWIDTH 9 0
BBX 9 9 0 0
BITMAP
3C80
4300
C300
8500
8900
9100
E300
4200
BC00
ENDCHAR
STARTCHAR Ugrave
ENCODING 217
SWIDTH 815 0
DWIDTH 10 0
BBX 9 12 0 0
BITMAP
3000
0800
0000
E380
4100
4100
4100
4100
4100
4100
6300
3E00
ENDCHAR
STARTCHAR Uacute
ENCODING 218
SWIDTH 815 0
DWIDTH 10 0
BBX 9 12 0 0
BITMAP
0600
0800
0000
E380
4100
4100
4100
4100
4100
4100
6300
3E00
ENDCHAR
STARTCHAR Ucircumflex
ENCODING 219
SWIDTH 815 0
DWIDTH 10 0
BBX 9 12 0 0
BITMAP
0C00
1200
0000
E380
4100
4100
4100
4100
4100
4100
6300
3E00
ENDCHAR
STARTCHAR Udieresis
ENCODING 220
SWIDTH 815 0
DWIDTH 10 0
BBX 9 12 0 0
BITMAP
2200
2200
0000
E380
4100
4100
4100
4100
4100
4100
6300
3E00
ENDCHAR
STARTCHAR Yacute
ENCODING 221
SWIDTH 704 0
DWIDTH 10 0
BBX 9 12 0 0
BITMAP
0600
0800
0000
E380
4100
2200
2200
1400
0800
0800
0800
1C00
ENDCHAR
STARTCHAR Thorn
ENCODING 222
SWIDTH 667 0
DWIDTH 8 0
BBX 7 9 0 0
BITMAP
E0
40
7C
42
42
42
7C
40
E0
ENDCHAR
STARTCHAR germandbls
ENCODING 223
SWIDTH 574 0
DWIDTH 7 0
BBX 6 9 0 0
BITMAP
38
44
44
58
44
44
44
54
D8
ENDCHAR
STARTCHAR agrave
ENCODING 224
SWIDTH 556 0
DWIDTH 7 0
BBX 6 9 0 0
BITMAP
20
10
00
70
88
38
C8
98
6C
ENDCHAR
STARTCHAR aacute
ENCODING 225
SWIDTH 556 0
DWIDTH 7 0
BBX 6 9 0 0
BITMAP
10
20
00
70
88
38
C8
98
6C
ENDCHAR
STARTCHAR acircumflex
ENCODING 226
SWIDTH 556 0
DWIDTH 7 0
BBX 6 9 0 0
BITMAP
20
50
00
70
88
38
C8
98
6C
ENDCHAR
STARTCHAR atilde
ENCODING 227
SWIDTH 556 0
DWIDTH 7 0
BBX 6 9 0 0
BITMAP
48
B0
00
70
88
38
C8
98
6C
ENDCHAR
STARTCHAR adieresis
ENCODING 228
SWIDTH 556 0
DWIDTH 7 0
BBX 6 9 0 0
BITMAP
50
50
00
70
88
38
C8
98
6C
ENDCHAR
STARTCHAR aring
ENCODING 229
SWIDTH 556 0
DWIDTH 7 0
BBX 6 9 0 0
BITMAP
20
50
20
70
88
38
C8
98
6C
ENDCHAR
STARTCHAR ae
ENCODING 230
SWIDTH 796 0
DWIDTH 10 0
BBX 9 6 0 0
BITMAP
7700
8880
3F80
C800
9880
6700
ENDCHAR
STARTCHAR ccedilla
ENCODING 231
SWIDTH 444 0
DWIDTH 6 0
BBX 5 9 0 -3
BITMAP
70
88
80
80
88
70
40
20
60
ENDCHAR
STARTCHAR egrave
ENCODING 232
SWIDTH 500 0
DWIDTH 6 0
BBX 5 9 0 0
BITMAP
40
20
00
70
88
F8
80
88
70
ENDCHAR
STARTCHAR eacute
ENCODING 233
SWIDTH 500 0
DWIDTH 6 0
BBX 5 9 0 0
BITMAP
10
20
00
70
88
F8
80
88
70
ENDCHAR
STARTCHAR ecircumflex
ENCODING 234
SWIDTH 500 0
DWIDTH 6 0
BBX 5 9 0 0
BITMAP
20
50
00
70
88
F8
80
88
70
ENDCHAR
STARTCHAR edieresis
ENCODING 235
SWIDTH 500 0
DWIDTH 6 0
BBX 5 9 0 0
BITMAP
50
50
00
70
88
F8
80
88
70
ENDCHAR
STARTCHAR igrave
ENCODING 236
SWIDTH 315 0
DWIDTH 4 0
BBX 3 9 0 0
BITMAP
80
40
00
C0
40
40
40
40
E0
ENDCHAR
STARTCHAR iacute
ENCODING 237
SWIDTH 315 0
DWIDTH 4 0
BBX 3 9 0 0
BITMAP
20
40
00
C0
40
40
40
40
E0
ENDCHAR
STARTCHAR icircumflex
ENCODING 238
SWIDTH 315 0
DWIDTH 4 0
BBX 3 9 0 0
BITMAP
40
A0
00
C0
40
40
40
40
E0
ENDCHAR
STARTCHAR idieresis
ENCODING 239
SWIDTH 315 0
DWIDTH 4 0
BBX 3 9 0 0
BITMAP
A0
A0
00
C0
40
40
40
40
E0
ENDCHAR
STARTCHAR eth
ENCODING 240
SWIDTH 500 0
DWIDTH 6 0
BBX 5 9 0 0
BITMAP
40
78
90
78
88
88
88
88
70
ENDCHAR
STARTCHAR ntilde
ENCODING 241
SWIDTH 611 0
DWIDTH 8 0
BBX 7 9 0 0
BITMAP
24
58
00
D8
64
44
44
44
EE
ENDCHAR
STARTCHAR ograve
ENCODING 242
SWIDTH 500 0
DWIDTH 6 0
BBX 5 9 0 0
BITMAP
40
20
00
70
88
88
88
88
70
ENDCHAR
STARTCHAR oacute
ENCODING 243
SWIDTH 500 0
DWIDTH 6 0
BBX 5 9 0 0
BITMAP
10
20
00
70
88
88
88
88
70
ENDCHAR
STARTCHAR ocircumflex
ENCODING 244
SWIDTH 500 0
DWIDTH 6 0
BBX 5 9 0 0
BITMAP
20
50
00
70
88
88
88
88
70
ENDCHAR
STARTCHAR otilde
ENCODING 245
SWIDTH 500 0
DWIDTH 6 0
BBX 5 9 0 0
BITMAP
48
B0
00
70
88
88
88
88
70
ENDCHAR
STARTCHAR odieresis
ENCODING 246
SWIDTH 500 0
DWIDTH 6 0
BBX 5 8 0 0
BITMAP
50
00
70
88
88
88
88
70
ENDCHAR
STARTCHAR divide
ENCODING 247
SWIDTH 606 0
DWIDTH 8 0
BBX 7 7 0 0
BITMAP
10
10
00
FE
00
10
10
ENDCHAR
STARTCHAR oslash
ENCODING 248
SWIDTH 500 0
DWIDTH 6 0
BBX 5 8 0 -1
BITMAP
08
70
98
A8
A8
C8
70
80
ENDCHAR
STARTCHAR ugrave
ENCODING 249
SWIDTH 611 0
DWIDTH 8 0
BBX 7 9 0 0
BITMAP
20
10
00
CC
44
44
44
4C
36
ENDCHAR
STARTCHAR uacute
ENCODING 250
SWIDTH 611 0
DWIDTH 8 0
BBX 7 9 0 0
BITMAP
08
10
00
CC
44
44
44
4C
36
ENDCHAR
STARTCHAR ucircumflex
ENCODING 251
SWIDTH 611 0
DWIDTH 8 0
BBX 7 9 0 0
BITMAP
10
28
00
CC
44
44
44
4C
36
ENDCHAR
STARTCHAR udieresis
ENCODING 252
SWIDTH 611 0
DWIDTH 8 0
BBX 7 9 0 0
BITMAP
28
28
00
CC
44
44
44
4C
36
ENDCHAR
STARTCHAR yacute
ENCODING 253
SWIDTH 537 0
DWIDTH 6 0
BBX 7 12 -1 -3
BITMAP
08
10
00
EE
44
44
28
28
10
10
A0
C0
ENDCHAR
STARTCHAR thorn
ENCODING 254
SWIDTH 574 0
DWIDTH 7 0
BBX 6 12 0 -3
BITMAP
C0
40
40
58
64
44
44
44
78
40
40
E0
ENDCHAR
STARTCHAR ydieresis
ENCODING 255
SWIDTH 537 0
DWIDTH 6 0
BBX 7 12 -1 -3
BITMAP
28
28
00
EE
44
44
28
28
10
10
A0
C0
ENDCHAR
ENDFONT
