STARTFONT 2.1
COMMENT AUTOMATICALLY GENERATED FILE. DO NOT EDIT!
COMMENT Generated with 'ucs2any.pl ncenR24.bdf ../../../fonts/util/map-ISO8859-1 ISO8859-1'
COMMENT from an ISO10646-1 encoded source BDF font.
COMMENT ucs2any.pl by Markus Kuhn <mkuhn@acm.org>, 2000.
FONT -Adobe-New Century Schoolbook-Medium-R-Normal--24-240-75-75-P-137-ISO8859-1
SIZE 24 75 75
FONTBOUNDINGBOX 28 28 -2 -5
COMMENT $Xorg: $
COMMENT ISO10646-1 extension by Markus Kuhn <mkuhn@acm.org>, 2001-03-20
COMMENT 
COMMENT +
COMMENT  Copyright 1984-1989, 1994 Adobe Systems Incorporated.
COMMENT  Copyright 1988, 1994 Digital Equipment Corporation.
COMMENT
COMMENT  Adobe is a trademark of Adobe Systems Incorporated which may be
COMMENT  registered in certain jurisdictions.
COMMENT  Permission to use these trademarks is hereby granted only in
COMMENT  association with the images described in this file.
COMMENT
COMMENT  Permission to use, copy, modify, distribute and sell this software
COMMENT  and its documentation for any purpose and without fee is hereby
COMMENT  granted, provided that the above copyright notices appear in all
COMMENT  copies and that both those copyright notices and this permission
COMMENT  notice appear in supporting documentation, and that the names of
COMMENT  Adobe Systems and Digital Equipment Corporation not be used in
COMMENT  advertising or publicity pertaining to distribution of the software
COMMENT  without specific, written prior permission.  Adobe Systems and
COMMENT  Digital Equipment Corporation make no representations about the
COMMENT  suitability of this software for any purpose.  It is provided "as
COMMENT  is" without express or implied warranty.
COMMENT -
STARTPROPERTIES 23
COMMENT Begin LogicalFontDescription
FONTNAME_REGISTRY ""
FAMILY_NAME "New Century Schoolbook"
FOUNDRY "Adobe"
WEIGHT_NAME "Medium"
SLANT "R"
SETWIDTH_NAME "Normal"
ADD_STYLE_NAME ""
PIXEL_SIZE 24
POINT_SIZE 240
RESOLUTION_X 75
RESOLUTION_Y 75
SPACING "P"
AVERAGE_WIDTH 137
CHARSET_REGISTRY "ISO8859"
CHARSET_ENCODING "1"
COMMENT END LogicalFontDescription
FULL_NAME "New Century Schoolbook Roman"
COPYRIGHT "Copyright (c) 1984,1987 Adobe Systems, Inc., Portions Copyright 1988 Digital Equipment Corp."
COMMENT ***** end of inserted font properties
FONT_ASCENT 21
FONT_DESCENT 5
CAP_HEIGHT 18
X_HEIGHT 12
_DEC_DEVICE_FONTNAMES "PS=NewCenturySchlbk-Roman"
DEFAULT_CHAR 0
ENDPROPERTIES
CHARS 192
STARTCHAR defaultchar
ENCODING 0
SWIDTH 833 0
DWIDTH 21 0
BBX 19 17 1 0
BITMAP
AAAAA0
000000
800020
000000
800020
000000
800020
000000
800020
000000
800020
000000
800020
000000
800020
000000
AAAAA0
ENDCHAR
STARTCHAR space
ENCODING 32
SWIDTH 278 0
DWIDTH 7 0
BBX 1 1 0 0
BITMAP
00
ENDCHAR
STARTCHAR exclam
ENCODING 33
SWIDTH 296 0
DWIDTH 7 0
BBX 3 18 2 0
BITMAP
60
60
60
60
60
60
60
60
60
60
60
40
40
40
00
E0
E0
E0
ENDCHAR
STARTCHAR quotedbl
ENCODING 34
SWIDTH 389 0
DWIDTH 10 0
BBX 6 6 2 12
BITMAP
CC
CC
CC
CC
88
88
ENDCHAR
STARTCHAR numbersign
ENCODING 35
SWIDTH 556 0
DWIDTH 15 0
BBX 13 16 1 1
BITMAP
0C60
0C60
0C60
0C60
0C60
7FF8
18C0
18C0
18C0
18C0
FFF0
3180
3180
3180
3180
3180
ENDCHAR
STARTCHAR dollar
ENCODING 36
SWIDTH 556 0
DWIDTH 13 0
BBX 11 22 1 -2
BITMAP
0400
0400
1F00
6580
44C0
C4C0
C5C0
C580
E400
FC00
7F00
1FC0
07C0
04E0
6460
E460
C460
C440
64C0
3F00
0400
0400
ENDCHAR
STARTCHAR percent
ENCODING 37
SWIDTH 833 0
DWIDTH 20 0
BBX 18 18 1 0
BITMAP
1E1800
332800
61D800
611000
C13000
C12000
C26000
C24000
C4C780
788CC0
019840
011840
033040
023040
063080
043080
0C3100
081E00
ENDCHAR
STARTCHAR ampersand
ENCODING 38
SWIDTH 815 0
DWIDTH 20 0
BBX 18 18 1 0
BITMAP
07C000
0CE000
186000
186000
186000
18C000
0D8000
0E0000
1E3F80
671E00
638C00
C1C800
C0E800
C07000
E03840
707C40
7FCF80
1F0700
ENDCHAR
STARTCHAR quotesingle
ENCODING 39
SWIDTH 204 0
DWIDTH 6 0
BBX 2 6 2 12
BITMAP
C0
C0
C0
C0
C0
C0
ENDCHAR
STARTCHAR parenleft
ENCODING 40
SWIDTH 333 0
DWIDTH 9 0
BBX 7 21 1 -3
BITMAP
02
0C
18
30
30
60
60
C0
C0
C0
C0
C0
C0
C0
60
60
30
30
18
0C
02
ENDCHAR
STARTCHAR parenright
ENCODING 41
SWIDTH 333 0
DWIDTH 8 0
BBX 7 21 0 -3
BITMAP
80
60
30
18
18
0C
0C
06
06
06
06
06
06
06
0C
0C
18
18
30
60
80
ENDCHAR
STARTCHAR asterisk
ENCODING 42
SWIDTH 500 0
DWIDTH 9 0
BBX 7 9 1 9
BITMAP
10
38
92
D6
38
D6
92
38
10
ENDCHAR
STARTCHAR plus
ENCODING 43
SWIDTH 606 0
DWIDTH 14 0
BBX 12 12 1 1
BITMAP
0600
0600
0600
0600
0600
FFF0
FFF0
0600
0600
0600
0600
0600
ENDCHAR
STARTCHAR comma
ENCODING 44
SWIDTH 278 0
DWIDTH 6 0
BBX 4 7 1 -4
BITMAP
60
F0
F0
30
20
40
80
ENDCHAR
STARTCHAR hyphen
ENCODING 45
SWIDTH 333 0
DWIDTH 8 0
BBX 6 2 1 6
BITMAP
FC
FC
ENDCHAR
STARTCHAR period
ENCODING 46
SWIDTH 278 0
DWIDTH 7 0
BBX 3 3 2 0
BITMAP
E0
E0
E0
ENDCHAR
STARTCHAR slash
ENCODING 47
SWIDTH 278 0
DWIDTH 8 0
BBX 7 18 0 0
BITMAP
06
06
06
0C
0C
0C
18
18
18
30
30
30
60
60
60
C0
C0
C0
ENDCHAR
STARTCHAR zero
ENCODING 48
SWIDTH 556 0
DWIDTH 13 0
BBX 11 18 1 0
BITMAP
1F00
3180
60C0
60C0
C060
C060
C060
C060
C060
C060
C060
C060
C060
C060
60C0
60C0
3180
1F00
ENDCHAR
STARTCHAR one
ENCODING 49
SWIDTH 556 0
DWIDTH 13 0
BBX 10 18 2 0
BITMAP
0400
1C00
FC00
0C00
0C00
0C00
0C00
0C00
0C00
0C00
0C00
0C00
0C00
0C00
0C00
0C00
1E00
7FC0
ENDCHAR
STARTCHAR two
ENCODING 50
SWIDTH 556 0
DWIDTH 13 0
BBX 11 18 1 0
BITMAP
1F80
61C0
C0E0
C060
E060
60E0
00C0
01C0
0180
0300
0600
0C00
1800
3020
6020
C060
FFE0
FFE0
ENDCHAR
STARTCHAR three
ENCODING 51
SWIDTH 556 0
DWIDTH 13 0
BBX 11 18 1 0
BITMAP
1F00
6380
C1C0
C0C0
E0C0
60C0
0180
0300
1F00
01C0
00E0
0060
6060
E060
E060
C0C0
6180
1F00
ENDCHAR
STARTCHAR four
ENCODING 52
SWIDTH 556 0
DWIDTH 13 0
BBX 11 18 1 0
BITMAP
0080
0180
0380
0380
0580
0D80
0980
1980
1180
3180
6180
4180
C180
FFE0
0180
0180
0180
07E0
ENDCHAR
STARTCHAR five
ENCODING 53
SWIDTH 556 0
DWIDTH 13 0
BBX 11 18 1 0
BITMAP
7FC0
7F80
5E00
4000
4000
4000
4000
5F00
63C0
00C0
0060
0060
6060
E060
E060
C0C0
6180
1F00
ENDCHAR
STARTCHAR six
ENCODING 54
SWIDTH 556 0
DWIDTH 13 0
BBX 11 18 1 0
BITMAP
0F80
18E0
30E0
3060
6000
6000
E000
CF00
F1C0
E0C0
C060
C060
C060
E060
6060
60C0
31C0
1F00
ENDCHAR
STARTCHAR seven
ENCODING 55
SWIDTH 556 0
DWIDTH 13 0
BBX 10 18 2 0
BITMAP
FFC0
FFC0
8080
8180
0100
0300
0300
0200
0600
0600
0400
0C00
0C00
1C00
1C00
1C00
1C00
0800
ENDCHAR
STARTCHAR eight
ENCODING 56
SWIDTH 556 0
DWIDTH 13 0
BBX 11 18 1 0
BITMAP
0E00
3180
20C0
60C0
60C0
70C0
7180
3F00
1F00
3780
61C0
C0E0
C060
C060
C060
60C0
6180
1F00
ENDCHAR
STARTCHAR nine
ENCODING 57
SWIDTH 556 0
DWIDTH 13 0
BBX 11 18 1 0
BITMAP
1F00
71C0
60C0
E0E0
C060
C060
C060
E060
70E0
71E0
1E60
0060
00C0
00C0
C0C0
E180
E380
3E00
ENDCHAR
STARTCHAR colon
ENCODING 58
SWIDTH 278 0
DWIDTH 7 0
BBX 3 12 2 0
BITMAP
E0
E0
E0
00
00
00
00
00
00
E0
E0
E0
ENDCHAR
STARTCHAR semicolon
ENCODING 59
SWIDTH 278 0
DWIDTH 7 0
BBX 4 16 2 -4
BITMAP
E0
E0
E0
00
00
00
00
00
00
60
F0
F0
30
20
40
80
ENDCHAR
STARTCHAR less
ENCODING 60
SWIDTH 606 0
DWIDTH 14 0
BBX 12 12 1 1
BITMAP
0030
00F0
03C0
0F00
3C00
F000
F000
3C00
0F00
03C0
00F0
0030
ENDCHAR
STARTCHAR equal
ENCODING 61
SWIDTH 606 0
DWIDTH 15 0
BBX 12 6 1 4
BITMAP
FFF0
FFF0
0000
0000
FFF0
FFF0
ENDCHAR
STARTCHAR greater
ENCODING 62
SWIDTH 606 0
DWIDTH 14 0
BBX 12 12 1 1
BITMAP
C000
F000
3C00
0F00
03C0
00F0
00F0
03C0
0F00
3C00
F000
C000
ENDCHAR
STARTCHAR question
ENCODING 63
SWIDTH 444 0
DWIDTH 12 0
BBX 10 18 1 0
BITMAP
1E00
6380
C1C0
E0C0
E0C0
01C0
0380
0700
0C00
1800
1800
1800
1800
0000
0000
3800
3800
3800
ENDCHAR
STARTCHAR at
ENCODING 64
SWIDTH 737 0
DWIDTH 19 0
BBX 17 18 1 0
BITMAP
01F800
060600
180300
100100
20D880
633880
461880
C61880
8C1880
8C3180
8C3100
8C7100
84B600
C33800
400000
600200
180C00
0FF000
ENDCHAR
STARTCHAR A
ENCODING 65
SWIDTH 722 0
DWIDTH 19 0
BBX 19 18 0 0
BITMAP
004000
004000
00C000
00E000
01E000
013000
033000
023800
061800
041C00
0C0C00
0FFE00
180600
100700
300300
300380
600180
F807E0
ENDCHAR
STARTCHAR B
ENCODING 66
SWIDTH 722 0
DWIDTH 18 0
BBX 15 18 1 0
BITMAP
FFE0
3838
180C
180C
180C
180C
1818
1830
1FE0
1838
180C
1806
1806
1806
1806
180E
381C
FFF0
ENDCHAR
STARTCHAR C
ENCODING 67
SWIDTH 722 0
DWIDTH 17 0
BBX 15 18 1 0
BITMAP
07F2
1C1E
300E
6006
E002
C002
C000
C000
C000
C000
C000
C000
E002
6002
7002
3804
1C0C
07F0
ENDCHAR
STARTCHAR D
ENCODING 68
SWIDTH 778 0
DWIDTH 20 0
BBX 17 18 1 0
BITMAP
FFF000
381C00
180600
180700
180300
180380
180180
180180
180180
180180
180180
180180
180380
180300
180700
180600
381C00
FFF000
ENDCHAR
STARTCHAR E
ENCODING 69
SWIDTH 722 0
DWIDTH 16 0
BBX 14 18 1 0
BITMAP
FFFC
381C
180C
1804
1804
1820
1820
1860
1FE0
1860
1820
1820
1800
1804
1804
180C
381C
FFFC
ENDCHAR
STARTCHAR F
ENCODING 70
SWIDTH 667 0
DWIDTH 16 0
BBX 14 18 1 0
BITMAP
FFFC
381C
180C
1804
1804
1820
1820
1860
1FE0
1860
1820
1820
1800
1800
1800
1800
3C00
FF00
ENDCHAR
STARTCHAR G
ENCODING 71
SWIDTH 778 0
DWIDTH 18 0
BBX 17 18 1 0
BITMAP
07F200
1E1E00
380600
700600
600200
E00200
C00000
C00000
C00000
C00000
C03F80
C00600
E00600
600600
700600
380E00
1E3600
07E200
ENDCHAR
STARTCHAR H
ENCODING 72
SWIDTH 833 0
DWIDTH 21 0
BBX 19 18 1 0
BITMAP
FE0FE0
380380
180300
180300
180300
180300
180300
180300
1FFF00
180300
180300
180300
180300
180300
180300
180300
380380
FE0FE0
ENDCHAR
STARTCHAR I
ENCODING 73
SWIDTH 407 0
DWIDTH 9 0
BBX 8 18 1 0
BITMAP
FF
3C
18
18
18
18
18
18
18
18
18
18
18
18
18
18
3C
FF
ENDCHAR
STARTCHAR J
ENCODING 74
SWIDTH 556 0
DWIDTH 14 0
BBX 13 18 1 0
BITMAP
0FF8
01E0
00C0
00C0
00C0
00C0
00C0
00C0
00C0
00C0
00C0
60C0
F0C0
F0C0
E0C0
C180
6380
3E00
ENDCHAR
STARTCHAR K
ENCODING 75
SWIDTH 778 0
DWIDTH 20 0
BBX 19 18 1 0
BITMAP
FE3F80
380E00
180C00
181800
183000
186000
18C000
198000
1B8000
1FC000
1CE000
187000
183800
181C00
180E00
180700
3C0380
FF0FE0
ENDCHAR
STARTCHAR L
ENCODING 76
SWIDTH 667 0
DWIDTH 16 0
BBX 14 18 1 0
BITMAP
FF00
3C00
1800
1800
1800
1800
1800
1800
1800
1800
1800
1800
1804
1804
1804
180C
381C
FFFC
ENDCHAR
STARTCHAR M
ENCODING 77
SWIDTH 944 0
DWIDTH 23 0
BBX 21 18 1 0
BITMAP
FC01F8
3C01E0
1C03C0
1602C0
1602C0
1706C0
1304C0
1304C0
138CC0
1188C0
1188C0
11C8C0
10D0C0
10D0C0
1070C0
1060C0
3821E0
FE27F8
ENDCHAR
STARTCHAR N
ENCODING 78
SWIDTH 815 0
DWIDTH 21 0
BBX 19 18 1 0
BITMAP
F80FE0
3C0380
1C0100
1E0100
170100
138100
11C100
10C100
10E100
107100
103100
101900
101D00
100F00
100700
100300
380300
FE0100
ENDCHAR
STARTCHAR O
ENCODING 79
SWIDTH 778 0
DWIDTH 19 0
BBX 17 18 1 0
BITMAP
07F000
1C1C00
300600
700700
600300
E00380
C00180
C00180
C00180
C00180
C00180
C00180
E00380
600300
700700
300600
1C1C00
07F000
ENDCHAR
STARTCHAR P
ENCODING 80
SWIDTH 667 0
DWIDTH 16 0
BBX 14 18 1 0
BITMAP
FFE0
3838
181C
180C
180C
180C
181C
1818
1870
1FC0
1800
1800
1800
1800
1800
1800
3C00
FF00
ENDCHAR
STARTCHAR Q
ENCODING 81
SWIDTH 778 0
DWIDTH 19 0
BBX 17 22 1 -4
BITMAP
07F000
1C1C00
300600
700700
600300
E00380
C00180
C00180
C00180
C00180
C00180
E3C180
E46380
682300
783300
383600
1C3C00
07F800
001880
001C80
001F00
000F00
ENDCHAR
STARTCHAR R
ENCODING 82
SWIDTH 722 0
DWIDTH 18 0
BBX 17 18 1 0
BITMAP
FFF000
383800
181C00
180C00
180C00
180C00
181800
183000
1FE000
186000
183000
183000
183000
183800
181880
181C80
380F00
FE0E00
ENDCHAR
STARTCHAR S
ENCODING 83
SWIDTH 630 0
DWIDTH 15 0
BBX 13 18 1 0
BITMAP
1F90
60F0
4030
C030
C010
E010
F000
7E00
1FC0
07F0
00F8
0038
8018
8018
C018
C030
F070
9FC0
ENDCHAR
STARTCHAR T
ENCODING 84
SWIDTH 667 0
DWIDTH 17 0
BBX 16 18 1 0
BITMAP
FFFF
E187
C183
8181
8181
8181
0180
0180
0180
0180
0180
0180
0180
0180
0180
0180
03C0
0FF0
ENDCHAR
STARTCHAR U
ENCODING 85
SWIDTH 815 0
DWIDTH 19 0
BBX 18 18 1 0
BITMAP
FE1FC0
780700
300200
300200
300200
300200
300200
300200
300200
300200
300200
300200
300200
300200
300600
180400
1C1C00
07F000
ENDCHAR
STARTCHAR V
ENCODING 86
SWIDTH 722 0
DWIDTH 18 0
BBX 19 18 0 0
BITMAP
FE0FE0
380380
380300
180200
1C0200
1C0600
0C0400
0E0C00
060800
070800
071800
031000
03B000
01A000
01E000
01E000
00C000
00C000
ENDCHAR
STARTCHAR W
ENCODING 87
SWIDTH 981 0
DWIDTH 25 0
BBX 26 18 0 0
BITMAP
FE3F9FC0
F80C0700
380E0200
180E0200
1C160400
1C170400
0C130400
0E230800
0E238800
06218800
07419000
0741D000
0340D000
0380F000
0380E000
01806000
01806000
01806000
ENDCHAR
STARTCHAR X
ENCODING 88
SWIDTH 704 0
DWIDTH 19 0
BBX 19 18 0 0
BITMAP
FF1FC0
3C0700
0E0600
060C00
071800
039000
01F000
00E000
00E000
01F000
013000
023800
061C00
0C0C00
0C0E00
180700
380780
FE1FE0
ENDCHAR
STARTCHAR Y
ENCODING 89
SWIDTH 704 0
DWIDTH 17 0
BBX 19 18 -1 0
BITMAP
FE0FE0
3C0380
1C0300
0C0600
0E0400
070C00
030800
019800
01F000
00F000
006000
006000
006000
006000
006000
006000
00F000
03FC00
ENDCHAR
STARTCHAR Z
ENCODING 90
SWIDTH 611 0
DWIDTH 16 0
BBX 14 18 1 0
BITMAP
7FF8
7038
6070
4060
40E0
40C0
01C0
0380
0380
0700
0600
0E00
1C04
1804
3804
300C
701C
FFFC
ENDCHAR
STARTCHAR bracketleft
ENCODING 91
SWIDTH 333 0
DWIDTH 7 0
BBX 5 21 2 -3
BITMAP
F8
C0
C0
C0
C0
C0
C0
C0
C0
C0
C0
C0
C0
C0
C0
C0
C0
C0
C0
C0
F8
ENDCHAR
STARTCHAR backslash
ENCODING 92
SWIDTH 606 0
DWIDTH 11 0
BBX 10 18 0 0
BITMAP
C000
C000
6000
6000
3000
3000
1800
1800
0C00
0C00
0600
0600
0300
0300
0180
0180
00C0
00C0
ENDCHAR
STARTCHAR bracketright
ENCODING 93
SWIDTH 333 0
DWIDTH 7 0
BBX 5 21 0 -3
BITMAP
F8
18
18
18
18
18
18
18
18
18
18
18
18
18
18
18
18
18
18
18
F8
ENDCHAR
STARTCHAR asciicircum
ENCODING 94
SWIDTH 606 0
DWIDTH 12 0
BBX 10 10 1 8
BITMAP
0C00
0C00
1E00
1E00
3300
3300
6180
6180
C0C0
C0C0
ENDCHAR
STARTCHAR underscore
ENCODING 95
SWIDTH 500 0
DWIDTH 15 0
BBX 15 2 0 -3
BITMAP
FFFE
FFFE
ENDCHAR
STARTCHAR grave
ENCODING 96
SWIDTH 333 0
DWIDTH 8 0
BBX 5 4 1 14
BITMAP
C0
E0
30
08
ENDCHAR
STARTCHAR a
ENCODING 97
SWIDTH 556 0
DWIDTH 13 0
BBX 12 12 1 0
BITMAP
1F00
7180
70C0
60C0
00C0
07C0
38C0
60C0
C0C0
C0C0
E1F0
7E60
ENDCHAR
STARTCHAR b
ENCODING 98
SWIDTH 556 0
DWIDTH 14 0
BBX 13 18 0 0
BITMAP
F000
3000
3000
3000
3000
3000
37C0
3C70
3830
3038
3018
3018
3018
3018
3038
3830
3C70
27C0
ENDCHAR
STARTCHAR c
ENCODING 99
SWIDTH 444 0
DWIDTH 12 0
BBX 10 12 1 0
BITMAP
1F00
71C0
61C0
E0C0
C000
C000
C000
C000
E000
6040
70C0
1F80
ENDCHAR
STARTCHAR d
ENCODING 100
SWIDTH 574 0
DWIDTH 14 0
BBX 13 18 1 0
BITMAP
01E0
0060
0060
0060
0060
0060
1E60
71E0
60E0
E060
C060
C060
C060
C060
E060
60E0
71E0
1F78
ENDCHAR
STARTCHAR e
ENCODING 101
SWIDTH 500 0
DWIDTH 13 0
BBX 11 12 1 0
BITMAP
1F00
71C0
60C0
E0E0
C060
FFE0
C000
C000
E000
6040
70C0
1F80
ENDCHAR
STARTCHAR f
ENCODING 102
SWIDTH 333 0
DWIDTH 8 0
BBX 9 18 1 0
BITMAP
0F00
1980
3180
3000
3000
3000
FC00
3000
3000
3000
3000
3000
3000
3000
3000
3000
3000
FC00
ENDCHAR
STARTCHAR g
ENCODING 103
SWIDTH 537 0
DWIDTH 12 0
BBX 13 17 0 -5
BITMAP
1F38
31D8
60C0
60C0
60C0
60C0
3180
1F00
3000
6000
3F00
1FC0
60E0
C060
C060
E0C0
7F80
ENDCHAR
STARTCHAR h
ENCODING 104
SWIDTH 611 0
DWIDTH 14 0
BBX 14 18 0 0
BITMAP
F000
3000
3000
3000
3000
3000
31C0
37E0
3870
3030
3030
3030
3030
3030
3030
3030
3030
FCFC
ENDCHAR
STARTCHAR i
ENCODING 105
SWIDTH 315 0
DWIDTH 8 0
BBX 6 17 1 0
BITMAP
30
30
00
00
00
F0
30
30
30
30
30
30
30
30
30
30
FC
ENDCHAR
STARTCHAR j
ENCODING 106
SWIDTH 296 0
DWIDTH 8 0
BBX 7 22 -2 -5
BITMAP
06
06
00
00
00
1E
06
06
06
06
06
06
06
06
06
06
06
06
06
C6
CC
78
ENDCHAR
STARTCHAR k
ENCODING 107
SWIDTH 593 0
DWIDTH 15 0
BBX 14 18 1 0
BITMAP
F000
3000
3000
3000
3000
3000
33F0
30C0
3180
3300
3600
3E00
3F00
3380
31C0
30E0
3070
FCFC
ENDCHAR
STARTCHAR l
ENCODING 108
SWIDTH 315 0
DWIDTH 8 0
BBX 6 18 1 0
BITMAP
F0
30
30
30
30
30
30
30
30
30
30
30
30
30
30
30
30
FC
ENDCHAR
STARTCHAR m
ENCODING 109
SWIDTH 889 0
DWIDTH 22 0
BBX 22 12 0 0
BITMAP
F1C1C0
37E7E0
387870
303030
303030
303030
303030
303030
303030
303030
303030
FCFCFC
ENDCHAR
STARTCHAR n
ENCODING 110
SWIDTH 611 0
DWIDTH 14 0
BBX 14 12 0 0
BITMAP
F1C0
37E0
3870
3030
3030
3030
3030
3030
3030
3030
3030
FCFC
ENDCHAR
STARTCHAR o
ENCODING 111
SWIDTH 500 0
DWIDTH 13 0
BBX 11 12 1 0
BITMAP
1F00
71C0
60C0
E0E0
C060
C060
C060
C060
E0E0
60C0
71C0
1F00
ENDCHAR
STARTCHAR p
ENCODING 112
SWIDTH 574 0
DWIDTH 14 0
BBX 13 17 0 -5
BITMAP
F7C0
3C70
3830
3038
3018
3018
3018
3018
3038
3830
3C70
37C0
3000
3000
3000
3000
FC00
ENDCHAR
STARTCHAR q
ENCODING 113
SWIDTH 556 0
DWIDTH 14 0
BBX 13 17 1 -5
BITMAP
1E20
71E0
60E0
E060
C060
C060
C060
C060
E060
60E0
71E0
1F60
0060
0060
0060
0060
01F8
ENDCHAR
STARTCHAR r
ENCODING 114
SWIDTH 444 0
DWIDTH 10 0
BBX 10 12 0 0
BITMAP
F380
35C0
38C0
3000
3000
3000
3000
3000
3000
3000
3000
FC00
ENDCHAR
STARTCHAR s
ENCODING 115
SWIDTH 463 0
DWIDTH 11 0
BBX 9 12 1 0
BITMAP
3D00
6300
C300
C100
E000
7C00
1F00
0380
8180
C180
C300
BE00
ENDCHAR
STARTCHAR t
ENCODING 116
SWIDTH 389 0
DWIDTH 10 0
BBX 8 16 1 0
BITMAP
10
10
30
70
FF
30
30
30
30
30
30
30
31
31
39
1E
ENDCHAR
STARTCHAR u
ENCODING 117
SWIDTH 611 0
DWIDTH 14 0
BBX 14 12 0 0
BITMAP
F0F0
3030
3030
3030
3030
3030
3030
3030
3030
3870
1FB0
0E3C
ENDCHAR
STARTCHAR v
ENCODING 118
SWIDTH 537 0
DWIDTH 13 0
BBX 15 12 -1 0
BITMAP
FC7E
3018
3010
1830
1820
0C60
0C40
06C0
0680
0380
0300
0100
ENDCHAR
STARTCHAR w
ENCODING 119
SWIDTH 778 0
DWIDTH 17 0
BBX 19 12 -1 0
BITMAP
FCF3E0
306080
306080
30E180
18B100
18B100
19B300
0D1A00
0D1A00
0D1A00
060C00
060C00
ENDCHAR
STARTCHAR x
ENCODING 120
SWIDTH 537 0
DWIDTH 12 0
BBX 13 12 -1 0
BITMAP
7C78
3830
1C60
0CC0
0780
0700
0700
0D80
18C0
30E0
7070
F8F8
ENDCHAR
STARTCHAR y
ENCODING 121
SWIDTH 537 0
DWIDTH 12 0
BBX 13 17 -1 -5
BITMAP
7838
3010
1820
1820
1860
0C40
0C40
06C0
0680
0680
0300
0300
0200
0200
C400
EC00
7800
ENDCHAR
STARTCHAR z
ENCODING 122
SWIDTH 481 0
DWIDTH 11 0
BBX 9 12 1 0
BITMAP
FF80
C380
8700
8600
0C00
1C00
1800
3000
7080
E080
C180
FF80
ENDCHAR
STARTCHAR braceleft
ENCODING 123
SWIDTH 333 0
DWIDTH 8 0
BBX 6 21 1 -3
BITMAP
0C
10
30
30
30
30
30
30
30
20
C0
20
30
30
30
30
30
30
30
10
0C
ENDCHAR
STARTCHAR bar
ENCODING 124
SWIDTH 606 0
DWIDTH 15 0
BBX 2 18 6 0
BITMAP
C0
C0
C0
C0
C0
C0
C0
C0
C0
C0
C0
C0
C0
C0
C0
C0
C0
C0
ENDCHAR
STARTCHAR braceright
ENCODING 125
SWIDTH 333 0
DWIDTH 7 0
BBX 6 21 0 -3
BITMAP
C0
20
30
30
30
30
30
30
30
10
0C
10
30
30
30
30
30
30
30
20
C0
ENDCHAR
STARTCHAR asciitilde
ENCODING 126
SWIDTH 606 0
DWIDTH 14 0
BBX 12 4 1 6
BITMAP
3C30
7E70
E7E0
C3C0
ENDCHAR
STARTCHAR space
ENCODING 160
SWIDTH 278 0
DWIDTH 7 0
BBX 1 1 0 0
BITMAP
00
ENDCHAR
STARTCHAR exclamdown
ENCODING 161
SWIDTH 296 0
DWIDTH 7 0
BBX 3 18 2 -4
BITMAP
E0
E0
E0
00
40
40
40
C0
C0
C0
C0
C0
C0
C0
C0
C0
C0
C0
ENDCHAR
STARTCHAR cent
ENCODING 162
SWIDTH 556 0
DWIDTH 14 0
BBX 10 18 2 -3
BITMAP
0040
0040
0080
1F80
71C0
61C0
E2C0
C200
C400
C400
C800
E800
7040
70C0
3F00
2000
4000
4000
ENDCHAR
STARTCHAR sterling
ENCODING 163
SWIDTH 556 0
DWIDTH 14 0
BBX 13 18 0 0
BITMAP
03C0
0660
0C30
0C70
0C20
0C00
0600
0600
3FE0
0700
0300
0300
0300
0300
7608
8C08
8FF0
73E0
ENDCHAR
STARTCHAR currency
ENCODING 164
SWIDTH 606 0
DWIDTH 15 0
BBX 13 12 1 4
BITMAP
C718
DFD8
3060
2020
6030
6030
6030
6030
2020
3060
DFD8
C718
ENDCHAR
STARTCHAR yen
ENCODING 165
SWIDTH 704 0
DWIDTH 17 0
BBX 17 18 0 0
BITMAP
FC1F80
300600
380400
180C00
1C0800
0C1800
0E3000
063000
076000
03C000
1FFC00
018000
018000
1FFC00
018000
018000
03C000
0FF800
ENDCHAR
STARTCHAR brokenbar
ENCODING 166
SWIDTH 606 0
DWIDTH 15 0
BBX 2 18 6 0
BITMAP
C0
C0
C0
C0
C0
C0
C0
00
00
00
C0
C0
C0
C0
C0
C0
C0
C0
ENDCHAR
STARTCHAR section
ENCODING 167
SWIDTH 500 0
DWIDTH 12 0
BBX 10 22 1 -4
BITMAP
0E00
3380
6380
6180
7000
3C00
3F00
2F80
43C0
C1C0
C0C0
E0C0
F0C0
7C80
3F00
0F00
0380
0180
6180
7180
7300
1C00
ENDCHAR
STARTCHAR dieresis
ENCODING 168
SWIDTH 333 0
DWIDTH 8 0
BBX 6 2 1 14
BITMAP
CC
CC
ENDCHAR
STARTCHAR copyright
ENCODING 169
SWIDTH 737 0
DWIDTH 20 0
BBX 18 18 1 0
BITMAP
03F000
0C0C00
100200
200100
43F080
461880
8C0840
8C0040
8C0040
8C0040
8C0040
8C0840
461880
43E080
200100
100200
0C0C00
03F000
ENDCHAR
STARTCHAR ordfeminine
ENCODING 170
SWIDTH 334 0
DWIDTH 9 0
BBX 7 10 1 8
BITMAP
78
4C
04
7C
C4
CC
76
00
00
FE
ENDCHAR
STARTCHAR guillemotleft
ENCODING 171
SWIDTH 426 0
DWIDTH 12 0
BBX 10 7 1 3
BITMAP
0840
3180
6300
C600
6300
3180
0840
ENDCHAR
STARTCHAR logicalnot
ENCODING 172
SWIDTH 606 0
DWIDTH 14 0
BBX 12 7 1 3
BITMAP
FFF0
FFF0
0030
0030
0030
0030
0030
ENDCHAR
STARTCHAR hyphen
ENCODING 173
SWIDTH 333 0
DWIDTH 8 0
BBX 6 2 1 6
BITMAP
FC
FC
ENDCHAR
STARTCHAR registered
ENCODING 174
SWIDTH 737 0
DWIDTH 20 0
BBX 18 18 1 0
BITMAP
03F000
0C0C00
100200
200100
47F080
431880
830840
830840
831040
83E040
833040
831840
430C80
478E80
200100
100200
0C0C00
03F000
ENDCHAR
STARTCHAR macron
ENCODING 175
SWIDTH 333 0
DWIDTH 9 0
BBX 7 2 1 14
BITMAP
FE
FE
ENDCHAR
STARTCHAR degree
ENCODING 176
SWIDTH 400 0
DWIDTH 9 0
BBX 8 7 0 11
BITMAP
3C
66
C3
C3
C3
66
3C
ENDCHAR
STARTCHAR plusminus
ENCODING 177
SWIDTH 606 0
DWIDTH 14 0
BBX 12 11 1 2
BITMAP
0600
0600
0600
FFF0
FFF0
0600
0600
0600
0000
FFF0
FFF0
ENDCHAR
STARTCHAR twosuperior
ENCODING 178
SWIDTH 333 0
DWIDTH 8 0
BBX 7 11 0 7
BITMAP
7C
C6
C6
06
0C
18
30
60
C0
C2
FE
ENDCHAR
STARTCHAR threesuperior
ENCODING 179
SWIDTH 333 0
DWIDTH 8 0
BBX 7 11 0 7
BITMAP
7C
C6
C6
06
0C
3C
06
06
C6
C6
7C
ENDCHAR
STARTCHAR acute
ENCODING 180
SWIDTH 333 0
DWIDTH 8 0
BBX 5 4 2 14
BITMAP
18
38
60
80
ENDCHAR
STARTCHAR mu
ENCODING 181
SWIDTH 611 0
DWIDTH 14 0
BBX 14 17 0 -5
BITMAP
F0F0
3030
3030
3030
3030
3030
3030
3030
3030
3870
3FB0
2E3C
2000
2000
6000
7000
2000
ENDCHAR
STARTCHAR paragraph
ENCODING 182
SWIDTH 606 0
DWIDTH 15 0
BBX 13 22 1 -4
BITMAP
1FF8
7330
E330
E330
E330
E330
E330
E330
7330
1F30
0330
0330
0330
0330
0330
0330
0330
0330
0330
0330
0330
07F8
ENDCHAR
STARTCHAR periodcentered
ENCODING 183
SWIDTH 278 0
DWIDTH 7 0
BBX 3 3 2 6
BITMAP
E0
E0
E0
ENDCHAR
STARTCHAR cedilla
ENCODING 184
SWIDTH 333 0
DWIDTH 7 0
BBX 4 4 1 -4
BITMAP
40
70
10
E0
ENDCHAR
STARTCHAR onesuperior
ENCODING 185
SWIDTH 333 0
DWIDTH 8 0
BBX 6 11 1 7
BITMAP
10
30
F0
30
30
30
30
30
30
30
FC
ENDCHAR
STARTCHAR ordmasculine
ENCODING 186
SWIDTH 300 0
DWIDTH 9 0
BBX 7 10 1 8
BITMAP
38
44
C6
C6
C6
44
38
00
00
FE
ENDCHAR
STARTCHAR guillemotright
ENCODING 187
SWIDTH 426 0
DWIDTH 12 0
BBX 10 7 1 3
BITMAP
8400
6300
3180
18C0
3180
6300
8400
ENDCHAR
STARTCHAR onequarter
ENCODING 188
SWIDTH 834 0
DWIDTH 19 0
BBX 18 18 0 0
BITMAP
100400
300C00
F00800
301800
301000
303000
302000
306100
304300
30C700
FC8B00
019B00
011300
033300
026300
067FC0
040300
0C0780
ENDCHAR
STARTCHAR onehalf
ENCODING 189
SWIDTH 834 0
DWIDTH 19 0
BBX 18 18 0 0
BITMAP
100800
301800
F01000
303000
302000
306000
304000
30CF80
3098C0
3198C0
FD00C0
030180
020300
060600
040C00
0C1840
081FC0
181FC0
ENDCHAR
STARTCHAR threequarters
ENCODING 190
SWIDTH 834 0
DWIDTH 19 0
BBX 18 18 0 0
BITMAP
7C0400
C60C00
C60800
061800
0C1000
3C3000
062000
066100
C64300
C6C700
7C8B00
019B00
011300
033300
026300
067FC0
040300
0C0780
ENDCHAR
STARTCHAR questiondown
ENCODING 191
SWIDTH 444 0
DWIDTH 12 0
BBX 10 18 1 -4
BITMAP
0700
0700
0700
0000
0000
0600
0600
0600
0600
0C00
3800
7000
E000
C1C0
C1C0
E0C0
7180
1E00
ENDCHAR
STARTCHAR Agrave
ENCODING 192
SWIDTH 722 0
DWIDTH 19 0
BBX 19 23 0 0
BITMAP
030000
038000
00C000
002000
000000
004000
004000
00C000
00E000
01E000
013000
033000
023800
061800
041C00
0C0C00
0FFE00
180600
100700
300300
300380
600180
F807E0
ENDCHAR
STARTCHAR Aacute
ENCODING 193
SWIDTH 722 0
DWIDTH 19 0
BBX 19 23 0 0
BITMAP
001800
003800
006000
008000
000000
004000
004000
00C000
00E000
01E000
013000
033000
023800
061800
041C00
0C0C00
0FFE00
180600
100700
300300
300380
600180
F807E0
ENDCHAR
STARTCHAR Acircumflex
ENCODING 194
SWIDTH 722 0
DWIDTH 19 0
BBX 19 23 0 0
BITMAP
00C000
01E000
033000
040800
000000
004000
004000
00C000
00E000
01E000
013000
033000
023800
061800
041C00
0C0C00
0FFE00
180600
100700
300300
300380
600180
F807E0
ENDCHAR
STARTCHAR Atilde
ENCODING 195
SWIDTH 722 0
DWIDTH 19 0
BBX 19 21 0 0
BITMAP
018800
02E800
023000
000000
004000
00C000
00E000
01E000
013000
033000
023800
061800
041C00
0C0C00
0FFE00
180600
100700
300300
300380
600180
F807E0
ENDCHAR
STARTCHAR Adieresis
ENCODING 196
SWIDTH 722 0
DWIDTH 19 0
BBX 19 22 0 0
BITMAP
031800
031800
031800
000000
004000
004000
00C000
00E000
01E000
013000
033000
023800
061800
041C00
0C0C00
0FFE00
180600
100700
300300
300380
600180
F807E0
ENDCHAR
STARTCHAR Aring
ENCODING 197
SWIDTH 722 0
DWIDTH 19 0
BBX 19 23 0 0
BITMAP
01C000
022000
022000
022000
01C000
000000
004000
00C000
00E000
01E000
013000
033000
023800
061800
041C00
0C0C00
0FFE00
180600
100700
300300
300380
600180
F807E0
ENDCHAR
STARTCHAR AE
ENCODING 198
SWIDTH 1000 0
DWIDTH 25 0
BBX 24 18 0 0
BITMAP
01FFFF
003607
006603
004601
00C601
008611
018610
010630
0307F0
020630
07FE10
040610
0C0601
080601
180601
100603
380E07
FE3FFF
ENDCHAR
STARTCHAR Ccedilla
ENCODING 199
SWIDTH 722 0
DWIDTH 17 0
BBX 15 22 1 -4
BITMAP
07F2
1E1E
3806
7002
6002
E002
C000
C000
C000
C000
C000
C000
E000
6002
7002
3806
1C1C
07F0
0100
01C0
0040
0780
ENDCHAR
STARTCHAR Egrave
ENCODING 200
SWIDTH 722 0
DWIDTH 16 0
BBX 14 23 1 0
BITMAP
0600
0700
0180
0040
0000
FFFC
381C
180C
1804
1804
1820
1820
1860
1FE0
1860
1820
1820
1800
1804
1804
180C
381C
FFFC
ENDCHAR
STARTCHAR Eacute
ENCODING 201
SWIDTH 722 0
DWIDTH 16 0
BBX 14 23 1 0
BITMAP
0030
0070
00C0
0100
0000
FFFC
381C
180C
1804
1804
1820
1820
1860
1FE0
1860
1820
1820
1800
1804
1804
180C
381C
FFFC
ENDCHAR
STARTCHAR Ecircumflex
ENCODING 202
SWIDTH 722 0
DWIDTH 16 0
BBX 14 23 1 0
BITMAP
0180
03C0
0660
0810
0000
FFFC
381C
180C
1804
1804
1820
1820
1860
1FE0
1860
1820
1820
1800
1804
1804
180C
381C
FFFC
ENDCHAR
STARTCHAR Edieresis
ENCODING 203
SWIDTH 722 0
DWIDTH 16 0
BBX 14 22 1 0
BITMAP
0C60
0C60
0C60
0000
FFFC
381C
180C
1804
1804
1820
1820
1860
1FE0
1860
1820
1820
1800
1804
1804
180C
381C
FFFC
ENDCHAR
STARTCHAR Igrave
ENCODING 204
SWIDTH 407 0
DWIDTH 9 0
BBX 8 23 1 0
BITMAP
60
70
18
04
00
FF
3C
18
18
18
18
18
18
18
18
18
18
18
18
18
18
3C
FF
ENDCHAR
STARTCHAR Iacute
ENCODING 205
SWIDTH 407 0
DWIDTH 9 0
BBX 8 23 1 0
BITMAP
03
07
0C
10
00
FF
3C
18
18
18
18
18
18
18
18
18
18
18
18
18
18
3C
FF
ENDCHAR
STARTCHAR Icircumflex
ENCODING 206
SWIDTH 407 0
DWIDTH 9 0
BBX 8 23 1 0
BITMAP
18
3C
66
81
00
FF
3C
18
18
18
18
18
18
18
18
18
18
18
18
18
18
3C
FF
ENDCHAR
STARTCHAR Idieresis
ENCODING 207
SWIDTH 407 0
DWIDTH 9 0
BBX 8 22 1 0
BITMAP
C3
C3
C3
00
FF
3C
18
18
18
18
18
18
18
18
18
18
18
18
18
18
3C
FF
ENDCHAR
STARTCHAR Eth
ENCODING 208
SWIDTH 778 0
DWIDTH 20 0
BBX 17 18 1 0
BITMAP
FFF000
381C00
180600
180700
180300
180380
180180
180180
FF0180
180180
180180
180180
180380
180300
180700
180600
381C00
FFF000
ENDCHAR
STARTCHAR Ntilde
ENCODING 209
SWIDTH 815 0
DWIDTH 21 0
BBX 19 22 1 0
BITMAP
018800
02E800
023000
000000
F80FE0
3C0380
1C0100
160100
170100
138100
118100
10C100
10E100
107100
103100
103900
101D00
100F00
100700
100300
380300
FE0100
ENDCHAR
STARTCHAR Ograve
ENCODING 210
SWIDTH 778 0
DWIDTH 19 0
BBX 17 23 1 0
BITMAP
030000
038000
00C000
002000
000000
07F000
1C1C00
300600
700700
600300
E00380
C00180
C00180
C00180
C00180
C00180
C00180
E00380
600300
700700
300600
1C1C00
07F000
ENDCHAR
STARTCHAR Oacute
ENCODING 211
SWIDTH 778 0
DWIDTH 19 0
BBX 17 23 1 0
BITMAP
001800
003800
006000
008000
000000
07F000
1C1C00
300600
700700
600300
E00380
C00180
C00180
C00180
C00180
C00180
C00180
E00380
600300
700700
300600
1C1C00
07F000
ENDCHAR
STARTCHAR Ocircumflex
ENCODING 212
SWIDTH 778 0
DWIDTH 19 0
BBX 17 23 1 0
BITMAP
00C000
01E000
033000
040800
000000
07F000
1C1C00
300600
700700
600300
E00380
C00180
C00180
C00180
C00180
C00180
C00180
E00380
600300
700700
300600
1C1C00
07F000
ENDCHAR
STARTCHAR Otilde
ENCODING 213
SWIDTH 778 0
DWIDTH 19 0
BBX 17 22 1 0
BITMAP
031000
05D000
046000
000000
07F000
1C1C00
300600
700700
600300
E00380
C00180
C00180
C00180
C00180
C00180
C00180
E00380
600300
700700
300600
1C1C00
07F000
ENDCHAR
STARTCHAR Odieresis
ENCODING 214
SWIDTH 778 0
DWIDTH 19 0
BBX 17 22 1 0
BITMAP
063000
063000
063000
000000
07F000
1C1C00
300600
700700
600300
E00380
C00180
C00180
C00180
C00180
C00180
C00180
E00380
600300
700700
300600
1C1C00
07F000
ENDCHAR
STARTCHAR multiply
ENCODING 215
SWIDTH 606 0
DWIDTH 14 0
BBX 13 12 1 1
BITMAP
C018
6030
3060
18C0
0D80
0700
0700
0D80
18C0
3060
6030
C018
ENDCHAR
STARTCHAR Oslash
ENCODING 216
SWIDTH 778 0
DWIDTH 19 0
BBX 17 20 1 -1
BITMAP
000200
07F600
1C1C00
300E00
701F00
603300
E06380
C04180
C0C180
C18180
C30180
C20180
C60180
EC0380
780300
700700
300600
7C1C00
C7F000
800000
ENDCHAR
STARTCHAR Ugrave
ENCODING 217
SWIDTH 815 0
DWIDTH 19 0
BBX 18 23 1 0
BITMAP
030000
038000
00C000
002000
000000
FE1FC0
780700
300200
300200
300200
300200
300200
300200
300200
300200
300200
300200
300200
300200
300600
180400
1C1C00
07F000
ENDCHAR
STARTCHAR Uacute
ENCODING 218
SWIDTH 815 0
DWIDTH 19 0
BBX 18 23 1 0
BITMAP
000C00
001C00
003000
004000
000000
FE1FC0
780700
300200
300200
300200
300200
300200
300200
300200
300200
300200
300200
300200
300200
300600
180400
1C1C00
07F000
ENDCHAR
STARTCHAR Ucircumflex
ENCODING 219
SWIDTH 815 0
DWIDTH 19 0
BBX 18 23 1 0
BITMAP
00C000
01E000
033000
040800
000000
FE1FC0
780700
300200
300200
300200
300200
300200
300200
300200
300200
300200
300200
300200
300200
300600
180400
1C1C00
07F000
ENDCHAR
STARTCHAR Udieresis
ENCODING 220
SWIDTH 815 0
DWIDTH 19 0
BBX 18 22 1 0
BITMAP
061800
061800
061800
000000
FE1FC0
780700
300200
300200
300200
300200
300200
300200
300200
300200
300200
300200
300200
300200
300600
180400
1C1C00
07F000
ENDCHAR
STARTCHAR Yacute
ENCODING 221
SWIDTH 704 0
DWIDTH 17 0
BBX 19 23 -1 0
BITMAP
000600
000E00
001800
002000
000000
FE0FE0
3C0380
1C0300
0C0600
0E0400
070C00
030800
019800
01F000
00F000
006000
006000
006000
006000
006000
006000
00F000
03FC00
ENDCHAR
STARTCHAR Thorn
ENCODING 222
SWIDTH 667 0
DWIDTH 16 0
BBX 14 18 1 0
BITMAP
FF00
3C00
1800
1800
1FE0
1838
181C
180C
180C
180C
181C
1818
1830
1FC0
1800
1800
3C00
FF00
ENDCHAR
STARTCHAR germandbls
ENCODING 223
SWIDTH 574 0
DWIDTH 14 0
BBX 12 18 1 0
BITMAP
0F80
18C0
3060
3060
3060
3060
30C0
33C0
3060
3030
3030
3030
3030
3030
3630
3630
3660
F3C0
ENDCHAR
STARTCHAR agrave
ENCODING 224
SWIDTH 556 0
DWIDTH 13 0
BBX 12 18 1 0
BITMAP
1800
1C00
0600
0100
0000
0000
1F00
7180
70C0
60C0
00C0
07C0
38C0
60C0
C0C0
C0C0
E1F0
7E60
ENDCHAR
STARTCHAR aacute
ENCODING 225
SWIDTH 556 0
DWIDTH 13 0
BBX 12 18 1 0
BITMAP
0180
0380
0600
0800
0000
0000
1F00
7180
70C0
60C0
00C0
07C0
38C0
60C0
C0C0
C0C0
E1F0
7E60
ENDCHAR
STARTCHAR acircumflex
ENCODING 226
SWIDTH 556 0
DWIDTH 13 0
BBX 12 18 1 0
BITMAP
0600
0F00
1980
2040
0000
0000
1F00
7180
70C0
60C0
00C0
07C0
38C0
60C0
C0C0
C0C0
E1F0
7E60
ENDCHAR
STARTCHAR atilde
ENCODING 227
SWIDTH 556 0
DWIDTH 13 0
BBX 12 16 1 0
BITMAP
1C40
2380
0000
0000
1F00
7180
70C0
60C0
00C0
07C0
38C0
60C0
C0C0
C0C0
E1F0
7E60
ENDCHAR
STARTCHAR adieresis
ENCODING 228
SWIDTH 556 0
DWIDTH 13 0
BBX 12 16 1 0
BITMAP
1980
1980
0000
0000
1F00
7180
70C0
60C0
00C0
07C0
38C0
60C0
C0C0
C0C0
E1F0
7E60
ENDCHAR
STARTCHAR aring
ENCODING 229
SWIDTH 556 0
DWIDTH 13 0
BBX 12 19 1 0
BITMAP
0E00
1100
1100
1100
0E00
0000
0000
1F00
7180
70C0
60C0
00C0
07C0
38C0
60C0
C0C0
C0C0
E1F0
7E60
ENDCHAR
STARTCHAR ae
ENCODING 230
SWIDTH 796 0
DWIDTH 21 0
BBX 19 12 1 0
BITMAP
1F1F00
71F1C0
60E0C0
00E0E0
00C060
07FFE0
38C000
60C000
C0E000
C0E040
E370C0
7C1F80
ENDCHAR
STARTCHAR ccedilla
ENCODING 231
SWIDTH 444 0
DWIDTH 12 0
BBX 10 16 1 -4
BITMAP
1F00
71C0
61C0
E0C0
C000
C000
C000
C000
E000
6040
70C0
1F80
0800
0E00
0200
1C00
ENDCHAR
STARTCHAR egrave
ENCODING 232
SWIDTH 500 0
DWIDTH 13 0
BBX 11 18 1 0
BITMAP
1800
1C00
0600
0100
0000
0000
1F00
71C0
60C0
E0E0
C060
FFE0
C000
C000
E000
6040
70C0
1F80
ENDCHAR
STARTCHAR eacute
ENCODING 233
SWIDTH 500 0
DWIDTH 13 0
BBX 11 18 1 0
BITMAP
0180
0380
0600
0800
0000
0000
1F00
71C0
60C0
E0E0
C060
FFE0
C000
C000
E000
6040
70C0
1F80
ENDCHAR
STARTCHAR ecircumflex
ENCODING 234
SWIDTH 500 0
DWIDTH 13 0
BBX 11 18 1 0
BITMAP
0600
0F00
1980
2040
0000
0000
1F00
71C0
60C0
E0E0
C060
FFE0
C000
C000
E000
6040
70C0
1F80
ENDCHAR
STARTCHAR edieresis
ENCODING 235
SWIDTH 500 0
DWIDTH 13 0
BBX 11 16 1 0
BITMAP
3180
3180
0000
0000
1F00
71C0
60C0
E0E0
C060
FFE0
C000
C000
E000
6040
70C0
1F80
ENDCHAR
STARTCHAR igrave
ENCODING 236
SWIDTH 315 0
DWIDTH 8 0
BBX 7 18 0 0
BITMAP
C0
E0
30
08
00
00
78
18
18
18
18
18
18
18
18
18
18
7E
ENDCHAR
STARTCHAR iacute
ENCODING 237
SWIDTH 315 0
DWIDTH 8 0
BBX 6 18 1 0
BITMAP
0C
1C
30
40
00
00
F0
30
30
30
30
30
30
30
30
30
30
FC
ENDCHAR
STARTCHAR icircumflex
ENCODING 238
SWIDTH 315 0
DWIDTH 8 0
BBX 8 18 0 0
BITMAP
18
3C
66
81
00
00
78
18
18
18
18
18
18
18
18
18
18
7E
ENDCHAR
STARTCHAR idieresis
ENCODING 239
SWIDTH 315 0
DWIDTH 8 0
BBX 6 16 1 0
BITMAP
CC
CC
00
00
F0
30
30
30
30
30
30
30
30
30
30
FC
ENDCHAR
STARTCHAR eth
ENCODING 240
SWIDTH 500 0
DWIDTH 13 0
BBX 11 18 1 0
BITMAP
6000
18C0
0F00
1E00
6300
0180
1F80
71C0
60C0
E0E0
C060
C060
C060
C060
E0E0
60C0
71C0
1F00
ENDCHAR
STARTCHAR ntilde
ENCODING 241
SWIDTH 611 0
DWIDTH 14 0
BBX 14 16 0 0
BITMAP
0E20
11C0
0000
0000
F1C0
37E0
3870
3030
3030
3030
3030
3030
3030
3030
3030
FCFC
ENDCHAR
STARTCHAR ograve
ENCODING 242
SWIDTH 500 0
DWIDTH 13 0
BBX 11 18 1 0
BITMAP
3000
3800
0C00
0200
0000
0000
1F00
71C0
60C0
E0E0
C060
C060
C060
C060
E0E0
60C0
71C0
1F00
ENDCHAR
STARTCHAR oacute
ENCODING 243
SWIDTH 500 0
DWIDTH 13 0
BBX 11 18 1 0
BITMAP
0180
0380
0600
0800
0000
0000
1F00
71C0
60C0
E0E0
C060
C060
C060
C060
E0E0
60C0
71C0
1F00
ENDCHAR
STARTCHAR ocircumflex
ENCODING 244
SWIDTH 500 0
DWIDTH 13 0
BBX 11 18 1 0
BITMAP
0600
0F00
1980
2040
0000
0000
1F00
71C0
60C0
E0E0
C060
C060
C060
C060
E0E0
60C0
71C0
1F00
ENDCHAR
STARTCHAR otilde
ENCODING 245
SWIDTH 500 0
DWIDTH 13 0
BBX 11 16 1 0
BITMAP
1C40
2380
0000
0000
1F00
71C0
60C0
E0E0
C060
C060
C060
C060
E0E0
60C0
71C0
1F00
ENDCHAR
STARTCHAR odieresis
ENCODING 246
SWIDTH 500 0
DWIDTH 13 0
BBX 11 16 1 0
BITMAP
3180
3180
0000
0000
1F00
71C0
60C0
E0E0
C060
C060
C060
C060
E0E0
60C0
71C0
1F00
ENDCHAR
STARTCHAR divide
ENCODING 247
SWIDTH 606 0
DWIDTH 14 0
BBX 12 10 1 2
BITMAP
0600
0600
0000
0000
FFF0
FFF0
0000
0000
0600
0600
ENDCHAR
STARTCHAR oslash
ENCODING 248
SWIDTH 500 0
DWIDTH 13 0
BBX 11 14 1 -1
BITMAP
0080
1F80
71C0
62C0
E2E0
C460
C460
C460
C860
E8E0
68C0
71C0
3F00
2000
ENDCHAR
STARTCHAR ugrave
ENCODING 249
SWIDTH 611 0
DWIDTH 14 0
BBX 14 18 0 0
BITMAP
0C00
0E00
0300
0080
0000
0000
F0F0
3030
3030
3030
3030
3030
3030
3030
3030
3870
1FB0
0E3C
ENDCHAR
STARTCHAR uacute
ENCODING 250
SWIDTH 611 0
DWIDTH 14 0
BBX 14 18 0 0
BITMAP
00C0
01C0
0300
0400
0000
0000
F0F0
3030
3030
3030
3030
3030
3030
3030
3030
3870
1FB0
0E3C
ENDCHAR
STARTCHAR ucircumflex
ENCODING 251
SWIDTH 611 0
DWIDTH 14 0
BBX 14 18 0 0
BITMAP
0300
0780
0CC0
1020
0000
0000
F0F0
3030
3030
3030
3030
3030
3030
3030
3030
3870
1FB0
0E3C
ENDCHAR
STARTCHAR udieresis
ENCODING 252
SWIDTH 611 0
DWIDTH 14 0
BBX 14 16 0 0
BITMAP
0CC0
0CC0
0000
0000
F0F0
3030
3030
3030
3030
3030
3030
3030
3030
3870
1FB0
0E3C
ENDCHAR
STARTCHAR yacute
ENCODING 253
SWIDTH 537 0
DWIDTH 12 0
BBX 13 23 -1 -5
BITMAP
0060
00E0
0180
0200
0000
0000
7838
3010
1820
1820
1820
0C40
0C40
0680
0680
0680
0300
0300
0200
0200
C400
EC00
7800
ENDCHAR
STARTCHAR thorn
ENCODING 254
SWIDTH 574 0
DWIDTH 14 0
BBX 13 23 0 -5
BITMAP
F000
3000
3000
3000
3000
3000
37C0
3C70
3830
3038
3018
3018
3018
3018
3038
3830
3C70
37C0
3000
3000
3000
3000
FC00
ENDCHAR
STARTCHAR ydieresis
ENCODING 255
SWIDTH 537 0
DWIDTH 12 0
BBX 13 21 -1 -5
BITMAP
0C60
0C60
0000
0000
7838
3010
1820
1820
1820
0C40
0C40
0680
0680
0680
0300
0300
0200
0200
C400
EC00
7800
ENDCHAR
ENDFONT
