STARTFONT 2.1
COMMENT AUTOMATICALLY GENERATED FILE. DO NOT EDIT!
COMMENT Generated with 'ucs2any.pl UTBI__12.bdf ../../../fonts/util/map-ISO8859-1 ISO8859-1'
COMMENT from an ISO10646-1 encoded source BDF font.
COMMENT ucs2any.pl by Markus Kuhn <mkuhn@acm.org>, 2000.
FONT -Adobe-Utopia-Bold-I-Normal--12-120-75-75-P-70-ISO8859-1
SIZE 12 75 75
FONTBOUNDINGBOX 16 13 -3 -3
COMMENT $Xorg: $
COMMENT ISO10646-1 extension by Markus Kuhn <mkuhn@acm.org>, 2001-03-20
STARTPROPERTIES 28
FOUNDRY "Adobe"
FAMILY_NAME "Utopia"
WEIGHT_NAME "Bold"
SLANT "I"
SETWIDTH_NAME "Normal"
ADD_STYLE_NAME ""
PIXEL_SIZE 12
POINT_SIZE 120
RESOLUTION_X 75
RESOLUTION_Y 75
SPACING "P"
AVERAGE_WIDTH 70
CHARSET_REGISTRY "ISO8859"
CHARSET_ENCODING "1"
CAP_HEIGHT 9
X_HEIGHT 6
RELATIVE_SETWIDTH 50
RELATIVE_WEIGHT 70
WEIGHT 208
FACE_NAME "Utopia Bold Italic"
COPYRIGHT "Copyright (c) 1989, 1991 Adobe Systems Incorporated.  All rights reserved."
NOTICE "Utopia is a registered trademark of Adobe Systems Incorporated."
DESTINATION 0
FONT_ASCENT 10
FONT_DESCENT 3
DEFAULT_CHAR 0
_ADOBE_PSFONT "Utopia-BoldItalic"
_DEC_DEVICE_FONTNAMES "PS=Utopia-BoldItalic"
ENDPROPERTIES
CHARS 192
STARTCHAR defaultchar
ENCODING 0
SWIDTH 800 0
DWIDTH 10 0
BBX 9 9 0 0
BITMAP
AA80
0000
8080
0000
8080
0000
8080
0000
AA80
ENDCHAR
STARTCHAR space
ENCODING 32
SWIDTH 210 0
DWIDTH 3 0
BBX 0 0 0 0
BITMAP
ENDCHAR
STARTCHAR exclam
ENCODING 33
SWIDTH 285 0
DWIDTH 4 0
BBX 4 9 0 0
BITMAP
30
30
70
60
60
40
00
C0
C0
ENDCHAR
STARTCHAR quotedbl
ENCODING 34
SWIDTH 455 0
DWIDTH 6 0
BBX 5 4 1 5
BITMAP
D8
D8
90
90
ENDCHAR
STARTCHAR numbersign
ENCODING 35
SWIDTH 560 0
DWIDTH 7 0
BBX 7 9 0 0
BITMAP
14
14
7E
28
28
28
FC
50
50
ENDCHAR
STARTCHAR dollar
ENCODING 36
SWIDTH 560 0
DWIDTH 7 0
BBX 7 11 0 -1
BITMAP
08
3E
6A
68
78
38
3C
2C
AC
F8
20
ENDCHAR
STARTCHAR percent
ENCODING 37
SWIDTH 896 0
DWIDTH 11 0
BBX 10 9 1 0
BITMAP
7100
DF00
9200
B400
EDC0
0B40
1240
32C0
2380
ENDCHAR
STARTCHAR ampersand
ENCODING 38
SWIDTH 752 0
DWIDTH 10 0
BBX 10 9 0 0
BITMAP
1E00
3300
3200
1CC0
38C0
6C80
C700
C700
7980
ENDCHAR
STARTCHAR quotesingle
ENCODING 39
SWIDTH 246 0
DWIDTH 3 0
BBX 2 4 1 5
BITMAP
C0
C0
80
80
ENDCHAR
STARTCHAR parenleft
ENCODING 40
SWIDTH 350 0
DWIDTH 4 0
BBX 5 11 0 -2
BITMAP
18
30
60
60
C0
C0
C0
C0
C0
60
20
ENDCHAR
STARTCHAR parenright
ENCODING 41
SWIDTH 350 0
DWIDTH 5 0
BBX 5 11 -1 -2
BITMAP
20
30
18
18
18
18
18
30
30
60
C0
ENDCHAR
STARTCHAR asterisk
ENCODING 42
SWIDTH 500 0
DWIDTH 6 0
BBX 6 6 0 3
BITMAP
10
54
38
70
A8
20
ENDCHAR
STARTCHAR plus
ENCODING 43
SWIDTH 600 0
DWIDTH 7 0
BBX 6 5 0 1
BITMAP
30
30
FC
30
30
ENDCHAR
STARTCHAR comma
ENCODING 44
SWIDTH 280 0
DWIDTH 3 0
BBX 3 4 -1 -2
BITMAP
60
60
40
80
ENDCHAR
STARTCHAR hyphen
ENCODING 45
SWIDTH 392 0
DWIDTH 5 0
BBX 3 1 1 3
BITMAP
E0
ENDCHAR
STARTCHAR period
ENCODING 46
SWIDTH 280 0
DWIDTH 3 0
BBX 2 2 0 0
BITMAP
C0
C0
ENDCHAR
STARTCHAR slash
ENCODING 47
SWIDTH 260 0
DWIDTH 5 0
BBX 4 9 0 0
BITMAP
30
30
30
60
60
60
C0
C0
C0
ENDCHAR
STARTCHAR zero
ENCODING 48
SWIDTH 560 0
DWIDTH 7 0
BBX 7 9 0 0
BITMAP
3C
66
66
E6
C6
CE
CC
CC
78
ENDCHAR
STARTCHAR one
ENCODING 49
SWIDTH 560 0
DWIDTH 7 0
BBX 4 9 1 0
BITMAP
30
70
30
30
70
60
60
60
F0
ENDCHAR
STARTCHAR two
ENCODING 50
SWIDTH 560 0
DWIDTH 7 0
BBX 7 9 0 0
BITMAP
3C
66
66
0C
18
30
62
FC
FC
ENDCHAR
STARTCHAR three
ENCODING 51
SWIDTH 560 0
DWIDTH 7 0
BBX 7 9 0 0
BITMAP
3C
66
66
0C
38
0C
CC
CC
78
ENDCHAR
STARTCHAR four
ENCODING 52
SWIDTH 560 0
DWIDTH 7 0
BBX 7 9 0 0
BITMAP
18
18
30
2C
6C
CC
FE
18
3C
ENDCHAR
STARTCHAR five
ENCODING 53
SWIDTH 560 0
DWIDTH 7 0
BBX 7 9 0 0
BITMAP
3E
3E
60
78
4C
0C
CC
CC
78
ENDCHAR
STARTCHAR six
ENCODING 54
SWIDTH 560 0
DWIDTH 7 0
BBX 7 9 0 0
BITMAP
3C
66
60
60
F8
CC
CC
CC
78
ENDCHAR
STARTCHAR seven
ENCODING 55
SWIDTH 560 0
DWIDTH 7 0
BBX 6 9 1 0
BITMAP
FC
FC
88
10
30
30
60
60
60
ENDCHAR
STARTCHAR eight
ENCODING 56
SWIDTH 560 0
DWIDTH 7 0
BBX 7 9 0 0
BITMAP
3C
66
66
76
38
DC
CC
CC
78
ENDCHAR
STARTCHAR nine
ENCODING 57
SWIDTH 560 0
DWIDTH 7 0
BBX 7 9 0 0
BITMAP
3C
66
66
66
3E
0C
0C
CC
78
ENDCHAR
STARTCHAR colon
ENCODING 58
SWIDTH 280 0
DWIDTH 3 0
BBX 3 6 0 0
BITMAP
60
60
00
00
C0
C0
ENDCHAR
STARTCHAR semicolon
ENCODING 59
SWIDTH 280 0
DWIDTH 3 0
BBX 4 8 -1 -2
BITMAP
30
30
00
00
60
60
40
80
ENDCHAR
STARTCHAR less
ENCODING 60
SWIDTH 600 0
DWIDTH 7 0
BBX 6 5 0 1
BITMAP
0C
30
C0
30
0C
ENDCHAR
STARTCHAR equal
ENCODING 61
SWIDTH 600 0
DWIDTH 7 0
BBX 6 3 0 2
BITMAP
FC
00
FC
ENDCHAR
STARTCHAR greater
ENCODING 62
SWIDTH 600 0
DWIDTH 7 0
BBX 6 5 0 1
BITMAP
C0
30
0C
30
C0
ENDCHAR
STARTCHAR question
ENCODING 63
SWIDTH 454 0
DWIDTH 6 0
BBX 5 9 0 0
BITMAP
70
D8
18
70
C0
E0
00
C0
C0
ENDCHAR
STARTCHAR at
ENCODING 64
SWIDTH 828 0
DWIDTH 11 0
BBX 10 9 0 0
BITMAP
1F00
2080
4F40
9B40
B640
AE80
B700
4000
3F00
ENDCHAR
STARTCHAR A
ENCODING 65
SWIDTH 634 0
DWIDTH 8 0
BBX 9 9 -1 0
BITMAP
0600
0E00
0E00
1600
1300
3F00
2300
4300
E780
ENDCHAR
STARTCHAR B
ENCODING 66
SWIDTH 680 0
DWIDTH 9 0
BBX 8 9 0 0
BITMAP
7E
33
33
36
7E
63
63
67
FE
ENDCHAR
STARTCHAR C
ENCODING 67
SWIDTH 672 0
DWIDTH 8 0
BBX 8 9 0 0
BITMAP
1F
73
61
E0
E0
C0
C2
C6
7C
ENDCHAR
STARTCHAR D
ENCODING 68
SWIDTH 774 0
DWIDTH 10 0
BBX 9 9 0 0
BITMAP
7F00
3180
3180
3180
7380
6380
6300
6700
FC00
ENDCHAR
STARTCHAR E
ENCODING 69
SWIDTH 622 0
DWIDTH 8 0
BBX 8 9 0 0
BITMAP
7F
33
31
34
7C
64
62
66
FE
ENDCHAR
STARTCHAR F
ENCODING 70
SWIDTH 585 0
DWIDTH 7 0
BBX 8 9 0 0
BITMAP
7F
33
31
34
7C
64
60
60
F0
ENDCHAR
STARTCHAR G
ENCODING 71
SWIDTH 726 0
DWIDTH 9 0
BBX 8 9 1 0
BITMAP
1F
73
61
E0
E0
CF
C6
C6
7C
ENDCHAR
STARTCHAR H
ENCODING 72
SWIDTH 800 0
DWIDTH 10 0
BBX 10 9 0 0
BITMAP
7BC0
3180
3180
3180
7F80
6300
6300
6300
F780
ENDCHAR
STARTCHAR I
ENCODING 73
SWIDTH 386 0
DWIDTH 5 0
BBX 5 9 0 0
BITMAP
78
30
30
30
70
60
60
60
F0
ENDCHAR
STARTCHAR J
ENCODING 74
SWIDTH 388 0
DWIDTH 5 0
BBX 6 11 -1 -2
BITMAP
3C
18
18
18
38
30
30
30
30
60
C0
ENDCHAR
STARTCHAR K
ENCODING 75
SWIDTH 688 0
DWIDTH 9 0
BBX 9 9 0 0
BITMAP
7B80
3300
3200
3400
7C00
6E00
6600
6700
F380
ENDCHAR
STARTCHAR L
ENCODING 76
SWIDTH 586 0
DWIDTH 7 0
BBX 7 9 0 0
BITMAP
78
30
30
30
70
60
60
62
FE
ENDCHAR
STARTCHAR M
ENCODING 77
SWIDTH 921 0
DWIDTH 12 0
BBX 12 9 0 0
BITMAP
7070
30E0
38E0
3960
7EE0
5EC0
4CC0
4CC0
E9E0
ENDCHAR
STARTCHAR N
ENCODING 78
SWIDTH 741 0
DWIDTH 9 0
BBX 10 9 -1 0
BITMAP
71C0
3880
3880
2C80
6D00
4700
4700
4300
E300
ENDCHAR
STARTCHAR O
ENCODING 79
SWIDTH 761 0
DWIDTH 10 0
BBX 8 9 1 0
BITMAP
1E
73
63
E3
E7
C7
C6
CE
78
ENDCHAR
STARTCHAR P
ENCODING 80
SWIDTH 660 0
DWIDTH 8 0
BBX 8 9 0 0
BITMAP
7E
33
33
33
76
7C
60
60
F0
ENDCHAR
STARTCHAR Q
ENCODING 81
SWIDTH 761 0
DWIDTH 10 0
BBX 8 12 1 -3
BITMAP
1E
73
63
E3
E7
C7
C6
CE
78
30
38
1E
ENDCHAR
STARTCHAR R
ENCODING 82
SWIDTH 681 0
DWIDTH 9 0
BBX 9 9 0 0
BITMAP
7E00
3300
3300
3600
7E00
6600
6700
6300
F380
ENDCHAR
STARTCHAR S
ENCODING 83
SWIDTH 551 0
DWIDTH 7 0
BBX 7 9 0 0
BITMAP
3E
66
62
70
38
1C
8C
CC
F8
ENDCHAR
STARTCHAR T
ENCODING 84
SWIDTH 616 0
DWIDTH 8 0
BBX 8 9 0 0
BITMAP
FF
DB
99
18
38
30
30
30
78
ENDCHAR
STARTCHAR U
ENCODING 85
SWIDTH 776 0
DWIDTH 10 0
BBX 9 9 1 0
BITMAP
F780
6300
6300
6300
E700
C600
C600
CE00
7C00
ENDCHAR
STARTCHAR V
ENCODING 86
SWIDTH 630 0
DWIDTH 8 0
BBX 8 9 0 0
BITMAP
F7
62
62
64
74
38
38
30
30
ENDCHAR
STARTCHAR W
ENCODING 87
SWIDTH 920 0
DWIDTH 12 0
BBX 13 9 0 0
BITMAP
F338
6310
6720
6720
6B40
6B40
7380
7380
6300
ENDCHAR
STARTCHAR X
ENCODING 88
SWIDTH 630 0
DWIDTH 8 0
BBX 8 9 0 0
BITMAP
7B
32
34
38
18
1C
2C
4C
DE
ENDCHAR
STARTCHAR Y
ENCODING 89
SWIDTH 622 0
DWIDTH 8 0
BBX 8 9 1 0
BITMAP
F7
66
64
68
30
70
60
60
F0
ENDCHAR
STARTCHAR Z
ENCODING 90
SWIDTH 618 0
DWIDTH 8 0
BBX 8 9 0 0
BITMAP
7F
4E
0C
18
38
30
60
E2
FE
ENDCHAR
STARTCHAR bracketleft
ENCODING 91
SWIDTH 350 0
DWIDTH 4 0
BBX 5 11 0 -2
BITMAP
38
30
30
60
60
60
60
C0
C0
C0
E0
ENDCHAR
STARTCHAR backslash
ENCODING 92
SWIDTH 460 0
DWIDTH 6 0
BBX 4 9 1 0
BITMAP
C0
C0
C0
60
60
60
30
30
30
ENDCHAR
STARTCHAR bracketright
ENCODING 93
SWIDTH 350 0
DWIDTH 4 0
BBX 5 11 -1 -2
BITMAP
38
18
18
30
30
30
30
60
60
60
E0
ENDCHAR
STARTCHAR asciicircum
ENCODING 94
SWIDTH 600 0
DWIDTH 7 0
BBX 5 6 1 3
BITMAP
20
20
50
50
88
88
ENDCHAR
STARTCHAR underscore
ENCODING 95
SWIDTH 500 0
DWIDTH 6 0
BBX 6 1 0 -2
BITMAP
FC
ENDCHAR
STARTCHAR grave
ENCODING 96
SWIDTH 400 0
DWIDTH 5 0
BBX 3 2 1 7
BITMAP
C0
60
ENDCHAR
STARTCHAR a
ENCODING 97
SWIDTH 596 0
DWIDTH 7 0
BBX 7 6 0 0
BITMAP
3C
6C
CC
D8
DA
6C
ENDCHAR
STARTCHAR b
ENCODING 98
SWIDTH 586 0
DWIDTH 7 0
BBX 7 10 0 0
BITMAP
70
30
70
60
6C
76
E6
CE
EC
D8
ENDCHAR
STARTCHAR c
ENCODING 99
SWIDTH 456 0
DWIDTH 6 0
BBX 6 6 0 0
BITMAP
38
6C
E0
C0
C8
70
ENDCHAR
STARTCHAR d
ENCODING 100
SWIDTH 609 0
DWIDTH 8 0
BBX 8 10 0 0
BITMAP
07
03
07
06
3E
66
EE
CC
DD
6E
ENDCHAR
STARTCHAR e
ENCODING 101
SWIDTH 476 0
DWIDTH 6 0
BBX 6 6 0 0
BITMAP
38
6C
F8
C0
C8
70
ENDCHAR
STARTCHAR f
ENCODING 102
SWIDTH 348 0
DWIDTH 4 0
BBX 8 13 -2 -3
BITMAP
07
0D
0C
0C
3E
18
18
18
38
30
30
B0
E0
ENDCHAR
STARTCHAR g
ENCODING 103
SWIDTH 522 0
DWIDTH 7 0
BBX 8 9 -1 -3
BITMAP
1F
36
36
3C
18
3C
6E
C6
7C
ENDCHAR
STARTCHAR h
ENCODING 104
SWIDTH 629 0
DWIDTH 8 0
BBX 8 10 0 0
BITMAP
70
30
30
70
6C
76
66
EE
CD
CE
ENDCHAR
STARTCHAR i
ENCODING 105
SWIDTH 339 0
DWIDTH 4 0
BBX 4 9 0 0
BITMAP
30
30
00
E0
60
60
E0
D0
E0
ENDCHAR
STARTCHAR j
ENCODING 106
SWIDTH 333 0
DWIDTH 4 0
BBX 7 12 -3 -3
BITMAP
06
06
00
1C
0C
1C
18
18
18
30
B0
E0
ENDCHAR
STARTCHAR k
ENCODING 107
SWIDTH 570 0
DWIDTH 7 0
BBX 7 10 0 0
BITMAP
70
30
70
60
64
6C
F0
F8
DE
CC
ENDCHAR
STARTCHAR l
ENCODING 108
SWIDTH 327 0
DWIDTH 4 0
BBX 4 10 0 0
BITMAP
70
30
70
60
60
60
E0
C0
D0
E0
ENDCHAR
STARTCHAR m
ENCODING 109
SWIDTH 914 0
DWIDTH 12 0
BBX 12 6 0 0
BITMAP
ECC0
7760
6660
EEE0
CCD0
CCE0
ENDCHAR
STARTCHAR n
ENCODING 110
SWIDTH 635 0
DWIDTH 8 0
BBX 8 6 0 0
BITMAP
EC
76
66
EE
CD
CE
ENDCHAR
STARTCHAR o
ENCODING 111
SWIDTH 562 0
DWIDTH 7 0
BBX 6 6 0 0
BITMAP
38
6C
EC
DC
D8
70
ENDCHAR
STARTCHAR p
ENCODING 112
SWIDTH 606 0
DWIDTH 8 0
BBX 8 9 -1 -3
BITMAP
76
3B
73
67
76
6C
E0
C0
C0
ENDCHAR
STARTCHAR q
ENCODING 113
SWIDTH 584 0
DWIDTH 7 0
BBX 7 10 0 -3
BITMAP
02
3E
66
EE
CC
DC
EC
18
18
18
ENDCHAR
STARTCHAR r
ENCODING 114
SWIDTH 440 0
DWIDTH 6 0
BBX 6 6 0 0
BITMAP
EC
7C
60
E0
C0
C0
ENDCHAR
STARTCHAR s
ENCODING 115
SWIDTH 417 0
DWIDTH 5 0
BBX 6 6 -1 0
BITMAP
1C
34
30
18
D8
70
ENDCHAR
STARTCHAR t
ENCODING 116
SWIDTH 359 0
DWIDTH 5 0
BBX 4 8 0 0
BITMAP
20
60
F0
60
E0
C0
D0
E0
ENDCHAR
STARTCHAR u
ENCODING 117
SWIDTH 634 0
DWIDTH 8 0
BBX 8 6 0 0
BITMAP
E6
66
EE
CC
DD
6E
ENDCHAR
STARTCHAR v
ENCODING 118
SWIDTH 518 0
DWIDTH 7 0
BBX 6 6 0 0
BITMAP
EC
6C
EC
C8
D0
60
ENDCHAR
STARTCHAR w
ENCODING 119
SWIDTH 795 0
DWIDTH 10 0
BBX 10 6 0 0
BITMAP
E6C0
66C0
ECC0
CC80
DD00
6600
ENDCHAR
STARTCHAR x
ENCODING 120
SWIDTH 516 0
DWIDTH 6 0
BBX 6 6 0 0
BITMAP
64
BC
30
30
F4
98
ENDCHAR
STARTCHAR y
ENCODING 121
SWIDTH 489 0
DWIDTH 6 0
BBX 7 9 -1 -3
BITMAP
76
36
34
38
38
30
30
A0
C0
ENDCHAR
STARTCHAR z
ENCODING 122
SWIDTH 466 0
DWIDTH 6 0
BBX 5 6 0 0
BITMAP
78
F0
20
40
F8
B0
ENDCHAR
STARTCHAR braceleft
ENCODING 123
SWIDTH 340 0
DWIDTH 4 0
BBX 5 11 0 -2
BITMAP
18
30
30
30
60
C0
60
60
C0
C0
60
ENDCHAR
STARTCHAR bar
ENCODING 124
SWIDTH 265 0
DWIDTH 3 0
BBX 2 9 0 0
BITMAP
C0
C0
C0
C0
C0
C0
C0
C0
C0
ENDCHAR
STARTCHAR braceright
ENCODING 125
SWIDTH 340 0
DWIDTH 4 0
BBX 5 11 -1 -2
BITMAP
30
18
18
30
30
18
30
60
60
60
C0
ENDCHAR
STARTCHAR asciitilde
ENCODING 126
SWIDTH 600 0
DWIDTH 7 0
BBX 6 2 0 3
BITMAP
74
B8
ENDCHAR
STARTCHAR space
ENCODING 160
SWIDTH 210 0
DWIDTH 3 0
BBX 0 0 0 0
BITMAP
ENDCHAR
STARTCHAR exclamdown
ENCODING 161
SWIDTH 285 0
DWIDTH 4 0
BBX 4 9 0 -3
BITMAP
30
30
00
20
60
60
E0
C0
C0
ENDCHAR
STARTCHAR cent
ENCODING 162
SWIDTH 560 0
DWIDTH 7 0
BBX 7 8 0 0
BITMAP
08
3C
6E
D0
D0
D4
78
20
ENDCHAR
STARTCHAR sterling
ENCODING 163
SWIDTH 560 0
DWIDTH 7 0
BBX 7 9 0 0
BITMAP
3C
66
60
70
30
FC
30
64
FC
ENDCHAR
STARTCHAR currency
ENCODING 164
SWIDTH 560 0
DWIDTH 7 0
BBX 6 8 0 0
BITMAP
84
78
CC
84
84
CC
78
84
ENDCHAR
STARTCHAR yen
ENCODING 165
SWIDTH 560 0
DWIDTH 7 0
BBX 7 9 0 0
BITMAP
F6
64
64
38
FE
30
FC
30
78
ENDCHAR
STARTCHAR brokenbar
ENCODING 166
SWIDTH 265 0
DWIDTH 3 0
BBX 2 9 0 0
BITMAP
C0
C0
C0
C0
00
C0
C0
C0
C0
ENDCHAR
STARTCHAR section
ENCODING 167
SWIDTH 568 0
DWIDTH 7 0
BBX 6 11 0 -2
BITMAP
1C
24
60
B0
98
CC
64
34
18
90
E0
ENDCHAR
STARTCHAR dieresis
ENCODING 168
SWIDTH 400 0
DWIDTH 5 0
BBX 3 2 1 7
BITMAP
A0
A0
ENDCHAR
STARTCHAR copyright
ENCODING 169
SWIDTH 824 0
DWIDTH 10 0
BBX 9 9 0 0
BITMAP
3E00
6300
DD80
B680
A080
B680
DD80
6300
3E00
ENDCHAR
STARTCHAR ordfeminine
ENCODING 170
SWIDTH 444 0
DWIDTH 6 0
BBX 5 4 1 4
BITMAP
38
58
B0
D8
ENDCHAR
STARTCHAR guillemotleft
ENCODING 171
SWIDTH 560 0
DWIDTH 7 0
BBX 7 6 0 0
BITMAP
12
36
6C
D8
48
24
ENDCHAR
STARTCHAR logicalnot
ENCODING 172
SWIDTH 600 0
DWIDTH 7 0
BBX 6 4 0 1
BITMAP
FC
0C
0C
0C
ENDCHAR
STARTCHAR hyphen
ENCODING 173
SWIDTH 392 0
DWIDTH 5 0
BBX 3 1 1 3
BITMAP
E0
ENDCHAR
STARTCHAR registered
ENCODING 174
SWIDTH 824 0
DWIDTH 10 0
BBX 9 9 0 0
BITMAP
3E00
6300
DD80
9480
9C80
9480
D580
6300
3E00
ENDCHAR
STARTCHAR macron
ENCODING 175
SWIDTH 400 0
DWIDTH 5 0
BBX 4 1 0 7
BITMAP
F0
ENDCHAR
STARTCHAR degree
ENCODING 176
SWIDTH 375 0
DWIDTH 6 0
BBX 4 4 1 5
BITMAP
60
90
90
60
ENDCHAR
STARTCHAR plusminus
ENCODING 177
SWIDTH 600 0
DWIDTH 7 0
BBX 6 7 0 0
BITMAP
30
30
FC
30
30
00
FC
ENDCHAR
STARTCHAR twosuperior
ENCODING 178
SWIDTH 402 0
DWIDTH 5 0
BBX 5 6 0 3
BITMAP
70
58
30
60
D0
F0
ENDCHAR
STARTCHAR threesuperior
ENCODING 179
SWIDTH 402 0
DWIDTH 5 0
BBX 5 6 0 3
BITMAP
70
18
60
30
B0
E0
ENDCHAR
STARTCHAR acute
ENCODING 180
SWIDTH 400 0
DWIDTH 5 0
BBX 3 2 1 7
BITMAP
60
C0
ENDCHAR
STARTCHAR mu
ENCODING 181
SWIDTH 634 0
DWIDTH 8 0
BBX 9 9 -1 -3
BITMAP
7300
3300
7700
6600
6E80
7700
C000
C000
C000
ENDCHAR
STARTCHAR paragraph
ENCODING 182
SWIDTH 580 0
DWIDTH 7 0
BBX 7 11 0 -2
BITMAP
36
74
F4
EC
E8
68
08
18
10
10
30
ENDCHAR
STARTCHAR periodcentered
ENCODING 183
SWIDTH 280 0
DWIDTH 4 0
BBX 2 2 0 3
BITMAP
C0
C0
ENDCHAR
STARTCHAR cedilla
ENCODING 184
SWIDTH 400 0
DWIDTH 4 0
BBX 3 3 0 -3
BITMAP
40
60
C0
ENDCHAR
STARTCHAR onesuperior
ENCODING 185
SWIDTH 402 0
DWIDTH 5 0
BBX 4 6 0 3
BITMAP
70
30
30
60
60
F0
ENDCHAR
STARTCHAR ordmasculine
ENCODING 186
SWIDTH 412 0
DWIDTH 5 0
BBX 5 4 0 4
BITMAP
70
C8
98
70
ENDCHAR
STARTCHAR guillemotright
ENCODING 187
SWIDTH 560 0
DWIDTH 7 0
BBX 7 6 0 0
BITMAP
48
24
36
6C
D8
90
ENDCHAR
STARTCHAR onequarter
ENCODING 188
SWIDTH 940 0
DWIDTH 11 0
BBX 11 9 0 0
BITMAP
3100
7300
3200
6400
6CC0
E9C0
12C0
37E0
2180
ENDCHAR
STARTCHAR onehalf
ENCODING 189
SWIDTH 940 0
DWIDTH 11 0
BBX 11 9 0 0
BITMAP
3100
7300
3200
65C0
6D60
E8C0
1180
3340
23C0
ENDCHAR
STARTCHAR threequarters
ENCODING 190
SWIDTH 940 0
DWIDTH 11 0
BBX 11 9 0 0
BITMAP
7100
1B00
6200
3400
BCC0
E9C0
12C0
37E0
2180
ENDCHAR
STARTCHAR questiondown
ENCODING 191
SWIDTH 454 0
DWIDTH 6 0
BBX 5 9 0 -3
BITMAP
18
18
00
38
18
70
C0
D8
70
ENDCHAR
STARTCHAR Agrave
ENCODING 192
SWIDTH 634 0
DWIDTH 8 0
BBX 9 10 -1 0
BITMAP
0C00
0600
0000
0600
0E00
1600
1300
3F00
4300
E780
ENDCHAR
STARTCHAR Aacute
ENCODING 193
SWIDTH 634 0
DWIDTH 8 0
BBX 9 10 -1 0
BITMAP
0300
0600
0000
0600
0E00
1600
1300
3F00
4300
E780
ENDCHAR
STARTCHAR Acircumflex
ENCODING 194
SWIDTH 634 0
DWIDTH 8 0
BBX 9 10 -1 0
BITMAP
0600
0B00
0000
0600
0E00
1600
1300
3F00
4300
E780
ENDCHAR
STARTCHAR Atilde
ENCODING 195
SWIDTH 634 0
DWIDTH 8 0
BBX 9 10 -1 0
BITMAP
0680
0B00
0000
0600
0E00
1600
1300
3F00
4300
E780
ENDCHAR
STARTCHAR Adieresis
ENCODING 196
SWIDTH 634 0
DWIDTH 8 0
BBX 9 10 -1 0
BITMAP
0500
0500
0000
0600
0E00
1600
1300
3F00
4300
E780
ENDCHAR
STARTCHAR Aring
ENCODING 197
SWIDTH 634 0
DWIDTH 8 0
BBX 9 10 -1 0
BITMAP
0600
0900
0600
0600
0E00
1600
1300
3F00
4300
E780
ENDCHAR
STARTCHAR AE
ENCODING 198
SWIDTH 890 0
DWIDTH 11 0
BBX 12 9 -1 0
BITMAP
1FF0
0B30
0B10
1340
1FC0
2640
2620
4660
EFE0
ENDCHAR
STARTCHAR Ccedilla
ENCODING 199
SWIDTH 672 0
DWIDTH 8 0
BBX 8 12 0 -3
BITMAP
1F
73
61
E0
E0
C0
C2
C6
7C
10
18
30
ENDCHAR
STARTCHAR Egrave
ENCODING 200
SWIDTH 622 0
DWIDTH 8 0
BBX 8 10 0 0
BITMAP
18
0C
00
7F
31
30
7C
60
62
FE
ENDCHAR
STARTCHAR Eacute
ENCODING 201
SWIDTH 622 0
DWIDTH 8 0
BBX 8 10 0 0
BITMAP
06
0C
00
7F
31
30
7C
60
62
FE
ENDCHAR
STARTCHAR Ecircumflex
ENCODING 202
SWIDTH 622 0
DWIDTH 8 0
BBX 8 10 0 0
BITMAP
0C
16
00
7F
31
30
7C
60
62
FE
ENDCHAR
STARTCHAR Edieresis
ENCODING 203
SWIDTH 622 0
DWIDTH 8 0
BBX 8 10 0 0
BITMAP
14
14
00
7F
31
30
7C
60
62
FE
ENDCHAR
STARTCHAR Igrave
ENCODING 204
SWIDTH 386 0
DWIDTH 5 0
BBX 5 10 0 0
BITMAP
60
30
00
78
30
30
70
60
60
F0
ENDCHAR
STARTCHAR Iacute
ENCODING 205
SWIDTH 386 0
DWIDTH 5 0
BBX 5 10 0 0
BITMAP
18
30
00
78
30
30
70
60
60
F0
ENDCHAR
STARTCHAR Icircumflex
ENCODING 206
SWIDTH 386 0
DWIDTH 5 0
BBX 5 10 0 0
BITMAP
30
58
00
78
30
30
70
60
60
F0
ENDCHAR
STARTCHAR Idieresis
ENCODING 207
SWIDTH 386 0
DWIDTH 5 0
BBX 5 10 0 0
BITMAP
28
28
00
78
30
30
70
60
60
F0
ENDCHAR
STARTCHAR Eth
ENCODING 208
SWIDTH 780 0
DWIDTH 10 0
BBX 9 9 0 0
BITMAP
7F00
3180
3180
3180
FB80
6380
6300
6700
FC00
ENDCHAR
STARTCHAR Ntilde
ENCODING 209
SWIDTH 741 0
DWIDTH 10 0
BBX 10 10 0 0
BITMAP
0680
0B00
0000
71C0
3880
3880
6D80
4700
4700
E300
ENDCHAR
STARTCHAR Ograve
ENCODING 210
SWIDTH 761 0
DWIDTH 10 0
BBX 8 10 1 0
BITMAP
18
0C
00
3E
63
E3
C3
C7
C6
7C
ENDCHAR
STARTCHAR Oacute
ENCODING 211
SWIDTH 761 0
DWIDTH 10 0
BBX 8 10 1 0
BITMAP
06
0C
00
3E
63
E3
C3
C7
C6
7C
ENDCHAR
STARTCHAR Ocircumflex
ENCODING 212
SWIDTH 761 0
DWIDTH 10 0
BBX 8 10 1 0
BITMAP
0C
16
00
3E
63
E3
C3
C7
C6
7C
ENDCHAR
STARTCHAR Otilde
ENCODING 213
SWIDTH 761 0
DWIDTH 10 0
BBX 8 10 1 0
BITMAP
0D
16
00
3E
63
E3
C3
C7
C6
7C
ENDCHAR
STARTCHAR Odieresis
ENCODING 214
SWIDTH 761 0
DWIDTH 10 0
BBX 8 10 1 0
BITMAP
14
14
00
3E
63
E3
C3
C7
C6
7C
ENDCHAR
STARTCHAR multiply
ENCODING 215
SWIDTH 600 0
DWIDTH 7 0
BBX 6 5 0 1
BITMAP
CC
78
30
78
CC
ENDCHAR
STARTCHAR Oslash
ENCODING 216
SWIDTH 761 0
DWIDTH 10 0
BBX 10 9 0 0
BITMAP
0F40
3980
3380
7580
7B80
6B80
7300
6700
BC00
ENDCHAR
STARTCHAR Ugrave
ENCODING 217
SWIDTH 776 0
DWIDTH 10 0
BBX 9 10 1 0
BITMAP
1800
0C00
0000
F780
6300
6300
C600
C600
CE00
7C00
ENDCHAR
STARTCHAR Uacute
ENCODING 218
SWIDTH 776 0
DWIDTH 10 0
BBX 9 10 1 0
BITMAP
0600
0C00
0000
F780
6300
6300
C600
C600
CE00
7C00
ENDCHAR
STARTCHAR Ucircumflex
ENCODING 219
SWIDTH 776 0
DWIDTH 10 0
BBX 9 10 1 0
BITMAP
0C00
1600
0000
F780
6300
6300
C600
C600
CE00
7C00
ENDCHAR
STARTCHAR Udieresis
ENCODING 220
SWIDTH 776 0
DWIDTH 10 0
BBX 9 10 1 0
BITMAP
0A00
0A00
0000
F780
6300
6300
C600
C600
CE00
7C00
ENDCHAR
STARTCHAR Yacute
ENCODING 221
SWIDTH 622 0
DWIDTH 8 0
BBX 8 10 1 0
BITMAP
0C
18
00
F7
62
64
68
30
60
F0
ENDCHAR
STARTCHAR Thorn
ENCODING 222
SWIDTH 629 0
DWIDTH 8 0
BBX 8 9 0 0
BITMAP
78
30
3E
33
33
66
7C
60
F0
ENDCHAR
STARTCHAR germandbls
ENCODING 223
SWIDTH 628 0
DWIDTH 8 0
BBX 10 13 -2 -3
BITMAP
0780
0CC0
0CC0
0CC0
3D80
1B80
19C0
18C0
3AC0
3380
3000
B000
E000
ENDCHAR
STARTCHAR agrave
ENCODING 224
SWIDTH 596 0
DWIDTH 7 0
BBX 7 9 0 0
BITMAP
18
0C
00
3C
6C
CC
D8
DA
6C
ENDCHAR
STARTCHAR aacute
ENCODING 225
SWIDTH 596 0
DWIDTH 7 0
BBX 7 9 0 0
BITMAP
06
0C
00
3C
6C
CC
D8
DA
6C
ENDCHAR
STARTCHAR acircumflex
ENCODING 226
SWIDTH 596 0
DWIDTH 7 0
BBX 7 9 0 0
BITMAP
0C
16
00
3C
6C
CC
D8
DA
6C
ENDCHAR
STARTCHAR atilde
ENCODING 227
SWIDTH 596 0
DWIDTH 7 0
BBX 7 9 0 0
BITMAP
1A
2C
00
3C
6C
CC
D8
DA
6C
ENDCHAR
STARTCHAR adieresis
ENCODING 228
SWIDTH 596 0
DWIDTH 7 0
BBX 7 9 0 0
BITMAP
14
14
00
3C
6C
CC
D8
DA
6C
ENDCHAR
STARTCHAR aring
ENCODING 229
SWIDTH 596 0
DWIDTH 7 0
BBX 7 10 0 0
BITMAP
0C
12
0C
00
3C
6C
CC
D8
DA
6C
ENDCHAR
STARTCHAR ae
ENCODING 230
SWIDTH 789 0
DWIDTH 10 0
BBX 10 7 0 0
BITMAP
0200
3F80
66C0
EF80
CC00
DC80
6700
ENDCHAR
STARTCHAR ccedilla
ENCODING 231
SWIDTH 456 0
DWIDTH 6 0
BBX 6 9 0 -3
BITMAP
38
6C
E0
C0
C8
70
20
30
60
ENDCHAR
STARTCHAR egrave
ENCODING 232
SWIDTH 476 0
DWIDTH 6 0
BBX 6 9 0 0
BITMAP
30
18
00
38
6C
F8
C0
C8
70
ENDCHAR
STARTCHAR eacute
ENCODING 233
SWIDTH 476 0
DWIDTH 6 0
BBX 6 9 0 0
BITMAP
0C
18
00
38
6C
F8
C0
C8
70
ENDCHAR
STARTCHAR ecircumflex
ENCODING 234
SWIDTH 476 0
DWIDTH 6 0
BBX 6 9 0 0
BITMAP
18
2C
00
38
6C
F8
C0
C8
70
ENDCHAR
STARTCHAR edieresis
ENCODING 235
SWIDTH 476 0
DWIDTH 6 0
BBX 6 9 0 0
BITMAP
28
28
00
38
6C
F8
C0
C8
70
ENDCHAR
STARTCHAR igrave
ENCODING 236
SWIDTH 339 0
DWIDTH 4 0
BBX 4 9 0 0
BITMAP
60
30
00
E0
60
E0
C0
D0
E0
ENDCHAR
STARTCHAR iacute
ENCODING 237
SWIDTH 339 0
DWIDTH 4 0
BBX 4 9 0 0
BITMAP
30
60
00
E0
60
E0
C0
D0
E0
ENDCHAR
STARTCHAR icircumflex
ENCODING 238
SWIDTH 339 0
DWIDTH 4 0
BBX 4 9 0 0
BITMAP
60
B0
00
E0
60
E0
C0
D0
E0
ENDCHAR
STARTCHAR idieresis
ENCODING 239
SWIDTH 339 0
DWIDTH 4 0
BBX 4 9 0 0
BITMAP
50
50
00
E0
60
E0
C0
D0
E0
ENDCHAR
STARTCHAR eth
ENCODING 240
SWIDTH 562 0
DWIDTH 7 0
BBX 6 10 0 0
BITMAP
68
30
58
18
3C
6C
EC
DC
D8
70
ENDCHAR
STARTCHAR ntilde
ENCODING 241
SWIDTH 635 0
DWIDTH 8 0
BBX 8 9 0 0
BITMAP
1A
2C
00
EC
76
66
EE
CD
CE
ENDCHAR
STARTCHAR ograve
ENCODING 242
SWIDTH 562 0
DWIDTH 7 0
BBX 6 9 0 0
BITMAP
30
18
00
38
6C
EC
DC
D8
70
ENDCHAR
STARTCHAR oacute
ENCODING 243
SWIDTH 562 0
DWIDTH 7 0
BBX 6 9 0 0
BITMAP
0C
18
00
38
6C
EC
DC
D8
70
ENDCHAR
STARTCHAR ocircumflex
ENCODING 244
SWIDTH 562 0
DWIDTH 7 0
BBX 6 9 0 0
BITMAP
18
2C
00
38
6C
EC
DC
D8
70
ENDCHAR
STARTCHAR otilde
ENCODING 245
SWIDTH 562 0
DWIDTH 7 0
BBX 6 9 0 0
BITMAP
34
58
00
38
6C
EC
DC
D8
70
ENDCHAR
STARTCHAR odieresis
ENCODING 246
SWIDTH 562 0
DWIDTH 7 0
BBX 6 9 0 0
BITMAP
28
28
00
38
6C
EC
DC
D8
70
ENDCHAR
STARTCHAR divide
ENCODING 247
SWIDTH 600 0
DWIDTH 7 0
BBX 6 5 0 1
BITMAP
30
00
FC
00
30
ENDCHAR
STARTCHAR oslash
ENCODING 248
SWIDTH 562 0
DWIDTH 7 0
BBX 6 8 0 -1
BITMAP
04
38
6C
EC
DC
D8
70
80
ENDCHAR
STARTCHAR ugrave
ENCODING 249
SWIDTH 634 0
DWIDTH 8 0
BBX 8 9 0 0
BITMAP
30
18
00
E6
66
EE
CC
DD
6E
ENDCHAR
STARTCHAR uacute
ENCODING 250
SWIDTH 634 0
DWIDTH 8 0
BBX 8 9 0 0
BITMAP
0C
18
00
E6
66
EE
CC
DD
6E
ENDCHAR
STARTCHAR ucircumflex
ENCODING 251
SWIDTH 634 0
DWIDTH 8 0
BBX 8 9 0 0
BITMAP
18
2C
00
E6
66
EE
CC
DD
6E
ENDCHAR
STARTCHAR udieresis
ENCODING 252
SWIDTH 634 0
DWIDTH 8 0
BBX 8 9 0 0
BITMAP
14
14
00
E6
66
EE
CC
DD
6E
ENDCHAR
STARTCHAR yacute
ENCODING 253
SWIDTH 489 0
DWIDTH 6 0
BBX 7 12 -1 -3
BITMAP
06
0C
00
76
36
34
38
38
30
30
A0
C0
ENDCHAR
STARTCHAR thorn
ENCODING 254
SWIDTH 600 0
DWIDTH 8 0
BBX 8 13 -1 -3
BITMAP
38
18
38
30
36
3B
73
67
76
6C
E0
C0
C0
ENDCHAR
STARTCHAR ydieresis
ENCODING 255
SWIDTH 489 0
DWIDTH 6 0
BBX 7 12 -1 -3
BITMAP
14
14
00
76
36
34
38
38
30
30
A0
C0
ENDCHAR
ENDFONT
