STARTFONT 2.1
COMMENT AUTOMATICALLY GENERATED FILE. DO NOT EDIT!
COMMENT Generated with 'ucs2any.pl UTBI__18.bdf ../../../fonts/util/map-ISO8859-1 ISO8859-1'
COMMENT from an ISO10646-1 encoded source BDF font.
COMMENT ucs2any.pl by Markus Kuhn <mkuhn@acm.org>, 2000.
FONT -Adobe-Utopia-Bold-I-Normal--19-180-75-75-P-105-ISO8859-1
SIZE 18 75 75
FONTBOUNDINGBOX 22 18 -3 -4
COMMENT $Xorg: $
COMMENT ISO10646-1 extension by Markus Kuhn <mkuhn@acm.org>, 2001-03-20
STARTPROPERTIES 28
FOUNDRY "Adobe"
FAMILY_NAME "Utopia"
WEIGHT_NAME "Bold"
SLANT "I"
SETWIDTH_NAME "Normal"
ADD_STYLE_NAME ""
PIXEL_SIZE 19
POINT_SIZE 180
RESOLUTION_X 75
RESOLUTION_Y 75
SPACING "P"
AVERAGE_WIDTH 105
CHARSET_REGISTRY "ISO8859"
CHARSET_ENCODING "1"
CAP_HEIGHT 13
X_HEIGHT 9
RELATIVE_SETWIDTH 50
RELATIVE_WEIGHT 70
WEIGHT 208
FACE_NAME "Utopia Bold Italic"
COPYRIGHT "Copyright (c) 1989, 1991 Adobe Systems Incorporated.  All rights reserved."
NOTICE "Utopia is a registered trademark of Adobe Systems Incorporated."
DESTINATION 0
FONT_ASCENT 14
FONT_DESCENT 4
DEFAULT_CHAR 0
_ADOBE_PSFONT "Utopia-BoldItalic"
_DEC_DEVICE_FONTNAMES "PS=Utopia-BoldItalic"
ENDPROPERTIES
CHARS 192
STARTCHAR defaultchar
ENCODING 0
SWIDTH 800 0
DWIDTH 15 0
BBX 15 13 0 0
BITMAP
AAAA
0000
8002
0000
8002
0000
8002
0000
8002
0000
8002
0000
AAAA
ENDCHAR
STARTCHAR space
ENCODING 32
SWIDTH 210 0
DWIDTH 4 0
BBX 0 0 0 0
BITMAP
ENDCHAR
STARTCHAR exclam
ENCODING 33
SWIDTH 285 0
DWIDTH 5 0
BBX 6 13 0 0
BITMAP
1C
1C
1C
38
38
38
30
30
20
00
60
F0
60
ENDCHAR
STARTCHAR quotedbl
ENCODING 34
SWIDTH 455 0
DWIDTH 8 0
BBX 6 7 1 6
BITMAP
6C
6C
FC
D8
D8
90
90
ENDCHAR
STARTCHAR numbersign
ENCODING 35
SWIDTH 560 0
DWIDTH 11 0
BBX 11 12 0 1
BITMAP
0CC0
0CC0
0CC0
3FE0
1980
1980
3300
3300
FF80
6600
6600
6600
ENDCHAR
STARTCHAR dollar
ENCODING 36
SWIDTH 560 0
DWIDTH 11 0
BBX 11 15 0 -1
BITMAP
0100
07C0
1DE0
3A60
3A00
3E00
3F00
1F80
0F80
0B80
0B80
CB80
F700
7C00
1000
ENDCHAR
STARTCHAR percent
ENCODING 37
SWIDTH 896 0
DWIDTH 17 0
BBX 15 13 1 0
BITMAP
3C10
67F0
C620
C640
C6C0
CC80
793C
0266
06C6
04C6
08C6
18CC
1078
ENDCHAR
STARTCHAR ampersand
ENCODING 38
SWIDTH 752 0
DWIDTH 15 0
BBX 14 13 0 0
BITMAP
07C0
0E60
1C60
1C60
0EC0
0F0C
3F0C
7B8C
F1C8
F1D0
F0E0
78F0
3F3C
ENDCHAR
STARTCHAR quotesingle
ENCODING 39
SWIDTH 246 0
DWIDTH 5 0
BBX 3 7 1 6
BITMAP
60
60
E0
C0
C0
80
80
ENDCHAR
STARTCHAR parenleft
ENCODING 40
SWIDTH 350 0
DWIDTH 7 0
BBX 7 16 0 -3
BITMAP
0E
1C
38
38
70
70
70
E0
E0
E0
E0
E0
E0
70
70
38
ENDCHAR
STARTCHAR parenright
ENCODING 41
SWIDTH 350 0
DWIDTH 7 0
BBX 7 16 -1 -3
BITMAP
38
1C
1C
0E
0E
0E
0E
0E
0E
1C
1C
1C
38
38
70
E0
ENDCHAR
STARTCHAR asterisk
ENCODING 42
SWIDTH 500 0
DWIDTH 9 0
BBX 8 7 0 6
BITMAP
08
6B
3E
18
7C
D6
10
ENDCHAR
STARTCHAR plus
ENCODING 43
SWIDTH 600 0
DWIDTH 11 0
BBX 10 10 0 0
BITMAP
0C00
0C00
0C00
0C00
FFC0
FFC0
0C00
0C00
0C00
0C00
ENDCHAR
STARTCHAR comma
ENCODING 44
SWIDTH 280 0
DWIDTH 5 0
BBX 5 6 -2 -3
BITMAP
30
38
38
30
60
C0
ENDCHAR
STARTCHAR hyphen
ENCODING 45
SWIDTH 392 0
DWIDTH 7 0
BBX 5 2 1 4
BITMAP
F8
F8
ENDCHAR
STARTCHAR period
ENCODING 46
SWIDTH 280 0
DWIDTH 5 0
BBX 4 3 0 0
BITMAP
60
F0
60
ENDCHAR
STARTCHAR slash
ENCODING 47
SWIDTH 260 0
DWIDTH 7 0
BBX 5 13 1 0
BITMAP
18
18
18
30
30
30
60
60
60
60
C0
C0
C0
ENDCHAR
STARTCHAR zero
ENCODING 48
SWIDTH 560 0
DWIDTH 11 0
BBX 11 13 0 0
BITMAP
0780
1DC0
39C0
39E0
79E0
71E0
F1E0
F1C0
F3C0
F380
7380
7700
3C00
ENDCHAR
STARTCHAR one
ENCODING 49
SWIDTH 560 0
DWIDTH 11 0
BBX 9 13 1 0
BITMAP
0780
3F00
0F00
0F00
1E00
1E00
1E00
1E00
1E00
3C00
3C00
3C00
FF00
ENDCHAR
STARTCHAR two
ENCODING 50
SWIDTH 560 0
DWIDTH 11 0
BBX 11 13 0 0
BITMAP
0F80
39C0
71E0
21E0
01E0
03C0
0780
1E00
3800
7040
FFC0
FF80
FF80
ENDCHAR
STARTCHAR three
ENCODING 51
SWIDTH 560 0
DWIDTH 11 0
BBX 11 13 0 0
BITMAP
0FC0
39E0
71E0
21E0
01C0
0380
1F80
03C0
03C0
43C0
E3C0
E780
7E00
ENDCHAR
STARTCHAR four
ENCODING 52
SWIDTH 560 0
DWIDTH 11 0
BBX 10 13 0 0
BITMAP
0380
0780
0700
0E40
0CC0
19C0
33C0
63C0
C780
FFC0
0780
0780
0FC0
ENDCHAR
STARTCHAR five
ENCODING 53
SWIDTH 560 0
DWIDTH 11 0
BBX 11 13 0 0
BITMAP
1FE0
1FC0
1F80
3000
2000
3F00
2380
03C0
03C0
43C0
E3C0
E780
7E00
ENDCHAR
STARTCHAR six
ENCODING 54
SWIDTH 560 0
DWIDTH 11 0
BBX 11 13 0 0
BITMAP
07C0
1DE0
38C0
3800
7800
7780
F9C0
F1C0
F1C0
F3C0
7380
7700
3E00
ENDCHAR
STARTCHAR seven
ENCODING 55
SWIDTH 560 0
DWIDTH 11 0
BBX 11 13 0 0
BITMAP
3FE0
7FE0
7FC0
8180
0300
0600
0E00
1C00
1C00
3C00
3C00
3C00
1800
ENDCHAR
STARTCHAR eight
ENCODING 56
SWIDTH 560 0
DWIDTH 11 0
BBX 11 13 0 0
BITMAP
0F80
1CC0
38E0
38E0
3CE0
1FC0
1F80
77C0
E3C0
E1C0
E1C0
6380
3F00
ENDCHAR
STARTCHAR nine
ENCODING 57
SWIDTH 560 0
DWIDTH 11 0
BBX 11 13 0 0
BITMAP
0F80
1DC0
39C0
79E0
71E0
71E0
73E0
3DC0
03C0
0380
6380
F700
7C00
ENDCHAR
STARTCHAR colon
ENCODING 58
SWIDTH 280 0
DWIDTH 5 0
BBX 5 9 0 0
BITMAP
30
78
30
00
00
00
60
F0
60
ENDCHAR
STARTCHAR semicolon
ENCODING 59
SWIDTH 280 0
DWIDTH 5 0
BBX 7 12 -2 -3
BITMAP
0C
1E
0C
00
00
00
30
38
38
30
60
C0
ENDCHAR
STARTCHAR less
ENCODING 60
SWIDTH 600 0
DWIDTH 11 0
BBX 10 10 0 0
BITMAP
00C0
03C0
0F00
3C00
F000
F000
3C00
0F00
03C0
00C0
ENDCHAR
STARTCHAR equal
ENCODING 61
SWIDTH 600 0
DWIDTH 11 0
BBX 10 6 0 2
BITMAP
FFC0
FFC0
0000
0000
FFC0
FFC0
ENDCHAR
STARTCHAR greater
ENCODING 62
SWIDTH 600 0
DWIDTH 11 0
BBX 10 10 0 0
BITMAP
C000
F000
3C00
0F00
03C0
03C0
0F00
3C00
F000
C000
ENDCHAR
STARTCHAR question
ENCODING 63
SWIDTH 454 0
DWIDTH 9 0
BBX 8 13 1 0
BITMAP
3E
77
67
07
0E
38
70
7C
30
00
60
F0
60
ENDCHAR
STARTCHAR at
ENCODING 64
SWIDTH 828 0
DWIDTH 17 0
BBX 14 13 1 0
BITMAP
07E0
1C38
3008
63EC
6664
CC64
CCC4
CCCC
CDD8
66F0
6000
3830
0FE0
ENDCHAR
STARTCHAR A
ENCODING 65
SWIDTH 634 0
DWIDTH 12 0
BBX 13 13 -1 0
BITMAP
01C0
01C0
03C0
03C0
05E0
05E0
09E0
09E0
1FF0
10F0
20F0
60F0
F1F8
ENDCHAR
STARTCHAR B
ENCODING 66
SWIDTH 680 0
DWIDTH 13 0
BBX 13 13 0 0
BITMAP
3FF0
1E78
1E78
1E78
3C70
3CF0
3FC0
3CE0
3CF0
78F0
78F0
79E0
FFC0
ENDCHAR
STARTCHAR C
ENCODING 67
SWIDTH 672 0
DWIDTH 13 0
BBX 13 13 0 0
BITMAP
07F0
1E38
3C10
7810
7800
7800
F000
F000
F000
F020
7060
70C0
1F00
ENDCHAR
STARTCHAR D
ENCODING 68
SWIDTH 774 0
DWIDTH 15 0
BBX 14 13 0 0
BITMAP
3FE0
1E38
1E38
1E3C
3C3C
3C3C
3C3C
3C78
3C78
7878
78F0
79E0
FF80
ENDCHAR
STARTCHAR E
ENCODING 69
SWIDTH 622 0
DWIDTH 12 0
BBX 12 13 0 0
BITMAP
3FF0
1E30
1E20
1E00
3C20
3C60
3FC0
3C40
3C00
7820
7860
78C0
FFC0
ENDCHAR
STARTCHAR F
ENCODING 70
SWIDTH 585 0
DWIDTH 12 0
BBX 12 13 0 0
BITMAP
3FF0
1E30
1E20
1E00
3C20
3C60
3FC0
3C40
3C00
7800
7800
7800
FC00
ENDCHAR
STARTCHAR G
ENCODING 71
SWIDTH 726 0
DWIDTH 13 0
BBX 13 13 0 0
BITMAP
07F0
1E38
3C10
7810
7800
7800
F000
F1F8
F0F0
F0F0
70F0
71E0
1F80
ENDCHAR
STARTCHAR H
ENCODING 72
SWIDTH 800 0
DWIDTH 15 0
BBX 15 13 0 0
BITMAP
3F7E
1E3C
1E3C
1E3C
3C78
3C78
3FF8
3C78
3C78
78F0
78F0
78F0
FDF8
ENDCHAR
STARTCHAR I
ENCODING 73
SWIDTH 386 0
DWIDTH 7 0
BBX 8 13 -1 0
BITMAP
3F
1E
1E
1E
3C
3C
3C
3C
3C
78
78
78
FC
ENDCHAR
STARTCHAR J
ENCODING 74
SWIDTH 388 0
DWIDTH 7 0
BBX 10 15 -3 -2
BITMAP
0FC0
0780
0780
0780
0F00
0F00
0F00
0F00
1E00
1E00
1E00
1E00
3C00
3C00
F000
ENDCHAR
STARTCHAR K
ENCODING 75
SWIDTH 688 0
DWIDTH 14 0
BBX 14 13 0 0
BITMAP
3F3C
1E18
1E30
1E60
3CC0
3D80
3FC0
3DC0
3DE0
79E0
78F0
78F8
FC7C
ENDCHAR
STARTCHAR L
ENCODING 76
SWIDTH 586 0
DWIDTH 11 0
BBX 11 13 0 0
BITMAP
3F00
1E00
1E00
1E00
3C00
3C00
3C00
3C00
3C00
7820
7860
78C0
FFC0
ENDCHAR
STARTCHAR M
ENCODING 77
SWIDTH 921 0
DWIDTH 18 0
BBX 18 13 0 0
BITMAP
3E0FC0
1E0F80
1E1780
1E1780
2F2F00
2F2F00
2F4F00
27CF00
678F00
479E00
471E00
431E00
E23F00
ENDCHAR
STARTCHAR N
ENCODING 78
SWIDTH 741 0
DWIDTH 14 0
BBX 14 13 0 0
BITMAP
3E1C
1E08
1F08
1F08
3F98
2790
27D0
23D0
63F0
41E0
41E0
40E0
E0E0
ENDCHAR
STARTCHAR O
ENCODING 79
SWIDTH 761 0
DWIDTH 14 0
BBX 14 13 0 0
BITMAP
07E0
1E38
3C38
783C
783C
783C
F03C
F078
F078
F078
70F0
71E0
1F80
ENDCHAR
STARTCHAR P
ENCODING 80
SWIDTH 660 0
DWIDTH 12 0
BBX 13 13 -1 0
BITMAP
3FF0
1E78
1E78
1E78
3C78
3C70
3CF0
3FC0
3C00
7800
7800
7800
FC00
ENDCHAR
STARTCHAR Q
ENCODING 81
SWIDTH 761 0
DWIDTH 14 0
BBX 14 17 0 -4
BITMAP
07E0
1E38
3C38
783C
783C
783C
F03C
F078
F078
F078
70F0
71E0
1F80
0700
0780
03C0
00F0
ENDCHAR
STARTCHAR R
ENCODING 82
SWIDTH 681 0
DWIDTH 13 0
BBX 13 13 0 0
BITMAP
3FF0
1E78
1E78
1E78
3C70
3CF0
3FC0
3CE0
3CF0
78F0
78F0
78F0
FC78
ENDCHAR
STARTCHAR S
ENCODING 83
SWIDTH 551 0
DWIDTH 11 0
BBX 11 13 0 0
BITMAP
07C0
1CE0
3860
3820
3C00
3F00
1F80
0FC0
03C0
81C0
C1C0
E380
7E00
ENDCHAR
STARTCHAR T
ENCODING 84
SWIDTH 616 0
DWIDTH 12 0
BBX 12 13 1 0
BITMAP
FFF0
CF30
8F10
0F00
1E00
1E00
1E00
1E00
1E00
3C00
3C00
3C00
7E00
ENDCHAR
STARTCHAR U
ENCODING 85
SWIDTH 776 0
DWIDTH 15 0
BBX 15 13 0 0
BITMAP
7E7E
3C3C
3C3C
3C3C
7878
7878
7878
7878
F0F0
F0F0
F0F0
79E0
3FC0
ENDCHAR
STARTCHAR V
ENCODING 86
SWIDTH 630 0
DWIDTH 12 0
BBX 13 13 0 0
BITMAP
FC78
7830
7820
7840
3C40
3C80
3C80
3D00
3D00
1E00
1E00
1C00
1C00
ENDCHAR
STARTCHAR W
ENCODING 87
SWIDTH 920 0
DWIDTH 18 0
BBX 19 13 0 0
BITMAP
FCF1E0
78F0C0
78F080
78F100
78F100
797200
3D7A00
3E7C00
3E7C00
3C7800
3C7800
387800
387000
ENDCHAR
STARTCHAR X
ENCODING 88
SWIDTH 630 0
DWIDTH 12 0
BBX 12 13 0 0
BITMAP
7EF0
3C60
3C40
1E80
1E80
0F00
0F00
0F00
1780
1780
23C0
63C0
F7E0
ENDCHAR
STARTCHAR Y
ENCODING 89
SWIDTH 622 0
DWIDTH 12 0
BBX 12 13 1 0
BITMAP
FCF0
7860
7840
7880
7900
3E00
3E00
3C00
3C00
7800
7800
7800
FC00
ENDCHAR
STARTCHAR Z
ENCODING 90
SWIDTH 618 0
DWIDTH 12 0
BBX 12 13 0 0
BITMAP
3FF0
71F0
63E0
43C0
07C0
0F80
0F00
1F00
3E00
3C20
7C60
F8E0
FFC0
ENDCHAR
STARTCHAR bracketleft
ENCODING 91
SWIDTH 350 0
DWIDTH 6 0
BBX 7 16 0 -3
BITMAP
1E
1C
1C
1C
38
38
38
38
70
70
70
70
E0
E0
E0
F0
ENDCHAR
STARTCHAR backslash
ENCODING 92
SWIDTH 460 0
DWIDTH 7 0
BBX 5 13 1 0
BITMAP
C0
C0
C0
60
60
60
30
30
30
30
18
18
18
ENDCHAR
STARTCHAR bracketright
ENCODING 93
SWIDTH 350 0
DWIDTH 6 0
BBX 7 16 -1 -3
BITMAP
1E
0E
0E
0E
1C
1C
1C
1C
38
38
38
38
70
70
70
F0
ENDCHAR
STARTCHAR asciicircum
ENCODING 94
SWIDTH 600 0
DWIDTH 11 0
BBX 10 10 0 3
BITMAP
0C00
0C00
1E00
1E00
3300
3300
6180
6180
C0C0
C0C0
ENDCHAR
STARTCHAR underscore
ENCODING 95
SWIDTH 500 0
DWIDTH 9 0
BBX 9 1 0 -3
BITMAP
FF80
ENDCHAR
STARTCHAR grave
ENCODING 96
SWIDTH 400 0
DWIDTH 7 0
BBX 3 2 2 10
BITMAP
C0
60
ENDCHAR
STARTCHAR a
ENCODING 97
SWIDTH 596 0
DWIDTH 11 0
BBX 12 9 0 0
BITMAP
0EE0
39E0
70E0
71C0
F1C0
E3C0
E790
EBA0
71C0
ENDCHAR
STARTCHAR b
ENCODING 98
SWIDTH 586 0
DWIDTH 11 0
BBX 10 14 0 0
BITMAP
3C00
1C00
1C00
3C00
3800
3B80
3DC0
79C0
71C0
73C0
F380
E380
E700
BE00
ENDCHAR
STARTCHAR c
ENCODING 99
SWIDTH 456 0
DWIDTH 9 0
BBX 9 9 0 0
BITMAP
0F00
3980
7100
7000
F000
E000
E100
E200
7C00
ENDCHAR
STARTCHAR d
ENCODING 100
SWIDTH 609 0
DWIDTH 12 0
BBX 12 14 0 0
BITMAP
00F0
0070
0070
00F0
00E0
0FE0
38E0
71C0
71C0
F1C0
E3C0
E790
EBA0
71C0
ENDCHAR
STARTCHAR e
ENCODING 101
SWIDTH 476 0
DWIDTH 9 0
BBX 9 9 0 0
BITMAP
0F00
3B80
7380
7700
FC00
E000
E100
E200
7C00
ENDCHAR
STARTCHAR f
ENCODING 102
SWIDTH 348 0
DWIDTH 7 0
BBX 12 18 -3 -4
BITMAP
00E0
01B0
03B0
0380
0380
0FE0
0700
0700
0F00
0E00
0E00
0E00
1E00
1C00
1C00
DC00
D800
7000
ENDCHAR
STARTCHAR g
ENCODING 103
SWIDTH 522 0
DWIDTH 10 0
BBX 12 13 -1 -4
BITMAP
0FF0
1DC0
39C0
39C0
3B80
1F00
1800
3E00
3F80
63C0
E1C0
E380
7F00
ENDCHAR
STARTCHAR h
ENCODING 104
SWIDTH 629 0
DWIDTH 12 0
BBX 12 14 0 0
BITMAP
3C00
1C00
1C00
3C00
3800
39C0
3AE0
74E0
79E0
71C0
71C0
F3D0
E3A0
E1C0
ENDCHAR
STARTCHAR i
ENCODING 105
SWIDTH 339 0
DWIDTH 6 0
BBX 6 13 0 0
BITMAP
18
3C
18
00
78
38
78
70
70
F0
E4
E8
70
ENDCHAR
STARTCHAR j
ENCODING 106
SWIDTH 333 0
DWIDTH 6 0
BBX 9 17 -3 -4
BITMAP
0300
0780
0300
0000
0F00
0700
0700
0F00
0E00
0E00
0E00
1E00
1C00
1C00
DC00
D800
7000
ENDCHAR
STARTCHAR k
ENCODING 107
SWIDTH 570 0
DWIDTH 11 0
BBX 11 14 0 0
BITMAP
3C00
1C00
1C00
3C00
3800
38C0
39E0
7380
7600
7E00
F700
E720
E3C0
E380
ENDCHAR
STARTCHAR l
ENCODING 108
SWIDTH 327 0
DWIDTH 6 0
BBX 6 14 0 0
BITMAP
3C
1C
1C
3C
38
38
38
70
70
70
F0
E4
E8
70
ENDCHAR
STARTCHAR m
ENCODING 109
SWIDTH 914 0
DWIDTH 17 0
BBX 18 9 0 0
BITMAP
79C700
3AEB80
3CF380
79E780
71C700
71C700
F3CF40
E38E80
E38700
ENDCHAR
STARTCHAR n
ENCODING 110
SWIDTH 635 0
DWIDTH 12 0
BBX 12 9 0 0
BITMAP
79C0
3AE0
3CE0
79E0
71C0
71C0
F3D0
E3A0
E1C0
ENDCHAR
STARTCHAR o
ENCODING 111
SWIDTH 562 0
DWIDTH 10 0
BBX 10 9 0 0
BITMAP
0F80
39C0
71C0
71C0
F3C0
E380
E380
E700
7E00
ENDCHAR
STARTCHAR p
ENCODING 112
SWIDTH 606 0
DWIDTH 12 0
BBX 12 13 -1 -4
BITMAP
3CE0
1D70
1E70
3C70
38F0
38E0
78E0
7DC0
7780
7000
E000
E000
E000
ENDCHAR
STARTCHAR q
ENCODING 113
SWIDTH 584 0
DWIDTH 11 0
BBX 11 13 0 -4
BITMAP
0EE0
39E0
70E0
71C0
F1C0
E3C0
E780
EB80
7380
0380
0700
0700
0700
ENDCHAR
STARTCHAR r
ENCODING 114
SWIDTH 440 0
DWIDTH 8 0
BBX 9 9 0 0
BITMAP
7B00
3F80
3B00
7800
7000
7000
F000
E000
E000
ENDCHAR
STARTCHAR s
ENCODING 115
SWIDTH 417 0
DWIDTH 8 0
BBX 7 9 0 0
BITMAP
1E
36
72
78
38
3C
9C
D8
F0
ENDCHAR
STARTCHAR t
ENCODING 116
SWIDTH 359 0
DWIDTH 7 0
BBX 7 11 0 0
BITMAP
08
18
7E
38
38
78
70
70
F4
E8
70
ENDCHAR
STARTCHAR u
ENCODING 117
SWIDTH 634 0
DWIDTH 12 0
BBX 12 9 0 0
BITMAP
78E0
38E0
79E0
71C0
71C0
F3C0
E790
EBA0
71C0
ENDCHAR
STARTCHAR v
ENCODING 118
SWIDTH 518 0
DWIDTH 10 0
BBX 10 9 0 0
BITMAP
7980
39C0
78C0
70C0
7180
F180
E300
E600
7800
ENDCHAR
STARTCHAR w
ENCODING 119
SWIDTH 795 0
DWIDTH 15 0
BBX 15 9 0 0
BITMAP
79CC
39CE
71C6
73C6
738C
E38C
E798
EFB0
71C0
ENDCHAR
STARTCHAR x
ENCODING 120
SWIDTH 516 0
DWIDTH 10 0
BBX 9 9 0 0
BITMAP
7980
3980
3A00
1C00
1C00
1C00
2E80
CF00
CE00
ENDCHAR
STARTCHAR y
ENCODING 121
SWIDTH 489 0
DWIDTH 9 0
BBX 11 13 -2 -4
BITMAP
3C60
1C60
1CC0
1CC0
1C80
1F00
0F00
0E00
0C00
0C00
0800
D000
E000
ENDCHAR
STARTCHAR z
ENCODING 122
SWIDTH 466 0
DWIDTH 9 0
BBX 9 9 0 0
BITMAP
3F80
7F00
4600
0C00
1800
3100
7B00
FE00
9C00
ENDCHAR
STARTCHAR braceleft
ENCODING 123
SWIDTH 340 0
DWIDTH 6 0
BBX 7 16 0 -3
BITMAP
0E
1C
1C
1C
38
38
30
E0
70
70
70
E0
E0
E0
E0
70
ENDCHAR
STARTCHAR bar
ENCODING 124
SWIDTH 265 0
DWIDTH 5 0
BBX 2 13 1 0
BITMAP
C0
C0
C0
C0
C0
C0
C0
C0
C0
C0
C0
C0
C0
ENDCHAR
STARTCHAR braceright
ENCODING 125
SWIDTH 340 0
DWIDTH 6 0
BBX 7 16 -1 -3
BITMAP
1C
0E
0E
0E
1C
1C
1C
0E
1C
38
38
38
70
70
70
E0
ENDCHAR
STARTCHAR asciitilde
ENCODING 126
SWIDTH 600 0
DWIDTH 11 0
BBX 10 3 0 4
BITMAP
38C0
7F80
C700
ENDCHAR
STARTCHAR space
ENCODING 160
SWIDTH 210 0
DWIDTH 4 0
BBX 0 0 0 0
BITMAP
ENDCHAR
STARTCHAR exclamdown
ENCODING 161
SWIDTH 285 0
DWIDTH 5 0
BBX 6 13 -1 -4
BITMAP
18
3C
18
00
10
30
30
70
70
70
E0
E0
E0
ENDCHAR
STARTCHAR cent
ENCODING 162
SWIDTH 560 0
DWIDTH 11 0
BBX 10 13 0 0
BITMAP
0200
0200
0F80
3BC0
7280
F200
F400
F400
F480
7D00
3E00
0400
0400
ENDCHAR
STARTCHAR sterling
ENCODING 163
SWIDTH 560 0
DWIDTH 11 0
BBX 11 13 0 0
BITMAP
07C0
1EE0
3C60
3C00
3C00
3C00
1C00
7F00
1C00
1840
30C0
FF80
FF80
ENDCHAR
STARTCHAR currency
ENCODING 164
SWIDTH 560 0
DWIDTH 11 0
BBX 9 9 1 3
BITMAP
DD80
FF80
6300
C180
C180
C180
6300
FF80
DD80
ENDCHAR
STARTCHAR yen
ENCODING 165
SWIDTH 560 0
DWIDTH 11 0
BBX 11 13 1 0
BITMAP
FDE0
78C0
7880
7900
7900
3E00
FF80
3C00
FF00
3C00
7800
7800
FC00
ENDCHAR
STARTCHAR brokenbar
ENCODING 166
SWIDTH 265 0
DWIDTH 5 0
BBX 2 13 1 0
BITMAP
C0
C0
C0
C0
C0
00
00
00
C0
C0
C0
C0
C0
ENDCHAR
STARTCHAR section
ENCODING 167
SWIDTH 568 0
DWIDTH 11 0
BBX 10 15 0 -2
BITMAP
0780
09C0
1880
1C00
2E00
4700
6380
71C0
38C0
1CC0
0E80
0700
4200
E600
7C00
ENDCHAR
STARTCHAR dieresis
ENCODING 168
SWIDTH 400 0
DWIDTH 7 0
BBX 5 2 1 10
BITMAP
D8
D8
ENDCHAR
STARTCHAR copyright
ENCODING 169
SWIDTH 824 0
DWIDTH 15 0
BBX 14 13 0 0
BITMAP
0780
1860
3030
67D8
4CC8
D84C
D80C
D84C
4CC8
6798
3030
1860
0780
ENDCHAR
STARTCHAR ordfeminine
ENCODING 170
SWIDTH 444 0
DWIDTH 8 0
BBX 8 6 0 6
BITMAP
1E
66
66
CC
DD
EE
ENDCHAR
STARTCHAR guillemotleft
ENCODING 171
SWIDTH 560 0
DWIDTH 10 0
BBX 9 7 0 1
BITMAP
0880
1100
3300
6600
CC00
6600
2200
ENDCHAR
STARTCHAR logicalnot
ENCODING 172
SWIDTH 600 0
DWIDTH 11 0
BBX 10 6 0 2
BITMAP
FFC0
FFC0
00C0
00C0
00C0
00C0
ENDCHAR
STARTCHAR hyphen
ENCODING 173
SWIDTH 392 0
DWIDTH 7 0
BBX 5 2 1 4
BITMAP
F8
F8
ENDCHAR
STARTCHAR registered
ENCODING 174
SWIDTH 824 0
DWIDTH 15 0
BBX 14 13 0 0
BITMAP
0780
1860
3030
7F98
4CC8
CCCC
CF8C
CD8C
4CC8
7EF8
3030
1860
0780
ENDCHAR
STARTCHAR macron
ENCODING 175
SWIDTH 400 0
DWIDTH 7 0
BBX 6 1 1 10
BITMAP
FC
ENDCHAR
STARTCHAR degree
ENCODING 176
SWIDTH 375 0
DWIDTH 7 0
BBX 6 6 1 7
BITMAP
78
CC
84
84
CC
78
ENDCHAR
STARTCHAR plusminus
ENCODING 177
SWIDTH 600 0
DWIDTH 11 0
BBX 10 10 0 0
BITMAP
0C00
0C00
0C00
FFC0
FFC0
0C00
0C00
0C00
FFC0
FFC0
ENDCHAR
STARTCHAR twosuperior
ENCODING 178
SWIDTH 402 0
DWIDTH 7 0
BBX 7 8 0 5
BITMAP
3C
66
46
0C
38
60
C4
FC
ENDCHAR
STARTCHAR threesuperior
ENCODING 179
SWIDTH 402 0
DWIDTH 7 0
BBX 7 8 0 5
BITMAP
3C
66
0C
38
0C
0C
D8
70
ENDCHAR
STARTCHAR acute
ENCODING 180
SWIDTH 400 0
DWIDTH 7 0
BBX 3 2 2 10
BITMAP
60
C0
ENDCHAR
STARTCHAR mu
ENCODING 181
SWIDTH 634 0
DWIDTH 12 0
BBX 13 13 -1 -4
BITMAP
3C70
1C70
3CF0
38E0
38E0
79E0
73C8
75D0
78E0
C000
E000
E000
4000
ENDCHAR
STARTCHAR paragraph
ENCODING 182
SWIDTH 580 0
DWIDTH 11 0
BBX 10 15 1 -2
BITMAP
1DC0
7900
7900
FB00
FA00
F200
F200
7600
0400
0400
0400
0C00
0800
0800
3800
ENDCHAR
STARTCHAR periodcentered
ENCODING 183
SWIDTH 280 0
DWIDTH 5 0
BBX 4 3 0 4
BITMAP
60
F0
60
ENDCHAR
STARTCHAR cedilla
ENCODING 184
SWIDTH 400 0
DWIDTH 7 0
BBX 4 4 2 -4
BITMAP
20
70
30
E0
ENDCHAR
STARTCHAR onesuperior
ENCODING 185
SWIDTH 402 0
DWIDTH 7 0
BBX 6 8 0 5
BITMAP
18
38
18
18
30
30
30
FC
ENDCHAR
STARTCHAR ordmasculine
ENCODING 186
SWIDTH 412 0
DWIDTH 8 0
BBX 7 6 0 6
BITMAP
1C
66
66
C6
CC
70
ENDCHAR
STARTCHAR guillemotright
ENCODING 187
SWIDTH 560 0
DWIDTH 10 0
BBX 9 7 0 1
BITMAP
2200
3300
1980
3300
6600
4400
8800
ENDCHAR
STARTCHAR onequarter
ENCODING 188
SWIDTH 940 0
DWIDTH 17 0
BBX 15 13 1 0
BITMAP
7010
3030
3020
3040
60C0
6098
6138
F234
066C
04CC
08FE
1818
103C
ENDCHAR
STARTCHAR onehalf
ENCODING 189
SWIDTH 940 0
DWIDTH 17 0
BBX 15 13 1 0
BITMAP
7020
3060
3040
3080
6180
613C
6266
F446
0C0C
0838
1060
30C4
20FC
ENDCHAR
STARTCHAR threequarters
ENCODING 190
SWIDTH 940 0
DWIDTH 17 0
BBX 15 13 1 0
BITMAP
3C10
6630
0C20
3840
0CC0
0C98
D938
7234
066C
04CC
08FE
1818
103C
ENDCHAR
STARTCHAR questiondown
ENCODING 191
SWIDTH 454 0
DWIDTH 9 0
BBX 8 13 0 -4
BITMAP
06
0F
06
00
0C
3E
0E
1C
70
E0
E6
EE
7C
ENDCHAR
STARTCHAR Agrave
ENCODING 192
SWIDTH 634 0
DWIDTH 13 0
BBX 13 14 -1 0
BITMAP
0180
00C0
0000
01C0
03C0
03C0
05E0
05E0
09E0
1FE0
10F0
20F0
60F0
F1F8
ENDCHAR
STARTCHAR Aacute
ENCODING 193
SWIDTH 634 0
DWIDTH 13 0
BBX 13 14 -1 0
BITMAP
0060
00C0
0000
01C0
03C0
03C0
05E0
05E0
09E0
1FE0
10F0
20F0
60F0
F1F8
ENDCHAR
STARTCHAR Acircumflex
ENCODING 194
SWIDTH 634 0
DWIDTH 13 0
BBX 13 14 -1 0
BITMAP
00C0
0160
0000
01C0
03C0
03C0
05E0
05E0
09E0
1FE0
10F0
20F0
60F0
F1F8
ENDCHAR
STARTCHAR Atilde
ENCODING 195
SWIDTH 634 0
DWIDTH 13 0
BBX 13 14 -1 0
BITMAP
03B0
06E0
0000
01C0
03C0
03C0
05E0
05E0
09E0
1FE0
10F0
20F0
60F0
F1F8
ENDCHAR
STARTCHAR Adieresis
ENCODING 196
SWIDTH 634 0
DWIDTH 13 0
BBX 13 14 -1 0
BITMAP
0360
0360
0000
01C0
03C0
03C0
05E0
05E0
09E0
1FE0
10F0
20F0
60F0
F1F8
ENDCHAR
STARTCHAR Aring
ENCODING 197
SWIDTH 634 0
DWIDTH 13 0
BBX 13 14 -1 0
BITMAP
00C0
0120
00C0
01C0
03C0
03C0
05E0
05E0
09E0
1FE0
10F0
20F0
60F0
F1F8
ENDCHAR
STARTCHAR AE
ENCODING 198
SWIDTH 890 0
DWIDTH 17 0
BBX 19 13 -2 0
BITMAP
03FFE0
00FC60
00BC40
013C00
027840
0278C0
047F80
087880
0FF800
10F040
20F0C0
60F180
F1FF80
ENDCHAR
STARTCHAR Ccedilla
ENCODING 199
SWIDTH 672 0
DWIDTH 13 0
BBX 13 17 0 -4
BITMAP
07F0
1E38
3C10
7810
7800
7800
F000
F000
F000
F020
7060
70C0
1F00
0200
0700
0300
0E00
ENDCHAR
STARTCHAR Egrave
ENCODING 200
SWIDTH 622 0
DWIDTH 12 0
BBX 12 14 0 0
BITMAP
0300
0180
0000
3FF0
1E30
1E10
1E00
3C40
3FC0
3C40
7800
7820
7860
FFE0
ENDCHAR
STARTCHAR Eacute
ENCODING 201
SWIDTH 622 0
DWIDTH 12 0
BBX 12 14 0 0
BITMAP
00C0
0180
0000
3FF0
1E30
1E10
1E00
3C40
3FC0
3C40
7800
7820
7860
FFE0
ENDCHAR
STARTCHAR Ecircumflex
ENCODING 202
SWIDTH 622 0
DWIDTH 12 0
BBX 12 14 0 0
BITMAP
0180
02C0
0000
3FF0
1E30
1E10
1E00
3C40
3FC0
3C40
7800
7820
7860
FFE0
ENDCHAR
STARTCHAR Edieresis
ENCODING 203
SWIDTH 622 0
DWIDTH 12 0
BBX 12 14 0 0
BITMAP
06C0
06C0
0000
3FF0
1E30
1E10
1E00
3C40
3FC0
3C40
7800
7820
7860
FFE0
ENDCHAR
STARTCHAR Igrave
ENCODING 204
SWIDTH 386 0
DWIDTH 7 0
BBX 8 14 -1 0
BITMAP
0C
06
00
3F
1E
1E
1E
3C
3C
3C
78
78
78
FC
ENDCHAR
STARTCHAR Iacute
ENCODING 205
SWIDTH 386 0
DWIDTH 7 0
BBX 8 14 -1 0
BITMAP
03
06
00
3F
1E
1E
1E
3C
3C
3C
78
78
78
FC
ENDCHAR
STARTCHAR Icircumflex
ENCODING 206
SWIDTH 386 0
DWIDTH 7 0
BBX 8 14 -1 0
BITMAP
06
0B
00
3F
1E
1E
1E
3C
3C
3C
78
78
78
FC
ENDCHAR
STARTCHAR Idieresis
ENCODING 207
SWIDTH 386 0
DWIDTH 7 0
BBX 8 14 -1 0
BITMAP
1B
1B
00
3F
1E
1E
1E
3C
3C
3C
78
78
78
FC
ENDCHAR
STARTCHAR Eth
ENCODING 208
SWIDTH 780 0
DWIDTH 15 0
BBX 14 13 0 0
BITMAP
3FE0
1E38
1E38
1E3C
3C3C
3C3C
FF3C
3C78
3C78
7878
78F0
79E0
FF80
ENDCHAR
STARTCHAR Ntilde
ENCODING 209
SWIDTH 741 0
DWIDTH 14 0
BBX 14 14 0 0
BITMAP
03B0
06E0
0000
3E1C
1E08
1F08
3718
2790
2390
23D0
61F0
41E0
40E0
E0E0
ENDCHAR
STARTCHAR Ograve
ENCODING 210
SWIDTH 761 0
DWIDTH 14 0
BBX 14 14 0 0
BITMAP
0180
00C0
0000
07E0
1E38
3C38
783C
783C
F03C
F078
F078
70F0
71E0
1F80
ENDCHAR
STARTCHAR Oacute
ENCODING 211
SWIDTH 761 0
DWIDTH 14 0
BBX 14 14 0 0
BITMAP
0060
00C0
0000
07E0
1E38
3C38
783C
783C
F03C
F078
F078
70F0
71E0
1F80
ENDCHAR
STARTCHAR Ocircumflex
ENCODING 212
SWIDTH 761 0
DWIDTH 14 0
BBX 14 14 0 0
BITMAP
00C0
0160
0000
07E0
1E38
3C38
783C
783C
F03C
F078
F078
70F0
71E0
1F80
ENDCHAR
STARTCHAR Otilde
ENCODING 213
SWIDTH 761 0
DWIDTH 14 0
BBX 14 14 0 0
BITMAP
03B0
06E0
0000
07E0
1E38
3C38
783C
783C
F03C
F078
F078
70F0
71E0
1F80
ENDCHAR
STARTCHAR Odieresis
ENCODING 214
SWIDTH 761 0
DWIDTH 14 0
BBX 14 14 0 0
BITMAP
0360
0360
0000
07E0
1E38
3C38
783C
783C
F03C
F078
F078
70F0
71E0
1F80
ENDCHAR
STARTCHAR multiply
ENCODING 215
SWIDTH 600 0
DWIDTH 11 0
BBX 9 9 1 0
BITMAP
4100
E380
7700
3E00
1C00
3E00
7700
E380
4100
ENDCHAR
STARTCHAR Oslash
ENCODING 216
SWIDTH 761 0
DWIDTH 14 0
BBX 14 13 0 0
BITMAP
07E4
1E38
3C38
787C
78BC
793C
F23C
F278
F478
F878
70F0
71E0
9F80
ENDCHAR
STARTCHAR Ugrave
ENCODING 217
SWIDTH 776 0
DWIDTH 15 0
BBX 15 14 0 0
BITMAP
0180
00C0
0000
7E7E
3C3C
3C3C
7878
7878
7878
7878
F0F0
F0F0
79E0
3FC0
ENDCHAR
STARTCHAR Uacute
ENCODING 218
SWIDTH 776 0
DWIDTH 15 0
BBX 15 14 0 0
BITMAP
00C0
0180
0000
7E7E
3C3C
3C3C
7878
7878
7878
7878
F0F0
F0F0
79E0
3FC0
ENDCHAR
STARTCHAR Ucircumflex
ENCODING 219
SWIDTH 776 0
DWIDTH 15 0
BBX 15 14 0 0
BITMAP
0180
02C0
0000
7E7E
3C3C
3C3C
7878
7878
7878
7878
F0F0
F0F0
79E0
3FC0
ENDCHAR
STARTCHAR Udieresis
ENCODING 220
SWIDTH 776 0
DWIDTH 15 0
BBX 15 14 0 0
BITMAP
0360
0360
0000
7E7E
3C3C
3C3C
7878
7878
7878
7878
F0F0
F0F0
79E0
3FC0
ENDCHAR
STARTCHAR Yacute
ENCODING 221
SWIDTH 622 0
DWIDTH 12 0
BBX 12 14 1 0
BITMAP
0180
0300
0000
FCF0
7860
7840
7880
7900
3E00
3C00
3C00
7800
7800
FC00
ENDCHAR
STARTCHAR Thorn
ENCODING 222
SWIDTH 629 0
DWIDTH 12 0
BBX 12 13 0 0
BITMAP
3F00
1E00
1E00
1FE0
3CF0
3CF0
3CF0
3CE0
3DE0
7F80
7800
7800
FC00
ENDCHAR
STARTCHAR germandbls
ENCODING 223
SWIDTH 628 0
DWIDTH 12 0
BBX 15 18 -3 -4
BITMAP
0078
01CC
038E
038E
038E
0F18
0730
0770
0F78
0E3C
0E1C
0E1C
1ED8
1CF0
1C00
DC00
D800
7000
ENDCHAR
STARTCHAR agrave
ENCODING 224
SWIDTH 596 0
DWIDTH 11 0
BBX 12 12 0 0
BITMAP
0180
00C0
0000
0EE0
39E0
70E0
71C0
F1C0
E3C0
E790
EBA0
71C0
ENDCHAR
STARTCHAR aacute
ENCODING 225
SWIDTH 596 0
DWIDTH 11 0
BBX 12 12 0 0
BITMAP
00C0
0180
0000
0EE0
39E0
70E0
71C0
F1C0
E3C0
E790
EBA0
71C0
ENDCHAR
STARTCHAR acircumflex
ENCODING 226
SWIDTH 596 0
DWIDTH 11 0
BBX 12 12 0 0
BITMAP
0180
02C0
0000
0EE0
39E0
70E0
71C0
F1C0
E3C0
E790
EBA0
71C0
ENDCHAR
STARTCHAR atilde
ENCODING 227
SWIDTH 596 0
DWIDTH 11 0
BBX 12 12 0 0
BITMAP
0760
0DC0
0000
0EE0
39E0
70E0
71C0
F1C0
E3C0
E790
EBA0
71C0
ENDCHAR
STARTCHAR adieresis
ENCODING 228
SWIDTH 596 0
DWIDTH 11 0
BBX 12 12 0 0
BITMAP
06C0
06C0
0000
0EE0
39E0
70E0
71C0
F1C0
E3C0
E790
EBA0
71C0
ENDCHAR
STARTCHAR aring
ENCODING 229
SWIDTH 596 0
DWIDTH 12 0
BBX 12 13 0 0
BITMAP
0300
0480
0300
0000
0EE0
39E0
70E0
71C0
F1C0
E3C0
E790
EBA0
71C0
ENDCHAR
STARTCHAR ae
ENCODING 230
SWIDTH 789 0
DWIDTH 15 0
BBX 15 9 0 0
BITMAP
0EBC
39EE
71CE
71DC
F3F0
E380
E784
EB88
71F0
ENDCHAR
STARTCHAR ccedilla
ENCODING 231
SWIDTH 456 0
DWIDTH 9 0
BBX 9 13 0 -4
BITMAP
0F00
3980
7100
7000
F000
E000
E100
6200
3C00
0800
1C00
0C00
3800
ENDCHAR
STARTCHAR egrave
ENCODING 232
SWIDTH 476 0
DWIDTH 9 0
BBX 9 12 0 0
BITMAP
0600
0300
0000
0F00
3B80
7380
7700
FC00
E000
E100
E200
7C00
ENDCHAR
STARTCHAR eacute
ENCODING 233
SWIDTH 476 0
DWIDTH 9 0
BBX 9 12 0 0
BITMAP
0300
0600
0000
0F00
3B80
7380
7700
FC00
E000
E100
E200
7C00
ENDCHAR
STARTCHAR ecircumflex
ENCODING 234
SWIDTH 476 0
DWIDTH 9 0
BBX 9 12 0 0
BITMAP
0600
0B00
0000
0F00
3B80
7380
7700
FC00
E000
E100
E200
7C00
ENDCHAR
STARTCHAR edieresis
ENCODING 235
SWIDTH 476 0
DWIDTH 9 0
BBX 9 12 0 0
BITMAP
1B00
1B00
0000
0F00
3B80
7380
7700
FC00
E000
E100
E200
7C00
ENDCHAR
STARTCHAR igrave
ENCODING 236
SWIDTH 339 0
DWIDTH 6 0
BBX 6 12 0 0
BITMAP
30
18
00
78
38
78
70
70
F0
E4
E8
70
ENDCHAR
STARTCHAR iacute
ENCODING 237
SWIDTH 339 0
DWIDTH 6 0
BBX 6 12 0 0
BITMAP
0C
18
00
78
38
78
70
70
F0
E4
E8
70
ENDCHAR
STARTCHAR icircumflex
ENCODING 238
SWIDTH 339 0
DWIDTH 6 0
BBX 6 12 0 0
BITMAP
18
2C
00
78
38
78
70
70
F0
E4
E8
70
ENDCHAR
STARTCHAR idieresis
ENCODING 239
SWIDTH 339 0
DWIDTH 6 0
BBX 6 12 0 0
BITMAP
6C
6C
00
78
38
78
70
70
F0
E4
E8
70
ENDCHAR
STARTCHAR eth
ENCODING 240
SWIDTH 562 0
DWIDTH 10 0
BBX 10 14 0 0
BITMAP
0400
0EC0
0700
1B00
0380
0F80
39C0
71C0
71C0
F3C0
E380
E380
E700
7E00
ENDCHAR
STARTCHAR ntilde
ENCODING 241
SWIDTH 635 0
DWIDTH 12 0
BBX 12 12 0 0
BITMAP
0EC0
1B80
0000
79C0
3AE0
3CE0
79E0
71C0
71C0
F3D0
E3A0
E1C0
ENDCHAR
STARTCHAR ograve
ENCODING 242
SWIDTH 562 0
DWIDTH 10 0
BBX 10 12 0 0
BITMAP
0600
0300
0000
0F80
39C0
71C0
71C0
F3C0
E380
E380
E700
7E00
ENDCHAR
STARTCHAR oacute
ENCODING 243
SWIDTH 562 0
DWIDTH 10 0
BBX 10 12 0 0
BITMAP
0300
0600
0000
0F80
39C0
71C0
71C0
F3C0
E380
E380
E700
7E00
ENDCHAR
STARTCHAR ocircumflex
ENCODING 244
SWIDTH 562 0
DWIDTH 10 0
BBX 10 12 0 0
BITMAP
0600
0B00
0000
0F80
39C0
71C0
71C0
F3C0
E380
E380
E700
7E00
ENDCHAR
STARTCHAR otilde
ENCODING 245
SWIDTH 562 0
DWIDTH 10 0
BBX 10 12 0 0
BITMAP
0EC0
1B80
0000
0F80
39C0
71C0
71C0
F3C0
E380
E380
E700
7E00
ENDCHAR
STARTCHAR odieresis
ENCODING 246
SWIDTH 562 0
DWIDTH 10 0
BBX 10 12 0 0
BITMAP
0D80
0D80
0000
0F80
39C0
71C0
71C0
F3C0
E380
E380
E700
7E00
ENDCHAR
STARTCHAR divide
ENCODING 247
SWIDTH 600 0
DWIDTH 11 0
BBX 10 10 0 0
BITMAP
0C00
1E00
0C00
0000
FFC0
FFC0
0000
0C00
1E00
0C00
ENDCHAR
STARTCHAR oslash
ENCODING 248
SWIDTH 562 0
DWIDTH 11 0
BBX 10 11 0 -1
BITMAP
0040
0F80
39C0
73C0
75C0
FBC0
EB80
F380
E700
7E00
8000
ENDCHAR
STARTCHAR ugrave
ENCODING 249
SWIDTH 634 0
DWIDTH 12 0
BBX 12 12 0 0
BITMAP
0600
0300
0000
78E0
38E0
79E0
71C0
71C0
F3C0
E790
EBA0
71C0
ENDCHAR
STARTCHAR uacute
ENCODING 250
SWIDTH 634 0
DWIDTH 12 0
BBX 12 12 0 0
BITMAP
0180
0300
0000
78E0
38E0
79E0
71C0
71C0
F3C0
E790
EBA0
71C0
ENDCHAR
STARTCHAR ucircumflex
ENCODING 251
SWIDTH 634 0
DWIDTH 12 0
BBX 12 12 0 0
BITMAP
0300
0580
0000
78E0
38E0
79E0
71C0
71C0
F3C0
E790
EBA0
71C0
ENDCHAR
STARTCHAR udieresis
ENCODING 252
SWIDTH 634 0
DWIDTH 12 0
BBX 12 12 0 0
BITMAP
0D80
0D80
0000
78E0
38E0
79E0
71C0
71C0
F3C0
E790
EBA0
71C0
ENDCHAR
STARTCHAR yacute
ENCODING 253
SWIDTH 489 0
DWIDTH 9 0
BBX 11 16 -2 -4
BITMAP
00C0
0180
0000
3C60
1C60
1CC0
1CC0
1C80
1F00
0F00
0E00
0C00
0C00
0800
D000
E000
ENDCHAR
STARTCHAR thorn
ENCODING 254
SWIDTH 600 0
DWIDTH 12 0
BBX 12 18 -1 -4
BITMAP
1E00
0E00
0E00
1E00
1C00
1CE0
1D70
3E70
3C70
38F0
38E0
78E0
79C0
7780
7000
E000
E000
E000
ENDCHAR
STARTCHAR ydieresis
ENCODING 255
SWIDTH 489 0
DWIDTH 9 0
BBX 11 16 -2 -4
BITMAP
06C0
06C0
0000
3C60
1C60
1CC0
1CC0
1C80
1F00
0F00
0E00
0C00
0C00
0800
D000
E000
ENDCHAR
ENDFONT
