STARTFONT 2.1
COMMENT AUTOMATICALLY GENERATED FILE. DO NOT EDIT!
COMMENT Generated with 'ucs2any.pl UTBI__14.bdf ../../../fonts/util/map-ISO8859-1 ISO8859-1'
COMMENT from an ISO10646-1 encoded source BDF font.
COMMENT ucs2any.pl by Markus Kuhn <mkuhn@acm.org>, 2000.
FONT -Adobe-Utopia-Bold-I-Normal--15-140-75-75-P-82-ISO8859-1
SIZE 14 75 75
FONTBOUNDINGBOX 17 15 -2 -3
COMMENT $Xorg: $
COMMENT ISO10646-1 extension by Markus Kuhn <mkuhn@acm.org>, 2001-03-20
STARTPROPERTIES 28
FOUNDRY "Adobe"
FAMILY_NAME "Utopia"
WEIGHT_NAME "Bold"
SLANT "I"
SETWIDTH_NAME "Normal"
ADD_STYLE_NAME ""
PIXEL_SIZE 15
POINT_SIZE 140
RESOLUTION_X 75
RESOLUTION_Y 75
SPACING "P"
AVERAGE_WIDTH 82
CHARSET_REGISTRY "ISO8859"
CHARSET_ENCODING "1"
CAP_HEIGHT 10
X_HEIGHT 7
RELATIVE_SETWIDTH 50
RELATIVE_WEIGHT 70
WEIGHT 208
FACE_NAME "Utopia Bold Italic"
COPYRIGHT "Copyright (c) 1989, 1991 Adobe Systems Incorporated.  All rights reserved."
NOTICE "Utopia is a registered trademark of Adobe Systems Incorporated."
DESTINATION 0
FONT_ASCENT 12
FONT_DESCENT 3
DEFAULT_CHAR 0
_ADOBE_PSFONT "Utopia-BoldItalic"
_DEC_DEVICE_FONTNAMES "PS=Utopia-BoldItalic"
ENDPROPERTIES
CHARS 192
STARTCHAR defaultchar
ENCODING 0
SWIDTH 800 0
DWIDTH 12 0
BBX 13 9 -1 0
BITMAP
AAA8
0000
8008
0000
8008
0000
8008
0000
AAA8
ENDCHAR
STARTCHAR space
ENCODING 32
SWIDTH 210 0
DWIDTH 3 0
BBX 0 0 0 0
BITMAP
ENDCHAR
STARTCHAR exclam
ENCODING 33
SWIDTH 285 0
DWIDTH 4 0
BBX 4 10 0 0
BITMAP
30
70
70
60
60
40
00
00
C0
C0
ENDCHAR
STARTCHAR quotedbl
ENCODING 34
SWIDTH 455 0
DWIDTH 8 0
BBX 5 5 2 5
BITMAP
D8
D8
90
90
90
ENDCHAR
STARTCHAR numbersign
ENCODING 35
SWIDTH 560 0
DWIDTH 8 0
BBX 8 9 0 1
BITMAP
12
12
7F
24
24
24
FE
48
48
ENDCHAR
STARTCHAR dollar
ENCODING 36
SWIDTH 560 0
DWIDTH 8 0
BBX 8 12 0 -1
BITMAP
04
1E
2F
6B
78
38
1C
1E
D6
F4
78
20
ENDCHAR
STARTCHAR percent
ENCODING 37
SWIDTH 896 0
DWIDTH 13 0
BBX 12 10 0 0
BITMAP
3840
4FC0
CC80
C900
7200
04E0
0930
1330
2320
41C0
ENDCHAR
STARTCHAR ampersand
ENCODING 38
SWIDTH 752 0
DWIDTH 12 0
BBX 11 10 0 0
BITMAP
1F00
3980
3100
1A00
3C60
7E60
E740
C380
E3C0
7CE0
ENDCHAR
STARTCHAR quotesingle
ENCODING 39
SWIDTH 246 0
DWIDTH 5 0
BBX 2 5 2 5
BITMAP
C0
C0
80
80
80
ENDCHAR
STARTCHAR parenleft
ENCODING 40
SWIDTH 350 0
DWIDTH 5 0
BBX 5 12 0 -2
BITMAP
18
30
60
60
C0
C0
C0
C0
C0
C0
C0
60
ENDCHAR
STARTCHAR parenright
ENCODING 41
SWIDTH 350 0
DWIDTH 5 0
BBX 5 12 -1 -2
BITMAP
30
18
18
18
18
18
18
18
30
30
60
C0
ENDCHAR
STARTCHAR asterisk
ENCODING 42
SWIDTH 500 0
DWIDTH 7 0
BBX 6 6 1 4
BITMAP
10
54
38
70
A8
20
ENDCHAR
STARTCHAR plus
ENCODING 43
SWIDTH 600 0
DWIDTH 9 0
BBX 8 7 0 0
BITMAP
18
18
18
FF
18
18
18
ENDCHAR
STARTCHAR comma
ENCODING 44
SWIDTH 280 0
DWIDTH 4 0
BBX 3 4 -1 -2
BITMAP
60
60
40
80
ENDCHAR
STARTCHAR hyphen
ENCODING 45
SWIDTH 392 0
DWIDTH 6 0
BBX 4 1 1 3
BITMAP
F0
ENDCHAR
STARTCHAR period
ENCODING 46
SWIDTH 280 0
DWIDTH 4 0
BBX 2 2 0 0
BITMAP
C0
C0
ENDCHAR
STARTCHAR slash
ENCODING 47
SWIDTH 260 0
DWIDTH 6 0
BBX 4 10 1 0
BITMAP
30
30
30
60
60
60
60
C0
C0
C0
ENDCHAR
STARTCHAR zero
ENCODING 48
SWIDTH 560 0
DWIDTH 8 0
BBX 8 10 0 0
BITMAP
1E
37
77
67
E7
E7
E6
EE
EC
78
ENDCHAR
STARTCHAR one
ENCODING 49
SWIDTH 560 0
DWIDTH 8 0
BBX 6 10 0 0
BITMAP
1C
3C
1C
38
38
38
38
70
70
F8
ENDCHAR
STARTCHAR two
ENCODING 50
SWIDTH 560 0
DWIDTH 8 0
BBX 8 10 0 0
BITMAP
3E
77
67
07
0E
38
60
C2
FE
FE
ENDCHAR
STARTCHAR three
ENCODING 51
SWIDTH 560 0
DWIDTH 8 0
BBX 8 10 0 0
BITMAP
3E
77
67
0E
3C
0E
0E
CE
EC
78
ENDCHAR
STARTCHAR four
ENCODING 52
SWIDTH 560 0
DWIDTH 8 0
BBX 8 10 0 0
BITMAP
1C
1C
38
38
76
6E
CE
FF
1C
3E
ENDCHAR
STARTCHAR five
ENCODING 53
SWIDTH 560 0
DWIDTH 8 0
BBX 8 10 0 0
BITMAP
3F
3E
20
40
7C
0E
0E
CE
EC
78
ENDCHAR
STARTCHAR six
ENCODING 54
SWIDTH 560 0
DWIDTH 8 0
BBX 8 10 0 0
BITMAP
1E
37
73
60
FC
EE
E6
E6
EC
78
ENDCHAR
STARTCHAR seven
ENCODING 55
SWIDTH 560 0
DWIDTH 8 0
BBX 7 10 1 0
BITMAP
FE
FE
8C
18
18
38
38
70
70
70
ENDCHAR
STARTCHAR eight
ENCODING 56
SWIDTH 560 0
DWIDTH 8 0
BBX 8 10 0 0
BITMAP
1E
33
73
77
3E
7C
EE
CE
CC
78
ENDCHAR
STARTCHAR nine
ENCODING 57
SWIDTH 560 0
DWIDTH 8 0
BBX 8 10 0 0
BITMAP
1E
37
67
67
77
3F
06
CE
EC
78
ENDCHAR
STARTCHAR colon
ENCODING 58
SWIDTH 280 0
DWIDTH 4 0
BBX 3 7 0 0
BITMAP
60
60
00
00
00
C0
C0
ENDCHAR
STARTCHAR semicolon
ENCODING 59
SWIDTH 280 0
DWIDTH 4 0
BBX 4 9 -1 -2
BITMAP
30
30
00
00
00
60
60
40
80
ENDCHAR
STARTCHAR less
ENCODING 60
SWIDTH 600 0
DWIDTH 9 0
BBX 7 7 1 0
BITMAP
06
1E
78
E0
78
1E
06
ENDCHAR
STARTCHAR equal
ENCODING 61
SWIDTH 600 0
DWIDTH 9 0
BBX 8 4 0 2
BITMAP
FF
00
00
FF
ENDCHAR
STARTCHAR greater
ENCODING 62
SWIDTH 600 0
DWIDTH 9 0
BBX 7 7 1 0
BITMAP
C0
F0
3C
0E
3C
F0
C0
ENDCHAR
STARTCHAR question
ENCODING 63
SWIDTH 454 0
DWIDTH 7 0
BBX 6 10 1 0
BITMAP
78
DC
9C
38
70
60
00
00
C0
C0
ENDCHAR
STARTCHAR at
ENCODING 64
SWIDTH 828 0
DWIDTH 13 0
BBX 12 10 0 0
BITMAP
1FC0
3060
63B0
CDB0
D9B0
DB30
DB60
CDC0
6000
3F80
ENDCHAR
STARTCHAR A
ENCODING 65
SWIDTH 634 0
DWIDTH 9 0
BBX 10 10 -2 0
BITMAP
0300
0700
0700
0B00
1300
1380
3F80
4380
4380
E7C0
ENDCHAR
STARTCHAR B
ENCODING 66
SWIDTH 680 0
DWIDTH 10 0
BBX 11 10 -1 0
BITMAP
3FC0
1CE0
1CE0
39C0
3F80
39C0
39C0
71C0
7380
FF00
ENDCHAR
STARTCHAR C
ENCODING 67
SWIDTH 672 0
DWIDTH 10 0
BBX 9 10 0 0
BITMAP
0F80
3980
7080
7000
E000
E000
E000
E100
6300
3E00
ENDCHAR
STARTCHAR D
ENCODING 68
SWIDTH 774 0
DWIDTH 12 0
BBX 12 10 -1 0
BITMAP
3FC0
1C60
1C70
3870
3870
3870
38E0
70E0
71C0
FF00
ENDCHAR
STARTCHAR E
ENCODING 69
SWIDTH 622 0
DWIDTH 9 0
BBX 10 10 -1 0
BITMAP
3FC0
1CC0
1C40
3900
3F00
3900
3800
7080
7180
FF80
ENDCHAR
STARTCHAR F
ENCODING 70
SWIDTH 585 0
DWIDTH 9 0
BBX 10 10 -1 0
BITMAP
3FC0
1CC0
1C40
3900
3F00
3900
3800
7000
7000
F800
ENDCHAR
STARTCHAR G
ENCODING 71
SWIDTH 726 0
DWIDTH 10 0
BBX 10 10 0 0
BITMAP
0F80
3980
7080
7000
E000
E7C0
E380
E380
6780
3E00
ENDCHAR
STARTCHAR H
ENCODING 72
SWIDTH 800 0
DWIDTH 12 0
BBX 13 10 -1 0
BITMAP
3EF8
1C70
1C70
38E0
3FE0
38E0
38E0
71C0
71C0
FBE0
ENDCHAR
STARTCHAR I
ENCODING 73
SWIDTH 386 0
DWIDTH 6 0
BBX 7 10 -1 0
BITMAP
3E
1C
1C
38
38
38
38
70
70
F8
ENDCHAR
STARTCHAR J
ENCODING 74
SWIDTH 388 0
DWIDTH 6 0
BBX 8 12 -2 -2
BITMAP
1F
0E
0E
1C
1C
1C
1C
38
38
38
30
E0
ENDCHAR
STARTCHAR K
ENCODING 75
SWIDTH 688 0
DWIDTH 12 0
BBX 12 10 0 0
BITMAP
3EF0
1C60
1C80
3900
3B00
3F00
3B80
7380
71C0
F9E0
ENDCHAR
STARTCHAR L
ENCODING 76
SWIDTH 586 0
DWIDTH 9 0
BBX 9 10 -1 0
BITMAP
3E00
1C00
1C00
3800
3800
3800
3800
7080
7180
FF80
ENDCHAR
STARTCHAR M
ENCODING 77
SWIDTH 921 0
DWIDTH 14 0
BBX 15 10 -1 0
BITMAP
3C1E
1C3C
1C5C
2E78
2EB8
2F38
2F38
4670
4670
E4F8
ENDCHAR
STARTCHAR N
ENCODING 78
SWIDTH 741 0
DWIDTH 11 0
BBX 12 10 -1 0
BITMAP
3C70
1C20
1E20
3E40
2F40
27C0
27C0
4380
4380
E180
ENDCHAR
STARTCHAR O
ENCODING 79
SWIDTH 761 0
DWIDTH 12 0
BBX 11 10 0 0
BITMAP
0F80
38C0
70E0
70E0
F0E0
E1E0
E1C0
E1C0
6380
3E00
ENDCHAR
STARTCHAR P
ENCODING 80
SWIDTH 660 0
DWIDTH 10 0
BBX 11 10 -1 0
BITMAP
3FC0
1CE0
1CE0
38E0
39C0
3F80
3800
7000
7000
F800
ENDCHAR
STARTCHAR Q
ENCODING 81
SWIDTH 761 0
DWIDTH 12 0
BBX 11 13 0 -3
BITMAP
0F80
38C0
70E0
70E0
F0E0
E1E0
E1C0
E1C0
6380
3E00
0E00
0700
0380
ENDCHAR
STARTCHAR R
ENCODING 82
SWIDTH 681 0
DWIDTH 10 0
BBX 11 10 -1 0
BITMAP
3FC0
1CE0
1CE0
39C0
3F80
3B80
3B80
71C0
71C0
F9E0
ENDCHAR
STARTCHAR S
ENCODING 83
SWIDTH 551 0
DWIDTH 8 0
BBX 9 10 -1 0
BITMAP
0F80
1980
3100
3800
3C00
1E00
0E00
4600
CC00
F800
ENDCHAR
STARTCHAR T
ENCODING 84
SWIDTH 616 0
DWIDTH 9 0
BBX 9 10 0 0
BITMAP
FF80
DD80
9C80
3800
3800
3800
3800
7000
7000
F800
ENDCHAR
STARTCHAR U
ENCODING 85
SWIDTH 776 0
DWIDTH 12 0
BBX 12 10 0 0
BITMAP
7DF0
38E0
38E0
71C0
71C0
71C0
E380
E380
E380
7F00
ENDCHAR
STARTCHAR V
ENCODING 86
SWIDTH 630 0
DWIDTH 9 0
BBX 10 10 0 0
BITMAP
F9C0
7080
7080
7100
7200
3A00
3C00
3800
3800
3000
ENDCHAR
STARTCHAR W
ENCODING 87
SWIDTH 920 0
DWIDTH 14 0
BBX 15 10 0 0
BITMAP
F9CE
71C4
71C4
73C8
73C8
34D0
34D0
38E0
38E0
30C0
ENDCHAR
STARTCHAR X
ENCODING 88
SWIDTH 630 0
DWIDTH 10 0
BBX 11 10 -1 0
BITMAP
3EE0
1C40
1C80
0F00
0E00
0E00
1E00
2700
4700
EF80
ENDCHAR
STARTCHAR Y
ENCODING 89
SWIDTH 622 0
DWIDTH 9 0
BBX 9 10 1 0
BITMAP
FB80
7100
7200
7400
3800
3800
3800
7000
7000
F800
ENDCHAR
STARTCHAR Z
ENCODING 90
SWIDTH 618 0
DWIDTH 9 0
BBX 10 10 -1 0
BITMAP
3FC0
3380
2700
0700
0E00
1C00
3800
3900
7300
FF00
ENDCHAR
STARTCHAR bracketleft
ENCODING 91
SWIDTH 350 0
DWIDTH 5 0
BBX 5 12 0 -2
BITMAP
38
30
30
30
60
60
60
60
C0
C0
C0
E0
ENDCHAR
STARTCHAR backslash
ENCODING 92
SWIDTH 460 0
DWIDTH 6 0
BBX 4 10 1 0
BITMAP
C0
C0
C0
60
60
60
60
30
30
30
ENDCHAR
STARTCHAR bracketright
ENCODING 93
SWIDTH 350 0
DWIDTH 5 0
BBX 5 12 -1 -2
BITMAP
38
18
18
18
30
30
30
30
60
60
60
E0
ENDCHAR
STARTCHAR asciicircum
ENCODING 94
SWIDTH 600 0
DWIDTH 9 0
BBX 7 7 1 3
BITMAP
10
38
38
6C
6C
C6
C6
ENDCHAR
STARTCHAR underscore
ENCODING 95
SWIDTH 500 0
DWIDTH 7 0
BBX 7 1 0 -2
BITMAP
FE
ENDCHAR
STARTCHAR grave
ENCODING 96
SWIDTH 400 0
DWIDTH 6 0
BBX 3 2 1 8
BITMAP
C0
60
ENDCHAR
STARTCHAR a
ENCODING 97
SWIDTH 596 0
DWIDTH 9 0
BBX 9 7 0 0
BITMAP
3F00
7700
6700
EE00
EE00
FE80
6700
ENDCHAR
STARTCHAR b
ENCODING 98
SWIDTH 586 0
DWIDTH 9 0
BBX 8 11 0 0
BITMAP
78
38
38
70
76
7F
77
E7
E6
EE
FC
ENDCHAR
STARTCHAR c
ENCODING 99
SWIDTH 456 0
DWIDTH 7 0
BBX 6 7 0 0
BITMAP
3C
74
60
E0
E4
E8
70
ENDCHAR
STARTCHAR d
ENCODING 100
SWIDTH 609 0
DWIDTH 9 0
BBX 9 11 0 0
BITMAP
0780
0380
0380
0380
3F00
7700
6700
E700
EE00
FE80
6700
ENDCHAR
STARTCHAR e
ENCODING 101
SWIDTH 476 0
DWIDTH 7 0
BBX 6 7 0 0
BITMAP
3C
74
68
F0
E4
E8
70
ENDCHAR
STARTCHAR f
ENCODING 102
SWIDTH 348 0
DWIDTH 5 0
BBX 9 14 -2 -3
BITMAP
0380
0680
0E00
0E00
3F00
1C00
1C00
1C00
3800
3800
3800
3800
B000
E000
ENDCHAR
STARTCHAR g
ENCODING 103
SWIDTH 522 0
DWIDTH 8 0
BBX 9 10 -1 -3
BITMAP
1F80
3700
7700
7600
3C00
3800
3E00
4F00
C700
7E00
ENDCHAR
STARTCHAR h
ENCODING 104
SWIDTH 629 0
DWIDTH 9 0
BBX 9 11 0 0
BITMAP
7800
3800
3800
3800
7600
7F00
7700
6700
EE00
EE80
E700
ENDCHAR
STARTCHAR i
ENCODING 105
SWIDTH 339 0
DWIDTH 5 0
BBX 5 10 0 0
BITMAP
38
38
00
F0
70
70
E0
E0
E8
70
ENDCHAR
STARTCHAR j
ENCODING 106
SWIDTH 333 0
DWIDTH 5 0
BBX 7 13 -2 -3
BITMAP
0E
0E
00
3C
1C
1C
1C
38
38
38
38
B8
F0
ENDCHAR
STARTCHAR k
ENCODING 107
SWIDTH 570 0
DWIDTH 8 0
BBX 9 11 0 0
BITMAP
7800
3800
3800
7000
7300
7700
7C00
EC00
EE00
E780
E700
ENDCHAR
STARTCHAR l
ENCODING 108
SWIDTH 327 0
DWIDTH 5 0
BBX 5 11 0 0
BITMAP
78
38
38
70
70
70
70
E0
E0
E8
70
ENDCHAR
STARTCHAR m
ENCODING 109
SWIDTH 914 0
DWIDTH 13 0
BBX 13 7 0 0
BITMAP
F660
7FF0
7770
7770
EEE0
EEE8
EE70
ENDCHAR
STARTCHAR n
ENCODING 110
SWIDTH 635 0
DWIDTH 9 0
BBX 9 7 0 0
BITMAP
F600
7F00
7700
7700
EE00
EE80
E700
ENDCHAR
STARTCHAR o
ENCODING 111
SWIDTH 562 0
DWIDTH 8 0
BBX 8 7 0 0
BITMAP
3E
77
67
E7
E6
EE
7C
ENDCHAR
STARTCHAR p
ENCODING 112
SWIDTH 606 0
DWIDTH 9 0
BBX 9 10 -1 -3
BITMAP
7B00
3F80
3B80
7380
7300
7700
7E00
E000
E000
E000
ENDCHAR
STARTCHAR q
ENCODING 113
SWIDTH 584 0
DWIDTH 9 0
BBX 8 10 0 -3
BITMAP
3F
77
67
EE
EE
FE
6E
1C
1C
1C
ENDCHAR
STARTCHAR r
ENCODING 114
SWIDTH 440 0
DWIDTH 6 0
BBX 6 7 0 0
BITMAP
EC
7C
70
70
E0
E0
E0
ENDCHAR
STARTCHAR s
ENCODING 115
SWIDTH 417 0
DWIDTH 6 0
BBX 7 7 -1 0
BITMAP
1C
36
78
3C
1C
D8
70
ENDCHAR
STARTCHAR t
ENCODING 116
SWIDTH 359 0
DWIDTH 5 0
BBX 5 9 0 0
BITMAP
30
70
F8
70
70
E0
E0
E8
70
ENDCHAR
STARTCHAR u
ENCODING 117
SWIDTH 634 0
DWIDTH 9 0
BBX 9 7 0 0
BITMAP
F700
7700
7700
EE00
EE00
FE80
6700
ENDCHAR
STARTCHAR v
ENCODING 118
SWIDTH 518 0
DWIDTH 8 0
BBX 8 7 0 0
BITMAP
F3
73
72
E6
E4
E8
70
ENDCHAR
STARTCHAR w
ENCODING 119
SWIDTH 795 0
DWIDTH 12 0
BBX 12 7 0 0
BITMAP
F330
7330
7730
E760
E640
EE80
7300
ENDCHAR
STARTCHAR x
ENCODING 120
SWIDTH 516 0
DWIDTH 8 0
BBX 9 7 -1 0
BITMAP
7980
3A80
3A00
1C00
2E00
AE00
CF00
ENDCHAR
STARTCHAR y
ENCODING 121
SWIDTH 489 0
DWIDTH 7 0
BBX 8 10 -1 -3
BITMAP
7B
3B
3A
3A
3C
18
18
10
E0
C0
ENDCHAR
STARTCHAR z
ENCODING 122
SWIDTH 466 0
DWIDTH 7 0
BBX 6 7 0 0
BITMAP
7C
FC
98
30
64
FC
B8
ENDCHAR
STARTCHAR braceleft
ENCODING 123
SWIDTH 340 0
DWIDTH 5 0
BBX 5 12 0 -2
BITMAP
18
30
30
30
60
C0
60
60
C0
C0
C0
60
ENDCHAR
STARTCHAR bar
ENCODING 124
SWIDTH 265 0
DWIDTH 4 0
BBX 2 10 1 0
BITMAP
C0
C0
C0
C0
C0
C0
C0
C0
C0
C0
ENDCHAR
STARTCHAR braceright
ENCODING 125
SWIDTH 340 0
DWIDTH 5 0
BBX 5 12 -1 -2
BITMAP
30
18
18
30
30
18
30
60
60
60
60
C0
ENDCHAR
STARTCHAR asciitilde
ENCODING 126
SWIDTH 600 0
DWIDTH 9 0
BBX 8 2 0 3
BITMAP
79
9E
ENDCHAR
STARTCHAR space
ENCODING 160
SWIDTH 210 0
DWIDTH 3 0
BBX 0 0 0 0
BITMAP
ENDCHAR
STARTCHAR exclamdown
ENCODING 161
SWIDTH 285 0
DWIDTH 4 0
BBX 4 10 -1 -3
BITMAP
30
30
00
00
20
60
60
E0
E0
C0
ENDCHAR
STARTCHAR cent
ENCODING 162
SWIDTH 560 0
DWIDTH 8 0
BBX 8 10 0 0
BITMAP
04
3E
6F
EB
C8
D0
D2
F4
78
20
ENDCHAR
STARTCHAR sterling
ENCODING 163
SWIDTH 560 0
DWIDTH 8 0
BBX 8 10 0 0
BITMAP
1E
37
73
70
38
7E
38
71
FF
FE
ENDCHAR
STARTCHAR currency
ENCODING 164
SWIDTH 560 0
DWIDTH 8 0
BBX 7 9 0 1
BITMAP
82
FE
6C
C6
C6
C6
6C
FE
82
ENDCHAR
STARTCHAR yen
ENCODING 165
SWIDTH 560 0
DWIDTH 8 0
BBX 8 10 0 0
BITMAP
F7
72
76
74
FE
38
FC
70
70
F8
ENDCHAR
STARTCHAR brokenbar
ENCODING 166
SWIDTH 265 0
DWIDTH 4 0
BBX 2 10 1 0
BITMAP
C0
C0
C0
C0
00
00
C0
C0
C0
C0
ENDCHAR
STARTCHAR section
ENCODING 167
SWIDTH 568 0
DWIDTH 8 0
BBX 7 12 0 -2
BITMAP
1E
32
30
38
5C
CE
E6
74
38
18
98
F0
ENDCHAR
STARTCHAR dieresis
ENCODING 168
SWIDTH 400 0
DWIDTH 6 0
BBX 5 2 1 8
BITMAP
D8
D8
ENDCHAR
STARTCHAR copyright
ENCODING 169
SWIDTH 824 0
DWIDTH 12 0
BBX 11 10 0 0
BITMAP
1F00
2080
4E40
9920
9020
9020
9920
4E40
2080
1F00
ENDCHAR
STARTCHAR ordfeminine
ENCODING 170
SWIDTH 444 0
DWIDTH 6 0
BBX 6 5 0 4
BITMAP
3C
6C
D8
F8
DC
ENDCHAR
STARTCHAR guillemotleft
ENCODING 171
SWIDTH 560 0
DWIDTH 8 0
BBX 7 6 0 0
BITMAP
12
24
48
D8
48
24
ENDCHAR
STARTCHAR logicalnot
ENCODING 172
SWIDTH 600 0
DWIDTH 9 0
BBX 8 4 0 2
BITMAP
FF
03
03
03
ENDCHAR
STARTCHAR hyphen
ENCODING 173
SWIDTH 392 0
DWIDTH 6 0
BBX 4 1 1 3
BITMAP
F0
ENDCHAR
STARTCHAR registered
ENCODING 174
SWIDTH 824 0
DWIDTH 12 0
BBX 11 10 0 0
BITMAP
1F00
2080
5E40
8920
8920
8E20
8920
5940
2080
1F00
ENDCHAR
STARTCHAR macron
ENCODING 175
SWIDTH 400 0
DWIDTH 6 0
BBX 5 1 1 8
BITMAP
F8
ENDCHAR
STARTCHAR degree
ENCODING 176
SWIDTH 375 0
DWIDTH 6 0
BBX 4 4 1 6
BITMAP
60
90
90
60
ENDCHAR
STARTCHAR plusminus
ENCODING 177
SWIDTH 600 0
DWIDTH 9 0
BBX 8 8 0 0
BITMAP
18
18
18
FF
18
18
00
FF
ENDCHAR
STARTCHAR twosuperior
ENCODING 178
SWIDTH 402 0
DWIDTH 6 0
BBX 5 6 1 4
BITMAP
70
D8
30
60
C0
F0
ENDCHAR
STARTCHAR threesuperior
ENCODING 179
SWIDTH 402 0
DWIDTH 6 0
BBX 6 6 0 4
BITMAP
38
0C
38
18
D8
70
ENDCHAR
STARTCHAR acute
ENCODING 180
SWIDTH 400 0
DWIDTH 6 0
BBX 3 2 1 8
BITMAP
60
C0
ENDCHAR
STARTCHAR mu
ENCODING 181
SWIDTH 634 0
DWIDTH 10 0
BBX 11 10 -1 -3
BITMAP
79C0
39C0
39C0
7380
7780
7BA0
71C0
E000
E000
E000
ENDCHAR
STARTCHAR paragraph
ENCODING 182
SWIDTH 580 0
DWIDTH 9 0
BBX 8 12 1 -2
BITMAP
37
76
F6
F6
EC
EC
6C
0C
18
18
18
38
ENDCHAR
STARTCHAR periodcentered
ENCODING 183
SWIDTH 280 0
DWIDTH 4 0
BBX 4 3 0 3
BITMAP
60
F0
60
ENDCHAR
STARTCHAR cedilla
ENCODING 184
SWIDTH 400 0
DWIDTH 5 0
BBX 3 3 1 -3
BITMAP
40
20
E0
ENDCHAR
STARTCHAR onesuperior
ENCODING 185
SWIDTH 402 0
DWIDTH 6 0
BBX 4 6 1 4
BITMAP
70
30
30
60
60
F0
ENDCHAR
STARTCHAR ordmasculine
ENCODING 186
SWIDTH 412 0
DWIDTH 6 0
BBX 6 5 0 4
BITMAP
38
6C
CC
D8
70
ENDCHAR
STARTCHAR guillemotright
ENCODING 187
SWIDTH 560 0
DWIDTH 8 0
BBX 7 6 0 0
BITMAP
48
24
36
24
48
90
ENDCHAR
STARTCHAR onequarter
ENCODING 188
SWIDTH 940 0
DWIDTH 13 0
BBX 12 10 0 0
BITMAP
7100
3100
3200
64C0
64C0
F9A0
0960
1260
23F0
20C0
ENDCHAR
STARTCHAR onehalf
ENCODING 189
SWIDTH 940 0
DWIDTH 13 0
BBX 12 10 0 0
BITMAP
7080
3080
3100
6200
62E0
F5B0
0460
08C0
1180
11E0
ENDCHAR
STARTCHAR threequarters
ENCODING 190
SWIDTH 940 0
DWIDTH 13 0
BBX 12 10 0 0
BITMAP
3880
0C80
3900
1AC0
DAC0
75A0
0560
0A60
13F0
10C0
ENDCHAR
STARTCHAR questiondown
ENCODING 191
SWIDTH 454 0
DWIDTH 7 0
BBX 6 10 -1 -3
BITMAP
0C
0C
00
00
18
38
70
E4
EC
78
ENDCHAR
STARTCHAR Agrave
ENCODING 192
SWIDTH 634 0
DWIDTH 9 0
BBX 10 12 -2 0
BITMAP
0600
0300
0000
0300
0700
0B00
0B00
1380
3F80
2380
4380
E7C0
ENDCHAR
STARTCHAR Aacute
ENCODING 193
SWIDTH 634 0
DWIDTH 9 0
BBX 10 12 -2 0
BITMAP
0180
0300
0000
0300
0700
0B00
0B00
1380
3F80
2380
4380
E7C0
ENDCHAR
STARTCHAR Acircumflex
ENCODING 194
SWIDTH 634 0
DWIDTH 9 0
BBX 10 12 -2 0
BITMAP
0300
0580
0000
0300
0700
0B00
0B00
1380
3F80
2380
4380
E7C0
ENDCHAR
STARTCHAR Atilde
ENCODING 195
SWIDTH 634 0
DWIDTH 9 0
BBX 10 12 -2 0
BITMAP
0340
0580
0000
0300
0700
0B00
0B00
1380
3F80
2380
4380
E7C0
ENDCHAR
STARTCHAR Adieresis
ENCODING 196
SWIDTH 634 0
DWIDTH 9 0
BBX 10 12 -2 0
BITMAP
06C0
06C0
0000
0300
0700
0B00
0B00
1380
3F80
2380
4380
E7C0
ENDCHAR
STARTCHAR Aring
ENCODING 197
SWIDTH 634 0
DWIDTH 9 0
BBX 10 12 -2 0
BITMAP
0300
0480
0300
0300
0700
0B00
0B00
1380
3F80
2380
4380
E7C0
ENDCHAR
STARTCHAR AE
ENCODING 198
SWIDTH 890 0
DWIDTH 13 0
BBX 15 10 -2 0
BITMAP
03FE
01E6
02E2
05C8
09F8
09C8
1FC0
2384
438C
E7FC
ENDCHAR
STARTCHAR Ccedilla
ENCODING 199
SWIDTH 672 0
DWIDTH 10 0
BBX 9 13 0 -3
BITMAP
0F80
3980
7080
7000
E000
E000
E000
E100
6300
3E00
1000
0800
3800
ENDCHAR
STARTCHAR Egrave
ENCODING 200
SWIDTH 622 0
DWIDTH 9 0
BBX 10 12 -1 0
BITMAP
0600
0300
0000
3FC0
1CC0
1C40
3900
3F00
3900
7080
7180
FF80
ENDCHAR
STARTCHAR Eacute
ENCODING 201
SWIDTH 622 0
DWIDTH 9 0
BBX 10 12 -1 0
BITMAP
0180
0300
0000
3FC0
1CC0
1C40
3900
3F00
3900
7080
7180
FF80
ENDCHAR
STARTCHAR Ecircumflex
ENCODING 202
SWIDTH 622 0
DWIDTH 9 0
BBX 10 12 -1 0
BITMAP
0300
0580
0000
3FC0
1CC0
1C40
3900
3F00
3900
7080
7180
FF80
ENDCHAR
STARTCHAR Edieresis
ENCODING 203
SWIDTH 622 0
DWIDTH 9 0
BBX 10 12 -1 0
BITMAP
0D80
0D80
0000
3FC0
1CC0
1C40
3900
3F00
3900
7080
7180
FF80
ENDCHAR
STARTCHAR Igrave
ENCODING 204
SWIDTH 386 0
DWIDTH 6 0
BBX 7 12 -1 0
BITMAP
18
0C
00
3E
1C
1C
38
38
38
70
70
F8
ENDCHAR
STARTCHAR Iacute
ENCODING 205
SWIDTH 386 0
DWIDTH 6 0
BBX 7 12 -1 0
BITMAP
06
0C
00
3E
1C
1C
38
38
38
70
70
F8
ENDCHAR
STARTCHAR Icircumflex
ENCODING 206
SWIDTH 386 0
DWIDTH 6 0
BBX 7 12 -1 0
BITMAP
0C
16
00
3E
1C
1C
38
38
38
70
70
F8
ENDCHAR
STARTCHAR Idieresis
ENCODING 207
SWIDTH 386 0
DWIDTH 6 0
BBX 7 12 -1 0
BITMAP
36
36
00
3E
1C
1C
38
38
38
70
70
F8
ENDCHAR
STARTCHAR Eth
ENCODING 208
SWIDTH 780 0
DWIDTH 12 0
BBX 12 10 -1 0
BITMAP
3FC0
1C60
1C70
3870
7E70
3870
38E0
70E0
71C0
FF00
ENDCHAR
STARTCHAR Ntilde
ENCODING 209
SWIDTH 741 0
DWIDTH 11 0
BBX 12 12 -1 0
BITMAP
0340
0580
0000
3C70
1C20
1E20
2E40
2740
27C0
4380
4380
E180
ENDCHAR
STARTCHAR Ograve
ENCODING 210
SWIDTH 761 0
DWIDTH 12 0
BBX 11 12 0 0
BITMAP
0600
0300
0000
0F80
38C0
70E0
70E0
F1E0
E1C0
E1C0
6380
3E00
ENDCHAR
STARTCHAR Oacute
ENCODING 211
SWIDTH 761 0
DWIDTH 12 0
BBX 11 12 0 0
BITMAP
0180
0300
0000
0F80
38C0
70E0
70E0
F1E0
E1C0
E1C0
6380
3E00
ENDCHAR
STARTCHAR Ocircumflex
ENCODING 212
SWIDTH 761 0
DWIDTH 12 0
BBX 11 12 0 0
BITMAP
0300
0580
0000
0F80
38C0
70E0
70E0
F1E0
E1C0
E1C0
6380
3E00
ENDCHAR
STARTCHAR Otilde
ENCODING 213
SWIDTH 761 0
DWIDTH 12 0
BBX 11 12 0 0
BITMAP
0680
0B00
0000
0F80
38C0
70E0
70E0
F1E0
E1C0
E1C0
6380
3E00
ENDCHAR
STARTCHAR Odieresis
ENCODING 214
SWIDTH 761 0
DWIDTH 12 0
BBX 11 12 0 0
BITMAP
0D80
0D80
0000
0F80
38C0
70E0
70E0
F1E0
E1C0
E1C0
6380
3E00
ENDCHAR
STARTCHAR multiply
ENCODING 215
SWIDTH 600 0
DWIDTH 9 0
BBX 8 7 0 0
BITMAP
C3
66
3C
18
3C
66
C3
ENDCHAR
STARTCHAR Oslash
ENCODING 216
SWIDTH 761 0
DWIDTH 11 0
BBX 11 12 0 -1
BITMAP
0080
0F80
39C0
72E0
72E0
E4E0
E4E0
E9C0
E9C0
7380
3E00
2000
ENDCHAR
STARTCHAR Ugrave
ENCODING 217
SWIDTH 776 0
DWIDTH 12 0
BBX 12 12 0 0
BITMAP
0600
0300
0000
7DF0
38E0
38E0
71C0
71C0
71C0
E380
E380
7F00
ENDCHAR
STARTCHAR Uacute
ENCODING 218
SWIDTH 776 0
DWIDTH 12 0
BBX 12 12 0 0
BITMAP
0180
0300
0000
7DF0
38E0
38E0
71C0
71C0
71C0
E380
E380
7F00
ENDCHAR
STARTCHAR Ucircumflex
ENCODING 219
SWIDTH 776 0
DWIDTH 12 0
BBX 12 12 0 0
BITMAP
0300
0580
0000
7DF0
38E0
38E0
71C0
71C0
71C0
E380
E380
7F00
ENDCHAR
STARTCHAR Udieresis
ENCODING 220
SWIDTH 776 0
DWIDTH 12 0
BBX 12 12 0 0
BITMAP
06C0
06C0
0000
7DF0
38E0
38E0
71C0
71C0
71C0
E380
E380
7F00
ENDCHAR
STARTCHAR Yacute
ENCODING 221
SWIDTH 622 0
DWIDTH 9 0
BBX 9 12 1 0
BITMAP
0600
0C00
0000
FB80
7100
7200
7400
3800
3800
7000
7000
F800
ENDCHAR
STARTCHAR Thorn
ENCODING 222
SWIDTH 629 0
DWIDTH 9 0
BBX 10 10 -1 0
BITMAP
3E00
1C00
1F80
39C0
39C0
39C0
3B80
7F00
7000
F800
ENDCHAR
STARTCHAR germandbls
ENCODING 223
SWIDTH 628 0
DWIDTH 9 0
BBX 11 14 -2 -3
BITMAP
03C0
0660
0E60
0E60
3CC0
1D80
1DC0
1CE0
38E0
3AE0
3BC0
3800
B000
E000
ENDCHAR
STARTCHAR agrave
ENCODING 224
SWIDTH 596 0
DWIDTH 9 0
BBX 9 10 0 0
BITMAP
1800
0C00
0000
3F00
7700
6700
EE00
EE00
FE80
6700
ENDCHAR
STARTCHAR aacute
ENCODING 225
SWIDTH 596 0
DWIDTH 9 0
BBX 9 10 0 0
BITMAP
0600
0C00
0000
3F00
7700
6700
EE00
EE00
FE80
6700
ENDCHAR
STARTCHAR acircumflex
ENCODING 226
SWIDTH 596 0
DWIDTH 9 0
BBX 9 10 0 0
BITMAP
0C00
1600
0000
3F00
7700
6700
EE00
EE00
FE80
6700
ENDCHAR
STARTCHAR atilde
ENCODING 227
SWIDTH 596 0
DWIDTH 9 0
BBX 9 10 0 0
BITMAP
0D00
1600
0000
3F00
7700
6700
EE00
EE00
FE80
6700
ENDCHAR
STARTCHAR adieresis
ENCODING 228
SWIDTH 596 0
DWIDTH 9 0
BBX 9 10 0 0
BITMAP
1B00
1B00
0000
3F00
7700
6700
EE00
EE00
FE80
6700
ENDCHAR
STARTCHAR aring
ENCODING 229
SWIDTH 596 0
DWIDTH 9 0
BBX 9 11 0 0
BITMAP
0C00
1200
0C00
0000
3F00
7700
6700
EE00
EE00
FE80
6700
ENDCHAR
STARTCHAR ae
ENCODING 230
SWIDTH 789 0
DWIDTH 12 0
BBX 11 8 0 0
BITMAP
0200
3EE0
77A0
E740
EF80
EF20
F740
6380
ENDCHAR
STARTCHAR ccedilla
ENCODING 231
SWIDTH 456 0
DWIDTH 7 0
BBX 6 10 0 -3
BITMAP
3C
74
60
E0
E4
E8
70
40
20
E0
ENDCHAR
STARTCHAR egrave
ENCODING 232
SWIDTH 476 0
DWIDTH 7 0
BBX 6 10 0 0
BITMAP
30
18
00
3C
74
68
F0
E4
E8
70
ENDCHAR
STARTCHAR eacute
ENCODING 233
SWIDTH 476 0
DWIDTH 7 0
BBX 6 10 0 0
BITMAP
0C
18
00
3C
74
68
F0
E4
E8
70
ENDCHAR
STARTCHAR ecircumflex
ENCODING 234
SWIDTH 476 0
DWIDTH 7 0
BBX 6 10 0 0
BITMAP
18
2C
00
3C
74
68
F0
E4
E8
70
ENDCHAR
STARTCHAR edieresis
ENCODING 235
SWIDTH 476 0
DWIDTH 7 0
BBX 7 10 0 0
BITMAP
36
36
00
3C
74
68
F0
E4
E8
70
ENDCHAR
STARTCHAR igrave
ENCODING 236
SWIDTH 339 0
DWIDTH 5 0
BBX 5 10 0 0
BITMAP
60
30
00
F0
70
70
E0
E0
E8
70
ENDCHAR
STARTCHAR iacute
ENCODING 237
SWIDTH 339 0
DWIDTH 5 0
BBX 5 10 0 0
BITMAP
18
30
00
F0
70
70
E0
E0
E8
70
ENDCHAR
STARTCHAR icircumflex
ENCODING 238
SWIDTH 339 0
DWIDTH 5 0
BBX 5 10 0 0
BITMAP
30
58
00
F0
70
70
E0
E0
E8
70
ENDCHAR
STARTCHAR idieresis
ENCODING 239
SWIDTH 339 0
DWIDTH 5 0
BBX 5 10 0 0
BITMAP
D8
D8
00
F0
70
70
E0
E0
E8
70
ENDCHAR
STARTCHAR eth
ENCODING 240
SWIDTH 562 0
DWIDTH 9 0
BBX 8 11 0 0
BITMAP
3A
1C
2E
06
3F
77
67
E7
E6
EE
7C
ENDCHAR
STARTCHAR ntilde
ENCODING 241
SWIDTH 635 0
DWIDTH 9 0
BBX 9 10 0 0
BITMAP
1A00
2C00
0000
F600
7F00
7700
7700
EE00
EE80
E700
ENDCHAR
STARTCHAR ograve
ENCODING 242
SWIDTH 562 0
DWIDTH 8 0
BBX 8 10 0 0
BITMAP
18
0C
00
3E
77
67
E7
E6
EE
7C
ENDCHAR
STARTCHAR oacute
ENCODING 243
SWIDTH 562 0
DWIDTH 8 0
BBX 8 10 0 0
BITMAP
06
0C
00
3E
77
67
E7
E6
EE
7C
ENDCHAR
STARTCHAR ocircumflex
ENCODING 244
SWIDTH 562 0
DWIDTH 8 0
BBX 8 10 0 0
BITMAP
0C
16
00
3E
77
67
E7
E6
EE
7C
ENDCHAR
STARTCHAR otilde
ENCODING 245
SWIDTH 562 0
DWIDTH 8 0
BBX 8 10 0 0
BITMAP
1A
2C
00
3E
77
67
E7
E6
EE
7C
ENDCHAR
STARTCHAR odieresis
ENCODING 246
SWIDTH 562 0
DWIDTH 8 0
BBX 8 10 0 0
BITMAP
36
36
00
3E
77
67
E7
E6
EE
7C
ENDCHAR
STARTCHAR divide
ENCODING 247
SWIDTH 600 0
DWIDTH 9 0
BBX 8 7 0 0
BITMAP
18
18
00
FF
00
18
18
ENDCHAR
STARTCHAR oslash
ENCODING 248
SWIDTH 562 0
DWIDTH 8 0
BBX 10 7 -1 0
BITMAP
1F40
3B80
7780
7B80
7380
7700
BE00
ENDCHAR
STARTCHAR ugrave
ENCODING 249
SWIDTH 634 0
DWIDTH 9 0
BBX 9 10 0 0
BITMAP
3000
1800
0000
F700
7700
7700
EE00
EE00
FE80
6700
ENDCHAR
STARTCHAR uacute
ENCODING 250
SWIDTH 634 0
DWIDTH 9 0
BBX 9 10 0 0
BITMAP
0C00
1800
0000
F700
7700
7700
EE00
EE00
FE80
6700
ENDCHAR
STARTCHAR ucircumflex
ENCODING 251
SWIDTH 634 0
DWIDTH 9 0
BBX 9 10 0 0
BITMAP
1800
2C00
0000
F700
7700
7700
EE00
EE00
FE80
6700
ENDCHAR
STARTCHAR udieresis
ENCODING 252
SWIDTH 634 0
DWIDTH 9 0
BBX 9 10 0 0
BITMAP
3600
3600
0000
F700
7700
7700
EE00
EE00
FE80
6700
ENDCHAR
STARTCHAR yacute
ENCODING 253
SWIDTH 489 0
DWIDTH 7 0
BBX 8 13 -1 -3
BITMAP
06
0C
00
7B
3B
3A
3A
3C
18
18
10
E0
C0
ENDCHAR
STARTCHAR thorn
ENCODING 254
SWIDTH 600 0
DWIDTH 9 0
BBX 9 14 -1 -3
BITMAP
3C00
1C00
1C00
3800
3B00
3F80
3B80
7380
7300
7700
7E00
E000
E000
E000
ENDCHAR
STARTCHAR ydieresis
ENCODING 255
SWIDTH 489 0
DWIDTH 7 0
BBX 8 13 -1 -3
BITMAP
1B
1B
00
7B
3B
3A
3A
3C
18
18
10
E0
C0
ENDCHAR
ENDFONT
