STARTFONT 2.1
COMMENT AUTOMATICALLY GENERATED FILE. DO NOT EDIT!
COMMENT Generated with 'ucs2any.pl UTBI__10.bdf ../../../fonts/util/map-ISO8859-1 ISO8859-1'
COMMENT from an ISO10646-1 encoded source BDF font.
COMMENT ucs2any.pl by Markus Kuhn <mkuhn@acm.org>, 2000.
FONT -Adobe-Utopia-Bold-I-Normal--10-100-75-75-P-58-ISO8859-1
SIZE 10 75 75
FONTBOUNDINGBOX 12 11 -2 -2
COMMENT $Xorg: $
COMMENT ISO10646-1 extension by Markus Kuhn <mkuhn@acm.org>, 2001-03-20
STARTPROPERTIES 28
FOUNDRY "Adobe"
FAMILY_NAME "Utopia"
WEIGHT_NAME "Bold"
SLANT "I"
SETWIDTH_NAME "Normal"
ADD_STYLE_NAME ""
PIXEL_SIZE 10
POINT_SIZE 100
RESOLUTION_X 75
RESOLUTION_Y 75
SPACING "P"
AVERAGE_WIDTH 58
CHARSET_REGISTRY "ISO8859"
CHARSET_ENCODING "1"
CAP_HEIGHT 7
X_HEIGHT 5
RELATIVE_SETWIDTH 50
RELATIVE_WEIGHT 70
WEIGHT 208
FACE_NAME "Utopia Bold Italic"
COPYRIGHT "Copyright (c) 1989, 1991 Adobe Systems Incorporated.  All rights reserved."
NOTICE "Utopia is a registered trademark of Adobe Systems Incorporated."
DESTINATION 0
FONT_ASCENT 9
FONT_DESCENT 2
DEFAULT_CHAR 0
_ADOBE_PSFONT "Utopia-BoldItalic"
_DEC_DEVICE_FONTNAMES "PS=Utopia-BoldItalic"
ENDPROPERTIES
CHARS 192
STARTCHAR defaultchar
ENCODING 0
SWIDTH 800 0
DWIDTH 8 0
BBX 9 7 -1 0
BITMAP
AA80
0000
8080
0000
8080
0000
AA80
ENDCHAR
STARTCHAR space
ENCODING 32
SWIDTH 210 0
DWIDTH 2 0
BBX 0 0 0 0
BITMAP
ENDCHAR
STARTCHAR exclam
ENCODING 33
SWIDTH 285 0
DWIDTH 3 0
BBX 3 7 0 0
BITMAP
60
60
40
40
00
C0
C0
ENDCHAR
STARTCHAR quotedbl
ENCODING 34
SWIDTH 455 0
DWIDTH 5 0
BBX 3 3 1 4
BITMAP
A0
A0
A0
ENDCHAR
STARTCHAR numbersign
ENCODING 35
SWIDTH 560 0
DWIDTH 6 0
BBX 6 7 0 0
BITMAP
28
7C
28
50
F8
50
50
ENDCHAR
STARTCHAR dollar
ENCODING 36
SWIDTH 560 0
DWIDTH 6 0
BBX 6 9 0 -1
BITMAP
10
38
6C
60
30
18
D8
70
20
ENDCHAR
STARTCHAR percent
ENCODING 37
SWIDTH 896 0
DWIDTH 9 0
BBX 8 7 1 0
BITMAP
62
BC
A4
CB
15
15
26
ENDCHAR
STARTCHAR ampersand
ENCODING 38
SWIDTH 752 0
DWIDTH 8 0
BBX 8 7 0 0
BITMAP
38
64
28
73
DA
CC
76
ENDCHAR
STARTCHAR quotesingle
ENCODING 39
SWIDTH 246 0
DWIDTH 3 0
BBX 1 3 1 4
BITMAP
80
80
80
ENDCHAR
STARTCHAR parenleft
ENCODING 40
SWIDTH 350 0
DWIDTH 4 0
BBX 4 10 0 -2
BITMAP
10
20
40
40
80
80
80
80
80
40
ENDCHAR
STARTCHAR parenright
ENCODING 41
SWIDTH 350 0
DWIDTH 4 0
BBX 4 10 -1 -2
BITMAP
20
10
10
10
10
10
20
20
40
80
ENDCHAR
STARTCHAR asterisk
ENCODING 42
SWIDTH 500 0
DWIDTH 5 0
BBX 5 5 0 2
BITMAP
20
A8
70
A8
20
ENDCHAR
STARTCHAR plus
ENCODING 43
SWIDTH 600 0
DWIDTH 6 0
BBX 5 5 0 0
BITMAP
20
20
F8
20
20
ENDCHAR
STARTCHAR comma
ENCODING 44
SWIDTH 280 0
DWIDTH 3 0
BBX 3 3 -1 -1
BITMAP
60
40
80
ENDCHAR
STARTCHAR hyphen
ENCODING 45
SWIDTH 392 0
DWIDTH 4 0
BBX 3 1 0 2
BITMAP
E0
ENDCHAR
STARTCHAR period
ENCODING 46
SWIDTH 280 0
DWIDTH 3 0
BBX 2 2 0 0
BITMAP
C0
C0
ENDCHAR
STARTCHAR slash
ENCODING 47
SWIDTH 260 0
DWIDTH 4 0
BBX 3 7 0 0
BITMAP
20
20
40
40
40
80
80
ENDCHAR
STARTCHAR zero
ENCODING 48
SWIDTH 560 0
DWIDTH 6 0
BBX 6 7 0 0
BITMAP
38
6C
4C
CC
C8
D8
70
ENDCHAR
STARTCHAR one
ENCODING 49
SWIDTH 560 0
DWIDTH 6 0
BBX 4 7 1 0
BITMAP
70
30
30
60
60
60
F0
ENDCHAR
STARTCHAR two
ENCODING 50
SWIDTH 560 0
DWIDTH 6 0
BBX 6 7 0 0
BITMAP
38
6C
0C
18
60
C8
F8
ENDCHAR
STARTCHAR three
ENCODING 51
SWIDTH 560 0
DWIDTH 6 0
BBX 6 7 0 0
BITMAP
38
6C
0C
38
18
D8
70
ENDCHAR
STARTCHAR four
ENCODING 52
SWIDTH 560 0
DWIDTH 6 0
BBX 6 7 0 0
BITMAP
18
38
58
98
FC
30
78
ENDCHAR
STARTCHAR five
ENCODING 53
SWIDTH 560 0
DWIDTH 6 0
BBX 5 7 0 0
BITMAP
78
40
70
18
18
D8
70
ENDCHAR
STARTCHAR six
ENCODING 54
SWIDTH 560 0
DWIDTH 6 0
BBX 6 7 0 0
BITMAP
38
6C
40
F0
D8
D8
70
ENDCHAR
STARTCHAR seven
ENCODING 55
SWIDTH 560 0
DWIDTH 6 0
BBX 5 7 1 0
BITMAP
F8
98
30
20
60
C0
C0
ENDCHAR
STARTCHAR eight
ENCODING 56
SWIDTH 560 0
DWIDTH 6 0
BBX 6 7 0 0
BITMAP
38
6C
6C
30
D8
D8
70
ENDCHAR
STARTCHAR nine
ENCODING 57
SWIDTH 560 0
DWIDTH 6 0
BBX 6 7 0 0
BITMAP
38
6C
6C
3C
08
D8
70
ENDCHAR
STARTCHAR colon
ENCODING 58
SWIDTH 280 0
DWIDTH 3 0
BBX 3 5 0 0
BITMAP
60
60
00
C0
C0
ENDCHAR
STARTCHAR semicolon
ENCODING 59
SWIDTH 280 0
DWIDTH 3 0
BBX 4 6 -1 -1
BITMAP
30
30
00
60
40
80
ENDCHAR
STARTCHAR less
ENCODING 60
SWIDTH 600 0
DWIDTH 6 0
BBX 5 5 0 0
BITMAP
08
30
C0
30
08
ENDCHAR
STARTCHAR equal
ENCODING 61
SWIDTH 600 0
DWIDTH 6 0
BBX 5 3 0 1
BITMAP
F8
00
F8
ENDCHAR
STARTCHAR greater
ENCODING 62
SWIDTH 600 0
DWIDTH 6 0
BBX 5 5 0 0
BITMAP
80
60
18
60
80
ENDCHAR
STARTCHAR question
ENCODING 63
SWIDTH 454 0
DWIDTH 5 0
BBX 5 7 0 0
BITMAP
70
18
30
60
00
C0
C0
ENDCHAR
STARTCHAR at
ENCODING 64
SWIDTH 828 0
DWIDTH 9 0
BBX 8 7 0 0
BITMAP
3C
42
9D
A9
BE
40
3C
ENDCHAR
STARTCHAR A
ENCODING 65
SWIDTH 634 0
DWIDTH 7 0
BBX 8 7 -1 0
BITMAP
0C
0C
1C
26
3E
46
EF
ENDCHAR
STARTCHAR B
ENCODING 66
SWIDTH 680 0
DWIDTH 7 0
BBX 7 7 -1 0
BITMAP
7E
32
36
3C
66
66
FC
ENDCHAR
STARTCHAR C
ENCODING 67
SWIDTH 672 0
DWIDTH 7 0
BBX 7 7 0 0
BITMAP
3C
66
E0
C0
C0
C4
78
ENDCHAR
STARTCHAR D
ENCODING 68
SWIDTH 774 0
DWIDTH 8 0
BBX 8 7 -1 0
BITMAP
7E
33
33
63
67
66
FC
ENDCHAR
STARTCHAR E
ENCODING 69
SWIDTH 622 0
DWIDTH 6 0
BBX 7 7 -1 0
BITMAP
7E
32
34
7C
60
64
FC
ENDCHAR
STARTCHAR F
ENCODING 70
SWIDTH 585 0
DWIDTH 6 0
BBX 7 7 -1 0
BITMAP
7E
32
34
7C
64
60
F0
ENDCHAR
STARTCHAR G
ENCODING 71
SWIDTH 726 0
DWIDTH 8 0
BBX 7 7 0 0
BITMAP
3C
66
E0
C0
DE
CC
78
ENDCHAR
STARTCHAR H
ENCODING 72
SWIDTH 800 0
DWIDTH 8 0
BBX 9 7 -1 0
BITMAP
7B80
3300
3300
7E00
6600
6600
EF00
ENDCHAR
STARTCHAR I
ENCODING 73
SWIDTH 386 0
DWIDTH 4 0
BBX 5 7 -1 0
BITMAP
78
30
30
60
60
60
F0
ENDCHAR
STARTCHAR J
ENCODING 74
SWIDTH 388 0
DWIDTH 4 0
BBX 6 9 -2 -2
BITMAP
3C
18
18
18
30
30
30
60
C0
ENDCHAR
STARTCHAR K
ENCODING 75
SWIDTH 688 0
DWIDTH 8 0
BBX 9 7 -1 0
BITMAP
7B80
3200
3400
7C00
6E00
6600
F700
ENDCHAR
STARTCHAR L
ENCODING 76
SWIDTH 586 0
DWIDTH 6 0
BBX 6 7 -1 0
BITMAP
78
30
30
60
60
64
FC
ENDCHAR
STARTCHAR M
ENCODING 77
SWIDTH 921 0
DWIDTH 10 0
BBX 11 7 -1 0
BITMAP
70E0
31C0
32C0
3A80
4D80
4980
EBC0
ENDCHAR
STARTCHAR N
ENCODING 78
SWIDTH 741 0
DWIDTH 8 0
BBX 9 7 -1 0
BITMAP
7380
3100
3900
3A00
4E00
4E00
E600
ENDCHAR
STARTCHAR O
ENCODING 79
SWIDTH 761 0
DWIDTH 8 0
BBX 7 7 0 0
BITMAP
3C
66
E6
C6
CE
CC
78
ENDCHAR
STARTCHAR P
ENCODING 80
SWIDTH 660 0
DWIDTH 7 0
BBX 8 7 -1 0
BITMAP
7E
33
33
3E
60
60
F0
ENDCHAR
STARTCHAR Q
ENCODING 81
SWIDTH 761 0
DWIDTH 8 0
BBX 7 9 0 -2
BITMAP
3C
66
E6
C6
CE
CC
78
18
0E
ENDCHAR
STARTCHAR R
ENCODING 82
SWIDTH 681 0
DWIDTH 7 0
BBX 8 7 -1 0
BITMAP
7E
32
36
3C
6C
66
F7
ENDCHAR
STARTCHAR S
ENCODING 83
SWIDTH 551 0
DWIDTH 6 0
BBX 7 7 -1 0
BITMAP
1E
32
38
18
1C
CC
78
ENDCHAR
STARTCHAR T
ENCODING 84
SWIDTH 616 0
DWIDTH 6 0
BBX 6 7 0 0
BITMAP
FC
B4
30
60
60
60
F0
ENDCHAR
STARTCHAR U
ENCODING 85
SWIDTH 776 0
DWIDTH 8 0
BBX 8 7 0 0
BITMAP
F7
66
66
CC
CC
CC
78
ENDCHAR
STARTCHAR V
ENCODING 86
SWIDTH 630 0
DWIDTH 7 0
BBX 8 7 -1 0
BITMAP
F7
62
64
64
38
30
30
ENDCHAR
STARTCHAR W
ENCODING 87
SWIDTH 920 0
DWIDTH 10 0
BBX 11 7 -1 0
BITMAP
F6E0
6640
6640
6A80
3B80
3300
3300
ENDCHAR
STARTCHAR X
ENCODING 88
SWIDTH 630 0
DWIDTH 7 0
BBX 8 7 -1 0
BITMAP
77
32
34
18
2C
4C
EE
ENDCHAR
STARTCHAR Y
ENCODING 89
SWIDTH 622 0
DWIDTH 7 0
BBX 7 7 0 0
BITMAP
EE
64
68
70
20
60
F0
ENDCHAR
STARTCHAR Z
ENCODING 90
SWIDTH 618 0
DWIDTH 7 0
BBX 6 7 0 0
BITMAP
7C
4C
18
30
60
C8
F8
ENDCHAR
STARTCHAR bracketleft
ENCODING 91
SWIDTH 350 0
DWIDTH 4 0
BBX 4 10 0 -2
BITMAP
30
20
20
40
40
40
40
80
80
C0
ENDCHAR
STARTCHAR backslash
ENCODING 92
SWIDTH 460 0
DWIDTH 5 0
BBX 3 7 1 0
BITMAP
80
80
40
40
40
20
20
ENDCHAR
STARTCHAR bracketright
ENCODING 93
SWIDTH 350 0
DWIDTH 4 0
BBX 4 10 -1 -2
BITMAP
30
10
10
20
20
20
20
40
40
C0
ENDCHAR
STARTCHAR asciicircum
ENCODING 94
SWIDTH 600 0
DWIDTH 6 0
BBX 5 5 0 2
BITMAP
20
20
50
50
88
ENDCHAR
STARTCHAR underscore
ENCODING 95
SWIDTH 500 0
DWIDTH 5 0
BBX 5 1 0 -2
BITMAP
F8
ENDCHAR
STARTCHAR grave
ENCODING 96
SWIDTH 400 0
DWIDTH 4 0
BBX 3 2 0 6
BITMAP
C0
60
ENDCHAR
STARTCHAR a
ENCODING 97
SWIDTH 596 0
DWIDTH 6 0
BBX 6 5 0 0
BITMAP
3C
4C
D8
D8
FC
ENDCHAR
STARTCHAR b
ENCODING 98
SWIDTH 586 0
DWIDTH 6 0
BBX 6 8 0 0
BITMAP
70
30
60
7C
6C
EC
C8
F0
ENDCHAR
STARTCHAR c
ENCODING 99
SWIDTH 456 0
DWIDTH 5 0
BBX 5 5 0 0
BITMAP
38
48
C0
C0
F0
ENDCHAR
STARTCHAR d
ENCODING 100
SWIDTH 609 0
DWIDTH 6 0
BBX 7 8 0 0
BITMAP
0E
06
0C
3C
4C
D8
D8
FC
ENDCHAR
STARTCHAR e
ENCODING 101
SWIDTH 476 0
DWIDTH 5 0
BBX 5 5 0 0
BITMAP
30
58
F0
C0
F0
ENDCHAR
STARTCHAR f
ENCODING 102
SWIDTH 348 0
DWIDTH 4 0
BBX 7 10 -2 -2
BITMAP
0E
1A
18
3C
18
30
30
30
B0
E0
ENDCHAR
STARTCHAR g
ENCODING 103
SWIDTH 522 0
DWIDTH 6 0
BBX 7 7 -1 -2
BITMAP
3E
6C
6C
30
5C
CC
78
ENDCHAR
STARTCHAR h
ENCODING 104
SWIDTH 629 0
DWIDTH 7 0
BBX 6 8 0 0
BITMAP
70
30
60
7C
6C
6C
D8
DC
ENDCHAR
STARTCHAR i
ENCODING 105
SWIDTH 339 0
DWIDTH 3 0
BBX 3 8 0 0
BITMAP
60
60
00
E0
60
C0
C0
C0
ENDCHAR
STARTCHAR j
ENCODING 106
SWIDTH 333 0
DWIDTH 3 0
BBX 5 10 -2 -2
BITMAP
18
18
00
38
18
18
30
30
B0
E0
ENDCHAR
STARTCHAR k
ENCODING 107
SWIDTH 570 0
DWIDTH 6 0
BBX 5 8 0 0
BITMAP
70
30
60
68
78
70
D8
D8
ENDCHAR
STARTCHAR l
ENCODING 108
SWIDTH 327 0
DWIDTH 3 0
BBX 4 8 0 0
BITMAP
70
30
60
60
60
C0
C0
C0
ENDCHAR
STARTCHAR m
ENCODING 109
SWIDTH 914 0
DWIDTH 10 0
BBX 9 5 0 0
BITMAP
FF80
6D80
6D80
DB00
DB80
ENDCHAR
STARTCHAR n
ENCODING 110
SWIDTH 635 0
DWIDTH 7 0
BBX 6 5 0 0
BITMAP
F8
6C
6C
D8
DC
ENDCHAR
STARTCHAR o
ENCODING 111
SWIDTH 562 0
DWIDTH 6 0
BBX 5 5 0 0
BITMAP
38
58
D8
D0
E0
ENDCHAR
STARTCHAR p
ENCODING 112
SWIDTH 606 0
DWIDTH 6 0
BBX 7 7 -1 -2
BITMAP
7E
36
76
64
78
C0
C0
ENDCHAR
STARTCHAR q
ENCODING 113
SWIDTH 584 0
DWIDTH 6 0
BBX 6 7 0 -2
BITMAP
3C
4C
D8
D8
F8
30
30
ENDCHAR
STARTCHAR r
ENCODING 114
SWIDTH 440 0
DWIDTH 5 0
BBX 5 5 0 0
BITMAP
E8
78
60
C0
C0
ENDCHAR
STARTCHAR s
ENCODING 115
SWIDTH 417 0
DWIDTH 4 0
BBX 5 5 -1 0
BITMAP
38
60
70
30
E0
ENDCHAR
STARTCHAR t
ENCODING 116
SWIDTH 359 0
DWIDTH 4 0
BBX 4 7 0 0
BITMAP
20
60
F0
60
C0
C0
E0
ENDCHAR
STARTCHAR u
ENCODING 117
SWIDTH 634 0
DWIDTH 7 0
BBX 6 5 0 0
BITMAP
EC
6C
D8
D8
FC
ENDCHAR
STARTCHAR v
ENCODING 118
SWIDTH 518 0
DWIDTH 5 0
BBX 6 5 0 0
BITMAP
EC
6C
C8
D0
E0
ENDCHAR
STARTCHAR w
ENCODING 119
SWIDTH 795 0
DWIDTH 8 0
BBX 9 5 0 0
BITMAP
ED80
6D80
D900
DA00
EC00
ENDCHAR
STARTCHAR x
ENCODING 120
SWIDTH 516 0
DWIDTH 5 0
BBX 6 5 -1 0
BITMAP
6C
38
30
70
D8
ENDCHAR
STARTCHAR y
ENCODING 121
SWIDTH 489 0
DWIDTH 5 0
BBX 7 7 -2 -2
BITMAP
36
36
34
38
30
A0
C0
ENDCHAR
STARTCHAR z
ENCODING 122
SWIDTH 466 0
DWIDTH 5 0
BBX 5 5 0 0
BITMAP
78
30
60
D0
F0
ENDCHAR
STARTCHAR braceleft
ENCODING 123
SWIDTH 340 0
DWIDTH 4 0
BBX 4 10 0 -2
BITMAP
10
20
20
20
C0
40
40
80
80
40
ENDCHAR
STARTCHAR bar
ENCODING 124
SWIDTH 265 0
DWIDTH 3 0
BBX 1 7 1 0
BITMAP
80
80
80
80
80
80
80
ENDCHAR
STARTCHAR braceright
ENCODING 125
SWIDTH 340 0
DWIDTH 4 0
BBX 4 10 -1 -2
BITMAP
20
10
10
20
20
30
40
40
40
80
ENDCHAR
STARTCHAR asciitilde
ENCODING 126
SWIDTH 600 0
DWIDTH 6 0
BBX 5 2 0 2
BITMAP
68
B0
ENDCHAR
STARTCHAR space
ENCODING 160
SWIDTH 210 0
DWIDTH 2 0
BBX 0 0 0 0
BITMAP
ENDCHAR
STARTCHAR exclamdown
ENCODING 161
SWIDTH 285 0
DWIDTH 3 0
BBX 3 7 -1 -2
BITMAP
60
60
00
40
40
C0
C0
ENDCHAR
STARTCHAR cent
ENCODING 162
SWIDTH 560 0
DWIDTH 6 0
BBX 6 7 0 0
BITMAP
10
38
5C
D0
E8
70
20
ENDCHAR
STARTCHAR sterling
ENCODING 163
SWIDTH 560 0
DWIDTH 6 0
BBX 6 7 0 0
BITMAP
38
6C
60
FC
30
64
F8
ENDCHAR
STARTCHAR currency
ENCODING 164
SWIDTH 560 0
DWIDTH 6 0
BBX 5 7 0 0
BITMAP
88
70
D8
88
D8
70
88
ENDCHAR
STARTCHAR yen
ENCODING 165
SWIDTH 560 0
DWIDTH 6 0
BBX 6 7 0 0
BITMAP
EC
68
EC
30
FC
20
70
ENDCHAR
STARTCHAR brokenbar
ENCODING 166
SWIDTH 265 0
DWIDTH 3 0
BBX 1 7 1 0
BITMAP
80
80
80
00
80
80
80
ENDCHAR
STARTCHAR section
ENCODING 167
SWIDTH 568 0
DWIDTH 6 0
BBX 5 9 0 -2
BITMAP
38
48
A0
90
48
28
10
90
E0
ENDCHAR
STARTCHAR dieresis
ENCODING 168
SWIDTH 400 0
DWIDTH 4 0
BBX 3 2 0 6
BITMAP
A0
A0
ENDCHAR
STARTCHAR copyright
ENCODING 169
SWIDTH 824 0
DWIDTH 8 0
BBX 7 7 0 0
BITMAP
38
44
9A
A2
9A
44
38
ENDCHAR
STARTCHAR ordfeminine
ENCODING 170
SWIDTH 444 0
DWIDTH 5 0
BBX 4 4 0 2
BITMAP
70
D0
A0
F0
ENDCHAR
STARTCHAR guillemotleft
ENCODING 171
SWIDTH 560 0
DWIDTH 6 0
BBX 5 4 0 1
BITMAP
28
50
F0
50
ENDCHAR
STARTCHAR logicalnot
ENCODING 172
SWIDTH 600 0
DWIDTH 6 0
BBX 5 3 0 1
BITMAP
F8
08
08
ENDCHAR
STARTCHAR hyphen
ENCODING 173
SWIDTH 392 0
DWIDTH 4 0
BBX 3 1 0 2
BITMAP
E0
ENDCHAR
STARTCHAR registered
ENCODING 174
SWIDTH 824 0
DWIDTH 9 0
BBX 7 7 0 0
BITMAP
38
44
BA
B2
AA
44
38
ENDCHAR
STARTCHAR macron
ENCODING 175
SWIDTH 400 0
DWIDTH 4 0
BBX 3 1 0 6
BITMAP
E0
ENDCHAR
STARTCHAR degree
ENCODING 176
SWIDTH 375 0
DWIDTH 4 0
BBX 3 4 1 3
BITMAP
40
A0
A0
40
ENDCHAR
STARTCHAR plusminus
ENCODING 177
SWIDTH 600 0
DWIDTH 6 0
BBX 5 6 0 0
BITMAP
20
20
F8
20
20
F8
ENDCHAR
STARTCHAR twosuperior
ENCODING 178
SWIDTH 402 0
DWIDTH 4 0
BBX 4 5 0 2
BITMAP
20
50
20
40
F0
ENDCHAR
STARTCHAR threesuperior
ENCODING 179
SWIDTH 402 0
DWIDTH 4 0
BBX 4 5 0 2
BITMAP
70
10
60
20
C0
ENDCHAR
STARTCHAR acute
ENCODING 180
SWIDTH 400 0
DWIDTH 4 0
BBX 3 2 0 6
BITMAP
60
C0
ENDCHAR
STARTCHAR mu
ENCODING 181
SWIDTH 634 0
DWIDTH 7 0
BBX 7 7 -1 -2
BITMAP
76
36
6C
6C
7E
C0
C0
ENDCHAR
STARTCHAR paragraph
ENCODING 182
SWIDTH 580 0
DWIDTH 6 0
BBX 6 9 0 -2
BITMAP
6C
E8
E8
D0
50
10
20
20
60
ENDCHAR
STARTCHAR periodcentered
ENCODING 183
SWIDTH 280 0
DWIDTH 3 0
BBX 2 2 0 2
BITMAP
C0
C0
ENDCHAR
STARTCHAR cedilla
ENCODING 184
SWIDTH 400 0
DWIDTH 4 0
BBX 2 2 0 -2
BITMAP
40
C0
ENDCHAR
STARTCHAR onesuperior
ENCODING 185
SWIDTH 402 0
DWIDTH 4 0
BBX 3 5 0 2
BITMAP
60
20
40
40
E0
ENDCHAR
STARTCHAR ordmasculine
ENCODING 186
SWIDTH 412 0
DWIDTH 4 0
BBX 4 4 0 2
BITMAP
70
D0
B0
E0
ENDCHAR
STARTCHAR guillemotright
ENCODING 187
SWIDTH 560 0
DWIDTH 6 0
BBX 5 4 0 1
BITMAP
50
78
50
A0
ENDCHAR
STARTCHAR onequarter
ENCODING 188
SWIDTH 940 0
DWIDTH 9 0
BBX 8 7 0 0
BITMAP
64
28
4A
56
EA
2F
44
ENDCHAR
STARTCHAR onehalf
ENCODING 189
SWIDTH 940 0
DWIDTH 9 0
BBX 8 7 0 0
BITMAP
64
28
4A
55
E2
24
4F
ENDCHAR
STARTCHAR threequarters
ENCODING 190
SWIDTH 940 0
DWIDTH 9 0
BBX 9 7 0 0
BITMAP
7200
1400
6500
2B00
D500
1780
2200
ENDCHAR
STARTCHAR questiondown
ENCODING 191
SWIDTH 454 0
DWIDTH 5 0
BBX 5 7 -1 -2
BITMAP
18
18
00
30
60
C0
70
ENDCHAR
STARTCHAR Agrave
ENCODING 192
SWIDTH 634 0
DWIDTH 7 0
BBX 8 9 -1 0
BITMAP
0C
06
00
0C
1C
24
3E
46
EF
ENDCHAR
STARTCHAR Aacute
ENCODING 193
SWIDTH 634 0
DWIDTH 7 0
BBX 8 9 -1 0
BITMAP
06
0C
00
0C
1C
24
3E
46
EF
ENDCHAR
STARTCHAR Acircumflex
ENCODING 194
SWIDTH 634 0
DWIDTH 7 0
BBX 8 9 -1 0
BITMAP
0C
16
00
0C
1C
24
3E
46
EF
ENDCHAR
STARTCHAR Atilde
ENCODING 195
SWIDTH 634 0
DWIDTH 7 0
BBX 8 9 -1 0
BITMAP
0D
0B
00
0C
1C
24
3E
46
EF
ENDCHAR
STARTCHAR Adieresis
ENCODING 196
SWIDTH 634 0
DWIDTH 7 0
BBX 8 9 -1 0
BITMAP
0A
0A
00
0C
1C
24
3E
46
EF
ENDCHAR
STARTCHAR Aring
ENCODING 197
SWIDTH 634 0
DWIDTH 7 0
BBX 8 9 -1 0
BITMAP
04
0A
04
0C
1C
24
3E
46
EF
ENDCHAR
STARTCHAR AE
ENCODING 198
SWIDTH 890 0
DWIDTH 9 0
BBX 10 7 -1 0
BITMAP
1FC0
0E40
1680
3F80
2C00
4C80
DF80
ENDCHAR
STARTCHAR Ccedilla
ENCODING 199
SWIDTH 672 0
DWIDTH 7 0
BBX 7 9 0 -2
BITMAP
3C
66
E0
C0
C0
C4
78
20
60
ENDCHAR
STARTCHAR Egrave
ENCODING 200
SWIDTH 622 0
DWIDTH 6 0
BBX 7 9 -1 0
BITMAP
18
0C
00
7E
32
38
60
64
FC
ENDCHAR
STARTCHAR Eacute
ENCODING 201
SWIDTH 622 0
DWIDTH 6 0
BBX 7 9 -1 0
BITMAP
06
0C
00
7E
32
38
60
64
FC
ENDCHAR
STARTCHAR Ecircumflex
ENCODING 202
SWIDTH 622 0
DWIDTH 6 0
BBX 7 9 -1 0
BITMAP
0C
16
00
7E
32
38
60
64
FC
ENDCHAR
STARTCHAR Edieresis
ENCODING 203
SWIDTH 622 0
DWIDTH 6 0
BBX 7 9 -1 0
BITMAP
14
14
00
7E
32
38
60
64
FC
ENDCHAR
STARTCHAR Igrave
ENCODING 204
SWIDTH 386 0
DWIDTH 4 0
BBX 5 9 -1 0
BITMAP
30
18
00
78
30
30
60
60
F0
ENDCHAR
STARTCHAR Iacute
ENCODING 205
SWIDTH 386 0
DWIDTH 4 0
BBX 5 9 -1 0
BITMAP
18
30
00
78
30
30
60
60
F0
ENDCHAR
STARTCHAR Icircumflex
ENCODING 206
SWIDTH 386 0
DWIDTH 4 0
BBX 6 9 -1 0
BITMAP
18
2C
00
78
30
30
60
60
F0
ENDCHAR
STARTCHAR Idieresis
ENCODING 207
SWIDTH 386 0
DWIDTH 4 0
BBX 5 9 -1 0
BITMAP
28
28
00
78
30
30
60
60
F0
ENDCHAR
STARTCHAR Eth
ENCODING 208
SWIDTH 780 0
DWIDTH 8 0
BBX 8 7 -1 0
BITMAP
7E
33
33
FB
67
66
FC
ENDCHAR
STARTCHAR Ntilde
ENCODING 209
SWIDTH 741 0
DWIDTH 8 0
BBX 9 9 -1 0
BITMAP
1A00
1600
0000
7380
3900
3A00
4E00
4E00
E600
ENDCHAR
STARTCHAR Ograve
ENCODING 210
SWIDTH 761 0
DWIDTH 8 0
BBX 7 9 0 0
BITMAP
18
0C
00
3C
66
C6
C6
CC
78
ENDCHAR
STARTCHAR Oacute
ENCODING 211
SWIDTH 761 0
DWIDTH 8 0
BBX 7 9 0 0
BITMAP
06
0C
00
3C
66
C6
C6
CC
78
ENDCHAR
STARTCHAR Ocircumflex
ENCODING 212
SWIDTH 761 0
DWIDTH 8 0
BBX 7 9 0 0
BITMAP
18
2C
00
3C
66
C6
C6
CC
78
ENDCHAR
STARTCHAR Otilde
ENCODING 213
SWIDTH 761 0
DWIDTH 8 0
BBX 7 9 0 0
BITMAP
1A
16
00
3C
66
C6
C6
CC
78
ENDCHAR
STARTCHAR Odieresis
ENCODING 214
SWIDTH 761 0
DWIDTH 8 0
BBX 7 9 0 0
BITMAP
14
14
00
3C
66
C6
C6
CC
78
ENDCHAR
STARTCHAR multiply
ENCODING 215
SWIDTH 600 0
DWIDTH 6 0
BBX 5 5 0 0
BITMAP
88
50
20
50
88
ENDCHAR
STARTCHAR Oslash
ENCODING 216
SWIDTH 761 0
DWIDTH 8 0
BBX 9 7 -1 0
BITMAP
1E80
3300
7700
6B00
7700
6600
BC00
ENDCHAR
STARTCHAR Ugrave
ENCODING 217
SWIDTH 776 0
DWIDTH 8 0
BBX 8 9 0 0
BITMAP
18
0C
00
F7
66
66
CC
CC
78
ENDCHAR
STARTCHAR Uacute
ENCODING 218
SWIDTH 776 0
DWIDTH 8 0
BBX 8 9 0 0
BITMAP
0C
18
00
F7
66
66
CC
CC
78
ENDCHAR
STARTCHAR Ucircumflex
ENCODING 219
SWIDTH 776 0
DWIDTH 8 0
BBX 8 9 0 0
BITMAP
0C
16
00
F7
66
66
CC
CC
78
ENDCHAR
STARTCHAR Udieresis
ENCODING 220
SWIDTH 776 0
DWIDTH 8 0
BBX 8 9 0 0
BITMAP
14
14
00
F7
66
66
CC
CC
78
ENDCHAR
STARTCHAR Yacute
ENCODING 221
SWIDTH 622 0
DWIDTH 7 0
BBX 7 9 0 0
BITMAP
0C
18
00
EE
64
68
30
60
F0
ENDCHAR
STARTCHAR Thorn
ENCODING 222
SWIDTH 629 0
DWIDTH 7 0
BBX 8 7 -1 0
BITMAP
78
30
3E
33
7E
60
F0
ENDCHAR
STARTCHAR germandbls
ENCODING 223
SWIDTH 628 0
DWIDTH 7 0
BBX 9 10 -2 -2
BITMAP
0F00
1980
1980
3A00
1B00
3300
3300
3600
B000
E000
ENDCHAR
STARTCHAR agrave
ENCODING 224
SWIDTH 596 0
DWIDTH 6 0
BBX 6 8 0 0
BITMAP
18
0C
00
3C
4C
D8
D8
FC
ENDCHAR
STARTCHAR aacute
ENCODING 225
SWIDTH 596 0
DWIDTH 6 0
BBX 6 8 0 0
BITMAP
0C
18
00
3C
4C
D8
D8
FC
ENDCHAR
STARTCHAR acircumflex
ENCODING 226
SWIDTH 596 0
DWIDTH 6 0
BBX 6 8 0 0
BITMAP
18
2C
00
3C
4C
D8
D8
FC
ENDCHAR
STARTCHAR atilde
ENCODING 227
SWIDTH 596 0
DWIDTH 6 0
BBX 6 8 0 0
BITMAP
34
2C
00
3C
4C
D8
D8
FC
ENDCHAR
STARTCHAR adieresis
ENCODING 228
SWIDTH 596 0
DWIDTH 6 0
BBX 6 8 0 0
BITMAP
14
14
00
3C
4C
D8
D8
FC
ENDCHAR
STARTCHAR aring
ENCODING 229
SWIDTH 596 0
DWIDTH 6 0
BBX 6 9 0 0
BITMAP
08
14
08
00
3C
4C
D8
D8
FC
ENDCHAR
STARTCHAR ae
ENCODING 230
SWIDTH 789 0
DWIDTH 8 0
BBX 8 6 0 0
BITMAP
08
3E
4B
DE
D8
EE
ENDCHAR
STARTCHAR ccedilla
ENCODING 231
SWIDTH 456 0
DWIDTH 5 0
BBX 5 7 0 -2
BITMAP
38
48
C0
C0
F0
40
C0
ENDCHAR
STARTCHAR egrave
ENCODING 232
SWIDTH 476 0
DWIDTH 5 0
BBX 5 8 0 0
BITMAP
60
30
00
30
58
F0
C0
F0
ENDCHAR
STARTCHAR eacute
ENCODING 233
SWIDTH 476 0
DWIDTH 5 0
BBX 5 8 0 0
BITMAP
18
30
00
30
58
F0
C0
F0
ENDCHAR
STARTCHAR ecircumflex
ENCODING 234
SWIDTH 476 0
DWIDTH 5 0
BBX 5 8 0 0
BITMAP
30
58
00
30
58
F0
C0
F0
ENDCHAR
STARTCHAR edieresis
ENCODING 235
SWIDTH 476 0
DWIDTH 5 0
BBX 5 8 0 0
BITMAP
28
28
00
30
58
F0
C0
F0
ENDCHAR
STARTCHAR igrave
ENCODING 236
SWIDTH 339 0
DWIDTH 3 0
BBX 3 8 0 0
BITMAP
C0
60
00
E0
60
C0
C0
C0
ENDCHAR
STARTCHAR iacute
ENCODING 237
SWIDTH 339 0
DWIDTH 3 0
BBX 4 8 0 0
BITMAP
30
60
00
E0
60
C0
C0
C0
ENDCHAR
STARTCHAR icircumflex
ENCODING 238
SWIDTH 339 0
DWIDTH 3 0
BBX 4 8 0 0
BITMAP
60
B0
00
E0
60
C0
C0
C0
ENDCHAR
STARTCHAR idieresis
ENCODING 239
SWIDTH 339 0
DWIDTH 3 0
BBX 4 8 0 0
BITMAP
50
50
00
E0
60
C0
C0
C0
ENDCHAR
STARTCHAR eth
ENCODING 240
SWIDTH 562 0
DWIDTH 6 0
BBX 5 8 0 0
BITMAP
68
30
50
38
58
D8
D0
E0
ENDCHAR
STARTCHAR ntilde
ENCODING 241
SWIDTH 635 0
DWIDTH 7 0
BBX 6 8 0 0
BITMAP
34
2C
00
F8
6C
6C
D8
DC
ENDCHAR
STARTCHAR ograve
ENCODING 242
SWIDTH 562 0
DWIDTH 6 0
BBX 5 8 0 0
BITMAP
30
18
00
38
58
D8
D0
E0
ENDCHAR
STARTCHAR oacute
ENCODING 243
SWIDTH 562 0
DWIDTH 6 0
BBX 6 8 0 0
BITMAP
0C
18
00
38
58
D8
D0
E0
ENDCHAR
STARTCHAR ocircumflex
ENCODING 244
SWIDTH 562 0
DWIDTH 6 0
BBX 6 8 0 0
BITMAP
18
2C
00
38
58
D8
D0
E0
ENDCHAR
STARTCHAR otilde
ENCODING 245
SWIDTH 562 0
DWIDTH 6 0
BBX 6 8 0 0
BITMAP
34
2C
00
38
58
D8
D0
E0
ENDCHAR
STARTCHAR odieresis
ENCODING 246
SWIDTH 562 0
DWIDTH 6 0
BBX 5 8 0 0
BITMAP
28
28
00
38
58
D8
D0
E0
ENDCHAR
STARTCHAR divide
ENCODING 247
SWIDTH 600 0
DWIDTH 6 0
BBX 5 5 0 0
BITMAP
20
00
F8
00
20
ENDCHAR
STARTCHAR oslash
ENCODING 248
SWIDTH 562 0
DWIDTH 6 0
BBX 7 7 -1 -1
BITMAP
02
1C
2C
6C
68
70
80
ENDCHAR
STARTCHAR ugrave
ENCODING 249
SWIDTH 634 0
DWIDTH 7 0
BBX 6 8 0 0
BITMAP
30
18
00
EC
6C
D8
D8
FC
ENDCHAR
STARTCHAR uacute
ENCODING 250
SWIDTH 634 0
DWIDTH 7 0
BBX 6 8 0 0
BITMAP
0C
18
00
EC
6C
D8
D8
FC
ENDCHAR
STARTCHAR ucircumflex
ENCODING 251
SWIDTH 634 0
DWIDTH 7 0
BBX 6 8 0 0
BITMAP
18
2C
00
EC
6C
D8
D8
FC
ENDCHAR
STARTCHAR udieresis
ENCODING 252
SWIDTH 634 0
DWIDTH 7 0
BBX 6 8 0 0
BITMAP
14
14
00
EC
6C
D8
D8
FC
ENDCHAR
STARTCHAR yacute
ENCODING 253
SWIDTH 489 0
DWIDTH 5 0
BBX 7 10 -2 -2
BITMAP
06
0C
00
36
36
34
38
30
A0
C0
ENDCHAR
STARTCHAR thorn
ENCODING 254
SWIDTH 600 0
DWIDTH 6 0
BBX 7 10 -1 -2
BITMAP
38
18
30
3E
36
76
64
78
C0
C0
ENDCHAR
STARTCHAR ydieresis
ENCODING 255
SWIDTH 489 0
DWIDTH 5 0
BBX 7 10 -2 -2
BITMAP
14
14
00
36
36
34
38
30
A0
C0
ENDCHAR
ENDFONT
