STARTFONT 2.1
COMMENT AUTOMATICALLY GENERATED FILE. DO NOT EDIT!
COMMENT Generated with 'ucs2any.pl UTI___10.bdf ../../../fonts/util/map-ISO8859-1 ISO8859-1'
COMMENT from an ISO10646-1 encoded source BDF font.
COMMENT ucs2any.pl by Markus Kuhn <mkuhn@acm.org>, 2000.
FONT -Adobe-Utopia-Regular-I-Normal--10-100-75-75-P-55-ISO8859-1
SIZE 10 75 75
FONTBOUNDINGBOX 13 11 -2 -2
COMMENT $Xorg: $
COMMENT ISO10646-1 extension by Markus Kuhn <mkuhn@acm.org>, 2001-03-20
STARTPROPERTIES 28
FOUNDRY "Adobe"
FAMILY_NAME "Utopia"
WEIGHT_NAME "Regular"
SLANT "I"
SETWIDTH_NAME "Normal"
ADD_STYLE_NAME ""
PIXEL_SIZE 10
POINT_SIZE 100
RESOLUTION_X 75
RESOLUTION_Y 75
SPACING "P"
AVERAGE_WIDTH 55
CHARSET_REGISTRY "ISO8859"
CHARSET_ENCODING "1"
CAP_HEIGHT 7
X_HEIGHT 5
RELATIVE_SETWIDTH 50
RELATIVE_WEIGHT 50
WEIGHT 130
FACE_NAME "Utopia Italic"
COPYRIGHT "Copyright (c) 1989, 1991 Adobe Systems Incorporated.  All rights reserved."
NOTICE "Utopia is a registered trademark of Adobe Systems Incorporated."
DESTINATION 0
FONT_ASCENT 9
FONT_DESCENT 2
DEFAULT_CHAR 0
_ADOBE_PSFONT "Utopia-Italic"
_DEC_DEVICE_FONTNAMES "PS=Utopia-Italic"
ENDPROPERTIES
CHARS 192
STARTCHAR defaultchar
ENCODING 0
SWIDTH 775 0
DWIDTH 8 0
BBX 7 7 0 0
BITMAP
AA
00
82
00
82
00
AA
ENDCHAR
STARTCHAR space
ENCODING 32
SWIDTH 225 0
DWIDTH 2 0
BBX 0 0 0 0
BITMAP
ENDCHAR
STARTCHAR exclam
ENCODING 33
SWIDTH 240 0
DWIDTH 2 0
BBX 2 7 0 0
BITMAP
40
40
40
80
80
00
80
ENDCHAR
STARTCHAR quotedbl
ENCODING 34
SWIDTH 402 0
DWIDTH 5 0
BBX 3 3 1 4
BITMAP
A0
A0
A0
ENDCHAR
STARTCHAR numbersign
ENCODING 35
SWIDTH 530 0
DWIDTH 5 0
BBX 5 7 0 0
BITMAP
28
28
F8
50
F8
A0
A0
ENDCHAR
STARTCHAR dollar
ENCODING 36
SWIDTH 530 0
DWIDTH 6 0
BBX 6 9 0 -1
BITMAP
08
38
54
50
30
28
A8
70
40
ENDCHAR
STARTCHAR percent
ENCODING 37
SWIDTH 826 0
DWIDTH 8 0
BBX 7 7 1 0
BITMAP
64
B8
A8
D6
2A
2A
4C
ENDCHAR
STARTCHAR ampersand
ENCODING 38
SWIDTH 725 0
DWIDTH 8 0
BBX 7 7 0 0
BITMAP
30
48
28
52
8A
8C
72
ENDCHAR
STARTCHAR quotesingle
ENCODING 39
SWIDTH 216 0
DWIDTH 3 0
BBX 1 3 1 4
BITMAP
80
80
80
ENDCHAR
STARTCHAR parenleft
ENCODING 40
SWIDTH 350 0
DWIDTH 4 0
BBX 3 9 1 -2
BITMAP
20
40
40
80
80
80
80
80
40
ENDCHAR
STARTCHAR parenright
ENCODING 41
SWIDTH 350 0
DWIDTH 4 0
BBX 3 9 0 -2
BITMAP
40
20
20
20
20
20
40
40
80
ENDCHAR
STARTCHAR asterisk
ENCODING 42
SWIDTH 412 0
DWIDTH 5 0
BBX 5 5 0 2
BITMAP
20
A8
70
A8
20
ENDCHAR
STARTCHAR plus
ENCODING 43
SWIDTH 570 0
DWIDTH 6 0
BBX 5 5 0 0
BITMAP
20
20
F8
20
20
ENDCHAR
STARTCHAR comma
ENCODING 44
SWIDTH 265 0
DWIDTH 3 0
BBX 2 3 0 -2
BITMAP
40
40
80
ENDCHAR
STARTCHAR hyphen
ENCODING 45
SWIDTH 392 0
DWIDTH 4 0
BBX 3 1 0 2
BITMAP
E0
ENDCHAR
STARTCHAR period
ENCODING 46
SWIDTH 265 0
DWIDTH 3 0
BBX 1 1 0 0
BITMAP
80
ENDCHAR
STARTCHAR slash
ENCODING 47
SWIDTH 270 0
DWIDTH 4 0
BBX 3 7 0 0
BITMAP
20
20
40
40
40
80
80
ENDCHAR
STARTCHAR zero
ENCODING 48
SWIDTH 530 0
DWIDTH 5 0
BBX 5 7 0 0
BITMAP
30
48
48
88
90
90
60
ENDCHAR
STARTCHAR one
ENCODING 49
SWIDTH 530 0
DWIDTH 5 0
BBX 3 7 1 0
BITMAP
60
20
20
40
40
40
E0
ENDCHAR
STARTCHAR two
ENCODING 50
SWIDTH 530 0
DWIDTH 5 0
BBX 5 7 0 0
BITMAP
30
48
08
10
20
40
F8
ENDCHAR
STARTCHAR three
ENCODING 51
SWIDTH 530 0
DWIDTH 5 0
BBX 5 7 0 0
BITMAP
30
48
08
30
10
90
60
ENDCHAR
STARTCHAR four
ENCODING 52
SWIDTH 530 0
DWIDTH 5 0
BBX 5 7 0 0
BITMAP
10
20
50
90
F8
20
70
ENDCHAR
STARTCHAR five
ENCODING 53
SWIDTH 530 0
DWIDTH 5 0
BBX 5 7 0 0
BITMAP
78
40
60
10
10
90
60
ENDCHAR
STARTCHAR six
ENCODING 54
SWIDTH 530 0
DWIDTH 5 0
BBX 5 7 0 0
BITMAP
30
48
60
90
90
90
60
ENDCHAR
STARTCHAR seven
ENCODING 55
SWIDTH 530 0
DWIDTH 5 0
BBX 4 7 1 0
BITMAP
F0
90
20
20
40
80
80
ENDCHAR
STARTCHAR eight
ENCODING 56
SWIDTH 530 0
DWIDTH 5 0
BBX 5 7 0 0
BITMAP
30
48
48
70
90
90
60
ENDCHAR
STARTCHAR nine
ENCODING 57
SWIDTH 530 0
DWIDTH 5 0
BBX 5 7 0 0
BITMAP
30
48
48
48
30
90
60
ENDCHAR
STARTCHAR colon
ENCODING 58
SWIDTH 265 0
DWIDTH 3 0
BBX 2 5 0 0
BITMAP
40
00
00
00
80
ENDCHAR
STARTCHAR semicolon
ENCODING 59
SWIDTH 265 0
DWIDTH 3 0
BBX 3 7 -1 -2
BITMAP
20
00
00
00
40
40
80
ENDCHAR
STARTCHAR less
ENCODING 60
SWIDTH 570 0
DWIDTH 6 0
BBX 5 5 0 0
BITMAP
08
30
C0
30
08
ENDCHAR
STARTCHAR equal
ENCODING 61
SWIDTH 570 0
DWIDTH 6 0
BBX 5 3 0 1
BITMAP
F8
00
F8
ENDCHAR
STARTCHAR greater
ENCODING 62
SWIDTH 570 0
DWIDTH 6 0
BBX 5 5 0 0
BITMAP
80
60
18
60
80
ENDCHAR
STARTCHAR question
ENCODING 63
SWIDTH 425 0
DWIDTH 5 0
BBX 3 7 1 0
BITMAP
60
A0
20
40
80
00
80
ENDCHAR
STARTCHAR at
ENCODING 64
SWIDTH 794 0
DWIDTH 8 0
BBX 7 7 1 0
BITMAP
38
44
9A
AA
BC
40
3C
ENDCHAR
STARTCHAR A
ENCODING 65
SWIDTH 624 0
DWIDTH 6 0
BBX 7 7 -1 0
BITMAP
08
18
18
24
3C
44
CE
ENDCHAR
STARTCHAR B
ENCODING 66
SWIDTH 632 0
DWIDTH 7 0
BBX 6 7 0 0
BITMAP
78
24
24
38
44
44
F8
ENDCHAR
STARTCHAR C
ENCODING 67
SWIDTH 661 0
DWIDTH 6 0
BBX 6 7 0 0
BITMAP
3C
44
80
80
80
84
78
ENDCHAR
STARTCHAR D
ENCODING 68
SWIDTH 763 0
DWIDTH 8 0
BBX 7 7 0 0
BITMAP
7C
22
22
42
42
44
F8
ENDCHAR
STARTCHAR E
ENCODING 69
SWIDTH 596 0
DWIDTH 6 0
BBX 6 7 0 0
BITMAP
7C
24
20
78
40
48
F8
ENDCHAR
STARTCHAR F
ENCODING 70
SWIDTH 571 0
DWIDTH 6 0
BBX 6 7 0 0
BITMAP
7C
24
20
78
40
40
E0
ENDCHAR
STARTCHAR G
ENCODING 71
SWIDTH 709 0
DWIDTH 7 0
BBX 7 7 0 0
BITMAP
3C
44
80
80
8E
84
78
ENDCHAR
STARTCHAR H
ENCODING 72
SWIDTH 775 0
DWIDTH 8 0
BBX 8 7 0 0
BITMAP
77
22
22
7E
44
44
EE
ENDCHAR
STARTCHAR I
ENCODING 73
SWIDTH 345 0
DWIDTH 4 0
BBX 4 7 0 0
BITMAP
70
20
20
40
40
40
E0
ENDCHAR
STARTCHAR J
ENCODING 74
SWIDTH 352 0
DWIDTH 4 0
BBX 5 9 -1 -2
BITMAP
38
10
10
10
20
20
20
20
C0
ENDCHAR
STARTCHAR K
ENCODING 75
SWIDTH 650 0
DWIDTH 7 0
BBX 7 7 0 0
BITMAP
76
24
28
70
48
44
EE
ENDCHAR
STARTCHAR L
ENCODING 76
SWIDTH 565 0
DWIDTH 6 0
BBX 5 7 0 0
BITMAP
70
20
20
40
40
48
F8
ENDCHAR
STARTCHAR M
ENCODING 77
SWIDTH 920 0
DWIDTH 10 0
BBX 10 7 0 0
BITMAP
71C0
3180
3280
2A80
4D00
4900
EB80
ENDCHAR
STARTCHAR N
ENCODING 78
SWIDTH 763 0
DWIDTH 8 0
BBX 8 7 0 0
BITMAP
67
32
32
2A
4C
44
E4
ENDCHAR
STARTCHAR O
ENCODING 79
SWIDTH 753 0
DWIDTH 7 0
BBX 7 7 0 0
BITMAP
3C
42
82
82
82
84
78
ENDCHAR
STARTCHAR P
ENCODING 80
SWIDTH 614 0
DWIDTH 6 0
BBX 6 7 0 0
BITMAP
78
24
24
78
40
40
E0
ENDCHAR
STARTCHAR Q
ENCODING 81
SWIDTH 753 0
DWIDTH 7 0
BBX 7 9 0 -2
BITMAP
3C
42
82
82
82
84
78
10
0C
ENDCHAR
STARTCHAR R
ENCODING 82
SWIDTH 640 0
DWIDTH 7 0
BBX 6 7 0 0
BITMAP
78
24
24
78
48
48
EC
ENDCHAR
STARTCHAR S
ENCODING 83
SWIDTH 533 0
DWIDTH 5 0
BBX 5 7 0 0
BITMAP
38
48
40
20
10
90
E0
ENDCHAR
STARTCHAR T
ENCODING 84
SWIDTH 606 0
DWIDTH 7 0
BBX 7 7 0 0
BITMAP
FE
92
10
20
20
20
70
ENDCHAR
STARTCHAR U
ENCODING 85
SWIDTH 794 0
DWIDTH 8 0
BBX 7 7 1 0
BITMAP
EE
44
44
88
88
88
70
ENDCHAR
STARTCHAR V
ENCODING 86
SWIDTH 637 0
DWIDTH 6 0
BBX 7 7 0 0
BITMAP
E6
44
48
48
30
30
20
ENDCHAR
STARTCHAR W
ENCODING 87
SWIDTH 946 0
DWIDTH 10 0
BBX 11 7 0 0
BITMAP
E4E0
4440
4C80
4C80
3300
3300
2200
ENDCHAR
STARTCHAR X
ENCODING 88
SWIDTH 632 0
DWIDTH 7 0
BBX 7 7 0 0
BITMAP
76
24
28
10
28
48
DC
ENDCHAR
STARTCHAR Y
ENCODING 89
SWIDTH 591 0
DWIDTH 7 0
BBX 6 7 1 0
BITMAP
EC
48
50
20
40
40
E0
ENDCHAR
STARTCHAR Z
ENCODING 90
SWIDTH 622 0
DWIDTH 7 0
BBX 7 7 0 0
BITMAP
7E
44
08
10
20
44
FC
ENDCHAR
STARTCHAR bracketleft
ENCODING 91
SWIDTH 330 0
DWIDTH 3 0
BBX 3 9 0 -2
BITMAP
60
40
40
40
40
80
80
80
C0
ENDCHAR
STARTCHAR backslash
ENCODING 92
SWIDTH 390 0
DWIDTH 4 0
BBX 3 7 0 0
BITMAP
80
80
40
40
40
20
20
ENDCHAR
STARTCHAR bracketright
ENCODING 93
SWIDTH 330 0
DWIDTH 3 0
BBX 3 9 0 -2
BITMAP
60
20
20
20
40
40
40
40
C0
ENDCHAR
STARTCHAR asciicircum
ENCODING 94
SWIDTH 570 0
DWIDTH 6 0
BBX 5 5 0 2
BITMAP
20
20
50
50
88
ENDCHAR
STARTCHAR underscore
ENCODING 95
SWIDTH 500 0
DWIDTH 5 0
BBX 5 1 0 -2
BITMAP
F8
ENDCHAR
STARTCHAR grave
ENCODING 96
SWIDTH 400 0
DWIDTH 4 0
BBX 2 2 1 6
BITMAP
80
40
ENDCHAR
STARTCHAR a
ENCODING 97
SWIDTH 561 0
DWIDTH 6 0
BBX 5 5 0 0
BITMAP
38
48
90
B0
D8
ENDCHAR
STARTCHAR b
ENCODING 98
SWIDTH 559 0
DWIDTH 6 0
BBX 5 8 0 0
BITMAP
60
20
40
58
68
88
90
E0
ENDCHAR
STARTCHAR c
ENCODING 99
SWIDTH 441 0
DWIDTH 5 0
BBX 4 5 0 0
BITMAP
30
50
80
90
E0
ENDCHAR
STARTCHAR d
ENCODING 100
SWIDTH 587 0
DWIDTH 6 0
BBX 6 8 0 0
BITMAP
0C
04
08
38
48
90
B0
D8
ENDCHAR
STARTCHAR e
ENCODING 101
SWIDTH 453 0
DWIDTH 5 0
BBX 4 5 0 0
BITMAP
30
50
E0
80
60
ENDCHAR
STARTCHAR f
ENCODING 102
SWIDTH 315 0
DWIDTH 3 0
BBX 6 10 -2 -2
BITMAP
0C
14
10
38
10
20
20
20
20
C0
ENDCHAR
STARTCHAR g
ENCODING 103
SWIDTH 499 0
DWIDTH 5 0
BBX 6 7 -1 -2
BITMAP
3C
48
50
20
70
88
F0
ENDCHAR
STARTCHAR h
ENCODING 104
SWIDTH 607 0
DWIDTH 6 0
BBX 5 8 0 0
BITMAP
60
20
40
58
68
48
90
98
ENDCHAR
STARTCHAR i
ENCODING 105
SWIDTH 317 0
DWIDTH 3 0
BBX 2 7 0 0
BITMAP
40
00
C0
40
80
80
C0
ENDCHAR
STARTCHAR j
ENCODING 106
SWIDTH 309 0
DWIDTH 3 0
BBX 4 9 -2 -2
BITMAP
10
00
30
10
10
20
20
A0
C0
ENDCHAR
STARTCHAR k
ENCODING 107
SWIDTH 545 0
DWIDTH 6 0
BBX 5 8 0 0
BITMAP
60
20
40
48
58
A0
A8
90
ENDCHAR
STARTCHAR l
ENCODING 108
SWIDTH 306 0
DWIDTH 3 0
BBX 3 8 0 0
BITMAP
60
20
40
40
40
80
80
C0
ENDCHAR
STARTCHAR m
ENCODING 109
SWIDTH 912 0
DWIDTH 9 0
BBX 8 5 0 0
BITMAP
DB
6D
49
92
93
ENDCHAR
STARTCHAR n
ENCODING 110
SWIDTH 618 0
DWIDTH 6 0
BBX 5 5 0 0
BITMAP
D8
68
48
90
98
ENDCHAR
STARTCHAR o
ENCODING 111
SWIDTH 537 0
DWIDTH 6 0
BBX 5 5 0 0
BITMAP
38
48
88
90
E0
ENDCHAR
STARTCHAR p
ENCODING 112
SWIDTH 590 0
DWIDTH 7 0
BBX 6 7 0 -2
BITMAP
CC
54
64
48
F0
80
80
ENDCHAR
STARTCHAR q
ENCODING 113
SWIDTH 559 0
DWIDTH 6 0
BBX 5 7 0 -2
BITMAP
38
48
98
A8
D0
10
10
ENDCHAR
STARTCHAR r
ENCODING 114
SWIDTH 402 0
DWIDTH 5 0
BBX 5 5 0 0
BITMAP
D8
68
40
80
80
ENDCHAR
STARTCHAR s
ENCODING 115
SWIDTH 389 0
DWIDTH 4 0
BBX 3 5 0 0
BITMAP
60
80
40
20
C0
ENDCHAR
STARTCHAR t
ENCODING 116
SWIDTH 341 0
DWIDTH 3 0
BBX 3 6 0 0
BITMAP
40
E0
40
80
80
C0
ENDCHAR
STARTCHAR u
ENCODING 117
SWIDTH 618 0
DWIDTH 6 0
BBX 5 5 0 0
BITMAP
C8
48
90
B0
D8
ENDCHAR
STARTCHAR v
ENCODING 118
SWIDTH 510 0
DWIDTH 5 0
BBX 4 5 0 0
BITMAP
D0
50
90
A0
C0
ENDCHAR
STARTCHAR w
ENCODING 119
SWIDTH 785 0
DWIDTH 8 0
BBX 7 5 0 0
BITMAP
CA
4A
92
B4
D8
ENDCHAR
STARTCHAR x
ENCODING 120
SWIDTH 516 0
DWIDTH 5 0
BBX 6 5 -1 0
BITMAP
64
28
30
50
98
ENDCHAR
STARTCHAR y
ENCODING 121
SWIDTH 468 0
DWIDTH 5 0
BBX 6 7 -1 -2
BITMAP
64
24
28
10
20
A0
C0
ENDCHAR
STARTCHAR z
ENCODING 122
SWIDTH 468 0
DWIDTH 5 0
BBX 5 5 0 0
BITMAP
78
50
20
48
B0
ENDCHAR
STARTCHAR braceleft
ENCODING 123
SWIDTH 340 0
DWIDTH 3 0
BBX 3 9 0 -2
BITMAP
20
40
40
80
40
40
80
80
40
ENDCHAR
STARTCHAR bar
ENCODING 124
SWIDTH 270 0
DWIDTH 3 0
BBX 1 7 1 0
BITMAP
80
80
80
80
80
80
80
ENDCHAR
STARTCHAR braceright
ENCODING 125
SWIDTH 340 0
DWIDTH 3 0
BBX 3 9 -1 -2
BITMAP
40
20
20
40
20
40
40
40
80
ENDCHAR
STARTCHAR asciitilde
ENCODING 126
SWIDTH 570 0
DWIDTH 6 0
BBX 5 2 0 2
BITMAP
68
B0
ENDCHAR
STARTCHAR space
ENCODING 160
SWIDTH 225 0
DWIDTH 2 0
BBX 0 0 0 0
BITMAP
ENDCHAR
STARTCHAR exclamdown
ENCODING 161
SWIDTH 240 0
DWIDTH 2 0
BBX 2 7 -1 -2
BITMAP
40
00
40
40
80
80
80
ENDCHAR
STARTCHAR cent
ENCODING 162
SWIDTH 530 0
DWIDTH 6 0
BBX 6 7 0 0
BITMAP
10
38
54
A0
A8
70
20
ENDCHAR
STARTCHAR sterling
ENCODING 163
SWIDTH 530 0
DWIDTH 6 0
BBX 6 7 0 0
BITMAP
1C
24
20
F8
20
48
F8
ENDCHAR
STARTCHAR currency
ENCODING 164
SWIDTH 530 0
DWIDTH 5 0
BBX 4 6 0 1
BITMAP
90
60
90
90
60
90
ENDCHAR
STARTCHAR yen
ENCODING 165
SWIDTH 530 0
DWIDTH 5 0
BBX 5 7 0 0
BITMAP
C8
50
D8
20
F0
40
E0
ENDCHAR
STARTCHAR brokenbar
ENCODING 166
SWIDTH 270 0
DWIDTH 3 0
BBX 1 7 1 0
BITMAP
80
80
80
00
80
80
80
ENDCHAR
STARTCHAR section
ENCODING 167
SWIDTH 530 0
DWIDTH 5 0
BBX 4 9 0 -2
BITMAP
30
50
40
A0
90
50
20
A0
C0
ENDCHAR
STARTCHAR dieresis
ENCODING 168
SWIDTH 400 0
DWIDTH 4 0
BBX 3 1 0 6
BITMAP
A0
ENDCHAR
STARTCHAR copyright
ENCODING 169
SWIDTH 836 0
DWIDTH 9 0
BBX 8 7 0 0
BITMAP
3C
42
99
A1
99
42
3C
ENDCHAR
STARTCHAR ordfeminine
ENCODING 170
SWIDTH 425 0
DWIDTH 4 0
BBX 4 3 0 3
BITMAP
60
A0
F0
ENDCHAR
STARTCHAR guillemotleft
ENCODING 171
SWIDTH 462 0
DWIDTH 5 0
BBX 5 4 0 1
BITMAP
28
50
A0
50
ENDCHAR
STARTCHAR logicalnot
ENCODING 172
SWIDTH 570 0
DWIDTH 6 0
BBX 5 3 0 1
BITMAP
F8
08
08
ENDCHAR
STARTCHAR hyphen
ENCODING 173
SWIDTH 392 0
DWIDTH 4 0
BBX 3 1 0 2
BITMAP
E0
ENDCHAR
STARTCHAR registered
ENCODING 174
SWIDTH 836 0
DWIDTH 9 0
BBX 8 7 0 0
BITMAP
3C
42
B9
B9
A5
42
3C
ENDCHAR
STARTCHAR macron
ENCODING 175
SWIDTH 400 0
DWIDTH 4 0
BBX 3 1 0 6
BITMAP
E0
ENDCHAR
STARTCHAR degree
ENCODING 176
SWIDTH 400 0
DWIDTH 4 0
BBX 4 3 0 4
BITMAP
60
90
60
ENDCHAR
STARTCHAR plusminus
ENCODING 177
SWIDTH 570 0
DWIDTH 6 0
BBX 5 6 0 0
BITMAP
20
20
F8
20
20
F8
ENDCHAR
STARTCHAR twosuperior
ENCODING 178
SWIDTH 370 0
DWIDTH 4 0
BBX 3 4 1 3
BITMAP
C0
20
40
E0
ENDCHAR
STARTCHAR threesuperior
ENCODING 179
SWIDTH 370 0
DWIDTH 4 0
BBX 3 4 1 3
BITMAP
E0
40
20
C0
ENDCHAR
STARTCHAR acute
ENCODING 180
SWIDTH 400 0
DWIDTH 4 0
BBX 2 2 1 6
BITMAP
40
80
ENDCHAR
STARTCHAR mu
ENCODING 181
SWIDTH 618 0
DWIDTH 6 0
BBX 6 7 -1 -2
BITMAP
64
24
48
58
6C
80
80
ENDCHAR
STARTCHAR paragraph
ENCODING 182
SWIDTH 560 0
DWIDTH 6 0
BBX 6 9 0 -2
BITMAP
6C
E8
C8
D0
10
10
20
20
60
ENDCHAR
STARTCHAR periodcentered
ENCODING 183
SWIDTH 265 0
DWIDTH 3 0
BBX 1 1 1 2
BITMAP
80
ENDCHAR
STARTCHAR cedilla
ENCODING 184
SWIDTH 400 0
DWIDTH 4 0
BBX 2 2 1 -2
BITMAP
40
C0
ENDCHAR
STARTCHAR onesuperior
ENCODING 185
SWIDTH 370 0
DWIDTH 4 0
BBX 3 4 1 3
BITMAP
C0
40
40
E0
ENDCHAR
STARTCHAR ordmasculine
ENCODING 186
SWIDTH 389 0
DWIDTH 4 0
BBX 3 3 1 3
BITMAP
60
A0
C0
ENDCHAR
STARTCHAR guillemotright
ENCODING 187
SWIDTH 462 0
DWIDTH 5 0
BBX 5 4 0 1
BITMAP
50
28
50
A0
ENDCHAR
STARTCHAR onequarter
ENCODING 188
SWIDTH 890 0
DWIDTH 8 0
BBX 7 7 1 0
BITMAP
C8
50
54
EC
54
5E
84
ENDCHAR
STARTCHAR onehalf
ENCODING 189
SWIDTH 890 0
DWIDTH 8 0
BBX 7 7 0 0
BITMAP
C4
48
48
DC
22
24
4E
ENDCHAR
STARTCHAR threequarters
ENCODING 190
SWIDTH 890 0
DWIDTH 8 0
BBX 8 7 0 0
BITMAP
E4
48
2A
D6
2A
2F
42
ENDCHAR
STARTCHAR questiondown
ENCODING 191
SWIDTH 425 0
DWIDTH 5 0
BBX 3 7 1 -2
BITMAP
20
00
20
40
80
A0
C0
ENDCHAR
STARTCHAR Agrave
ENCODING 192
SWIDTH 624 0
DWIDTH 6 0
BBX 7 9 -1 0
BITMAP
10
08
00
08
18
24
3C
44
CE
ENDCHAR
STARTCHAR Aacute
ENCODING 193
SWIDTH 624 0
DWIDTH 6 0
BBX 7 9 -1 0
BITMAP
04
08
00
08
18
24
3C
44
CE
ENDCHAR
STARTCHAR Acircumflex
ENCODING 194
SWIDTH 624 0
DWIDTH 6 0
BBX 7 9 -1 0
BITMAP
08
14
00
08
18
24
3C
44
CE
ENDCHAR
STARTCHAR Atilde
ENCODING 195
SWIDTH 624 0
DWIDTH 6 0
BBX 7 9 -1 0
BITMAP
12
2C
00
08
18
24
3C
44
CE
ENDCHAR
STARTCHAR Adieresis
ENCODING 196
SWIDTH 624 0
DWIDTH 6 0
BBX 7 8 -1 0
BITMAP
14
00
08
18
24
3C
44
CE
ENDCHAR
STARTCHAR Aring
ENCODING 197
SWIDTH 624 0
DWIDTH 6 0
BBX 7 9 -1 0
BITMAP
08
14
08
08
18
24
3C
44
CE
ENDCHAR
STARTCHAR AE
ENCODING 198
SWIDTH 880 0
DWIDTH 9 0
BBX 10 7 -1 0
BITMAP
0FC0
0640
0A00
1780
3C00
4480
EF80
ENDCHAR
STARTCHAR Ccedilla
ENCODING 199
SWIDTH 661 0
DWIDTH 6 0
BBX 6 9 0 -2
BITMAP
3C
44
80
80
80
84
78
20
60
ENDCHAR
STARTCHAR Egrave
ENCODING 200
SWIDTH 596 0
DWIDTH 6 0
BBX 6 9 0 0
BITMAP
10
08
00
7C
24
38
40
48
F8
ENDCHAR
STARTCHAR Eacute
ENCODING 201
SWIDTH 596 0
DWIDTH 6 0
BBX 6 9 0 0
BITMAP
08
10
00
7C
24
38
40
48
F8
ENDCHAR
STARTCHAR Ecircumflex
ENCODING 202
SWIDTH 596 0
DWIDTH 6 0
BBX 6 9 0 0
BITMAP
10
28
00
7C
24
38
40
48
F8
ENDCHAR
STARTCHAR Edieresis
ENCODING 203
SWIDTH 596 0
DWIDTH 6 0
BBX 6 8 0 0
BITMAP
28
00
7C
24
38
40
48
F8
ENDCHAR
STARTCHAR Igrave
ENCODING 204
SWIDTH 345 0
DWIDTH 4 0
BBX 4 9 0 0
BITMAP
20
10
00
70
20
20
40
40
E0
ENDCHAR
STARTCHAR Iacute
ENCODING 205
SWIDTH 345 0
DWIDTH 4 0
BBX 4 9 0 0
BITMAP
10
20
00
70
20
20
40
40
E0
ENDCHAR
STARTCHAR Icircumflex
ENCODING 206
SWIDTH 345 0
DWIDTH 4 0
BBX 4 9 0 0
BITMAP
20
50
00
70
20
20
40
40
E0
ENDCHAR
STARTCHAR Idieresis
ENCODING 207
SWIDTH 345 0
DWIDTH 4 0
BBX 4 8 0 0
BITMAP
50
00
70
20
20
40
40
E0
ENDCHAR
STARTCHAR Eth
ENCODING 208
SWIDTH 770 0
DWIDTH 8 0
BBX 7 7 0 0
BITMAP
7C
22
22
F2
42
44
F8
ENDCHAR
STARTCHAR Ntilde
ENCODING 209
SWIDTH 763 0
DWIDTH 8 0
BBX 8 9 0 0
BITMAP
12
2C
00
67
32
32
4C
4C
E4
ENDCHAR
STARTCHAR Ograve
ENCODING 210
SWIDTH 753 0
DWIDTH 7 0
BBX 7 9 0 0
BITMAP
10
08
00
3C
42
82
82
84
78
ENDCHAR
STARTCHAR Oacute
ENCODING 211
SWIDTH 753 0
DWIDTH 7 0
BBX 7 9 0 0
BITMAP
04
08
00
3C
42
82
82
84
78
ENDCHAR
STARTCHAR Ocircumflex
ENCODING 212
SWIDTH 753 0
DWIDTH 7 0
BBX 7 9 0 0
BITMAP
08
14
00
3C
42
82
82
84
78
ENDCHAR
STARTCHAR Otilde
ENCODING 213
SWIDTH 753 0
DWIDTH 7 0
BBX 7 9 0 0
BITMAP
12
2C
00
3C
42
82
82
84
78
ENDCHAR
STARTCHAR Odieresis
ENCODING 214
SWIDTH 753 0
DWIDTH 7 0
BBX 7 8 0 0
BITMAP
14
00
3C
42
82
82
84
78
ENDCHAR
STARTCHAR multiply
ENCODING 215
SWIDTH 570 0
DWIDTH 6 0
BBX 5 5 0 0
BITMAP
88
50
20
50
88
ENDCHAR
STARTCHAR Oslash
ENCODING 216
SWIDTH 753 0
DWIDTH 7 0
BBX 7 9 0 -1
BITMAP
04
3C
4A
8A
92
A2
A4
78
40
ENDCHAR
STARTCHAR Ugrave
ENCODING 217
SWIDTH 794 0
DWIDTH 8 0
BBX 7 9 1 0
BITMAP
10
08
00
EE
44
44
88
88
70
ENDCHAR
STARTCHAR Uacute
ENCODING 218
SWIDTH 794 0
DWIDTH 8 0
BBX 7 9 1 0
BITMAP
08
10
00
EE
44
44
88
88
70
ENDCHAR
STARTCHAR Ucircumflex
ENCODING 219
SWIDTH 794 0
DWIDTH 8 0
BBX 7 9 1 0
BITMAP
10
28
00
EE
44
44
88
88
70
ENDCHAR
STARTCHAR Udieresis
ENCODING 220
SWIDTH 794 0
DWIDTH 8 0
BBX 7 8 1 0
BITMAP
14
00
EE
44
44
88
88
70
ENDCHAR
STARTCHAR Yacute
ENCODING 221
SWIDTH 591 0
DWIDTH 7 0
BBX 6 9 1 0
BITMAP
08
10
00
EC
48
50
20
40
E0
ENDCHAR
STARTCHAR Thorn
ENCODING 222
SWIDTH 604 0
DWIDTH 6 0
BBX 6 7 0 0
BITMAP
60
38
24
44
78
40
E0
ENDCHAR
STARTCHAR germandbls
ENCODING 223
SWIDTH 577 0
DWIDTH 6 0
BBX 8 10 -2 -2
BITMAP
07
09
12
34
14
26
22
2C
20
C0
ENDCHAR
STARTCHAR agrave
ENCODING 224
SWIDTH 561 0
DWIDTH 6 0
BBX 5 8 0 0
BITMAP
20
10
00
38
48
90
B0
D8
ENDCHAR
STARTCHAR aacute
ENCODING 225
SWIDTH 561 0
DWIDTH 6 0
BBX 5 8 0 0
BITMAP
08
10
00
38
48
90
B0
D8
ENDCHAR
STARTCHAR acircumflex
ENCODING 226
SWIDTH 561 0
DWIDTH 6 0
BBX 5 8 0 0
BITMAP
10
28
00
38
48
90
B0
D8
ENDCHAR
STARTCHAR atilde
ENCODING 227
SWIDTH 561 0
DWIDTH 6 0
BBX 6 8 0 0
BITMAP
24
58
00
38
48
90
B0
D8
ENDCHAR
STARTCHAR adieresis
ENCODING 228
SWIDTH 561 0
DWIDTH 6 0
BBX 5 7 0 0
BITMAP
28
00
38
48
90
B0
D8
ENDCHAR
STARTCHAR aring
ENCODING 229
SWIDTH 561 0
DWIDTH 6 0
BBX 5 9 0 0
BITMAP
10
28
10
00
38
48
90
B0
D8
ENDCHAR
STARTCHAR ae
ENCODING 230
SWIDTH 779 0
DWIDTH 8 0
BBX 7 6 0 0
BITMAP
08
3E
4A
9C
B0
DC
ENDCHAR
STARTCHAR ccedilla
ENCODING 231
SWIDTH 441 0
DWIDTH 5 0
BBX 4 7 0 -2
BITMAP
30
50
80
90
E0
40
C0
ENDCHAR
STARTCHAR egrave
ENCODING 232
SWIDTH 453 0
DWIDTH 5 0
BBX 4 8 0 0
BITMAP
20
10
00
30
50
E0
80
60
ENDCHAR
STARTCHAR eacute
ENCODING 233
SWIDTH 453 0
DWIDTH 5 0
BBX 4 8 0 0
BITMAP
10
20
00
30
50
E0
80
60
ENDCHAR
STARTCHAR ecircumflex
ENCODING 234
SWIDTH 453 0
DWIDTH 5 0
BBX 4 8 0 0
BITMAP
20
50
00
30
50
E0
80
60
ENDCHAR
STARTCHAR edieresis
ENCODING 235
SWIDTH 453 0
DWIDTH 5 0
BBX 4 7 0 0
BITMAP
50
00
30
50
E0
80
60
ENDCHAR
STARTCHAR igrave
ENCODING 236
SWIDTH 317 0
DWIDTH 3 0
BBX 2 8 0 0
BITMAP
80
40
00
C0
40
80
80
C0
ENDCHAR
STARTCHAR iacute
ENCODING 237
SWIDTH 317 0
DWIDTH 3 0
BBX 2 8 0 0
BITMAP
40
80
00
C0
40
80
80
C0
ENDCHAR
STARTCHAR icircumflex
ENCODING 238
SWIDTH 317 0
DWIDTH 3 0
BBX 3 8 0 0
BITMAP
40
A0
00
C0
40
80
80
C0
ENDCHAR
STARTCHAR idieresis
ENCODING 239
SWIDTH 317 0
DWIDTH 3 0
BBX 3 7 0 0
BITMAP
A0
00
C0
40
80
80
C0
ENDCHAR
STARTCHAR eth
ENCODING 240
SWIDTH 537 0
DWIDTH 6 0
BBX 5 8 0 0
BITMAP
50
20
50
38
48
88
90
E0
ENDCHAR
STARTCHAR ntilde
ENCODING 241
SWIDTH 618 0
DWIDTH 6 0
BBX 6 8 0 0
BITMAP
24
58
00
D8
68
48
90
98
ENDCHAR
STARTCHAR ograve
ENCODING 242
SWIDTH 537 0
DWIDTH 6 0
BBX 5 8 0 0
BITMAP
20
10
00
38
48
88
90
E0
ENDCHAR
STARTCHAR oacute
ENCODING 243
SWIDTH 537 0
DWIDTH 6 0
BBX 5 8 0 0
BITMAP
08
10
00
38
48
88
90
E0
ENDCHAR
STARTCHAR ocircumflex
ENCODING 244
SWIDTH 537 0
DWIDTH 6 0
BBX 5 8 0 0
BITMAP
10
28
00
38
48
88
90
E0
ENDCHAR
STARTCHAR otilde
ENCODING 245
SWIDTH 537 0
DWIDTH 6 0
BBX 6 8 0 0
BITMAP
24
58
00
38
48
88
90
E0
ENDCHAR
STARTCHAR odieresis
ENCODING 246
SWIDTH 537 0
DWIDTH 6 0
BBX 5 7 0 0
BITMAP
28
00
38
48
88
90
E0
ENDCHAR
STARTCHAR divide
ENCODING 247
SWIDTH 570 0
DWIDTH 6 0
BBX 5 5 0 0
BITMAP
20
00
F8
00
20
ENDCHAR
STARTCHAR oslash
ENCODING 248
SWIDTH 537 0
DWIDTH 6 0
BBX 7 7 -1 -1
BITMAP
02
1C
24
44
48
70
80
ENDCHAR
STARTCHAR ugrave
ENCODING 249
SWIDTH 618 0
DWIDTH 6 0
BBX 5 8 0 0
BITMAP
20
10
00
C8
48
90
B0
D8
ENDCHAR
STARTCHAR uacute
ENCODING 250
SWIDTH 618 0
DWIDTH 6 0
BBX 5 8 0 0
BITMAP
08
10
00
C8
48
90
B0
D8
ENDCHAR
STARTCHAR ucircumflex
ENCODING 251
SWIDTH 618 0
DWIDTH 6 0
BBX 5 8 0 0
BITMAP
10
28
00
C8
48
90
B0
D8
ENDCHAR
STARTCHAR udieresis
ENCODING 252
SWIDTH 618 0
DWIDTH 6 0
BBX 5 7 0 0
BITMAP
28
00
C8
48
90
B0
D8
ENDCHAR
STARTCHAR yacute
ENCODING 253
SWIDTH 468 0
DWIDTH 5 0
BBX 6 10 -1 -2
BITMAP
04
08
00
64
24
28
10
20
A0
C0
ENDCHAR
STARTCHAR thorn
ENCODING 254
SWIDTH 584 0
DWIDTH 6 0
BBX 6 9 -1 -2
BITMAP
60
20
2C
34
44
48
70
80
80
ENDCHAR
STARTCHAR ydieresis
ENCODING 255
SWIDTH 468 0
DWIDTH 5 0
BBX 6 9 -1 -2
BITMAP
28
00
64
24
28
10
20
A0
C0
ENDCHAR
ENDFONT
