STARTFONT 2.1
COMMENT AUTOMATICALLY GENERATED FILE. DO NOT EDIT!
COMMENT Generated with 'ucs2any.pl 6x13O.bdf ../../../fonts/util/map-ISO8859-1 ISO8859-1'
COMMENT from an ISO10646-1 encoded source BDF font.
COMMENT ucs2any.pl by Markus Kuhn <mkuhn@acm.org>, 2000.
COMMENT Id: 6x13O.bdf,v 1.6 2001-04-03 13:26:32+01 mgk25 Exp mgk25 $
COMMENT Send bug reports to Markus Kuhn <mkuhn@acm.org>
FONT -Misc-Fixed-Medium-O-SemiCondensed--13-120-75-75-C-60-ISO8859-1
SIZE 12 75 75
FONTBOUNDINGBOX 6 13 0 -2
STARTPROPERTIES 21
FONTNAME_REGISTRY ""
FOUNDRY "Misc"
FAMILY_NAME "Fixed"
WEIGHT_NAME "Medium"
SLANT "O"
SETWIDTH_NAME "SemiCondensed"
ADD_STYLE_NAME ""
PIXEL_SIZE 13
POINT_SIZE 120
RESOLUTION_X 75
RESOLUTION_Y 75
SPACING "C"
AVERAGE_WIDTH 60
CHARSET_REGISTRY "ISO8859"
CHARSET_ENCODING "1"
DEFAULT_CHAR 0
FONT_DESCENT 2
FONT_ASCENT 11
COPYRIGHT "Public domain font.  Share and enjoy."
CAP_HEIGHT 9
X_HEIGHT 6
ENDPROPERTIES
CHARS 192
STARTCHAR defaultchar
ENCODING 0
SWIDTH 480 0
DWIDTH 6 0
BBX 6 13 0 -2
BITMAP
00
00
54
00
44
00
44
00
88
00
A8
00
00
ENDCHAR
STARTCHAR space
ENCODING 32
SWIDTH 480 0
DWIDTH 6 0
BBX 6 13 0 -2
BITMAP
00
00
00
00
00
00
00
00
00
00
00
00
00
ENDCHAR
STARTCHAR exclam
ENCODING 33
SWIDTH 480 0
DWIDTH 6 0
BBX 6 13 0 -2
BITMAP
00
00
10
10
10
10
20
20
20
00
20
00
00
ENDCHAR
STARTCHAR quotedbl
ENCODING 34
SWIDTH 480 0
DWIDTH 6 0
BBX 6 13 0 -2
BITMAP
00
00
14
14
28
00
00
00
00
00
00
00
00
ENDCHAR
STARTCHAR numbersign
ENCODING 35
SWIDTH 480 0
DWIDTH 6 0
BBX 6 13 0 -2
BITMAP
00
00
00
28
28
7C
28
F8
50
50
00
00
00
ENDCHAR
STARTCHAR dollar
ENCODING 36
SWIDTH 480 0
DWIDTH 6 0
BBX 6 13 0 -2
BITMAP
00
00
10
3C
50
50
38
24
28
F0
20
00
00
ENDCHAR
STARTCHAR percent
ENCODING 37
SWIDTH 480 0
DWIDTH 6 0
BBX 6 13 0 -2
BITMAP
00
00
24
54
28
08
10
20
50
A8
90
00
00
ENDCHAR
STARTCHAR ampersand
ENCODING 38
SWIDTH 480 0
DWIDTH 6 0
BBX 6 13 0 -2
BITMAP
00
00
00
10
28
28
30
50
94
98
68
00
00
ENDCHAR
STARTCHAR quotesingle
ENCODING 39
SWIDTH 480 0
DWIDTH 6 0
BBX 6 13 0 -2
BITMAP
00
00
08
08
10
00
00
00
00
00
00
00
00
ENDCHAR
STARTCHAR parenleft
ENCODING 40
SWIDTH 480 0
DWIDTH 6 0
BBX 6 13 0 -2
BITMAP
00
08
10
20
20
40
40
40
40
20
20
10
00
ENDCHAR
STARTCHAR parenright
ENCODING 41
SWIDTH 480 0
DWIDTH 6 0
BBX 6 13 0 -2
BITMAP
00
20
10
10
08
08
08
08
10
10
20
40
00
ENDCHAR
STARTCHAR asterisk
ENCODING 42
SWIDTH 480 0
DWIDTH 6 0
BBX 6 13 0 -2
BITMAP
00
00
00
10
54
7C
38
7C
A8
20
00
00
00
ENDCHAR
STARTCHAR plus
ENCODING 43
SWIDTH 480 0
DWIDTH 6 0
BBX 6 13 0 -2
BITMAP
00
00
00
00
10
10
78
20
20
00
00
00
00
ENDCHAR
STARTCHAR comma
ENCODING 44
SWIDTH 480 0
DWIDTH 6 0
BBX 6 13 0 -2
BITMAP
00
00
00
00
00
00
00
00
00
30
20
40
00
ENDCHAR
STARTCHAR hyphen
ENCODING 45
SWIDTH 480 0
DWIDTH 6 0
BBX 6 13 0 -2
BITMAP
00
00
00
00
00
00
78
00
00
00
00
00
00
ENDCHAR
STARTCHAR period
ENCODING 46
SWIDTH 480 0
DWIDTH 6 0
BBX 6 13 0 -2
BITMAP
00
00
00
00
00
00
00
00
00
20
70
20
00
ENDCHAR
STARTCHAR slash
ENCODING 47
SWIDTH 480 0
DWIDTH 6 0
BBX 6 13 0 -2
BITMAP
00
00
04
04
08
10
10
20
40
80
80
00
00
ENDCHAR
STARTCHAR zero
ENCODING 48
SWIDTH 480 0
DWIDTH 6 0
BBX 6 13 0 -2
BITMAP
00
00
10
28
44
44
44
88
88
50
20
00
00
ENDCHAR
STARTCHAR one
ENCODING 49
SWIDTH 480 0
DWIDTH 6 0
BBX 6 13 0 -2
BITMAP
00
00
10
30
50
10
10
20
20
20
F8
00
00
ENDCHAR
STARTCHAR two
ENCODING 50
SWIDTH 480 0
DWIDTH 6 0
BBX 6 13 0 -2
BITMAP
00
00
38
44
44
08
10
20
40
80
F8
00
00
ENDCHAR
STARTCHAR three
ENCODING 51
SWIDTH 480 0
DWIDTH 6 0
BBX 6 13 0 -2
BITMAP
00
00
7C
04
08
10
38
04
08
88
70
00
00
ENDCHAR
STARTCHAR four
ENCODING 52
SWIDTH 480 0
DWIDTH 6 0
BBX 6 13 0 -2
BITMAP
00
00
08
08
18
28
28
48
F8
10
10
00
00
ENDCHAR
STARTCHAR five
ENCODING 53
SWIDTH 480 0
DWIDTH 6 0
BBX 6 13 0 -2
BITMAP
00
00
7C
40
40
58
64
04
08
88
70
00
00
ENDCHAR
STARTCHAR six
ENCODING 54
SWIDTH 480 0
DWIDTH 6 0
BBX 6 13 0 -2
BITMAP
00
00
38
44
40
40
70
88
88
88
70
00
00
ENDCHAR
STARTCHAR seven
ENCODING 55
SWIDTH 480 0
DWIDTH 6 0
BBX 6 13 0 -2
BITMAP
00
00
7C
04
08
08
10
20
20
40
40
00
00
ENDCHAR
STARTCHAR eight
ENCODING 56
SWIDTH 480 0
DWIDTH 6 0
BBX 6 13 0 -2
BITMAP
00
00
38
44
44
44
78
88
88
88
70
00
00
ENDCHAR
STARTCHAR nine
ENCODING 57
SWIDTH 480 0
DWIDTH 6 0
BBX 6 13 0 -2
BITMAP
00
00
38
44
44
44
38
08
08
88
70
00
00
ENDCHAR
STARTCHAR colon
ENCODING 58
SWIDTH 480 0
DWIDTH 6 0
BBX 6 13 0 -2
BITMAP
00
00
00
00
10
38
10
00
00
20
70
20
00
ENDCHAR
STARTCHAR semicolon
ENCODING 59
SWIDTH 480 0
DWIDTH 6 0
BBX 6 13 0 -2
BITMAP
00
00
00
00
10
38
10
00
00
30
20
40
00
ENDCHAR
STARTCHAR less
ENCODING 60
SWIDTH 480 0
DWIDTH 6 0
BBX 6 13 0 -2
BITMAP
00
00
04
08
10
20
40
20
20
10
08
00
00
ENDCHAR
STARTCHAR equal
ENCODING 61
SWIDTH 480 0
DWIDTH 6 0
BBX 6 13 0 -2
BITMAP
00
00
00
00
00
7C
00
00
F8
00
00
00
00
ENDCHAR
STARTCHAR greater
ENCODING 62
SWIDTH 480 0
DWIDTH 6 0
BBX 6 13 0 -2
BITMAP
00
00
40
20
10
08
04
08
30
40
80
00
00
ENDCHAR
STARTCHAR question
ENCODING 63
SWIDTH 480 0
DWIDTH 6 0
BBX 6 13 0 -2
BITMAP
00
00
38
44
44
04
08
10
20
00
20
00
00
ENDCHAR
STARTCHAR at
ENCODING 64
SWIDTH 480 0
DWIDTH 6 0
BBX 6 13 0 -2
BITMAP
00
00
38
44
44
58
A8
A8
90
80
78
00
00
ENDCHAR
STARTCHAR A
ENCODING 65
SWIDTH 480 0
DWIDTH 6 0
BBX 6 13 0 -2
BITMAP
00
00
10
28
44
44
44
F8
88
88
88
00
00
ENDCHAR
STARTCHAR B
ENCODING 66
SWIDTH 480 0
DWIDTH 6 0
BBX 6 13 0 -2
BITMAP
00
00
78
24
24
24
38
48
48
48
F0
00
00
ENDCHAR
STARTCHAR C
ENCODING 67
SWIDTH 480 0
DWIDTH 6 0
BBX 6 13 0 -2
BITMAP
00
00
38
44
40
40
40
80
80
88
70
00
00
ENDCHAR
STARTCHAR D
ENCODING 68
SWIDTH 480 0
DWIDTH 6 0
BBX 6 13 0 -2
BITMAP
00
00
78
24
24
24
24
48
48
48
F0
00
00
ENDCHAR
STARTCHAR E
ENCODING 69
SWIDTH 480 0
DWIDTH 6 0
BBX 6 13 0 -2
BITMAP
00
00
7C
40
40
40
78
80
80
80
F8
00
00
ENDCHAR
STARTCHAR F
ENCODING 70
SWIDTH 480 0
DWIDTH 6 0
BBX 6 13 0 -2
BITMAP
00
00
7C
40
40
40
78
80
80
80
80
00
00
ENDCHAR
STARTCHAR G
ENCODING 71
SWIDTH 480 0
DWIDTH 6 0
BBX 6 13 0 -2
BITMAP
00
00
38
44
40
40
40
98
88
88
70
00
00
ENDCHAR
STARTCHAR H
ENCODING 72
SWIDTH 480 0
DWIDTH 6 0
BBX 6 13 0 -2
BITMAP
00
00
44
44
44
44
7C
88
88
88
88
00
00
ENDCHAR
STARTCHAR I
ENCODING 73
SWIDTH 480 0
DWIDTH 6 0
BBX 6 13 0 -2
BITMAP
00
00
38
10
10
10
10
20
20
20
70
00
00
ENDCHAR
STARTCHAR J
ENCODING 74
SWIDTH 480 0
DWIDTH 6 0
BBX 6 13 0 -2
BITMAP
00
00
1C
08
08
08
08
10
10
90
60
00
00
ENDCHAR
STARTCHAR K
ENCODING 75
SWIDTH 480 0
DWIDTH 6 0
BBX 6 13 0 -2
BITMAP
00
00
44
44
48
50
60
A0
90
88
88
00
00
ENDCHAR
STARTCHAR L
ENCODING 76
SWIDTH 480 0
DWIDTH 6 0
BBX 6 13 0 -2
BITMAP
00
00
40
40
40
40
40
80
80
80
F8
00
00
ENDCHAR
STARTCHAR M
ENCODING 77
SWIDTH 480 0
DWIDTH 6 0
BBX 6 13 0 -2
BITMAP
00
00
44
44
6C
54
54
88
88
88
88
00
00
ENDCHAR
STARTCHAR N
ENCODING 78
SWIDTH 480 0
DWIDTH 6 0
BBX 6 13 0 -2
BITMAP
00
00
44
64
64
54
54
98
88
88
88
00
00
ENDCHAR
STARTCHAR O
ENCODING 79
SWIDTH 480 0
DWIDTH 6 0
BBX 6 13 0 -2
BITMAP
00
00
38
44
44
44
44
88
88
88
70
00
00
ENDCHAR
STARTCHAR P
ENCODING 80
SWIDTH 480 0
DWIDTH 6 0
BBX 6 13 0 -2
BITMAP
00
00
78
44
44
44
78
80
80
80
80
00
00
ENDCHAR
STARTCHAR Q
ENCODING 81
SWIDTH 480 0
DWIDTH 6 0
BBX 6 13 0 -2
BITMAP
00
00
38
44
44
44
44
88
88
A8
70
08
00
ENDCHAR
STARTCHAR R
ENCODING 82
SWIDTH 480 0
DWIDTH 6 0
BBX 6 13 0 -2
BITMAP
00
00
78
44
44
44
78
90
90
88
88
00
00
ENDCHAR
STARTCHAR S
ENCODING 83
SWIDTH 480 0
DWIDTH 6 0
BBX 6 13 0 -2
BITMAP
00
00
38
44
40
40
30
08
08
88
70
00
00
ENDCHAR
STARTCHAR T
ENCODING 84
SWIDTH 480 0
DWIDTH 6 0
BBX 6 13 0 -2
BITMAP
00
00
7C
10
10
10
10
20
20
20
20
00
00
ENDCHAR
STARTCHAR U
ENCODING 85
SWIDTH 480 0
DWIDTH 6 0
BBX 6 13 0 -2
BITMAP
00
00
44
44
44
44
44
88
88
88
70
00
00
ENDCHAR
STARTCHAR V
ENCODING 86
SWIDTH 480 0
DWIDTH 6 0
BBX 6 13 0 -2
BITMAP
00
00
44
44
44
44
48
48
50
50
20
00
00
ENDCHAR
STARTCHAR W
ENCODING 87
SWIDTH 480 0
DWIDTH 6 0
BBX 6 13 0 -2
BITMAP
00
00
44
44
44
44
A8
A8
A8
A8
50
00
00
ENDCHAR
STARTCHAR X
ENCODING 88
SWIDTH 480 0
DWIDTH 6 0
BBX 6 13 0 -2
BITMAP
00
00
44
44
28
28
10
30
48
88
88
00
00
ENDCHAR
STARTCHAR Y
ENCODING 89
SWIDTH 480 0
DWIDTH 6 0
BBX 6 13 0 -2
BITMAP
00
00
44
44
28
28
10
10
20
20
20
00
00
ENDCHAR
STARTCHAR Z
ENCODING 90
SWIDTH 480 0
DWIDTH 6 0
BBX 6 13 0 -2
BITMAP
00
00
7C
04
08
08
10
20
40
80
F8
00
00
ENDCHAR
STARTCHAR bracketleft
ENCODING 91
SWIDTH 480 0
DWIDTH 6 0
BBX 6 13 0 -2
BITMAP
00
38
20
20
20
40
40
40
80
80
80
E0
00
ENDCHAR
STARTCHAR backslash
ENCODING 92
SWIDTH 480 0
DWIDTH 6 0
BBX 6 13 0 -2
BITMAP
00
00
40
40
20
20
20
10
10
08
08
00
00
ENDCHAR
STARTCHAR bracketright
ENCODING 93
SWIDTH 480 0
DWIDTH 6 0
BBX 6 13 0 -2
BITMAP
00
38
08
08
08
10
10
10
20
20
20
E0
00
ENDCHAR
STARTCHAR asciicircum
ENCODING 94
SWIDTH 480 0
DWIDTH 6 0
BBX 6 13 0 -2
BITMAP
00
00
10
28
44
00
00
00
00
00
00
00
00
ENDCHAR
STARTCHAR underscore
ENCODING 95
SWIDTH 480 0
DWIDTH 6 0
BBX 6 13 0 -2
BITMAP
00
00
00
00
00
00
00
00
00
00
00
F8
00
ENDCHAR
STARTCHAR grave
ENCODING 96
SWIDTH 480 0
DWIDTH 6 0
BBX 6 13 0 -2
BITMAP
00
10
08
00
00
00
00
00
00
00
00
00
00
ENDCHAR
STARTCHAR a
ENCODING 97
SWIDTH 480 0
DWIDTH 6 0
BBX 6 13 0 -2
BITMAP
00
00
00
00
00
38
04
7C
88
98
68
00
00
ENDCHAR
STARTCHAR b
ENCODING 98
SWIDTH 480 0
DWIDTH 6 0
BBX 6 13 0 -2
BITMAP
00
00
40
40
40
78
44
88
88
88
F0
00
00
ENDCHAR
STARTCHAR c
ENCODING 99
SWIDTH 480 0
DWIDTH 6 0
BBX 6 13 0 -2
BITMAP
00
00
00
00
00
38
44
80
80
88
70
00
00
ENDCHAR
STARTCHAR d
ENCODING 100
SWIDTH 480 0
DWIDTH 6 0
BBX 6 13 0 -2
BITMAP
00
00
04
04
04
3C
44
88
88
88
78
00
00
ENDCHAR
STARTCHAR e
ENCODING 101
SWIDTH 480 0
DWIDTH 6 0
BBX 6 13 0 -2
BITMAP
00
00
00
00
00
38
44
7C
80
88
70
00
00
ENDCHAR
STARTCHAR f
ENCODING 102
SWIDTH 480 0
DWIDTH 6 0
BBX 6 13 0 -2
BITMAP
00
00
18
24
20
20
78
20
40
40
40
00
00
ENDCHAR
STARTCHAR g
ENCODING 103
SWIDTH 480 0
DWIDTH 6 0
BBX 6 13 0 -2
BITMAP
00
00
00
00
00
38
44
44
88
78
08
88
70
ENDCHAR
STARTCHAR h
ENCODING 104
SWIDTH 480 0
DWIDTH 6 0
BBX 6 13 0 -2
BITMAP
00
00
20
20
20
58
64
44
88
88
88
00
00
ENDCHAR
STARTCHAR i
ENCODING 105
SWIDTH 480 0
DWIDTH 6 0
BBX 6 13 0 -2
BITMAP
00
00
00
10
00
30
10
10
20
20
70
00
00
ENDCHAR
STARTCHAR j
ENCODING 106
SWIDTH 480 0
DWIDTH 6 0
BBX 6 13 0 -2
BITMAP
00
00
00
08
00
18
08
08
10
10
90
90
60
ENDCHAR
STARTCHAR k
ENCODING 107
SWIDTH 480 0
DWIDTH 6 0
BBX 6 13 0 -2
BITMAP
00
00
20
20
20
48
50
60
A0
90
88
00
00
ENDCHAR
STARTCHAR l
ENCODING 108
SWIDTH 480 0
DWIDTH 6 0
BBX 6 13 0 -2
BITMAP
00
00
18
08
08
10
10
10
20
20
70
00
00
ENDCHAR
STARTCHAR m
ENCODING 109
SWIDTH 480 0
DWIDTH 6 0
BBX 6 13 0 -2
BITMAP
00
00
00
00
00
68
54
54
A8
A8
88
00
00
ENDCHAR
STARTCHAR n
ENCODING 110
SWIDTH 480 0
DWIDTH 6 0
BBX 6 13 0 -2
BITMAP
00
00
00
00
00
58
64
44
88
88
88
00
00
ENDCHAR
STARTCHAR o
ENCODING 111
SWIDTH 480 0
DWIDTH 6 0
BBX 6 13 0 -2
BITMAP
00
00
00
00
00
38
44
44
88
88
70
00
00
ENDCHAR
STARTCHAR p
ENCODING 112
SWIDTH 480 0
DWIDTH 6 0
BBX 6 13 0 -2
BITMAP
00
00
00
00
00
78
44
44
88
F0
80
80
80
ENDCHAR
STARTCHAR q
ENCODING 113
SWIDTH 480 0
DWIDTH 6 0
BBX 6 13 0 -2
BITMAP
00
00
00
00
00
3C
44
84
88
78
08
10
10
ENDCHAR
STARTCHAR r
ENCODING 114
SWIDTH 480 0
DWIDTH 6 0
BBX 6 13 0 -2
BITMAP
00
00
00
00
00
58
64
40
80
80
80
00
00
ENDCHAR
STARTCHAR s
ENCODING 115
SWIDTH 480 0
DWIDTH 6 0
BBX 6 13 0 -2
BITMAP
00
00
00
00
00
38
44
20
10
88
70
00
00
ENDCHAR
STARTCHAR t
ENCODING 116
SWIDTH 480 0
DWIDTH 6 0
BBX 6 13 0 -2
BITMAP
00
00
00
10
10
78
20
20
40
48
30
00
00
ENDCHAR
STARTCHAR u
ENCODING 117
SWIDTH 480 0
DWIDTH 6 0
BBX 6 13 0 -2
BITMAP
00
00
00
00
00
44
44
88
88
98
68
00
00
ENDCHAR
STARTCHAR v
ENCODING 118
SWIDTH 480 0
DWIDTH 6 0
BBX 6 13 0 -2
BITMAP
00
00
00
00
00
44
44
44
48
50
20
00
00
ENDCHAR
STARTCHAR w
ENCODING 119
SWIDTH 480 0
DWIDTH 6 0
BBX 6 13 0 -2
BITMAP
00
00
00
00
00
44
44
54
A8
A8
50
00
00
ENDCHAR
STARTCHAR x
ENCODING 120
SWIDTH 480 0
DWIDTH 6 0
BBX 6 13 0 -2
BITMAP
00
00
00
00
00
44
28
10
20
50
88
00
00
ENDCHAR
STARTCHAR y
ENCODING 121
SWIDTH 480 0
DWIDTH 6 0
BBX 6 13 0 -2
BITMAP
00
00
00
00
00
44
44
88
98
68
08
90
60
ENDCHAR
STARTCHAR z
ENCODING 122
SWIDTH 480 0
DWIDTH 6 0
BBX 6 13 0 -2
BITMAP
00
00
00
00
00
7C
08
10
60
80
F8
00
00
ENDCHAR
STARTCHAR braceleft
ENCODING 123
SWIDTH 480 0
DWIDTH 6 0
BBX 6 13 0 -2
BITMAP
00
18
20
20
20
20
C0
20
40
40
40
30
00
ENDCHAR
STARTCHAR bar
ENCODING 124
SWIDTH 480 0
DWIDTH 6 0
BBX 6 13 0 -2
BITMAP
00
00
10
10
10
10
10
20
20
20
20
00
00
ENDCHAR
STARTCHAR braceright
ENCODING 125
SWIDTH 480 0
DWIDTH 6 0
BBX 6 13 0 -2
BITMAP
00
60
10
10
10
10
0C
10
20
20
20
C0
00
ENDCHAR
STARTCHAR asciitilde
ENCODING 126
SWIDTH 480 0
DWIDTH 6 0
BBX 6 13 0 -2
BITMAP
00
00
24
54
48
00
00
00
00
00
00
00
00
ENDCHAR
STARTCHAR space
ENCODING 160
SWIDTH 480 0
DWIDTH 6 0
BBX 6 13 0 -2
BITMAP
00
00
00
00
00
00
00
00
00
00
00
00
00
ENDCHAR
STARTCHAR exclamdown
ENCODING 161
SWIDTH 480 0
DWIDTH 6 0
BBX 6 13 0 -2
BITMAP
00
00
10
00
10
10
10
20
20
20
20
00
00
ENDCHAR
STARTCHAR cent
ENCODING 162
SWIDTH 480 0
DWIDTH 6 0
BBX 6 13 0 -2
BITMAP
00
00
10
38
54
50
A0
A8
70
20
00
00
00
ENDCHAR
STARTCHAR sterling
ENCODING 163
SWIDTH 480 0
DWIDTH 6 0
BBX 6 13 0 -2
BITMAP
00
00
18
24
20
20
70
20
40
48
B0
00
00
ENDCHAR
STARTCHAR currency
ENCODING 164
SWIDTH 480 0
DWIDTH 6 0
BBX 6 13 0 -2
BITMAP
00
00
00
00
44
38
28
50
70
88
00
00
00
ENDCHAR
STARTCHAR yen
ENCODING 165
SWIDTH 480 0
DWIDTH 6 0
BBX 6 13 0 -2
BITMAP
00
00
44
44
28
28
7C
20
F8
20
20
00
00
ENDCHAR
STARTCHAR brokenbar
ENCODING 166
SWIDTH 480 0
DWIDTH 6 0
BBX 6 13 0 -2
BITMAP
00
00
10
10
10
10
00
20
20
20
20
00
00
ENDCHAR
STARTCHAR section
ENCODING 167
SWIDTH 480 0
DWIDTH 6 0
BBX 6 13 0 -2
BITMAP
00
18
24
20
18
24
24
18
08
48
30
00
00
ENDCHAR
STARTCHAR dieresis
ENCODING 168
SWIDTH 480 0
DWIDTH 6 0
BBX 6 13 0 -2
BITMAP
00
14
14
00
00
00
00
00
00
00
00
00
00
ENDCHAR
STARTCHAR copyright
ENCODING 169
SWIDTH 480 0
DWIDTH 6 0
BBX 6 13 0 -2
BITMAP
00
00
38
44
54
6C
64
D8
A8
88
70
00
00
ENDCHAR
STARTCHAR ordfeminine
ENCODING 170
SWIDTH 480 0
DWIDTH 6 0
BBX 6 13 0 -2
BITMAP
00
00
38
04
7C
88
78
00
F8
00
00
00
00
ENDCHAR
STARTCHAR guillemotleft
ENCODING 171
SWIDTH 480 0
DWIDTH 6 0
BBX 6 13 0 -2
BITMAP
00
00
00
00
14
28
50
50
50
28
00
00
00
ENDCHAR
STARTCHAR logicalnot
ENCODING 172
SWIDTH 480 0
DWIDTH 6 0
BBX 6 13 0 -2
BITMAP
00
00
00
00
00
00
7C
04
08
00
00
00
00
ENDCHAR
STARTCHAR hyphen
ENCODING 173
SWIDTH 480 0
DWIDTH 6 0
BBX 6 13 0 -2
BITMAP
00
00
00
00
00
00
38
00
00
00
00
00
00
ENDCHAR
STARTCHAR registered
ENCODING 174
SWIDTH 480 0
DWIDTH 6 0
BBX 6 13 0 -2
BITMAP
00
38
44
74
6C
6C
E8
D8
88
70
00
00
00
ENDCHAR
STARTCHAR macron
ENCODING 175
SWIDTH 480 0
DWIDTH 6 0
BBX 6 13 0 -2
BITMAP
00
00
7C
00
00
00
00
00
00
00
00
00
00
ENDCHAR
STARTCHAR degree
ENCODING 176
SWIDTH 480 0
DWIDTH 6 0
BBX 6 13 0 -2
BITMAP
00
00
30
48
48
30
00
00
00
00
00
00
00
ENDCHAR
STARTCHAR plusminus
ENCODING 177
SWIDTH 480 0
DWIDTH 6 0
BBX 6 13 0 -2
BITMAP
00
00
00
10
10
78
20
20
00
78
00
00
00
ENDCHAR
STARTCHAR twosuperior
ENCODING 178
SWIDTH 480 0
DWIDTH 6 0
BBX 6 13 0 -2
BITMAP
00
10
28
10
20
70
00
00
00
00
00
00
00
ENDCHAR
STARTCHAR threesuperior
ENCODING 179
SWIDTH 480 0
DWIDTH 6 0
BBX 6 13 0 -2
BITMAP
00
30
08
30
10
60
00
00
00
00
00
00
00
ENDCHAR
STARTCHAR acute
ENCODING 180
SWIDTH 480 0
DWIDTH 6 0
BBX 6 13 0 -2
BITMAP
00
08
10
00
00
00
00
00
00
00
00
00
00
ENDCHAR
STARTCHAR mu
ENCODING 181
SWIDTH 480 0
DWIDTH 6 0
BBX 6 13 0 -2
BITMAP
00
00
00
00
00
24
24
44
48
58
A8
80
80
ENDCHAR
STARTCHAR paragraph
ENCODING 182
SWIDTH 480 0
DWIDTH 6 0
BBX 6 13 0 -2
BITMAP
00
00
3C
74
74
74
74
28
28
28
28
00
00
ENDCHAR
STARTCHAR periodcentered
ENCODING 183
SWIDTH 480 0
DWIDTH 6 0
BBX 6 13 0 -2
BITMAP
00
00
00
00
00
00
18
00
00
00
00
00
00
ENDCHAR
STARTCHAR cedilla
ENCODING 184
SWIDTH 480 0
DWIDTH 6 0
BBX 6 13 0 -2
BITMAP
00
00
00
00
00
00
00
00
00
00
00
10
20
ENDCHAR
STARTCHAR onesuperior
ENCODING 185
SWIDTH 480 0
DWIDTH 6 0
BBX 6 13 0 -2
BITMAP
00
10
30
20
20
70
00
00
00
00
00
00
00
ENDCHAR
STARTCHAR ordmasculine
ENCODING 186
SWIDTH 480 0
DWIDTH 6 0
BBX 6 13 0 -2
BITMAP
00
00
38
44
44
88
70
00
F8
00
00
00
00
ENDCHAR
STARTCHAR guillemotright
ENCODING 187
SWIDTH 480 0
DWIDTH 6 0
BBX 6 13 0 -2
BITMAP
00
00
00
00
28
14
14
14
28
50
00
00
00
ENDCHAR
STARTCHAR onequarter
ENCODING 188
SWIDTH 480 0
DWIDTH 6 0
BBX 6 13 0 -2
BITMAP
00
10
30
20
20
70
04
1C
28
38
08
00
00
ENDCHAR
STARTCHAR onehalf
ENCODING 189
SWIDTH 480 0
DWIDTH 6 0
BBX 6 13 0 -2
BITMAP
00
10
30
20
20
70
08
14
08
10
38
00
00
ENDCHAR
STARTCHAR threequarters
ENCODING 190
SWIDTH 480 0
DWIDTH 6 0
BBX 6 13 0 -2
BITMAP
00
30
08
30
10
60
04
1C
28
38
08
00
00
ENDCHAR
STARTCHAR questiondown
ENCODING 191
SWIDTH 480 0
DWIDTH 6 0
BBX 6 13 0 -2
BITMAP
00
00
10
00
10
10
20
40
88
88
70
00
00
ENDCHAR
STARTCHAR Agrave
ENCODING 192
SWIDTH 480 0
DWIDTH 6 0
BBX 6 13 0 -2
BITMAP
00
20
10
00
10
28
44
44
F8
88
88
00
00
ENDCHAR
STARTCHAR Aacute
ENCODING 193
SWIDTH 480 0
DWIDTH 6 0
BBX 6 13 0 -2
BITMAP
00
08
10
00
10
28
44
44
F8
88
88
00
00
ENDCHAR
STARTCHAR Acircumflex
ENCODING 194
SWIDTH 480 0
DWIDTH 6 0
BBX 6 13 0 -2
BITMAP
00
18
24
00
10
28
44
44
F8
88
88
00
00
ENDCHAR
STARTCHAR Atilde
ENCODING 195
SWIDTH 480 0
DWIDTH 6 0
BBX 6 13 0 -2
BITMAP
00
14
28
00
10
28
44
44
F8
88
88
00
00
ENDCHAR
STARTCHAR Adieresis
ENCODING 196
SWIDTH 480 0
DWIDTH 6 0
BBX 6 13 0 -2
BITMAP
00
28
28
00
10
28
44
44
F8
88
88
00
00
ENDCHAR
STARTCHAR Aring
ENCODING 197
SWIDTH 480 0
DWIDTH 6 0
BBX 6 13 0 -2
BITMAP
00
10
28
10
10
28
44
44
F8
88
88
00
00
ENDCHAR
STARTCHAR AE
ENCODING 198
SWIDTH 480 0
DWIDTH 6 0
BBX 6 13 0 -2
BITMAP
00
00
2C
50
50
50
58
E0
A0
A0
B8
00
00
ENDCHAR
STARTCHAR Ccedilla
ENCODING 199
SWIDTH 480 0
DWIDTH 6 0
BBX 6 13 0 -2
BITMAP
00
00
38
44
40
40
40
80
80
88
70
20
40
ENDCHAR
STARTCHAR Egrave
ENCODING 200
SWIDTH 480 0
DWIDTH 6 0
BBX 6 13 0 -2
BITMAP
00
20
10
00
7C
40
40
78
80
80
F8
00
00
ENDCHAR
STARTCHAR Eacute
ENCODING 201
SWIDTH 480 0
DWIDTH 6 0
BBX 6 13 0 -2
BITMAP
00
08
10
00
7C
40
40
78
80
80
F8
00
00
ENDCHAR
STARTCHAR Ecircumflex
ENCODING 202
SWIDTH 480 0
DWIDTH 6 0
BBX 6 13 0 -2
BITMAP
00
18
24
00
7C
40
40
78
80
80
F8
00
00
ENDCHAR
STARTCHAR Edieresis
ENCODING 203
SWIDTH 480 0
DWIDTH 6 0
BBX 6 13 0 -2
BITMAP
00
28
28
00
7C
40
40
78
80
80
F8
00
00
ENDCHAR
STARTCHAR Igrave
ENCODING 204
SWIDTH 480 0
DWIDTH 6 0
BBX 6 13 0 -2
BITMAP
00
20
10
00
38
10
10
10
20
20
70
00
00
ENDCHAR
STARTCHAR Iacute
ENCODING 205
SWIDTH 480 0
DWIDTH 6 0
BBX 6 13 0 -2
BITMAP
00
08
10
00
38
10
10
10
20
20
70
00
00
ENDCHAR
STARTCHAR Icircumflex
ENCODING 206
SWIDTH 480 0
DWIDTH 6 0
BBX 6 13 0 -2
BITMAP
00
18
24
00
38
10
10
10
20
20
70
00
00
ENDCHAR
STARTCHAR Idieresis
ENCODING 207
SWIDTH 480 0
DWIDTH 6 0
BBX 6 13 0 -2
BITMAP
00
28
28
00
38
10
10
10
20
20
70
00
00
ENDCHAR
STARTCHAR Eth
ENCODING 208
SWIDTH 480 0
DWIDTH 6 0
BBX 6 13 0 -2
BITMAP
00
00
78
24
24
24
74
24
48
48
F0
00
00
ENDCHAR
STARTCHAR Ntilde
ENCODING 209
SWIDTH 480 0
DWIDTH 6 0
BBX 6 13 0 -2
BITMAP
00
14
28
00
44
44
64
58
88
88
88
00
00
ENDCHAR
STARTCHAR Ograve
ENCODING 210
SWIDTH 480 0
DWIDTH 6 0
BBX 6 13 0 -2
BITMAP
00
20
10
00
38
44
44
44
88
88
70
00
00
ENDCHAR
STARTCHAR Oacute
ENCODING 211
SWIDTH 480 0
DWIDTH 6 0
BBX 6 13 0 -2
BITMAP
00
08
10
00
38
44
44
44
88
88
70
00
00
ENDCHAR
STARTCHAR Ocircumflex
ENCODING 212
SWIDTH 480 0
DWIDTH 6 0
BBX 6 13 0 -2
BITMAP
00
18
24
00
38
44
44
44
88
88
70
00
00
ENDCHAR
STARTCHAR Otilde
ENCODING 213
SWIDTH 480 0
DWIDTH 6 0
BBX 6 13 0 -2
BITMAP
00
14
28
00
38
44
44
44
88
88
70
00
00
ENDCHAR
STARTCHAR Odieresis
ENCODING 214
SWIDTH 480 0
DWIDTH 6 0
BBX 6 13 0 -2
BITMAP
00
28
28
00
38
44
44
44
88
88
70
00
00
ENDCHAR
STARTCHAR multiply
ENCODING 215
SWIDTH 480 0
DWIDTH 6 0
BBX 6 13 0 -2
BITMAP
00
00
00
00
00
44
28
30
50
88
00
00
00
ENDCHAR
STARTCHAR Oslash
ENCODING 216
SWIDTH 480 0
DWIDTH 6 0
BBX 6 13 0 -2
BITMAP
00
04
3C
4C
4C
54
54
A8
E8
E8
70
80
00
ENDCHAR
STARTCHAR Ugrave
ENCODING 217
SWIDTH 480 0
DWIDTH 6 0
BBX 6 13 0 -2
BITMAP
00
20
10
00
44
44
44
88
88
88
70
00
00
ENDCHAR
STARTCHAR Uacute
ENCODING 218
SWIDTH 480 0
DWIDTH 6 0
BBX 6 13 0 -2
BITMAP
00
08
10
00
44
44
44
88
88
88
70
00
00
ENDCHAR
STARTCHAR Ucircumflex
ENCODING 219
SWIDTH 480 0
DWIDTH 6 0
BBX 6 13 0 -2
BITMAP
00
18
24
00
44
44
44
88
88
88
70
00
00
ENDCHAR
STARTCHAR Udieresis
ENCODING 220
SWIDTH 480 0
DWIDTH 6 0
BBX 6 13 0 -2
BITMAP
00
28
28
00
44
44
44
88
88
88
70
00
00
ENDCHAR
STARTCHAR Yacute
ENCODING 221
SWIDTH 480 0
DWIDTH 6 0
BBX 6 13 0 -2
BITMAP
00
08
10
00
44
44
28
10
20
20
20
00
00
ENDCHAR
STARTCHAR Thorn
ENCODING 222
SWIDTH 480 0
DWIDTH 6 0
BBX 6 13 0 -2
BITMAP
00
00
40
78
44
44
48
F0
80
80
80
00
00
ENDCHAR
STARTCHAR germandbls
ENCODING 223
SWIDTH 480 0
DWIDTH 6 0
BBX 6 13 0 -2
BITMAP
00
00
30
48
48
50
50
90
88
88
B0
00
00
ENDCHAR
STARTCHAR agrave
ENCODING 224
SWIDTH 480 0
DWIDTH 6 0
BBX 6 13 0 -2
BITMAP
00
00
20
10
00
38
04
7C
88
98
68
00
00
ENDCHAR
STARTCHAR aacute
ENCODING 225
SWIDTH 480 0
DWIDTH 6 0
BBX 6 13 0 -2
BITMAP
00
00
08
10
00
38
04
7C
88
98
68
00
00
ENDCHAR
STARTCHAR acircumflex
ENCODING 226
SWIDTH 480 0
DWIDTH 6 0
BBX 6 13 0 -2
BITMAP
00
00
18
24
00
38
04
7C
88
98
68
00
00
ENDCHAR
STARTCHAR atilde
ENCODING 227
SWIDTH 480 0
DWIDTH 6 0
BBX 6 13 0 -2
BITMAP
00
00
14
28
00
38
04
7C
88
98
68
00
00
ENDCHAR
STARTCHAR adieresis
ENCODING 228
SWIDTH 480 0
DWIDTH 6 0
BBX 6 13 0 -2
BITMAP
00
00
28
28
00
38
04
7C
88
98
68
00
00
ENDCHAR
STARTCHAR aring
ENCODING 229
SWIDTH 480 0
DWIDTH 6 0
BBX 6 13 0 -2
BITMAP
00
18
24
18
00
38
04
7C
88
98
68
00
00
ENDCHAR
STARTCHAR ae
ENCODING 230
SWIDTH 480 0
DWIDTH 6 0
BBX 6 13 0 -2
BITMAP
00
00
00
00
00
38
14
78
A0
A8
50
00
00
ENDCHAR
STARTCHAR ccedilla
ENCODING 231
SWIDTH 480 0
DWIDTH 6 0
BBX 6 13 0 -2
BITMAP
00
00
00
00
00
38
44
40
80
88
70
20
40
ENDCHAR
STARTCHAR egrave
ENCODING 232
SWIDTH 480 0
DWIDTH 6 0
BBX 6 13 0 -2
BITMAP
00
00
20
10
00
38
44
7C
80
88
70
00
00
ENDCHAR
STARTCHAR eacute
ENCODING 233
SWIDTH 480 0
DWIDTH 6 0
BBX 6 13 0 -2
BITMAP
00
00
08
10
00
38
44
7C
80
88
70
00
00
ENDCHAR
STARTCHAR ecircumflex
ENCODING 234
SWIDTH 480 0
DWIDTH 6 0
BBX 6 13 0 -2
BITMAP
00
00
18
24
00
38
44
7C
80
88
70
00
00
ENDCHAR
STARTCHAR edieresis
ENCODING 235
SWIDTH 480 0
DWIDTH 6 0
BBX 6 13 0 -2
BITMAP
00
00
28
28
00
38
44
7C
80
88
70
00
00
ENDCHAR
STARTCHAR igrave
ENCODING 236
SWIDTH 480 0
DWIDTH 6 0
BBX 6 13 0 -2
BITMAP
00
00
20
10
00
30
10
10
20
20
70
00
00
ENDCHAR
STARTCHAR iacute
ENCODING 237
SWIDTH 480 0
DWIDTH 6 0
BBX 6 13 0 -2
BITMAP
00
00
08
10
00
30
10
10
20
20
70
00
00
ENDCHAR
STARTCHAR icircumflex
ENCODING 238
SWIDTH 480 0
DWIDTH 6 0
BBX 6 13 0 -2
BITMAP
00
00
18
24
00
30
10
10
20
20
70
00
00
ENDCHAR
STARTCHAR idieresis
ENCODING 239
SWIDTH 480 0
DWIDTH 6 0
BBX 6 13 0 -2
BITMAP
00
00
28
28
00
30
10
10
20
20
70
00
00
ENDCHAR
STARTCHAR eth
ENCODING 240
SWIDTH 480 0
DWIDTH 6 0
BBX 6 13 0 -2
BITMAP
00
20
18
30
08
38
44
44
88
88
70
00
00
ENDCHAR
STARTCHAR ntilde
ENCODING 241
SWIDTH 480 0
DWIDTH 6 0
BBX 6 13 0 -2
BITMAP
00
00
14
28
00
58
64
44
88
88
88
00
00
ENDCHAR
STARTCHAR ograve
ENCODING 242
SWIDTH 480 0
DWIDTH 6 0
BBX 6 13 0 -2
BITMAP
00
00
20
10
00
38
44
44
88
88
70
00
00
ENDCHAR
STARTCHAR oacute
ENCODING 243
SWIDTH 480 0
DWIDTH 6 0
BBX 6 13 0 -2
BITMAP
00
00
08
10
00
38
44
44
88
88
70
00
00
ENDCHAR
STARTCHAR ocircumflex
ENCODING 244
SWIDTH 480 0
DWIDTH 6 0
BBX 6 13 0 -2
BITMAP
00
00
18
24
00
38
44
44
88
88
70
00
00
ENDCHAR
STARTCHAR otilde
ENCODING 245
SWIDTH 480 0
DWIDTH 6 0
BBX 6 13 0 -2
BITMAP
00
00
14
28
00
38
44
44
88
88
70
00
00
ENDCHAR
STARTCHAR odieresis
ENCODING 246
SWIDTH 480 0
DWIDTH 6 0
BBX 6 13 0 -2
BITMAP
00
00
28
28
00
38
44
44
88
88
70
00
00
ENDCHAR
STARTCHAR divide
ENCODING 247
SWIDTH 480 0
DWIDTH 6 0
BBX 6 13 0 -2
BITMAP
00
00
00
10
10
00
7C
00
20
20
00
00
00
ENDCHAR
STARTCHAR oslash
ENCODING 248
SWIDTH 480 0
DWIDTH 6 0
BBX 6 13 0 -2
BITMAP
00
00
00
00
04
38
4C
54
A8
C8
70
80
00
ENDCHAR
STARTCHAR ugrave
ENCODING 249
SWIDTH 480 0
DWIDTH 6 0
BBX 6 13 0 -2
BITMAP
00
00
20
10
00
44
44
44
88
98
68
00
00
ENDCHAR
STARTCHAR uacute
ENCODING 250
SWIDTH 480 0
DWIDTH 6 0
BBX 6 13 0 -2
BITMAP
00
00
08
10
00
44
44
44
88
98
68
00
00
ENDCHAR
STARTCHAR ucircumflex
ENCODING 251
SWIDTH 480 0
DWIDTH 6 0
BBX 6 13 0 -2
BITMAP
00
00
18
24
00
44
44
44
88
98
68
00
00
ENDCHAR
STARTCHAR udieresis
ENCODING 252
SWIDTH 480 0
DWIDTH 6 0
BBX 6 13 0 -2
BITMAP
00
00
28
28
00
44
44
44
88
98
68
00
00
ENDCHAR
STARTCHAR yacute
ENCODING 253
SWIDTH 480 0
DWIDTH 6 0
BBX 6 13 0 -2
BITMAP
00
00
08
10
00
44
44
88
98
68
08
90
60
ENDCHAR
STARTCHAR thorn
ENCODING 254
SWIDTH 480 0
DWIDTH 6 0
BBX 6 13 0 -2
BITMAP
00
00
00
40
40
58
64
44
88
C8
B0
80
80
ENDCHAR
STARTCHAR ydieresis
ENCODING 255
SWIDTH 480 0
DWIDTH 6 0
BBX 6 13 0 -2
BITMAP
00
00
28
28
00
44
44
88
98
68
08
90
60
ENDCHAR
ENDFONT
