STARTFONT 2.1
COMMENT AUTOMATICALLY GENERATED FILE. DO NOT EDIT!
COMMENT Generated with 'ucs2any.pl 6x9.bdf ../../../fonts/util/map-ISO8859-1 ISO8859-1'
COMMENT from an ISO10646-1 encoded source BDF font.
COMMENT ucs2any.pl by Markus Kuhn <mkuhn@acm.org>, 2000.
COMMENT Id: 6x9.bdf,v 1.24 2001-04-03 13:37:48+01 mgk25 Exp mgk25 $
COMMENT Send bug reports to Markus Kuhn <mkuhn@acm.org>
FONT -Misc-Fixed-Medium-R-Normal--9-90-75-75-C-60-ISO8859-1
SIZE 9 75 75
FONTBOUNDINGBOX 6 9 0 -2
STARTPROPERTIES 21
FONTNAME_REGISTRY ""
FOUNDRY "Misc"
FAMILY_NAME "Fixed"
WEIGHT_NAME "Medium"
SLANT "R"
SETWIDTH_NAME "Normal"
ADD_STYLE_NAME ""
PIXEL_SIZE 9
POINT_SIZE 90
RESOLUTION_X 75
RESOLUTION_Y 75
SPACING "C"
AVERAGE_WIDTH 60
CHARSET_REGISTRY "ISO8859"
CHARSET_ENCODING "1"
FONT_ASCENT 7
FONT_DESCENT 2
DEFAULT_CHAR 0
COPYRIGHT "Public domain font.  Share and enjoy."
CAP_HEIGHT 6
X_HEIGHT 4
ENDPROPERTIES
CHARS 223
STARTCHAR defaultchar
ENCODING 0
SWIDTH 640 0
DWIDTH 6 0
BBX 6 9 0 -2
BITMAP
00
28
40
08
40
08
50
00
00
ENDCHAR
STARTCHAR uni25C6
ENCODING 1
SWIDTH 640 0
DWIDTH 6 0
BBX 6 9 0 -2
BITMAP
00
00
30
78
FC
78
30
00
00
ENDCHAR
STARTCHAR shade
ENCODING 2
SWIDTH 640 0
DWIDTH 6 0
BBX 6 9 0 -2
BITMAP
54
A8
54
A8
54
A8
54
A8
54
ENDCHAR
STARTCHAR uni2409
ENCODING 3
SWIDTH 640 0
DWIDTH 6 0
BBX 6 9 0 -2
BITMAP
00
A0
E0
A0
00
38
10
10
00
ENDCHAR
STARTCHAR uni240C
ENCODING 4
SWIDTH 640 0
DWIDTH 6 0
BBX 6 9 0 -2
BITMAP
00
E0
80
C0
80
38
20
30
20
ENDCHAR
STARTCHAR uni240D
ENCODING 5
SWIDTH 640 0
DWIDTH 6 0
BBX 6 9 0 -2
BITMAP
00
60
80
60
00
30
28
30
28
ENDCHAR
STARTCHAR uni240A
ENCODING 6
SWIDTH 640 0
DWIDTH 6 0
BBX 6 9 0 -2
BITMAP
00
80
80
80
C0
38
20
30
20
ENDCHAR
STARTCHAR degree
ENCODING 7
SWIDTH 640 0
DWIDTH 6 0
BBX 6 9 0 -2
BITMAP
00
00
30
48
30
00
00
00
00
ENDCHAR
STARTCHAR plusminus
ENCODING 8
SWIDTH 640 0
DWIDTH 6 0
BBX 6 9 0 -2
BITMAP
00
20
20
F8
20
20
00
F8
00
ENDCHAR
STARTCHAR uni2424
ENCODING 9
SWIDTH 640 0
DWIDTH 6 0
BBX 6 9 0 -2
BITMAP
00
90
D0
B0
90
20
20
20
38
ENDCHAR
STARTCHAR uni240B
ENCODING 10
SWIDTH 640 0
DWIDTH 6 0
BBX 6 9 0 -2
BITMAP
00
A0
A0
40
40
38
10
10
10
ENDCHAR
STARTCHAR SF040000
ENCODING 11
SWIDTH 640 0
DWIDTH 6 0
BBX 6 9 0 -2
BITMAP
10
10
10
10
F0
00
00
00
00
ENDCHAR
STARTCHAR SF030000
ENCODING 12
SWIDTH 640 0
DWIDTH 6 0
BBX 6 9 0 -2
BITMAP
00
00
00
00
F0
10
10
10
10
ENDCHAR
STARTCHAR SF010000
ENCODING 13
SWIDTH 640 0
DWIDTH 6 0
BBX 6 9 0 -2
BITMAP
00
00
00
00
1C
10
10
10
10
ENDCHAR
STARTCHAR SF020000
ENCODING 14
SWIDTH 640 0
DWIDTH 6 0
BBX 6 9 0 -2
BITMAP
10
10
10
10
1C
00
00
00
00
ENDCHAR
STARTCHAR SF050000
ENCODING 15
SWIDTH 640 0
DWIDTH 6 0
BBX 6 9 0 -2
BITMAP
10
10
10
10
FC
10
10
10
10
ENDCHAR
STARTCHAR uni23BA
ENCODING 16
SWIDTH 640 0
DWIDTH 6 0
BBX 6 9 0 -2
BITMAP
FC
00
00
00
00
00
00
00
00
ENDCHAR
STARTCHAR uni23BB
ENCODING 17
SWIDTH 640 0
DWIDTH 6 0
BBX 6 9 0 -2
BITMAP
00
00
FC
00
00
00
00
00
00
ENDCHAR
STARTCHAR SF100000
ENCODING 18
SWIDTH 640 0
DWIDTH 6 0
BBX 6 9 0 -2
BITMAP
00
00
00
00
FC
00
00
00
00
ENDCHAR
STARTCHAR uni23BC
ENCODING 19
SWIDTH 640 0
DWIDTH 6 0
BBX 6 9 0 -2
BITMAP
00
00
00
00
00
00
FC
00
00
ENDCHAR
STARTCHAR uni23BD
ENCODING 20
SWIDTH 640 0
DWIDTH 6 0
BBX 6 9 0 -2
BITMAP
00
00
00
00
00
00
00
00
FC
ENDCHAR
STARTCHAR SF080000
ENCODING 21
SWIDTH 640 0
DWIDTH 6 0
BBX 6 9 0 -2
BITMAP
10
10
10
10
1C
10
10
10
10
ENDCHAR
STARTCHAR SF090000
ENCODING 22
SWIDTH 640 0
DWIDTH 6 0
BBX 6 9 0 -2
BITMAP
10
10
10
10
F0
10
10
10
10
ENDCHAR
STARTCHAR SF070000
ENCODING 23
SWIDTH 640 0
DWIDTH 6 0
BBX 6 9 0 -2
BITMAP
10
10
10
10
FC
00
00
00
00
ENDCHAR
STARTCHAR SF060000
ENCODING 24
SWIDTH 640 0
DWIDTH 6 0
BBX 6 9 0 -2
BITMAP
00
00
00
00
FC
10
10
10
10
ENDCHAR
STARTCHAR SF110000
ENCODING 25
SWIDTH 640 0
DWIDTH 6 0
BBX 6 9 0 -2
BITMAP
10
10
10
10
10
10
10
10
10
ENDCHAR
STARTCHAR lessequal
ENCODING 26
SWIDTH 640 0
DWIDTH 6 0
BBX 6 9 0 -2
BITMAP
00
18
60
80
60
98
60
18
00
ENDCHAR
STARTCHAR greaterequal
ENCODING 27
SWIDTH 640 0
DWIDTH 6 0
BBX 6 9 0 -2
BITMAP
00
C0
30
08
30
C8
30
C0
00
ENDCHAR
STARTCHAR pi
ENCODING 28
SWIDTH 640 0
DWIDTH 6 0
BBX 6 9 0 -2
BITMAP
00
00
00
F8
50
50
50
00
00
ENDCHAR
STARTCHAR notequal
ENCODING 29
SWIDTH 640 0
DWIDTH 6 0
BBX 6 9 0 -2
BITMAP
00
00
10
F8
20
F8
40
00
00
ENDCHAR
STARTCHAR sterling
ENCODING 30
SWIDTH 640 0
DWIDTH 6 0
BBX 6 9 0 -2
BITMAP
00
30
48
40
F0
40
40
F8
00
ENDCHAR
STARTCHAR periodcentered
ENCODING 31
SWIDTH 640 0
DWIDTH 6 0
BBX 6 9 0 -2
BITMAP
00
00
00
00
20
00
00
00
00
ENDCHAR
STARTCHAR space
ENCODING 32
SWIDTH 640 0
DWIDTH 6 0
BBX 6 9 0 -2
BITMAP
00
00
00
00
00
00
00
00
00
ENDCHAR
STARTCHAR exclam
ENCODING 33
SWIDTH 640 0
DWIDTH 6 0
BBX 6 9 0 -2
BITMAP
00
20
20
20
20
00
20
00
00
ENDCHAR
STARTCHAR quotedbl
ENCODING 34
SWIDTH 640 0
DWIDTH 6 0
BBX 6 9 0 -2
BITMAP
00
50
50
50
00
00
00
00
00
ENDCHAR
STARTCHAR numbersign
ENCODING 35
SWIDTH 640 0
DWIDTH 6 0
BBX 6 9 0 -2
BITMAP
00
50
50
F8
50
F8
50
50
00
ENDCHAR
STARTCHAR dollar
ENCODING 36
SWIDTH 640 0
DWIDTH 6 0
BBX 6 9 0 -2
BITMAP
20
70
A8
A0
70
28
A8
70
20
ENDCHAR
STARTCHAR percent
ENCODING 37
SWIDTH 640 0
DWIDTH 6 0
BBX 6 9 0 -2
BITMAP
40
A8
48
10
20
48
54
08
00
ENDCHAR
STARTCHAR ampersand
ENCODING 38
SWIDTH 640 0
DWIDTH 6 0
BBX 6 9 0 -2
BITMAP
00
60
90
90
60
98
90
68
00
ENDCHAR
STARTCHAR quotesingle
ENCODING 39
SWIDTH 640 0
DWIDTH 6 0
BBX 6 9 0 -2
BITMAP
00
20
20
20
00
00
00
00
00
ENDCHAR
STARTCHAR parenleft
ENCODING 40
SWIDTH 640 0
DWIDTH 6 0
BBX 6 9 0 -2
BITMAP
00
10
20
20
20
20
20
10
00
ENDCHAR
STARTCHAR parenright
ENCODING 41
SWIDTH 640 0
DWIDTH 6 0
BBX 6 9 0 -2
BITMAP
00
20
10
10
10
10
10
20
00
ENDCHAR
STARTCHAR asterisk
ENCODING 42
SWIDTH 640 0
DWIDTH 6 0
BBX 6 9 0 -2
BITMAP
00
00
88
50
F8
50
88
00
00
ENDCHAR
STARTCHAR plus
ENCODING 43
SWIDTH 640 0
DWIDTH 6 0
BBX 6 9 0 -2
BITMAP
00
00
20
20
F8
20
20
00
00
ENDCHAR
STARTCHAR comma
ENCODING 44
SWIDTH 640 0
DWIDTH 6 0
BBX 6 9 0 -2
BITMAP
00
00
00
00
00
30
10
10
20
ENDCHAR
STARTCHAR hyphen
ENCODING 45
SWIDTH 640 0
DWIDTH 6 0
BBX 6 9 0 -2
BITMAP
00
00
00
00
F8
00
00
00
00
ENDCHAR
STARTCHAR period
ENCODING 46
SWIDTH 640 0
DWIDTH 6 0
BBX 6 9 0 -2
BITMAP
00
00
00
00
00
30
30
00
00
ENDCHAR
STARTCHAR slash
ENCODING 47
SWIDTH 640 0
DWIDTH 6 0
BBX 6 9 0 -2
BITMAP
00
08
08
10
20
40
40
00
00
ENDCHAR
STARTCHAR zero
ENCODING 48
SWIDTH 640 0
DWIDTH 6 0
BBX 6 9 0 -2
BITMAP
00
30
48
48
48
48
30
00
00
ENDCHAR
STARTCHAR one
ENCODING 49
SWIDTH 640 0
DWIDTH 6 0
BBX 6 9 0 -2
BITMAP
00
20
60
20
20
20
70
00
00
ENDCHAR
STARTCHAR two
ENCODING 50
SWIDTH 640 0
DWIDTH 6 0
BBX 6 9 0 -2
BITMAP
00
30
48
08
10
20
78
00
00
ENDCHAR
STARTCHAR three
ENCODING 51
SWIDTH 640 0
DWIDTH 6 0
BBX 6 9 0 -2
BITMAP
00
78
10
30
08
08
70
00
00
ENDCHAR
STARTCHAR four
ENCODING 52
SWIDTH 640 0
DWIDTH 6 0
BBX 6 9 0 -2
BITMAP
00
10
30
50
90
F8
10
00
00
ENDCHAR
STARTCHAR five
ENCODING 53
SWIDTH 640 0
DWIDTH 6 0
BBX 6 9 0 -2
BITMAP
00
78
40
70
08
08
70
00
00
ENDCHAR
STARTCHAR six
ENCODING 54
SWIDTH 640 0
DWIDTH 6 0
BBX 6 9 0 -2
BITMAP
00
30
40
70
48
48
30
00
00
ENDCHAR
STARTCHAR seven
ENCODING 55
SWIDTH 640 0
DWIDTH 6 0
BBX 6 9 0 -2
BITMAP
00
78
08
08
10
20
20
00
00
ENDCHAR
STARTCHAR eight
ENCODING 56
SWIDTH 640 0
DWIDTH 6 0
BBX 6 9 0 -2
BITMAP
00
30
48
30
48
48
30
00
00
ENDCHAR
STARTCHAR nine
ENCODING 57
SWIDTH 640 0
DWIDTH 6 0
BBX 6 9 0 -2
BITMAP
00
30
48
48
38
08
30
00
00
ENDCHAR
STARTCHAR colon
ENCODING 58
SWIDTH 640 0
DWIDTH 6 0
BBX 6 9 0 -2
BITMAP
00
00
30
30
00
30
30
00
00
ENDCHAR
STARTCHAR semicolon
ENCODING 59
SWIDTH 640 0
DWIDTH 6 0
BBX 6 9 0 -2
BITMAP
00
00
30
30
00
30
10
10
20
ENDCHAR
STARTCHAR less
ENCODING 60
SWIDTH 640 0
DWIDTH 6 0
BBX 6 9 0 -2
BITMAP
00
00
18
60
80
60
18
00
00
ENDCHAR
STARTCHAR equal
ENCODING 61
SWIDTH 640 0
DWIDTH 6 0
BBX 6 9 0 -2
BITMAP
00
00
00
F8
00
F8
00
00
00
ENDCHAR
STARTCHAR greater
ENCODING 62
SWIDTH 640 0
DWIDTH 6 0
BBX 6 9 0 -2
BITMAP
00
00
C0
30
08
30
C0
00
00
ENDCHAR
STARTCHAR question
ENCODING 63
SWIDTH 640 0
DWIDTH 6 0
BBX 6 9 0 -2
BITMAP
30
48
08
30
20
00
20
00
00
ENDCHAR
STARTCHAR at
ENCODING 64
SWIDTH 640 0
DWIDTH 6 0
BBX 6 9 0 -2
BITMAP
00
70
90
A8
B0
80
70
00
00
ENDCHAR
STARTCHAR A
ENCODING 65
SWIDTH 640 0
DWIDTH 6 0
BBX 6 9 0 -2
BITMAP
00
20
50
88
F8
88
88
00
00
ENDCHAR
STARTCHAR B
ENCODING 66
SWIDTH 640 0
DWIDTH 6 0
BBX 6 9 0 -2
BITMAP
00
F0
88
F0
88
88
F0
00
00
ENDCHAR
STARTCHAR C
ENCODING 67
SWIDTH 640 0
DWIDTH 6 0
BBX 6 9 0 -2
BITMAP
00
30
48
40
40
48
30
00
00
ENDCHAR
STARTCHAR D
ENCODING 68
SWIDTH 640 0
DWIDTH 6 0
BBX 6 9 0 -2
BITMAP
00
70
48
48
48
48
70
00
00
ENDCHAR
STARTCHAR E
ENCODING 69
SWIDTH 640 0
DWIDTH 6 0
BBX 6 9 0 -2
BITMAP
00
78
40
70
40
40
78
00
00
ENDCHAR
STARTCHAR F
ENCODING 70
SWIDTH 640 0
DWIDTH 6 0
BBX 6 9 0 -2
BITMAP
00
78
40
70
40
40
40
00
00
ENDCHAR
STARTCHAR G
ENCODING 71
SWIDTH 640 0
DWIDTH 6 0
BBX 6 9 0 -2
BITMAP
00
30
48
40
58
48
30
00
00
ENDCHAR
STARTCHAR H
ENCODING 72
SWIDTH 640 0
DWIDTH 6 0
BBX 6 9 0 -2
BITMAP
00
48
48
78
48
48
48
00
00
ENDCHAR
STARTCHAR I
ENCODING 73
SWIDTH 640 0
DWIDTH 6 0
BBX 6 9 0 -2
BITMAP
00
70
20
20
20
20
70
00
00
ENDCHAR
STARTCHAR J
ENCODING 74
SWIDTH 640 0
DWIDTH 6 0
BBX 6 9 0 -2
BITMAP
00
38
10
10
10
90
60
00
00
ENDCHAR
STARTCHAR K
ENCODING 75
SWIDTH 640 0
DWIDTH 6 0
BBX 6 9 0 -2
BITMAP
00
48
50
60
50
48
48
00
00
ENDCHAR
STARTCHAR L
ENCODING 76
SWIDTH 640 0
DWIDTH 6 0
BBX 6 9 0 -2
BITMAP
00
40
40
40
40
40
78
00
00
ENDCHAR
STARTCHAR M
ENCODING 77
SWIDTH 640 0
DWIDTH 6 0
BBX 6 9 0 -2
BITMAP
00
88
D8
A8
A8
88
88
00
00
ENDCHAR
STARTCHAR N
ENCODING 78
SWIDTH 640 0
DWIDTH 6 0
BBX 6 9 0 -2
BITMAP
00
48
68
58
48
48
48
00
00
ENDCHAR
STARTCHAR O
ENCODING 79
SWIDTH 640 0
DWIDTH 6 0
BBX 6 9 0 -2
BITMAP
00
70
88
88
88
88
70
00
00
ENDCHAR
STARTCHAR P
ENCODING 80
SWIDTH 640 0
DWIDTH 6 0
BBX 6 9 0 -2
BITMAP
00
70
48
48
70
40
40
00
00
ENDCHAR
STARTCHAR Q
ENCODING 81
SWIDTH 640 0
DWIDTH 6 0
BBX 6 9 0 -2
BITMAP
00
30
48
48
68
58
30
08
00
ENDCHAR
STARTCHAR R
ENCODING 82
SWIDTH 640 0
DWIDTH 6 0
BBX 6 9 0 -2
BITMAP
00
70
48
48
70
48
48
00
00
ENDCHAR
STARTCHAR S
ENCODING 83
SWIDTH 640 0
DWIDTH 6 0
BBX 6 9 0 -2
BITMAP
00
30
48
20
10
48
30
00
00
ENDCHAR
STARTCHAR T
ENCODING 84
SWIDTH 640 0
DWIDTH 6 0
BBX 6 9 0 -2
BITMAP
00
F8
20
20
20
20
20
00
00
ENDCHAR
STARTCHAR U
ENCODING 85
SWIDTH 640 0
DWIDTH 6 0
BBX 6 9 0 -2
BITMAP
00
48
48
48
48
48
30
00
00
ENDCHAR
STARTCHAR V
ENCODING 86
SWIDTH 640 0
DWIDTH 6 0
BBX 6 9 0 -2
BITMAP
00
48
48
48
78
30
30
00
00
ENDCHAR
STARTCHAR W
ENCODING 87
SWIDTH 640 0
DWIDTH 6 0
BBX 6 9 0 -2
BITMAP
00
88
88
A8
A8
D8
88
00
00
ENDCHAR
STARTCHAR X
ENCODING 88
SWIDTH 640 0
DWIDTH 6 0
BBX 6 9 0 -2
BITMAP
00
88
50
20
20
50
88
00
00
ENDCHAR
STARTCHAR Y
ENCODING 89
SWIDTH 640 0
DWIDTH 6 0
BBX 6 9 0 -2
BITMAP
00
88
88
50
20
20
20
00
00
ENDCHAR
STARTCHAR Z
ENCODING 90
SWIDTH 640 0
DWIDTH 6 0
BBX 6 9 0 -2
BITMAP
00
78
08
10
20
40
78
00
00
ENDCHAR
STARTCHAR bracketleft
ENCODING 91
SWIDTH 640 0
DWIDTH 6 0
BBX 6 9 0 -2
BITMAP
00
70
40
40
40
40
70
00
00
ENDCHAR
STARTCHAR backslash
ENCODING 92
SWIDTH 640 0
DWIDTH 6 0
BBX 6 9 0 -2
BITMAP
00
40
40
20
10
08
08
00
00
ENDCHAR
STARTCHAR bracketright
ENCODING 93
SWIDTH 640 0
DWIDTH 6 0
BBX 6 9 0 -2
BITMAP
00
70
10
10
10
10
70
00
00
ENDCHAR
STARTCHAR asciicircum
ENCODING 94
SWIDTH 640 0
DWIDTH 6 0
BBX 6 9 0 -2
BITMAP
00
20
50
88
00
00
00
00
00
ENDCHAR
STARTCHAR underscore
ENCODING 95
SWIDTH 640 0
DWIDTH 6 0
BBX 6 9 0 -2
BITMAP
00
00
00
00
00
00
00
00
F8
ENDCHAR
STARTCHAR grave
ENCODING 96
SWIDTH 640 0
DWIDTH 6 0
BBX 6 9 0 -2
BITMAP
00
20
10
00
00
00
00
00
00
ENDCHAR
STARTCHAR a
ENCODING 97
SWIDTH 640 0
DWIDTH 6 0
BBX 6 9 0 -2
BITMAP
00
00
00
38
48
48
38
00
00
ENDCHAR
STARTCHAR b
ENCODING 98
SWIDTH 640 0
DWIDTH 6 0
BBX 6 9 0 -2
BITMAP
00
40
40
70
48
48
70
00
00
ENDCHAR
STARTCHAR c
ENCODING 99
SWIDTH 640 0
DWIDTH 6 0
BBX 6 9 0 -2
BITMAP
00
00
00
38
40
40
38
00
00
ENDCHAR
STARTCHAR d
ENCODING 100
SWIDTH 640 0
DWIDTH 6 0
BBX 6 9 0 -2
BITMAP
00
08
08
38
48
48
38
00
00
ENDCHAR
STARTCHAR e
ENCODING 101
SWIDTH 640 0
DWIDTH 6 0
BBX 6 9 0 -2
BITMAP
00
00
00
30
58
60
38
00
00
ENDCHAR
STARTCHAR f
ENCODING 102
SWIDTH 640 0
DWIDTH 6 0
BBX 6 9 0 -2
BITMAP
00
10
28
20
70
20
20
00
00
ENDCHAR
STARTCHAR g
ENCODING 103
SWIDTH 640 0
DWIDTH 6 0
BBX 6 9 0 -2
BITMAP
00
00
00
30
48
48
38
08
30
ENDCHAR
STARTCHAR h
ENCODING 104
SWIDTH 640 0
DWIDTH 6 0
BBX 6 9 0 -2
BITMAP
00
40
40
70
48
48
48
00
00
ENDCHAR
STARTCHAR i
ENCODING 105
SWIDTH 640 0
DWIDTH 6 0
BBX 6 9 0 -2
BITMAP
00
20
00
60
20
20
70
00
00
ENDCHAR
STARTCHAR j
ENCODING 106
SWIDTH 640 0
DWIDTH 6 0
BBX 6 9 0 -2
BITMAP
00
10
00
30
10
10
10
50
20
ENDCHAR
STARTCHAR k
ENCODING 107
SWIDTH 640 0
DWIDTH 6 0
BBX 6 9 0 -2
BITMAP
00
40
40
50
60
50
48
00
00
ENDCHAR
STARTCHAR l
ENCODING 108
SWIDTH 640 0
DWIDTH 6 0
BBX 6 9 0 -2
BITMAP
00
60
20
20
20
20
70
00
00
ENDCHAR
STARTCHAR m
ENCODING 109
SWIDTH 640 0
DWIDTH 6 0
BBX 6 9 0 -2
BITMAP
00
00
00
D0
A8
A8
88
00
00
ENDCHAR
STARTCHAR n
ENCODING 110
SWIDTH 640 0
DWIDTH 6 0
BBX 6 9 0 -2
BITMAP
00
00
00
70
48
48
48
00
00
ENDCHAR
STARTCHAR o
ENCODING 111
SWIDTH 640 0
DWIDTH 6 0
BBX 6 9 0 -2
BITMAP
00
00
00
30
48
48
30
00
00
ENDCHAR
STARTCHAR p
ENCODING 112
SWIDTH 640 0
DWIDTH 6 0
BBX 6 9 0 -2
BITMAP
00
00
00
70
48
48
70
40
40
ENDCHAR
STARTCHAR q
ENCODING 113
SWIDTH 640 0
DWIDTH 6 0
BBX 6 9 0 -2
BITMAP
00
00
00
38
48
48
38
08
08
ENDCHAR
STARTCHAR r
ENCODING 114
SWIDTH 640 0
DWIDTH 6 0
BBX 6 9 0 -2
BITMAP
00
00
00
50
68
40
40
00
00
ENDCHAR
STARTCHAR s
ENCODING 115
SWIDTH 640 0
DWIDTH 6 0
BBX 6 9 0 -2
BITMAP
00
00
00
38
60
18
70
00
00
ENDCHAR
STARTCHAR t
ENCODING 116
SWIDTH 640 0
DWIDTH 6 0
BBX 6 9 0 -2
BITMAP
00
20
20
70
20
28
10
00
00
ENDCHAR
STARTCHAR u
ENCODING 117
SWIDTH 640 0
DWIDTH 6 0
BBX 6 9 0 -2
BITMAP
00
00
00
48
48
48
38
00
00
ENDCHAR
STARTCHAR v
ENCODING 118
SWIDTH 640 0
DWIDTH 6 0
BBX 6 9 0 -2
BITMAP
00
00
00
48
48
30
30
00
00
ENDCHAR
STARTCHAR w
ENCODING 119
SWIDTH 640 0
DWIDTH 6 0
BBX 6 9 0 -2
BITMAP
00
00
00
88
A8
A8
50
00
00
ENDCHAR
STARTCHAR x
ENCODING 120
SWIDTH 640 0
DWIDTH 6 0
BBX 6 9 0 -2
BITMAP
00
00
00
48
30
30
48
00
00
ENDCHAR
STARTCHAR y
ENCODING 121
SWIDTH 640 0
DWIDTH 6 0
BBX 6 9 0 -2
BITMAP
00
00
00
48
48
48
38
48
30
ENDCHAR
STARTCHAR z
ENCODING 122
SWIDTH 640 0
DWIDTH 6 0
BBX 6 9 0 -2
BITMAP
00
00
00
78
10
20
78
00
00
ENDCHAR
STARTCHAR braceleft
ENCODING 123
SWIDTH 640 0
DWIDTH 6 0
BBX 6 9 0 -2
BITMAP
10
20
20
40
20
20
10
00
00
ENDCHAR
STARTCHAR bar
ENCODING 124
SWIDTH 640 0
DWIDTH 6 0
BBX 6 9 0 -2
BITMAP
00
20
20
20
20
20
20
20
00
ENDCHAR
STARTCHAR braceright
ENCODING 125
SWIDTH 640 0
DWIDTH 6 0
BBX 6 9 0 -2
BITMAP
40
20
20
10
20
20
40
00
00
ENDCHAR
STARTCHAR asciitilde
ENCODING 126
SWIDTH 640 0
DWIDTH 6 0
BBX 6 9 0 -2
BITMAP
00
00
28
50
00
00
00
00
00
ENDCHAR
STARTCHAR space
ENCODING 160
SWIDTH 640 0
DWIDTH 6 0
BBX 6 9 0 -2
BITMAP
00
00
00
00
00
00
00
00
00
ENDCHAR
STARTCHAR exclamdown
ENCODING 161
SWIDTH 640 0
DWIDTH 6 0
BBX 6 9 0 -2
BITMAP
00
20
00
20
20
20
20
00
00
ENDCHAR
STARTCHAR cent
ENCODING 162
SWIDTH 640 0
DWIDTH 6 0
BBX 6 9 0 -2
BITMAP
00
00
10
38
50
50
38
10
00
ENDCHAR
STARTCHAR sterling
ENCODING 163
SWIDTH 640 0
DWIDTH 6 0
BBX 6 9 0 -2
BITMAP
00
30
48
40
F0
40
40
F8
00
ENDCHAR
STARTCHAR currency
ENCODING 164
SWIDTH 640 0
DWIDTH 6 0
BBX 6 9 0 -2
BITMAP
00
00
A8
50
88
50
A8
00
00
ENDCHAR
STARTCHAR yen
ENCODING 165
SWIDTH 640 0
DWIDTH 6 0
BBX 6 9 0 -2
BITMAP
00
88
50
F8
20
F8
20
00
00
ENDCHAR
STARTCHAR brokenbar
ENCODING 166
SWIDTH 640 0
DWIDTH 6 0
BBX 6 9 0 -2
BITMAP
00
20
20
20
00
20
20
20
00
ENDCHAR
STARTCHAR section
ENCODING 167
SWIDTH 640 0
DWIDTH 6 0
BBX 6 9 0 -2
BITMAP
00
38
40
30
48
30
08
70
00
ENDCHAR
STARTCHAR dieresis
ENCODING 168
SWIDTH 640 0
DWIDTH 6 0
BBX 6 9 0 -2
BITMAP
00
50
00
00
00
00
00
00
00
ENDCHAR
STARTCHAR copyright
ENCODING 169
SWIDTH 640 0
DWIDTH 6 0
BBX 6 9 0 -2
BITMAP
78
84
94
A4
94
84
78
00
00
ENDCHAR
STARTCHAR ordfeminine
ENCODING 170
SWIDTH 640 0
DWIDTH 6 0
BBX 6 9 0 -2
BITMAP
00
30
50
30
00
70
00
00
00
ENDCHAR
STARTCHAR guillemotleft
ENCODING 171
SWIDTH 640 0
DWIDTH 6 0
BBX 6 9 0 -2
BITMAP
00
00
28
50
A0
50
28
00
00
ENDCHAR
STARTCHAR logicalnot
ENCODING 172
SWIDTH 640 0
DWIDTH 6 0
BBX 6 9 0 -2
BITMAP
00
00
00
00
78
08
08
00
00
ENDCHAR
STARTCHAR hyphen
ENCODING 173
SWIDTH 640 0
DWIDTH 6 0
BBX 6 9 0 -2
BITMAP
00
00
00
00
78
00
00
00
00
ENDCHAR
STARTCHAR registered
ENCODING 174
SWIDTH 640 0
DWIDTH 6 0
BBX 6 9 0 -2
BITMAP
78
84
B4
A4
A4
84
78
00
00
ENDCHAR
STARTCHAR macron
ENCODING 175
SWIDTH 640 0
DWIDTH 6 0
BBX 6 9 0 -2
BITMAP
00
78
00
00
00
00
00
00
00
ENDCHAR
STARTCHAR degree
ENCODING 176
SWIDTH 640 0
DWIDTH 6 0
BBX 6 9 0 -2
BITMAP
00
00
30
48
30
00
00
00
00
ENDCHAR
STARTCHAR plusminus
ENCODING 177
SWIDTH 640 0
DWIDTH 6 0
BBX 6 9 0 -2
BITMAP
00
20
20
F8
20
20
00
F8
00
ENDCHAR
STARTCHAR twosuperior
ENCODING 178
SWIDTH 640 0
DWIDTH 6 0
BBX 6 9 0 -2
BITMAP
00
20
50
10
20
70
00
00
00
ENDCHAR
STARTCHAR threesuperior
ENCODING 179
SWIDTH 640 0
DWIDTH 6 0
BBX 6 9 0 -2
BITMAP
00
60
10
20
10
60
00
00
00
ENDCHAR
STARTCHAR acute
ENCODING 180
SWIDTH 640 0
DWIDTH 6 0
BBX 6 9 0 -2
BITMAP
00
10
20
00
00
00
00
00
00
ENDCHAR
STARTCHAR mu
ENCODING 181
SWIDTH 640 0
DWIDTH 6 0
BBX 6 9 0 -2
BITMAP
00
00
00
48
48
58
68
40
00
ENDCHAR
STARTCHAR paragraph
ENCODING 182
SWIDTH 640 0
DWIDTH 6 0
BBX 6 9 0 -2
BITMAP
00
78
E8
E8
68
28
28
00
00
ENDCHAR
STARTCHAR periodcentered
ENCODING 183
SWIDTH 640 0
DWIDTH 6 0
BBX 6 9 0 -2
BITMAP
00
00
00
00
20
00
00
00
00
ENDCHAR
STARTCHAR cedilla
ENCODING 184
SWIDTH 640 0
DWIDTH 6 0
BBX 6 9 0 -2
BITMAP
00
00
00
00
00
00
00
10
20
ENDCHAR
STARTCHAR onesuperior
ENCODING 185
SWIDTH 640 0
DWIDTH 6 0
BBX 6 9 0 -2
BITMAP
00
20
60
20
20
70
00
00
00
ENDCHAR
STARTCHAR ordmasculine
ENCODING 186
SWIDTH 640 0
DWIDTH 6 0
BBX 6 9 0 -2
BITMAP
00
20
50
20
00
70
00
00
00
ENDCHAR
STARTCHAR guillemotright
ENCODING 187
SWIDTH 640 0
DWIDTH 6 0
BBX 6 9 0 -2
BITMAP
00
00
A0
50
28
50
A0
00
00
ENDCHAR
STARTCHAR onequarter
ENCODING 188
SWIDTH 640 0
DWIDTH 6 0
BBX 6 9 0 -2
BITMAP
40
C0
40
50
70
30
78
10
00
ENDCHAR
STARTCHAR onehalf
ENCODING 189
SWIDTH 640 0
DWIDTH 6 0
BBX 6 9 0 -2
BITMAP
40
C0
40
50
68
08
10
38
00
ENDCHAR
STARTCHAR threequarters
ENCODING 190
SWIDTH 640 0
DWIDTH 6 0
BBX 6 9 0 -2
BITMAP
C0
20
40
30
F0
30
78
10
00
ENDCHAR
STARTCHAR questiondown
ENCODING 191
SWIDTH 640 0
DWIDTH 6 0
BBX 6 9 0 -2
BITMAP
10
00
10
30
40
48
30
00
00
ENDCHAR
STARTCHAR Agrave
ENCODING 192
SWIDTH 640 0
DWIDTH 6 0
BBX 6 9 0 -2
BITMAP
40
20
20
50
70
88
88
00
00
ENDCHAR
STARTCHAR Aacute
ENCODING 193
SWIDTH 640 0
DWIDTH 6 0
BBX 6 9 0 -2
BITMAP
10
20
20
50
70
88
88
00
00
ENDCHAR
STARTCHAR Acircumflex
ENCODING 194
SWIDTH 640 0
DWIDTH 6 0
BBX 6 9 0 -2
BITMAP
20
50
20
50
70
88
88
00
00
ENDCHAR
STARTCHAR Atilde
ENCODING 195
SWIDTH 640 0
DWIDTH 6 0
BBX 6 9 0 -2
BITMAP
28
50
20
50
70
88
88
00
00
ENDCHAR
STARTCHAR Adieresis
ENCODING 196
SWIDTH 640 0
DWIDTH 6 0
BBX 6 9 0 -2
BITMAP
50
00
20
50
70
88
88
00
00
ENDCHAR
STARTCHAR Aring
ENCODING 197
SWIDTH 640 0
DWIDTH 6 0
BBX 6 9 0 -2
BITMAP
20
50
20
50
70
88
88
00
00
ENDCHAR
STARTCHAR AE
ENCODING 198
SWIDTH 640 0
DWIDTH 6 0
BBX 6 9 0 -2
BITMAP
00
78
A0
F0
A0
A0
B8
00
00
ENDCHAR
STARTCHAR Ccedilla
ENCODING 199
SWIDTH 640 0
DWIDTH 6 0
BBX 6 9 0 -2
BITMAP
00
30
48
40
40
48
30
10
20
ENDCHAR
STARTCHAR Egrave
ENCODING 200
SWIDTH 640 0
DWIDTH 6 0
BBX 6 9 0 -2
BITMAP
20
10
78
40
70
40
78
00
00
ENDCHAR
STARTCHAR Eacute
ENCODING 201
SWIDTH 640 0
DWIDTH 6 0
BBX 6 9 0 -2
BITMAP
10
20
78
40
70
40
78
00
00
ENDCHAR
STARTCHAR Ecircumflex
ENCODING 202
SWIDTH 640 0
DWIDTH 6 0
BBX 6 9 0 -2
BITMAP
10
28
78
40
70
40
78
00
00
ENDCHAR
STARTCHAR Edieresis
ENCODING 203
SWIDTH 640 0
DWIDTH 6 0
BBX 6 9 0 -2
BITMAP
28
00
78
40
70
40
78
00
00
ENDCHAR
STARTCHAR Igrave
ENCODING 204
SWIDTH 640 0
DWIDTH 6 0
BBX 6 9 0 -2
BITMAP
40
20
70
20
20
20
70
00
00
ENDCHAR
STARTCHAR Iacute
ENCODING 205
SWIDTH 640 0
DWIDTH 6 0
BBX 6 9 0 -2
BITMAP
10
20
70
20
20
20
70
00
00
ENDCHAR
STARTCHAR Icircumflex
ENCODING 206
SWIDTH 640 0
DWIDTH 6 0
BBX 6 9 0 -2
BITMAP
20
50
70
20
20
20
70
00
00
ENDCHAR
STARTCHAR Idieresis
ENCODING 207
SWIDTH 640 0
DWIDTH 6 0
BBX 6 9 0 -2
BITMAP
50
00
70
20
20
20
70
00
00
ENDCHAR
STARTCHAR Eth
ENCODING 208
SWIDTH 640 0
DWIDTH 6 0
BBX 6 9 0 -2
BITMAP
00
70
48
E8
48
48
70
00
00
ENDCHAR
STARTCHAR Ntilde
ENCODING 209
SWIDTH 640 0
DWIDTH 6 0
BBX 6 9 0 -2
BITMAP
28
50
48
68
58
48
48
00
00
ENDCHAR
STARTCHAR Ograve
ENCODING 210
SWIDTH 640 0
DWIDTH 6 0
BBX 6 9 0 -2
BITMAP
20
10
30
48
48
48
30
00
00
ENDCHAR
STARTCHAR Oacute
ENCODING 211
SWIDTH 640 0
DWIDTH 6 0
BBX 6 9 0 -2
BITMAP
10
20
30
48
48
48
30
00
00
ENDCHAR
STARTCHAR Ocircumflex
ENCODING 212
SWIDTH 640 0
DWIDTH 6 0
BBX 6 9 0 -2
BITMAP
10
28
30
48
48
48
30
00
00
ENDCHAR
STARTCHAR Otilde
ENCODING 213
SWIDTH 640 0
DWIDTH 6 0
BBX 6 9 0 -2
BITMAP
28
50
30
48
48
48
30
00
00
ENDCHAR
STARTCHAR Odieresis
ENCODING 214
SWIDTH 640 0
DWIDTH 6 0
BBX 6 9 0 -2
BITMAP
28
00
30
48
48
48
30
00
00
ENDCHAR
STARTCHAR multiply
ENCODING 215
SWIDTH 640 0
DWIDTH 6 0
BBX 6 9 0 -2
BITMAP
00
00
88
50
20
50
88
00
00
ENDCHAR
STARTCHAR Oslash
ENCODING 216
SWIDTH 640 0
DWIDTH 6 0
BBX 6 9 0 -2
BITMAP
08
38
58
58
68
68
70
40
00
ENDCHAR
STARTCHAR Ugrave
ENCODING 217
SWIDTH 640 0
DWIDTH 6 0
BBX 6 9 0 -2
BITMAP
20
10
48
48
48
48
30
00
00
ENDCHAR
STARTCHAR Uacute
ENCODING 218
SWIDTH 640 0
DWIDTH 6 0
BBX 6 9 0 -2
BITMAP
10
20
48
48
48
48
30
00
00
ENDCHAR
STARTCHAR Ucircumflex
ENCODING 219
SWIDTH 640 0
DWIDTH 6 0
BBX 6 9 0 -2
BITMAP
10
28
48
48
48
48
30
00
00
ENDCHAR
STARTCHAR Udieresis
ENCODING 220
SWIDTH 640 0
DWIDTH 6 0
BBX 6 9 0 -2
BITMAP
28
00
48
48
48
48
30
00
00
ENDCHAR
STARTCHAR Yacute
ENCODING 221
SWIDTH 640 0
DWIDTH 6 0
BBX 6 9 0 -2
BITMAP
10
20
88
50
20
20
20
00
00
ENDCHAR
STARTCHAR Thorn
ENCODING 222
SWIDTH 640 0
DWIDTH 6 0
BBX 6 9 0 -2
BITMAP
00
40
70
48
48
70
40
00
00
ENDCHAR
STARTCHAR germandbls
ENCODING 223
SWIDTH 640 0
DWIDTH 6 0
BBX 6 9 0 -2
BITMAP
00
30
48
50
50
48
50
00
00
ENDCHAR
STARTCHAR agrave
ENCODING 224
SWIDTH 640 0
DWIDTH 6 0
BBX 6 9 0 -2
BITMAP
20
10
00
38
48
48
38
00
00
ENDCHAR
STARTCHAR aacute
ENCODING 225
SWIDTH 640 0
DWIDTH 6 0
BBX 6 9 0 -2
BITMAP
10
20
00
38
48
48
38
00
00
ENDCHAR
STARTCHAR acircumflex
ENCODING 226
SWIDTH 640 0
DWIDTH 6 0
BBX 6 9 0 -2
BITMAP
10
28
00
38
48
48
38
00
00
ENDCHAR
STARTCHAR atilde
ENCODING 227
SWIDTH 640 0
DWIDTH 6 0
BBX 6 9 0 -2
BITMAP
28
50
00
38
48
48
38
00
00
ENDCHAR
STARTCHAR adieresis
ENCODING 228
SWIDTH 640 0
DWIDTH 6 0
BBX 6 9 0 -2
BITMAP
00
28
00
38
48
48
38
00
00
ENDCHAR
STARTCHAR aring
ENCODING 229
SWIDTH 640 0
DWIDTH 6 0
BBX 6 9 0 -2
BITMAP
10
28
10
38
48
48
38
00
00
ENDCHAR
STARTCHAR ae
ENCODING 230
SWIDTH 640 0
DWIDTH 6 0
BBX 6 9 0 -2
BITMAP
00
00
00
70
A8
B0
78
00
00
ENDCHAR
STARTCHAR ccedilla
ENCODING 231
SWIDTH 640 0
DWIDTH 6 0
BBX 6 9 0 -2
BITMAP
00
00
00
38
40
40
38
10
20
ENDCHAR
STARTCHAR egrave
ENCODING 232
SWIDTH 640 0
DWIDTH 6 0
BBX 6 9 0 -2
BITMAP
20
10
00
30
58
60
38
00
00
ENDCHAR
STARTCHAR eacute
ENCODING 233
SWIDTH 640 0
DWIDTH 6 0
BBX 6 9 0 -2
BITMAP
10
20
00
30
58
60
38
00
00
ENDCHAR
STARTCHAR ecircumflex
ENCODING 234
SWIDTH 640 0
DWIDTH 6 0
BBX 6 9 0 -2
BITMAP
10
28
00
30
58
60
38
00
00
ENDCHAR
STARTCHAR edieresis
ENCODING 235
SWIDTH 640 0
DWIDTH 6 0
BBX 6 9 0 -2
BITMAP
00
28
00
30
58
60
38
00
00
ENDCHAR
STARTCHAR igrave
ENCODING 236
SWIDTH 640 0
DWIDTH 6 0
BBX 6 9 0 -2
BITMAP
40
20
00
60
20
20
70
00
00
ENDCHAR
STARTCHAR iacute
ENCODING 237
SWIDTH 640 0
DWIDTH 6 0
BBX 6 9 0 -2
BITMAP
10
20
00
60
20
20
70
00
00
ENDCHAR
STARTCHAR icircumflex
ENCODING 238
SWIDTH 640 0
DWIDTH 6 0
BBX 6 9 0 -2
BITMAP
20
50
00
60
20
20
70
00
00
ENDCHAR
STARTCHAR idieresis
ENCODING 239
SWIDTH 640 0
DWIDTH 6 0
BBX 6 9 0 -2
BITMAP
00
50
00
60
20
20
70
00
00
ENDCHAR
STARTCHAR eth
ENCODING 240
SWIDTH 640 0
DWIDTH 6 0
BBX 6 9 0 -2
BITMAP
18
30
08
38
48
48
30
00
00
ENDCHAR
STARTCHAR ntilde
ENCODING 241
SWIDTH 640 0
DWIDTH 6 0
BBX 6 9 0 -2
BITMAP
28
50
00
70
48
48
48
00
00
ENDCHAR
STARTCHAR ograve
ENCODING 242
SWIDTH 640 0
DWIDTH 6 0
BBX 6 9 0 -2
BITMAP
20
10
00
30
48
48
30
00
00
ENDCHAR
STARTCHAR oacute
ENCODING 243
SWIDTH 640 0
DWIDTH 6 0
BBX 6 9 0 -2
BITMAP
10
20
00
30
48
48
30
00
00
ENDCHAR
STARTCHAR ocircumflex
ENCODING 244
SWIDTH 640 0
DWIDTH 6 0
BBX 6 9 0 -2
BITMAP
10
28
00
30
48
48
30
00
00
ENDCHAR
STARTCHAR otilde
ENCODING 245
SWIDTH 640 0
DWIDTH 6 0
BBX 6 9 0 -2
BITMAP
28
50
00
30
48
48
30
00
00
ENDCHAR
STARTCHAR odieresis
ENCODING 246
SWIDTH 640 0
DWIDTH 6 0
BBX 6 9 0 -2
BITMAP
00
28
00
30
48
48
30
00
00
ENDCHAR
STARTCHAR divide
ENCODING 247
SWIDTH 640 0
DWIDTH 6 0
BBX 6 9 0 -2
BITMAP
00
00
20
00
F8
00
20
00
00
ENDCHAR
STARTCHAR oslash
ENCODING 248
SWIDTH 640 0
DWIDTH 6 0
BBX 6 9 0 -2
BITMAP
00
00
00
38
58
68
70
00
00
ENDCHAR
STARTCHAR ugrave
ENCODING 249
SWIDTH 640 0
DWIDTH 6 0
BBX 6 9 0 -2
BITMAP
20
10
00
48
48
48
38
00
00
ENDCHAR
STARTCHAR uacute
ENCODING 250
SWIDTH 640 0
DWIDTH 6 0
BBX 6 9 0 -2
BITMAP
10
20
00
48
48
48
38
00
00
ENDCHAR
STARTCHAR ucircumflex
ENCODING 251
SWIDTH 640 0
DWIDTH 6 0
BBX 6 9 0 -2
BITMAP
10
28
00
48
48
48
38
00
00
ENDCHAR
STARTCHAR udieresis
ENCODING 252
SWIDTH 640 0
DWIDTH 6 0
BBX 6 9 0 -2
BITMAP
00
28
00
48
48
48
38
00
00
ENDCHAR
STARTCHAR yacute
ENCODING 253
SWIDTH 640 0
DWIDTH 6 0
BBX 6 9 0 -2
BITMAP
10
20
00
48
48
48
38
48
30
ENDCHAR
STARTCHAR thorn
ENCODING 254
SWIDTH 640 0
DWIDTH 6 0
BBX 6 9 0 -2
BITMAP
00
40
40
70
48
48
70
40
40
ENDCHAR
STARTCHAR ydieresis
ENCODING 255
SWIDTH 640 0
DWIDTH 6 0
BBX 6 9 0 -2
BITMAP
00
28
00
48
48
48
38
48
30
ENDCHAR
ENDFONT
