STARTFONT 2.1
COMMENT AUTOMATICALLY GENERATED FILE. DO NOT EDIT!
COMMENT Generated with 'ucs2any.pl 7x13O.bdf ../../../fonts/util/map-ISO8859-1 ISO8859-1'
COMMENT from an ISO10646-1 encoded source BDF font.
COMMENT ucs2any.pl by Markus Kuhn <mkuhn@acm.org>, 2000.
COMMENT Id: 7x13O.bdf,v 1.7 2001-04-03 13:22:08+01 mgk25 Exp mgk25 $
COMMENT Send bug reports to Markus Kuhn <mkuhn@acm.org>
FONT -Misc-Fixed-Medium-O-Normal--13-120-75-75-C-70-ISO8859-1
SIZE 13 78 78
FONTBOUNDINGBOX 7 13 0 -2
STARTPROPERTIES 22
FONTNAME_REGISTRY ""
FOUNDRY "Misc"
FAMILY_NAME "Fixed"
WEIGHT_NAME "Medium"
SLANT "O"
SETWIDTH_NAME "Normal"
ADD_STYLE_NAME ""
PIXEL_SIZE 13
POINT_SIZE 120
RESOLUTION_X 75
RESOLUTION_Y 75
SPACING "C"
AVERAGE_WIDTH 70
CHARSET_REGISTRY "ISO8859"
CHARSET_ENCODING "1"
COPYRIGHT "Public domain font.  Share and enjoy."
DESTINATION 1
DEFAULT_CHAR 0
FONT_DESCENT 2
FONT_ASCENT 11
CAP_HEIGHT 9
X_HEIGHT 6
ENDPROPERTIES
CHARS 192
STARTCHAR defaultchar
ENCODING 0
SWIDTH 497 0
DWIDTH 7 0
BBX 7 13 0 -2
BITMAP
00
00
56
00
42
00
42
00
84
00
D4
00
00
ENDCHAR
STARTCHAR space
ENCODING 32
SWIDTH 497 0
DWIDTH 7 0
BBX 7 13 0 -2
BITMAP
00
00
00
00
00
00
00
00
00
00
00
00
00
ENDCHAR
STARTCHAR exclam
ENCODING 33
SWIDTH 497 0
DWIDTH 7 0
BBX 7 13 0 -2
BITMAP
00
00
10
10
10
10
20
20
20
00
20
00
00
ENDCHAR
STARTCHAR quotedbl
ENCODING 34
SWIDTH 497 0
DWIDTH 7 0
BBX 7 13 0 -2
BITMAP
00
00
28
28
28
00
00
00
00
00
00
00
00
ENDCHAR
STARTCHAR numbersign
ENCODING 35
SWIDTH 497 0
DWIDTH 7 0
BBX 7 13 0 -2
BITMAP
00
00
00
28
28
7C
28
F8
50
50
00
00
00
ENDCHAR
STARTCHAR dollar
ENCODING 36
SWIDTH 497 0
DWIDTH 7 0
BBX 7 13 0 -2
BITMAP
00
00
00
10
3C
50
38
28
F0
20
00
00
00
ENDCHAR
STARTCHAR percent
ENCODING 37
SWIDTH 497 0
DWIDTH 7 0
BBX 7 13 0 -2
BITMAP
00
00
22
52
24
08
10
20
48
94
88
00
00
ENDCHAR
STARTCHAR ampersand
ENCODING 38
SWIDTH 497 0
DWIDTH 7 0
BBX 7 13 0 -2
BITMAP
00
00
00
18
24
24
38
50
94
88
74
00
00
ENDCHAR
STARTCHAR quotesingle
ENCODING 39
SWIDTH 497 0
DWIDTH 7 0
BBX 7 13 0 -2
BITMAP
00
00
10
10
10
00
00
00
00
00
00
00
00
ENDCHAR
STARTCHAR parenleft
ENCODING 40
SWIDTH 497 0
DWIDTH 7 0
BBX 7 13 0 -2
BITMAP
00
00
08
10
20
20
40
40
20
20
10
00
00
ENDCHAR
STARTCHAR parenright
ENCODING 41
SWIDTH 497 0
DWIDTH 7 0
BBX 7 13 0 -2
BITMAP
00
00
20
10
10
08
08
10
10
20
40
00
00
ENDCHAR
STARTCHAR asterisk
ENCODING 42
SWIDTH 497 0
DWIDTH 7 0
BBX 7 13 0 -2
BITMAP
00
00
00
00
24
18
7C
30
48
00
00
00
00
ENDCHAR
STARTCHAR plus
ENCODING 43
SWIDTH 497 0
DWIDTH 7 0
BBX 7 13 0 -2
BITMAP
00
00
00
00
10
10
78
20
20
00
00
00
00
ENDCHAR
STARTCHAR comma
ENCODING 44
SWIDTH 497 0
DWIDTH 7 0
BBX 7 13 0 -2
BITMAP
00
00
00
00
00
00
00
00
00
38
30
40
00
ENDCHAR
STARTCHAR hyphen
ENCODING 45
SWIDTH 497 0
DWIDTH 7 0
BBX 7 13 0 -2
BITMAP
00
00
00
00
00
00
7C
00
00
00
00
00
00
ENDCHAR
STARTCHAR period
ENCODING 46
SWIDTH 497 0
DWIDTH 7 0
BBX 7 13 0 -2
BITMAP
00
00
00
00
00
00
00
00
00
10
38
10
00
ENDCHAR
STARTCHAR slash
ENCODING 47
SWIDTH 497 0
DWIDTH 7 0
BBX 7 13 0 -2
BITMAP
00
00
04
04
08
10
10
20
40
80
80
00
00
ENDCHAR
STARTCHAR zero
ENCODING 48
SWIDTH 497 0
DWIDTH 7 0
BBX 7 13 0 -2
BITMAP
00
00
18
24
42
42
42
84
84
48
30
00
00
ENDCHAR
STARTCHAR one
ENCODING 49
SWIDTH 497 0
DWIDTH 7 0
BBX 7 13 0 -2
BITMAP
00
00
08
18
28
08
08
10
10
10
7C
00
00
ENDCHAR
STARTCHAR two
ENCODING 50
SWIDTH 497 0
DWIDTH 7 0
BBX 7 13 0 -2
BITMAP
00
00
3C
42
42
02
0C
30
40
80
FC
00
00
ENDCHAR
STARTCHAR three
ENCODING 51
SWIDTH 497 0
DWIDTH 7 0
BBX 7 13 0 -2
BITMAP
00
00
7E
02
04
08
18
04
04
84
78
00
00
ENDCHAR
STARTCHAR four
ENCODING 52
SWIDTH 497 0
DWIDTH 7 0
BBX 7 13 0 -2
BITMAP
00
00
04
0C
14
24
48
88
FC
08
08
00
00
ENDCHAR
STARTCHAR five
ENCODING 53
SWIDTH 497 0
DWIDTH 7 0
BBX 7 13 0 -2
BITMAP
00
00
3E
20
20
5C
62
02
04
84
78
00
00
ENDCHAR
STARTCHAR six
ENCODING 54
SWIDTH 497 0
DWIDTH 7 0
BBX 7 13 0 -2
BITMAP
00
00
1C
20
40
40
78
84
84
84
78
00
00
ENDCHAR
STARTCHAR seven
ENCODING 55
SWIDTH 497 0
DWIDTH 7 0
BBX 7 13 0 -2
BITMAP
00
00
FC
04
08
10
20
40
40
80
80
00
00
ENDCHAR
STARTCHAR eight
ENCODING 56
SWIDTH 497 0
DWIDTH 7 0
BBX 7 13 0 -2
BITMAP
00
00
3C
42
42
42
7C
84
84
84
78
00
00
ENDCHAR
STARTCHAR nine
ENCODING 57
SWIDTH 497 0
DWIDTH 7 0
BBX 7 13 0 -2
BITMAP
00
00
78
84
84
8C
74
08
08
10
E0
00
00
ENDCHAR
STARTCHAR colon
ENCODING 58
SWIDTH 497 0
DWIDTH 7 0
BBX 7 13 0 -2
BITMAP
00
00
00
00
10
38
10
00
00
20
70
20
00
ENDCHAR
STARTCHAR semicolon
ENCODING 59
SWIDTH 497 0
DWIDTH 7 0
BBX 7 13 0 -2
BITMAP
00
00
00
00
08
1C
08
00
00
38
30
40
00
ENDCHAR
STARTCHAR less
ENCODING 60
SWIDTH 497 0
DWIDTH 7 0
BBX 7 13 0 -2
BITMAP
00
00
04
08
10
20
40
40
20
10
08
00
00
ENDCHAR
STARTCHAR equal
ENCODING 61
SWIDTH 497 0
DWIDTH 7 0
BBX 7 13 0 -2
BITMAP
00
00
00
00
00
7E
00
00
FC
00
00
00
00
ENDCHAR
STARTCHAR greater
ENCODING 62
SWIDTH 497 0
DWIDTH 7 0
BBX 7 13 0 -2
BITMAP
00
00
20
10
08
04
04
08
10
20
40
00
00
ENDCHAR
STARTCHAR question
ENCODING 63
SWIDTH 497 0
DWIDTH 7 0
BBX 7 13 0 -2
BITMAP
00
00
78
84
84
08
10
20
20
00
20
00
00
ENDCHAR
STARTCHAR at
ENCODING 64
SWIDTH 497 0
DWIDTH 7 0
BBX 7 13 0 -2
BITMAP
00
00
3C
42
42
4E
52
AC
94
80
78
00
00
ENDCHAR
STARTCHAR A
ENCODING 65
SWIDTH 497 0
DWIDTH 7 0
BBX 7 13 0 -2
BITMAP
00
00
18
24
42
42
42
7C
84
84
84
00
00
ENDCHAR
STARTCHAR B
ENCODING 66
SWIDTH 497 0
DWIDTH 7 0
BBX 7 13 0 -2
BITMAP
00
00
7C
22
22
22
3C
44
44
44
F8
00
00
ENDCHAR
STARTCHAR C
ENCODING 67
SWIDTH 497 0
DWIDTH 7 0
BBX 7 13 0 -2
BITMAP
00
00
3C
42
40
40
40
80
80
84
78
00
00
ENDCHAR
STARTCHAR D
ENCODING 68
SWIDTH 497 0
DWIDTH 7 0
BBX 7 13 0 -2
BITMAP
00
00
7C
22
22
22
22
44
44
44
F8
00
00
ENDCHAR
STARTCHAR E
ENCODING 69
SWIDTH 497 0
DWIDTH 7 0
BBX 7 13 0 -2
BITMAP
00
00
7E
40
40
40
78
80
80
80
FC
00
00
ENDCHAR
STARTCHAR F
ENCODING 70
SWIDTH 497 0
DWIDTH 7 0
BBX 7 13 0 -2
BITMAP
00
00
7E
40
40
40
78
80
80
80
80
00
00
ENDCHAR
STARTCHAR G
ENCODING 71
SWIDTH 497 0
DWIDTH 7 0
BBX 7 13 0 -2
BITMAP
00
00
3C
42
40
40
40
9C
84
8C
74
00
00
ENDCHAR
STARTCHAR H
ENCODING 72
SWIDTH 497 0
DWIDTH 7 0
BBX 7 13 0 -2
BITMAP
00
00
42
42
42
42
7C
84
84
84
84
00
00
ENDCHAR
STARTCHAR I
ENCODING 73
SWIDTH 497 0
DWIDTH 7 0
BBX 7 13 0 -2
BITMAP
00
00
7C
10
10
10
10
20
20
20
F8
00
00
ENDCHAR
STARTCHAR J
ENCODING 74
SWIDTH 497 0
DWIDTH 7 0
BBX 7 13 0 -2
BITMAP
00
00
0E
04
04
04
04
08
08
88
70
00
00
ENDCHAR
STARTCHAR K
ENCODING 75
SWIDTH 497 0
DWIDTH 7 0
BBX 7 13 0 -2
BITMAP
00
00
42
44
48
50
60
A0
90
88
84
00
00
ENDCHAR
STARTCHAR L
ENCODING 76
SWIDTH 497 0
DWIDTH 7 0
BBX 7 13 0 -2
BITMAP
00
00
40
40
40
40
40
80
80
80
FC
00
00
ENDCHAR
STARTCHAR M
ENCODING 77
SWIDTH 497 0
DWIDTH 7 0
BBX 7 13 0 -2
BITMAP
00
00
42
66
66
5A
5A
84
84
84
84
00
00
ENDCHAR
STARTCHAR N
ENCODING 78
SWIDTH 497 0
DWIDTH 7 0
BBX 7 13 0 -2
BITMAP
00
00
42
42
62
52
4A
8C
84
84
84
00
00
ENDCHAR
STARTCHAR O
ENCODING 79
SWIDTH 497 0
DWIDTH 7 0
BBX 7 13 0 -2
BITMAP
00
00
3C
42
42
42
42
84
84
84
78
00
00
ENDCHAR
STARTCHAR P
ENCODING 80
SWIDTH 497 0
DWIDTH 7 0
BBX 7 13 0 -2
BITMAP
00
00
7C
42
42
42
7C
80
80
80
80
00
00
ENDCHAR
STARTCHAR Q
ENCODING 81
SWIDTH 497 0
DWIDTH 7 0
BBX 7 13 0 -2
BITMAP
00
00
3C
42
42
42
42
84
A4
94
78
04
00
ENDCHAR
STARTCHAR R
ENCODING 82
SWIDTH 497 0
DWIDTH 7 0
BBX 7 13 0 -2
BITMAP
00
00
7C
42
42
42
7C
A0
90
88
84
00
00
ENDCHAR
STARTCHAR S
ENCODING 83
SWIDTH 497 0
DWIDTH 7 0
BBX 7 13 0 -2
BITMAP
00
00
3C
42
40
40
38
04
04
84
78
00
00
ENDCHAR
STARTCHAR T
ENCODING 84
SWIDTH 497 0
DWIDTH 7 0
BBX 7 13 0 -2
BITMAP
00
00
7C
10
10
10
10
20
20
20
20
00
00
ENDCHAR
STARTCHAR U
ENCODING 85
SWIDTH 497 0
DWIDTH 7 0
BBX 7 13 0 -2
BITMAP
00
00
42
42
42
42
42
84
84
84
78
00
00
ENDCHAR
STARTCHAR V
ENCODING 86
SWIDTH 497 0
DWIDTH 7 0
BBX 7 13 0 -2
BITMAP
00
00
84
84
88
88
50
50
60
60
60
00
00
ENDCHAR
STARTCHAR W
ENCODING 87
SWIDTH 497 0
DWIDTH 7 0
BBX 7 13 0 -2
BITMAP
00
00
42
42
42
42
5A
B4
CC
CC
84
00
00
ENDCHAR
STARTCHAR X
ENCODING 88
SWIDTH 497 0
DWIDTH 7 0
BBX 7 13 0 -2
BITMAP
00
00
42
44
24
28
10
28
48
44
84
00
00
ENDCHAR
STARTCHAR Y
ENCODING 89
SWIDTH 497 0
DWIDTH 7 0
BBX 7 13 0 -2
BITMAP
00
00
44
44
28
28
10
10
20
20
20
00
00
ENDCHAR
STARTCHAR Z
ENCODING 90
SWIDTH 497 0
DWIDTH 7 0
BBX 7 13 0 -2
BITMAP
00
00
7E
02
04
08
10
20
40
80
FC
00
00
ENDCHAR
STARTCHAR bracketleft
ENCODING 91
SWIDTH 497 0
DWIDTH 7 0
BBX 7 13 0 -2
BITMAP
00
3C
20
20
20
20
20
40
40
40
40
78
00
ENDCHAR
STARTCHAR backslash
ENCODING 92
SWIDTH 497 0
DWIDTH 7 0
BBX 7 13 0 -2
BITMAP
00
00
40
40
20
20
10
10
10
08
08
00
00
ENDCHAR
STARTCHAR bracketright
ENCODING 93
SWIDTH 497 0
DWIDTH 7 0
BBX 7 13 0 -2
BITMAP
00
3C
04
04
04
04
04
08
08
08
08
78
00
ENDCHAR
STARTCHAR asciicircum
ENCODING 94
SWIDTH 497 0
DWIDTH 7 0
BBX 7 13 0 -2
BITMAP
00
00
10
28
44
00
00
00
00
00
00
00
00
ENDCHAR
STARTCHAR underscore
ENCODING 95
SWIDTH 497 0
DWIDTH 7 0
BBX 7 13 0 -2
BITMAP
00
00
00
00
00
00
00
00
00
00
00
FC
00
ENDCHAR
STARTCHAR grave
ENCODING 96
SWIDTH 497 0
DWIDTH 7 0
BBX 7 13 0 -2
BITMAP
00
20
10
00
00
00
00
00
00
00
00
00
00
ENDCHAR
STARTCHAR a
ENCODING 97
SWIDTH 497 0
DWIDTH 7 0
BBX 7 13 0 -2
BITMAP
00
00
00
00
00
3C
02
7C
84
8C
74
00
00
ENDCHAR
STARTCHAR b
ENCODING 98
SWIDTH 497 0
DWIDTH 7 0
BBX 7 13 0 -2
BITMAP
00
00
40
40
40
5C
62
42
84
C4
B8
00
00
ENDCHAR
STARTCHAR c
ENCODING 99
SWIDTH 497 0
DWIDTH 7 0
BBX 7 13 0 -2
BITMAP
00
00
00
00
00
3C
42
80
80
84
78
00
00
ENDCHAR
STARTCHAR d
ENCODING 100
SWIDTH 497 0
DWIDTH 7 0
BBX 7 13 0 -2
BITMAP
00
00
02
02
02
3A
44
84
84
8C
74
00
00
ENDCHAR
STARTCHAR e
ENCODING 101
SWIDTH 497 0
DWIDTH 7 0
BBX 7 13 0 -2
BITMAP
00
00
00
00
00
3C
42
7C
80
84
78
00
00
ENDCHAR
STARTCHAR f
ENCODING 102
SWIDTH 497 0
DWIDTH 7 0
BBX 7 13 0 -2
BITMAP
00
00
38
44
40
40
F0
40
80
80
80
00
00
ENDCHAR
STARTCHAR g
ENCODING 103
SWIDTH 497 0
DWIDTH 7 0
BBX 7 13 0 -2
BITMAP
00
00
00
00
00
3A
44
88
70
80
78
84
78
ENDCHAR
STARTCHAR h
ENCODING 104
SWIDTH 497 0
DWIDTH 7 0
BBX 7 13 0 -2
BITMAP
00
00
20
20
40
5C
62
42
84
84
84
00
00
ENDCHAR
STARTCHAR i
ENCODING 105
SWIDTH 497 0
DWIDTH 7 0
BBX 7 13 0 -2
BITMAP
00
00
00
08
00
18
08
08
10
10
7C
00
00
ENDCHAR
STARTCHAR j
ENCODING 106
SWIDTH 497 0
DWIDTH 7 0
BBX 7 13 0 -2
BITMAP
00
00
00
04
00
0C
04
04
08
08
88
88
70
ENDCHAR
STARTCHAR k
ENCODING 107
SWIDTH 497 0
DWIDTH 7 0
BBX 7 13 0 -2
BITMAP
00
00
40
40
40
44
58
60
90
88
84
00
00
ENDCHAR
STARTCHAR l
ENCODING 108
SWIDTH 497 0
DWIDTH 7 0
BBX 7 13 0 -2
BITMAP
00
00
18
08
08
08
08
10
10
10
7C
00
00
ENDCHAR
STARTCHAR m
ENCODING 109
SWIDTH 497 0
DWIDTH 7 0
BBX 7 13 0 -2
BITMAP
00
00
00
00
00
68
54
54
A8
A8
88
00
00
ENDCHAR
STARTCHAR n
ENCODING 110
SWIDTH 497 0
DWIDTH 7 0
BBX 7 13 0 -2
BITMAP
00
00
00
00
00
5C
62
42
84
84
84
00
00
ENDCHAR
STARTCHAR o
ENCODING 111
SWIDTH 497 0
DWIDTH 7 0
BBX 7 13 0 -2
BITMAP
00
00
00
00
00
3C
42
42
84
84
78
00
00
ENDCHAR
STARTCHAR p
ENCODING 112
SWIDTH 497 0
DWIDTH 7 0
BBX 7 13 0 -2
BITMAP
00
00
00
00
00
5C
62
42
C4
B8
80
80
80
ENDCHAR
STARTCHAR q
ENCODING 113
SWIDTH 497 0
DWIDTH 7 0
BBX 7 13 0 -2
BITMAP
00
00
00
00
00
3A
46
82
8C
74
04
04
04
ENDCHAR
STARTCHAR r
ENCODING 114
SWIDTH 497 0
DWIDTH 7 0
BBX 7 13 0 -2
BITMAP
00
00
00
00
00
B8
44
40
80
80
80
00
00
ENDCHAR
STARTCHAR s
ENCODING 115
SWIDTH 497 0
DWIDTH 7 0
BBX 7 13 0 -2
BITMAP
00
00
00
00
00
3C
42
20
18
84
78
00
00
ENDCHAR
STARTCHAR t
ENCODING 116
SWIDTH 497 0
DWIDTH 7 0
BBX 7 13 0 -2
BITMAP
00
00
00
20
20
78
20
40
40
44
38
00
00
ENDCHAR
STARTCHAR u
ENCODING 117
SWIDTH 497 0
DWIDTH 7 0
BBX 7 13 0 -2
BITMAP
00
00
00
00
00
42
42
42
84
8C
74
00
00
ENDCHAR
STARTCHAR v
ENCODING 118
SWIDTH 497 0
DWIDTH 7 0
BBX 7 13 0 -2
BITMAP
00
00
00
00
00
44
44
48
48
50
20
00
00
ENDCHAR
STARTCHAR w
ENCODING 119
SWIDTH 497 0
DWIDTH 7 0
BBX 7 13 0 -2
BITMAP
00
00
00
00
00
44
44
54
A8
A8
50
00
00
ENDCHAR
STARTCHAR x
ENCODING 120
SWIDTH 497 0
DWIDTH 7 0
BBX 7 13 0 -2
BITMAP
00
00
00
00
00
42
24
18
30
48
84
00
00
ENDCHAR
STARTCHAR y
ENCODING 121
SWIDTH 497 0
DWIDTH 7 0
BBX 7 13 0 -2
BITMAP
00
00
00
00
00
42
42
84
8C
74
04
84
78
ENDCHAR
STARTCHAR z
ENCODING 122
SWIDTH 497 0
DWIDTH 7 0
BBX 7 13 0 -2
BITMAP
00
00
00
00
00
7E
04
18
20
40
FC
00
00
ENDCHAR
STARTCHAR braceleft
ENCODING 123
SWIDTH 497 0
DWIDTH 7 0
BBX 7 13 0 -2
BITMAP
00
1C
20
20
20
10
60
20
40
40
40
38
00
ENDCHAR
STARTCHAR bar
ENCODING 124
SWIDTH 497 0
DWIDTH 7 0
BBX 7 13 0 -2
BITMAP
00
00
10
10
10
10
10
20
20
20
20
00
00
ENDCHAR
STARTCHAR braceright
ENCODING 125
SWIDTH 497 0
DWIDTH 7 0
BBX 7 13 0 -2
BITMAP
00
70
08
08
08
10
1C
20
10
10
10
E0
00
ENDCHAR
STARTCHAR asciitilde
ENCODING 126
SWIDTH 497 0
DWIDTH 7 0
BBX 7 13 0 -2
BITMAP
00
00
24
54
48
00
00
00
00
00
00
00
00
ENDCHAR
STARTCHAR space
ENCODING 160
SWIDTH 497 0
DWIDTH 7 0
BBX 7 13 0 -2
BITMAP
00
00
00
00
00
00
00
00
00
00
00
00
00
ENDCHAR
STARTCHAR exclamdown
ENCODING 161
SWIDTH 497 0
DWIDTH 7 0
BBX 7 13 0 -2
BITMAP
00
00
10
00
10
10
10
20
20
20
20
00
00
ENDCHAR
STARTCHAR cent
ENCODING 162
SWIDTH 497 0
DWIDTH 7 0
BBX 7 13 0 -2
BITMAP
00
00
10
38
54
50
A0
A8
70
20
00
00
00
ENDCHAR
STARTCHAR sterling
ENCODING 163
SWIDTH 497 0
DWIDTH 7 0
BBX 7 13 0 -2
BITMAP
00
00
1C
22
20
20
70
20
40
44
B8
00
00
ENDCHAR
STARTCHAR currency
ENCODING 164
SWIDTH 497 0
DWIDTH 7 0
BBX 7 13 0 -2
BITMAP
00
00
00
00
42
3C
24
48
78
84
00
00
00
ENDCHAR
STARTCHAR yen
ENCODING 165
SWIDTH 497 0
DWIDTH 7 0
BBX 7 13 0 -2
BITMAP
00
00
44
44
28
28
7C
10
F8
20
20
00
00
ENDCHAR
STARTCHAR brokenbar
ENCODING 166
SWIDTH 497 0
DWIDTH 7 0
BBX 7 13 0 -2
BITMAP
00
00
10
10
10
10
00
20
20
20
20
00
00
ENDCHAR
STARTCHAR section
ENCODING 167
SWIDTH 497 0
DWIDTH 7 0
BBX 7 13 0 -2
BITMAP
00
18
24
20
30
48
48
30
10
90
60
00
00
ENDCHAR
STARTCHAR dieresis
ENCODING 168
SWIDTH 497 0
DWIDTH 7 0
BBX 7 13 0 -2
BITMAP
00
00
48
48
00
00
00
00
00
00
00
00
00
ENDCHAR
STARTCHAR copyright
ENCODING 169
SWIDTH 497 0
DWIDTH 7 0
BBX 7 13 0 -2
BITMAP
00
00
3C
42
5A
52
52
A4
B4
84
78
00
00
ENDCHAR
STARTCHAR ordfeminine
ENCODING 170
SWIDTH 497 0
DWIDTH 7 0
BBX 7 13 0 -2
BITMAP
00
00
38
04
3C
44
3C
00
F8
00
00
00
00
ENDCHAR
STARTCHAR guillemotleft
ENCODING 171
SWIDTH 497 0
DWIDTH 7 0
BBX 7 13 0 -2
BITMAP
00
00
00
14
28
50
A0
A0
50
28
00
00
00
ENDCHAR
STARTCHAR logicalnot
ENCODING 172
SWIDTH 497 0
DWIDTH 7 0
BBX 7 13 0 -2
BITMAP
00
00
00
00
00
00
7C
08
08
00
00
00
00
ENDCHAR
STARTCHAR hyphen
ENCODING 173
SWIDTH 497 0
DWIDTH 7 0
BBX 7 13 0 -2
BITMAP
00
00
00
00
00
00
78
00
00
00
00
00
00
ENDCHAR
STARTCHAR registered
ENCODING 174
SWIDTH 497 0
DWIDTH 7 0
BBX 7 13 0 -2
BITMAP
00
00
3C
42
5A
56
AC
B4
AC
84
78
00
00
ENDCHAR
STARTCHAR macron
ENCODING 175
SWIDTH 497 0
DWIDTH 7 0
BBX 7 13 0 -2
BITMAP
00
00
7C
00
00
00
00
00
00
00
00
00
00
ENDCHAR
STARTCHAR degree
ENCODING 176
SWIDTH 497 0
DWIDTH 7 0
BBX 7 13 0 -2
BITMAP
00
00
30
48
48
30
00
00
00
00
00
00
00
ENDCHAR
STARTCHAR plusminus
ENCODING 177
SWIDTH 497 0
DWIDTH 7 0
BBX 7 13 0 -2
BITMAP
00
00
00
08
08
3C
10
10
00
7C
00
00
00
ENDCHAR
STARTCHAR twosuperior
ENCODING 178
SWIDTH 497 0
DWIDTH 7 0
BBX 7 13 0 -2
BITMAP
00
10
28
08
30
40
70
00
00
00
00
00
00
ENDCHAR
STARTCHAR threesuperior
ENCODING 179
SWIDTH 497 0
DWIDTH 7 0
BBX 7 13 0 -2
BITMAP
00
30
08
30
10
50
20
00
00
00
00
00
00
ENDCHAR
STARTCHAR acute
ENCODING 180
SWIDTH 497 0
DWIDTH 7 0
BBX 7 13 0 -2
BITMAP
00
10
20
00
00
00
00
00
00
00
00
00
00
ENDCHAR
STARTCHAR mu
ENCODING 181
SWIDTH 497 0
DWIDTH 7 0
BBX 7 13 0 -2
BITMAP
00
00
00
00
00
42
42
42
84
CC
B4
80
00
ENDCHAR
STARTCHAR paragraph
ENCODING 182
SWIDTH 497 0
DWIDTH 7 0
BBX 7 13 0 -2
BITMAP
00
00
7C
E8
E8
E8
28
50
50
50
50
00
00
ENDCHAR
STARTCHAR periodcentered
ENCODING 183
SWIDTH 497 0
DWIDTH 7 0
BBX 7 13 0 -2
BITMAP
00
00
00
00
00
00
30
00
00
00
00
00
00
ENDCHAR
STARTCHAR cedilla
ENCODING 184
SWIDTH 497 0
DWIDTH 7 0
BBX 7 13 0 -2
BITMAP
00
00
00
00
00
00
00
00
00
00
00
10
20
ENDCHAR
STARTCHAR onesuperior
ENCODING 185
SWIDTH 497 0
DWIDTH 7 0
BBX 7 13 0 -2
BITMAP
00
08
18
08
10
10
38
00
00
00
00
00
00
ENDCHAR
STARTCHAR ordmasculine
ENCODING 186
SWIDTH 497 0
DWIDTH 7 0
BBX 7 13 0 -2
BITMAP
00
00
18
24
24
18
00
78
00
00
00
00
00
ENDCHAR
STARTCHAR guillemotright
ENCODING 187
SWIDTH 497 0
DWIDTH 7 0
BBX 7 13 0 -2
BITMAP
00
00
00
50
28
14
14
28
50
A0
00
00
00
ENDCHAR
STARTCHAR onequarter
ENCODING 188
SWIDTH 497 0
DWIDTH 7 0
BBX 7 13 0 -2
BITMAP
00
20
60
20
40
44
EC
14
28
38
08
00
00
ENDCHAR
STARTCHAR onehalf
ENCODING 189
SWIDTH 497 0
DWIDTH 7 0
BBX 7 13 0 -2
BITMAP
00
20
60
20
40
48
F4
04
18
20
38
00
00
ENDCHAR
STARTCHAR threequarters
ENCODING 190
SWIDTH 497 0
DWIDTH 7 0
BBX 7 13 0 -2
BITMAP
00
60
10
60
20
A4
4C
14
28
38
08
00
00
ENDCHAR
STARTCHAR questiondown
ENCODING 191
SWIDTH 497 0
DWIDTH 7 0
BBX 7 13 0 -2
BITMAP
00
00
10
00
10
10
20
40
84
84
78
00
00
ENDCHAR
STARTCHAR Agrave
ENCODING 192
SWIDTH 497 0
DWIDTH 7 0
BBX 7 13 0 -2
BITMAP
00
10
08
00
18
24
42
42
7C
84
84
00
00
ENDCHAR
STARTCHAR Aacute
ENCODING 193
SWIDTH 497 0
DWIDTH 7 0
BBX 7 13 0 -2
BITMAP
00
08
10
00
18
24
42
42
7C
84
84
00
00
ENDCHAR
STARTCHAR Acircumflex
ENCODING 194
SWIDTH 497 0
DWIDTH 7 0
BBX 7 13 0 -2
BITMAP
00
18
24
00
18
24
42
42
7C
84
84
00
00
ENDCHAR
STARTCHAR Atilde
ENCODING 195
SWIDTH 497 0
DWIDTH 7 0
BBX 7 13 0 -2
BITMAP
00
32
4C
00
18
24
42
42
7C
84
84
00
00
ENDCHAR
STARTCHAR Adieresis
ENCODING 196
SWIDTH 497 0
DWIDTH 7 0
BBX 7 13 0 -2
BITMAP
00
24
24
00
18
24
42
42
7C
84
84
00
00
ENDCHAR
STARTCHAR Aring
ENCODING 197
SWIDTH 497 0
DWIDTH 7 0
BBX 7 13 0 -2
BITMAP
00
18
24
18
18
24
42
42
7C
84
84
00
00
ENDCHAR
STARTCHAR AE
ENCODING 198
SWIDTH 497 0
DWIDTH 7 0
BBX 7 13 0 -2
BITMAP
00
00
2E
50
50
50
7C
A0
A0
A0
BC
00
00
ENDCHAR
STARTCHAR Ccedilla
ENCODING 199
SWIDTH 497 0
DWIDTH 7 0
BBX 7 13 0 -2
BITMAP
00
00
3C
42
40
40
40
80
80
84
78
10
20
ENDCHAR
STARTCHAR Egrave
ENCODING 200
SWIDTH 497 0
DWIDTH 7 0
BBX 7 13 0 -2
BITMAP
00
10
08
00
7E
40
40
70
80
80
FC
00
00
ENDCHAR
STARTCHAR Eacute
ENCODING 201
SWIDTH 497 0
DWIDTH 7 0
BBX 7 13 0 -2
BITMAP
00
08
10
00
7E
40
40
70
80
80
FC
00
00
ENDCHAR
STARTCHAR Ecircumflex
ENCODING 202
SWIDTH 497 0
DWIDTH 7 0
BBX 7 13 0 -2
BITMAP
00
18
24
00
7E
40
40
70
80
80
FC
00
00
ENDCHAR
STARTCHAR Edieresis
ENCODING 203
SWIDTH 497 0
DWIDTH 7 0
BBX 7 13 0 -2
BITMAP
00
24
24
00
7E
40
40
70
80
80
FC
00
00
ENDCHAR
STARTCHAR Igrave
ENCODING 204
SWIDTH 497 0
DWIDTH 7 0
BBX 7 13 0 -2
BITMAP
00
20
10
00
7C
10
10
20
20
20
F8
00
00
ENDCHAR
STARTCHAR Iacute
ENCODING 205
SWIDTH 497 0
DWIDTH 7 0
BBX 7 13 0 -2
BITMAP
00
10
20
00
7C
10
10
20
20
20
F8
00
00
ENDCHAR
STARTCHAR Icircumflex
ENCODING 206
SWIDTH 497 0
DWIDTH 7 0
BBX 7 13 0 -2
BITMAP
00
10
28
00
7C
10
10
20
20
20
F8
00
00
ENDCHAR
STARTCHAR Idieresis
ENCODING 207
SWIDTH 497 0
DWIDTH 7 0
BBX 7 13 0 -2
BITMAP
00
44
44
00
7C
10
10
20
20
20
F8
00
00
ENDCHAR
STARTCHAR Eth
ENCODING 208
SWIDTH 497 0
DWIDTH 7 0
BBX 7 13 0 -2
BITMAP
00
00
7C
22
22
22
F2
44
44
44
F8
00
00
ENDCHAR
STARTCHAR Ntilde
ENCODING 209
SWIDTH 497 0
DWIDTH 7 0
BBX 7 13 0 -2
BITMAP
00
32
4C
00
42
62
52
52
8C
8C
84
00
00
ENDCHAR
STARTCHAR Ograve
ENCODING 210
SWIDTH 497 0
DWIDTH 7 0
BBX 7 13 0 -2
BITMAP
00
10
08
00
3C
42
42
84
84
84
78
00
00
ENDCHAR
STARTCHAR Oacute
ENCODING 211
SWIDTH 497 0
DWIDTH 7 0
BBX 7 13 0 -2
BITMAP
00
08
10
00
3C
42
42
84
84
84
78
00
00
ENDCHAR
STARTCHAR Ocircumflex
ENCODING 212
SWIDTH 497 0
DWIDTH 7 0
BBX 7 13 0 -2
BITMAP
00
18
24
00
3C
42
42
84
84
84
78
00
00
ENDCHAR
STARTCHAR Otilde
ENCODING 213
SWIDTH 497 0
DWIDTH 7 0
BBX 7 13 0 -2
BITMAP
00
32
4C
00
3C
42
42
84
84
84
78
00
00
ENDCHAR
STARTCHAR Odieresis
ENCODING 214
SWIDTH 497 0
DWIDTH 7 0
BBX 7 13 0 -2
BITMAP
00
24
24
00
3C
42
42
84
84
84
78
00
00
ENDCHAR
STARTCHAR multiply
ENCODING 215
SWIDTH 497 0
DWIDTH 7 0
BBX 7 13 0 -2
BITMAP
00
00
00
00
42
24
18
30
48
84
00
00
00
ENDCHAR
STARTCHAR Oslash
ENCODING 216
SWIDTH 497 0
DWIDTH 7 0
BBX 7 13 0 -2
BITMAP
00
02
3C
46
4A
4A
52
A4
A4
C4
78
80
00
ENDCHAR
STARTCHAR Ugrave
ENCODING 217
SWIDTH 497 0
DWIDTH 7 0
BBX 7 13 0 -2
BITMAP
00
10
08
00
42
42
42
84
84
84
78
00
00
ENDCHAR
STARTCHAR Uacute
ENCODING 218
SWIDTH 497 0
DWIDTH 7 0
BBX 7 13 0 -2
BITMAP
00
08
10
00
42
42
42
84
84
84
78
00
00
ENDCHAR
STARTCHAR Ucircumflex
ENCODING 219
SWIDTH 497 0
DWIDTH 7 0
BBX 7 13 0 -2
BITMAP
00
18
24
00
42
42
42
84
84
84
78
00
00
ENDCHAR
STARTCHAR Udieresis
ENCODING 220
SWIDTH 497 0
DWIDTH 7 0
BBX 7 13 0 -2
BITMAP
00
24
24
00
42
42
42
84
84
84
78
00
00
ENDCHAR
STARTCHAR Yacute
ENCODING 221
SWIDTH 497 0
DWIDTH 7 0
BBX 7 13 0 -2
BITMAP
00
08
10
00
44
44
28
10
10
20
20
00
00
ENDCHAR
STARTCHAR Thorn
ENCODING 222
SWIDTH 497 0
DWIDTH 7 0
BBX 7 13 0 -2
BITMAP
00
00
40
7C
42
42
42
7C
80
80
80
00
00
ENDCHAR
STARTCHAR germandbls
ENCODING 223
SWIDTH 497 0
DWIDTH 7 0
BBX 7 13 0 -2
BITMAP
00
00
18
24
24
28
28
48
44
44
58
00
00
ENDCHAR
STARTCHAR agrave
ENCODING 224
SWIDTH 497 0
DWIDTH 7 0
BBX 7 13 0 -2
BITMAP
00
00
10
08
00
3C
02
7C
84
8C
74
00
00
ENDCHAR
STARTCHAR aacute
ENCODING 225
SWIDTH 497 0
DWIDTH 7 0
BBX 7 13 0 -2
BITMAP
00
00
08
10
00
3C
02
7C
84
8C
74
00
00
ENDCHAR
STARTCHAR acircumflex
ENCODING 226
SWIDTH 497 0
DWIDTH 7 0
BBX 7 13 0 -2
BITMAP
00
00
18
24
00
3C
02
7C
84
8C
74
00
00
ENDCHAR
STARTCHAR atilde
ENCODING 227
SWIDTH 497 0
DWIDTH 7 0
BBX 7 13 0 -2
BITMAP
00
00
32
4C
00
3C
02
7C
84
8C
74
00
00
ENDCHAR
STARTCHAR adieresis
ENCODING 228
SWIDTH 497 0
DWIDTH 7 0
BBX 7 13 0 -2
BITMAP
00
00
24
24
00
3C
02
7C
84
8C
74
00
00
ENDCHAR
STARTCHAR aring
ENCODING 229
SWIDTH 497 0
DWIDTH 7 0
BBX 7 13 0 -2
BITMAP
00
18
24
18
00
3C
02
7C
84
8C
74
00
00
ENDCHAR
STARTCHAR ae
ENCODING 230
SWIDTH 497 0
DWIDTH 7 0
BBX 7 13 0 -2
BITMAP
00
00
00
00
00
34
0A
7C
90
94
68
00
00
ENDCHAR
STARTCHAR ccedilla
ENCODING 231
SWIDTH 497 0
DWIDTH 7 0
BBX 7 13 0 -2
BITMAP
00
00
00
00
00
3C
42
80
80
84
78
10
20
ENDCHAR
STARTCHAR egrave
ENCODING 232
SWIDTH 497 0
DWIDTH 7 0
BBX 7 13 0 -2
BITMAP
00
00
10
08
00
3C
42
7C
80
84
78
00
00
ENDCHAR
STARTCHAR eacute
ENCODING 233
SWIDTH 497 0
DWIDTH 7 0
BBX 7 13 0 -2
BITMAP
00
00
08
10
00
3C
42
7C
80
84
78
00
00
ENDCHAR
STARTCHAR ecircumflex
ENCODING 234
SWIDTH 497 0
DWIDTH 7 0
BBX 7 13 0 -2
BITMAP
00
00
18
24
00
3C
42
7C
80
84
78
00
00
ENDCHAR
STARTCHAR edieresis
ENCODING 235
SWIDTH 497 0
DWIDTH 7 0
BBX 7 13 0 -2
BITMAP
00
00
24
24
00
3C
42
7C
80
84
78
00
00
ENDCHAR
STARTCHAR igrave
ENCODING 236
SWIDTH 497 0
DWIDTH 7 0
BBX 7 13 0 -2
BITMAP
00
00
10
08
00
18
08
10
10
10
7C
00
00
ENDCHAR
STARTCHAR iacute
ENCODING 237
SWIDTH 497 0
DWIDTH 7 0
BBX 7 13 0 -2
BITMAP
00
00
08
10
00
18
08
10
10
10
7C
00
00
ENDCHAR
STARTCHAR icircumflex
ENCODING 238
SWIDTH 497 0
DWIDTH 7 0
BBX 7 13 0 -2
BITMAP
00
00
18
24
00
18
08
10
10
10
7C
00
00
ENDCHAR
STARTCHAR idieresis
ENCODING 239
SWIDTH 497 0
DWIDTH 7 0
BBX 7 13 0 -2
BITMAP
00
00
24
24
00
18
08
10
10
10
7C
00
00
ENDCHAR
STARTCHAR eth
ENCODING 240
SWIDTH 497 0
DWIDTH 7 0
BBX 7 13 0 -2
BITMAP
00
24
18
28
04
3C
42
42
84
84
78
00
00
ENDCHAR
STARTCHAR ntilde
ENCODING 241
SWIDTH 497 0
DWIDTH 7 0
BBX 7 13 0 -2
BITMAP
00
00
32
4C
00
5C
62
42
84
84
84
00
00
ENDCHAR
STARTCHAR ograve
ENCODING 242
SWIDTH 497 0
DWIDTH 7 0
BBX 7 13 0 -2
BITMAP
00
00
10
08
00
3C
42
42
84
84
78
00
00
ENDCHAR
STARTCHAR oacute
ENCODING 243
SWIDTH 497 0
DWIDTH 7 0
BBX 7 13 0 -2
BITMAP
00
00
08
10
00
3C
42
42
84
84
78
00
00
ENDCHAR
STARTCHAR ocircumflex
ENCODING 244
SWIDTH 497 0
DWIDTH 7 0
BBX 7 13 0 -2
BITMAP
00
00
18
24
00
3C
42
42
84
84
78
00
00
ENDCHAR
STARTCHAR otilde
ENCODING 245
SWIDTH 497 0
DWIDTH 7 0
BBX 7 13 0 -2
BITMAP
00
00
32
4C
00
3C
42
42
84
84
78
00
00
ENDCHAR
STARTCHAR odieresis
ENCODING 246
SWIDTH 497 0
DWIDTH 7 0
BBX 7 13 0 -2
BITMAP
00
00
24
24
00
3C
42
42
84
84
78
00
00
ENDCHAR
STARTCHAR divide
ENCODING 247
SWIDTH 497 0
DWIDTH 7 0
BBX 7 13 0 -2
BITMAP
00
00
00
10
10
00
78
00
20
20
00
00
00
ENDCHAR
STARTCHAR oslash
ENCODING 248
SWIDTH 497 0
DWIDTH 7 0
BBX 7 13 0 -2
BITMAP
00
00
00
00
02
3C
4A
52
A4
C4
78
80
00
ENDCHAR
STARTCHAR ugrave
ENCODING 249
SWIDTH 497 0
DWIDTH 7 0
BBX 7 13 0 -2
BITMAP
00
00
10
08
00
42
42
42
84
8C
74
00
00
ENDCHAR
STARTCHAR uacute
ENCODING 250
SWIDTH 497 0
DWIDTH 7 0
BBX 7 13 0 -2
BITMAP
00
00
08
10
00
42
42
42
84
8C
74
00
00
ENDCHAR
STARTCHAR ucircumflex
ENCODING 251
SWIDTH 497 0
DWIDTH 7 0
BBX 7 13 0 -2
BITMAP
00
00
18
24
00
42
42
42
84
8C
74
00
00
ENDCHAR
STARTCHAR udieresis
ENCODING 252
SWIDTH 497 0
DWIDTH 7 0
BBX 7 13 0 -2
BITMAP
00
00
24
24
00
42
42
42
84
8C
74
00
00
ENDCHAR
STARTCHAR yacute
ENCODING 253
SWIDTH 497 0
DWIDTH 7 0
BBX 7 13 0 -2
BITMAP
00
00
08
10
00
42
42
84
8C
74
04
84
78
ENDCHAR
STARTCHAR thorn
ENCODING 254
SWIDTH 497 0
DWIDTH 7 0
BBX 7 13 0 -2
BITMAP
00
00
00
40
40
5C
62
42
84
C4
B8
80
80
ENDCHAR
STARTCHAR ydieresis
ENCODING 255
SWIDTH 497 0
DWIDTH 7 0
BBX 7 13 0 -2
BITMAP
00
00
24
24
00
42
42
84
8C
74
04
84
78
ENDCHAR
ENDFONT
