STARTFONT 2.1
COMMENT AUTOMATICALLY GENERATED FILE. DO NOT EDIT!
COMMENT Generated with 'ucs2any.pl 9x18B.bdf ../../../fonts/util/map-ISO8859-1 ISO8859-1'
COMMENT from an ISO10646-1 encoded source BDF font.
COMMENT ucs2any.pl by Markus Kuhn <mkuhn@acm.org>, 2000.
COMMENT Id: 9x18B.bdf,v 1.11 2001-06-18 09:45:18+01 mgk25 Exp mgk25 $
COMMENT Send bug reports to Markus Kuhn <mkuhn@acm.org>
FONT -Misc-Fixed-Bold-R-Normal--18-120-100-100-C-90-ISO8859-1
SIZE 12 100 100
FONTBOUNDINGBOX 9 18 0 -4
STARTPROPERTIES 21
FONTNAME_REGISTRY ""
FOUNDRY "Misc"
FAMILY_NAME "Fixed"
WEIGHT_NAME "Bold"
SLANT "R"
SETWIDTH_NAME "Normal"
ADD_STYLE_NAME ""
PIXEL_SIZE 18
POINT_SIZE 120
RESOLUTION_X 100
RESOLUTION_Y 100
SPACING "C"
AVERAGE_WIDTH 90
CHARSET_REGISTRY "ISO8859"
CHARSET_ENCODING "1"
DEFAULT_CHAR 0
FONT_DESCENT 4
FONT_ASCENT 14
COPYRIGHT "Public domain font.  Share and enjoy."
CAP_HEIGHT 10
X_HEIGHT 7
ENDPROPERTIES
CHARS 223
STARTCHAR defaultchar
ENCODING 0
SWIDTH 540 0
DWIDTH 9 0
BBX 9 18 0 -4
BITMAP
0000
0000
0000
0000
6D00
0100
4000
4100
0100
4000
4100
0100
4000
5B00
0000
0000
0000
0000
ENDCHAR
STARTCHAR uni25C6
ENCODING 1
SWIDTH 540 0
DWIDTH 9 0
BBX 9 18 0 -4
BITMAP
0000
0000
0000
0000
0000
0800
1C00
3E00
7F00
FF80
7F00
3E00
1C00
0800
0000
0000
0000
0000
ENDCHAR
STARTCHAR shade
ENCODING 2
SWIDTH 540 0
DWIDTH 9 0
BBX 9 18 0 -4
BITMAP
AA80
5500
AA80
5500
AA80
5500
AA80
5500
AA80
5500
AA80
5500
AA80
5500
AA80
5500
AA80
5500
ENDCHAR
STARTCHAR uni2409
ENCODING 3
SWIDTH 540 0
DWIDTH 9 0
BBX 9 18 0 -4
BITMAP
0000
0000
0000
0000
D800
D800
F800
D800
D800
0F00
0600
0600
0600
0600
0000
0000
0000
0000
ENDCHAR
STARTCHAR uni240C
ENCODING 4
SWIDTH 540 0
DWIDTH 9 0
BBX 9 18 0 -4
BITMAP
0000
0000
0000
0000
F000
C000
E000
C000
C000
0F00
0C00
0E00
0C00
0C00
0000
0000
0000
0000
ENDCHAR
STARTCHAR uni240D
ENCODING 5
SWIDTH 540 0
DWIDTH 9 0
BBX 9 18 0 -4
BITMAP
0000
0000
0000
0000
7000
C000
C000
C000
7000
1E00
1B00
1E00
1B00
1B00
0000
0000
0000
0000
ENDCHAR
STARTCHAR uni240A
ENCODING 6
SWIDTH 540 0
DWIDTH 9 0
BBX 9 18 0 -4
BITMAP
0000
0000
0000
0000
C000
C000
C000
C000
F000
0F00
0C00
0E00
0C00
0C00
0000
0000
0000
0000
ENDCHAR
STARTCHAR degree
ENCODING 7
SWIDTH 540 0
DWIDTH 9 0
BBX 9 18 0 -4
BITMAP
0000
0000
3800
6C00
6C00
3800
0000
0000
0000
0000
0000
0000
0000
0000
0000
0000
0000
0000
ENDCHAR
STARTCHAR plusminus
ENCODING 8
SWIDTH 540 0
DWIDTH 9 0
BBX 9 18 0 -4
BITMAP
0000
0000
0000
0000
1800
1800
1800
7E00
1800
1800
1800
0000
7E00
0000
0000
0000
0000
0000
ENDCHAR
STARTCHAR uni2424
ENCODING 9
SWIDTH 540 0
DWIDTH 9 0
BBX 9 18 0 -4
BITMAP
0000
0000
0000
F000
D800
D800
D800
D800
0000
1800
1800
1800
1800
1F00
0000
0000
0000
0000
ENDCHAR
STARTCHAR uni240B
ENCODING 10
SWIDTH 540 0
DWIDTH 9 0
BBX 9 18 0 -4
BITMAP
0000
0000
0000
0000
D800
D800
D800
7000
2000
0F00
0600
0600
0600
0600
0000
0000
0000
0000
ENDCHAR
STARTCHAR SF040000
ENCODING 11
SWIDTH 540 0
DWIDTH 9 0
BBX 9 18 0 -4
BITMAP
0C00
0C00
0C00
0C00
0C00
0C00
0C00
0C00
FC00
FC00
0000
0000
0000
0000
0000
0000
0000
0000
ENDCHAR
STARTCHAR SF030000
ENCODING 12
SWIDTH 540 0
DWIDTH 9 0
BBX 9 18 0 -4
BITMAP
0000
0000
0000
0000
0000
0000
0000
0000
FC00
FC00
0C00
0C00
0C00
0C00
0C00
0C00
0C00
0C00
ENDCHAR
STARTCHAR SF010000
ENCODING 13
SWIDTH 540 0
DWIDTH 9 0
BBX 9 18 0 -4
BITMAP
0000
0000
0000
0000
0000
0000
0000
0000
0F80
0F80
0C00
0C00
0C00
0C00
0C00
0C00
0C00
0C00
ENDCHAR
STARTCHAR SF020000
ENCODING 14
SWIDTH 540 0
DWIDTH 9 0
BBX 9 18 0 -4
BITMAP
0C00
0C00
0C00
0C00
0C00
0C00
0C00
0C00
0F80
0F80
0000
0000
0000
0000
0000
0000
0000
0000
ENDCHAR
STARTCHAR SF050000
ENCODING 15
SWIDTH 540 0
DWIDTH 9 0
BBX 9 18 0 -4
BITMAP
0C00
0C00
0C00
0C00
0C00
0C00
0C00
0C00
FF80
FF80
0C00
0C00
0C00
0C00
0C00
0C00
0C00
0C00
ENDCHAR
STARTCHAR uni23BA
ENCODING 16
SWIDTH 540 0
DWIDTH 9 0
BBX 9 18 0 -4
BITMAP
FF80
FF80
0000
0000
0000
0000
0000
0000
0000
0000
0000
0000
0000
0000
0000
0000
0000
0000
ENDCHAR
STARTCHAR uni23BB
ENCODING 17
SWIDTH 540 0
DWIDTH 9 0
BBX 9 18 0 -4
BITMAP
0000
0000
0000
0000
FF80
FF80
0000
0000
0000
0000
0000
0000
0000
0000
0000
0000
0000
0000
ENDCHAR
STARTCHAR SF100000
ENCODING 18
SWIDTH 540 0
DWIDTH 9 0
BBX 9 18 0 -4
BITMAP
0000
0000
0000
0000
0000
0000
0000
0000
FF80
FF80
0000
0000
0000
0000
0000
0000
0000
0000
ENDCHAR
STARTCHAR uni23BC
ENCODING 19
SWIDTH 540 0
DWIDTH 9 0
BBX 9 18 0 -4
BITMAP
0000
0000
0000
0000
0000
0000
0000
0000
0000
0000
0000
0000
FF80
FF80
0000
0000
0000
0000
ENDCHAR
STARTCHAR uni23BD
ENCODING 20
SWIDTH 540 0
DWIDTH 9 0
BBX 9 18 0 -4
BITMAP
0000
0000
0000
0000
0000
0000
0000
0000
0000
0000
0000
0000
0000
0000
0000
0000
FF80
FF80
ENDCHAR
STARTCHAR SF080000
ENCODING 21
SWIDTH 540 0
DWIDTH 9 0
BBX 9 18 0 -4
BITMAP
0C00
0C00
0C00
0C00
0C00
0C00
0C00
0C00
0F80
0F80
0C00
0C00
0C00
0C00
0C00
0C00
0C00
0C00
ENDCHAR
STARTCHAR SF090000
ENCODING 22
SWIDTH 540 0
DWIDTH 9 0
BBX 9 18 0 -4
BITMAP
0C00
0C00
0C00
0C00
0C00
0C00
0C00
0C00
FC00
FC00
0C00
0C00
0C00
0C00
0C00
0C00
0C00
0C00
ENDCHAR
STARTCHAR SF070000
ENCODING 23
SWIDTH 540 0
DWIDTH 9 0
BBX 9 18 0 -4
BITMAP
0C00
0C00
0C00
0C00
0C00
0C00
0C00
0C00
FF80
FF80
0000
0000
0000
0000
0000
0000
0000
0000
ENDCHAR
STARTCHAR SF060000
ENCODING 24
SWIDTH 540 0
DWIDTH 9 0
BBX 9 18 0 -4
BITMAP
0000
0000
0000
0000
0000
0000
0000
0000
FF80
FF80
0C00
0C00
0C00
0C00
0C00
0C00
0C00
0C00
ENDCHAR
STARTCHAR SF110000
ENCODING 25
SWIDTH 540 0
DWIDTH 9 0
BBX 9 18 0 -4
BITMAP
0C00
0C00
0C00
0C00
0C00
0C00
0C00
0C00
0C00
0C00
0C00
0C00
0C00
0C00
0C00
0C00
0C00
0C00
ENDCHAR
STARTCHAR lessequal
ENCODING 26
SWIDTH 540 0
DWIDTH 9 0
BBX 9 18 0 -4
BITMAP
0000
0000
0000
0000
0600
0C00
1800
3000
6000
3000
1800
0C00
0600
0000
7E00
0000
0000
0000
ENDCHAR
STARTCHAR greaterequal
ENCODING 27
SWIDTH 540 0
DWIDTH 9 0
BBX 9 18 0 -4
BITMAP
0000
0000
0000
0000
6000
3000
1800
0C00
0600
0C00
1800
3000
6000
0000
7E00
0000
0000
0000
ENDCHAR
STARTCHAR pi
ENCODING 28
SWIDTH 540 0
DWIDTH 9 0
BBX 9 18 0 -4
BITMAP
0000
0000
0000
0000
0000
0000
0000
7F00
3600
3600
3600
3600
3600
3600
0000
0000
0000
0000
ENDCHAR
STARTCHAR notequal
ENCODING 29
SWIDTH 540 0
DWIDTH 9 0
BBX 9 18 0 -4
BITMAP
0000
0000
0000
0000
0000
0000
0000
0600
7F00
0C00
1800
7F00
3000
0000
0000
0000
0000
0000
ENDCHAR
STARTCHAR sterling
ENCODING 30
SWIDTH 540 0
DWIDTH 9 0
BBX 9 18 0 -4
BITMAP
0000
0000
0000
0000
0000
1E00
3300
3000
3000
7C00
3000
3000
F800
BF00
E000
0000
0000
0000
ENDCHAR
STARTCHAR periodcentered
ENCODING 31
SWIDTH 540 0
DWIDTH 9 0
BBX 9 18 0 -4
BITMAP
0000
0000
0000
0000
0000
0000
0000
0000
1C00
1C00
0000
0000
0000
0000
0000
0000
0000
0000
ENDCHAR
STARTCHAR space
ENCODING 32
SWIDTH 540 0
DWIDTH 9 0
BBX 9 18 0 -4
BITMAP
0000
0000
0000
0000
0000
0000
0000
0000
0000
0000
0000
0000
0000
0000
0000
0000
0000
0000
ENDCHAR
STARTCHAR exclam
ENCODING 33
SWIDTH 540 0
DWIDTH 9 0
BBX 9 18 0 -4
BITMAP
0000
0000
0000
1800
1800
1800
1800
1800
1800
1800
0000
0000
1800
1800
0000
0000
0000
0000
ENDCHAR
STARTCHAR quotedbl
ENCODING 34
SWIDTH 540 0
DWIDTH 9 0
BBX 9 18 0 -4
BITMAP
0000
0000
0000
3600
3600
3600
3600
0000
0000
0000
0000
0000
0000
0000
0000
0000
0000
0000
ENDCHAR
STARTCHAR numbersign
ENCODING 35
SWIDTH 540 0
DWIDTH 9 0
BBX 9 18 0 -4
BITMAP
0000
0000
0000
0000
3600
3600
3600
7F00
3600
3600
7F00
3600
3600
3600
0000
0000
0000
0000
ENDCHAR
STARTCHAR dollar
ENCODING 36
SWIDTH 540 0
DWIDTH 9 0
BBX 9 18 0 -4
BITMAP
0000
0000
0000
0000
1800
7E00
DB00
D800
7800
3C00
1E00
1B00
DB00
7E00
1800
0000
0000
0000
ENDCHAR
STARTCHAR percent
ENCODING 37
SWIDTH 540 0
DWIDTH 9 0
BBX 9 18 0 -4
BITMAP
0000
0000
0000
0000
7300
DE00
DE00
6C00
1800
1800
3600
7B00
7B00
CE00
0000
0000
0000
0000
ENDCHAR
STARTCHAR ampersand
ENCODING 38
SWIDTH 540 0
DWIDTH 9 0
BBX 9 18 0 -4
BITMAP
0000
0000
0000
0000
7000
D800
D800
D800
7000
7300
DE00
CC00
DE00
7300
0000
0000
0000
0000
ENDCHAR
STARTCHAR quotesingle
ENCODING 39
SWIDTH 540 0
DWIDTH 9 0
BBX 9 18 0 -4
BITMAP
0000
0000
0000
1800
1800
1800
1800
0000
0000
0000
0000
0000
0000
0000
0000
0000
0000
0000
ENDCHAR
STARTCHAR parenleft
ENCODING 40
SWIDTH 540 0
DWIDTH 9 0
BBX 9 18 0 -4
BITMAP
0000
0000
0000
0C00
1800
1800
3000
3000
3000
3000
3000
3000
1800
1800
0C00
0000
0000
0000
ENDCHAR
STARTCHAR parenright
ENCODING 41
SWIDTH 540 0
DWIDTH 9 0
BBX 9 18 0 -4
BITMAP
0000
0000
0000
3000
1800
1800
0C00
0C00
0C00
0C00
0C00
0C00
1800
1800
3000
0000
0000
0000
ENDCHAR
STARTCHAR asterisk
ENCODING 42
SWIDTH 540 0
DWIDTH 9 0
BBX 9 18 0 -4
BITMAP
0000
0000
0000
0000
0000
0000
1800
DB00
7E00
3C00
7E00
DB00
1800
0000
0000
0000
0000
0000
ENDCHAR
STARTCHAR plus
ENCODING 43
SWIDTH 540 0
DWIDTH 9 0
BBX 9 18 0 -4
BITMAP
0000
0000
0000
0000
0000
0000
1800
1800
1800
FF00
1800
1800
1800
0000
0000
0000
0000
0000
ENDCHAR
STARTCHAR comma
ENCODING 44
SWIDTH 540 0
DWIDTH 9 0
BBX 9 18 0 -4
BITMAP
0000
0000
0000
0000
0000
0000
0000
0000
0000
0000
0000
0000
1C00
1C00
0C00
1800
0000
0000
ENDCHAR
STARTCHAR hyphen
ENCODING 45
SWIDTH 540 0
DWIDTH 9 0
BBX 9 18 0 -4
BITMAP
0000
0000
0000
0000
0000
0000
0000
0000
0000
7F00
0000
0000
0000
0000
0000
0000
0000
0000
ENDCHAR
STARTCHAR period
ENCODING 46
SWIDTH 540 0
DWIDTH 9 0
BBX 9 18 0 -4
BITMAP
0000
0000
0000
0000
0000
0000
0000
0000
0000
0000
0000
0000
1C00
1C00
0000
0000
0000
0000
ENDCHAR
STARTCHAR slash
ENCODING 47
SWIDTH 540 0
DWIDTH 9 0
BBX 9 18 0 -4
BITMAP
0000
0000
0000
0000
0300
0600
0600
0C00
1800
1800
3000
6000
6000
C000
0000
0000
0000
0000
ENDCHAR
STARTCHAR zero
ENCODING 48
SWIDTH 540 0
DWIDTH 9 0
BBX 9 18 0 -4
BITMAP
0000
0000
0000
0000
1C00
3600
6300
6300
6300
6300
6300
6300
3600
1C00
0000
0000
0000
0000
ENDCHAR
STARTCHAR one
ENCODING 49
SWIDTH 540 0
DWIDTH 9 0
BBX 9 18 0 -4
BITMAP
0000
0000
0000
0000
1800
3800
7800
D800
1800
1800
1800
1800
1800
FF00
0000
0000
0000
0000
ENDCHAR
STARTCHAR two
ENCODING 50
SWIDTH 540 0
DWIDTH 9 0
BBX 9 18 0 -4
BITMAP
0000
0000
0000
0000
1C00
3600
6300
0300
0300
0600
0C00
1800
3000
7F00
0000
0000
0000
0000
ENDCHAR
STARTCHAR three
ENCODING 51
SWIDTH 540 0
DWIDTH 9 0
BBX 9 18 0 -4
BITMAP
0000
0000
0000
0000
7F00
0300
0600
0C00
1C00
0600
0300
0300
6600
3C00
0000
0000
0000
0000
ENDCHAR
STARTCHAR four
ENCODING 52
SWIDTH 540 0
DWIDTH 9 0
BBX 9 18 0 -4
BITMAP
0000
0000
0000
0000
0600
0E00
1E00
3600
6600
6600
7F00
0600
0600
0600
0000
0000
0000
0000
ENDCHAR
STARTCHAR five
ENCODING 53
SWIDTH 540 0
DWIDTH 9 0
BBX 9 18 0 -4
BITMAP
0000
0000
0000
0000
7F00
6000
6000
6000
7C00
0600
0300
0300
6600
3C00
0000
0000
0000
0000
ENDCHAR
STARTCHAR six
ENCODING 54
SWIDTH 540 0
DWIDTH 9 0
BBX 9 18 0 -4
BITMAP
0000
0000
0000
0000
1E00
3000
6000
6000
7C00
6600
6300
6300
3600
1C00
0000
0000
0000
0000
ENDCHAR
STARTCHAR seven
ENCODING 55
SWIDTH 540 0
DWIDTH 9 0
BBX 9 18 0 -4
BITMAP
0000
0000
0000
0000
7F00
0300
0600
0600
0C00
0C00
1800
1800
1800
1800
0000
0000
0000
0000
ENDCHAR
STARTCHAR eight
ENCODING 56
SWIDTH 540 0
DWIDTH 9 0
BBX 9 18 0 -4
BITMAP
0000
0000
0000
0000
1C00
3600
6300
3600
1C00
3600
6300
6300
3600
1C00
0000
0000
0000
0000
ENDCHAR
STARTCHAR nine
ENCODING 57
SWIDTH 540 0
DWIDTH 9 0
BBX 9 18 0 -4
BITMAP
0000
0000
0000
0000
1C00
3600
6300
6300
3700
1F00
0300
0300
0600
3C00
0000
0000
0000
0000
ENDCHAR
STARTCHAR colon
ENCODING 58
SWIDTH 540 0
DWIDTH 9 0
BBX 9 18 0 -4
BITMAP
0000
0000
0000
0000
0000
0000
0000
1C00
1C00
0000
0000
0000
1C00
1C00
0000
0000
0000
0000
ENDCHAR
STARTCHAR semicolon
ENCODING 59
SWIDTH 540 0
DWIDTH 9 0
BBX 9 18 0 -4
BITMAP
0000
0000
0000
0000
0000
0000
0000
1C00
1C00
0000
0000
0000
1C00
1C00
0C00
1800
0000
0000
ENDCHAR
STARTCHAR less
ENCODING 60
SWIDTH 540 0
DWIDTH 9 0
BBX 9 18 0 -4
BITMAP
0000
0000
0000
0000
0000
0600
0C00
1800
3000
6000
3000
1800
0C00
0600
0000
0000
0000
0000
ENDCHAR
STARTCHAR equal
ENCODING 61
SWIDTH 540 0
DWIDTH 9 0
BBX 9 18 0 -4
BITMAP
0000
0000
0000
0000
0000
0000
0000
0000
7F00
0000
0000
7F00
0000
0000
0000
0000
0000
0000
ENDCHAR
STARTCHAR greater
ENCODING 62
SWIDTH 540 0
DWIDTH 9 0
BBX 9 18 0 -4
BITMAP
0000
0000
0000
0000
0000
6000
3000
1800
0C00
0600
0C00
1800
3000
6000
0000
0000
0000
0000
ENDCHAR
STARTCHAR question
ENCODING 63
SWIDTH 540 0
DWIDTH 9 0
BBX 9 18 0 -4
BITMAP
0000
0000
0000
0000
1C00
3600
6300
0300
0600
0C00
1800
1800
0000
1800
0000
0000
0000
0000
ENDCHAR
STARTCHAR at
ENCODING 64
SWIDTH 540 0
DWIDTH 9 0
BBX 9 18 0 -4
BITMAP
0000
0000
0000
0000
3E00
6300
CD80
D580
D580
D580
D580
CF00
6000
3E00
0000
0000
0000
0000
ENDCHAR
STARTCHAR A
ENCODING 65
SWIDTH 540 0
DWIDTH 9 0
BBX 9 18 0 -4
BITMAP
0000
0000
0000
0000
0800
1C00
1C00
1C00
3600
3E00
3600
6300
6300
6300
0000
0000
0000
0000
ENDCHAR
STARTCHAR B
ENCODING 66
SWIDTH 540 0
DWIDTH 9 0
BBX 9 18 0 -4
BITMAP
0000
0000
0000
0000
7E00
6300
6300
6300
7E00
6300
6300
6300
6300
7E00
0000
0000
0000
0000
ENDCHAR
STARTCHAR C
ENCODING 67
SWIDTH 540 0
DWIDTH 9 0
BBX 9 18 0 -4
BITMAP
0000
0000
0000
0000
1E00
3300
6000
6000
6000
6000
6000
6000
3300
1E00
0000
0000
0000
0000
ENDCHAR
STARTCHAR D
ENCODING 68
SWIDTH 540 0
DWIDTH 9 0
BBX 9 18 0 -4
BITMAP
0000
0000
0000
0000
7C00
6600
6300
6300
6300
6300
6300
6300
6600
7C00
0000
0000
0000
0000
ENDCHAR
STARTCHAR E
ENCODING 69
SWIDTH 540 0
DWIDTH 9 0
BBX 9 18 0 -4
BITMAP
0000
0000
0000
0000
7F00
6000
6000
6000
7C00
6000
6000
6000
6000
7F00
0000
0000
0000
0000
ENDCHAR
STARTCHAR F
ENCODING 70
SWIDTH 540 0
DWIDTH 9 0
BBX 9 18 0 -4
BITMAP
0000
0000
0000
0000
7F00
6000
6000
6000
7C00
6000
6000
6000
6000
6000
0000
0000
0000
0000
ENDCHAR
STARTCHAR G
ENCODING 71
SWIDTH 540 0
DWIDTH 9 0
BBX 9 18 0 -4
BITMAP
0000
0000
0000
0000
1C00
3600
6300
6000
6000
6700
6300
6300
3600
1C00
0000
0000
0000
0000
ENDCHAR
STARTCHAR H
ENCODING 72
SWIDTH 540 0
DWIDTH 9 0
BBX 9 18 0 -4
BITMAP
0000
0000
0000
0000
6300
6300
6300
6300
7F00
6300
6300
6300
6300
6300
0000
0000
0000
0000
ENDCHAR
STARTCHAR I
ENCODING 73
SWIDTH 540 0
DWIDTH 9 0
BBX 9 18 0 -4
BITMAP
0000
0000
0000
0000
7E00
1800
1800
1800
1800
1800
1800
1800
1800
7E00
0000
0000
0000
0000
ENDCHAR
STARTCHAR J
ENCODING 74
SWIDTH 540 0
DWIDTH 9 0
BBX 9 18 0 -4
BITMAP
0000
0000
0000
0000
0F00
0600
0600
0600
0600
0600
0600
6600
6600
3C00
0000
0000
0000
0000
ENDCHAR
STARTCHAR K
ENCODING 75
SWIDTH 540 0
DWIDTH 9 0
BBX 9 18 0 -4
BITMAP
0000
0000
0000
0000
6300
6600
6C00
7800
7000
7800
6C00
6600
6300
6300
0000
0000
0000
0000
ENDCHAR
STARTCHAR L
ENCODING 76
SWIDTH 540 0
DWIDTH 9 0
BBX 9 18 0 -4
BITMAP
0000
0000
0000
0000
6000
6000
6000
6000
6000
6000
6000
6000
6000
7F00
0000
0000
0000
0000
ENDCHAR
STARTCHAR M
ENCODING 77
SWIDTH 540 0
DWIDTH 9 0
BBX 9 18 0 -4
BITMAP
0000
0000
0000
0000
6300
7700
7F00
6B00
6300
6300
6300
6300
6300
6300
0000
0000
0000
0000
ENDCHAR
STARTCHAR N
ENCODING 78
SWIDTH 540 0
DWIDTH 9 0
BBX 9 18 0 -4
BITMAP
0000
0000
0000
0000
6300
6300
7300
7B00
6F00
6700
6300
6300
6300
6300
0000
0000
0000
0000
ENDCHAR
STARTCHAR O
ENCODING 79
SWIDTH 540 0
DWIDTH 9 0
BBX 9 18 0 -4
BITMAP
0000
0000
0000
0000
3E00
6300
6300
6300
6300
6300
6300
6300
6300
3E00
0000
0000
0000
0000
ENDCHAR
STARTCHAR P
ENCODING 80
SWIDTH 540 0
DWIDTH 9 0
BBX 9 18 0 -4
BITMAP
0000
0000
0000
0000
7C00
6600
6300
6300
6600
7C00
6000
6000
6000
6000
0000
0000
0000
0000
ENDCHAR
STARTCHAR Q
ENCODING 81
SWIDTH 540 0
DWIDTH 9 0
BBX 9 18 0 -4
BITMAP
0000
0000
0000
0000
1C00
3600
6300
6300
6300
6300
6300
6F00
3600
1F00
0180
0000
0000
0000
ENDCHAR
STARTCHAR R
ENCODING 82
SWIDTH 540 0
DWIDTH 9 0
BBX 9 18 0 -4
BITMAP
0000
0000
0000
0000
7E00
6300
6300
6300
6300
7E00
6C00
6600
6300
6300
0000
0000
0000
0000
ENDCHAR
STARTCHAR S
ENCODING 83
SWIDTH 540 0
DWIDTH 9 0
BBX 9 18 0 -4
BITMAP
0000
0000
0000
0000
3E00
6300
6000
6000
3E00
0300
0300
0300
6300
3E00
0000
0000
0000
0000
ENDCHAR
STARTCHAR T
ENCODING 84
SWIDTH 540 0
DWIDTH 9 0
BBX 9 18 0 -4
BITMAP
0000
0000
0000
0000
7E00
1800
1800
1800
1800
1800
1800
1800
1800
1800
0000
0000
0000
0000
ENDCHAR
STARTCHAR U
ENCODING 85
SWIDTH 540 0
DWIDTH 9 0
BBX 9 18 0 -4
BITMAP
0000
0000
0000
0000
6300
6300
6300
6300
6300
6300
6300
6300
3600
1C00
0000
0000
0000
0000
ENDCHAR
STARTCHAR V
ENCODING 86
SWIDTH 540 0
DWIDTH 9 0
BBX 9 18 0 -4
BITMAP
0000
0000
0000
0000
6300
6300
6300
3600
3600
3600
1C00
1C00
1C00
0800
0000
0000
0000
0000
ENDCHAR
STARTCHAR W
ENCODING 87
SWIDTH 540 0
DWIDTH 9 0
BBX 9 18 0 -4
BITMAP
0000
0000
0000
0000
6300
6300
6300
6300
6B00
6B00
6B00
7F00
7700
2200
0000
0000
0000
0000
ENDCHAR
STARTCHAR X
ENCODING 88
SWIDTH 540 0
DWIDTH 9 0
BBX 9 18 0 -4
BITMAP
0000
0000
0000
0000
6300
6300
3600
1C00
0800
0800
1C00
3600
6300
6300
0000
0000
0000
0000
ENDCHAR
STARTCHAR Y
ENCODING 89
SWIDTH 540 0
DWIDTH 9 0
BBX 9 18 0 -4
BITMAP
0000
0000
0000
0000
C300
C300
6600
3C00
1800
1800
1800
1800
1800
1800
0000
0000
0000
0000
ENDCHAR
STARTCHAR Z
ENCODING 90
SWIDTH 540 0
DWIDTH 9 0
BBX 9 18 0 -4
BITMAP
0000
0000
0000
0000
7F00
0300
0300
0600
0C00
1800
3000
6000
6000
7F00
0000
0000
0000
0000
ENDCHAR
STARTCHAR bracketleft
ENCODING 91
SWIDTH 540 0
DWIDTH 9 0
BBX 9 18 0 -4
BITMAP
0000
0000
0000
3E00
3000
3000
3000
3000
3000
3000
3000
3000
3000
3000
3E00
0000
0000
0000
ENDCHAR
STARTCHAR backslash
ENCODING 92
SWIDTH 540 0
DWIDTH 9 0
BBX 9 18 0 -4
BITMAP
0000
0000
0000
0000
C000
6000
6000
3000
1800
1800
0C00
0600
0600
0300
0000
0000
0000
0000
ENDCHAR
STARTCHAR bracketright
ENCODING 93
SWIDTH 540 0
DWIDTH 9 0
BBX 9 18 0 -4
BITMAP
0000
0000
0000
3C00
0C00
0C00
0C00
0C00
0C00
0C00
0C00
0C00
0C00
0C00
3C00
0000
0000
0000
ENDCHAR
STARTCHAR asciicircum
ENCODING 94
SWIDTH 540 0
DWIDTH 9 0
BBX 9 18 0 -4
BITMAP
0000
0000
0000
0000
1800
3C00
6600
C300
0000
0000
0000
0000
0000
0000
0000
0000
0000
0000
ENDCHAR
STARTCHAR underscore
ENCODING 95
SWIDTH 540 0
DWIDTH 9 0
BBX 9 18 0 -4
BITMAP
0000
0000
0000
0000
0000
0000
0000
0000
0000
0000
0000
0000
0000
0000
FF00
0000
0000
0000
ENDCHAR
STARTCHAR grave
ENCODING 96
SWIDTH 540 0
DWIDTH 9 0
BBX 9 18 0 -4
BITMAP
0000
3000
1800
0C00
0000
0000
0000
0000
0000
0000
0000
0000
0000
0000
0000
0000
0000
0000
ENDCHAR
STARTCHAR a
ENCODING 97
SWIDTH 540 0
DWIDTH 9 0
BBX 9 18 0 -4
BITMAP
0000
0000
0000
0000
0000
0000
0000
3E00
0300
0300
3F00
6300
6300
3F00
0000
0000
0000
0000
ENDCHAR
STARTCHAR b
ENCODING 98
SWIDTH 540 0
DWIDTH 9 0
BBX 9 18 0 -4
BITMAP
0000
0000
0000
0000
6000
6000
6000
7E00
6300
6300
6300
6300
6300
7E00
0000
0000
0000
0000
ENDCHAR
STARTCHAR c
ENCODING 99
SWIDTH 540 0
DWIDTH 9 0
BBX 9 18 0 -4
BITMAP
0000
0000
0000
0000
0000
0000
0000
3E00
6300
6000
6000
6000
6300
3E00
0000
0000
0000
0000
ENDCHAR
STARTCHAR d
ENCODING 100
SWIDTH 540 0
DWIDTH 9 0
BBX 9 18 0 -4
BITMAP
0000
0000
0000
0000
0300
0300
0300
3F00
6300
6300
6300
6300
6300
3F00
0000
0000
0000
0000
ENDCHAR
STARTCHAR e
ENCODING 101
SWIDTH 540 0
DWIDTH 9 0
BBX 9 18 0 -4
BITMAP
0000
0000
0000
0000
0000
0000
0000
3E00
6300
6300
7F00
6000
6300
3E00
0000
0000
0000
0000
ENDCHAR
STARTCHAR f
ENCODING 102
SWIDTH 540 0
DWIDTH 9 0
BBX 9 18 0 -4
BITMAP
0000
0000
0000
0000
1C00
3600
3600
3000
3000
7800
3000
3000
3000
3000
0000
0000
0000
0000
ENDCHAR
STARTCHAR g
ENCODING 103
SWIDTH 540 0
DWIDTH 9 0
BBX 9 18 0 -4
BITMAP
0000
0000
0000
0000
0000
0000
0000
3F00
6600
6600
6600
3C00
6000
3E00
6300
6300
3E00
0000
ENDCHAR
STARTCHAR h
ENCODING 104
SWIDTH 540 0
DWIDTH 9 0
BBX 9 18 0 -4
BITMAP
0000
0000
0000
0000
6000
6000
6000
7E00
6300
6300
6300
6300
6300
6300
0000
0000
0000
0000
ENDCHAR
STARTCHAR i
ENCODING 105
SWIDTH 540 0
DWIDTH 9 0
BBX 9 18 0 -4
BITMAP
0000
0000
0000
0000
1800
1800
0000
7800
1800
1800
1800
1800
1800
7E00
0000
0000
0000
0000
ENDCHAR
STARTCHAR j
ENCODING 106
SWIDTH 540 0
DWIDTH 9 0
BBX 9 18 0 -4
BITMAP
0000
0000
0000
0000
0600
0600
0000
0E00
0600
0600
0600
0600
0600
0600
3600
3600
1C00
0000
ENDCHAR
STARTCHAR k
ENCODING 107
SWIDTH 540 0
DWIDTH 9 0
BBX 9 18 0 -4
BITMAP
0000
0000
0000
0000
6000
6000
6000
6600
6C00
7800
7800
6C00
6600
6300
0000
0000
0000
0000
ENDCHAR
STARTCHAR l
ENCODING 108
SWIDTH 540 0
DWIDTH 9 0
BBX 9 18 0 -4
BITMAP
0000
0000
0000
0000
7800
1800
1800
1800
1800
1800
1800
1800
1800
7E00
0000
0000
0000
0000
ENDCHAR
STARTCHAR m
ENCODING 109
SWIDTH 540 0
DWIDTH 9 0
BBX 9 18 0 -4
BITMAP
0000
0000
0000
0000
0000
0000
0000
FE00
DB00
DB00
DB00
DB00
DB00
C300
0000
0000
0000
0000
ENDCHAR
STARTCHAR n
ENCODING 110
SWIDTH 540 0
DWIDTH 9 0
BBX 9 18 0 -4
BITMAP
0000
0000
0000
0000
0000
0000
0000
6E00
7300
6300
6300
6300
6300
6300
0000
0000
0000
0000
ENDCHAR
STARTCHAR o
ENCODING 111
SWIDTH 540 0
DWIDTH 9 0
BBX 9 18 0 -4
BITMAP
0000
0000
0000
0000
0000
0000
0000
1C00
3600
6300
6300
6300
3600
1C00
0000
0000
0000
0000
ENDCHAR
STARTCHAR p
ENCODING 112
SWIDTH 540 0
DWIDTH 9 0
BBX 9 18 0 -4
BITMAP
0000
0000
0000
0000
0000
0000
0000
7C00
6600
6300
6300
6300
6600
7C00
6000
6000
6000
0000
ENDCHAR
STARTCHAR q
ENCODING 113
SWIDTH 540 0
DWIDTH 9 0
BBX 9 18 0 -4
BITMAP
0000
0000
0000
0000
0000
0000
0000
1F00
3300
6300
6300
6300
3300
1F00
0300
0300
0300
0000
ENDCHAR
STARTCHAR r
ENCODING 114
SWIDTH 540 0
DWIDTH 9 0
BBX 9 18 0 -4
BITMAP
0000
0000
0000
0000
0000
0000
0000
6E00
3B00
3000
3000
3000
3000
3000
0000
0000
0000
0000
ENDCHAR
STARTCHAR s
ENCODING 115
SWIDTH 540 0
DWIDTH 9 0
BBX 9 18 0 -4
BITMAP
0000
0000
0000
0000
0000
0000
0000
3E00
6300
6000
3E00
0300
6300
3E00
0000
0000
0000
0000
ENDCHAR
STARTCHAR t
ENCODING 116
SWIDTH 540 0
DWIDTH 9 0
BBX 9 18 0 -4
BITMAP
0000
0000
0000
0000
0000
1800
1800
7E00
1800
1800
1800
1800
1B00
0E00
0000
0000
0000
0000
ENDCHAR
STARTCHAR u
ENCODING 117
SWIDTH 540 0
DWIDTH 9 0
BBX 9 18 0 -4
BITMAP
0000
0000
0000
0000
0000
0000
0000
6300
6300
6300
6300
6300
6300
3F00
0000
0000
0000
0000
ENDCHAR
STARTCHAR v
ENCODING 118
SWIDTH 540 0
DWIDTH 9 0
BBX 9 18 0 -4
BITMAP
0000
0000
0000
0000
0000
0000
0000
6300
6300
3600
3600
1C00
1C00
0800
0000
0000
0000
0000
ENDCHAR
STARTCHAR w
ENCODING 119
SWIDTH 540 0
DWIDTH 9 0
BBX 9 18 0 -4
BITMAP
0000
0000
0000
0000
0000
0000
0000
C300
C300
DB00
DB00
DB00
FF00
6600
0000
0000
0000
0000
ENDCHAR
STARTCHAR x
ENCODING 120
SWIDTH 540 0
DWIDTH 9 0
BBX 9 18 0 -4
BITMAP
0000
0000
0000
0000
0000
0000
0000
6300
3600
1C00
0800
1C00
3600
6300
0000
0000
0000
0000
ENDCHAR
STARTCHAR y
ENCODING 121
SWIDTH 540 0
DWIDTH 9 0
BBX 9 18 0 -4
BITMAP
0000
0000
0000
0000
0000
0000
0000
6300
6300
3600
3600
3600
1C00
1C00
1800
5800
3000
0000
ENDCHAR
STARTCHAR z
ENCODING 122
SWIDTH 540 0
DWIDTH 9 0
BBX 9 18 0 -4
BITMAP
0000
0000
0000
0000
0000
0000
0000
7E00
0600
0C00
1800
3000
6000
7E00
0000
0000
0000
0000
ENDCHAR
STARTCHAR braceleft
ENCODING 123
SWIDTH 540 0
DWIDTH 9 0
BBX 9 18 0 -4
BITMAP
0000
0000
0000
1E00
3000
3000
3000
3000
6000
3000
3000
3000
3000
1E00
0000
0000
0000
0000
ENDCHAR
STARTCHAR bar
ENCODING 124
SWIDTH 540 0
DWIDTH 9 0
BBX 9 18 0 -4
BITMAP
0000
0000
0000
1800
1800
1800
1800
1800
1800
1800
1800
1800
1800
1800
1800
0000
0000
0000
ENDCHAR
STARTCHAR braceright
ENCODING 125
SWIDTH 540 0
DWIDTH 9 0
BBX 9 18 0 -4
BITMAP
0000
0000
0000
7000
1800
1800
1800
1800
0E00
1800
1800
1800
1800
7000
0000
0000
0000
0000
ENDCHAR
STARTCHAR asciitilde
ENCODING 126
SWIDTH 540 0
DWIDTH 9 0
BBX 9 18 0 -4
BITMAP
0000
0000
0000
0000
7300
DB00
CE00
0000
0000
0000
0000
0000
0000
0000
0000
0000
0000
0000
ENDCHAR
STARTCHAR space
ENCODING 160
SWIDTH 540 0
DWIDTH 9 0
BBX 9 18 0 -4
BITMAP
0000
0000
0000
0000
0000
0000
0000
0000
0000
0000
0000
0000
0000
0000
0000
0000
0000
0000
ENDCHAR
STARTCHAR exclamdown
ENCODING 161
SWIDTH 540 0
DWIDTH 9 0
BBX 9 18 0 -4
BITMAP
0000
0000
0000
0000
0C00
0000
0C00
0C00
0C00
0C00
0C00
0C00
0C00
0C00
0000
0000
0000
0000
ENDCHAR
STARTCHAR cent
ENCODING 162
SWIDTH 540 0
DWIDTH 9 0
BBX 9 18 0 -4
BITMAP
0000
0000
0000
0000
0000
0000
0200
3E00
6700
6800
6800
7300
3E00
2000
0000
0000
0000
0000
ENDCHAR
STARTCHAR sterling
ENCODING 163
SWIDTH 540 0
DWIDTH 9 0
BBX 9 18 0 -4
BITMAP
0000
0000
0000
0000
0000
1E00
3300
3000
3000
7C00
3000
3000
F800
BF00
E000
0000
0000
0000
ENDCHAR
STARTCHAR currency
ENCODING 164
SWIDTH 540 0
DWIDTH 9 0
BBX 9 18 0 -4
BITMAP
0000
0000
0000
0000
0000
6300
7F00
3600
2200
3600
7F00
6300
0000
0000
0000
0000
0000
0000
ENDCHAR
STARTCHAR yen
ENCODING 165
SWIDTH 540 0
DWIDTH 9 0
BBX 9 18 0 -4
BITMAP
0000
0000
0000
0000
C300
C300
6600
3C00
7E00
1800
7E00
1800
1800
1800
0000
0000
0000
0000
ENDCHAR
STARTCHAR brokenbar
ENCODING 166
SWIDTH 540 0
DWIDTH 9 0
BBX 9 18 0 -4
BITMAP
0000
0000
0000
0000
1800
1800
1800
1800
1800
0000
1800
1800
1800
1800
1800
0000
0000
0000
ENDCHAR
STARTCHAR section
ENCODING 167
SWIDTH 540 0
DWIDTH 9 0
BBX 9 18 0 -4
BITMAP
0000
0000
0000
0000
3C00
6600
6000
3C00
6600
6600
6600
3C00
0600
6600
3C00
0000
0000
0000
ENDCHAR
STARTCHAR dieresis
ENCODING 168
SWIDTH 540 0
DWIDTH 9 0
BBX 9 18 0 -4
BITMAP
0000
3600
3600
0000
0000
0000
0000
0000
0000
0000
0000
0000
0000
0000
0000
0000
0000
0000
ENDCHAR
STARTCHAR copyright
ENCODING 169
SWIDTH 540 0
DWIDTH 9 0
BBX 9 18 0 -4
BITMAP
0000
0000
0000
3C00
7E00
C300
BD00
A500
A100
A500
BD00
C300
7E00
3C00
0000
0000
0000
0000
ENDCHAR
STARTCHAR ordfeminine
ENCODING 170
SWIDTH 540 0
DWIDTH 9 0
BBX 9 18 0 -4
BITMAP
0000
0000
0000
0000
3800
0C00
3C00
6C00
3C00
0000
7C00
0000
0000
0000
0000
0000
0000
0000
ENDCHAR
STARTCHAR guillemotleft
ENCODING 171
SWIDTH 540 0
DWIDTH 9 0
BBX 9 18 0 -4
BITMAP
0000
0000
0000
0000
0000
1B00
3600
6C00
D800
D800
6C00
3600
1B00
0000
0000
0000
0000
0000
ENDCHAR
STARTCHAR logicalnot
ENCODING 172
SWIDTH 540 0
DWIDTH 9 0
BBX 9 18 0 -4
BITMAP
0000
0000
0000
0000
0000
0000
0000
7F00
7F00
0300
0300
0300
0000
0000
0000
0000
0000
0000
ENDCHAR
STARTCHAR hyphen
ENCODING 173
SWIDTH 540 0
DWIDTH 9 0
BBX 9 18 0 -4
BITMAP
0000
0000
0000
0000
0000
0000
0000
0000
0000
7E00
0000
0000
0000
0000
0000
0000
0000
0000
ENDCHAR
STARTCHAR registered
ENCODING 174
SWIDTH 540 0
DWIDTH 9 0
BBX 9 18 0 -4
BITMAP
0000
0000
0000
3C00
7E00
C300
BD00
A500
BD00
A900
AD00
C300
7E00
3C00
0000
0000
0000
0000
ENDCHAR
STARTCHAR macron
ENCODING 175
SWIDTH 540 0
DWIDTH 9 0
BBX 9 18 0 -4
BITMAP
0000
0000
0000
7E00
7E00
0000
0000
0000
0000
0000
0000
0000
0000
0000
0000
0000
0000
0000
ENDCHAR
STARTCHAR degree
ENCODING 176
SWIDTH 540 0
DWIDTH 9 0
BBX 9 18 0 -4
BITMAP
0000
0000
3800
6C00
6C00
3800
0000
0000
0000
0000
0000
0000
0000
0000
0000
0000
0000
0000
ENDCHAR
STARTCHAR plusminus
ENCODING 177
SWIDTH 540 0
DWIDTH 9 0
BBX 9 18 0 -4
BITMAP
0000
0000
0000
0000
1800
1800
1800
7E00
1800
1800
1800
0000
7E00
0000
0000
0000
0000
0000
ENDCHAR
STARTCHAR twosuperior
ENCODING 178
SWIDTH 540 0
DWIDTH 9 0
BBX 9 18 0 -4
BITMAP
0000
0000
0000
0000
3800
6C00
0C00
1800
3000
7C00
0000
0000
0000
0000
0000
0000
0000
0000
ENDCHAR
STARTCHAR threesuperior
ENCODING 179
SWIDTH 540 0
DWIDTH 9 0
BBX 9 18 0 -4
BITMAP
0000
0000
0000
0000
3800
6C00
1800
0C00
6C00
3800
0000
0000
0000
0000
0000
0000
0000
0000
ENDCHAR
STARTCHAR acute
ENCODING 180
SWIDTH 540 0
DWIDTH 9 0
BBX 9 18 0 -4
BITMAP
0000
0C00
1800
3000
0000
0000
0000
0000
0000
0000
0000
0000
0000
0000
0000
0000
0000
0000
ENDCHAR
STARTCHAR mu
ENCODING 181
SWIDTH 540 0
DWIDTH 9 0
BBX 9 18 0 -4
BITMAP
0000
0000
0000
0000
0000
0000
0000
6300
6300
6300
6300
6700
6F00
7B00
6000
6000
0000
0000
ENDCHAR
STARTCHAR paragraph
ENCODING 182
SWIDTH 540 0
DWIDTH 9 0
BBX 9 18 0 -4
BITMAP
0000
0000
0000
0000
3F00
7B00
7B00
7B00
3B00
1B00
1B00
1B00
1B00
1B00
0000
0000
0000
0000
ENDCHAR
STARTCHAR periodcentered
ENCODING 183
SWIDTH 540 0
DWIDTH 9 0
BBX 9 18 0 -4
BITMAP
0000
0000
0000
0000
0000
0000
0000
0000
1C00
1C00
0000
0000
0000
0000
0000
0000
0000
0000
ENDCHAR
STARTCHAR cedilla
ENCODING 184
SWIDTH 540 0
DWIDTH 9 0
BBX 9 18 0 -4
BITMAP
0000
0000
0000
0000
0000
0000
0000
0000
0000
0000
0000
0000
0000
0000
0C00
6600
3C00
0000
ENDCHAR
STARTCHAR onesuperior
ENCODING 185
SWIDTH 540 0
DWIDTH 9 0
BBX 9 18 0 -4
BITMAP
0000
0000
0000
0000
3000
7000
3000
3000
3000
7800
0000
0000
0000
0000
0000
0000
0000
0000
ENDCHAR
STARTCHAR ordmasculine
ENCODING 186
SWIDTH 540 0
DWIDTH 9 0
BBX 9 18 0 -4
BITMAP
0000
0000
0000
0000
3800
6C00
6C00
6C00
3800
0000
7C00
0000
0000
0000
0000
0000
0000
0000
ENDCHAR
STARTCHAR guillemotright
ENCODING 187
SWIDTH 540 0
DWIDTH 9 0
BBX 9 18 0 -4
BITMAP
0000
0000
0000
0000
0000
D800
6C00
3600
1B00
1B00
3600
6C00
D800
0000
0000
0000
0000
0000
ENDCHAR
STARTCHAR onequarter
ENCODING 188
SWIDTH 540 0
DWIDTH 9 0
BBX 9 18 0 -4
BITMAP
0000
0000
0000
6000
E000
6000
6000
6100
6300
F700
0F00
1B00
1F00
0300
0000
0000
0000
0000
ENDCHAR
STARTCHAR onehalf
ENCODING 189
SWIDTH 540 0
DWIDTH 9 0
BBX 9 18 0 -4
BITMAP
0000
0000
0000
6000
E000
6000
6000
6E00
7300
F300
0600
0C00
1800
1F00
0000
0000
0000
0000
ENDCHAR
STARTCHAR threequarters
ENCODING 190
SWIDTH 540 0
DWIDTH 9 0
BBX 9 18 0 -4
BITMAP
0000
0000
0000
7000
9800
1800
3000
1900
9B00
7700
0F00
1B00
1F00
0300
0000
0000
0000
0000
ENDCHAR
STARTCHAR questiondown
ENCODING 191
SWIDTH 540 0
DWIDTH 9 0
BBX 9 18 0 -4
BITMAP
0000
0000
0000
0000
0C00
0C00
0000
0C00
1800
3000
6000
6300
6300
3E00
0000
0000
0000
0000
ENDCHAR
STARTCHAR Agrave
ENCODING 192
SWIDTH 540 0
DWIDTH 9 0
BBX 9 18 0 -4
BITMAP
3000
1800
0C00
0000
0800
1C00
1C00
1C00
3600
3E00
3600
6300
6300
6300
0000
0000
0000
0000
ENDCHAR
STARTCHAR Aacute
ENCODING 193
SWIDTH 540 0
DWIDTH 9 0
BBX 9 18 0 -4
BITMAP
0600
0C00
1800
0000
0800
1C00
1C00
1C00
3600
3E00
3600
6300
6300
6300
0000
0000
0000
0000
ENDCHAR
STARTCHAR Acircumflex
ENCODING 194
SWIDTH 540 0
DWIDTH 9 0
BBX 9 18 0 -4
BITMAP
0800
1C00
3600
0000
0800
1C00
1C00
1C00
3600
3E00
3600
6300
6300
6300
0000
0000
0000
0000
ENDCHAR
STARTCHAR Atilde
ENCODING 195
SWIDTH 540 0
DWIDTH 9 0
BBX 9 18 0 -4
BITMAP
0000
3B00
6E00
0000
0800
1C00
1C00
1C00
3600
3E00
3600
6300
6300
6300
0000
0000
0000
0000
ENDCHAR
STARTCHAR Adieresis
ENCODING 196
SWIDTH 540 0
DWIDTH 9 0
BBX 9 18 0 -4
BITMAP
0000
3600
3600
0000
0800
1C00
1C00
1C00
3600
3E00
3600
6300
6300
6300
0000
0000
0000
0000
ENDCHAR
STARTCHAR Aring
ENCODING 197
SWIDTH 540 0
DWIDTH 9 0
BBX 9 18 0 -4
BITMAP
1C00
3600
3600
1C00
0800
1C00
1C00
1C00
3600
3E00
3600
6300
6300
6300
0000
0000
0000
0000
ENDCHAR
STARTCHAR AE
ENCODING 198
SWIDTH 540 0
DWIDTH 9 0
BBX 9 18 0 -4
BITMAP
0000
0000
0000
0000
1F00
1E00
3600
3600
3700
7E00
6600
6600
6600
6700
0000
0000
0000
0000
ENDCHAR
STARTCHAR Ccedilla
ENCODING 199
SWIDTH 540 0
DWIDTH 9 0
BBX 9 18 0 -4
BITMAP
0000
0000
0000
0000
1E00
3300
6000
6000
6000
6000
6000
6000
3300
1E00
0C00
0600
3600
1C00
ENDCHAR
STARTCHAR Egrave
ENCODING 200
SWIDTH 540 0
DWIDTH 9 0
BBX 9 18 0 -4
BITMAP
3000
1800
0C00
0000
7F00
6000
6000
6000
7C00
6000
6000
6000
6000
7F00
0000
0000
0000
0000
ENDCHAR
STARTCHAR Eacute
ENCODING 201
SWIDTH 540 0
DWIDTH 9 0
BBX 9 18 0 -4
BITMAP
0600
0C00
1800
0000
7F00
6000
6000
6000
7C00
6000
6000
6000
6000
7F00
0000
0000
0000
0000
ENDCHAR
STARTCHAR Ecircumflex
ENCODING 202
SWIDTH 540 0
DWIDTH 9 0
BBX 9 18 0 -4
BITMAP
0800
1C00
3600
0000
7F00
6000
6000
6000
7C00
6000
6000
6000
6000
7F00
0000
0000
0000
0000
ENDCHAR
STARTCHAR Edieresis
ENCODING 203
SWIDTH 540 0
DWIDTH 9 0
BBX 9 18 0 -4
BITMAP
0000
3600
3600
0000
7F00
6000
6000
6000
7C00
6000
6000
6000
6000
7F00
0000
0000
0000
0000
ENDCHAR
STARTCHAR Igrave
ENCODING 204
SWIDTH 540 0
DWIDTH 9 0
BBX 9 18 0 -4
BITMAP
3000
1800
0C00
0000
7E00
1800
1800
1800
1800
1800
1800
1800
1800
7E00
0000
0000
0000
0000
ENDCHAR
STARTCHAR Iacute
ENCODING 205
SWIDTH 540 0
DWIDTH 9 0
BBX 9 18 0 -4
BITMAP
0600
0C00
1800
0000
7E00
1800
1800
1800
1800
1800
1800
1800
1800
7E00
0000
0000
0000
0000
ENDCHAR
STARTCHAR Icircumflex
ENCODING 206
SWIDTH 540 0
DWIDTH 9 0
BBX 9 18 0 -4
BITMAP
0800
1C00
3600
0000
7E00
1800
1800
1800
1800
1800
1800
1800
1800
7E00
0000
0000
0000
0000
ENDCHAR
STARTCHAR Idieresis
ENCODING 207
SWIDTH 540 0
DWIDTH 9 0
BBX 9 18 0 -4
BITMAP
0000
3600
3600
0000
7E00
1800
1800
1800
1800
1800
1800
1800
1800
7E00
0000
0000
0000
0000
ENDCHAR
STARTCHAR Eth
ENCODING 208
SWIDTH 540 0
DWIDTH 9 0
BBX 9 18 0 -4
BITMAP
0000
0000
0000
0000
7C00
6600
6300
6300
F300
6300
6300
6300
6600
7C00
0000
0000
0000
0000
ENDCHAR
STARTCHAR Ntilde
ENCODING 209
SWIDTH 540 0
DWIDTH 9 0
BBX 9 18 0 -4
BITMAP
0000
3B00
6E00
0000
6300
6300
7300
7B00
6F00
6700
6300
6300
6300
6300
0000
0000
0000
0000
ENDCHAR
STARTCHAR Ograve
ENCODING 210
SWIDTH 540 0
DWIDTH 9 0
BBX 9 18 0 -4
BITMAP
3000
1800
0C00
0000
3E00
6300
6300
6300
6300
6300
6300
6300
6300
3E00
0000
0000
0000
0000
ENDCHAR
STARTCHAR Oacute
ENCODING 211
SWIDTH 540 0
DWIDTH 9 0
BBX 9 18 0 -4
BITMAP
0600
0C00
1800
0000
3E00
6300
6300
6300
6300
6300
6300
6300
6300
3E00
0000
0000
0000
0000
ENDCHAR
STARTCHAR Ocircumflex
ENCODING 212
SWIDTH 540 0
DWIDTH 9 0
BBX 9 18 0 -4
BITMAP
0800
1C00
3600
0000
3E00
6300
6300
6300
6300
6300
6300
6300
6300
3E00
0000
0000
0000
0000
ENDCHAR
STARTCHAR Otilde
ENCODING 213
SWIDTH 540 0
DWIDTH 9 0
BBX 9 18 0 -4
BITMAP
0000
3B00
6E00
0000
3E00
6300
6300
6300
6300
6300
6300
6300
6300
3E00
0000
0000
0000
0000
ENDCHAR
STARTCHAR Odieresis
ENCODING 214
SWIDTH 540 0
DWIDTH 9 0
BBX 9 18 0 -4
BITMAP
0000
3600
3600
0000
3E00
6300
6300
6300
6300
6300
6300
6300
6300
3E00
0000
0000
0000
0000
ENDCHAR
STARTCHAR multiply
ENCODING 215
SWIDTH 540 0
DWIDTH 9 0
BBX 9 18 0 -4
BITMAP
0000
0000
0000
0000
0000
0000
C300
6600
3C00
1800
3C00
6600
C300
0000
0000
0000
0000
0000
ENDCHAR
STARTCHAR Oslash
ENCODING 216
SWIDTH 540 0
DWIDTH 9 0
BBX 9 18 0 -4
BITMAP
0000
0000
0000
0300
3F00
6700
6700
6F00
6F00
7B00
7B00
7300
7300
7E00
6000
0000
0000
0000
ENDCHAR
STARTCHAR Ugrave
ENCODING 217
SWIDTH 540 0
DWIDTH 9 0
BBX 9 18 0 -4
BITMAP
3000
1800
0C00
0000
6300
6300
6300
6300
6300
6300
6300
6300
3600
1C00
0000
0000
0000
0000
ENDCHAR
STARTCHAR Uacute
ENCODING 218
SWIDTH 540 0
DWIDTH 9 0
BBX 9 18 0 -4
BITMAP
0600
0C00
1800
0000
6300
6300
6300
6300
6300
6300
6300
6300
3600
1C00
0000
0000
0000
0000
ENDCHAR
STARTCHAR Ucircumflex
ENCODING 219
SWIDTH 540 0
DWIDTH 9 0
BBX 9 18 0 -4
BITMAP
0800
1C00
3600
0000
6300
6300
6300
6300
6300
6300
6300
6300
3600
1C00
0000
0000
0000
0000
ENDCHAR
STARTCHAR Udieresis
ENCODING 220
SWIDTH 540 0
DWIDTH 9 0
BBX 9 18 0 -4
BITMAP
0000
3600
3600
0000
6300
6300
6300
6300
6300
6300
6300
6300
3600
1C00
0000
0000
0000
0000
ENDCHAR
STARTCHAR Yacute
ENCODING 221
SWIDTH 540 0
DWIDTH 9 0
BBX 9 18 0 -4
BITMAP
0C00
1800
3000
0000
C300
C300
6600
3C00
1800
1800
1800
1800
1800
1800
0000
0000
0000
0000
ENDCHAR
STARTCHAR Thorn
ENCODING 222
SWIDTH 540 0
DWIDTH 9 0
BBX 9 18 0 -4
BITMAP
0000
0000
0000
0000
6000
6000
7E00
6300
6300
6300
7E00
6000
6000
6000
0000
0000
0000
0000
ENDCHAR
STARTCHAR germandbls
ENCODING 223
SWIDTH 540 0
DWIDTH 9 0
BBX 9 18 0 -4
BITMAP
0000
0000
0000
0000
1E00
3300
3300
3300
7600
3300
3300
3300
3300
3600
0000
0000
0000
0000
ENDCHAR
STARTCHAR agrave
ENCODING 224
SWIDTH 540 0
DWIDTH 9 0
BBX 9 18 0 -4
BITMAP
0000
0000
0000
3000
1800
0C00
0000
3E00
0300
0300
3F00
6300
6300
3F00
0000
0000
0000
0000
ENDCHAR
STARTCHAR aacute
ENCODING 225
SWIDTH 540 0
DWIDTH 9 0
BBX 9 18 0 -4
BITMAP
0000
0000
0000
0600
0C00
1800
0000
3E00
0300
0300
3F00
6300
6300
3F00
0000
0000
0000
0000
ENDCHAR
STARTCHAR acircumflex
ENCODING 226
SWIDTH 540 0
DWIDTH 9 0
BBX 9 18 0 -4
BITMAP
0000
0000
0000
0800
1C00
3600
0000
3E00
0300
0300
3F00
6300
6300
3F00
0000
0000
0000
0000
ENDCHAR
STARTCHAR atilde
ENCODING 227
SWIDTH 540 0
DWIDTH 9 0
BBX 9 18 0 -4
BITMAP
0000
0000
0000
0000
3B00
6E00
0000
3E00
0300
0300
3F00
6300
6300
3F00
0000
0000
0000
0000
ENDCHAR
STARTCHAR adieresis
ENCODING 228
SWIDTH 540 0
DWIDTH 9 0
BBX 9 18 0 -4
BITMAP
0000
0000
0000
0000
3600
3600
0000
3E00
0300
0300
3F00
6300
6300
3F00
0000
0000
0000
0000
ENDCHAR
STARTCHAR aring
ENCODING 229
SWIDTH 540 0
DWIDTH 9 0
BBX 9 18 0 -4
BITMAP
0000
0000
0000
1C00
3600
1C00
0000
3E00
0300
0300
3F00
6300
6300
3F00
0000
0000
0000
0000
ENDCHAR
STARTCHAR ae
ENCODING 230
SWIDTH 540 0
DWIDTH 9 0
BBX 9 18 0 -4
BITMAP
0000
0000
0000
0000
0000
0000
0000
7600
1B00
1B00
7F00
D800
DB00
7600
0000
0000
0000
0000
ENDCHAR
STARTCHAR ccedilla
ENCODING 231
SWIDTH 540 0
DWIDTH 9 0
BBX 9 18 0 -4
BITMAP
0000
0000
0000
0000
0000
0000
0000
3E00
6300
6000
6000
6000
6300
3E00
0C00
0600
3600
1C00
ENDCHAR
STARTCHAR egrave
ENCODING 232
SWIDTH 540 0
DWIDTH 9 0
BBX 9 18 0 -4
BITMAP
0000
0000
0000
3000
1800
0C00
0000
3E00
6300
6300
7F00
6000
6300
3E00
0000
0000
0000
0000
ENDCHAR
STARTCHAR eacute
ENCODING 233
SWIDTH 540 0
DWIDTH 9 0
BBX 9 18 0 -4
BITMAP
0000
0000
0000
0600
0C00
1800
0000
3E00
6300
6300
7F00
6000
6300
3E00
0000
0000
0000
0000
ENDCHAR
STARTCHAR ecircumflex
ENCODING 234
SWIDTH 540 0
DWIDTH 9 0
BBX 9 18 0 -4
BITMAP
0000
0000
0000
0800
1C00
3600
0000
3E00
6300
6300
7F00
6000
6300
3E00
0000
0000
0000
0000
ENDCHAR
STARTCHAR edieresis
ENCODING 235
SWIDTH 540 0
DWIDTH 9 0
BBX 9 18 0 -4
BITMAP
0000
0000
0000
0000
3600
3600
0000
3E00
6300
6300
7F00
6000
6300
3E00
0000
0000
0000
0000
ENDCHAR
STARTCHAR igrave
ENCODING 236
SWIDTH 540 0
DWIDTH 9 0
BBX 9 18 0 -4
BITMAP
0000
0000
0000
6000
3000
1800
0000
7800
1800
1800
1800
1800
1800
7E00
0000
0000
0000
0000
ENDCHAR
STARTCHAR iacute
ENCODING 237
SWIDTH 540 0
DWIDTH 9 0
BBX 9 18 0 -4
BITMAP
0000
0000
0000
0600
0C00
1800
0000
7800
1800
1800
1800
1800
1800
7E00
0000
0000
0000
0000
ENDCHAR
STARTCHAR icircumflex
ENCODING 238
SWIDTH 540 0
DWIDTH 9 0
BBX 9 18 0 -4
BITMAP
0000
0000
0000
1000
3800
6C00
0000
7800
1800
1800
1800
1800
1800
7E00
0000
0000
0000
0000
ENDCHAR
STARTCHAR idieresis
ENCODING 239
SWIDTH 540 0
DWIDTH 9 0
BBX 9 18 0 -4
BITMAP
0000
0000
0000
0000
3600
3600
0000
7800
1800
1800
1800
1800
1800
7E00
0000
0000
0000
0000
ENDCHAR
STARTCHAR eth
ENCODING 240
SWIDTH 540 0
DWIDTH 9 0
BBX 9 18 0 -4
BITMAP
0000
0000
0000
3600
1C00
1C00
3600
0600
3F00
6300
6300
6300
6300
3E00
0000
0000
0000
0000
ENDCHAR
STARTCHAR ntilde
ENCODING 241
SWIDTH 540 0
DWIDTH 9 0
BBX 9 18 0 -4
BITMAP
0000
0000
0000
0000
3B00
6E00
0000
6E00
7300
6300
6300
6300
6300
6300
0000
0000
0000
0000
ENDCHAR
STARTCHAR ograve
ENCODING 242
SWIDTH 540 0
DWIDTH 9 0
BBX 9 18 0 -4
BITMAP
0000
0000
0000
3000
1800
0C00
0000
1C00
3600
6300
6300
6300
3600
1C00
0000
0000
0000
0000
ENDCHAR
STARTCHAR oacute
ENCODING 243
SWIDTH 540 0
DWIDTH 9 0
BBX 9 18 0 -4
BITMAP
0000
0000
0000
0600
0C00
1800
0000
1C00
3600
6300
6300
6300
3600
1C00
0000
0000
0000
0000
ENDCHAR
STARTCHAR ocircumflex
ENCODING 244
SWIDTH 540 0
DWIDTH 9 0
BBX 9 18 0 -4
BITMAP
0000
0000
0000
0800
1C00
3600
0000
1C00
3600
6300
6300
6300
3600
1C00
0000
0000
0000
0000
ENDCHAR
STARTCHAR otilde
ENCODING 245
SWIDTH 540 0
DWIDTH 9 0
BBX 9 18 0 -4
BITMAP
0000
0000
0000
0000
3B00
6E00
0000
1C00
3600
6300
6300
6300
3600
1C00
0000
0000
0000
0000
ENDCHAR
STARTCHAR odieresis
ENCODING 246
SWIDTH 540 0
DWIDTH 9 0
BBX 9 18 0 -4
BITMAP
0000
0000
0000
0000
3600
3600
0000
1C00
3600
6300
6300
6300
3600
1C00
0000
0000
0000
0000
ENDCHAR
STARTCHAR divide
ENCODING 247
SWIDTH 540 0
DWIDTH 9 0
BBX 9 18 0 -4
BITMAP
0000
0000
0000
0000
0000
0000
1800
1800
0000
FF00
0000
1800
1800
0000
0000
0000
0000
0000
ENDCHAR
STARTCHAR oslash
ENCODING 248
SWIDTH 540 0
DWIDTH 9 0
BBX 9 18 0 -4
BITMAP
0000
0000
0000
0000
0000
0000
0100
3F00
6600
CF00
DB00
F300
6600
FC00
8000
0000
0000
0000
ENDCHAR
STARTCHAR ugrave
ENCODING 249
SWIDTH 540 0
DWIDTH 9 0
BBX 9 18 0 -4
BITMAP
0000
0000
0000
3000
1800
0C00
0000
6300
6300
6300
6300
6300
6300
3F00
0000
0000
0000
0000
ENDCHAR
STARTCHAR uacute
ENCODING 250
SWIDTH 540 0
DWIDTH 9 0
BBX 9 18 0 -4
BITMAP
0000
0000
0000
0600
0C00
1800
0000
6300
6300
6300
6300
6300
6300
3F00
0000
0000
0000
0000
ENDCHAR
STARTCHAR ucircumflex
ENCODING 251
SWIDTH 540 0
DWIDTH 9 0
BBX 9 18 0 -4
BITMAP
0000
0000
0000
0800
1C00
3600
0000
6300
6300
6300
6300
6300
6300
3F00
0000
0000
0000
0000
ENDCHAR
STARTCHAR udieresis
ENCODING 252
SWIDTH 540 0
DWIDTH 9 0
BBX 9 18 0 -4
BITMAP
0000
0000
0000
0000
3600
3600
0000
6300
6300
6300
6300
6300
6300
3F00
0000
0000
0000
0000
ENDCHAR
STARTCHAR yacute
ENCODING 253
SWIDTH 540 0
DWIDTH 9 0
BBX 9 18 0 -4
BITMAP
0000
0000
0000
0600
0C00
1800
0000
6300
6300
3600
3600
3600
1C00
1C00
1800
5800
3000
0000
ENDCHAR
STARTCHAR thorn
ENCODING 254
SWIDTH 540 0
DWIDTH 9 0
BBX 9 18 0 -4
BITMAP
0000
0000
0000
0000
0000
6000
6000
7C00
6600
6300
6300
6300
6600
7C00
6000
6000
0000
0000
ENDCHAR
STARTCHAR ydieresis
ENCODING 255
SWIDTH 540 0
DWIDTH 9 0
BBX 9 18 0 -4
BITMAP
0000
0000
0000
0000
3600
3600
0000
6300
6300
3600
3600
3600
1C00
1C00
1800
5800
3000
0000
ENDCHAR
ENDFONT
